<svg xmlns="http://www.w3.org/2000/svg" viewBox="0 0 446.46 187.33"><defs><style>.cls-1{fill:#e5943e;}.cls-1,.cls-2,.cls-5{stroke:#231f20;stroke-miterlimit:10;}.cls-1,.cls-2{stroke-width:2px;}.cls-2{fill:#55a69f;}.cls-3,.cls-4{font-size:12px;}.cls-3,.cls-4,.cls-6{fill:#231f20;}.cls-3{font-family:Helvetica-Oblique, Helvetica;}.cls-4{font-family:Helvetica, Helvetica;}.cls-5{fill:none;}</style></defs><title>2Dshapes</title><g id="Graphics"><polyline class="cls-1" points="118.78 157.47 201.32 157.47 160.05 58.42 118.78 157.47"/><polyline class="cls-2" points="259.1 169.86 233.59 91.35 300.37 42.84 367.15 91.35 341.64 169.85 300.37 113.03 259.1 169.86"/></g><g id="Text"><g id="_2Dshapes" data-name="2Dshapes"><text class="cls-3" transform="translate(94.96 107.95)">h</text><text class="cls-3" transform="translate(155.71 182.24)">w</text><text class="cls-3" transform="translate(340.3 54.22)">a</text><text class="cls-4" transform="translate(76.88 41.09)">(a)</text><text class="cls-4" transform="translate(226.17 41.09)">(b)</text></g></g><g id="Arrows"><g id="_2Dshapes-2" data-name="2Dshapes"><line class="cls-5" x1="106.39" y1="156.15" x2="106.39" y2="59.75"/><rect class="cls-6" x="103.14" y="155.65" width="6.5" height="1"/><rect class="cls-6" x="103.14" y="59.25" width="6.5" height="1"/><line class="cls-5" x1="120.1" y1="169.86" x2="199.99" y2="169.86"/><rect class="cls-6" x="119.6" y="166.61" width="1" height="6.5"/><rect class="cls-6" x="199.49" y="166.61" width="1" height="6.5"/><line class="cls-5" x1="308.04" y1="34.63" x2="372.68" y2="81.59"/><rect class="cls-6" x="304.79" y="34.13" width="6.5" height="1" transform="matrix(0.59, -0.81, 0.81, 0.59, 98.98, 263.5)"/><rect class="cls-6" x="369.43" y="81.09" width="6.5" height="1" transform="translate(87.63 335.15) rotate(-54)"/></g></g></svg>