<svg xmlns="http://www.w3.org/2000/svg" xmlns:xlink="http://www.w3.org/1999/xlink" viewBox="0 0 446.46 206.67"><defs><style>.cls-1,.cls-11,.cls-4,.cls-5,.cls-7,.cls-9{fill:none;}.cls-1,.cls-11,.cls-2,.cls-5{stroke:#231f20;}.cls-1,.cls-11,.cls-2,.cls-4,.cls-5,.cls-7,.cls-9{stroke-miterlimit:10;}.cls-1,.cls-7{stroke-width:2px;}.cls-2{fill:url(#Unbenannter_Verlauf);}.cls-3{fill:#c89341;}.cls-4,.cls-7{stroke:#6f4f2b;}.cls-4,.cls-5,.cls-9{stroke-linecap:round;}.cls-4{stroke-width:3px;}.cls-6{fill:#fff;}.cls-8{font-size:12px;font-family:Helvetica-Oblique, Helvetica;}.cls-12,.cls-8{fill:#231f20;}.cls-9{stroke:#ed1c24;}.cls-10{fill:#ed1c24;}</style><linearGradient id="Unbenannter_Verlauf" x1="384.04" y1="180.79" x2="413.92" y2="180.79" gradientUnits="userSpaceOnUse"><stop offset="0" stop-color="#fff"/><stop offset="1"/></linearGradient></defs><title>balancedstick</title><g id="Graphics"><line class="cls-1" x1="398.98" y1="124.11" x2="398.98" y2="158.38"/><rect class="cls-2" x="384.04" y="157.95" width="29.88" height="45.69"/><line class="cls-1" x1="339.22" y1="123.67" x2="339.22" y2="35.8"/><rect class="cls-3" x="3.65" y="-0.23" width="439.26" height="35.15"/><line class="cls-4" x1="47.48" y1="123.67" x2="398.98" y2="123.67"/><path class="cls-5" d="M339.22,62.16V79.74m17.57,0a17.57,17.57,0,1,1-17.57-17.57A17.58,17.58,0,0,1,356.8,79.74Z"/><path class="cls-6" d="M356.8,79.74a17.57,17.57,0,1,1-17.57-17.57A17.58,17.58,0,0,1,356.8,79.74"/><line class="cls-7" x1="442.91" y1="34.92" x2="3.54" y2="34.92"/></g><g id="Text"><text class="cls-8" transform="translate(366.1 141.25)">x</text><text class="cls-8" transform="translate(65.16 118.47)">M</text><text class="cls-8" transform="translate(369.1 183.19)">m</text><text class="cls-8" transform="translate(356.8 73.51)">F</text></g><g id="Arrows"><line class="cls-9" x1="339.22" y1="79.74" x2="344.58" y2="76.64"/><polygon class="cls-10" points="347.64 74.88 344.35 79.13 344.35 76.78 342.31 75.61 347.64 74.88"/><line class="cls-11" x1="348.96" y1="132.46" x2="389.24" y2="132.46"/><polygon class="cls-12" points="345.43 132.46 350.4 134.49 349.22 132.46 350.4 130.43 345.43 132.46"/><polygon class="cls-12" points="392.77 132.46 387.8 134.49 388.98 132.46 387.8 130.43 392.77 132.46"/></g></svg>