<svg xmlns="http://www.w3.org/2000/svg" viewBox="0 0 446.46 157.65"><defs><style>.cls-1{fill:#c89341;}.cls-11,.cls-2,.cls-3,.cls-4,.cls-5,.cls-6{fill:none;stroke-miterlimit:10;}.cls-2{stroke:#6f4f2b;}.cls-11,.cls-2,.cls-4{stroke-width:2px;}.cls-3,.cls-4,.cls-5,.cls-6{stroke:#231f20;}.cls-3{stroke-width:5px;}.cls-6{stroke-width:1.04px;}.cls-7,.cls-8{font-size:12px;}.cls-13,.cls-7,.cls-8{fill:#231f20;}.cls-10,.cls-7{font-family:Helvetica-Oblique, Helvetica;}.cls-8{font-family:Helvetica, Helvetica;}.cls-9{letter-spacing:-0.1em;}.cls-10{letter-spacing:0.08em;}.cls-11{stroke:#e5483f;stroke-linecap:square;}.cls-12{fill:#e5483f;}</style></defs><title>bicyclewheel</title><g id="Graphics"><g id="bicyclewheel"><polygon class="cls-1" points="379.14 80.43 379.14 155.81 67.32 155.81 67.32 124.24 252.44 124.24 252.44 80.43 379.14 80.43"/><polyline class="cls-2" points="67.32 124.24 252.44 124.24 252.44 80.43 379.13 80.43"/><circle class="cls-3" cx="193.23" cy="62.64" r="59.2"/><circle class="cls-4" cx="193.23" cy="62.64" r="3.95"/><line class="cls-5" x1="197.18" y1="62.64" x2="252.44" y2="62.64"/><line class="cls-6" x1="189.28" y1="62.64" x2="134.03" y2="62.64"/><line class="cls-5" x1="193.23" y1="58.69" x2="193.23" y2="3.44"/><line class="cls-6" x1="193.23" y1="66.59" x2="193.23" y2="121.85"/><line class="cls-5" x1="196.65" y1="60.67" x2="244.5" y2="33.04"/><line class="cls-6" x1="189.81" y1="64.62" x2="141.96" y2="92.24"/><line class="cls-5" x1="195.2" y1="59.22" x2="222.83" y2="11.37"/><line class="cls-6" x1="191.26" y1="66.06" x2="163.63" y2="113.91"/><line class="cls-5" x1="191.26" y1="59.22" x2="163.63" y2="11.37"/><line class="cls-6" x1="195.21" y1="66.06" x2="222.84" y2="113.91"/><line class="cls-5" x1="189.81" y1="60.67" x2="141.96" y2="33.04"/><line class="cls-6" x1="196.65" y1="64.61" x2="244.51" y2="92.24"/></g></g><g id="Text"><g id="bicyclewheel-2" data-name="bicyclewheel"><text class="cls-7" transform="translate(220.58 39.75)">R</text><text class="cls-7" transform="translate(301.11 55.27)">F</text><text class="cls-8" transform="translate(265.67 105.97)"><tspan class="cls-9">3</tspan><tspan class="cls-10" x="5.47" y="0">R</tspan><tspan x="15.1" y="0">/4</tspan></text><text class="cls-7" transform="translate(138.69 18.28)">M</text></g></g><g id="Arrows"><g id="bicyclewheel-3" data-name="bicyclewheel"><line class="cls-11" x1="193.23" y1="62.64" x2="304.58" y2="62.64"/><polygon class="cls-12" points="311.64 62.64 301.69 66.71 304.05 62.64 301.69 58.58 311.64 62.64"/><line class="cls-5" x1="261.67" y1="120.32" x2="261.67" y2="83.96"/><polygon class="cls-13" points="261.67 123.85 263.7 118.87 261.67 120.05 259.64 118.87 261.67 123.85"/><polygon class="cls-13" points="261.67 80.43 263.7 85.4 261.67 84.22 259.64 85.4 261.67 80.43"/></g></g></svg>