<svg xmlns="http://www.w3.org/2000/svg" viewBox="0 0 446.46 330.67"><defs><style>.cls-1,.cls-14,.cls-16,.cls-18,.cls-2,.cls-3{fill:none;}.cls-1,.cls-5{stroke:#231f20;}.cls-1,.cls-14,.cls-16,.cls-18,.cls-2,.cls-3,.cls-4,.cls-5{stroke-miterlimit:10;}.cls-1,.cls-14,.cls-16,.cls-18,.cls-2{stroke-width:2px;}.cls-2{stroke:#365a50;}.cls-3{stroke:#616264;}.cls-17,.cls-4,.cls-8,.cls-9{fill:#3e7cb9;}.cls-16,.cls-4{stroke:#3e7cb9;}.cls-13,.cls-20,.cls-5{fill:#231f20;}.cls-11,.cls-12,.cls-13,.cls-6,.cls-7,.cls-8,.cls-9{font-size:12px;}.cls-15,.cls-6,.cls-7{fill:#e5483f;}.cls-11,.cls-6,.cls-8{font-family:Helvetica-Oblique, Helvetica;}.cls-12,.cls-13,.cls-7,.cls-9{font-family:Helvetica, Helvetica;}.cls-10{font-size:13px;font-family:Symbol, Symbol;}.cls-10,.cls-11,.cls-12,.cls-19{fill:#e5943e;}.cls-14{stroke:#e5483f;}.cls-18{stroke:#e5943e;}</style></defs><title>billiardshots</title><g id="Graphics"><g id="billiardshots"><line class="cls-1" x1="24.67" y1="125.18" x2="404.89" y2="125.18"/><line class="cls-1" x1="3.54" y1="314.06" x2="442.91" y2="314.06"/><circle class="cls-2" cx="88.04" cy="82.93" r="42.25"/><circle class="cls-2" cx="214.78" cy="82.93" r="42.25"/><circle class="cls-2" cx="341.52" cy="82.93" r="42.25"/><circle class="cls-2" cx="45.79" cy="271.82" r="42.25"/><circle class="cls-2" cx="155.63" cy="271.82" r="42.25"/><circle class="cls-2" cx="400.67" cy="271.82" r="42.25"/><circle class="cls-2" cx="290.82" cy="271.82" r="42.25"/><line class="cls-3" x1="28.89" y1="63.92" x2="45.79" y2="63.92"/><line class="cls-3" x1="28.89" y1="68.14" x2="45.79" y2="68.14"/><rect class="cls-4" x="43.26" y="63.92" width="2.53" height="4.22"/><rect class="cls-5" x="39.88" y="63.92" width="2.53" height="4.22"/><line class="cls-3" x1="162.39" y1="51.25" x2="179.29" y2="51.25"/><line class="cls-3" x1="162.39" y1="55.47" x2="179.29" y2="55.47"/><rect class="cls-4" x="176.76" y="51.25" width="2.53" height="4.22"/><rect class="cls-5" x="173.38" y="51.25" width="2.53" height="4.22"/><line class="cls-3" x1="278.15" y1="76.59" x2="295.05" y2="76.59"/><line class="cls-3" x1="278.15" y1="80.82" x2="295.05" y2="80.82"/><rect class="cls-4" x="292.51" y="76.59" width="2.53" height="4.22"/><rect class="cls-5" x="289.13" y="76.59" width="2.53" height="4.22"/></g></g><g id="Text"><g id="billiardshots-2" data-name="billiardshots"><text class="cls-6" transform="translate(344.53 136.49)">v</text><text class="cls-7" transform="translate(350.53 140.49) scale(0.52 0.58)">c</text><text class="cls-6" transform="translate(203.89 136.49)">v</text><text class="cls-7" transform="translate(209.89 140.49) scale(0.52 0.58)">c</text><text class="cls-8" transform="translate(326.38 136.49)">F</text><text class="cls-9" transform="translate(333.71 140.49) scale(0.52 0.58)">f</text><text class="cls-8" transform="translate(219.99 136.49)">F</text><text class="cls-9" transform="translate(227.32 140.49) scale(0.52 0.58)">f</text><text class="cls-8" transform="translate(384.52 325.38)">F</text><text class="cls-9" transform="translate(391.85 329.37) scale(0.52 0.58)">f</text><text class="cls-8" transform="translate(160.84 325.38)">F</text><text class="cls-9" transform="translate(168.17 329.37) scale(0.52 0.58)">f</text><text class="cls-10" transform="translate(210.3 30.96)">w</text><text class="cls-10" transform="translate(83.56 30.96)">w</text><text class="cls-10" transform="translate(337.04 26.73)">w</text><text class="cls-10" transform="translate(151.16 219.84)">w</text><text class="cls-10" transform="translate(41.31 219.84)">w</text><text class="cls-10" transform="translate(396.19 219.84)">w</text><text class="cls-10" transform="translate(286.35 219.84)">w</text><text class="cls-11" transform="translate(222.9 79.57)">v</text><text class="cls-11" transform="translate(96.16 79.57)">v</text><text class="cls-11" transform="translate(349.64 79.57)">v</text><text class="cls-11" transform="translate(162.91 266.77)">v</text><text class="cls-12" transform="translate(168.91 270.76) scale(0.52 0.58)">f</text><text class="cls-11" transform="translate(53.07 266.77)">v</text><text class="cls-12" transform="translate(59.07 270.76) scale(0.52 0.58)">i</text><text class="cls-11" transform="translate(386.17 266.77)">v</text><text class="cls-12" transform="translate(392.17 270.76) scale(0.52 0.58)">f</text><text class="cls-11" transform="translate(298.1 266.77)">v</text><text class="cls-12" transform="translate(304.1 270.76) scale(0.52 0.58)">i</text><text class="cls-13" transform="translate(59.02 9.86)">rolling shot</text><text class="cls-13" transform="translate(190.43 9.86)">high shot</text><text class="cls-13" transform="translate(319.51 9.86)">low shot</text><text class="cls-13" transform="translate(72.81 187.75)">follow shot</text><text class="cls-13" transform="translate(319.52 187.75)">draw shot</text><text class="cls-13" transform="translate(32.02 207.2)">before</text><text class="cls-13" transform="translate(145.81 207.2)">after</text><text class="cls-13" transform="translate(277.05 207.2)">before</text><text class="cls-13" transform="translate(390.84 207.2)">after</text><text class="cls-13" transform="translate(27.67 9.86)">(a)</text><text class="cls-13" transform="translate(159.91 9.86)">(b)</text><text class="cls-13" transform="translate(276.15 9.86)">(c)</text><text class="cls-13" transform="translate(2.54 187.75)">(d)</text><text class="cls-13" transform="translate(247.58 187.75)">(e)</text></g></g><g id="Arrows"><g id="billiardshots-3" data-name="billiardshots"><line class="cls-14" x1="214.78" y1="125.18" x2="202.82" y2="125.18"/><polygon class="cls-15" points="197.88 125.18 204.84 122.33 203.19 125.18 204.84 128.02 197.88 125.18"/><line class="cls-14" x1="341.52" y1="125.18" x2="353.48" y2="125.18"/><polygon class="cls-15" points="358.42 125.18 351.45 128.02 353.11 125.18 351.45 122.33 358.42 125.18"/><line class="cls-16" x1="214.78" y1="125.18" x2="235.19" y2="125.18"/><polygon class="cls-17" points="240.13 125.18 233.16 128.02 234.82 125.18 233.16 122.33 240.13 125.18"/><line class="cls-16" x1="341.52" y1="125.18" x2="321.11" y2="125.18"/><polygon class="cls-17" points="316.17 125.18 323.14 122.33 321.48 125.18 323.14 128.02 316.17 125.18"/><line class="cls-16" x1="155.63" y1="314.06" x2="176.04" y2="314.06"/><polygon class="cls-17" points="180.98 314.06 174.02 316.91 175.67 314.06 174.02 311.22 180.98 314.06"/><line class="cls-16" x1="400.67" y1="314.06" x2="380.26" y2="314.06"/><polygon class="cls-17" points="375.32 314.06 382.28 311.22 380.63 314.06 382.28 316.91 375.32 314.06"/><path class="cls-18" d="M71.72,38.12a42.45,42.45,0,0,1,28-1.73"/><polygon class="cls-19" points="104.36 38.01 96.85 38.53 99.31 36.35 98.64 33.13 104.36 38.01"/><path class="cls-18" d="M198.46,38.12a42.45,42.45,0,0,1,28-1.73"/><polygon class="cls-19" points="231.1 38.01 223.59 38.53 226.05 36.35 225.38 33.13 231.1 38.01"/><path class="cls-18" d="M329.86,36.47a42.45,42.45,0,0,1,28,1.55"/><polygon class="cls-19" points="325.2 38.12 332.71 38.59 330.23 36.42 330.89 33.19 325.2 38.12"/><path class="cls-18" d="M325.2,33.89a42.44,42.44,0,0,1,28-1.73"/><polygon class="cls-19" points="357.84 33.79 350.33 34.3 352.8 32.12 352.12 28.9 357.84 33.79"/><path class="cls-18" d="M29.47,227a42.45,42.45,0,0,1,28-1.73"/><polygon class="cls-19" points="62.11 226.9 54.6 227.42 57.07 225.23 56.39 222.01 62.11 226.9"/><path class="cls-18" d="M139.32,227a42.45,42.45,0,0,1,28-1.73"/><polygon class="cls-19" points="171.95 226.9 164.45 227.42 166.91 225.23 166.23 222.01 171.95 226.9"/><path class="cls-18" d="M389,225.35a42.45,42.45,0,0,1,28,1.55"/><polygon class="cls-19" points="384.35 227.01 391.86 227.47 389.38 225.31 390.04 222.08 384.35 227.01"/><path class="cls-18" d="M279.16,225.35a42.45,42.45,0,0,1,28,1.55"/><polygon class="cls-19" points="274.51 227.01 282.01 227.47 279.54 225.31 280.19 222.08 274.51 227.01"/><line class="cls-18" x1="88.04" y1="82.93" x2="108.44" y2="82.93"/><polygon class="cls-19" points="113.39 82.93 106.42 85.78 108.08 82.93 106.42 80.09 113.39 82.93"/><line class="cls-18" x1="214.78" y1="82.93" x2="235.19" y2="82.93"/><polygon class="cls-19" points="240.13 82.93 233.16 85.78 234.82 82.93 233.16 80.09 240.13 82.93"/><line class="cls-18" x1="341.52" y1="82.93" x2="361.93" y2="82.93"/><polygon class="cls-19" points="366.87 82.93 359.9 85.78 361.56 82.93 359.9 80.09 366.87 82.93"/><line class="cls-18" x1="45.79" y1="271.82" x2="66.2" y2="271.82"/><polygon class="cls-19" points="71.14 271.82 64.17 274.66 65.83 271.82 64.17 268.97 71.14 271.82"/><line class="cls-18" x1="155.63" y1="271.82" x2="176.04" y2="271.82"/><polygon class="cls-19" points="180.98 271.82 174.02 274.66 175.67 271.82 174.02 268.97 180.98 271.82"/><line class="cls-18" x1="380.26" y1="271.82" x2="400.67" y2="271.82"/><polygon class="cls-19" points="375.32 271.82 382.28 274.66 380.63 271.82 382.28 268.97 375.32 271.82"/><line class="cls-18" x1="290.82" y1="271.82" x2="311.23" y2="271.82"/><polygon class="cls-19" points="316.17 271.82 309.21 274.66 310.86 271.82 309.21 268.97 316.17 271.82"/><circle class="cls-20" cx="88.04" cy="125.18" r="2.11"/><circle class="cls-20" cx="45.79" cy="314.06" r="2.11"/><circle class="cls-20" cx="290.82" cy="314.06" r="2.11"/><circle class="cls-20" cx="400.67" cy="314.06" r="2.11"/><circle class="cls-20" cx="155.63" cy="314.06" r="2.11"/><circle class="cls-20" cx="341.52" cy="125.18" r="2.11"/><circle class="cls-20" cx="214.78" cy="125.18" r="2.11"/></g></g></svg>