<svg xmlns="http://www.w3.org/2000/svg" viewBox="0 0 446.46 161"><defs><style>.cls-1,.cls-12,.cls-3,.cls-5{fill:none;}.cls-1{stroke:#bcbec0;}.cls-1,.cls-3,.cls-5,.cls-7{stroke-linecap:round;}.cls-1,.cls-12,.cls-2,.cls-3,.cls-5,.cls-7{stroke-miterlimit:10;}.cls-1,.cls-12,.cls-2,.cls-3{stroke-width:2px;}.cls-2{fill:#c89341;stroke:#6f4f2b;}.cls-3,.cls-5,.cls-7{stroke:#808285;}.cls-4{fill:#55a69f;}.cls-5{stroke-width:1.84px;}.cls-6{fill:#808285;}.cls-7{fill:#fff;}.cls-8{fill:#e5483f;}.cls-9{fill:#3e7cb9;}.cls-10{font-size:13px;font-family:Symbol, Symbol;}.cls-10,.cls-11{fill:#231f20;}.cls-11{font-size:12px;font-family:Helvetica-Oblique, Helvetica;}.cls-12{stroke:#231f20;}</style></defs><title>blocksslope</title><g id="Graphics"><line class="cls-1" x1="67.32" y1="158.81" x2="379.13" y2="158.81"/><polyline class="cls-2" points="315.44 25.18 315.44 158.81 137.26 158.81 315.44 25.18"/><line class="cls-3" x1="128.21" y1="147.67" x2="102.51" y2="147.67"/><rect class="cls-4" x="70.44" y="136.54" width="32.07" height="22.27"/><line class="cls-5" x1="174.16" y1="115.94" x2="135.41" y2="145.14"/><path class="cls-3" d="M139.35,136.54a11.14,11.14,0,1,1-11.14-11.14A11.14,11.14,0,0,1,139.35,136.54ZM324.2,3.09,200,96.64"/><rect class="cls-6" x="124.65" y="132.08" width="7.13" height="26.73"/><circle class="cls-7" cx="128.21" cy="136.54" r="2.23"/><circle class="cls-3" cx="330.86" cy="11.93" r="11.14" transform="translate(59.44 201.52) rotate(-37)"/><polygon class="cls-6" points="315.44 31.01 312.4 27.45 330.83 6.74 335.99 11.66 315.44 31.01"/><circle class="cls-7" cx="330.86" cy="11.93" r="2.23" transform="translate(59.44 201.52) rotate(-37)"/><line class="cls-3" x1="341.99" y1="99.23" x2="341.99" y2="11.22"/><rect class="cls-8" x="329.85" y="99.23" width="22.27" height="32.07"/><polyline class="cls-9" points="180.99 124.96 167.58 107.17 193.2 87.87 206.6 105.66 180.99 124.96"/></g><g id="Text"><g id="blocksslope"><text class="cls-10" transform="translate(159 155.43)">θ</text><text class="cls-11" transform="translate(80.89 151.5)">A</text><text class="cls-11" transform="translate(336.09 119.39)">C</text><text class="cls-11" transform="translate(182.45 110.98)">B</text></g></g><g id="Arrows"><path id="blocksslope-2" data-name="blocksslope" class="cls-12" d="M151.47,148.06a19.39,19.39,0,0,1,2.78,5.38,21,21,0,0,1,.82,5.38"/></g></svg>