<svg xmlns="http://www.w3.org/2000/svg" viewBox="0 0 446.46 196.33"><defs><style>.cls-1,.cls-10,.cls-2,.cls-3,.cls-7,.cls-9{fill:none;stroke-miterlimit:10;}.cls-1,.cls-2{stroke:#e5483f;}.cls-1{stroke-linecap:round;}.cls-1,.cls-10,.cls-3,.cls-9{stroke-width:2px;}.cls-2{stroke-width:1.73px;}.cls-10,.cls-3,.cls-7,.cls-9{stroke:#231f20;}.cls-4{font-size:12px;}.cls-4,.cls-5,.cls-6,.cls-8{fill:#231f20;}.cls-4,.cls-5{font-family:Helvetica-Oblique, Helvetica;}.cls-5{font-size:13px;}.cls-6{font-size:13.24px;font-family:Helvetica, Helvetica;}.cls-9{stroke-dasharray:12.58 12.58;}.cls-10{stroke-dasharray:4.18;}</style></defs><title>cone</title><g id="Graphics"><g id="cone"><polyline class="cls-1" points="414.17 158.82 442.91 0.94 299.07 72.09"/><ellipse class="cls-2" cx="356.62" cy="115.45" rx="20.68" ry="72.06" transform="translate(49.79 330.78) rotate(-53)"/><polyline class="cls-1" points="218.99 144.33 146.93 0.94 74.87 144.33"/><ellipse class="cls-2" cx="146.93" cy="144.33" rx="72.06" ry="20.68"/><line class="cls-3" x1="257.23" y1="161.87" x2="433.71" y2="161.87"/></g></g><g id="Text"><g id="cone-2" data-name="cone"><text class="cls-4" transform="translate(29.28 72.63)">h</text><text class="cls-4" transform="translate(106.57 194.17)">R</text><text class="cls-5" transform="translate(324.63 143.39)">θ</text><text class="cls-6" transform="translate(3.54 12.02)">(a)</text><text class="cls-6" transform="translate(257.23 12.02)">(b)</text></g></g><g id="Arrows"><g id="cone-3" data-name="cone"><line class="cls-7" x1="146.93" y1="170.06" x2="146.93" y2="191.76"/><line class="cls-7" x1="74.87" y1="154.25" x2="74.87" y2="191.76"/><line class="cls-7" x1="25.6" y1="144.33" x2="64.21" y2="144.33"/><line class="cls-7" x1="25.6" y1="0.94" x2="128.18" y2="0.94"/><line class="cls-7" x1="44.91" y1="4.47" x2="44.91" y2="140.8"/><polygon class="cls-8" points="44.91 0.94 42.87 5.91 44.91 4.73 46.94 5.91 44.91 0.94"/><polygon class="cls-8" points="44.91 144.33 42.87 139.35 44.91 140.53 46.94 139.35 44.91 144.33"/><line class="cls-7" x1="78.4" y1="180.36" x2="143.4" y2="180.36"/><polygon class="cls-8" points="74.87 180.36 79.84 182.39 78.67 180.36 79.84 178.33 74.87 180.36"/><polygon class="cls-8" points="146.93 180.36 141.96 182.39 143.14 180.36 141.96 178.33 146.93 180.36"/><line class="cls-3" x1="442.91" y1="0.94" x2="439.3" y2="5.73"/><line class="cls-9" x1="431.73" y1="15.78" x2="329.55" y2="151.38"/><line class="cls-3" x1="325.76" y1="156.4" x2="322.15" y2="161.2"/><line class="cls-10" x1="322.15" y1="161.2" x2="322.15" y2="120.7"/></g></g></svg>