<svg xmlns="http://www.w3.org/2000/svg" viewBox="0 0 446.46 192.84"><defs><style>.cls-1,.cls-2{fill:none;stroke-miterlimit:3.25;}.cls-1{stroke:#231f20;stroke-width:1.5px;}.cls-2{stroke:#2e4e79;stroke-linecap:round;stroke-width:2px;}.cls-3,.cls-4{font-size:12px;fill:#231f20;}.cls-3,.cls-5{font-family:Helvetica, Helvetica;}.cls-4,.cls-6{font-family:Helvetica-Oblique, Helvetica;}</style></defs><title>deuteronenergy</title><g id="Graphics"><line class="cls-1" x1="131.48" y1="45.76" x2="131.48" y2="39.35"/><line class="cls-1" x1="157.73" y1="45.76" x2="157.73" y2="39.35"/><line class="cls-1" x1="183.98" y1="45.76" x2="183.98" y2="39.35"/><line class="cls-1" x1="210.23" y1="45.76" x2="210.23" y2="39.35"/><line class="cls-1" x1="236.48" y1="45.76" x2="236.48" y2="39.35"/><line class="cls-1" x1="262.72" y1="45.76" x2="262.72" y2="39.35"/><line class="cls-1" x1="288.97" y1="45.76" x2="288.97" y2="39.35"/><line class="cls-1" x1="315.22" y1="45.76" x2="315.22" y2="39.35"/><line class="cls-1" x1="341.47" y1="45.76" x2="341.47" y2="39.35"/><line class="cls-1" x1="367.72" y1="45.76" x2="367.72" y2="39.35"/><line class="cls-1" x1="99.76" y1="45.76" x2="373.19" y2="45.76"/><line class="cls-1" x1="105.23" y1="177" x2="111.65" y2="177"/><line class="cls-1" x1="105.23" y1="150.75" x2="111.65" y2="150.75"/><line class="cls-1" x1="105.23" y1="124.51" x2="111.65" y2="124.51"/><line class="cls-1" x1="105.23" y1="98.26" x2="111.65" y2="98.26"/><line class="cls-1" x1="105.23" y1="72.01" x2="111.65" y2="72.01"/><line class="cls-1" x1="105.23" y1="188.79" x2="105.23" y2="22.47"/><polyline class="cls-2" points="105.23 124.5 105.31 125.08 105.39 125.64 105.55 126.77 105.88 128.97 106.52 133.2 106.6 133.72 106.68 134.22 106.84 135.23 107.16 137.2 107.81 140.97 107.89 141.42 107.97 141.87 108.13 142.77 108.45 144.52 109.09 147.86 110.38 153.93 110.47 154.31 110.56 154.69 110.73 155.44 111.08 156.9 111.78 159.66 111.87 159.99 111.95 160.31 112.13 160.96 112.47 162.2 113.17 164.55 113.26 164.83 113.35 165.11 113.52 165.65 113.87 166.71 114.57 168.68 114.66 168.91 114.75 169.14 114.92 169.6 115.27 170.47 115.97 172.09 116.05 172.27 116.13 172.45 116.3 172.8 116.62 173.46 117.27 174.69 117.36 174.83 117.43 174.97 117.6 175.25 117.92 175.78 118.58 176.75 118.66 176.86 118.74 176.97 118.9 177.19 119.23 177.6 119.31 177.7 119.39 177.79 119.55 177.97 119.88 178.32 119.96 178.41 120.04 178.49 120.2 178.64 120.53 178.94 120.61 179.01 120.69 179.07 120.86 179.2 121.19 179.44 121.34 179.55 121.5 179.65 121.58 179.7 121.66 179.75 121.9 179.88 121.98 179.91 122.14 179.99 122.22 180.03 122.46 180.13 122.54 180.16 122.62 180.19 122.86 180.26 122.94 180.29 123.1 180.33 123.34 180.38 123.42 180.4 123.5 180.41 123.74 180.44 123.82 180.45 123.9 180.46 124.14 180.47 124.38 180.47 124.62 180.46 124.78 180.44 124.86 180.44 125.02 180.42 125.18 180.39 125.26 180.37 125.34 180.36 125.5 180.32 125.66 180.28 125.74 180.26 125.82 180.24 125.98 180.19 126.06 180.16 126.14 180.13 126.3 180.07 126.38 180.04 126.47 180 126.64 179.93 126.99 179.76 127.08 179.72 127.33 179.58 127.69 179.37 127.77 179.32 128.03 179.14 128.38 178.9 129.07 178.36 129.16 178.29 129.25 178.22 129.42 178.06 129.76 177.75 130.46 177.07 130.63 176.89 130.81 176.71 131.15 176.33 131.84 175.52 131.93 175.43 132 175.33 132.17 175.13 132.49 174.72 133.14 173.88 134.43 172.05 137.02 167.93 137.11 167.78 137.19 167.63 137.37 167.33 137.72 166.72 138.42 165.47 139.82 162.89 142.63 157.39 148.14 145.73 153.28 134.37 158.84 122.06 164.05 110.92 169.15 100.58 174.68 90.15 179.84 81.26 185.43 72.59 190.92 65.06 196.05 58.89 201.6 53.08 206.79 48.44 206.88 48.37 206.97 48.3 207.14 48.15 207.49 47.87 208.19 47.31 209.6 46.23 212.41 44.2 212.58 44.09 212.75 43.97 213.1 43.74 213.79 43.28 215.17 42.4 217.93 40.76 218.01 40.72 218.09 40.67 218.25 40.58 218.57 40.4 219.21 40.05 220.5 39.38 223.07 38.13 223.16 38.09 223.25 38.05 223.42 37.97 223.77 37.81 224.47 37.51 225.86 36.92 226.21 36.78 227.26 36.36 228.65 35.84 228.74 35.81 228.81 35.78 228.98 35.73 229.31 35.61 229.95 35.38 231.26 34.96 231.34 34.93 231.42 34.91 231.58 34.85 231.91 34.75 232.56 34.55 233.86 34.17 234.02 34.13 234.18 34.08 234.5 34 235.14 33.83 236.42 33.5 236.5 33.48 236.58 33.46 236.74 33.43 237.06 33.35 237.69 33.2 238.97 32.92 239.31 32.85 239.66 32.78 240.36 32.64 241.74 32.39 241.83 32.37 242.09 32.33 242.43 32.26 243.13 32.15 244.51 31.94 244.59 31.93 244.67 31.91 244.84 31.89 245.16 31.85 245.8 31.76 247.1 31.59 247.18 31.59 247.26 31.58 247.42 31.56 247.74 31.52 248.39 31.45 249.68 31.32 249.77 31.31 249.86 31.31 250.03 31.29 250.38 31.26 251.08 31.2 251.17 31.19 251.26 31.18 251.43 31.17 251.78 31.14 252.49 31.09 252.57 31.09 252.66 31.08 252.84 31.07 253.18 31.05 253.89 31 254.06 31 254.24 30.98 254.59 30.97 255.29 30.93 255.37 30.93 255.63 30.92 255.97 30.9 256.32 30.89 256.66 30.88 257.01 30.86 257.35 30.85 257.44 30.85 257.52 30.85 257.69 30.84 258.04 30.83 258.12 30.83 258.21 30.83 258.38 30.82 258.73 30.82 258.81 30.82 258.9 30.81 259.07 30.81 259.41 30.8 259.5 30.8 259.59 30.8 259.75 30.8 259.93 30.8 260.1 30.79 260.19 30.79 260.27 30.79 260.62 30.79 260.79 30.79 261.11 30.79 261.19 30.78 262.71 30.78 262.79 30.79 263.19 30.79 263.36 30.79 263.68 30.79 263.75 30.79 264 30.79 264.08 30.8 264.15 30.8 264.32 30.8 264.64 30.8 264.72 30.8 264.8 30.81 264.96 30.81 265.28 30.82 265.36 30.82 265.44 30.82 265.6 30.82 265.92 30.83 266.01 30.83 266.09 30.83 266.27 30.84 266.62 30.84 267.31 30.87 267.4 30.87 267.66 30.88 268.01 30.89 268.7 30.91 268.79 30.91 268.88 30.92 269.05 30.92 269.4 30.94 270.09 30.97 271.48 31.03 271.57 31.04 271.65 31.04 271.81 31.05 272.14 31.06 272.78 31.1 274.08 31.17 274.17 31.18 274.24 31.18 274.41 31.19 274.73 31.21 275.38 31.25 276.68 31.34 276.76 31.34 276.84 31.35 277 31.36 277.32 31.39 277.95 31.43 279.23 31.52 281.77 31.73 287.3 32.23 292.45 32.75 298.04 33.36 303.26 33.96 308.38 34.55 313.93 35.21 319.11 35.81 324.73 36.46 330.23 37.08 335.38 37.64 340.95 38.23 346.15 38.75 351.25 39.24 356.79 39.74 361.96 40.19 362.05 40.2 362.14 40.2 362.68 40.25 363.4 40.31 367.72 40.66"/></g><g id="Text"><g id="deuteronenergy"><text class="cls-3" transform="translate(84.93 76.54)">-1</text><text class="cls-3" transform="translate(84.93 102.37)">-2</text><text class="cls-3" transform="translate(84.93 128.12)">-3</text><text class="cls-3" transform="translate(84.93 154.95)">-4</text><text class="cls-3" transform="translate(84.93 180.7)">-5</text><text class="cls-3" transform="translate(88.93 50.79)">0</text><text class="cls-3" transform="translate(128.14 62.61)">1</text><text class="cls-3" transform="translate(154.39 62.61)">2</text><text class="cls-3" transform="translate(180.64 62.61)">3</text><text class="cls-3" transform="translate(206.89 62.61)">4</text><text class="cls-3" transform="translate(233.14 62.61)">5</text><text class="cls-3" transform="translate(259.39 62.61)">6</text><text class="cls-3" transform="translate(285.64 62.61)">7</text><text class="cls-3" transform="translate(311.89 62.61)">8</text><text class="cls-3" transform="translate(338.14 62.61)">9</text><text class="cls-3" transform="translate(361.05 62.61)">10</text><text class="cls-4" transform="translate(83.3 11.64)">U<tspan class="cls-5" x="8.67" y="0" xml:space="preserve"> (MeV)</tspan></text><text class="cls-3" transform="translate(336.18 84.28)">∆<tspan class="cls-6" x="7.34" y="0">x</tspan><tspan x="13.34" y="0" xml:space="preserve"> (fm)</tspan></text></g></g></svg>