<svg xmlns="http://www.w3.org/2000/svg" viewBox="0 0 446.46 193.34"><defs><style>.cls-1,.cls-12,.cls-13,.cls-2,.cls-5{fill:none;stroke-miterlimit:10;}.cls-1,.cls-2{stroke:#231f20;}.cls-1,.cls-5{stroke-dasharray:3;}.cls-3{fill:#808285;}.cls-11,.cls-4,.cls-7,.cls-8,.cls-9{fill:#231f20;}.cls-13,.cls-5{stroke:#e5483f;}.cls-6{fill:#fff;}.cls-10,.cls-11,.cls-7,.cls-8{font-size:12px;}.cls-7,.cls-8{font-family:Helvetica-Oblique, Helvetica;}.cls-8{letter-spacing:-0.04em;}.cls-9{font-size:13px;font-family:Symbol, Symbol;}.cls-10,.cls-14{fill:#e5483f;}.cls-10,.cls-11{font-family:Helvetica, Helvetica;}.cls-12{stroke:#808285;}</style></defs><title>dumbbellrotation</title><g id="Graphics"><g id="dumbbellrotation"><line class="cls-1" x1="143.44" y1="10.87" x2="143.44" y2="183.98"/><ellipse class="cls-1" cx="143.44" cy="48.42" rx="36.06" ry="12.02"/><ellipse class="cls-1" cx="143.44" cy="173.35" rx="36.06" ry="12.02"/><line class="cls-2" x1="179.5" y1="48.42" x2="107.38" y2="173.35"/><circle class="cls-3" cx="179.5" cy="48.42" r="7.21"/><circle class="cls-3" cx="107.38" cy="173.35" r="7.21"/><line class="cls-2" x1="139.59" y1="3.82" x2="139.59" y2="48.38"/><polygon class="cls-4" points="139.59 0.29 137.56 5.27 139.59 4.09 141.63 5.27 139.59 0.29"/><line class="cls-1" x1="335.78" y1="10.87" x2="335.78" y2="183.98"/><ellipse class="cls-1" cx="335.78" cy="48.42" rx="36.06" ry="12.02"/><ellipse class="cls-1" cx="335.78" cy="173.35" rx="36.06" ry="12.02"/><line class="cls-2" x1="371.84" y1="48.42" x2="299.72" y2="173.35"/><circle class="cls-3" cx="371.84" cy="48.42" r="7.21"/><circle class="cls-3" cx="299.72" cy="173.35" r="7.21"/><line class="cls-2" x1="331.93" y1="3.82" x2="331.93" y2="48.38"/><polygon class="cls-4" points="331.93 0.29 329.9 5.27 331.93 4.09 333.97 5.27 331.93 0.29"/><ellipse class="cls-5" cx="335.78" cy="110.89" rx="12.02" ry="36.06" transform="translate(-10.46 182.75) rotate(-30)"/><rect class="cls-6" x="313.42" y="80.94" width="5.05" height="11.3"/></g></g><g id="Text"><g id="dumbbellrotation-2" data-name="dumbbellrotation"><text class="cls-7" transform="translate(172.29 92.94)">r</text><text class="cls-7" transform="translate(172.29 32.92)">v</text><text class="cls-7" transform="translate(100.16 193.34)">-v</text><text class="cls-8" transform="translate(80.61 153.78)">L</text><text class="cls-7" transform="translate(364.63 32.92)">v</text><text class="cls-7" transform="translate(292.5 193.34)">-v</text><text class="cls-8" transform="translate(272.95 153.78)">L</text><text class="cls-9" transform="translate(126.13 10.87)">ω</text><text class="cls-9" transform="translate(146.97 89.34)">θ</text><text class="cls-9" transform="translate(318.47 10.87)">ω</text><text class="cls-9" transform="translate(339.31 89.34)">θ</text><text class="cls-10" transform="translate(351.01 95.82)">3-axis</text><text class="cls-10" transform="translate(284.81 126.92)">1-axis</text><text class="cls-10" transform="translate(296.67 90.3)">2-axis</text><text class="cls-11" transform="translate(258.74 9.95)">(b)</text><text class="cls-11" transform="translate(66.4 9.95)">(a)</text></g></g><g id="Arrows"><g id="dumbbellrotation-3" data-name="dumbbellrotation"><line class="cls-2" x1="185.67" y1="55.33" x2="151.38" y2="114.73"/><polygon class="cls-4" points="187.44 52.27 183.19 55.56 185.54 55.56 186.71 57.59 187.44 52.27"/><line class="cls-12" x1="178.06" y1="48.42" x2="168.29" y2="31.49"/><polygon class="cls-3" points="166.52 28.43 170.77 31.73 168.42 31.72 167.25 33.76 166.52 28.43"/><line class="cls-12" x1="107.38" y1="173.35" x2="117.15" y2="190.28"/><polygon class="cls-3" points="118.92 193.34 114.67 190.05 117.02 190.05 118.19 188.02 118.92 193.34"/><line class="cls-12" x1="107.38" y1="173.35" x2="70.46" y2="152.04"/><polygon class="cls-3" points="67.4 150.27 72.72 151 70.69 152.17 70.69 154.52 67.4 150.27"/><line class="cls-12" x1="370.4" y1="48.42" x2="360.63" y2="31.49"/><polygon class="cls-3" points="358.86 28.43 363.11 31.73 360.76 31.72 359.59 33.76 358.86 28.43"/><line class="cls-12" x1="299.72" y1="173.35" x2="309.49" y2="190.28"/><polygon class="cls-3" points="311.26 193.34 307.01 190.05 309.36 190.05 310.53 188.02 311.26 193.34"/><line class="cls-12" x1="299.72" y1="173.35" x2="262.8" y2="152.04"/><polygon class="cls-3" points="259.74 150.27 265.06 151 263.02 152.17 263.03 154.52 259.74 150.27"/><path class="cls-2" d="M143.44,91.65a19.15,19.15,0,0,1,9.62,2.58"/><path class="cls-2" d="M335.78,91.65a19.15,19.15,0,0,1,9.62,2.58"/><polyline class="cls-13" points="318.85 120.66 335.78 110.89 326 93.96"/><polygon class="cls-14" points="315.79 122.43 321.12 121.7 319.08 120.53 319.08 118.18 315.79 122.43"/><polygon class="cls-14" points="324.24 90.9 328.49 94.19 326.14 94.19 324.97 96.22 324.24 90.9"/><line class="cls-13" x1="335.78" y1="110.89" x2="345.56" y2="93.96"/><polygon class="cls-14" points="347.32 90.9 346.59 96.22 345.42 94.19 343.07 94.19 347.32 90.9"/></g></g></svg>