<svg xmlns="http://www.w3.org/2000/svg" viewBox="0 0 446.46 137.77"><defs><style>.cls-1{fill:#c89341;}.cls-2,.cls-3{fill:none;}.cls-2{stroke:#6f4f2b;}.cls-2,.cls-3,.cls-4{stroke-width:2px;}.cls-3{stroke:#231f20;stroke-linejoin:round;}.cls-4{fill:#fff;stroke:#3e7cb9;stroke-miterlimit:10;}.cls-5,.cls-6{font-size:12px;font-family:Helvetica-Oblique, Helvetica;}.cls-5{fill:#3e7cb9;}.cls-6,.cls-7{fill:#231f20;}</style></defs><title>harmonicoscillator</title><g id="Graphics"><g id="harmonic_oscillator" data-name="harmonic oscillator"><rect class="cls-1" x="152.36" y="-0.5" width="141.73" height="28.35"/><line class="cls-2" x1="294.09" y1="27.85" x2="152.36" y2="27.85"/><polyline class="cls-3" points="223.23 112.89 213.31 110.23 233.15 104.92 213.31 99.6 233.15 94.29 213.31 88.97 233.15 83.66 213.31 78.34 233.15 73.03 223.23 70.37 213.31 67.71 233.15 62.4 213.31 57.08 233.15 51.77 213.31 46.45 233.15 41.14 213.31 35.82 233.15 30.51 223.23 27.85"/><rect class="cls-4" x="212.6" y="112.89" width="21.26" height="21.26"/></g></g><g id="Text"><g id="harmonic_oscillator-2" data-name="harmonic oscillator"><text class="cls-5" transform="translate(217.35 126.51)">m</text><text class="cls-6" transform="translate(238.73 75.36)">k</text></g></g><g id="Arrows"><line class="cls-3" x1="201.97" y1="130.63" x2="201.97" y2="116.41"/><polygon class="cls-7" points="201.97 137.69 206.03 127.74 201.97 130.1 197.9 127.74 201.97 137.69"/><polygon class="cls-7" points="201.97 109.34 206.03 119.29 201.97 116.93 197.9 119.29 201.97 109.34"/></g></svg>