<svg xmlns="http://www.w3.org/2000/svg" viewBox="0 0 446.46 164.48"><defs><style>.cls-1,.cls-2{fill:none;}.cls-1{stroke:#231f20;}.cls-1,.cls-2,.cls-3,.cls-4{stroke-miterlimit:10;}.cls-2,.cls-4{stroke:#3e7cb9;}.cls-3,.cls-4{fill:#3e7cb9;opacity:0.5;}.cls-3{stroke:#be6f36;}.cls-5,.cls-6,.cls-8{fill:#231f20;}.cls-6,.cls-8{font-size:12px;}.cls-10,.cls-11,.cls-6{font-family:Helvetica, Helvetica;}.cls-7,.cls-8{font-family:Helvetica-Oblique, Helvetica;}.cls-9{letter-spacing:0.08em;}.cls-10{letter-spacing:-0.08em;}</style></defs><title>hemisphere</title><g id="Graphics"><g id="hemisphere"><line class="cls-1" x1="223.35" y1="164.48" x2="223.35" y2="-1"/><line class="cls-1" x1="124.14" y1="98.21" x2="322.56" y2="98.21"/><line class="cls-1" x1="137.43" y1="147.82" x2="309.27" y2="48.61"/><ellipse class="cls-2" cx="223.35" cy="98.21" rx="66.14" ry="16.54"/><path class="cls-2" d="M223.35,32.07a66.1,66.1,0,0,0-66.14,66.14"/><path class="cls-2" d="M289.49,98.21a66.1,66.1,0,0,0-66.14-66.14"/><ellipse class="cls-3" cx="223.35" cy="65.14" rx="57.05" ry="10.75"/><ellipse class="cls-2" cx="223.35" cy="68.64" rx="58.7" ry="10.75"/><path class="cls-4" d="M164.65,68.64c0,5.94,26.28,10.75,58.7,10.75s58.7-4.81,58.7-10.75l-1.65-3.5c0,5.94-25.54,10.75-57,10.75s-57-4.81-57-10.75Z"/><ellipse class="cls-2" cx="223.35" cy="65.14" rx="57.05" ry="10.75"/><line class="cls-1" x1="223.35" y1="35.48" x2="223.35" y2="65.14"/><line class="cls-1" x1="223.35" y1="80.57" x2="223.35" y2="98.21"/></g></g><g id="Text"><g id="hemisphere-2" data-name="hemisphere"><line class="cls-1" x1="289.49" y1="65.64" x2="289.49" y2="68.14"/><rect class="cls-5" x="286.24" y="65.14" width="6.5" height="1"/><rect class="cls-5" x="286.24" y="67.64" width="6.5" height="1"/><text class="cls-6" transform="translate(295.92 70.21)">d<tspan class="cls-7" x="6.67" y="0">z</tspan></text><text class="cls-8" transform="translate(247.79 110.26)">R</text><text class="cls-8" transform="translate(183.48 71.18)"><tspan class="cls-9">r</tspan><tspan class="cls-10" x="4.96" y="0">(</tspan><tspan x="7.99" y="0">z</tspan><tspan class="cls-11" x="13.99" y="0">)</tspan></text><text class="cls-8" transform="translate(134.72 84.21)">z</text></g></g><g id="Arrows"><g id="hemisphere-3" data-name="hemisphere"><line class="cls-1" x1="223.35" y1="65.14" x2="185.84" y2="58.51"/><polygon class="cls-5" points="182.36 57.89 187.62 56.76 186.1 58.55 186.91 60.76 182.36 57.89"/><circle class="cls-5" cx="223.35" cy="65.14" r="2.48"/><line class="cls-1" x1="145.8" y1="65.64" x2="145.8" y2="97.71"/><rect class="cls-5" x="142.55" y="65.14" width="6.5" height="1"/><rect class="cls-5" x="142.55" y="97.21" width="6.5" height="1"/></g></g></svg>