<?xml version="1.0" encoding="UTF-8"?>
<svg id="Layer_1" data-name="Layer 1" xmlns="http://www.w3.org/2000/svg" viewBox="0 0 213.09 124.71">
  <defs>
    <style>
      .cls-1 {
        letter-spacing: 0em;
      }

      .cls-1, .cls-2, .cls-3, .cls-4, .cls-5 {
        font-size: 12px;
      }

      .cls-1, .cls-2, .cls-3, .cls-6 {
        fill: #ed2024;
      }

      .cls-1, .cls-7, .cls-3, .cls-4 {
        font-family: Helvetica, Helvetica;
      }

      .cls-8 {
        stroke: #5e82b6;
        stroke-linecap: square;
        stroke-width: 2px;
      }

      .cls-8, .cls-9, .cls-10, .cls-11 {
        fill: none;
        stroke-miterlimit: 3.25;
      }

      .cls-9 {
        stroke-dasharray: 0 0 3.5 3.5;
      }

      .cls-9, .cls-10, .cls-11 {
        stroke: #231f20;
      }

      .cls-10 {
        stroke-dasharray: 0 0 2.98 2.98;
      }

      .cls-2, .cls-12 {
        font-family: Helvetica-Oblique, Helvetica;
        font-style: oblique;
      }

      .cls-4, .cls-5, .cls-13 {
        fill: #231f20;
      }

      .cls-6 {
        fill-rule: evenodd;
      }

      .cls-6, .cls-13 {
        stroke-width: 0px;
      }
    </style>
  </defs>
  <line class="cls-11" x1="30.02" y1="85.65" x2="181.55" y2="85.65"/>
  <line class="cls-11" x1="59.11" y1="106.36" x2="59.11" y2="104.56"/>
  <line class="cls-11" x1="117.3" y1="106.36" x2="117.3" y2="104.56"/>
  <line class="cls-11" x1="146.39" y1="106.36" x2="146.39" y2="104.56"/>
  <line class="cls-11" x1="175.49" y1="106.36" x2="175.49" y2="104.56"/>
  <line class="cls-11" x1="88.21" y1="106.36" x2="88.21" y2="104.56"/>
  <line class="cls-11" x1="30.02" y1="85.72" x2="30.02" y2="83.93"/>
  <text class="cls-4" transform="translate(50.86 118.93)"><tspan x="0" y="0">0.5</tspan></text>
  <text class="cls-4" transform="translate(84.96 118.93)"><tspan x="0" y="0">1</tspan></text>
  <text class="cls-4" transform="translate(109.05 118.93)"><tspan x="0" y="0">1.5</tspan></text>
  <text class="cls-4" transform="translate(143.14 118.93)"><tspan x="0" y="0">2</tspan></text>
  <text class="cls-4" transform="translate(167.24 118.93)"><tspan x="0" y="0">2.5</tspan></text>
  <text class="cls-5" transform="translate(190.49 116.57)"><tspan class="cls-12" x="0" y="0">r</tspan><tspan class="cls-7" x="4" y="0" xml:space="preserve"> / </tspan><tspan class="cls-12" x="14" y="0">σ</tspan></text>
  <line class="cls-11" x1="30.02" y1="101.68" x2="31.82" y2="101.68"/>
  <text class="cls-4" transform="translate(16.19 105.93)"><tspan x="0" y="0">-1</tspan></text>
  <line class="cls-11" x1="30.02" y1="85.72" x2="31.82" y2="85.72"/>
  <line class="cls-11" x1="30.02" y1="69.77" x2="31.82" y2="69.77"/>
  <text class="cls-4" transform="translate(20.19 74.02)"><tspan x="0" y="0">1</tspan></text>
  <line class="cls-11" x1="30.02" y1="53.81" x2="31.82" y2="53.81"/>
  <text class="cls-4" transform="translate(20.19 58.06)"><tspan x="0" y="0">2</tspan></text>
  <line class="cls-11" x1="30.02" y1="37.86" x2="31.82" y2="37.86"/>
  <text class="cls-4" transform="translate(20.19 42.11)"><tspan x="0" y="0">3</tspan></text>
  <line class="cls-11" x1="30.02" y1="21.9" x2="31.82" y2="21.9"/>
  <text class="cls-4" transform="translate(20.19 26.15)"><tspan x="0" y="0">4</tspan></text>
  <text class="cls-5" transform="translate(0 10.3)"><tspan class="cls-12" x="0" y="0">U</tspan><tspan class="cls-7" x="8.67" y="0" xml:space="preserve"> / </tspan><tspan class="cls-12" x="18.67" y="0">ε</tspan></text>
  <text class="cls-4" transform="translate(20.19 89.97)"><tspan x="0" y="0">0</tspan></text>
  <g>
    <path class="cls-11" d="m187.02,106.36c-23.54,0-157,0-157,0V10.68"/>
    <polygon class="cls-13" points="190.55 106.36 185.57 104.33 186.75 106.36 185.57 108.39 190.55 106.36"/>
    <polygon class="cls-13" points="30.02 7.15 32.05 12.12 30.02 10.94 27.99 12.12 30.02 7.15"/>
  </g>
  <g>
    <line class="cls-11" x1="95.52" y1="106.36" x2="95.52" y2="104.86"/>
    <line class="cls-9" x1="95.52" y1="101.36" x2="95.52" y2="89.1"/>
    <line class="cls-11" x1="95.52" y1="87.35" x2="95.52" y2="85.85"/>
  </g>
  <g>
    <line class="cls-11" x1="30.02" y1="101.68" x2="31.52" y2="101.68"/>
    <line class="cls-10" x1="34.49" y1="101.68" x2="92.53" y2="101.68"/>
    <line class="cls-11" x1="94.02" y1="101.68" x2="95.52" y2="101.68"/>
  </g>
  <polyline class="cls-8" points="83.55 17.39 83.58 18.15 83.61 18.91 83.67 20.4 83.78 23.31 84 28.85 84.03 29.52 84.06 30.18 84.11 31.49 84.23 34.04 84.45 38.89 84.48 39.48 84.51 40.06 84.57 41.2 84.68 43.44 84.91 47.69 85.36 55.38 85.39 55.87 85.42 56.35 85.48 57.29 85.6 59.14 85.84 62.63 85.88 63.05 85.91 63.46 85.97 64.28 86.09 65.87 86.34 68.88 86.36 69.25 86.4 69.6 86.46 70.31 86.58 71.68 86.82 74.27 87.31 78.9 87.37 79.4 87.43 79.89 87.54 80.83 87.77 82.63 87.8 82.85 87.83 83.06 87.88 83.48 88 84.3 88.23 85.85 88.26 86.03 88.28 86.22 88.34 86.58 88.45 87.29 88.68 88.62 89.14 91 89.19 91.27 89.25 91.53 89.36 92.04 89.59 93 89.61 93.11 89.64 93.23 89.7 93.45 89.81 93.88 90.03 94.7 90.06 94.8 90.09 94.9 90.15 95.09 90.26 95.45 90.48 96.15 90.51 96.23 90.54 96.31 90.59 96.47 90.71 96.78 90.93 97.36 90.96 97.44 90.99 97.51 91.05 97.66 91.17 97.94 91.42 98.46 91.45 98.52 91.48 98.58 91.54 98.7 91.66 98.93 91.9 99.35 91.93 99.39 91.96 99.44 92.02 99.54 92.14 99.72 92.17 99.76 92.2 99.81 92.26 99.89 92.39 100.05 92.42 100.09 92.45 100.13 92.51 100.21 92.63 100.35 92.87 100.61 92.9 100.63 92.93 100.66 92.99 100.72 93.1 100.82 93.13 100.84 93.16 100.87 93.33 101 93.35 101.02 93.38 101.04 93.44 101.08 93.55 101.16 93.58 101.18 93.61 101.2 93.67 101.23 93.78 101.29 93.81 101.31 93.84 101.32 93.89 101.35 94.01 101.4 94.03 101.42 94.06 101.43 94.12 101.45 94.23 101.49 94.26 101.5 94.29 101.51 94.35 101.53 94.37 101.54 94.4 101.55 94.46 101.56 94.49 101.57 94.52 101.58 94.57 101.59 94.6 101.6 94.63 101.61 94.69 101.62 94.72 101.62 94.75 101.63 94.78 101.63 94.81 101.64 94.87 101.65 94.93 101.65 94.99 101.66 95.02 101.66 95.05 101.67 95.09 101.67 95.12 101.67 95.15 101.67 95.21 101.68 95.24 101.68 95.27 101.68 95.39 101.68 95.42 101.68 95.45 101.68 95.48 101.67 95.51 101.67 95.55 101.67 95.58 101.67 95.64 101.67 95.67 101.66 95.7 101.66 95.73 101.66 95.76 101.65 95.79 101.65 95.85 101.64 95.91 101.64 95.94 101.63 95.98 101.62 96.04 101.61 96.16 101.59 96.19 101.59 96.22 101.58 96.28 101.57 96.41 101.54 96.44 101.53 96.47 101.52 96.53 101.51 96.65 101.47 96.68 101.46 96.71 101.46 96.77 101.44 96.89 101.4 97.13 101.32 97.16 101.3 97.19 101.29 97.25 101.27 97.37 101.22 97.61 101.12 97.65 101.11 97.67 101.1 97.74 101.07 97.86 101.02 98.1 100.9 98.58 100.66 98.61 100.64 98.64 100.63 98.69 100.6 98.8 100.54 99.03 100.41 99.48 100.16 100.38 99.61 102.33 98.35 104.15 97.16 105.94 96.04 107.87 94.91 109.68 93.94 111.64 93 113.57 92.17 115.36 91.49 117.31 90.83 119.12 90.29 121.09 89.77 123.02 89.32 124.83 88.95 126.78 88.6 128.61 88.31 130.39 88.05 132.33 87.81 134.15 87.61 136.11 87.41 138.03 87.24 139.83 87.1 141.78 86.97 143.6 86.86 145.38 86.76 147.32 86.66 149.13 86.58 151.08 86.5 152.91 86.43 154.7 86.37 156.65 86.32 158.46 86.27 160.43 86.22 162.36 86.18 164.16 86.14 166.11 86.11 167.94 86.08 169.72 86.05 171.66 86.03 173.47 86.01 173.5 86 173.6 86 173.72 86 173.97 86 174.48 85.99 174.51 85.99 174.54 85.99 174.61 85.99 174.73 85.99 174.98 85.99 175.05 85.99 175.11 85.99 175.24 85.98 175.39 85.98 175.43 85.98 175.49 85.98"/>
  <path class="cls-6" d="m98.35,85.71c0-.75-.29-1.48-.83-2.01-.53-.53-1.25-.83-2.01-.83s-1.48.29-2.01.83c-.53.53-.83,1.25-.83,2.01s.29,1.48.83,2.01c.53.53,1.25.83,2.01.83s1.48-.29,2.01-.83c.53-.53.83-1.25.83-2.01Z"/>
  <text class="cls-2" transform="translate(97.91 74.2)"><tspan x="0" y="0">r</tspan></text>
  <text class="cls-3" transform="translate(101.9 78.2) scale(.58)"><tspan x="0" y="0">eq</tspan></text>
  <text class="cls-3" transform="translate(109.68 74.2)"><tspan x="0" y="0" xml:space="preserve"> = 2</tspan></text>
  <text class="cls-1" transform="translate(130.03 70.21) scale(.58)"><tspan x="0" y="0">1/6</tspan></text>
  <text class="cls-2" transform="translate(139.76 74.2)"><tspan x="0" y="0">σ</tspan></text>
</svg>