<svg xmlns="http://www.w3.org/2000/svg" xmlns:xlink="http://www.w3.org/1999/xlink" viewBox="0 0 446.46 227.67"><defs><style>.cls-1,.cls-50,.cls-54{fill:none;}.cls-2{isolation:isolate;}.cls-3{clip-path:url(#clip-path);}.cls-4{fill:#6890c4;}.cls-5{fill:#618cc2;}.cls-6{fill:#5887bf;}.cls-7{fill:#3e7cb9;}.cls-8{fill:#3d79b5;}.cls-9{fill:#3c77b2;}.cls-10{fill:#3b75af;}.cls-11{fill:#3a74ac;}.cls-12{fill:#3972a9;}.cls-13{fill:#3870a7;}.cls-14{fill:#376ea4;}.cls-15{fill:#366ca1;}.cls-16{fill:#356a9e;}.cls-17{fill:#34689c;}.cls-18{fill:#369;}.cls-19{fill:#316496;}.cls-20{fill:#306293;}.cls-21{fill:#2f6090;}.cls-22{fill:#2e5e8d;}.cls-23{fill:#2c5c8a;}.cls-24{fill:#2b5987;}.cls-25{fill:#2a5784;}.cls-26{fill:#285581;}.cls-27{fill:#27537e;}.cls-28{fill:#25517b;}.cls-29{fill:#244f78;}.cls-30{fill:#224c75;}.cls-31{fill:#214a73;}.cls-32{clip-path:url(#clip-path-2);}.cls-33{fill:#6d93c6;}.cls-34{fill:#7296c8;}.cls-35{fill:#7799ca;}.cls-36{fill:#7b9bcb;}.cls-37{fill:#7e9ecd;}.cls-38{fill:#82a0ce;}.cls-39{fill:#85a2cf;}.cls-40{fill:#88a5d0;}.cls-41{fill:#8ba7d1;}.cls-42{fill:#8ea9d3;}.cls-43{fill:#91abd4;}.cls-44{fill:#94add5;}.cls-45{fill:#97afd6;}.cls-46{clip-path:url(#clip-path-3);}.cls-47{clip-path:url(#clip-path-4);}.cls-48{clip-path:url(#clip-path-5);}.cls-49{clip-path:url(#clip-path-6);}.cls-50,.cls-54{stroke:#231f20;stroke-miterlimit:10;stroke-width:2px;}.cls-50{stroke-linecap:round;}.cls-51,.cls-52{font-size:12px;}.cls-51,.cls-52,.cls-55{fill:#231f20;}.cls-51,.cls-53{font-family:Helvetica-Oblique, Helvetica;}.cls-52{font-family:Helvetica, Helvetica;}</style><clipPath id="clip-path"><path class="cls-1" d="M204.48,122.26c.35,0,.64-16.35.64-36.53s-.29-36.53-.64-36.53a36.76,36.76,0,0,1,5.92.48,36.37,36.37,0,0,1,15.65,6.57,36.7,36.7,0,0,1,10.88,12.7c.36.77.88,1.78,1.21,2.57a8.15,8.15,0,0,1,1,2.67,36.27,36.27,0,0,1,1.38,5.62,36.94,36.94,0,0,1,0,11.85,36.28,36.28,0,0,1-1.38,5.62c-.3.8-.67,1.88-1,2.67s-1.21,1.72-1.21,2.57a36.48,36.48,0,0,1-32.45,19.74Z"/></clipPath><clipPath id="clip-path-2"><path class="cls-1" d="M168,85.73a36.76,36.76,0,0,1,.48-5.92A36.37,36.37,0,0,1,175,64.16a36.7,36.7,0,0,1,12.7-10.88,36.27,36.27,0,0,1,10.86-3.6,36.76,36.76,0,0,1,5.92-.48c.35,0,.64,16.36.64,36.53s-.29,36.53-.64,36.53a36.78,36.78,0,0,1-5.92-.48,36.37,36.37,0,0,1-15.65-6.57A36.68,36.68,0,0,1,172,102.52a36.27,36.27,0,0,1-3.6-10.86A36.78,36.78,0,0,1,168,85.73Z"/></clipPath><clipPath id="clip-path-3"><path class="cls-1" d="M204.48,122.26a36.78,36.78,0,0,1-5.92-.48,36.37,36.37,0,0,1-15.65-6.57A36.68,36.68,0,0,1,172,102.52a36.27,36.27,0,0,1-3.6-10.86,36.94,36.94,0,0,1,0-11.85A36.37,36.37,0,0,1,175,64.16a36.7,36.7,0,0,1,12.7-10.88,36.27,36.27,0,0,1,10.86-3.6,36.92,36.92,0,0,1,11.85,0,36.37,36.37,0,0,1,15.65,6.57,36.7,36.7,0,0,1,10.88,12.7h0c.73,1.54,1.61,3.64,2.22,5.24a36.27,36.27,0,0,1,1.38,5.62,36.94,36.94,0,0,1,0,11.85,36.28,36.28,0,0,1-1.38,5.62h0c-.6,1.6-1.49,3.7-2.22,5.24a36.48,36.48,0,0,1-32.45,19.74Z"/></clipPath><clipPath id="clip-path-4"><path class="cls-1" d="M241,185.53c.35,0,.64-16.35.64-36.53s-.29-36.53-.64-36.53a36.78,36.78,0,0,1,5.93.48,36.37,36.37,0,0,1,15.65,6.57,36.68,36.68,0,0,1,10.88,12.7,36.27,36.27,0,0,1,3.6,10.86,37,37,0,0,1,0,11.85,36.37,36.37,0,0,1-6.57,15.65,36.67,36.67,0,0,1-12.69,10.88,36.28,36.28,0,0,1-10.86,3.6A36.8,36.8,0,0,1,241,185.53Z"/></clipPath><clipPath id="clip-path-5"><path class="cls-1" d="M204.49,149a36.78,36.78,0,0,1,.48-5.92,36.37,36.37,0,0,1,6.57-15.65,36.68,36.68,0,0,1,12.69-10.88,36.27,36.27,0,0,1,10.86-3.6,36.78,36.78,0,0,1,5.93-.48c.35,0,.64,16.36.64,36.53s-.29,36.53-.64,36.53a36.8,36.8,0,0,1-5.93-.48,36.37,36.37,0,0,1-15.65-6.57,36.67,36.67,0,0,1-10.88-12.69,36.28,36.28,0,0,1-3.6-10.86A36.8,36.8,0,0,1,204.49,149Z"/></clipPath><clipPath id="clip-path-6"><path class="cls-1" d="M241,185.53a36.8,36.8,0,0,1-5.93-.48,36.37,36.37,0,0,1-15.65-6.57,36.67,36.67,0,0,1-10.88-12.69,36.28,36.28,0,0,1-3.6-10.86,37,37,0,0,1,0-11.85,36.37,36.37,0,0,1,6.57-15.65,36.68,36.68,0,0,1,12.69-10.88,36.27,36.27,0,0,1,10.86-3.6,37,37,0,0,1,11.85,0,36.37,36.37,0,0,1,15.65,6.57,36.68,36.68,0,0,1,10.88,12.7,36.27,36.27,0,0,1,3.6,10.86,37,37,0,0,1,0,11.85,36.37,36.37,0,0,1-6.57,15.65,36.67,36.67,0,0,1-12.69,10.88,36.28,36.28,0,0,1-10.86,3.6A36.8,36.8,0,0,1,241,185.53Z"/></clipPath></defs><title>marbles</title><g id="Graphics"><g class="cls-2"><g class="cls-2"><g class="cls-3"><g class="cls-2"><path class="cls-4" d="M204.48,122.26a36.78,36.78,0,0,0,5.92-.48,36.37,36.37,0,0,0,15.65-6.57,36.68,36.68,0,0,0,10.88-12.69c.73-1.55,1.61-3.64,2.22-5.24a36.28,36.28,0,0,0,1.38-5.62,36.94,36.94,0,0,0,0-11.85,36.27,36.27,0,0,0-1.38-5.62c-.6-1.6-1.49-3.7-2.22-5.24A36.48,36.48,0,0,0,204.48,49.2c.35,0,.64,16.36.64,36.53s-.29,36.53-.64,36.53"/><path class="cls-4" d="M205.12,85.73c0,2,0,3.87,0,5.74h0a7.05,7.05,0,0,1,0,5c-.08,14.94-.32,25.8-.61,25.8a36.78,36.78,0,0,0,5.92-.48,36.37,36.37,0,0,0,15.65-6.57,36.68,36.68,0,0,0,10.88-12.69h0c.73-1.55,1.61-3.64,2.22-5.24a36.28,36.28,0,0,0,1.38-5.62,36.94,36.94,0,0,0,0-11.85,36.27,36.27,0,0,0-1.38-5.62h0c-.6-1.6-1.49-3.7-2.22-5.24A36.48,36.48,0,0,0,204.48,49.2c.35,0,.64,16.36.64,36.53"/><path class="cls-5" d="M205.12,85.73q0,2.13,0,4.19h0c1.06,2.89,1.59,4.34,0,7.85-.09,14.26-.32,24.49-.6,24.49a36.78,36.78,0,0,0,5.92-.48,36.37,36.37,0,0,0,15.65-6.57,36.68,36.68,0,0,0,10.88-12.69h0c.73-1.55,1.61-3.64,2.22-5.24a36.28,36.28,0,0,0,1.38-5.62,36.94,36.94,0,0,0,0-11.85,36.27,36.27,0,0,0-1.38-5.62h0c-.6-1.6-1.49-3.7-2.22-5.24A36.48,36.48,0,0,0,204.48,49.2c.35,0,.64,16.36.64,36.53"/><path class="cls-6" d="M205.12,85.73q0,1.53,0,3h0c2.91,4,1.06,7.94,0,10.31-.09,13.58-.32,23.2-.59,23.2a36.78,36.78,0,0,0,5.92-.48,36.37,36.37,0,0,0,15.65-6.57,36.68,36.68,0,0,0,10.88-12.69h0c.73-1.55,1.61-3.64,2.22-5.24a36.28,36.28,0,0,0,1.38-5.62,36.94,36.94,0,0,0,0-11.85,36.27,36.27,0,0,0-1.38-5.62h0c-.6-1.6-1.49-3.7-2.22-5.24A36.48,36.48,0,0,0,204.48,49.2c.35,0,.64,16.36.64,36.53"/><path class="cls-7" d="M205.12,85.73q0,1.08,0,2.14h0a9.79,9.79,0,0,1-.05,12.25c-.1,13-.32,22.14-.59,22.14a36.78,36.78,0,0,0,5.92-.48,36.37,36.37,0,0,0,15.65-6.57,36.68,36.68,0,0,0,10.88-12.69h0c.73-1.55,1.61-3.64,2.22-5.24a36.28,36.28,0,0,0,1.38-5.62,36.94,36.94,0,0,0,0-11.85,36.27,36.27,0,0,0-1.38-5.62h0c-.6-1.6-1.49-3.7-2.22-5.24A36.48,36.48,0,0,0,204.48,49.2c.35,0,.64,16.36.64,36.53"/><path class="cls-8" d="M205.12,85.73q0,.63,0,1.25h0c4.52,6.26,2.51,10.67-.06,14.15-.1,12.48-.32,21.12-.58,21.12a36.78,36.78,0,0,0,5.92-.48,36.37,36.37,0,0,0,15.65-6.57,36.68,36.68,0,0,0,10.88-12.69h0c.73-1.55,1.61-3.64,2.22-5.24a36.28,36.28,0,0,0,1.38-5.62,36.94,36.94,0,0,0,0-11.85,36.27,36.27,0,0,0-1.38-5.62h0c-.6-1.6-1.49-3.7-2.22-5.24A36.48,36.48,0,0,0,204.48,49.2c.35,0,.64,16.36.64,36.53"/><path class="cls-9" d="M205.12,85.73v.36c4.89,6.79,3.75,10.88-.07,16-.1,11.94-.32,20.12-.57,20.12a36.78,36.78,0,0,0,5.92-.48,36.37,36.37,0,0,0,15.65-6.57,36.68,36.68,0,0,0,10.88-12.69h0c.73-1.55,1.61-3.64,2.22-5.24a36.28,36.28,0,0,0,1.38-5.62,36.94,36.94,0,0,0,0-11.85,36.27,36.27,0,0,0-1.38-5.62h0c-.6-1.6-1.49-3.7-2.22-5.24A36.48,36.48,0,0,0,204.48,49.2c.35,0,.64,16.36.64,36.53"/><path class="cls-10" d="M205.12,85.23c.86.86,8.14,8.71-.08,18.08-.11,11.3-.32,19-.56,19a36.78,36.78,0,0,0,5.92-.48,36.37,36.37,0,0,0,15.65-6.57,36.68,36.68,0,0,0,10.88-12.69h0c.73-1.55,1.61-3.64,2.22-5.24a36.28,36.28,0,0,0,1.38-5.62,36.94,36.94,0,0,0,0-11.85,36.27,36.27,0,0,0-1.38-5.62h0c-.6-1.6-1.49-3.7-2.22-5.24A36.48,36.48,0,0,0,204.48,49.2c.35,0,.63,16.09.64,36"/><path class="cls-11" d="M205.12,84.38c3.48,3.5,8.09,10.76-.09,20.09-.11,10.66-.31,17.8-.55,17.8a36.78,36.78,0,0,0,5.92-.48,36.37,36.37,0,0,0,15.65-6.57,36.68,36.68,0,0,0,10.88-12.69h0c.73-1.55,1.61-3.64,2.22-5.24a36.28,36.28,0,0,0,1.38-5.62,36.94,36.94,0,0,0,0-11.85,36.27,36.27,0,0,0-1.38-5.62h0c-.6-1.6-1.49-3.7-2.22-5.24A36.48,36.48,0,0,0,204.48,49.2c.34,0,.62,15.63.64,35.17"/><path class="cls-12" d="M205.12,83.53c3.94,4,9.15,12.12-.1,22.24-.11,9.94-.31,16.5-.53,16.5a36.78,36.78,0,0,0,5.92-.48,36.37,36.37,0,0,0,15.65-6.57,36.68,36.68,0,0,0,10.88-12.69h0c.73-1.55,1.61-3.64,2.22-5.24a36.28,36.28,0,0,0,1.38-5.62,36.94,36.94,0,0,0,0-11.85,36.27,36.27,0,0,0-1.38-5.62h0c-.6-1.6-1.49-3.7-2.22-5.24A36.48,36.48,0,0,0,204.48,49.2c.34,0,.62,15.18.64,34.33"/><path class="cls-13" d="M205.12,82.69c11.69,11.7,2.8,21.4-.12,24.58-.12,9.09-.3,15-.51,15a36.78,36.78,0,0,0,5.92-.48,36.37,36.37,0,0,0,15.65-6.57,36.68,36.68,0,0,0,10.88-12.69h0c.73-1.55,1.61-3.64,2.22-5.24a36.28,36.28,0,0,0,1.38-5.62,36.94,36.94,0,0,0,0-11.85,36.27,36.27,0,0,0-1.38-5.62h0c-.6-1.6-1.49-3.7-2.22-5.24A36.48,36.48,0,0,0,204.48,49.2c.33,0,.61,14.74.64,33.49"/><path class="cls-14" d="M205.12,81.77c3.38,2.84,13.37,13.19-.14,27.18-.12,8.13-.29,13.32-.49,13.32a36.78,36.78,0,0,0,5.92-.48,36.37,36.37,0,0,0,15.65-6.57,36.68,36.68,0,0,0,10.88-12.69h0c.73-1.55,1.61-3.64,2.22-5.24a36.28,36.28,0,0,0,1.38-5.62,36.94,36.94,0,0,0,0-11.85,36.27,36.27,0,0,0-1.38-5.62h0c-.6-1.6-1.49-3.7-2.22-5.24A36.48,36.48,0,0,0,204.48,49.2c.33,0,.6,14.26.63,32.57"/><path class="cls-15" d="M205.12,80.74c11.81,9.9,8.19,22.47-.17,29.95-.12,7.13-.28,11.58-.47,11.58a36.78,36.78,0,0,0,5.92-.48,36.37,36.37,0,0,0,15.65-6.57,36.68,36.68,0,0,0,10.88-12.69h0c.73-1.55,1.61-3.64,2.22-5.24a36.28,36.28,0,0,0,1.38-5.62,36.94,36.94,0,0,0,0-11.85,36.27,36.27,0,0,0-1.38-5.62h0c-.6-1.6-1.49-3.7-2.22-5.24A36.48,36.48,0,0,0,204.48,49.2c.32,0,.59,13.73.63,31.54"/><path class="cls-16" d="M205.11,79.72c13.9,11.61,8.58,24.85-.19,32.65-.11,6.14-.27,9.9-.44,9.9a36.78,36.78,0,0,0,5.92-.48,36.37,36.37,0,0,0,15.65-6.57,36.68,36.68,0,0,0,10.88-12.69h0c.73-1.55,1.61-3.64,2.22-5.24a36.28,36.28,0,0,0,1.38-5.62,36.94,36.94,0,0,0,0-11.85,36.27,36.27,0,0,0-1.38-5.62h0c-.6-1.6-1.49-3.7-2.22-5.24A36.48,36.48,0,0,0,204.48,49.2c.32,0,.58,13.21.63,30.51"/><path class="cls-17" d="M205.11,78.68c18.88,15.79,4.63,31.75-.22,35.17-.11,5.26-.25,8.42-.41,8.42a36.78,36.78,0,0,0,5.92-.48,36.37,36.37,0,0,0,15.65-6.57,36.68,36.68,0,0,0,10.88-12.69h0c.73-1.55,1.61-3.64,2.22-5.24a36.28,36.28,0,0,0,1.38-5.62,36.94,36.94,0,0,0,0-11.85,36.27,36.27,0,0,0-1.38-5.62h0c-.6-1.6-1.49-3.7-2.22-5.24A36.48,36.48,0,0,0,204.48,49.2c.31,0,.57,12.68.63,29.47"/><path class="cls-18" d="M205.11,77.34c17.67,13.5,9.89,32.16-.24,37.83-.11,4.46-.24,7.1-.38,7.1a36.78,36.78,0,0,0,5.92-.48,36.37,36.37,0,0,0,15.65-6.57,36.68,36.68,0,0,0,10.88-12.69h0c.73-1.55,1.61-3.64,2.22-5.24a36.28,36.28,0,0,0,1.38-5.62,36.94,36.94,0,0,0,0-11.85,36.27,36.27,0,0,0-1.38-5.62h0c-.6-1.6-1.49-3.7-2.22-5.24A36.48,36.48,0,0,0,204.48,49.2c.3,0,.55,12,.62,28.14"/><path class="cls-19" d="M205.1,76c17.48,13.28,14.28,32.23-.27,40.3-.1,3.76-.22,5.95-.35,5.95a36.78,36.78,0,0,0,5.92-.48,36.37,36.37,0,0,0,15.65-6.57,36.68,36.68,0,0,0,10.88-12.69h0c.73-1.55,1.61-3.64,2.22-5.24a36.28,36.28,0,0,0,1.38-5.62,36.94,36.94,0,0,0,0-11.85,36.27,36.27,0,0,0-1.38-5.62h0c-.6-1.6-1.49-3.7-2.22-5.24A36.48,36.48,0,0,0,204.48,49.2c.29,0,.54,11.36.61,26.82"/><path class="cls-20" d="M205.09,74.55c18.78,13.32,15.71,35.76-.29,42.79a28,28,0,0,1-.32,4.93,36.78,36.78,0,0,0,5.92-.48,36.37,36.37,0,0,0,15.65-6.57,36.68,36.68,0,0,0,10.88-12.69h0c.73-1.55,1.61-3.64,2.22-5.24a36.28,36.28,0,0,0,1.38-5.62,36.94,36.94,0,0,0,0-11.85,36.27,36.27,0,0,0-1.38-5.62h0c-.6-1.6-1.49-3.7-2.22-5.24A36.48,36.48,0,0,0,204.48,49.2c.28,0,.52,10.65.61,25.35"/><path class="cls-21" d="M205.08,73h0c19.33,13.65,19.17,37.34-.31,45.26a20.6,20.6,0,0,1-.29,4,36.78,36.78,0,0,0,5.92-.48,36.37,36.37,0,0,0,15.65-6.57,36.68,36.68,0,0,0,10.88-12.69h0c.73-1.55,1.61-3.64,2.22-5.24a36.28,36.28,0,0,0,1.38-5.62,36.94,36.94,0,0,0,0-11.85,36.27,36.27,0,0,0-1.38-5.62h0c-.6-1.6-1.49-3.7-2.22-5.24A36.48,36.48,0,0,0,204.48,49.2c.27,0,.51,9.9.6,23.79"/><path class="cls-22" d="M205.07,71.38c22.54,14.53,19,41.23-.33,47.68a14.75,14.75,0,0,1-.26,3.2,36.78,36.78,0,0,0,5.92-.48,36.37,36.37,0,0,0,15.65-6.57,36.68,36.68,0,0,0,10.88-12.69h0c.73-1.55,1.61-3.64,2.22-5.24a36.28,36.28,0,0,0,1.38-5.62,36.94,36.94,0,0,0,0-11.85,36.27,36.27,0,0,0-1.38-5.62h0c-.6-1.6-1.49-3.7-2.22-5.24A36.48,36.48,0,0,0,204.48,49.2c.26,0,.49,9.14.59,22.18"/><path class="cls-23" d="M205.06,69.74c26.3,16.87,19.22,45.12-.34,50a10.1,10.1,0,0,1-.23,2.48,36.78,36.78,0,0,0,5.92-.48,36.37,36.37,0,0,0,15.65-6.57,36.68,36.68,0,0,0,10.88-12.69h0c.73-1.55,1.61-3.64,2.22-5.24a36.28,36.28,0,0,0,1.38-5.62,36.94,36.94,0,0,0,0-11.85,36.27,36.27,0,0,0-1.38-5.62h0c-.6-1.6-1.49-3.7-2.22-5.24A36.48,36.48,0,0,0,204.48,49.2c.25,0,.47,8.38.57,20.54"/><path class="cls-24" d="M205,68.09c27.5,15.85,21.13,46.81,1.45,51.92-.54.14-1.27.29-1.81.41a6.53,6.53,0,0,1-.2,1.85,36.78,36.78,0,0,0,5.92-.48,36.37,36.37,0,0,0,15.65-6.57,36.68,36.68,0,0,0,10.88-12.69h0c.73-1.55,1.61-3.64,2.22-5.24a36.28,36.28,0,0,0,1.38-5.62,36.94,36.94,0,0,0,0-11.85,36.27,36.27,0,0,0-1.38-5.62h0c-.6-1.6-1.49-3.7-2.22-5.24A36.48,36.48,0,0,0,204.48,49.2c.24,0,.45,7.63.56,18.88"/><path class="cls-25" d="M205,66.45c28.91,16.44,23.48,47.59,3.3,53.67a24.27,24.27,0,0,1-3.67.84,3.87,3.87,0,0,1-.17,1.29,36.78,36.78,0,0,0,5.92-.48,36.37,36.37,0,0,0,15.65-6.57,36.68,36.68,0,0,0,10.88-12.69h0c.73-1.55,1.61-3.64,2.22-5.24a36.28,36.28,0,0,0,1.38-5.62,36.94,36.94,0,0,0,0-11.85,36.27,36.27,0,0,0-1.38-5.62h0c-.6-1.6-1.49-3.7-2.22-5.24A36.48,36.48,0,0,0,204.48,49.2c.23,0,.43,6.9.54,17.25"/><path class="cls-26" d="M205,64.77h0c30.22,15.49,25,49.1,4.24,55.7a26,26,0,0,1-4.63,1c0,.54-.09.82-.14.82a36.78,36.78,0,0,0,5.92-.48,36.37,36.37,0,0,0,15.65-6.57,36.68,36.68,0,0,0,10.88-12.69h0c.73-1.55,1.61-3.64,2.22-5.24a36.28,36.28,0,0,0,1.38-5.62,36.94,36.94,0,0,0,0-11.85,36.27,36.27,0,0,0-1.38-5.62h0c-.6-1.6-1.49-3.7-2.22-5.24A36.48,36.48,0,0,0,204.48,49.2c.22,0,.41,6.16.52,15.57"/><path class="cls-27" d="M205,63.1h0c29.08,13.28,29.1,48.89,6.4,57.22a24.49,24.49,0,0,1-6.8,1.5c0,.29-.07.44-.1.44a36.78,36.78,0,0,0,5.92-.48,36.37,36.37,0,0,0,15.65-6.57,36.68,36.68,0,0,0,10.88-12.69h0c.73-1.55,1.61-3.64,2.22-5.24a36.28,36.28,0,0,0,1.38-5.62,36.94,36.94,0,0,0,0-11.85,36.27,36.27,0,0,0-1.38-5.62h0c-.6-1.6-1.49-3.7-2.22-5.24A36.48,36.48,0,0,0,204.48,49.2c.2,0,.38,5.44.5,13.9"/><path class="cls-28" d="M205,61.4h0c31.26,13.66,31.56,50,7.37,59.17a26.7,26.7,0,0,1-7.79,1.52,23.81,23.81,0,0,0,5.86-.31,36.37,36.37,0,0,0,15.65-6.57,36.68,36.68,0,0,0,10.88-12.69h0c.73-1.55,1.61-3.64,2.22-5.24a36.28,36.28,0,0,0,1.38-5.62,36.94,36.94,0,0,0,0-11.85,36.27,36.27,0,0,0-1.38-5.62h0c-.6-1.6-1.49-3.7-2.22-5.24A36.48,36.48,0,0,0,204.48,49.2c.19,0,.36,4.71.48,12.2"/><path class="cls-29" d="M204.93,59.6c33.71,13.56,32.09,50.69,10.91,60.12a27.72,27.72,0,0,1-11.34,2.55,36.36,36.36,0,0,0,21.56-7,36.68,36.68,0,0,0,10.88-12.69h0c.73-1.55,1.61-3.64,2.22-5.24a36.28,36.28,0,0,0,1.38-5.62,36.94,36.94,0,0,0,0-11.85,36.27,36.27,0,0,0-1.38-5.62h0c-.6-1.6-1.49-3.7-2.22-5.24A36.48,36.48,0,0,0,204.48,49.2c.17,0,.33,4,.45,10.39"/><path class="cls-30" d="M204.89,57.68c32.77,11.54,36.29,49.84,12.68,61.76a27.68,27.68,0,0,1-9.39,2.64q1.12-.11,2.23-.29a36.37,36.37,0,0,0,15.65-6.57,36.68,36.68,0,0,0,10.88-12.69h0c.73-1.55,1.61-3.64,2.22-5.24a36.28,36.28,0,0,0,1.38-5.62,36.94,36.94,0,0,0,0-11.85,36.27,36.27,0,0,0-1.38-5.62h0c-.6-1.6-1.49-3.7-2.22-5.24A36.48,36.48,0,0,0,204.48,49.2c.16,0,.3,3.19.41,8.48"/><path class="cls-31" d="M204.84,55.5h0c31,8.73,41,48.66,15.79,62.84a27.29,27.29,0,0,1-5.32,2.29l.72-.23a36.43,36.43,0,0,0,10-5.19,36.68,36.68,0,0,0,10.88-12.69h0c.73-1.55,1.61-3.64,2.22-5.24a36.28,36.28,0,0,0,1.38-5.62,36.94,36.94,0,0,0,0-11.85,36.27,36.27,0,0,0-1.38-5.62h0c-.6-1.6-1.49-3.7-2.22-5.24A36.48,36.48,0,0,0,204.48,49.2c.13,0,.26,2.32.36,6.3"/></g></g></g><g class="cls-2"><g class="cls-32"><g class="cls-2"><path class="cls-4" d="M168,85.73a36.78,36.78,0,0,0,.48,5.93A36.37,36.37,0,0,0,175,107.31a36.68,36.68,0,0,0,12.7,10.88,36.27,36.27,0,0,0,10.86,3.6,36.78,36.78,0,0,0,5.92.48c.35,0,.64-16.35.64-36.53s-.29-36.53-.64-36.53a36.76,36.76,0,0,0-5.92.48,36.37,36.37,0,0,0-15.65,6.57A36.7,36.7,0,0,0,172,68.95a36.27,36.27,0,0,0-3.6,10.86,36.76,36.76,0,0,0-.48,5.92"/><path class="cls-4" d="M198.56,49.68a36.37,36.37,0,0,0-15.65,6.57A36.7,36.7,0,0,0,172,68.95a36.27,36.27,0,0,0-3.6,10.86,36.94,36.94,0,0,0,0,11.85A36.37,36.37,0,0,0,175,107.31a36.68,36.68,0,0,0,12.7,10.88,36.27,36.27,0,0,0,10.86,3.6,36.78,36.78,0,0,0,5.92.48c.29,0,.53-10.86.61-25.8h0C197,110,187.29,98.71,186.3,96c-2.55-7,4.16-15.81,13.65-11.13,0,0,3.24,1.64,5.16,6.61,0-1.87,0-3.79,0-5.74,0-20.17-.29-36.53-.64-36.53a36.76,36.76,0,0,0-5.92.48"/><path class="cls-5" d="M198.56,49.68a36.37,36.37,0,0,0-15.65,6.57A36.7,36.7,0,0,0,172,68.95a36.27,36.27,0,0,0-3.6,10.86,36.94,36.94,0,0,0,0,11.85A36.37,36.37,0,0,0,175,107.31a36.68,36.68,0,0,0,12.7,10.88,36.27,36.27,0,0,0,10.86,3.6,36.78,36.78,0,0,0,5.92.48c.28,0,.52-10.23.6-24.49h0c-6.56,10.86-17.54,4.15-19.62-1.79C183,88.9,190.34,79.62,200,84.3c.52.25,4.39,3.63,5.17,5.63q0-2.06,0-4.19c0-20.17-.29-36.53-.64-36.53a36.76,36.76,0,0,0-5.92.48"/><path class="cls-6" d="M198.56,49.68a36.37,36.37,0,0,0-15.65,6.57A36.7,36.7,0,0,0,172,68.95a36.27,36.27,0,0,0-3.6,10.86,36.94,36.94,0,0,0,0,11.85A36.37,36.37,0,0,0,175,107.31a36.68,36.68,0,0,0,12.7,10.88,36.27,36.27,0,0,0,10.86,3.6,36.78,36.78,0,0,0,5.92.48c.27,0,.5-9.62.59-23.2h0c-14.42,13.78-21-3.45-20.9-6.39.36-8.38,10.9-13.9,18.13-7.14.94.88,2,2.25,2.82,3.22q0-1.5,0-3c0-20.17-.29-36.53-.64-36.53a36.76,36.76,0,0,0-5.92.48"/><path class="cls-7" d="M198.56,49.68a36.37,36.37,0,0,0-15.65,6.57A36.7,36.7,0,0,0,172,68.95a36.27,36.27,0,0,0-3.6,10.86,36.94,36.94,0,0,0,0,11.85A36.37,36.37,0,0,0,175,107.31a36.68,36.68,0,0,0,12.7,10.88,36.27,36.27,0,0,0,10.86,3.6,36.78,36.78,0,0,0,5.92.48c.26,0,.49-9.12.59-22.14h0c-12.29,11.52-21.91-.59-21.63-7.45.34-8.42,11.2-15.18,19.87-6.94.61.58,1.27,1.5,1.81,2.14q0-1.06,0-2.14c0-20.17-.29-36.53-.64-36.53a36.76,36.76,0,0,0-5.92.48"/><path class="cls-8" d="M198.56,49.68a36.37,36.37,0,0,0-15.65,6.57A36.7,36.7,0,0,0,172,68.95a36.27,36.27,0,0,0-3.6,10.86,36.94,36.94,0,0,0,0,11.85A36.37,36.37,0,0,0,175,107.31a36.68,36.68,0,0,0,12.7,10.88,36.27,36.27,0,0,0,10.86,3.6,36.78,36.78,0,0,0,5.92.48c.26,0,.48-8.65.58-21.12h0c-10.58,9.83-22.73,1.55-22.35-8.46.35-9.11,11.78-16,21.35-6.94.36.34.74.88,1.06,1.25q0-.62,0-1.25c0-20.17-.29-36.53-.64-36.53a36.76,36.76,0,0,0-5.92.48"/><path class="cls-9" d="M198.56,49.68a36.37,36.37,0,0,0-15.65,6.57A36.7,36.7,0,0,0,172,68.95a36.27,36.27,0,0,0-3.6,10.86,36.94,36.94,0,0,0,0,11.85A36.37,36.37,0,0,0,175,107.31a36.68,36.68,0,0,0,12.7,10.88,36.27,36.27,0,0,0,10.86,3.6,36.78,36.78,0,0,0,5.92.48c.25,0,.46-8.19.57-20.12h0c-17,12.59-23.77-4.89-23.24-9.47,1.49-13,15.94-15.3,23.31-6.58,0-20.53-.29-36.89-.64-36.89a36.76,36.76,0,0,0-5.92.48"/><path class="cls-10" d="M198.56,49.68a36.37,36.37,0,0,0-15.65,6.57A36.7,36.7,0,0,0,172,68.95a36.27,36.27,0,0,0-3.6,10.86,36.94,36.94,0,0,0,0,11.85A36.37,36.37,0,0,0,175,107.31a36.68,36.68,0,0,0,12.7,10.88,36.27,36.27,0,0,0,10.86,3.6,36.78,36.78,0,0,0,5.92.48c.24,0,.45-7.66.56-19h0C189,115.19,179.78,100,180.63,92.68c.6-5.18,8.25-20.22,24.49-7.45,0-19.93-.29-36-.64-36a36.76,36.76,0,0,0-5.92.48"/><path class="cls-11" d="M198.56,49.68a36.37,36.37,0,0,0-15.65,6.57A36.7,36.7,0,0,0,172,68.95a36.27,36.27,0,0,0-3.6,10.86,36.94,36.94,0,0,0,0,11.85A36.37,36.37,0,0,0,175,107.31a36.68,36.68,0,0,0,12.7,10.88,36.27,36.27,0,0,0,10.86,3.6,36.78,36.78,0,0,0,5.92.48c.23,0,.44-7.14.55-17.8h0c-16.94,12.35-26.37-3.84-25.54-11.79.63-6.1,9.86-20.61,25.63-8.3,0-19.54-.29-35.17-.64-35.17a36.76,36.76,0,0,0-5.92.48"/><path class="cls-12" d="M198.56,49.68a36.37,36.37,0,0,0-15.65,6.57A36.7,36.7,0,0,0,172,68.95a36.27,36.27,0,0,0-3.6,10.86,36.94,36.94,0,0,0,0,11.85A36.37,36.37,0,0,0,175,107.31a36.68,36.68,0,0,0,12.7,10.88,36.27,36.27,0,0,0,10.86,3.6,36.78,36.78,0,0,0,5.92.48c.22,0,.42-6.56.53-16.5h0c-18.13,12.59-27.73-4.73-26.7-13.09,1.19-9.61,13-19.85,26.8-9.15,0-19.14-.3-34.33-.64-34.33a36.76,36.76,0,0,0-5.92.48"/><path class="cls-13" d="M198.56,49.68a36.37,36.37,0,0,0-15.65,6.57A36.7,36.7,0,0,0,172,68.95a36.27,36.27,0,0,0-3.6,10.86,36.94,36.94,0,0,0,0,11.85A36.37,36.37,0,0,0,175,107.31a36.68,36.68,0,0,0,12.7,10.88,36.27,36.27,0,0,0,10.86,3.6,36.78,36.78,0,0,0,5.92.48c.21,0,.4-5.9.51-15h0c-18.44,12.61-28.95-6-28-14.6,1.14-10,13.78-21.06,28.09-10,0-18.75-.3-33.49-.64-33.49a36.76,36.76,0,0,0-5.92.48"/><path class="cls-14" d="M198.56,49.68a36.37,36.37,0,0,0-15.65,6.57A36.7,36.7,0,0,0,172,68.95a36.27,36.27,0,0,0-3.6,10.86,36.94,36.94,0,0,0,0,11.85A36.37,36.37,0,0,0,175,107.31a36.68,36.68,0,0,0,12.7,10.88,36.27,36.27,0,0,0,10.86,3.6,36.78,36.78,0,0,0,5.92.48c.2,0,.38-5.18.49-13.32h0c-17.7,11.63-31.22-6-28.72-18.87,0-.23,6.74-22,28.86-8.31,0-18.31-.31-32.57-.63-32.57a36.76,36.76,0,0,0-5.92.48"/><path class="cls-15" d="M198.56,49.68a36.37,36.37,0,0,0-15.65,6.57A36.7,36.7,0,0,0,172,68.95a36.27,36.27,0,0,0-3.6,10.86,36.94,36.94,0,0,0,0,11.85A36.37,36.37,0,0,0,175,107.31a36.68,36.68,0,0,0,12.7,10.88,36.27,36.27,0,0,0,10.86,3.6,36.78,36.78,0,0,0,5.92.48c.18,0,.35-4.45.47-11.58h0c-20.32,11.24-32.74-10-29.75-21.43.06-.23,7.85-22.09,29.91-8.51,0-17.81-.31-31.54-.63-31.54a36.76,36.76,0,0,0-5.92.48"/><path class="cls-16" d="M198.56,49.68a36.37,36.37,0,0,0-15.65,6.57A36.7,36.7,0,0,0,172,68.95a36.27,36.27,0,0,0-3.6,10.86,36.94,36.94,0,0,0,0,11.85A36.37,36.37,0,0,0,175,107.31a36.68,36.68,0,0,0,12.7,10.88,36.27,36.27,0,0,0,10.86,3.6,36.78,36.78,0,0,0,5.92.48c.17,0,.32-3.76.44-9.9h0c-17.84,9.68-35.24-8.75-30.07-25.64,1.69-5.52,12.42-18,30.26-7-.05-17.31-.31-30.51-.63-30.51a36.76,36.76,0,0,0-5.92.48"/><path class="cls-17" d="M198.56,49.68a36.37,36.37,0,0,0-15.65,6.57A36.7,36.7,0,0,0,172,68.95a36.27,36.27,0,0,0-3.6,10.86,36.94,36.94,0,0,0,0,11.85A36.37,36.37,0,0,0,175,107.31a36.68,36.68,0,0,0,12.7,10.88,36.27,36.27,0,0,0,10.86,3.6,36.78,36.78,0,0,0,5.92.48c.15,0,.3-3.16.41-8.42h0c-20.57,8.83-36.41-13.07-30.83-28.11.08-.2,7.81-20.16,31-7.06-.06-16.79-.32-29.47-.63-29.47a36.76,36.76,0,0,0-5.92.48"/><path class="cls-18" d="M198.56,49.68a36.37,36.37,0,0,0-15.65,6.57A36.7,36.7,0,0,0,172,68.95a36.27,36.27,0,0,0-3.6,10.86,36.94,36.94,0,0,0,0,11.85A36.37,36.37,0,0,0,175,107.31a36.68,36.68,0,0,0,12.7,10.88,36.27,36.27,0,0,0,10.86,3.6,36.78,36.78,0,0,0,5.92.48c.14,0,.27-2.64.38-7.1h0c-23.51,8.12-38.68-17.47-30.33-32.95,1.49-2.75,9.94-15.93,30.57-4.88-.07-16.13-.32-28.14-.62-28.14a36.76,36.76,0,0,0-5.92.48"/><path class="cls-19" d="M198.56,49.68a36.37,36.37,0,0,0-15.65,6.57A36.7,36.7,0,0,0,172,68.95a36.27,36.27,0,0,0-3.6,10.86,36.94,36.94,0,0,0,0,11.85A36.37,36.37,0,0,0,175,107.31a36.68,36.68,0,0,0,12.7,10.88,36.27,36.27,0,0,0,10.86,3.6,36.78,36.78,0,0,0,5.92.48c.13,0,.25-2.19.35-5.95h0c-22.9,7.42-39-18.8-31.41-34.1.93-1.87,9.7-17.91,31.67-6.2-.07-15.46-.32-26.82-.61-26.82a36.76,36.76,0,0,0-5.92.48"/><path class="cls-20" d="M198.56,49.68a36.37,36.37,0,0,0-15.65,6.57A36.7,36.7,0,0,0,172,68.95a36.27,36.27,0,0,0-3.6,10.86,36.94,36.94,0,0,0,0,11.85A36.37,36.37,0,0,0,175,107.31a36.68,36.68,0,0,0,12.7,10.88,36.27,36.27,0,0,0,10.86,3.6,36.78,36.78,0,0,0,5.92.48,28,28,0,0,0,.32-4.93h0c-23.9,6.18-41.28-20.14-31-37.78,2.76-4.72,11.34-14.65,31.25-5-.08-14.7-.32-25.35-.61-25.35a36.76,36.76,0,0,0-5.92.48"/><path class="cls-21" d="M198.56,49.68a36.37,36.37,0,0,0-15.65,6.57A36.7,36.7,0,0,0,172,68.95a36.27,36.27,0,0,0-3.6,10.86,36.94,36.94,0,0,0,0,11.85A36.37,36.37,0,0,0,175,107.31a36.68,36.68,0,0,0,12.7,10.88,36.27,36.27,0,0,0,10.86,3.6,36.78,36.78,0,0,0,5.92.48,20.6,20.6,0,0,0,.29-4h0C179,124.44,163.42,93.81,173.2,78.79c3.91-6,13.25-14.75,31.89-5.8-.09-13.89-.32-23.79-.6-23.79a36.76,36.76,0,0,0-5.92.48"/><path class="cls-22" d="M198.56,49.68a36.37,36.37,0,0,0-15.65,6.57A36.7,36.7,0,0,0,172,68.95a36.27,36.27,0,0,0-3.6,10.86,36.94,36.94,0,0,0,0,11.85A36.37,36.37,0,0,0,175,107.31a36.68,36.68,0,0,0,12.7,10.88,36.27,36.27,0,0,0,10.86,3.6,36.78,36.78,0,0,0,5.92.48,14.75,14.75,0,0,0,.26-3.2h0c-25.4,4.88-43.09-24.6-31.34-42.21,4.54-6.8,13.72-13.28,31.67-5.47-.1-13-.32-22.18-.59-22.18a36.76,36.76,0,0,0-5.92.48"/><path class="cls-23" d="M198.56,49.68a36.37,36.37,0,0,0-15.65,6.57A36.7,36.7,0,0,0,172,68.95a36.27,36.27,0,0,0-3.6,10.86,36.94,36.94,0,0,0,0,11.85A36.37,36.37,0,0,0,175,107.31a36.68,36.68,0,0,0,12.7,10.88,36.27,36.27,0,0,0,10.86,3.6,36.78,36.78,0,0,0,5.92.48,10.1,10.1,0,0,0,.23-2.48h0c-26.36,4.35-43.68-26.1-31.39-44.3,3-4.51,12.22-14.09,31.74-5.74-.1-12.16-.32-20.54-.57-20.54a36.76,36.76,0,0,0-5.92.48"/><path class="cls-24" d="M198.56,49.68a36.37,36.37,0,0,0-15.65,6.57A36.7,36.7,0,0,0,172,68.95a36.27,36.27,0,0,0-3.6,10.86,36.94,36.94,0,0,0,0,11.85A36.37,36.37,0,0,0,175,107.31a36.68,36.68,0,0,0,12.7,10.88,36.27,36.27,0,0,0,10.86,3.6,36.78,36.78,0,0,0,5.92.48,6.53,6.53,0,0,0,.2-1.85h0c-27.46,3.8-44.56-28.7-30.92-46.88,6.75-9,17.27-10.82,31.27-5.46-.11-11.26-.32-18.88-.56-18.88a36.76,36.76,0,0,0-5.92.48"/><path class="cls-25" d="M198.56,49.68a36.37,36.37,0,0,0-15.65,6.57A36.7,36.7,0,0,0,172,68.95a36.27,36.27,0,0,0-3.6,10.86,36.94,36.94,0,0,0,0,11.85A36.37,36.37,0,0,0,175,107.31a36.68,36.68,0,0,0,12.7,10.88,36.27,36.27,0,0,0,10.86,3.6,36.78,36.78,0,0,0,5.92.48,3.87,3.87,0,0,0,.17-1.29h0c-28,3.3-45.37-30.77-31-48.68,7.23-9,17.77-11,31.33-5.84-.11-10.36-.31-17.25-.54-17.25a36.76,36.76,0,0,0-5.92.48"/><path class="cls-26" d="M182.91,115.22a36.41,36.41,0,0,0,21.57,7s.09-.28.14-.82h0c-8.11.75-15.74-1.59-22.68-7l1,.74"/><path class="cls-26" d="M198.56,49.68a36.37,36.37,0,0,0-15.65,6.57A36.7,36.7,0,0,0,172,68.95a36.27,36.27,0,0,0-3.6,10.86,36.94,36.94,0,0,0,0,11.85,36.27,36.27,0,0,0,3.45,10.58h0C161,78.46,176.28,55.07,205,64.77c-.12-9.42-.31-15.57-.52-15.57a36.76,36.76,0,0,0-5.92.48"/><path class="cls-27" d="M192.94,120.4a36.28,36.28,0,0,0,5.62,1.38,36.78,36.78,0,0,0,5.92.48s.07-.15.1-.44h0a31.26,31.26,0,0,1-14.78-2.63q1.53.67,3.14,1.21"/><path class="cls-27" d="M198.56,49.68a36.37,36.37,0,0,0-15.65,6.57A36.7,36.7,0,0,0,172,68.95a36.27,36.27,0,0,0-3.6,10.86,36.94,36.94,0,0,0,0,11.85q.16,1,.37,1.95h0C165,75.18,177.24,54.14,205,63.1c-.12-8.47-.3-13.9-.5-13.9a36.76,36.76,0,0,0-5.92.48"/><path class="cls-28" d="M198.56,121.79a36.78,36.78,0,0,0,5.92.48s0-.06.06-.17h0a29.21,29.21,0,0,1-8.63-.84q1.3.31,2.64.53"/><path class="cls-28" d="M198.56,49.68a36.37,36.37,0,0,0-15.65,6.57A36.7,36.7,0,0,0,172,68.95a36.27,36.27,0,0,0-3.6,10.86,36.76,36.76,0,0,0-.48,5.92q0,.69,0,1.37h0c-.25-15.35,11.07-33.48,37-25.7-.12-7.49-.29-12.2-.48-12.2a36.76,36.76,0,0,0-5.92.48"/><path class="cls-29" d="M204.48,122.26h0s-.91,0-2.16-.06q1.07.06,2.15.06"/><path class="cls-29" d="M198.56,49.68a36.37,36.37,0,0,0-15.65,6.57A36.7,36.7,0,0,0,172,68.95a36.27,36.27,0,0,0-3.6,10.86q-.1.63-.19,1.28h0c2.3-13.83,13.29-27.75,36.68-21.49-.11-6.43-.27-10.39-.45-10.39a36.76,36.76,0,0,0-5.92.48"/><path class="cls-30" d="M198.56,49.68a36.37,36.37,0,0,0-15.65,6.57A36.7,36.7,0,0,0,172,68.95a36.31,36.31,0,0,0-2.22,5.24q-.16.47-.3.94h0c5.33-15.12,18.56-21.65,35.38-17.45-.11-5.29-.25-8.48-.41-8.48a36.76,36.76,0,0,0-5.92.48"/><path class="cls-31" d="M198.56,49.68a36.37,36.37,0,0,0-15.65,6.57,36.7,36.7,0,0,0-10.71,12.37h0c4-6.73,13.48-17.39,32.64-13.12-.1-4-.23-6.3-.36-6.3a36.76,36.76,0,0,0-5.92.48"/><path class="cls-33" d="M187,96c1.09,2.69,2.11,3.4,4.59,5.11A8.64,8.64,0,0,0,196,102.2a8.35,8.35,0,0,0,4.37-1A11.55,11.55,0,0,0,204.7,96c1.44-4.27-1.95-8.51-4.75-10.56A9.36,9.36,0,0,0,195,84a12.2,12.2,0,0,0-4.71,1.4c-.89.44-5.57,4.85-3.27,10.54"/><path class="cls-34" d="M187.63,96a11.3,11.3,0,0,0,3.83,4.35,8.93,8.93,0,0,0,4.47,1.31,8.6,8.6,0,0,0,4.41-1.07A12.52,12.52,0,0,0,204.09,96c1.22-3.34-.25-6.88-4.14-10-.1-.08-4.78-1.45-5-1.46a11,11,0,0,0-3.79,1.17A8.06,8.06,0,0,0,187.63,96"/><path class="cls-35" d="M188.27,96a21.64,21.64,0,0,0,3.07,3.58,9.27,9.27,0,0,0,4.53,1.53,8.91,8.91,0,0,0,4.44-1.14c1.48-1,3.16-3.95,3.17-4,1.68-4.32-1.7-7.59-3.52-9.35-1.12-1.08-3.41-1.37-5-1.57a5.21,5.21,0,0,0-2.14.66c-8,3.08-4.72,10-4.58,10.26"/><path class="cls-36" d="M188.91,96a8,8,0,0,0,2.3,2.74,23,23,0,0,0,4.59,1.81,9.28,9.28,0,0,0,4.48-1.2c.3-.19,2.58-3.32,2.59-3.34a7,7,0,0,0,.44-3.31,7.91,7.91,0,0,0-1.44-3.42,7.13,7.13,0,0,0-1.91-2s-4.38-1.93-5.44-1.53c-3.88,1.48-4.71,2-5.54,3.52a7.62,7.62,0,0,0-.07,6.74"/><path class="cls-37" d="M189.55,96c1.59,3,6.14,4,6.18,4a39.9,39.9,0,0,0,4.5-1.35,6.18,6.18,0,0,0,2-2.64,7,7,0,0,0,.48-3.31,8.61,8.61,0,0,0-1.47-3.42A4.54,4.54,0,0,0,200,87.89c-1.42-.7-3.39-1.82-5-1.73s-3.31,1.51-4.66,2.29a2.23,2.23,0,0,0-.68.8,7,7,0,0,0-.08,6.74"/><path class="cls-38" d="M190.21,96c.92,1.71,5.43,3.42,5.47,3.42S200,98,200.21,97.89a4.28,4.28,0,0,0,1.45-1.9,7,7,0,0,0,.53-3.31,8.82,8.82,0,0,0-1.5-3.42,2.25,2.25,0,0,0-.72-.75c-1.45-.64-3.39-1.87-5-1.76,0,0-4.6,2.35-4.69,2.51a6.42,6.42,0,0,0-.09,6.74"/><path class="cls-39" d="M190.84,95.91c.09.23,4.7,2.87,4.74,2.87,1.46.14,3.29-1,4.6-1.63a2.58,2.58,0,0,0,.88-1.16,6.61,6.61,0,0,0,.58-3.31,9.43,9.43,0,0,0-1.53-3.42,40.32,40.32,0,0,0-5.1-1.93c-1.24.08-2.67,1.18-3.66,1.93a4.3,4.3,0,0,0-.92,1.52c-.73,1.5-.9,1.86.42,5.14"/><path class="cls-40" d="M190.58,93.16A8.39,8.39,0,0,0,191.9,96a7,7,0,0,0,3.65,2.17c1.47.12,3.25-1.16,4.6-1.76.14-.06.23-.28.31-.41a6.52,6.52,0,0,0,.62-3.31,5.26,5.26,0,0,0-1.1-2.42,3.91,3.91,0,0,0-1.26-1c-1.07-.51-2.54-1.43-3.72-1.35a4.25,4.25,0,0,0-2.58,1.35s-2.25,2.81-1.84,3.91"/><path class="cls-41" d="M192.93,96a4.68,4.68,0,0,0,2.56,1.52A5,5,0,0,0,199.32,96c.77-1,1.87-2.94.68-4.46-.63-.81-3.81-3.13-5-3.06a2.53,2.53,0,0,0-1.5.78c-.81.92-2.15,2.2-2.21,3.42A5.43,5.43,0,0,0,192.93,96"/><path class="cls-42" d="M194,96a2.71,2.71,0,0,0,1.45.86,3.3,3.3,0,0,0,2.15-.86c.88-.83,2.48-2.12,2.3-3.31-.24-1.63-3-2.44-4.3-3.42A1,1,0,0,0,195,89c-.64,0-2.79,3.6-2.79,3.63-.07,1.12,1,2.5,1.75,3.31"/><path class="cls-43" d="M195,96a.64.64,0,0,0,.34.2.67.67,0,0,0,.49-.2c.79-.95,2.6-2.09,2.44-3.31a3.61,3.61,0,0,0-3.26-2.6c-1,.13-1.83,1.64-1.87,2.6-.06,1.14,1.06,2.5,1.87,3.31"/><path class="cls-44" d="M195.27,94.68c.45-.6,1.59-1.26,1.5-2a1.84,1.84,0,0,0-1.67-1.33c-.49.07-.94.84-1,1.33,0,.69.8,1.41,1.14,2"/><path class="cls-45" d="M195.16,92.79s.09-.07.08-.11a.1.1,0,0,0-.09-.07s-.05,0-.05.07,0,.08.06.11"/></g></g></g><g class="cls-2"><g class="cls-46"><g class="cls-2"><path class="cls-30" d="M204.48,122.26a36.78,36.78,0,0,1-5.92-.48,36.37,36.37,0,0,1-15.65-6.57A36.68,36.68,0,0,1,172,102.52a36.27,36.27,0,0,1-3.6-10.86,36.94,36.94,0,0,1,0-11.85A36.37,36.37,0,0,1,175,64.16a36.7,36.7,0,0,1,12.7-10.88,36.27,36.27,0,0,1,10.86-3.6,36.92,36.92,0,0,1,11.85,0,36.37,36.37,0,0,1,15.65,6.57,36.7,36.7,0,0,1,10.88,12.7c.73,1.54,1.61,3.64,2.22,5.24a36.27,36.27,0,0,1,1.38,5.62,36.94,36.94,0,0,1,0,11.85,36.28,36.28,0,0,1-1.38,5.62c-.6,1.6-1.49,3.7-2.22,5.24a36.48,36.48,0,0,1-32.45,19.74"/><path class="cls-30" d="M239.15,97.28c-.56,1.61-1.49,3.7-2.22,5.24a36.55,36.55,0,1,1-38.38-52.84q1.1-.18,2.23-.29h0c-27.25,2.94-33.29,38.33-9.79,57.37,18.19,14.74,42.19,9.58,48.46-10.42-.09.28-.2.66-.3.94"/><path class="cls-31" d="M234,107.31a36.68,36.68,0,0,1-12.7,10.88,36.27,36.27,0,0,1-10.86,3.6,36.94,36.94,0,0,1-11.85,0,36.37,36.37,0,0,1-15.65-6.57A36.68,36.68,0,0,1,172,102.52a36.27,36.27,0,0,1-3.6-10.86,36.94,36.94,0,0,1,0-11.85A36.37,36.37,0,0,1,175,64.16a36.7,36.7,0,0,1,12.7-10.88,36.31,36.31,0,0,1,5.24-2.22l.72-.23h0c-28,9.3-25.57,49.24,3.88,62.85,17.55,8.11,33,.69,39.22-10.83a36.55,36.55,0,0,1-2.8,4.46"/><path class="cls-29" d="M210.41,49.68a36.37,36.37,0,0,1,15.65,6.57,36.7,36.7,0,0,1,10.88,12.7h0c.73,1.54,1.61,3.64,2.22,5.24a36.27,36.27,0,0,1,1.38,5.62,37,37,0,0,1,.19,10.57h0c-5,30-41.55,29.33-56.87,5.61-14.14-21.91-1.37-48.11,22.78-46.73a36.61,36.61,0,0,1,3.78.42"/><path class="cls-28" d="M216,51.07a36.43,36.43,0,0,1,10,5.19,36.7,36.7,0,0,1,10.88,12.7h0c.73,1.54,1.61,3.64,2.22,5.24a36.27,36.27,0,0,1,1.38,5.62,36.66,36.66,0,0,1,.45,4.56h0c.43,26.89-28.28,37.24-49.54,17.86-20.88-19-12.71-51.65,13.25-52.89a31,31,0,0,1,8.36.87q1.52.36,3,.85"/><path class="cls-27" d="M221.27,53.28a36.7,36.7,0,0,1,15.67,15.67h0c.73,1.54,1.61,3.64,2.22,5.24a36.24,36.24,0,0,1,1,3.67h0c5.71,27.85-21.73,41.08-42.36,27.25-23.47-15.73-21.49-49.65,3.22-55,8.49-1.83,15.74,1.16,18.13,2.14q1.07.47,2.11,1"/><path class="cls-26" d="M230.31,59.9a36.66,36.66,0,0,1,6.62,9l.15.28h0c12.64,27.57-10,47.25-33.12,37.44-25.25-10.7-29.3-45.6-6.37-54.91C206.89,48,217.9,49.93,227,57a36.76,36.76,0,0,1,3.29,2.92"/><path class="cls-25" d="M235.42,66.35c13.75,22.87-3,47.71-27.21,40.27-25.39-7.81-33-41.73-12-53.37,14.07-7.8,31.66.48,39.25,13.1"/><path class="cls-24" d="M236.89,69.24c10.37,22-6.4,43.08-28.5,35.87-24.76-8.07-31.42-41.6-10.33-52,14.92-7.35,32.44,2.59,38.83,16.12"/><path class="cls-23" d="M236.67,69.24c10.84,23.19-8.17,41.29-28.23,34.39-24.06-8.27-29.63-39.79-8.89-50.34,12.32-6.27,30.37,1.48,37.13,15.94"/><path class="cls-22" d="M236.37,69.24c9.8,21.17-6.59,40.53-27.84,32.9-23.36-8.4-27.76-40.4-6.73-48.92,12.18-4.93,28.33,2.56,34.57,16"/><path class="cls-21" d="M237.26,72.29c7.28,22.06-13,38-33.38,26.18-19.15-11.07-19-39,.31-45.22,12.67-4.11,28.43,5,33.07,19"/><path class="cls-20" d="M236.81,72.29c6.85,21.19-13.15,36.18-32.93,24.68C185.2,86.1,187,58.06,206.62,53.48c13.21-3.08,26.52,7.44,30.19,18.81"/><path class="cls-19" d="M236.29,72.29c6,18.32-9.43,32.77-27.53,25.76-21.27-8.24-21.27-35.49-4.62-42.82,11.93-5.25,27.56,3,32.16,17.06"/><path class="cls-18" d="M235.68,72.29c6.19,19.93-13.43,33.49-31.81,22-15.18-9.49-13.22-33.92,3.13-39,11-3.42,24.91,4.85,28.69,17"/><path class="cls-17" d="M235,72.29c5.56,18.15-10.59,29.25-26.15,23.38-17.66-6.67-19.22-31.47-2.46-39,10.36-4.67,24.8,3.23,28.6,15.64"/><path class="cls-16" d="M235,75.48c2.45,18.28-17.48,26.08-31.13,16.48s-9.56-32,6.35-35.31c10.93-2.27,23.2,7.05,24.78,18.83"/><path class="cls-15" d="M234.06,75.48C236,91.67,218,100.93,203.85,91c-12.67-8.94-8.45-29.72,6.74-33.19,11.15-2.55,22.22,7.61,23.46,17.71"/><path class="cls-14" d="M233.05,75.48c1.51,13-13.72,25.46-29.2,14.48-10.73-7.61-8.35-27.09,7.1-31,9.72-2.45,20.87,5.88,22.1,16.5"/><path class="cls-13" d="M231.91,75.48c1.57,16.05-17.55,22.83-28.06,13.52-12.09-10.71-3.17-28.79,10.65-29.17,9.34-.26,16.67,8,17.41,15.65"/><path class="cls-12" d="M230.66,75.48C232.05,90,215,98.09,203.85,88.14s-2-27,11.15-27a16.32,16.32,0,0,1,15.66,14.31"/><path class="cls-11" d="M229.38,75.48c1.59,13-13.66,22.41-25.54,11.8-9.85-8.8-2-25.47,11.6-24.78,4.81.24,12.85,4,13.94,13"/><path class="cls-10" d="M228.34,78.79c-1.59,13.71-17.84,16.29-25.14,6.94-8.18-10.48,1.17-23.15,12.65-21.91,8.28.9,13.23,8.61,12.49,15"/><path class="cls-9" d="M227.16,78.79c-.94,8.21-6.31,10.62-8.57,11.28-3.9,1.13-4.66.89-9.59-.62,0,0-4.84-3.5-5.15-3.91-9.58-12.78,4.24-22.09,12.32-20.58,7.37,1.38,11.64,8.27,11,13.85"/><path class="cls-8" d="M226.26,78.79c-.35,9.16-11.85,16.06-21.47,6.94-7.39-7-2.89-18.76,7.65-20,5-.57,14.18,3.4,13.82,13"/><path class="cls-7" d="M225.53,78.79c-.35,8.45-11.25,15.22-20,6.94-7.76-7.37-2.19-18.53,7-19.12,6.93-.45,13.23,5.47,13,12.18"/><path class="cls-6" d="M224.07,82.22c-1.27,3-2.57,3.89-5.41,5.78a9.43,9.43,0,0,1-4.71,1A10.17,10.17,0,0,1,209,87.73c-3.35-2.16-4.85-4.19-5.51-5.52a9.67,9.67,0,0,1,.46-9.92c2.61-2.8,6.19-6.63,12.92-4.39,3.93,1.31,10,7.55,7.19,14.31"/><path class="cls-5" d="M223.23,82.22c-1.27,2.92-2.5,3.74-4.53,5.11A9.45,9.45,0,0,1,214,88.44,10.34,10.34,0,0,1,209,87.17a17.38,17.38,0,0,1-4.89-5,9.22,9.22,0,0,1,.6-9.92c2.13-2.2,5.68-5.89,12.34-3.5.1,0,9.93,4.76,6.16,13.42"/><path class="cls-4" d="M222.88,80.44c-1.09,5-4.29,7-8.92,7.49A9.08,9.08,0,0,1,209,86.61a23.8,23.8,0,0,1-4.29-4.39,8.7,8.7,0,0,1,.77-9.92c.85-.86,1.88-2.35,3.06-2.62s2.94-1,4.26-1.05c.23,0,4.2.89,4.42,1,4.4,2.08,6.62,6.33,5.65,10.83"/><path class="cls-33" d="M221.91,82.22a29,29,0,0,1-3.23,3.8c-1.23.81-3.26,1.68-4.71,1.4,0,0-4.53-1-5.36-1.69-1.81-1.58-4.07-3.55-4.52-6.94-.71-5.31,4.46-8.49,4.51-8.52a9,9,0,0,1,4.37-1c3.76.59,3.76.59,6.55,2.71s3.86,7.1,2.39,10.23"/><path class="cls-34" d="M221.28,82.22a8.55,8.55,0,0,1-2.59,3.08A30.67,30.67,0,0,1,214,86.91c-.56-.12-4.87-1.39-5-1.46-1.85-1.61-4-3.44-4.38-6.65-.46-3.48,2.36-7.16,4-7.9A9.33,9.33,0,0,1,213,69.82c1.24.17,4.3.74,6,2.47,4.54,4.62,2.66,9.08,2.24,9.92"/><path class="cls-35" d="M220.64,82.22c-1.88,3.66-6.61,4.19-6.66,4.18-1.52-.34-3.78-.55-5-1.57s-3.43-3-3.83-6a6.64,6.64,0,0,1,.37-3.31s2-3.42,3.1-4a9.58,9.58,0,0,1,4.44-1.14s4.14,1,5,1.92c4.19,4.06,3.67,7.64,2.49,9.92"/><path class="cls-36" d="M220,82.22a4.35,4.35,0,0,1-1.32,1.56s-4.45,2.16-4.68,2.1c-.51-.12-5-1.67-5-1.68a8.67,8.67,0,0,1-3.28-5.41,7,7,0,0,1,.42-3.31s2.33-3.24,2.54-3.34a9.93,9.93,0,0,1,4.48-1.2,26.21,26.21,0,0,1,4.59,1.81A7.64,7.64,0,0,1,220,82.22"/><path class="cls-37" d="M219.33,82.22a2.21,2.21,0,0,1-.68.8c-1.35.78-3.11,2.2-4.66,2.29s-3.55-1-5-1.73a3.08,3.08,0,0,1-1.31-1.37c-.43-1-1.54-2.32-1.41-3.42a13.45,13.45,0,0,1,.47-3.31,6.87,6.87,0,0,1,2-2.64,42,42,0,0,1,4.5-1.35,4.92,4.92,0,0,1,2.23.8c1.94,1,4.88,2.51,4.83,6.5a8.33,8.33,0,0,1-1,3.42"/><path class="cls-38" d="M218.67,82.22c-.09.17-4.66,2.51-4.69,2.51-1.58.11-3.52-1.12-5-1.76a1.69,1.69,0,0,1-.72-.75c-.47-1-1.52-2.31-1.46-3.42.12-2.13.22-4,1.93-5.22,0,0,3.38-1.23,4.53-1.52.2,0,.46.14.65.23,3.75,1.79,5.82,2.77,5.77,6.5a8.2,8.2,0,0,1-1,3.42"/><path class="cls-39" d="M218.55,80.69a4,4,0,0,1-.92,1.52c-1,.75-2.42,1.85-3.66,1.93a41.33,41.33,0,0,1-5.1-1.93c-.52-1-1.49-2.3-1.5-3.42,0-.35,0-3.43,1.42-4.47a7.8,7.8,0,0,1,4.56-1.65s4.59,2.61,4.77,2.89a4.8,4.8,0,0,1,.42,5.13"/><path class="cls-40" d="M218.45,79.07c-.47,1.07-1.91,4.34-4.48,4.5-.4,0-4.32-1.27-5-2.36a5.87,5.87,0,0,1-1.07-2.42s.28-3.24.91-3.72a7.89,7.89,0,0,1,4.6-1.75,6.46,6.46,0,0,1,3.65,2.17s1.7,2.86,1.38,3.59"/><path class="cls-41" d="M215.46,82.22A2.94,2.94,0,0,1,214,83a4.27,4.27,0,0,1-2.13-.78A8.37,8.37,0,0,1,209,79.94c-.19-.33-.57-.77-.51-1.15.16-1,.36-2.66,1.19-3.31A6.5,6.5,0,0,1,213.48,74,4.48,4.48,0,0,1,216,75.48c.73.84,1.7,2.21,1.63,3.31s-1.3,2.61-2.21,3.42"/><path class="cls-42" d="M214.35,82.22a.8.8,0,0,1-.4.21,1,1,0,0,1-.56-.21c-1.32-1-4.06-1.79-4.3-3.42-.18-1.2,1.42-2.49,2.3-3.31a3.3,3.3,0,0,1,2.15-.86,2.38,2.38,0,0,1,1.45.86c.68.89,1.82,2.19,1.75,3.31s-1.44,2.6-2.39,3.42"/><path class="cls-43" d="M213.92,81.4a3.62,3.62,0,0,1-3.26-2.6c-.16-1.22,1.65-2.37,2.44-3.31a.67.67,0,0,1,.49-.2c.56,0,2.21,3.48,2.2,3.51-.06,1-.92,2.48-1.88,2.6"/><path class="cls-44" d="M213.87,80.12a1.84,1.84,0,0,1-1.67-1.33c-.1-.75,1-1.41,1.5-2,.34.6,1.18,1.32,1.14,2,0,.49-.48,1.26-1,1.33"/><path class="cls-45" d="M213.82,78.87a.1.1,0,0,1-.09-.07s.06-.08.08-.11.07.07.06.11,0,.07-.05.07"/></g></g></g></g><g class="cls-2"><g class="cls-2"><g class="cls-47"><g class="cls-2"><path class="cls-4" d="M241,185.53a36.8,36.8,0,0,0,5.93-.48,36.37,36.37,0,0,0,15.65-6.57,36.67,36.67,0,0,0,10.88-12.69,36.28,36.28,0,0,0,3.6-10.86,37,37,0,0,0,0-11.85,36.37,36.37,0,0,0-6.57-15.65,36.68,36.68,0,0,0-12.69-10.88,36.27,36.27,0,0,0-10.86-3.6,36.78,36.78,0,0,0-5.93-.48c.35,0,.64,16.36.64,36.53s-.29,36.53-.64,36.53"/><path class="cls-4" d="M241.66,149c0,2,0,3.87,0,5.74h0a7.09,7.09,0,0,1,0,5c-.08,14.94-.32,25.8-.61,25.8l3-.12,2.93-.36a36.37,36.37,0,0,0,15.65-6.57,36.67,36.67,0,0,0,10.88-12.69,36.28,36.28,0,0,0,3.6-10.86,37,37,0,0,0,0-11.85,36.37,36.37,0,0,0-6.57-15.65,36.68,36.68,0,0,0-12.69-10.88,36.27,36.27,0,0,0-10.86-3.6,36.78,36.78,0,0,0-5.93-.48c.35,0,.64,16.36.64,36.53"/><path class="cls-5" d="M241.66,149q0,2.13,0,4.2h0c1.06,2.89,1.59,4.33,0,7.86-.09,14.25-.32,24.47-.6,24.47l3-.12,2.93-.36a36.37,36.37,0,0,0,15.65-6.57,36.67,36.67,0,0,0,10.88-12.69,36.28,36.28,0,0,0,3.6-10.86,37,37,0,0,0,0-11.85,36.37,36.37,0,0,0-6.57-15.65,36.68,36.68,0,0,0-12.69-10.88,36.27,36.27,0,0,0-10.86-3.6,36.78,36.78,0,0,0-5.93-.48c.35,0,.64,16.36.64,36.53"/><path class="cls-6" d="M241.66,149q0,1.53,0,3h0c2.9,4,1.13,7.8,0,10.34-.09,13.57-.32,23.17-.59,23.17l3-.12,2.93-.36a36.37,36.37,0,0,0,15.65-6.57,36.67,36.67,0,0,0,10.88-12.69,36.28,36.28,0,0,0,3.6-10.86,37,37,0,0,0,0-11.85,36.37,36.37,0,0,0-6.57-15.65,36.68,36.68,0,0,0-12.69-10.88,36.27,36.27,0,0,0-10.86-3.6,36.78,36.78,0,0,0-5.93-.48c.35,0,.64,16.36.64,36.53"/><path class="cls-7" d="M241.66,149q0,1.08,0,2.14h0a9.81,9.81,0,0,1-.05,12.27c-.1,13-.32,22.12-.59,22.12l3-.12,2.93-.36a36.37,36.37,0,0,0,15.65-6.57,36.67,36.67,0,0,0,10.88-12.69,36.28,36.28,0,0,0,3.6-10.86,37,37,0,0,0,0-11.85,36.37,36.37,0,0,0-6.57-15.65,36.68,36.68,0,0,0-12.69-10.88,36.27,36.27,0,0,0-10.86-3.6,36.78,36.78,0,0,0-5.93-.48c.35,0,.64,16.36.64,36.53"/><path class="cls-8" d="M241.66,149q0,.63,0,1.25h0c4.53,6.27,2.51,10.68-.06,14.17-.1,12.47-.32,21.11-.58,21.11l3-.12,2.93-.36a36.37,36.37,0,0,0,15.65-6.57,36.67,36.67,0,0,0,10.88-12.69,36.28,36.28,0,0,0,3.6-10.86,37,37,0,0,0,0-11.85,36.37,36.37,0,0,0-6.57-15.65,36.68,36.68,0,0,0-12.69-10.88,36.27,36.27,0,0,0-10.86-3.6,36.78,36.78,0,0,0-5.93-.48c.35,0,.64,16.36.64,36.53"/><path class="cls-9" d="M241.66,149v.36c4.89,6.79,3.75,10.89-.07,16.06-.1,11.93-.32,20.11-.57,20.11l3-.12,2.93-.36a36.37,36.37,0,0,0,15.65-6.57,36.67,36.67,0,0,0,10.88-12.69,36.28,36.28,0,0,0,3.6-10.86,37,37,0,0,0,0-11.85,36.37,36.37,0,0,0-6.57-15.65,36.68,36.68,0,0,0-12.69-10.88,36.27,36.27,0,0,0-10.86-3.6,36.78,36.78,0,0,0-5.93-.48c.35,0,.64,16.36.64,36.53"/><path class="cls-10" d="M241.66,148.49c.86.87,8.15,8.72-.08,18.09-.11,11.3-.32,18.95-.56,18.95l3-.12,2.93-.36a36.37,36.37,0,0,0,15.65-6.57,36.67,36.67,0,0,0,10.88-12.69,36.28,36.28,0,0,0,3.6-10.86,37,37,0,0,0,0-11.85,36.37,36.37,0,0,0-6.57-15.65,36.68,36.68,0,0,0-12.69-10.88,36.27,36.27,0,0,0-10.86-3.6,36.78,36.78,0,0,0-5.93-.48c.35,0,.63,16.09.64,36"/><path class="cls-11" d="M241.66,147.65c3.48,3.51,8.1,10.78-.09,20.09-.11,10.66-.31,17.8-.55,17.8l3-.12,2.93-.36a36.37,36.37,0,0,0,15.65-6.57,36.67,36.67,0,0,0,10.88-12.69,36.28,36.28,0,0,0,3.6-10.86,37,37,0,0,0,0-11.85,36.37,36.37,0,0,0-6.57-15.65,36.68,36.68,0,0,0-12.69-10.88,36.27,36.27,0,0,0-10.86-3.6,36.78,36.78,0,0,0-5.93-.48c.34,0,.62,15.63.64,35.17"/><path class="cls-12" d="M241.66,146.8c3.94,4,9.16,12.12-.1,22.24-.11,9.94-.31,16.49-.53,16.49l3-.12,2.93-.36a36.37,36.37,0,0,0,15.65-6.57,36.67,36.67,0,0,0,10.88-12.69,36.28,36.28,0,0,0,3.6-10.86,37,37,0,0,0,0-11.85,36.37,36.37,0,0,0-6.57-15.65,36.68,36.68,0,0,0-12.69-10.88,36.27,36.27,0,0,0-10.86-3.6,36.78,36.78,0,0,0-5.93-.48c.34,0,.62,15.18.64,34.33"/><path class="cls-13" d="M241.65,146c11.69,11.7,2.8,21.4-.12,24.59-.12,9.09-.3,15-.51,15l3-.12,2.93-.36a36.37,36.37,0,0,0,15.65-6.57,36.67,36.67,0,0,0,10.88-12.69,36.28,36.28,0,0,0,3.6-10.86,37,37,0,0,0,0-11.85,36.37,36.37,0,0,0-6.57-15.65,36.68,36.68,0,0,0-12.69-10.88,36.27,36.27,0,0,0-10.86-3.6,36.78,36.78,0,0,0-5.93-.48c.33,0,.61,14.74.64,33.49"/><path class="cls-14" d="M241.65,145c3.38,2.84,13.37,13.19-.14,27.18-.12,8.13-.29,13.31-.49,13.31l3-.12,2.93-.36a36.37,36.37,0,0,0,15.65-6.57,36.67,36.67,0,0,0,10.88-12.69,36.28,36.28,0,0,0,3.6-10.86,37,37,0,0,0,0-11.85,36.37,36.37,0,0,0-6.57-15.65,36.68,36.68,0,0,0-12.69-10.88,36.27,36.27,0,0,0-10.86-3.6,36.78,36.78,0,0,0-5.93-.48c.33,0,.6,14.26.63,32.56"/><path class="cls-15" d="M241.65,144h0c11.81,9.92,8.19,22.48-.17,30-.12,7.12-.28,11.58-.47,11.58l3-.12,2.93-.36a36.37,36.37,0,0,0,15.65-6.57,36.67,36.67,0,0,0,10.88-12.69,36.28,36.28,0,0,0,3.6-10.86,37,37,0,0,0,0-11.85,36.37,36.37,0,0,0-6.57-15.65,36.68,36.68,0,0,0-12.69-10.88,36.27,36.27,0,0,0-10.86-3.6,36.78,36.78,0,0,0-5.93-.48c.32,0,.59,13.73.63,31.53"/><path class="cls-16" d="M241.65,143c13.89,11.63,8.58,24.86-.19,32.65-.11,6.14-.27,9.9-.44,9.9l3-.12,2.93-.36a36.37,36.37,0,0,0,15.65-6.57,36.67,36.67,0,0,0,10.88-12.69,36.28,36.28,0,0,0,3.6-10.86,37,37,0,0,0,0-11.85,36.37,36.37,0,0,0-6.57-15.65,36.68,36.68,0,0,0-12.69-10.88,36.27,36.27,0,0,0-10.86-3.6,36.78,36.78,0,0,0-5.93-.48c.32,0,.58,13.2.63,30.51"/><path class="cls-17" d="M241.65,141.94c17,14.26,7.21,29.86-.22,35.18-.11,5.26-.25,8.42-.41,8.42l3-.12,2.93-.36a36.37,36.37,0,0,0,15.65-6.57,36.67,36.67,0,0,0,10.88-12.69,36.28,36.28,0,0,0,3.6-10.86,37,37,0,0,0,0-11.85,36.37,36.37,0,0,0-6.57-15.65,36.68,36.68,0,0,0-12.69-10.88,36.27,36.27,0,0,0-10.86-3.6,36.78,36.78,0,0,0-5.93-.48c.31,0,.57,12.68.63,29.47"/><path class="cls-18" d="M241.64,140.6c17.68,13.5,9.89,32.17-.24,37.83-.11,4.46-.24,7.1-.38,7.1l3-.12,2.93-.36a36.37,36.37,0,0,0,15.65-6.57,36.67,36.67,0,0,0,10.88-12.69,36.28,36.28,0,0,0,3.6-10.86,37,37,0,0,0,0-11.85,36.37,36.37,0,0,0-6.57-15.65,36.68,36.68,0,0,0-12.69-10.88,36.27,36.27,0,0,0-10.86-3.6,36.78,36.78,0,0,0-5.93-.48c.3,0,.55,12,.62,28.13"/><path class="cls-19" d="M241.63,139.29c17.49,13.28,14.28,32.23-.27,40.3-.1,3.76-.22,5.95-.35,5.95l3-.12,2.93-.36a36.37,36.37,0,0,0,15.65-6.57,36.67,36.67,0,0,0,10.88-12.69,36.28,36.28,0,0,0,3.6-10.86,37,37,0,0,0,0-11.85,36.37,36.37,0,0,0-6.57-15.65,36.68,36.68,0,0,0-12.69-10.88,36.27,36.27,0,0,0-10.86-3.6,36.78,36.78,0,0,0-5.93-.48c.29,0,.54,11.36.61,26.81"/><path class="cls-20" d="M241.63,137.82c18.78,13.32,15.71,35.76-.29,42.79a28,28,0,0,1-.32,4.93l3-.12,2.93-.36a36.37,36.37,0,0,0,15.65-6.57,36.67,36.67,0,0,0,10.88-12.69,36.28,36.28,0,0,0,3.6-10.86,37,37,0,0,0,0-11.85,36.37,36.37,0,0,0-6.57-15.65,36.68,36.68,0,0,0-12.69-10.88,36.27,36.27,0,0,0-10.86-3.6,36.78,36.78,0,0,0-5.93-.48c.28,0,.52,10.64.61,25.35"/><path class="cls-21" d="M241.62,136.26h0c19.34,13.65,19.17,37.34-.31,45.26a20.59,20.59,0,0,1-.29,4l3-.12,2.93-.36a36.37,36.37,0,0,0,15.65-6.57,36.67,36.67,0,0,0,10.88-12.69,36.28,36.28,0,0,0,3.6-10.86,37,37,0,0,0,0-11.85,36.37,36.37,0,0,0-6.57-15.65,36.68,36.68,0,0,0-12.69-10.88,36.27,36.27,0,0,0-10.86-3.6,36.78,36.78,0,0,0-5.93-.48c.27,0,.51,9.9.6,23.79"/><path class="cls-22" d="M241.61,134.65c22.54,14.54,19,41.23-.32,47.68a14.74,14.74,0,0,1-.26,3.2l3-.12,2.93-.36a36.37,36.37,0,0,0,15.65-6.57,36.67,36.67,0,0,0,10.88-12.69,36.28,36.28,0,0,0,3.6-10.86,37,37,0,0,0,0-11.85,36.37,36.37,0,0,0-6.57-15.65,36.68,36.68,0,0,0-12.69-10.88,36.27,36.27,0,0,0-10.86-3.6,36.78,36.78,0,0,0-5.93-.48c.26,0,.49,9.14.59,22.18"/><path class="cls-23" d="M241.59,133c26.3,16.88,19.22,45.12-.34,50a10.1,10.1,0,0,1-.23,2.48l3-.12,2.93-.36a36.37,36.37,0,0,0,15.65-6.57,36.67,36.67,0,0,0,10.88-12.69,36.28,36.28,0,0,0,3.6-10.86,37,37,0,0,0,0-11.85,36.37,36.37,0,0,0-6.57-15.65,36.68,36.68,0,0,0-12.69-10.88,36.27,36.27,0,0,0-10.86-3.6,36.78,36.78,0,0,0-5.93-.48c.25,0,.47,8.38.57,20.54"/><path class="cls-24" d="M241.58,131.35c27.51,15.86,21.14,46.81,1.45,51.92-.54.14-1.27.29-1.81.41a6.53,6.53,0,0,1-.2,1.85l3-.12,2.93-.36a36.37,36.37,0,0,0,15.65-6.57,36.67,36.67,0,0,0,10.88-12.69,36.28,36.28,0,0,0,3.6-10.86,37,37,0,0,0,0-11.85,36.37,36.37,0,0,0-6.57-15.65,36.68,36.68,0,0,0-12.69-10.88,36.27,36.27,0,0,0-10.86-3.6,36.78,36.78,0,0,0-5.93-.48c.24,0,.45,7.62.56,18.88"/><path class="cls-25" d="M241.56,129.72c28.92,16.44,23.49,47.59,3.3,53.68a24.28,24.28,0,0,1-3.67.84,3.88,3.88,0,0,1-.17,1.29l3-.12,2.93-.36a36.37,36.37,0,0,0,15.65-6.57,36.67,36.67,0,0,0,10.88-12.69,36.28,36.28,0,0,0,3.6-10.86,37,37,0,0,0,0-11.85,36.37,36.37,0,0,0-6.57-15.65,36.68,36.68,0,0,0-12.69-10.88,36.27,36.27,0,0,0-10.86-3.6,36.78,36.78,0,0,0-5.93-.48c.23,0,.43,6.89.54,17.25"/><path class="cls-26" d="M241.54,128h0c30.23,15.49,25,49.11,4.24,55.71a26,26,0,0,1-4.63,1c0,.54-.09.83-.14.83l3-.12,2.93-.36a36.37,36.37,0,0,0,15.65-6.57,36.67,36.67,0,0,0,10.88-12.69,36.28,36.28,0,0,0,3.6-10.86,37,37,0,0,0,0-11.85,36.37,36.37,0,0,0-6.57-15.65,36.68,36.68,0,0,0-12.69-10.88,36.27,36.27,0,0,0-10.86-3.6,36.78,36.78,0,0,0-5.93-.48c.22,0,.41,6.15.52,15.57"/><path class="cls-27" d="M241.52,126.37c29.09,13.28,29.11,48.89,6.4,57.22a24.51,24.51,0,0,1-6.8,1.5c0,.29-.07.44-.1.44l3-.12,2.93-.36a36.37,36.37,0,0,0,15.65-6.57,36.67,36.67,0,0,0,10.88-12.69,36.28,36.28,0,0,0,3.6-10.86,37,37,0,0,0,0-11.85,36.37,36.37,0,0,0-6.57-15.65,36.68,36.68,0,0,0-12.69-10.88,36.27,36.27,0,0,0-10.86-3.6,36.78,36.78,0,0,0-5.93-.48c.2,0,.38,5.43.5,13.9"/><path class="cls-28" d="M241.49,124.67c31.27,13.66,31.58,50,7.38,59.18a26.71,26.71,0,0,1-7.79,1.52l2.93,0,2.93-.36a36.37,36.37,0,0,0,15.65-6.57,36.67,36.67,0,0,0,10.88-12.69,36.28,36.28,0,0,0,3.6-10.86,37,37,0,0,0,0-11.85,36.37,36.37,0,0,0-6.57-15.65,36.68,36.68,0,0,0-12.69-10.88,36.27,36.27,0,0,0-10.86-3.6,36.78,36.78,0,0,0-5.93-.48c.19,0,.36,4.71.48,12.2"/><path class="cls-29" d="M241.46,122.86h0c33.72,13.56,32.09,50.69,10.91,60.12A27.73,27.73,0,0,1,241,185.53l3-.12,2.93-.36a36.37,36.37,0,0,0,15.65-6.57,36.67,36.67,0,0,0,10.88-12.69,36.28,36.28,0,0,0,3.6-10.86,37,37,0,0,0,0-11.85,36.37,36.37,0,0,0-6.57-15.65,36.68,36.68,0,0,0-12.69-10.88,36.27,36.27,0,0,0-10.86-3.6,36.78,36.78,0,0,0-5.93-.48c.17,0,.33,4,.45,10.39"/><path class="cls-30" d="M241.43,120.95c32.77,11.54,36.3,49.84,12.69,61.76a27.69,27.69,0,0,1-9.39,2.64q1.12-.11,2.23-.29a36.37,36.37,0,0,0,15.65-6.57,36.67,36.67,0,0,0,10.88-12.69,36.28,36.28,0,0,0,3.6-10.86,37,37,0,0,0,0-11.85,36.37,36.37,0,0,0-6.57-15.65,36.68,36.68,0,0,0-12.69-10.88,36.27,36.27,0,0,0-10.86-3.6,36.78,36.78,0,0,0-5.93-.48c.16,0,.3,3.19.41,8.48"/><path class="cls-31" d="M241.38,118.77c31,8.72,41,48.66,15.79,62.84a27.28,27.28,0,0,1-5.32,2.29l.72-.23a36.42,36.42,0,0,0,10-5.19,36.67,36.67,0,0,0,10.88-12.69,36.28,36.28,0,0,0,3.6-10.86,37,37,0,0,0,0-11.85,36.37,36.37,0,0,0-6.57-15.65,36.68,36.68,0,0,0-12.69-10.88,36.27,36.27,0,0,0-10.86-3.6,36.78,36.78,0,0,0-5.93-.48c.13,0,.26,2.32.36,6.3"/></g></g></g><g class="cls-2"><g class="cls-48"><g class="cls-2"><path class="cls-4" d="M204.49,149a36.8,36.8,0,0,0,.48,5.93,36.37,36.37,0,0,0,6.57,15.65,36.67,36.67,0,0,0,12.69,10.88,36.28,36.28,0,0,0,10.86,3.6,36.8,36.8,0,0,0,5.93.48c.35,0,.64-16.35.64-36.53s-.29-36.53-.64-36.53a36.78,36.78,0,0,0-5.93.48,36.37,36.37,0,0,0-15.65,6.57,36.68,36.68,0,0,0-10.88,12.7,36.27,36.27,0,0,0-3.6,10.86,36.78,36.78,0,0,0-.48,5.92"/><path class="cls-4" d="M235.09,113a36.37,36.37,0,0,0-15.65,6.57,36.68,36.68,0,0,0-10.88,12.7,36.27,36.27,0,0,0-3.6,10.86,37,37,0,0,0,0,11.85,36.37,36.37,0,0,0,6.57,15.65,36.67,36.67,0,0,0,12.69,10.88,36.28,36.28,0,0,0,10.86,3.6,36.8,36.8,0,0,0,5.93.48c.29,0,.53-10.86.61-25.8h0c-7.68,12.9-17.57,2.88-18.8-.48-2.55-7,4.17-15.81,13.65-11.13,0,0,3.24,1.64,5.16,6.61,0-1.87,0-3.79,0-5.74,0-20.17-.29-36.53-.64-36.53a36.78,36.78,0,0,0-5.93.48"/><path class="cls-5" d="M235.09,113a36.37,36.37,0,0,0-15.65,6.57,36.68,36.68,0,0,0-10.88,12.7,36.27,36.27,0,0,0-3.6,10.86,37,37,0,0,0,0,11.85,36.37,36.37,0,0,0,6.57,15.65,36.67,36.67,0,0,0,12.69,10.88,36.28,36.28,0,0,0,10.86,3.6,36.8,36.8,0,0,0,5.93.48c.28,0,.52-10.22.6-24.47h0c-6.6,11-17.76,3.53-19.63-1.8-2.48-7.09,4.88-16.37,14.49-11.69.52.25,4.39,3.63,5.17,5.63q0-2.07,0-4.2c0-20.17-.29-36.53-.64-36.53a36.78,36.78,0,0,0-5.93.48"/><path class="cls-6" d="M235.09,113a36.37,36.37,0,0,0-15.65,6.57,36.68,36.68,0,0,0-10.88,12.7,36.27,36.27,0,0,0-3.6,10.86,37,37,0,0,0,0,11.85,36.37,36.37,0,0,0,6.57,15.65,36.67,36.67,0,0,0,12.69,10.88,36.28,36.28,0,0,0,10.86,3.6,36.8,36.8,0,0,0,5.93.48c.27,0,.5-9.6.59-23.17h0c-14.42,13.67-21-3.49-20.9-6.42.36-8.38,10.9-13.9,18.13-7.14.94.88,2,2.25,2.82,3.22q0-1.5,0-3c0-20.17-.29-36.53-.64-36.53a36.78,36.78,0,0,0-5.93.48"/><path class="cls-7" d="M235.09,113a36.37,36.37,0,0,0-15.65,6.57,36.68,36.68,0,0,0-10.88,12.7,36.27,36.27,0,0,0-3.6,10.86,37,37,0,0,0,0,11.85,36.37,36.37,0,0,0,6.57,15.65,36.67,36.67,0,0,0,12.69,10.88,36.28,36.28,0,0,0,10.86,3.6,36.8,36.8,0,0,0,5.93.48c.26,0,.49-9.11.59-22.12h0c-12.29,11.47-21.91-.63-21.63-7.46.35-8.42,11.2-15.18,19.87-6.94.61.58,1.27,1.5,1.81,2.14q0-1.06,0-2.14c0-20.17-.29-36.53-.64-36.53a36.78,36.78,0,0,0-5.93.48"/><path class="cls-8" d="M235.09,113a36.37,36.37,0,0,0-15.65,6.57,36.68,36.68,0,0,0-10.88,12.7,36.27,36.27,0,0,0-3.6,10.86,37,37,0,0,0,0,11.85,36.37,36.37,0,0,0,6.57,15.65,36.67,36.67,0,0,0,12.69,10.88,36.28,36.28,0,0,0,10.86,3.6,36.8,36.8,0,0,0,5.93.48c.26,0,.48-8.64.58-21.11h0c-10.58,9.78-22.73,1.51-22.35-8.48.35-9.12,11.78-16,21.35-6.94.36.34.74.88,1.06,1.25q0-.62,0-1.25c0-20.17-.29-36.53-.64-36.53a36.78,36.78,0,0,0-5.93.48"/><path class="cls-9" d="M235.09,113a36.37,36.37,0,0,0-15.65,6.57,36.68,36.68,0,0,0-10.88,12.7,36.27,36.27,0,0,0-3.6,10.86,37,37,0,0,0,0,11.85,36.37,36.37,0,0,0,6.57,15.65,36.67,36.67,0,0,0,12.69,10.88,36.28,36.28,0,0,0,10.86,3.6,36.8,36.8,0,0,0,5.93.48c.25,0,.46-8.18.57-20.11h0c-17,12.53-23.77-4.92-23.24-9.48,1.49-13,15.95-15.3,23.31-6.58,0-20.53-.29-36.89-.64-36.89a36.78,36.78,0,0,0-5.93.48"/><path class="cls-10" d="M235.09,113a36.37,36.37,0,0,0-15.65,6.57,36.68,36.68,0,0,0-10.88,12.7,36.27,36.27,0,0,0-3.6,10.86,37,37,0,0,0,0,11.85,36.37,36.37,0,0,0,6.57,15.65,36.67,36.67,0,0,0,12.69,10.88,36.28,36.28,0,0,0,10.86,3.6,36.8,36.8,0,0,0,5.93.48c.24,0,.45-7.65.56-18.95h0c-16.09,11.83-25.26-3.31-24.42-10.64.6-5.18,8.25-20.22,24.49-7.45,0-19.93-.29-36-.64-36a36.78,36.78,0,0,0-5.93.48"/><path class="cls-11" d="M235.09,113a36.37,36.37,0,0,0-15.65,6.57,36.68,36.68,0,0,0-10.88,12.7,36.27,36.27,0,0,0-3.6,10.86,37,37,0,0,0,0,11.85,36.37,36.37,0,0,0,6.57,15.65,36.67,36.67,0,0,0,12.69,10.88,36.28,36.28,0,0,0,10.86,3.6,36.8,36.8,0,0,0,5.93.48c.23,0,.44-7.14.55-17.8h0C224.63,180,215.2,163.87,216,155.95c.63-6.1,9.86-20.62,25.63-8.3,0-19.54-.29-35.17-.64-35.17a36.78,36.78,0,0,0-5.93.48"/><path class="cls-12" d="M235.09,113a36.37,36.37,0,0,0-15.65,6.57,36.68,36.68,0,0,0-10.88,12.7,36.27,36.27,0,0,0-3.6,10.86,37,37,0,0,0,0,11.85,36.37,36.37,0,0,0,6.57,15.65,36.67,36.67,0,0,0,12.69,10.88,36.28,36.28,0,0,0,10.86,3.6,36.8,36.8,0,0,0,5.93.48c.22,0,.42-6.56.53-16.49h0c-18.13,12.59-27.74-4.73-26.7-13.09,1.19-9.61,13-19.86,26.8-9.15,0-19.14-.3-34.33-.64-34.33a36.78,36.78,0,0,0-5.93.48"/><path class="cls-13" d="M235.09,113a36.37,36.37,0,0,0-15.65,6.57,36.68,36.68,0,0,0-10.88,12.7,36.27,36.27,0,0,0-3.6,10.86,37,37,0,0,0,0,11.85,36.37,36.37,0,0,0,6.57,15.65,36.67,36.67,0,0,0,12.69,10.88,36.28,36.28,0,0,0,10.86,3.6,36.8,36.8,0,0,0,5.93.48c.21,0,.4-5.9.51-15h0c-18.44,12.62-28.95-6-28-14.6,1.14-10,13.78-21.06,28.09-10,0-18.75-.3-33.49-.64-33.49a36.78,36.78,0,0,0-5.93.48"/><path class="cls-14" d="M235.09,113a36.37,36.37,0,0,0-15.65,6.57,36.68,36.68,0,0,0-10.88,12.7,36.27,36.27,0,0,0-3.6,10.86,37,37,0,0,0,0,11.85,36.37,36.37,0,0,0,6.57,15.65,36.67,36.67,0,0,0,12.69,10.88,36.28,36.28,0,0,0,10.86,3.6,36.8,36.8,0,0,0,5.93.48c.2,0,.38-5.18.49-13.31h0c-17.71,11.64-31.22-6-28.72-18.87,0-.23,6.74-22.05,28.86-8.31,0-18.3-.31-32.56-.63-32.56a36.78,36.78,0,0,0-5.93.48"/><path class="cls-15" d="M235.09,113a36.37,36.37,0,0,0-15.65,6.57,36.68,36.68,0,0,0-10.88,12.7,36.27,36.27,0,0,0-3.6,10.86,37,37,0,0,0,0,11.85,36.37,36.37,0,0,0,6.57,15.65,36.67,36.67,0,0,0,12.69,10.88,36.28,36.28,0,0,0,10.86,3.6,36.8,36.8,0,0,0,5.93.48c.18,0,.35-4.45.47-11.58h0c-20.32,11.23-32.73-10-29.75-21.44.06-.23,7.85-22.09,29.91-8.52,0-17.81-.31-31.53-.63-31.53a36.78,36.78,0,0,0-5.93.48"/><path class="cls-16" d="M235.09,113a36.37,36.37,0,0,0-15.65,6.57,36.68,36.68,0,0,0-10.88,12.7,36.27,36.27,0,0,0-3.6,10.86,37,37,0,0,0,0,11.85,36.37,36.37,0,0,0,6.57,15.65,36.67,36.67,0,0,0,12.69,10.88,36.28,36.28,0,0,0,10.86,3.6,36.8,36.8,0,0,0,5.93.48c.17,0,.32-3.76.44-9.9h0c-17.83,9.68-35.24-8.76-30.07-25.65,1.69-5.52,12.42-18,30.26-7-.05-17.31-.31-30.51-.63-30.51a36.78,36.78,0,0,0-5.93.48"/><path class="cls-17" d="M235.09,113a36.37,36.37,0,0,0-15.65,6.57,36.68,36.68,0,0,0-10.88,12.7,36.27,36.27,0,0,0-3.6,10.86,37,37,0,0,0,0,11.85,36.37,36.37,0,0,0,6.57,15.65,36.67,36.67,0,0,0,12.69,10.88,36.28,36.28,0,0,0,10.86,3.6,36.8,36.8,0,0,0,5.93.48c.15,0,.3-3.16.41-8.42h0C220.87,185.94,205,164,210.6,149c.08-.2,7.81-20.16,31-7.07-.06-16.79-.32-29.47-.63-29.47a36.78,36.78,0,0,0-5.93.48"/><path class="cls-18" d="M235.09,113a36.37,36.37,0,0,0-15.65,6.57,36.68,36.68,0,0,0-10.88,12.7,36.27,36.27,0,0,0-3.6,10.86,37,37,0,0,0,0,11.85,36.37,36.37,0,0,0,6.57,15.65,36.67,36.67,0,0,0,12.69,10.88,36.28,36.28,0,0,0,10.86,3.6,36.8,36.8,0,0,0,5.93.48c.14,0,.27-2.64.38-7.1h0c-23.5,8.11-38.67-17.48-30.33-32.95,1.49-2.75,9.94-15.93,30.57-4.88-.07-16.12-.32-28.13-.62-28.13a36.78,36.78,0,0,0-5.93.48"/><path class="cls-19" d="M235.09,113a36.37,36.37,0,0,0-15.65,6.57,36.68,36.68,0,0,0-10.88,12.7,36.27,36.27,0,0,0-3.6,10.86,37,37,0,0,0,0,11.85,36.37,36.37,0,0,0,6.57,15.65,36.67,36.67,0,0,0,12.69,10.88,36.28,36.28,0,0,0,10.86,3.6,36.8,36.8,0,0,0,5.93.48c.13,0,.25-2.19.35-5.95h0c-22.9,7.42-39-18.8-31.41-34.1.93-1.87,9.7-17.91,31.68-6.2-.07-15.46-.32-26.81-.61-26.81a36.78,36.78,0,0,0-5.93.48"/><path class="cls-20" d="M235.09,113a36.37,36.37,0,0,0-15.65,6.57,36.68,36.68,0,0,0-10.88,12.7,36.27,36.27,0,0,0-3.6,10.86,37,37,0,0,0,0,11.85,36.37,36.37,0,0,0,6.57,15.65,36.67,36.67,0,0,0,12.69,10.88,36.28,36.28,0,0,0,10.86,3.6,36.8,36.8,0,0,0,5.93.48,28,28,0,0,0,.32-4.93h0c-23.9,6.17-41.28-20.15-31-37.78,2.76-4.72,11.34-14.66,31.25-5-.08-14.7-.32-25.35-.61-25.35a36.78,36.78,0,0,0-5.93.48"/><path class="cls-21" d="M235.09,113a36.37,36.37,0,0,0-15.65,6.57,36.68,36.68,0,0,0-10.88,12.7,36.27,36.27,0,0,0-3.6,10.86,37,37,0,0,0,0,11.85,36.37,36.37,0,0,0,6.57,15.65,36.67,36.67,0,0,0,12.69,10.88,36.28,36.28,0,0,0,10.86,3.6,36.8,36.8,0,0,0,5.93.48,20.59,20.59,0,0,0,.29-4h0c-25.78,6.18-41.35-24.44-31.58-39.46,3.91-6,13.25-14.76,31.89-5.8-.09-13.89-.32-23.79-.6-23.79a36.78,36.78,0,0,0-5.93.48"/><path class="cls-22" d="M235.09,113a36.37,36.37,0,0,0-15.65,6.57,36.68,36.68,0,0,0-10.88,12.7,36.27,36.27,0,0,0-3.6,10.86,37,37,0,0,0,0,11.85,36.37,36.37,0,0,0,6.57,15.65,36.67,36.67,0,0,0,12.69,10.88,36.28,36.28,0,0,0,10.86,3.6,36.8,36.8,0,0,0,5.93.48,14.74,14.74,0,0,0,.26-3.2h0c-25.39,4.88-43.09-24.6-31.34-42.21,4.54-6.8,13.71-13.28,31.67-5.47-.1-13-.32-22.18-.59-22.18a36.78,36.78,0,0,0-5.93.48"/><path class="cls-23" d="M235.09,113a36.37,36.37,0,0,0-15.65,6.57,36.68,36.68,0,0,0-10.88,12.7,36.27,36.27,0,0,0-3.6,10.86,37,37,0,0,0,0,11.85,36.37,36.37,0,0,0,6.57,15.65,36.67,36.67,0,0,0,12.69,10.88,36.28,36.28,0,0,0,10.86,3.6,36.8,36.8,0,0,0,5.93.48,10.1,10.1,0,0,0,.23-2.48h0c-26.35,4.35-43.67-26.1-31.4-44.3,3-4.51,12.22-14.09,31.74-5.74-.1-12.16-.32-20.54-.57-20.54a36.78,36.78,0,0,0-5.93.48"/><path class="cls-24" d="M235.09,113a36.37,36.37,0,0,0-15.65,6.57,36.68,36.68,0,0,0-10.88,12.7,36.27,36.27,0,0,0-3.6,10.86,37,37,0,0,0,0,11.85,36.37,36.37,0,0,0,6.57,15.65,36.67,36.67,0,0,0,12.69,10.88,36.28,36.28,0,0,0,10.86,3.6,36.8,36.8,0,0,0,5.93.48,6.53,6.53,0,0,0,.2-1.85h0c-27.45,3.8-44.56-28.7-30.92-46.88,6.75-9,17.27-10.83,31.28-5.46-.11-11.26-.32-18.88-.56-18.88a36.78,36.78,0,0,0-5.93.48"/><path class="cls-25" d="M235.09,113a36.37,36.37,0,0,0-15.65,6.57,36.68,36.68,0,0,0-10.88,12.7,36.27,36.27,0,0,0-3.6,10.86,37,37,0,0,0,0,11.85,36.37,36.37,0,0,0,6.57,15.65,36.67,36.67,0,0,0,12.69,10.88,36.28,36.28,0,0,0,10.86,3.6,36.8,36.8,0,0,0,5.93.48,3.88,3.88,0,0,0,.17-1.29h0c-28,3.3-45.36-30.77-31-48.68,7.23-9,17.77-11,31.33-5.84-.11-10.35-.31-17.25-.54-17.25a36.78,36.78,0,0,0-5.93.48"/><path class="cls-26" d="M219.44,178.49a36.41,36.41,0,0,0,21.58,7s.09-.28.14-.83h0c-8.11.75-15.74-1.59-22.68-7l1,.74"/><path class="cls-26" d="M235.09,113a36.37,36.37,0,0,0-15.65,6.57,36.68,36.68,0,0,0-10.88,12.7,36.27,36.27,0,0,0-3.6,10.86,37,37,0,0,0,0,11.85,36.27,36.27,0,0,0,3.46,10.58h0c-10.9-23.78,4.39-47.17,33.12-37.47-.12-9.41-.31-15.57-.52-15.57a36.78,36.78,0,0,0-5.93.48"/><path class="cls-27" d="M229.47,183.67a36.29,36.29,0,0,0,5.62,1.38,36.8,36.8,0,0,0,5.93.48s.07-.15.1-.44h0a31.27,31.27,0,0,1-14.78-2.63q1.53.67,3.14,1.21"/><path class="cls-27" d="M235.09,113a36.37,36.37,0,0,0-15.65,6.57,36.68,36.68,0,0,0-10.88,12.7,36.27,36.27,0,0,0-3.6,10.86,37,37,0,0,0,0,11.85q.16,1,.37,2h0c-3.78-18.43,8.44-39.47,36.18-30.51-.12-8.46-.3-13.9-.5-13.9a36.78,36.78,0,0,0-5.93.48"/><path class="cls-28" d="M235.09,185.06a36.8,36.8,0,0,0,5.93.48s0-.06.06-.17h0a29.24,29.24,0,0,1-8.63-.84q1.31.31,2.65.53"/><path class="cls-28" d="M235.09,113a36.37,36.37,0,0,0-15.65,6.57,36.68,36.68,0,0,0-10.88,12.7,36.27,36.27,0,0,0-3.6,10.86,36.78,36.78,0,0,0-.48,5.92q0,.69,0,1.37h0c-.25-15.35,11.07-33.48,37-25.7-.12-7.48-.29-12.2-.48-12.2a36.78,36.78,0,0,0-5.93.48"/><path class="cls-29" d="M241,185.53h0s-.91,0-2.16-.06q1.07.06,2.15.06"/><path class="cls-29" d="M235.09,113a36.37,36.37,0,0,0-15.65,6.57,36.68,36.68,0,0,0-10.88,12.7,36.27,36.27,0,0,0-3.6,10.86q-.1.63-.18,1.27h0c2.3-13.83,13.29-27.75,36.68-21.49-.11-6.43-.27-10.39-.45-10.39a36.78,36.78,0,0,0-5.93.48"/><path class="cls-30" d="M235.09,113a36.37,36.37,0,0,0-15.65,6.57,36.68,36.68,0,0,0-10.88,12.7,36.31,36.31,0,0,0-2.21,5.24q-.16.47-.3.94h0c5.33-15.12,18.56-21.64,35.38-17.45-.11-5.29-.25-8.48-.41-8.48a36.78,36.78,0,0,0-5.93.48"/><path class="cls-31" d="M235.09,113a36.37,36.37,0,0,0-15.65,6.57,36.69,36.69,0,0,0-10.7,12.36h0c4-6.73,13.48-17.38,32.64-13.11-.1-4-.23-6.3-.36-6.3a36.78,36.78,0,0,0-5.93.48"/><path class="cls-33" d="M223.54,159.26c1.09,2.7,2.11,3.41,4.59,5.12a8.64,8.64,0,0,0,4.4,1.09,8.35,8.35,0,0,0,4.37-1,11.53,11.53,0,0,0,4.33-5.21c1.44-4.27-1.93-8.5-4.75-10.56a9.36,9.36,0,0,0-5-1.38,12.19,12.19,0,0,0-4.71,1.4c-.89.44-5.57,4.85-3.28,10.54"/><path class="cls-34" d="M224.16,159.26a11.3,11.3,0,0,0,3.83,4.35,8.93,8.93,0,0,0,4.47,1.31,8.6,8.6,0,0,0,4.41-1.07,12.23,12.23,0,0,0,3.75-4.59c1.21-3.34-.26-6.88-4.14-10-.1-.08-4.78-1.46-5-1.46a11,11,0,0,0-3.79,1.17,8.07,8.07,0,0,0-3.57,10.26"/><path class="cls-35" d="M224.8,159.26a21.63,21.63,0,0,0,3.08,3.58,9.27,9.27,0,0,0,4.53,1.53,8.9,8.9,0,0,0,4.44-1.14c1.48-1,3.16-3.95,3.17-4,1.68-4.32-1.7-7.59-3.52-9.35-1.12-1.08-3.41-1.37-5-1.57a5.21,5.21,0,0,0-2.14.66c-8,3.09-4.62,10.18-4.58,10.26"/><path class="cls-36" d="M225.43,159.26a8,8,0,0,0,2.31,2.74,23.85,23.85,0,0,0,4.59,1.81,9.27,9.27,0,0,0,4.48-1.21c.3-.19,2.58-3.32,2.59-3.35a7.05,7.05,0,0,0,.44-3.31,7.91,7.91,0,0,0-1.44-3.42,7.13,7.13,0,0,0-1.91-2s-4.38-1.93-5.44-1.53c-3.88,1.48-4.7,2-5.53,3.52a7.71,7.71,0,0,0-.08,6.74"/><path class="cls-37" d="M226.08,159.26c1.58,3,6.15,4,6.19,4a39.89,39.89,0,0,0,4.5-1.35,6.19,6.19,0,0,0,2-2.64,7,7,0,0,0,.48-3.31,8.61,8.61,0,0,0-1.47-3.42,4.54,4.54,0,0,0-1.32-1.37c-1.42-.7-3.39-1.82-5-1.73s-3.31,1.51-4.66,2.29a2.23,2.23,0,0,0-.68.8,7,7,0,0,0-.09,6.74"/><path class="cls-38" d="M226.73,159.26c.71,1.33,5.27,3.42,5.48,3.42s4.28-1.38,4.53-1.52a4.28,4.28,0,0,0,1.45-1.91,7,7,0,0,0,.53-3.31,8.82,8.82,0,0,0-1.5-3.42,2.25,2.25,0,0,0-.72-.75c-1.45-.64-3.39-1.87-5-1.76,0,0-4.6,2.35-4.69,2.51a6.43,6.43,0,0,0-.1,6.74"/><path class="cls-39" d="M227.38,159.23A8,8,0,0,0,232.1,162c1.46.14,3.3-1,4.61-1.62a2.58,2.58,0,0,0,.88-1.16,6.59,6.59,0,0,0,.58-3.31,9.43,9.43,0,0,0-1.53-3.42,40.31,40.31,0,0,0-5.1-1.93c-1.24.08-2.67,1.18-3.66,1.93A4.28,4.28,0,0,0,227,154c-.73,1.51-.9,1.87.43,5.19"/><path class="cls-40" d="M227.11,156.44a8.28,8.28,0,0,0,1.31,2.82,7,7,0,0,0,3.67,2.17c1.47.12,3.25-1.16,4.6-1.76.14-.06.23-.28.31-.41a6.52,6.52,0,0,0,.62-3.31,5.25,5.25,0,0,0-1.09-2.42,3.92,3.92,0,0,0-1.26-1c-1.07-.51-2.53-1.43-3.72-1.35a4.25,4.25,0,0,0-2.58,1.35s-2.26,2.8-1.84,3.92"/><path class="cls-41" d="M229.46,159.26a4.69,4.69,0,0,0,2.57,1.52,5,5,0,0,0,3.84-1.52c.76-1,1.87-2.94.68-4.46-.63-.81-3.81-3.14-5-3.06a2.53,2.53,0,0,0-1.5.78c-.81.92-2.15,2.2-2.22,3.42a5.41,5.41,0,0,0,1.62,3.31"/><path class="cls-42" d="M230.51,159.26a2.72,2.72,0,0,0,1.46.86,3.3,3.3,0,0,0,2.15-.86c.88-.83,2.47-2.12,2.3-3.31-.24-1.63-3-2.44-4.3-3.42a1,1,0,0,0-.56-.21c-.64,0-2.79,3.59-2.79,3.63-.07,1.12,1,2.5,1.74,3.31"/><path class="cls-43" d="M231.57,159.26a.64.64,0,0,0,.34.2.68.68,0,0,0,.49-.2c.79-.95,2.6-2.09,2.44-3.31a3.61,3.61,0,0,0-3.26-2.6c-1,.13-1.83,1.64-1.88,2.6-.06,1.14,1.06,2.5,1.86,3.31"/><path class="cls-44" d="M231.81,158c.45-.6,1.59-1.27,1.5-2a1.85,1.85,0,0,0-1.67-1.33c-.49.07-.94.84-1,1.33,0,.69.8,1.41,1.14,2"/><path class="cls-45" d="M231.7,156.06s.09-.07.08-.11a.1.1,0,0,0-.09-.07s-.05,0-.05.07,0,.08.06.11"/></g></g></g><g class="cls-2"><g class="cls-49"><g class="cls-2"><path class="cls-30" d="M241,185.53a36.8,36.8,0,0,1-5.93-.48,36.37,36.37,0,0,1-15.65-6.57,36.67,36.67,0,0,1-10.88-12.69,36.28,36.28,0,0,1-3.6-10.86,37,37,0,0,1,0-11.85,36.37,36.37,0,0,1,6.57-15.65,36.68,36.68,0,0,1,12.69-10.88,36.27,36.27,0,0,1,10.86-3.6,37,37,0,0,1,11.85,0,36.37,36.37,0,0,1,15.65,6.57,36.68,36.68,0,0,1,10.88,12.7,36.27,36.27,0,0,1,3.6,10.86,37,37,0,0,1,0,11.85,36.37,36.37,0,0,1-6.57,15.65,36.67,36.67,0,0,1-12.69,10.88,36.28,36.28,0,0,1-10.86,3.6,36.8,36.8,0,0,1-5.93.48"/><path class="cls-30" d="M275.69,160.55a36.42,36.42,0,0,1-5.19,10,36.67,36.67,0,0,1-12.69,10.88,36.28,36.28,0,0,1-10.86,3.6,37,37,0,0,1-11.85,0,36.37,36.37,0,0,1-15.65-6.57,36.67,36.67,0,0,1-10.88-12.69,36.28,36.28,0,0,1-3.6-10.86,37,37,0,0,1,0-11.85,36.37,36.37,0,0,1,6.57-15.65,36.68,36.68,0,0,1,12.69-10.88,36.27,36.27,0,0,1,10.86-3.6q1.1-.18,2.23-.29h0C210.07,115.6,204,151,227.52,170c18.19,14.74,42.2,9.59,48.46-10.41q-.14.47-.3.94"/><path class="cls-31" d="M270.5,170.58a36.67,36.67,0,0,1-12.69,10.88,36.28,36.28,0,0,1-10.86,3.6,37,37,0,0,1-11.85,0,36.37,36.37,0,0,1-15.65-6.57,36.67,36.67,0,0,1-10.88-12.69,36.28,36.28,0,0,1-3.6-10.86,37,37,0,0,1,0-11.85,36.37,36.37,0,0,1,6.57-15.65,36.68,36.68,0,0,1,12.69-10.88,36.31,36.31,0,0,1,5.24-2.22l.72-.23h0c-28,9.3-25.57,49.24,3.88,62.85,17.56,8.11,33,.69,39.22-10.83a36.55,36.55,0,0,1-2.8,4.45"/><path class="cls-29" d="M246.95,113a36.37,36.37,0,0,1,15.65,6.57,36.68,36.68,0,0,1,10.88,12.7,36.27,36.27,0,0,1,3.6,10.86,36.78,36.78,0,0,1,.48,5.92h0c-.06,1.4-.15,3.26-.29,4.65l-.38,2.29c-7.22,28-41.74,26.18-56.49,3.31-14.14-21.9-1.36-48.11,22.78-46.73a36.63,36.63,0,0,1,3.78.42"/><path class="cls-28" d="M252.57,114.34a36.42,36.42,0,0,1,10,5.19,36.68,36.68,0,0,1,10.88,12.7,36.38,36.38,0,0,1,4.05,15.42h0c.43,26.9-28.28,37.25-49.55,17.86-20.87-19-12.7-51.65,13.25-52.89a31,31,0,0,1,8.36.87q1.52.36,3,.85"/><path class="cls-27" d="M257.81,116.55a36.49,36.49,0,0,1,18.89,24.58h0c5.71,27.85-21.74,41.08-42.36,27.26-23.47-15.73-21.48-49.65,3.23-55,8.5-1.84,15.75,1.16,18.13,2.14q1.07.47,2.11,1"/><path class="cls-26" d="M266.85,123.17a36.65,36.65,0,0,1,6.62,9l.14.28h0c12.64,27.57-10,47.25-33.12,37.45-25.26-10.7-29.31-45.6-6.37-54.92,9.31-3.78,20.31-1.83,29.44,5.23a36.74,36.74,0,0,1,3.29,2.92"/><path class="cls-25" d="M272,129.62c13.75,22.87-3,47.71-27.21,40.27-25.4-7.81-33-41.73-12-53.38,14.08-7.8,31.66.48,39.25,13.1"/><path class="cls-24" d="M273.43,132.51c10.38,22-6.41,43.09-28.51,35.87-24.74-8.08-31.4-41.61-10.32-52C249.53,109,267,119,273.43,132.51"/><path class="cls-23" d="M273.21,132.51C284,155.7,265,173.8,245,166.91c-24.07-8.27-29.64-39.79-8.89-50.34,12.33-6.27,30.37,1.48,37.13,15.94"/><path class="cls-22" d="M272.91,132.51c9.8,21.17-6.59,40.54-27.84,32.9-23.37-8.4-27.77-40.41-6.73-48.93,12.18-4.93,28.34,2.56,34.57,16"/><path class="cls-21" d="M273.8,135.56c7.28,22.07-13,38-33.38,26.19-19.15-11.08-19-39,.31-45.22,12.67-4.11,28.43,5,33.07,19"/><path class="cls-20" d="M273.35,135.56c6.85,21.2-13.16,36.19-32.93,24.68-18.68-10.87-16.91-38.92,2.74-43.49,13.22-3.08,26.52,7.44,30.19,18.81"/><path class="cls-19" d="M272.82,135.56c6,18.33-9.43,32.77-27.53,25.76-21.28-8.24-21.27-35.5-4.62-42.82,11.93-5.25,27.56,3,32.16,17.06"/><path class="cls-18" d="M272.21,135.56c6.19,19.93-13.44,33.5-31.82,22-15.18-9.5-13.22-33.93,3.13-39,11-3.41,24.91,4.85,28.69,17"/><path class="cls-17" d="M271.53,135.56c5.56,18.15-10.59,29.25-26.15,23.38-17.67-6.67-19.23-31.47-2.46-39,10.36-4.67,24.8,3.23,28.6,15.64"/><path class="cls-16" d="M271.52,138.75C274,157,254,164.83,240.39,155.23s-9.56-32,6.35-35.31c10.93-2.27,23.21,7.05,24.78,18.83"/><path class="cls-15" d="M270.59,138.75c2,16.2-16.08,25.46-30.2,15.49-12.67-8.94-8.44-29.73,6.74-33.19,11.15-2.54,22.22,7.61,23.46,17.71"/><path class="cls-14" d="M269.59,138.75c1.51,13-13.72,25.46-29.2,14.48-10.73-7.61-8.35-27.1,7.1-31,9.72-2.45,20.87,5.88,22.1,16.51"/><path class="cls-13" d="M268.45,138.75c1.57,16.07-17.55,22.84-28.06,13.52-12.9-11.44-1.93-28.82,10.65-29.17,9.34-.26,16.67,8,17.41,15.65"/><path class="cls-12" d="M267.19,138.75c1.39,14.57-15.65,22.62-26.81,12.67s-2-27,11.15-27a16.32,16.32,0,0,1,15.66,14.31"/><path class="cls-11" d="M265.92,138.75c1.58,13-13.67,22.42-25.54,11.8-9.84-8.8-2-25.48,11.6-24.79,4.81.24,12.85,4,13.94,13"/><path class="cls-10" d="M264.88,142.06c-1.59,13.71-17.84,16.29-25.14,6.94-8.18-10.48,1.17-23.15,12.65-21.91,8.28.9,13.23,8.61,12.49,15"/><path class="cls-9" d="M263.69,142.06c-.94,8.21-6.31,10.62-8.57,11.28-3.91,1.13-4.67.9-9.59-.62,0,0-4.84-3.5-5.15-3.92-9.58-12.79,4.24-22.1,12.32-20.59,7.37,1.38,11.64,8.28,11,13.85"/><path class="cls-8" d="M262.79,142.06c-.35,9.16-11.85,16.07-21.47,6.94-7.39-7-2.88-18.77,7.65-20,5-.57,14.19,3.4,13.82,13"/><path class="cls-7" d="M262.07,142.06c-.35,8.46-11.25,15.23-20,6.94-7.76-7.37-2.18-18.53,7-19.13,6.93-.45,13.23,5.47,13,12.19"/><path class="cls-6" d="M260.6,145.49c-1.28,3-2.57,3.89-5.41,5.78a9.42,9.42,0,0,1-4.71,1,10.16,10.16,0,0,1-4.93-1.21c-3.35-2.16-4.85-4.2-5.51-5.52a9.67,9.67,0,0,1,.45-9.92c2.61-2.8,6.2-6.63,12.93-4.4,3.93,1.31,10,7.55,7.19,14.32"/><path class="cls-5" d="M259.76,145.49c-1.27,2.92-2.5,3.74-4.53,5.11a9.45,9.45,0,0,1-4.74,1.12,10.34,10.34,0,0,1-4.94-1.27,17.38,17.38,0,0,1-4.89-5,9.22,9.22,0,0,1,.6-9.92c2.13-2.21,5.68-5.9,12.34-3.51.1,0,9.93,4.76,6.16,13.43"/><path class="cls-4" d="M259.42,143.72c-1.09,5-4.28,7-8.92,7.49a9.08,9.08,0,0,1-4.95-1.32,23.81,23.81,0,0,1-4.29-4.39,8.7,8.7,0,0,1,.76-9.92c.85-.86,1.89-2.35,3.07-2.62s2.94-1,4.25-1c.24,0,4.2.89,4.42,1,4.4,2.08,6.62,6.34,5.65,10.83"/><path class="cls-33" d="M258.45,145.49a29,29,0,0,1-3.23,3.8c-1.23.81-3.26,1.68-4.71,1.4,0,0-4.53-1-5.36-1.69-1.81-1.58-4.07-3.55-4.52-6.94-.71-5.31,4.45-8.49,4.51-8.52a9,9,0,0,1,4.37-1c3.76.59,3.76.59,6.55,2.71s3.86,7.11,2.39,10.23"/><path class="cls-34" d="M257.81,145.49a8.55,8.55,0,0,1-2.59,3.08,30.68,30.68,0,0,1-4.71,1.61c-.56-.12-4.87-1.39-5-1.46-1.85-1.61-4-3.44-4.38-6.65-.46-3.46,2.33-7.15,4-7.9a9.33,9.33,0,0,1,4.41-1.07c1.24.17,4.31.74,6,2.47,4.53,4.62,2.66,9.08,2.24,9.92"/><path class="cls-35" d="M257.17,145.49c-1.88,3.66-6.61,4.19-6.65,4.18-1.52-.34-3.78-.55-5-1.57s-3.43-3-3.83-6a6.64,6.64,0,0,1,.37-3.31s2-3.42,3.1-4a9.58,9.58,0,0,1,4.44-1.14s4.14,1,5,1.92c4.19,4.06,3.67,7.64,2.49,9.92"/><path class="cls-36" d="M256.52,145.49A4.36,4.36,0,0,1,255.2,147s-4.45,2.16-4.68,2.1c-.51-.12-5-1.67-5-1.68a8.67,8.67,0,0,1-3.28-5.41,7,7,0,0,1,.42-3.31s2.33-3.24,2.54-3.35a9.93,9.93,0,0,1,4.48-1.21A27.4,27.4,0,0,1,254.3,136a7.63,7.63,0,0,1,2.23,9.48"/><path class="cls-37" d="M255.87,145.49a2.21,2.21,0,0,1-.68.8c-1.35.78-3.11,2.2-4.66,2.29s-3.55-1-5-1.73a3.08,3.08,0,0,1-1.31-1.37c-.43-1-1.54-2.32-1.41-3.42a13.45,13.45,0,0,1,.47-3.31,6.88,6.88,0,0,1,2-2.64,41.92,41.92,0,0,1,4.5-1.35,4.94,4.94,0,0,1,2.24.8c2.06,1.06,4.88,2.51,4.83,6.5a8.35,8.35,0,0,1-1,3.42"/><path class="cls-38" d="M255.2,145.49c-.09.17-4.65,2.51-4.69,2.51-1.58.11-3.52-1.12-5-1.76a1.69,1.69,0,0,1-.72-.75c-.47-1-1.52-2.31-1.46-3.42.12-2.13.22-4,1.93-5.22,0,0,3.32-1.22,4.53-1.52.2-.05.47.14.66.23,3.75,1.79,5.82,2.77,5.76,6.5a8.23,8.23,0,0,1-1,3.42"/><path class="cls-39" d="M255.09,144a4,4,0,0,1-.92,1.52c-1,.75-2.42,1.85-3.66,1.93a41.32,41.32,0,0,1-5.1-1.93c-.52-1-1.49-2.3-1.5-3.42,0-.35,0-3.43,1.42-4.47a7.81,7.81,0,0,1,4.56-1.65s4.64,2.65,4.76,2.84a4.91,4.91,0,0,1,.43,5.19"/><path class="cls-40" d="M255,142.35c-.47,1.07-1.91,4.33-4.48,4.5-.4,0-4.32-1.27-5-2.36a5.87,5.87,0,0,1-1.07-2.42s.28-3.24.91-3.72a7.9,7.9,0,0,1,4.6-1.76,6.47,6.47,0,0,1,3.67,2.17s1.69,2.86,1.36,3.59"/><path class="cls-41" d="M252,145.49a2.93,2.93,0,0,1-1.5.78,4.27,4.27,0,0,1-2.13-.78,8.38,8.38,0,0,1-2.86-2.28c-.19-.33-.57-.77-.51-1.14.16-1,.36-2.66,1.19-3.31a6.51,6.51,0,0,1,3.84-1.52,4.49,4.49,0,0,1,2.57,1.52c.73.84,1.69,2.21,1.62,3.31s-1.31,2.61-2.22,3.42"/><path class="cls-42" d="M250.88,145.49a.8.8,0,0,1-.4.21,1,1,0,0,1-.56-.21c-1.32-1-4.06-1.79-4.3-3.42-.18-1.2,1.42-2.49,2.3-3.31a3.3,3.3,0,0,1,2.15-.86,2.39,2.39,0,0,1,1.46.86c.68.89,1.82,2.19,1.74,3.31s-1.45,2.6-2.39,3.42"/><path class="cls-43" d="M250.45,144.67a3.62,3.62,0,0,1-3.26-2.6c-.16-1.22,1.65-2.37,2.44-3.31a.68.68,0,0,1,.5-.2c.59,0,2.21,3.48,2.21,3.51-.06,1-.92,2.48-1.88,2.6"/><path class="cls-44" d="M250.41,143.4a1.85,1.85,0,0,1-1.67-1.33c-.1-.75,1-1.41,1.5-2,.34.6,1.18,1.32,1.14,2,0,.49-.48,1.27-1,1.33"/><path class="cls-45" d="M250.35,142.14a.1.1,0,0,1-.09-.08s.06-.08.09-.12.07.08.06.12,0,.07-.05.08"/></g></g></g></g><polyline class="cls-50" points="166.97 1.61 166.97 186.53 278.42 186.53 278.42 1.61"/></g><g id="Text"><text class="cls-51" transform="translate(282.14 154.69)">A</text><text class="cls-51" transform="translate(234.94 201.07)">B</text><text class="cls-51" transform="translate(152.36 87.42)">C</text><text class="cls-52" transform="translate(217.36 226.04)">3<tspan class="cls-53" x="6.67" y="0">r</tspan></text></g><g id="Arrows"><line class="cls-54" x1="174.03" y1="211.14" x2="271.36" y2="211.14"/><polygon class="cls-55" points="166.97 211.14 176.92 215.21 174.56 211.14 176.92 207.08 166.97 211.14"/><polygon class="cls-55" points="278.42 211.14 268.47 215.21 270.83 211.14 268.47 207.08 278.42 211.14"/></g></svg>