<svg xmlns="http://www.w3.org/2000/svg" viewBox="0 0 446.46 307.33"><defs><style>.cls-1,.cls-9{fill:none;stroke-width:1.5px;}.cls-1,.cls-3{stroke:#e5483f;}.cls-1,.cls-3,.cls-9{stroke-miterlimit:10;}.cls-2,.cls-7{fill:#e5483f;}.cls-3{fill:#fff;stroke-width:2px;}.cls-4,.cls-5,.cls-7{font-size:10px;font-family:Helvetica, Helvetica;}.cls-4{fill:#231f20;}.cls-10,.cls-5{fill:#2e4e79;}.cls-6{letter-spacing:-0.02em;}.cls-8{letter-spacing:-0.05em;}.cls-9{stroke:#2e4e79;}</style></defs><title>mechanicsproblems</title><g id="Arrows-Background"><g id="mechanicsproblem"><line class="cls-1" x1="206.21" y1="159.22" x2="249.49" y2="159.22"/><polygon class="cls-2" points="254.79 159.22 247.32 162.27 249.1 159.22 247.32 156.17 254.79 159.22"/><line class="cls-1" x1="161.92" y1="159.22" x2="206.21" y2="159.22"/><polygon class="cls-2" points="156.63 159.22 164.09 162.27 162.32 159.22 164.09 156.17 156.63 159.22"/><line class="cls-1" x1="129.5" y1="237.17" x2="206.21" y2="159.22"/><polygon class="cls-2" points="125.78 240.94 133.19 237.76 129.78 236.88 128.85 233.48 125.78 240.94"/><line class="cls-1" x1="206.21" y1="159.22" x2="243.21" y2="223.97"/><polygon class="cls-2" points="245.83 228.57 239.48 223.6 243.01 223.63 244.78 220.58 245.83 228.57"/><line class="cls-1" x1="206.21" y1="159.22" x2="214.83" y2="124.73"/><polygon class="cls-2" points="216.11 119.59 217.26 127.57 214.73 125.12 211.35 126.09 216.11 119.59"/><line class="cls-1" x1="131.69" y1="121.96" x2="206.21" y2="159.22"/><polygon class="cls-2" points="126.95 119.59 132.26 125.66 132.04 122.14 134.99 120.21 126.95 119.59"/><line class="cls-1" x1="216.28" y1="99.78" x2="197.72" y2="33.27"/><polygon class="cls-2" points="196.3 28.17 201.24 34.54 197.83 33.65 195.37 36.18 196.3 28.17"/><line class="cls-1" x1="221.07" y1="20.53" x2="231.73" y2="10.29"/><polygon class="cls-2" points="235.54 6.62 232.28 13.99 231.44 10.56 228.05 9.59 235.54 6.62"/><line class="cls-1" x1="221.07" y1="20.53" x2="231.73" y2="30.77"/><polygon class="cls-2" points="235.54 34.43 228.05 31.46 231.44 30.49 232.27 27.07 235.54 34.43"/></g></g><g id="Graphics"><ellipse id="mechanicsproblem-2" data-name="mechanicsproblem" class="cls-3" cx="206.21" cy="159.22" rx="29.72" ry="19.81"/></g><g id="Text"><g id="mechanicsproblem-3" data-name="mechanicsproblem"><text class="cls-4" transform="translate(100.97 112.15)">statics</text><text class="cls-4" transform="translate(169.06 112.15)">constant linear motion</text><text class="cls-4" transform="translate(263.41 161.68)">constant rotational motion</text><text class="cls-4" transform="translate(37.66 161.68)">accelerated linear motion</text><text class="cls-4" transform="translate(184.61 240.94)">accelerated rotational motion</text><text class="cls-4" transform="translate(90.23 252.85)">oscillations</text><text class="cls-4" transform="translate(176.01 22.99)">collisions</text><text class="cls-4" transform="translate(240.02 8.18)">inelastic</text><text class="cls-4" transform="translate(243.32 39.8)">elastic</text><text class="cls-5" transform="translate(296.3 9.18)">conservation of momentum</text><text class="cls-5" transform="translate(296.3 30.74)">conservation of momentum<tspan x="51.96" y="10">and</tspan><tspan x="-9.17" y="20">conservation of (kinetic) energy</tspan></text><text class="cls-5" transform="translate(46.21 64.62)">forces and torques sum to zero</text><text class="cls-5" transform="translate(315.48 108.12)">forces sum to zero<tspan x="-19.18" y="10">conservation of momentum</tspan></text><text class="cls-5" transform="translate(286.99 197.28)">torques sum to zero<tspan x="-34.19" y="10">conservation of angular momentum</tspan></text><text class="cls-5" transform="translate(23.54 196.21)">Newton<tspan class="cls-6" x="33.91" y="0">’</tspan><tspan x="35.95" y="0">s second law</tspan><tspan x="-3.71" y="10">conservation of energy</tspan><tspan x="5.74" y="20">equation of motion</tspan></text><text class="cls-5" transform="translate(156.42 285.44)">rotational version of Newton<tspan class="cls-6" x="123.96" y="0">’</tspan><tspan x="126" y="0">s second law</tspan><tspan x="41.32" y="10">conservation of energy</tspan><tspan x="50.76" y="20">equation of motion</tspan></text><text class="cls-7" transform="translate(202.68 154.65)"><tspan class="cls-8">A</tspan><tspan x="-21.39" y="11">PROBLEM</tspan></text></g></g><g id="Arrows"><g id="mechanicsproblem-4" data-name="mechanicsproblem"><line class="cls-9" x1="271.6" y1="109.69" x2="287.82" y2="109.69"/><polygon class="cls-10" points="293.11 109.69 285.65 112.74 287.42 109.69 285.65 106.64 293.11 109.69"/><line class="cls-9" x1="279.21" y1="5.71" x2="287.82" y2="5.71"/><polygon class="cls-10" points="293.11 5.71 285.65 8.76 287.42 5.71 285.65 2.67 293.11 5.71"/><line class="cls-9" x1="115.14" y1="99.78" x2="115.14" y2="75.36"/><polygon class="cls-10" points="115.14 70.06 118.19 77.52 115.14 75.75 112.09 77.52 115.14 70.06"/><line class="cls-9" x1="248.32" y1="267.86" x2="248.32" y2="248.38"/><polygon class="cls-10" points="248.32 273.15 251.37 265.69 248.32 267.46 245.28 265.69 248.32 273.15"/><line class="cls-9" x1="325.65" y1="181.95" x2="318.3" y2="167.15"/><polygon class="cls-10" points="328.01 186.69 327.42 178.66 325.48 181.6 321.96 181.37 328.01 186.69"/><line class="cls-9" x1="80.71" y1="180.56" x2="91.73" y2="167.33"/><polygon class="cls-10" points="77.32 184.63 84.44 180.85 80.97 180.26 79.76 176.95 77.32 184.63"/><line class="cls-9" x1="81.53" y1="223.87" x2="103.14" y2="240.46"/><polygon class="cls-10" points="77.32 220.64 81.39 227.61 81.84 224.11 85.1 222.77 77.32 220.64"/><line class="cls-9" x1="279.21" y1="37.33" x2="287.82" y2="37.33"/><polygon class="cls-10" points="293.11 37.33 285.65 40.38 287.42 37.33 285.65 34.28 293.11 37.33"/></g></g></svg>