<svg xmlns="http://www.w3.org/2000/svg" viewBox="0 0 446.46 307.33"><defs><style>.cls-1{fill:#c89341;stroke:#6f4f2b;}.cls-1,.cls-10,.cls-11,.cls-12,.cls-13{stroke-miterlimit:10;}.cls-1,.cls-10,.cls-12,.cls-13{stroke-width:2px;}.cls-2{fill:#3e7cb9;}.cls-3{fill:#365a50;}.cls-4{fill:#e5483f;}.cls-5,.cls-6,.cls-8,.cls-9{fill:#231f20;}.cls-6,.cls-8,.cls-9{font-size:12.09px;}.cls-6{font-family:Helvetica-Oblique, Helvetica;}.cls-7,.cls-8,.cls-9{font-family:Helvetica, Helvetica;}.cls-7{letter-spacing:0em;}.cls-9{letter-spacing:0em;}.cls-10,.cls-11,.cls-12,.cls-13{fill:none;}.cls-10,.cls-11,.cls-13{stroke:#231f20;}.cls-12{stroke:#e5483f;}.cls-13{stroke-dasharray:5 5;}</style></defs><title>merrygoround</title><g id="Graphics"><path class="cls-1" d="M309.43,130.08A87.58,87.58,0,1,1,221.85,42.5a87.58,87.58,0,0,1,87.58,87.58"/><path class="cls-2" d="M295,94a10.3,10.3,0,1,1-10.3-10.3A10.3,10.3,0,0,1,295,94"/><path class="cls-3" d="M169.3,94A10.3,10.3,0,1,1,159,83.72,10.3,10.3,0,0,1,169.3,94"/><path class="cls-4" d="M303.54,258.88a10.3,10.3,0,1,1-10.3-10.3,10.3,10.3,0,0,1,10.3,10.3"/><path class="cls-5" d="M227,130.08a5.15,5.15,0,1,1-5.15-5.15,5.15,5.15,0,0,1,5.15,5.15"/></g><g id="Text"><g id="merrygoround"><text class="cls-6" transform="translate(257.54 231.11)">θ <tspan class="cls-7" x="10.75" y="0">= 30°</tspan></text><text class="cls-6" transform="translate(216.7 15.19)">ω</text><text class="cls-8" transform="translate(225.86 19.22) scale(0.58)">0</text><text class="cls-6" transform="translate(304.96 94.02)">m</text><text class="cls-8" transform="translate(315.03 98.04) scale(0.58)">1</text><text class="cls-6" transform="translate(122.42 94.02)">m</text><text class="cls-8" transform="translate(132.49 98.04) scale(0.58)">2</text><text class="cls-6" transform="translate(306.85 264.03)">m</text><text class="cls-8" transform="translate(316.92 268.05) scale(0.58)">3</text><text class="cls-6" transform="translate(215.32 230.54)">v</text><text class="cls-9" transform="translate(221.37 234.57) scale(0.58)">0</text></g></g><g id="Arrows"><g id="merrygoround-2" data-name="merrygoround"><path class="cls-10" d="M146.52,54.75a106.53,106.53,0,0,1,145.18-5.1"/><polygon class="cls-5" points="296.88 54.46 286.79 50.74 291.28 49.34 292.28 44.74 296.88 54.46"/><path class="cls-11" d="M252.43,217.66c.81,5.28,0,10.44-5.53,14.46"/><line class="cls-12" x1="227.96" y1="221.19" x2="293.23" y2="258.88"/><polygon class="cls-4" points="221.85 217.66 228.43 226.16 228.42 221.46 232.5 219.12 221.85 217.66"/><line class="cls-13" x1="221.85" y1="217.66" x2="309.43" y2="217.66"/></g></g></svg>