<svg xmlns="http://www.w3.org/2000/svg" viewBox="0 0 446.46 110.05"><defs><style>.cls-1{fill:#c89341;}.cls-2,.cls-3,.cls-4,.cls-6,.cls-7{fill:none;}.cls-2{stroke:#6f4f2b;}.cls-2,.cls-3,.cls-7{stroke-miterlimit:10;}.cls-2,.cls-6,.cls-7{stroke-width:2px;}.cls-3,.cls-7{stroke:#3e7cb9;}.cls-3,.cls-4{stroke-width:1.5px;}.cls-4,.cls-6{stroke:#231f20;stroke-linejoin:round;}.cls-5{fill:#231f20;}.cls-8{fill:#3e7cb9;}</style></defs><title>mountedcylinder</title><g id="Graphics"><polygon class="cls-1" points="379.13 73.37 379.13 110.05 67.32 110.05 67.32 0 104.01 0 104.01 73.37 379.13 73.37"/><polyline class="cls-2" points="379.13 73.37 104.01 73.37 104.01 0"/><circle class="cls-3" cx="250.74" cy="54.11" r="18.34"/><polyline class="cls-4" points="250.74 54.11 214.06 54.11 210.62 66.94 203.74 41.27 196.86 66.94 189.98 41.27 183.11 66.94 176.23 41.27 169.35 66.94 162.47 41.27 159.03 54.11 155.59 66.94 148.72 41.27 141.84 66.94 134.96 41.27 128.08 66.94 121.2 41.27 114.32 66.94 107.45 41.27 104.01 54.11"/><circle class="cls-5" cx="250.74" cy="54.11" r="3.67"/></g><g id="Arrows"><g id="mountedcylinder"><line class="cls-6" x1="170.31" y1="27.51" x2="147.75" y2="27.51"/><polygon class="cls-5" points="177.37 27.51 167.43 23.45 169.79 27.51 167.43 31.58 177.37 27.51"/><polygon class="cls-5" points="140.69 27.51 150.64 23.45 148.28 27.51 150.64 31.58 140.69 27.51"/><path class="cls-7" d="M237.45,30.84a22.94,22.94,0,0,1,26.58,0"/><polygon class="cls-8" points="232.4 35.77 242.44 31.92 237.93 30.57 236.87 25.99 232.4 35.77"/><polygon class="cls-8" points="269.1 35.78 259.06 31.93 263.57 30.58 264.63 26 269.1 35.78"/></g></g></svg>