<svg xmlns="http://www.w3.org/2000/svg" viewBox="0 0 446.46 146.67"><defs><style>.cls-1,.cls-3,.cls-7,.cls-8,.cls-9{fill:none;}.cls-1,.cls-7,.cls-8,.cls-9{stroke:#231f20;}.cls-1{stroke-linecap:round;}.cls-1,.cls-4,.cls-7,.cls-8{stroke-linejoin:round;}.cls-1,.cls-3{stroke-width:2px;}.cls-2{fill:#c89341;}.cls-3,.cls-4{stroke:#6f4f2b;}.cls-3,.cls-9{stroke-miterlimit:10;}.cls-4{fill:#6f4f2b;}.cls-5,.cls-6{font-size:12px;}.cls-10,.cls-5,.cls-6{fill:#231f20;}.cls-5{font-family:Helvetica-Oblique, Helvetica;}.cls-6{font-family:Helvetica, Helvetica;}.cls-7{stroke-dasharray:2 2;}</style></defs><title>nonuniformbar</title><g id="Graphics"><path class="cls-1" d="M316.77,78,348,31.27M129.69,78,114.09,31.27"/><rect class="cls-2" x="67.42" y="0.09" width="311.72" height="31.18"/><line class="cls-3" x1="379.13" y1="31.27" x2="67.32" y2="31.27"/><polyline class="cls-4" points="316.77 93.64 129.69 78.04 316.77 78.04 316.77 93.64"/></g><g id="Text"><text class="cls-5" transform="translate(333.21 70.14)">θ</text><text class="cls-6" transform="translate(340.55 74.13) scale(0.58)">1</text><text class="cls-5" transform="translate(100.06 70.14)">θ</text><text class="cls-6" transform="translate(107.41 74.13) scale(0.58)">2</text><text class="cls-5" transform="translate(219.36 139.03)">L</text><text class="cls-5" transform="translate(286.49 107.67)">x</text></g><g id="Arrows"><line class="cls-7" x1="316.77" y1="78.04" x2="346.39" y2="78.04"/><line class="cls-7" x1="100.06" y1="78.04" x2="129.69" y2="78.04"/><path class="cls-8" d="M325.42,65.07a15.57,15.57,0,0,1,6.94,13M114.09,78a15.6,15.6,0,0,1,10.66-14.79"/><line class="cls-9" x1="130.96" y1="124.82" x2="315.49" y2="124.82"/><rect class="cls-10" x="130.46" y="121.57" width="1" height="6.5"/><rect class="cls-10" x="314.99" y="121.57" width="1" height="6.5"/><line class="cls-9" x1="263.48" y1="112.34" x2="315.49" y2="112.34"/><rect class="cls-10" x="262.98" y="109.09" width="1" height="6.5"/><rect class="cls-10" x="314.99" y="109.09" width="1" height="6.5"/></g></svg>