<svg xmlns="http://www.w3.org/2000/svg" xmlns:xlink="http://www.w3.org/1999/xlink" viewBox="0 0 446.46 212.41"><defs><style>.cls-1,.cls-12,.cls-13,.cls-14,.cls-19,.cls-2,.cls-3,.cls-4,.cls-5,.cls-6{fill:none;}.cls-2,.cls-3,.cls-4{stroke:#000;}.cls-19,.cls-2{stroke-miterlimit:10;}.cls-12,.cls-13,.cls-14,.cls-3,.cls-4,.cls-5,.cls-6{stroke-miterlimit:3.25;}.cls-3{stroke-width:0.5px;}.cls-5{stroke:#3e7cb9;}.cls-12,.cls-13,.cls-14,.cls-5,.cls-6{stroke-linecap:square;}.cls-12,.cls-13,.cls-5,.cls-6{stroke-width:2px;}.cls-6{stroke:#e5943e;}.cls-7{fill:#3e7cb9;}.cls-8{fill:#e5943e;}.cls-9{fill:#55a69f;}.cls-10{fill:#e5483f;}.cls-11{clip-path:url(#clip-path);}.cls-12{stroke:#55a69f;}.cls-13{stroke:#e5483f;}.cls-14{stroke:#636466;}.cls-15,.cls-17,.cls-18{font-size:12px;}.cls-15,.cls-16,.cls-18,.cls-20{fill:#231f20;}.cls-15{font-family:Helvetica-Oblique, Helvetica;}.cls-16{font-size:13px;font-family:Symbol, Symbol;}.cls-17,.cls-18{font-family:Helvetica, Helvetica;}.cls-19{stroke:#231f20;}</style><clipPath id="clip-path"><rect class="cls-1" x="67.32" y="0.11" width="145.95" height="212.3"/></clipPath></defs><title>orbits</title><g id="Graphics"><g id="orbits"><line class="cls-2" x1="339.32" y1="26.65" x2="339.32" y2="185.88"/><line class="cls-2" x1="246.45" y1="106.26" x2="379.13" y2="106.26"/><line class="cls-3" x1="73.95" y1="106.26" x2="73.95" y2="103.08"/><line class="cls-3" x1="100.49" y1="106.26" x2="100.49" y2="103.08"/><line class="cls-3" x1="127.03" y1="106.26" x2="127.03" y2="103.08"/><line class="cls-3" x1="153.57" y1="106.26" x2="153.57" y2="103.08"/><line class="cls-3" x1="180.11" y1="106.26" x2="180.11" y2="103.08"/><line class="cls-3" x1="206.64" y1="106.26" x2="206.64" y2="103.08"/><line class="cls-4" x1="67.32" y1="106.26" x2="213.28" y2="106.26"/><line class="cls-3" x1="180.11" y1="185.88" x2="183.29" y2="185.88"/><line class="cls-3" x1="180.11" y1="159.34" x2="183.29" y2="159.34"/><line class="cls-3" x1="180.11" y1="132.8" x2="183.29" y2="132.8"/><line class="cls-3" x1="180.11" y1="106.26" x2="183.29" y2="106.26"/><line class="cls-3" x1="180.11" y1="79.72" x2="183.29" y2="79.72"/><line class="cls-3" x1="180.11" y1="53.19" x2="183.29" y2="53.19"/><line class="cls-4" x1="180.11" y1="212.41" x2="180.11" y2="0.11"/><polyline class="cls-5" points="180.11 106.26 180.11 106.21 180.11 106.16 180.11 106.11 180.1 106.06 180.1 106.01 180.1 105.96 180.1 105.91 180.1 105.85 180.1 105.8 180.1 105.75 180.1 105.7 180.1 105.65 180.1 105.6 180.1 105.55 180.09 105.44 180.09 105.39 180.09 105.34 180.09 105.24 180.09 105.19 180.08 105.14 180.08 105.03 180.07 104.98 180.07 104.93 180.07 104.83 180.06 104.63 180.05 104.58 180.05 104.53 180.04 104.42 180.03 104.22 180.02 104.17 180.02 104.12 180.01 104.02 179.99 103.81 179.99 103.76 179.98 103.71 179.97 103.61 179.95 103.4 179.91 103 179.9 102.94 179.89 102.89 179.88 102.78 179.85 102.56 179.78 102.12 179.77 102.06 179.76 102.01 179.75 101.9 179.71 101.68 179.63 101.25 179.62 101.19 179.61 101.14 179.58 101.03 179.54 100.81 179.44 100.38 179.24 99.52 179.22 99.47 179.21 99.42 179.18 99.32 179.13 99.12 179.01 98.72 178.76 97.93 178.75 97.88 178.73 97.83 178.7 97.73 178.63 97.53 178.49 97.15 178.19 96.37 178.18 96.33 178.16 96.28 178.12 96.18 178.04 96 177.88 95.62 177.54 94.89 177.52 94.84 177.5 94.79 177.46 94.7 177.37 94.52 177.18 94.16 176.8 93.44 176.78 93.39 176.75 93.34 176.7 93.25 176.59 93.06 176.36 92.68 175.9 91.93 175.87 91.88 175.84 91.83 175.78 91.74 175.66 91.56 175.41 91.19 174.9 90.48 174.87 90.44 174.84 90.39 174.78 90.31 174.65 90.15 174.4 89.82 173.88 89.19 173.85 89.15 173.82 89.11 173.75 89.03 173.62 88.87 173.34 88.56 172.79 87.96 172.75 87.92 172.71 87.88 172.63 87.8 172.48 87.64 172.16 87.33 171.51 86.71 171.47 86.67 171.43 86.64 171.35 86.56 171.19 86.42 170.85 86.12 170.16 85.55 170.12 85.52 170.08 85.48 169.99 85.42 169.82 85.28 169.47 85.02 168.76 84.5 168.72 84.47 168.67 84.44 168.58 84.38 168.4 84.26 168.04 84.02 167.3 83.55 167.25 83.52 167.21 83.5 167.12 83.45 166.95 83.34 166.59 83.14 165.88 82.75 165.83 82.73 165.79 82.7 165.69 82.66 165.51 82.56 165.15 82.38 164.41 82.04 164.36 82.02 164.31 81.99 164.21 81.95 164 81.86 163.59 81.69 162.77 81.37 162.72 81.35 162.67 81.33 162.56 81.29 162.35 81.22 161.94 81.08 161.09 80.81 161.04 80.8 160.99 80.78 160.89 80.75 160.69 80.7 160.29 80.59 160.25 80.58 160.19 80.56 160.09 80.54 159.89 80.49 159.49 80.39 159.44 80.38 159.39 80.37 159.29 80.35 159.09 80.31 158.69 80.22 158.63 80.21 158.58 80.2 158.48 80.18 158.28 80.14 157.87 80.08 157.82 80.07 157.77 80.06 157.67 80.04 157.47 80.01 157.42 80 157.37 80 157.27 79.98 157.07 79.96 157.02 79.95 156.97 79.94 156.87 79.93 156.67 79.91 156.27 79.86 156.22 79.86 156.17 79.85 156.07 79.84 155.86 79.82 155.81 79.82 155.76 79.82 155.66 79.81 155.46 79.79 155.41 79.79 155.36 79.78 155.26 79.78 155.21 79.78 155.16 79.77 155.06 79.77 155.01 79.76 154.96 79.76 154.85 79.75 154.81 79.75 154.75 79.75 154.65 79.75 154.6 79.74 154.54 79.74 154.49 79.74 154.43 79.74 154.38 79.74 154.32 79.73 154.21 79.73 154.16 79.73 154.1 79.73 154.05 79.73 153.99 79.73 153.94 79.73 153.88 79.73 153.83 79.72 153.77 79.72 153.72 79.72 153.66 79.72 153.61 79.72 153.56 79.72 153.5 79.72 153.44 79.72 153.39 79.72 153.34 79.72 153.28 79.72 153.23 79.73 153.17 79.73 153.12 79.73 153.06 79.73 153.01 79.73 152.95 79.73 152.9 79.73 152.84 79.73 152.79 79.73 152.73 79.74 152.68 79.74 152.62 79.74 152.57 79.74 152.46 79.75 152.4 79.75 152.35 79.75 152.24 79.76 152.02 79.77 151.96 79.77 151.91 79.78 151.8 79.78 151.58 79.8 151.53 79.8 151.47 79.81 151.36 79.82 151.14 79.83 151.09 79.84 151.04 79.84 150.94 79.85 150.74 79.88 150.68 79.88 150.63 79.89 150.53 79.9 150.33 79.92 150.28 79.93 150.23 79.94 150.12 79.95 149.92 79.98 149.52 80.03 149.46 80.04 149.41 80.05 149.31 80.07 149.11 80.1 148.71 80.17 147.9 80.34 147.85 80.35 147.79 80.36 147.69 80.38 147.47 80.43 147.04 80.54 146.99 80.55 146.93 80.57 146.82 80.59 146.61 80.65 146.18 80.77 146.13 80.79 146.08 80.8 145.97 80.83 145.76 80.9 145.33 81.03 144.49 81.32 144.44 81.34 144.39 81.36 144.29 81.4 144.08 81.48 143.68 81.64 142.87 81.97 142.82 82 142.78 82.02 142.68 82.06 142.48 82.15 142.08 82.34 141.3 82.73 141.26 82.75 141.21 82.78 141.12 82.82 140.94 82.92 140.59 83.12 139.88 83.52 139.84 83.55 139.8 83.58 139.71 83.63 139.54 83.74 139.19 83.95 138.51 84.41 138.47 84.44 138.43 84.47 138.34 84.53 138.15 84.66 137.8 84.92 137.1 85.45 137.05 85.49 137.01 85.52 136.92 85.59 136.75 85.73 136.41 86.01 135.75 86.59 135.71 86.63 135.67 86.66 135.6 86.73 135.45 86.87 135.15 87.16 134.56 87.74 134.53 87.77 134.49 87.81 134.42 87.89 134.28 88.03 134 88.34 133.45 88.95 133.42 88.99 133.38 89.04 133.31 89.12 133.16 89.29 132.88 89.64 132.33 90.34 132.3 90.39 132.27 90.43 132.2 90.52 132.07 90.7 131.81 91.07 131.31 91.81 131.28 91.85 131.25 91.9 131.19 91.99 131.08 92.17 130.85 92.55 130.41 93.31 130.38 93.35 130.35 93.4 130.3 93.5 130.2 93.69 129.99 94.08 129.6 94.86 129.58 94.91 129.56 94.95 129.52 95.05 129.43 95.23 129.26 95.61 128.95 96.36 128.93 96.41 128.91 96.45 128.87 96.55 128.8 96.74 128.65 97.12 128.38 97.89 128.37 97.95 128.35 98 128.31 98.1 128.25 98.31 128.12 98.74 128.1 98.79 128.09 98.84 128.06 98.95 128 99.17 127.88 99.59 127.87 99.65 127.85 99.7 127.83 99.81 127.77 100.02 127.67 100.45 127.49 101.32 127.48 101.37 127.47 101.42 127.46 101.53 127.42 101.73 127.35 102.14 127.34 102.19 127.34 102.24 127.32 102.34 127.29 102.55 127.24 102.96 127.23 103.01 127.22 103.06 127.21 103.16 127.19 103.37 127.18 103.42 127.18 103.47 127.17 103.57 127.15 103.78 127.14 103.83 127.14 103.88 127.13 103.98 127.11 104.19 127.11 104.24 127.1 104.29 127.09 104.4 127.08 104.6 127.08 104.65 127.08 104.7 127.07 104.81 127.07 104.86 127.06 104.91 127.06 105.01 127.06 105.06 127.06 105.11 127.05 105.21 127.05 105.26 127.05 105.31 127.04 105.41 127.04 105.46 127.04 105.51 127.04 105.56 127.04 105.62 127.04 105.67 127.03 105.72 127.03 105.77 127.03 105.82 127.03 105.87 127.03 105.92 127.03 105.97 127.03 106.02 127.03 106.07 127.03 106.12 127.03 106.17 127.03 106.22 127.03 106.27 127.03 106.33 127.03 106.38 127.03 106.43 127.03 106.48 127.03 106.53 127.03 106.58 127.03 106.63 127.03 106.68 127.03 106.73 127.03 106.78 127.04 106.83 127.04 106.88 127.04 106.93 127.04 107.03 127.04 107.09 127.04 107.14 127.05 107.24 127.05 107.29 127.05 107.34 127.06 107.44 127.06 107.49 127.06 107.54 127.06 107.64 127.08 107.85 127.08 107.9 127.08 107.95 127.09 108.07 127.11 108.28 127.11 108.34 127.12 108.39 127.13 108.5 127.14 108.72 127.15 108.78 127.15 108.83 127.17 108.94 127.19 109.16 127.24 109.6 127.25 109.65 127.25 109.71 127.27 109.81 127.3 110.03 127.36 110.47 127.37 110.52 127.38 110.58 127.4 110.69 127.44 110.9 127.52 111.33 127.53 111.39 127.54 111.44 127.56 111.54 127.6 111.74 127.69 112.14 127.7 112.19 127.71 112.24 127.73 112.34 127.78 112.54 127.88 112.94 127.9 112.98 127.91 113.04 127.94 113.14 127.99 113.33 128.1 113.73 128.34 114.51 128.36 114.56 128.38 114.62 128.41 114.72 128.49 114.93 128.63 115.35 128.95 116.18 128.97 116.23 129 116.29 129.04 116.39 129.12 116.6 129.3 117 129.68 117.81 129.7 117.86 129.72 117.91 129.77 118.01 129.87 118.2 130.07 118.59 130.49 119.36 130.51 119.41 130.54 119.45 130.59 119.55 130.71 119.74 130.93 120.11 131.4 120.85 131.43 120.89 131.45 120.93 131.51 121.02 131.63 121.19 131.86 121.52 132.34 122.18 132.37 122.22 132.4 122.26 132.46 122.34 132.58 122.51 132.83 122.83 133.35 123.45 133.39 123.5 133.43 123.54 133.5 123.62 133.64 123.79 133.94 124.12 134.54 124.76 134.58 124.8 134.62 124.84 134.7 124.92 134.85 125.08 135.17 125.39 135.81 125.99 135.85 126.02 135.89 126.06 135.97 126.13 136.12 126.26 136.44 126.53 137.07 127.05 137.12 127.08 137.16 127.12 137.24 127.18 137.4 127.31 137.73 127.56 138.4 128.04 138.44 128.07 138.48 128.1 138.56 128.15 138.73 128.27 139.07 128.49 139.75 128.92 139.8 128.95 139.84 128.97 139.93 129.03 140.1 129.13 140.45 129.33 141.16 129.72 141.21 129.75 141.26 129.77 141.35 129.82 141.55 129.92 141.94 130.12 142.74 130.49 142.79 130.51 142.84 130.53 142.94 130.58 143.14 130.66 143.54 130.83 144.36 131.15 144.41 131.17 144.46 131.19 144.55 131.22 144.75 131.29 145.13 131.43 145.91 131.67 145.96 131.69 146.01 131.7 146.11 131.73 146.31 131.79 146.7 131.9 147.5 132.1 147.55 132.11 147.6 132.12 147.71 132.15 147.93 132.19 148.36 132.29 148.42 132.29 148.47 132.31 148.58 132.33 148.8 132.37 149.24 132.44 149.29 132.45 149.35 132.46 149.46 132.48 149.68 132.51 149.73 132.52 149.78 132.53 149.89 132.54 150.11 132.57 150.17 132.58 150.22 132.59 150.33 132.6 150.56 132.63 151 132.68 151.05 132.68 151.1 132.69 151.2 132.69 151.41 132.71 151.46 132.72 151.51 132.72 151.62 132.73 151.82 132.74 151.87 132.75 151.93 132.75 152.03 132.76 152.08 132.76 152.13 132.76 152.24 132.77 152.29 132.77 152.34 132.77 152.44 132.78 152.5 132.78 152.55 132.78 152.65 132.78 152.7 132.79 152.75 132.79 152.81 132.79 152.86 132.79 152.91 132.79 152.96 132.79 153.01 132.79 153.06 132.8 153.12 132.8 153.17 132.8 153.22 132.8 153.27 132.8 153.32 132.8 153.38 132.8 153.43 132.8 153.48 132.8 153.53 132.8 153.58 132.8 153.63 132.8 153.69 132.8 153.74 132.8 153.79 132.8 153.84 132.8 153.89 132.8 153.94 132.8 154 132.8 154.05 132.8 154.1 132.8 154.15 132.79 154.2 132.79 154.31 132.79 154.36 132.79 154.41 132.79 154.51 132.78 154.56 132.78 154.61 132.78 154.71 132.78 154.76 132.77 154.81 132.77 154.92 132.77 155.12 132.76 155.17 132.75 155.22 132.75 155.32 132.74 155.52 132.73 155.57 132.72 155.63 132.72 155.73 132.71 155.93 132.7 155.98 132.69 156.03 132.69 156.13 132.68 156.33 132.66 156.38 132.65 156.44 132.65 156.54 132.63 156.74 132.61 156.79 132.6 156.84 132.6 156.94 132.59 157.14 132.56 157.54 132.5 157.6 132.49 157.65 132.49 157.76 132.47 157.98 132.43 158.41 132.35 158.47 132.34 158.52 132.33 158.63 132.31 158.84 132.27 159.28 132.18 159.33 132.17 159.38 132.16 159.49 132.13 159.71 132.08 160.13 131.98 160.98 131.74 161.03 131.73 161.08 131.72 161.18 131.69 161.38 131.63 161.77 131.5 162.55 131.24 162.6 131.22 162.64 131.2 162.74 131.16 162.93 131.09 163.32 130.94 164.08 130.63 164.13 130.61 164.18 130.59 164.28 130.54 164.49 130.45 164.89 130.26 165.69 129.87 165.74 129.84 165.79 129.82 165.89 129.77 166.09 129.66 166.48 129.45 167.25 129 167.29 128.97 167.34 128.95 167.44 128.89 167.62 128.78 167.99 128.54 168.72 128.05 168.76 128.02 168.81 127.99 168.9 127.93 169.07 127.8 169.43 127.54 170.12 127.01 170.16 126.97 170.2 126.94 170.28 126.88 170.44 126.75 170.75 126.49 171.36 125.95 171.4 125.92 171.44 125.88 171.51 125.81 171.66 125.67 171.96 125.39 172.54 124.82 172.58 124.78 172.62 124.74 172.69 124.66 172.85 124.5 173.15 124.17 173.74 123.51 173.77 123.47 173.81 123.43 173.88 123.34 174.02 123.17 174.3 122.83 174.84 122.13 174.87 122.09 174.9 122.05 174.96 121.96 175.09 121.8 175.32 121.46 175.79 120.77 175.82 120.73 175.84 120.69 175.9 120.6 176.01 120.43 176.23 120.08 176.65 119.36 176.67 119.32 176.7 119.27 176.75 119.19 176.84 119.01 177.04 118.65 177.4 117.93 177.43 117.88 177.45 117.84 177.49 117.75 177.58 117.56 177.75 117.2 178.07 116.45 178.09 116.4 178.11 116.35 178.16 116.25 178.24 116.05 178.4 115.64 178.69 114.81 178.71 114.76 178.73 114.7 178.76 114.6 178.83 114.39 178.96 113.97 179.2 113.13 179.22 113.08 179.23 113.03 179.25 112.93 179.31 112.73 179.4 112.33 179.41 112.28 179.43 112.23 179.45 112.13 179.49 111.93 179.58 111.53 179.59 111.48 179.6 111.43 179.62 111.33 179.66 111.13 179.73 110.72 179.74 110.67 179.75 110.62 179.76 110.52 179.79 110.32 179.85 109.91 179.86 109.86 179.87 109.8 179.88 109.69 179.91 109.46 179.92 109.4 179.93 109.34 179.94 109.23 179.96 109 179.97 108.95 179.97 108.89 179.99 108.78 180.01 108.55 180.01 108.49 180.02 108.44 180.03 108.32 180.04 108.09 180.05 108.04 180.05 107.98 180.06 107.86 180.06 107.81 180.06 107.75 180.07 107.64 180.07 107.58 180.08 107.52 180.08 107.41 180.08 107.35 180.09 107.29 180.09 107.18 180.09 107.12 180.09 107.06 180.1 107 180.1 106.95 180.1 106.89 180.1 106.83 180.1 106.78 180.1 106.72 180.1 106.66 180.1 106.61 180.1 106.55 180.1 106.49 180.11 106.43 180.11 106.38 180.11 106.32 180.11 106.26"/><polyline class="cls-6" points="180.11 106.26 180.11 106.23 180.11 106.19 180.1 106.16 180.1 106.13 180.1 106.09 180.1 106.06 180.1 106.02 180.1 105.99 180.1 105.96 180.1 105.92 180.1 105.89 180.1 105.85 180.1 105.82 180.1 105.78 180.1 105.72 180.1 105.68 180.1 105.65 180.1 105.58 180.1 105.55 180.1 105.51 180.09 105.44 180.09 105.41 180.09 105.38 180.09 105.31 180.08 105.17 180.08 105.14 180.08 105.1 180.08 105.03 180.07 104.9 180.07 104.86 180.07 104.83 180.06 104.76 180.06 104.63 180.05 104.59 180.05 104.56 180.05 104.49 180.04 104.35 180.02 104.08 180.01 104.04 180.01 104.01 180 103.93 179.99 103.78 179.96 103.49 179.96 103.45 179.95 103.42 179.94 103.34 179.93 103.19 179.89 102.9 179.89 102.86 179.88 102.82 179.87 102.75 179.85 102.6 179.81 102.31 179.71 101.72 179.71 101.68 179.7 101.65 179.69 101.58 179.66 101.44 179.61 101.16 179.5 100.61 179.49 100.58 179.48 100.54 179.47 100.47 179.44 100.33 179.37 100.06 179.24 99.51 179.23 99.47 179.22 99.44 179.2 99.37 179.16 99.24 179.09 98.97 178.93 98.42 178.92 98.39 178.91 98.36 178.89 98.29 178.84 98.16 178.76 97.88 178.57 97.34 178.56 97.31 178.55 97.27 178.52 97.2 178.47 97.05 178.36 96.76 178.13 96.17 177.63 95 177.62 94.97 177.6 94.93 177.57 94.87 177.5 94.73 177.38 94.46 177.1 93.91 176.52 92.83 176.5 92.79 176.48 92.75 176.44 92.68 176.35 92.53 176.18 92.24 175.82 91.65 175.06 90.49 175.03 90.45 175.01 90.42 174.96 90.34 174.85 90.2 174.65 89.92 174.23 89.35 173.32 88.22 173.29 88.19 173.27 88.15 173.21 88.09 173.1 87.96 172.87 87.69 172.41 87.18 171.41 86.15 171.38 86.11 171.34 86.08 171.28 86.01 171.13 85.87 170.85 85.59 170.25 85.05 169 83.97 168.97 83.94 168.93 83.91 168.85 83.85 168.7 83.72 168.38 83.48 167.74 82.99 166.4 82.04 166.35 82.01 166.31 81.98 166.22 81.93 166.05 81.81 165.7 81.58 164.98 81.14 164.94 81.11 164.89 81.08 164.8 81.03 164.62 80.92 164.24 80.7 163.48 80.28 163.42 80.25 163.37 80.22 163.26 80.16 163.05 80.05 162.62 79.83 161.73 79.39 161.68 79.37 161.62 79.34 161.51 79.29 161.28 79.18 160.82 78.97 159.87 78.57 159.82 78.55 159.76 78.52 159.65 78.48 159.42 78.39 158.96 78.21 158.03 77.87 157.97 77.85 157.91 77.83 157.79 77.78 157.55 77.7 157.06 77.54 156.07 77.24 156 77.22 155.94 77.2 155.8 77.16 155.53 77.08 154.97 76.93 154.9 76.91 154.83 76.9 154.69 76.86 154.41 76.79 153.83 76.65 153.76 76.64 153.69 76.62 153.54 76.59 153.25 76.52 152.67 76.4 152.59 76.39 152.52 76.37 152.37 76.34 152.07 76.29 151.47 76.18 151.39 76.17 151.32 76.16 151.17 76.13 150.87 76.08 150.26 76 150.18 75.98 150.11 75.98 149.95 75.95 149.64 75.92 149.02 75.85 148.94 75.84 148.87 75.83 148.71 75.81 148.39 75.78 148.31 75.78 148.23 75.77 148.07 75.76 147.76 75.73 147.68 75.73 147.59 75.72 147.43 75.71 147.35 75.7 147.27 75.7 147.11 75.69 147.03 75.68 146.95 75.68 146.79 75.67 146.71 75.67 146.62 75.66 146.46 75.66 146.38 75.65 146.31 75.65 146.16 75.64 146.08 75.64 146 75.64 145.85 75.63 145.77 75.63 145.69 75.63 145.62 75.63 145.54 75.63 145.46 75.63 145.38 75.62 145.31 75.62 145.23 75.62 145.15 75.62 145.07 75.62 145 75.62 144.92 75.62 144.84 75.62 144.76 75.62 144.68 75.62 144.6 75.62 144.53 75.62 144.45 75.62 144.37 75.62 144.29 75.62 144.21 75.62 144.13 75.62 144.05 75.62 143.97 75.63 143.9 75.63 143.82 75.63 143.74 75.63 143.66 75.63 143.58 75.64 143.5 75.64 143.34 75.64 143.26 75.64 143.18 75.65 143.02 75.65 142.94 75.66 142.86 75.66 142.7 75.67 142.62 75.67 142.54 75.68 142.38 75.69 142.29 75.69 142.22 75.69 142.05 75.71 141.97 75.71 141.89 75.72 141.73 75.73 141.4 75.75 141.31 75.76 141.22 75.77 141.05 75.78 140.69 75.82 140.6 75.83 140.51 75.84 140.34 75.86 139.98 75.9 139.89 75.91 139.8 75.92 139.62 75.94 139.25 75.99 138.53 76.09 138.44 76.11 138.35 76.12 138.17 76.15 137.8 76.21 137.07 76.34 136.98 76.36 136.88 76.38 136.7 76.42 136.33 76.49 135.59 76.66 135.51 76.68 135.42 76.7 135.25 76.74 134.9 76.82 134.21 77 134.12 77.03 134.03 77.05 133.86 77.1 133.51 77.2 132.81 77.41 132.72 77.43 132.64 77.46 132.46 77.52 132.11 77.63 131.42 77.87 130.02 78.39 129.93 78.43 129.83 78.46 129.65 78.54 129.27 78.69 128.52 79.02 127.02 79.73 126.93 79.77 126.84 79.82 126.65 79.92 126.28 80.11 125.54 80.51 124.09 81.37 124 81.42 123.91 81.48 123.73 81.59 123.38 81.82 122.69 82.28 121.32 83.28 121.24 83.34 121.15 83.4 120.99 83.53 120.66 83.8 120 84.34 118.72 85.48 118.65 85.55 118.58 85.61 118.43 85.75 118.14 86.03 117.58 86.6 116.49 87.79 116.42 87.87 116.36 87.94 116.22 88.1 115.97 88.41 115.46 89.03 114.49 90.34 114.43 90.43 114.36 90.52 114.24 90.7 114 91.06 113.52 91.81 113.46 91.9 113.41 92 113.29 92.19 113.07 92.57 112.64 93.34 112.59 93.44 112.53 93.53 112.43 93.73 112.23 94.12 111.85 94.92 111.8 95.02 111.76 95.12 111.67 95.32 111.49 95.73 111.16 96.55 111.12 96.65 111.09 96.74 111.01 96.94 110.87 97.33 110.61 98.11 110.58 98.21 110.55 98.31 110.49 98.51 110.37 98.9 110.16 99.7 110.13 99.8 110.11 99.9 110.06 100.1 109.97 100.51 109.94 100.61 109.92 100.71 109.88 100.91 109.8 101.32 109.78 101.42 109.76 101.52 109.73 101.72 109.66 102.13 109.64 102.23 109.63 102.34 109.6 102.54 109.54 102.95 109.53 103.05 109.52 103.15 109.5 103.35 109.49 103.45 109.48 103.56 109.45 103.76 109.45 103.86 109.44 103.96 109.42 104.16 109.41 104.26 109.41 104.36 109.39 104.57 109.39 104.67 109.38 104.77 109.37 104.87 109.37 104.97 109.36 105.07 109.36 105.17 109.36 105.27 109.35 105.38 109.35 105.48 109.35 105.58 109.34 105.68 109.34 105.78 109.34 105.88 109.34 105.98 109.34 106.09 109.34 106.19 109.34 106.29 109.34 106.39 109.34 106.49 109.34 106.59 109.34 106.69 109.34 106.8 109.34 106.9 109.35 107 109.35 107.1 109.35 107.2 109.36 107.3 109.36 107.4 109.37 107.5 109.37 107.61 109.38 107.81 109.39 107.91 109.39 108.01 109.41 108.21 109.42 108.31 109.42 108.42 109.44 108.62 109.45 108.72 109.46 108.82 109.48 109.02 109.53 109.42 109.54 109.53 109.55 109.64 109.58 109.86 109.64 110.3 109.66 110.4 109.68 110.51 109.72 110.73 109.79 111.16 109.81 111.27 109.83 111.38 109.88 111.59 109.97 112.02 110.17 112.88 110.2 112.99 110.23 113.09 110.28 113.31 110.4 113.73 110.66 114.57 110.7 114.67 110.73 114.78 110.8 114.99 110.95 115.4 111.26 116.22 111.3 116.32 111.33 116.42 111.41 116.6 111.57 116.98 111.91 117.73 111.95 117.82 112 117.92 112.08 118.1 112.27 118.47 112.64 119.19 112.69 119.28 112.74 119.38 112.84 119.55 113.04 119.91 113.46 120.61 114.35 121.98 114.41 122.07 114.47 122.16 114.6 122.34 114.86 122.7 115.39 123.41 116.52 124.76 116.59 124.85 116.66 124.93 116.81 125.09 117.1 125.42 117.7 126.05 118.96 127.27 119.04 127.34 119.11 127.41 119.27 127.56 119.59 127.84 120.24 128.39 121.57 129.44 121.65 129.5 121.74 129.56 121.91 129.69 122.25 129.93 122.94 130.41 124.34 131.31 124.42 131.36 124.51 131.41 124.67 131.51 125 131.71 125.67 132.09 127.02 132.8 127.11 132.84 127.19 132.88 127.36 132.97 127.7 133.13 128.39 133.45 129.76 134.03 129.85 134.07 129.95 134.11 130.13 134.18 130.51 134.33 131.26 134.6 131.35 134.63 131.44 134.67 131.63 134.73 132.01 134.86 132.76 135.1 132.85 135.13 132.94 135.16 133.13 135.22 133.5 135.32 134.25 135.53 135.74 135.9 135.82 135.92 135.91 135.94 136.08 135.98 136.43 136.05 137.12 136.19 137.2 136.21 137.29 136.22 137.46 136.25 137.8 136.31 138.49 136.43 138.57 136.44 138.66 136.45 138.82 136.48 139.16 136.53 139.25 136.54 139.33 136.55 139.5 136.57 139.84 136.61 139.92 136.62 140.01 136.63 140.17 136.65 140.51 136.69 140.59 136.7 140.68 136.71 140.84 136.72 141.17 136.75 141.26 136.76 141.34 136.76 141.5 136.78 141.82 136.8 141.9 136.81 141.98 136.81 142.14 136.82 142.47 136.84 142.55 136.85 142.63 136.85 142.78 136.86 142.87 136.86 142.94 136.87 143.1 136.88 143.18 136.88 143.26 136.88 143.34 136.88 143.42 136.89 143.5 136.89 143.58 136.89 143.74 136.89 143.82 136.9 143.9 136.9 143.97 136.9 144.05 136.9 144.13 136.9 144.21 136.9 144.29 136.91 144.37 136.91 144.44 136.91 144.52 136.91 144.6 136.91 144.68 136.91 144.76 136.91 144.83 136.91 144.91 136.91 144.99 136.91 145.07 136.91 145.15 136.91 145.22 136.9 145.3 136.9 145.38 136.9 145.45 136.9 145.53 136.9 145.61 136.9 145.68 136.9 145.76 136.89 145.84 136.89 145.91 136.89 145.99 136.89 146.07 136.88 146.22 136.88 146.3 136.88 146.38 136.87 146.55 136.87 146.63 136.86 146.71 136.86 146.88 136.85 146.96 136.84 147.04 136.84 147.2 136.83 147.53 136.81 147.61 136.81 147.69 136.8 147.85 136.79 148.17 136.76 148.25 136.75 148.33 136.75 148.49 136.73 148.81 136.7 148.88 136.69 148.96 136.69 149.12 136.67 149.43 136.63 150.06 136.56 150.13 136.54 150.21 136.54 150.36 136.51 150.67 136.47 151.28 136.38 151.35 136.37 151.41 136.35 151.56 136.33 151.83 136.28 152.39 136.18 152.45 136.16 152.52 136.15 152.66 136.13 152.93 136.07 153.47 135.96 153.54 135.94 153.6 135.93 153.74 135.9 154 135.83 154.53 135.71 155.56 135.43 155.63 135.41 155.69 135.4 155.83 135.36 156.1 135.28 156.64 135.11 157.7 134.77 157.76 134.75 157.83 134.73 157.96 134.68 158.21 134.59 158.72 134.41 159.71 134.02 159.77 134 159.82 133.97 159.94 133.93 160.16 133.83 160.61 133.64 161.48 133.25 163.14 132.43 163.19 132.4 163.24 132.37 163.34 132.32 163.53 132.22 163.92 132 164.67 131.57 166.11 130.67 166.16 130.64 166.21 130.61 166.3 130.55 166.48 130.43 166.85 130.17 167.57 129.66 168.92 128.62 168.96 128.59 169 128.56 169.07 128.5 169.22 128.37 169.52 128.12 170.09 127.62 171.19 126.6 171.22 126.57 171.26 126.53 171.33 126.46 171.47 126.32 171.75 126.04 172.28 125.48 173.29 124.34 173.32 124.31 173.35 124.27 173.41 124.2 173.53 124.06 173.75 123.78 174.2 123.21 175.03 122.08 175.05 122.04 175.08 122.01 175.12 121.94 175.21 121.81 175.39 121.54 175.74 121 176.39 119.93 176.41 119.9 176.43 119.86 176.47 119.79 176.56 119.64 176.72 119.35 177.03 118.76 177.6 117.59 177.62 117.56 177.63 117.52 177.66 117.45 177.72 117.31 177.84 117.04 178.08 116.49 178.09 116.46 178.1 116.42 178.13 116.35 178.19 116.22 178.29 115.94 178.5 115.39 178.51 115.36 178.52 115.33 178.55 115.26 178.59 115.12 178.69 114.85 178.86 114.31 178.87 114.28 178.88 114.25 178.9 114.18 178.95 114.04 179.03 113.78 179.18 113.23 179.19 113.2 179.2 113.16 179.22 113.09 179.25 112.94 179.33 112.65 179.47 112.06 179.47 112.03 179.48 111.99 179.5 111.92 179.53 111.77 179.59 111.48 179.7 110.89 179.71 110.86 179.71 110.82 179.72 110.75 179.75 110.62 179.79 110.34 179.8 110.31 179.8 110.28 179.81 110.21 179.83 110.07 179.87 109.8 179.87 109.76 179.88 109.73 179.89 109.66 179.91 109.53 179.94 109.25 179.94 109.22 179.94 109.18 179.95 109.11 179.97 108.98 179.99 108.7 180 108.67 180 108.63 180.01 108.55 180.02 108.4 180.02 108.36 180.03 108.32 180.03 108.25 180.04 108.09 180.04 108.06 180.05 108.02 180.05 107.94 180.06 107.79 180.06 107.75 180.07 107.71 180.07 107.64 180.08 107.48 180.08 107.44 180.08 107.41 180.08 107.33 180.09 107.29 180.09 107.25 180.09 107.18 180.09 107.14 180.09 107.1 180.09 107.03 180.1 106.99 180.1 106.95 180.1 106.87 180.1 106.83 180.1 106.8 180.1 106.76 180.1 106.72 180.1 106.68 180.1 106.64 180.1 106.61 180.1 106.57 180.1 106.53 180.1 106.49 180.1 106.45 180.1 106.42 180.1 106.38 180.11 106.34 180.11 106.3 180.11 106.26"/><circle class="cls-7" cx="153.57" cy="106.26" r="2.65"/><circle class="cls-8" cx="162.41" cy="106.26" r="2.65"/><circle class="cls-9" cx="166.84" cy="106.26" r="2.65"/><circle class="cls-10" cx="171.27" cy="106.26" r="2.65"/><line class="cls-3" x1="180.11" y1="26.65" x2="183.29" y2="26.65"/><g class="cls-11"><polyline class="cls-12" points="46.09 21.92 53.65 24.34 57.2 25.49 58.92 26.06 59.77 26.34 60.62 26.63 73.03 30.88 78.57 32.85 81.19 33.8 82.47 34.27 83.1 34.51 83.72 34.74 99.91 41.02 106.63 43.81 109.71 45.14 111.18 45.78 111.9 46.1 112.26 46.25 112.61 46.41 132.06 55.76 144.03 62.5 153.05 68.36 159.64 73.3 164.17 77.18 167.88 80.79 170.54 83.73 172.7 86.43 174.53 89.06 175.88 91.3 177.05 93.52 177.54 94.6 177.77 95.13 177.88 95.39 177.93 95.52 177.96 95.58 177.97 95.62 177.98 95.65 178.34 96.59 178.51 97.05 178.59 97.28 178.63 97.4 178.64 97.45 178.65 97.48 178.66 97.51 178.96 98.48 179.1 98.95 179.16 99.19 179.19 99.31 179.21 99.37 179.22 99.4 179.22 99.42 179.33 99.86 179.38 100.07 179.41 100.18 179.42 100.23 179.43 100.26 179.43 100.28 179.53 100.71 179.57 100.92 179.59 101.03 179.6 101.08 179.6 101.11 179.61 101.13 179.69 101.56 179.73 101.77 179.74 101.88 179.75 101.93 179.76 101.96 179.76 101.99 179.83 102.41 179.86 102.62 179.87 102.73 179.88 102.78 179.88 102.81 179.88 102.83 179.94 103.28 179.96 103.51 179.97 103.62 179.98 103.67 179.98 103.7 179.99 103.73 180 103.95 180.01 104.07 180.02 104.12 180.02 104.15 180.02 104.18 180.04 104.4 180.05 104.51 180.05 104.57 180.05 104.6 180.06 104.62 180.07 104.83 180.07 104.93 180.07 104.98 180.08 105.01 180.08 105.03 180.08 105.14 180.08 105.19 180.09 105.21 180.09 105.24 180.09 105.34 180.09 105.39 180.09 105.42 180.09 105.44 180.1 105.55 180.1 105.6 180.1 105.62 180.1 105.65 180.1 105.7 180.1 105.72 180.1 105.75 180.1 105.8 180.1 105.83 180.1 105.85 180.1 105.91 180.1 105.93 180.1 105.96 180.1 105.98 180.1 106.01 180.1 106.03 180.1 106.06 180.1 106.08 180.1 106.11 180.1 106.14 180.11 106.16 180.11 106.19 180.11 106.21 180.11 106.24 180.11 106.26 180.11 106.29 180.11 106.32 180.11 106.35 180.1 106.38 180.1 106.41 180.1 106.43 180.1 106.46 180.1 106.49 180.1 106.52 180.1 106.55 180.1 106.58 180.1 106.61 180.1 106.63 180.1 106.66 180.1 106.69 180.1 106.72 180.1 106.78 180.1 106.81 180.1 106.83 180.1 106.89 180.1 106.92 180.1 106.95 180.1 107.01 180.09 107.03 180.09 107.06 180.09 107.12 180.09 107.15 180.09 107.18 180.09 107.29 180.08 107.35 180.08 107.38 180.08 107.41 180.08 107.52 180.07 107.58 180.07 107.61 180.07 107.64 180.06 107.75 180.06 107.81 180.06 107.84 180.06 107.87 180.05 107.98 180.05 108.04 180.04 108.07 180.04 108.1 180.03 108.3 180.02 108.41 180.01 108.46 180.01 108.48 180.01 108.51 179.99 108.72 179.98 108.82 179.98 108.87 179.97 108.9 179.97 108.92 179.95 109.13 179.94 109.23 179.93 109.29 179.93 109.31 179.93 109.34 179.9 109.55 179.89 109.65 179.88 109.7 179.88 109.73 179.88 109.75 179.81 110.2 179.78 110.43 179.76 110.54 179.75 110.59 179.75 110.62 179.74 110.65 179.66 111.11 179.62 111.33 179.6 111.45 179.59 111.5 179.58 111.53 179.58 111.56 179.49 111.98 179.44 112.19 179.42 112.3 179.41 112.36 179.4 112.38 179.39 112.41 179.29 112.84 179.24 113.05 179.21 113.16 179.19 113.22 179.19 113.24 179.18 113.27 179.06 113.71 179 113.94 178.96 114.05 178.95 114.1 178.94 114.13 178.93 114.16 178.79 114.61 178.72 114.84 178.68 114.95 178.66 115.01 178.65 115.04 178.65 115.07 178.3 116.06 178.1 116.57 178 116.83 177.95 116.95 177.93 117.02 177.91 117.05 177.9 117.08 177.49 118.05 177.27 118.54 177.15 118.79 177.09 118.91 177.06 118.98 177.05 119.01 177.03 119.04 175.86 121.27 174.37 123.72 172.63 126.18 170.29 129.08 167.56 132.07 163.99 135.51 158.96 139.76 152.74 144.37 143.53 150.32 131.43 157.09 123.27 161.19 118.51 163.44 115.93 164.62 114.59 165.23 113.91 165.54 113.56 165.69 113.21 165.85 99.62 171.62 91.4 174.88 86.86 176.61 84.46 177.51 83.24 177.97 82.61 178.19 81.99 178.43 60.63 185.89 47.46 190.17"/><polyline class="cls-13" points="116.17 -18.87 132.43 9.57 138.02 19.38 140.4 23.57 141.5 25.51 142.03 26.45 142.55 27.36 161.38 61.03 168.29 73.92 172.26 81.75 174.51 86.49 176.06 90.02 177.23 92.93 178.01 95.1 178.63 97.06 179.11 98.79 179.29 99.52 179.37 99.87 179.4 100.04 179.42 100.12 179.43 100.17 179.44 100.19 179.44 100.21 179.58 100.92 179.65 101.26 179.68 101.43 179.69 101.52 179.7 101.56 179.7 101.58 179.71 101.6 179.76 101.91 179.78 102.06 179.79 102.13 179.8 102.17 179.8 102.19 179.8 102.21 179.84 102.5 179.86 102.65 179.87 102.73 179.88 102.76 179.88 102.78 179.88 102.8 179.92 103.09 179.94 103.24 179.94 103.31 179.95 103.35 179.95 103.37 179.95 103.39 179.98 103.68 179.99 103.82 180 103.89 180 103.93 180 103.94 180.01 103.96 180.03 104.27 180.04 104.42 180.05 104.5 180.05 104.53 180.05 104.55 180.05 104.57 180.06 104.72 180.07 104.8 180.07 104.83 180.07 104.85 180.07 104.87 180.08 105.02 180.08 105.09 180.08 105.13 180.08 105.15 180.08 105.17 180.09 105.31 180.09 105.38 180.09 105.41 180.09 105.43 180.09 105.44 180.1 105.51 180.1 105.55 180.1 105.56 180.1 105.58 180.1 105.65 180.1 105.68 180.1 105.7 180.1 105.72 180.1 105.78 180.1 105.82 180.1 105.84 180.1 105.85 180.1 105.89 180.1 105.91 180.1 105.92 180.1 105.96 180.1 105.97 180.1 105.99 180.1 106.02 180.1 106.04 180.1 106.06 180.1 106.08 180.1 106.09 180.1 106.11 180.1 106.13 180.11 106.14 180.11 106.16 180.11 106.18 180.11 106.19 180.11 106.21 180.11 106.23 180.11 106.25 180.11 106.26 180.11 106.28 180.11 106.3 180.11 106.32 180.11 106.34 180.11 106.36 180.11 106.38 180.11 106.4 180.1 106.42 180.1 106.43 180.1 106.45 180.1 106.47 180.1 106.49 180.1 106.51 180.1 106.53 180.1 106.55 180.1 106.57 180.1 106.61 180.1 106.63 180.1 106.64 180.1 106.68 180.1 106.7 180.1 106.72 180.1 106.76 180.1 106.78 180.1 106.8 180.1 106.83 180.1 106.86 180.1 106.87 180.1 106.95 180.1 106.99 180.1 107.01 180.09 107.03 180.09 107.1 180.09 107.14 180.09 107.16 180.09 107.18 180.09 107.26 180.09 107.3 180.09 107.31 180.08 107.33 180.08 107.41 180.08 107.45 180.08 107.47 180.08 107.49 180.07 107.62 180.07 107.69 180.07 107.73 180.06 107.75 180.06 107.76 180.06 107.9 180.05 107.97 180.05 108.01 180.05 108.03 180.05 108.04 180.04 108.18 180.03 108.25 180.03 108.29 180.03 108.31 180.03 108.32 180.01 108.46 180.01 108.53 180.01 108.57 180 108.59 180 108.6 179.97 108.91 179.96 109.06 179.95 109.14 179.95 109.18 179.94 109.2 179.94 109.22 179.91 109.53 179.89 109.68 179.88 109.76 179.87 109.8 179.87 109.82 179.87 109.84 179.83 110.14 179.81 110.28 179.79 110.36 179.79 110.4 179.79 110.42 179.78 110.44 179.74 110.74 179.71 110.89 179.7 110.97 179.69 111.01 179.69 111.03 179.69 111.05 179.63 111.36 179.6 111.52 179.58 111.61 179.57 111.65 179.57 111.67 179.57 111.69 179.5 112.02 179.47 112.19 179.45 112.27 179.44 112.31 179.44 112.34 179.43 112.36 179.26 113.11 179.17 113.5 179.12 113.7 179.09 113.8 179.08 113.85 179.07 113.87 179.07 113.9 178.62 115.49 178 117.46 177.13 119.86 176.02 122.61 174.32 126.45 171.96 131.39 168.07 139.03 160.06 153.89 141.19 187.55 112.31 238.13"/></g><line class="cls-14" x1="259.72" y1="106.26" x2="365.86" y2="106.26"/><polyline class="cls-6" points="365.87 106.26 365.87 106.21 365.87 106.16 365.86 106.11 365.86 106.06 365.86 106.01 365.86 105.95 365.86 105.91 365.86 105.85 365.86 105.8 365.86 105.75 365.86 105.7 365.86 105.65 365.86 105.6 365.86 105.55 365.86 105.44 365.86 105.39 365.86 105.34 365.85 105.24 365.85 105.19 365.85 105.14 365.85 105.04 365.84 104.98 365.84 104.93 365.84 104.83 365.83 104.63 365.83 104.58 365.83 104.52 365.82 104.42 365.81 104.22 365.81 104.17 365.81 104.11 365.8 104.01 365.79 103.81 365.79 103.76 365.78 103.71 365.78 103.6 365.76 103.4 365.73 102.99 365.73 102.93 365.72 102.88 365.71 102.77 365.69 102.55 365.65 102.1 365.64 102.05 365.63 101.99 365.62 101.88 365.6 101.66 365.55 101.22 365.54 101.16 365.53 101.11 365.51 100.99 365.48 100.77 365.42 100.33 365.28 99.44 365.27 99.39 365.26 99.34 365.24 99.23 365.2 99.03 365.13 98.61 364.95 97.79 364.94 97.73 364.93 97.68 364.91 97.58 364.86 97.37 364.77 96.96 364.56 96.13 364.55 96.08 364.53 96.03 364.5 95.93 364.45 95.72 364.34 95.32 364.1 94.51 364.08 94.46 364.07 94.41 364.04 94.31 363.98 94.1 363.84 93.7 363.57 92.89 363.55 92.83 363.53 92.78 363.49 92.67 363.41 92.45 363.25 92.01 362.9 91.13 362.15 89.37 362.13 89.32 362.11 89.27 362.06 89.17 361.96 88.97 361.77 88.56 361.36 87.74 360.49 86.11 360.46 86.05 360.43 86 360.37 85.89 360.24 85.67 359.98 85.23 359.44 84.35 358.29 82.6 358.25 82.55 358.22 82.49 358.14 82.39 357.99 82.17 357.68 81.74 357.05 80.89 355.69 79.2 355.65 79.15 355.61 79.1 355.52 79 355.35 78.81 355.01 78.41 354.31 77.64 352.83 76.09 352.78 76.04 352.72 75.99 352.62 75.88 352.41 75.67 351.98 75.26 351.09 74.44 349.21 72.83 349.15 72.78 349.1 72.73 348.98 72.64 348.75 72.46 348.28 72.09 347.32 71.36 345.3 69.93 345.24 69.89 345.17 69.84 345.04 69.76 344.78 69.59 344.26 69.25 343.18 68.58 343.11 68.54 343.05 68.5 342.91 68.42 342.63 68.25 342.07 67.93 340.92 67.29 340.84 67.24 340.76 67.2 340.61 67.12 340.29 66.95 339.64 66.61 338.31 65.96 338.22 65.92 338.14 65.88 337.97 65.8 337.63 65.64 336.94 65.33 335.52 64.73 335.43 64.69 335.35 64.66 335.18 64.59 334.84 64.45 334.15 64.19 332.75 63.67 332.66 63.64 332.57 63.61 332.39 63.55 332.03 63.42 331.3 63.19 329.82 62.73 329.71 62.7 329.61 62.67 329.41 62.61 329 62.49 328.16 62.27 328.06 62.24 327.95 62.21 327.74 62.16 327.31 62.05 326.46 61.85 326.35 61.82 326.24 61.8 326.02 61.75 325.59 61.66 324.71 61.47 324.6 61.45 324.49 61.43 324.26 61.38 323.81 61.3 322.91 61.14 322.8 61.12 322.69 61.1 322.46 61.07 322.01 61 321.1 60.87 320.98 60.85 320.87 60.83 320.64 60.8 320.17 60.75 319.24 60.64 319.12 60.63 319.01 60.62 318.77 60.59 318.3 60.55 318.18 60.54 318.06 60.53 317.82 60.51 317.34 60.47 317.22 60.46 317.1 60.45 316.86 60.44 316.74 60.43 316.62 60.42 316.38 60.4 316.25 60.4 316.13 60.39 315.89 60.38 315.77 60.37 315.65 60.37 315.4 60.35 315.29 60.35 315.17 60.34 314.94 60.34 314.83 60.33 314.71 60.33 314.48 60.32 314.37 60.32 314.25 60.32 314.13 60.31 314.02 60.31 313.9 60.31 313.79 60.31 313.67 60.3 313.55 60.3 313.44 60.3 313.32 60.3 313.2 60.3 313.09 60.3 312.97 60.3 312.85 60.3 312.73 60.3 312.62 60.3 312.5 60.3 312.38 60.3 312.26 60.3 312.14 60.3 312.03 60.3 311.91 60.3 311.79 60.31 311.67 60.31 311.55 60.31 311.43 60.31 311.31 60.32 311.19 60.32 311.08 60.32 310.96 60.33 310.72 60.33 310.6 60.34 310.48 60.34 310.24 60.35 310.12 60.36 310 60.36 309.76 60.37 309.64 60.38 309.52 60.39 309.27 60.4 309.15 60.41 309.03 60.41 308.79 60.43 308.67 60.44 308.55 60.45 308.3 60.46 307.81 60.5 307.68 60.51 307.55 60.52 307.28 60.55 306.75 60.6 306.61 60.61 306.48 60.63 306.21 60.65 305.67 60.72 305.54 60.73 305.4 60.75 305.13 60.78 304.59 60.85 303.5 61.01 303.37 61.03 303.23 61.05 302.96 61.09 302.41 61.19 301.31 61.39 301.17 61.41 301.04 61.44 300.76 61.5 300.21 61.61 299.1 61.85 298.97 61.88 298.84 61.91 298.58 61.98 298.06 62.1 297.02 62.38 296.89 62.41 296.76 62.45 296.5 62.52 295.97 62.67 294.93 62.98 294.8 63.02 294.67 63.06 294.4 63.15 293.88 63.31 292.83 63.67 290.74 64.45 290.6 64.51 290.46 64.56 290.18 64.68 289.61 64.91 288.48 65.4 286.24 66.46 286.1 66.53 285.96 66.6 285.69 66.75 285.13 67.03 284.03 67.63 281.84 68.92 281.71 69 281.58 69.09 281.31 69.25 280.79 69.59 279.74 70.3 277.69 71.78 277.57 71.88 277.44 71.98 277.19 72.17 276.69 72.57 275.71 73.38 273.79 75.09 273.68 75.19 273.57 75.29 273.36 75.5 272.93 75.92 272.08 76.78 270.44 78.56 270.35 78.67 270.25 78.78 270.05 79.01 269.66 79.48 268.9 80.42 267.45 82.38 267.35 82.51 267.26 82.65 267.07 82.92 266.7 83.47 265.99 84.58 265.9 84.72 265.82 84.86 265.65 85.15 265.31 85.72 264.67 86.88 264.59 87.02 264.51 87.17 264.36 87.46 264.06 88.05 263.49 89.25 263.42 89.4 263.35 89.55 263.21 89.86 262.95 90.46 262.45 91.7 262.4 91.84 262.34 91.98 262.23 92.28 262.02 92.86 261.63 94.03 261.58 94.18 261.54 94.33 261.45 94.63 261.27 95.22 260.95 96.42 260.91 96.57 260.87 96.72 260.8 97.02 260.66 97.63 260.63 97.78 260.6 97.93 260.53 98.23 260.41 98.84 260.38 99 260.36 99.15 260.3 99.45 260.2 100.07 260.18 100.22 260.15 100.37 260.11 100.68 260.03 101.29 260.01 101.45 259.99 101.6 259.96 101.9 259.94 102.05 259.93 102.2 259.89 102.5 259.88 102.66 259.87 102.81 259.84 103.11 259.83 103.26 259.82 103.42 259.8 103.72 259.79 103.87 259.78 104.02 259.77 104.17 259.76 104.32 259.76 104.48 259.75 104.63 259.75 104.78 259.74 104.93 259.73 105.08 259.73 105.23 259.73 105.39 259.72 105.54 259.72 105.69 259.72 105.85 259.72 106 259.72 106.15 259.72 106.3 259.72 106.45 259.72 106.61 259.72 106.76 259.72 106.91 259.72 107.06 259.73 107.21 259.73 107.36 259.74 107.52 259.74 107.67 259.75 107.82 259.75 107.97 259.76 108.13 259.77 108.28 259.78 108.58 259.79 108.73 259.8 108.88 259.82 109.19 259.84 109.34 259.85 109.49 259.87 109.79 259.89 109.95 259.9 110.1 259.93 110.4 260 111 260.02 111.17 260.04 111.33 260.08 111.66 260.18 112.31 260.2 112.47 260.23 112.64 260.28 112.96 260.4 113.61 260.43 113.78 260.46 113.94 260.53 114.26 260.66 114.91 260.97 116.19 261.01 116.35 261.05 116.51 261.14 116.83 261.32 117.46 261.7 118.72 261.76 118.88 261.81 119.04 261.91 119.35 262.13 119.97 262.6 121.2 262.66 121.35 262.71 121.49 262.83 121.77 263.07 122.34 263.57 123.46 263.64 123.6 263.7 123.74 263.84 124.02 264.11 124.57 264.68 125.66 264.75 125.8 264.82 125.93 264.97 126.2 265.27 126.73 265.9 127.79 267.23 129.84 267.33 129.98 267.42 130.11 267.62 130.38 268 130.92 268.8 131.98 270.48 134.01 270.59 134.14 270.7 134.26 270.92 134.51 271.36 134.99 272.27 135.94 274.15 137.77 274.27 137.88 274.38 137.98 274.62 138.2 275.1 138.62 276.07 139.45 278.07 141.02 278.19 141.12 278.32 141.21 278.57 141.4 279.09 141.77 280.12 142.49 282.22 143.84 282.35 143.91 282.47 143.99 282.72 144.13 283.22 144.43 284.22 145 286.25 146.06 286.37 146.13 286.5 146.19 286.76 146.31 287.27 146.56 288.29 147.04 290.35 147.92 290.49 147.97 290.63 148.03 290.91 148.14 291.47 148.36 292.6 148.77 292.74 148.82 292.88 148.87 293.16 148.96 293.72 149.16 294.84 149.52 294.98 149.56 295.12 149.6 295.4 149.69 295.97 149.85 297.09 150.17 299.32 150.72 299.45 150.75 299.58 150.78 299.84 150.84 300.35 150.95 301.39 151.15 301.51 151.18 301.64 151.2 301.9 151.25 302.41 151.34 303.44 151.51 303.57 151.53 303.69 151.54 303.95 151.58 304.45 151.65 304.58 151.67 304.71 151.69 304.96 151.72 305.47 151.79 305.59 151.8 305.72 151.81 305.97 151.84 306.47 151.9 306.6 151.91 306.72 151.92 306.97 151.95 307.47 151.99 307.59 152 307.71 152.01 307.96 152.03 308.44 152.07 308.56 152.08 308.69 152.09 308.93 152.1 309.41 152.13 309.53 152.14 309.65 152.15 309.89 152.16 310.01 152.16 310.13 152.17 310.37 152.18 310.49 152.18 310.61 152.19 310.72 152.19 310.84 152.19 310.96 152.2 311.08 152.2 311.32 152.21 311.44 152.21 311.55 152.21 311.67 152.21 311.79 152.22 311.91 152.22 312.02 152.22 312.14 152.22 312.26 152.22 312.38 152.22 312.49 152.23 312.61 152.23 312.73 152.23 312.84 152.23 312.96 152.23 313.08 152.23 313.19 152.22 313.31 152.22 313.43 152.22 313.54 152.22 313.66 152.22 313.77 152.22 313.89 152.21 314 152.21 314.12 152.21 314.23 152.21 314.35 152.21 314.46 152.2 314.58 152.2 314.69 152.19 314.81 152.19 315.04 152.19 315.16 152.18 315.28 152.18 315.53 152.16 315.65 152.16 315.78 152.15 316.02 152.14 316.14 152.13 316.27 152.13 316.51 152.11 317 152.08 317.12 152.07 317.24 152.06 317.48 152.05 317.96 152.01 318.08 152 318.2 151.99 318.44 151.97 318.92 151.92 319.04 151.91 319.15 151.89 319.39 151.87 319.86 151.82 320.79 151.7 320.91 151.69 321.02 151.67 321.25 151.64 321.71 151.57 322.62 151.43 322.73 151.41 322.83 151.4 323.04 151.36 323.46 151.29 324.29 151.13 324.39 151.12 324.49 151.09 324.7 151.06 325.11 150.97 325.91 150.8 326.01 150.78 326.11 150.75 326.31 150.71 326.71 150.62 327.5 150.43 329.04 150.02 329.15 149.99 329.25 149.96 329.45 149.9 329.86 149.78 330.67 149.54 332.25 149.02 332.35 148.99 332.45 148.96 332.64 148.89 333.03 148.75 333.79 148.48 335.27 147.9 335.36 147.87 335.44 147.83 335.62 147.76 335.95 147.62 336.62 147.33 337.93 146.74 340.42 145.5 340.5 145.47 340.57 145.43 340.72 145.35 341.01 145.19 341.59 144.87 342.72 144.22 344.87 142.88 344.94 142.83 345.01 142.78 345.16 142.69 345.43 142.5 345.99 142.13 347.06 141.36 349.09 139.8 349.14 139.75 349.2 139.71 349.31 139.61 349.54 139.43 349.98 139.05 350.85 138.3 352.49 136.77 352.54 136.72 352.59 136.67 352.7 136.56 352.91 136.35 353.32 135.93 354.13 135.09 355.64 133.38 355.69 133.33 355.73 133.28 355.82 133.17 355.99 132.96 356.34 132.54 357 131.69 358.25 129.98 358.29 129.93 358.32 129.88 358.39 129.78 358.53 129.58 358.8 129.18 359.32 128.38 360.29 126.77 360.32 126.71 360.36 126.66 360.42 126.55 360.54 126.33 360.78 125.89 361.25 125.01 362.11 123.25 362.13 123.2 362.15 123.15 362.2 123.05 362.29 122.84 362.47 122.43 362.82 121.61 362.84 121.56 362.86 121.5 362.9 121.4 362.99 121.19 363.15 120.78 363.45 119.96 363.47 119.91 363.49 119.86 363.53 119.75 363.6 119.55 363.74 119.15 364 118.34 364.02 118.29 364.03 118.24 364.06 118.14 364.13 117.93 364.25 117.53 364.47 116.72 364.49 116.67 364.5 116.61 364.53 116.5 364.59 116.28 364.7 115.84 364.9 114.96 364.92 114.91 364.93 114.85 364.95 114.74 365 114.52 365.09 114.08 365.26 113.2 365.26 113.15 365.27 113.1 365.29 113 365.32 112.8 365.39 112.39 365.4 112.33 365.41 112.28 365.42 112.18 365.45 111.98 365.51 111.56 365.52 111.52 365.52 111.46 365.54 111.36 365.56 111.16 365.61 110.75 365.62 110.69 365.62 110.64 365.63 110.54 365.66 110.33 365.7 109.92 365.7 109.87 365.71 109.81 365.72 109.7 365.74 109.47 365.74 109.41 365.74 109.35 365.75 109.24 365.77 109.01 365.77 108.95 365.78 108.89 365.79 108.78 365.8 108.55 365.8 108.49 365.81 108.44 365.81 108.32 365.82 108.09 365.82 108.04 365.83 107.98 365.83 107.87 365.83 107.81 365.84 107.75 365.84 107.64 365.84 107.58 365.84 107.52 365.85 107.41 365.85 107.35 365.85 107.29 365.86 107.18 365.86 107.12 365.86 107.06 365.86 107.01 365.86 106.95 365.86 106.89 365.86 106.83 365.86 106.78 365.86 106.72 365.86 106.66 365.86 106.61 365.86 106.55 365.86 106.49 365.86 106.43 365.87 106.38 365.87 106.32 365.87 106.26"/><circle class="cls-8" cx="339.32" cy="106.26" r="3.98"/></g></g><g id="Text"><g id="orbits-2" data-name="orbits"><text class="cls-15" transform="translate(342.04 91.25)">r</text><text class="cls-16" transform="translate(138.75 12.46)">ε<tspan class="cls-17" x="5.71" y="0" xml:space="preserve"> = 2</tspan></text><text class="cls-16" transform="translate(352.96 98.82)">θ</text><text class="cls-16" transform="translate(84.4 31.13)">ε<tspan class="cls-17" x="5.71" y="0" xml:space="preserve"> = 1</tspan></text><text class="cls-16" transform="translate(133.63 102.06)">ε<tspan class="cls-17" x="5.71" y="0" xml:space="preserve"> = 0</tspan></text><text class="cls-16" transform="translate(87.27 88.91)">ε<tspan class="cls-17" x="5.71" y="0" xml:space="preserve"> = ½</tspan></text><text class="cls-18" transform="translate(66.66 9.51)">(a)</text><text class="cls-15" transform="translate(323.39 170.62)">f</text><text class="cls-15" transform="translate(303.54 88.91)">b</text><text class="cls-15" transform="translate(283.82 117.36)">a</text><text class="cls-18" transform="translate(246.45 9.51)">(b)</text></g></g><g id="Arrows"><g id="orbits-3" data-name="orbits"><line class="cls-14" x1="312.79" y1="152.23" x2="312.79" y2="60.3"/><line class="cls-14" x1="339.32" y1="106.26" x2="355.01" y2="78.41"/><path class="cls-14" d="M346.2,94A13.26,13.26,0,0,1,353,105.61"/><line class="cls-19" x1="313.29" y1="159.61" x2="338.82" y2="159.61"/><rect class="cls-20" x="312.79" y="156.36" width="1" height="6.5"/><rect class="cls-20" x="338.32" y="156.36" width="1" height="6.5"/></g></g></svg>