<svg xmlns="http://www.w3.org/2000/svg" viewBox="0 0 446.46 180.91"><defs><style>.cls-1{fill:#3e7cb9;opacity:0.5;}.cls-1,.cls-2{stroke:#3e7cb9;}.cls-1,.cls-10,.cls-11,.cls-13,.cls-16,.cls-18,.cls-2,.cls-20,.cls-21,.cls-22{stroke-miterlimit:3.25;}.cls-10,.cls-11,.cls-13,.cls-16,.cls-18,.cls-2,.cls-20,.cls-21,.cls-22{fill:none;}.cls-2{stroke-linecap:round;}.cls-11,.cls-2{stroke-width:2px;}.cls-3,.cls-4,.cls-5,.cls-6,.cls-8{font-size:12px;}.cls-12,.cls-3{fill:#e5483f;}.cls-3,.cls-4,.cls-5,.cls-8{font-family:Helvetica-Oblique, Helvetica;}.cls-14,.cls-4{fill:#365a50;}.cls-5,.cls-6{fill:#231f20;}.cls-6{font-family:Helvetica, Helvetica;}.cls-7{letter-spacing:-0.02em;}.cls-15,.cls-8{fill:#808285;}.cls-9{letter-spacing:-0.04em;}.cls-10,.cls-22{stroke:#231f20;stroke-width:0.5px;}.cls-11{stroke:#e5483f;}.cls-13{stroke:#365a50;}.cls-16{stroke:#939598;}.cls-17{fill:#939598;}.cls-18{stroke:#010101;}.cls-19{fill:#010101;}.cls-20,.cls-21{stroke:#5e82b6;stroke-linecap:square;}.cls-21{stroke-dasharray:4.01 4.01;}.cls-22{stroke-dasharray:3;}</style></defs><title>parabolicwatersurface</title><g id="Graphics"><polygon class="cls-1" points="81.13 0.39 81.47 1.08 81.82 1.78 82.52 3.15 83.9 5.89 86.68 11.27 92.69 22.58 98.31 32.68 103.82 42.14 109.8 51.92 115.38 60.59 121.42 69.49 127.35 77.73 132.89 84.97 138.89 92.32 144.49 98.73 149.99 104.58 155.94 110.44 161.51 115.46 167.53 120.4 173.45 124.76 178.97 128.37 184.96 131.81 185.04 131.85 185.13 131.9 185.31 131.99 185.66 132.17 186.35 132.54 187.75 133.24 190.54 134.56 190.64 134.6 190.73 134.64 190.92 134.72 191.3 134.89 192.06 135.22 193.57 135.86 193.66 135.9 193.76 135.94 193.95 136.01 194.32 136.16 195.09 136.46 196.6 137.03 196.78 137.1 196.97 137.17 197.34 137.3 198.08 137.56 199.57 138.06 199.66 138.09 199.75 138.12 199.94 138.18 200.31 138.3 201.05 138.53 202.54 138.96 202.71 139.01 203.23 139.16 203.93 139.34 205.31 139.69 205.4 139.72 205.49 139.74 206 139.86 206.7 140.02 208.09 140.32 208.18 140.34 208.28 140.35 208.46 140.39 208.84 140.46 209.59 140.6 209.68 140.62 209.78 140.64 209.96 140.67 210.34 140.74 211.09 140.86 211.28 140.9 211.47 140.93 211.84 140.98 212.59 141.09 214.1 141.29 214.19 141.3 214.27 141.31 214.45 141.33 214.8 141.37 215.5 141.44 215.59 141.45 215.68 141.46 215.85 141.47 216.2 141.5 216.9 141.56 216.99 141.57 217.08 141.58 217.25 141.59 217.6 141.62 217.69 141.62 217.78 141.63 217.96 141.64 218.31 141.66 218.39 141.67 218.48 141.68 218.66 141.68 219.01 141.7 219.09 141.71 219.18 141.71 219.36 141.72 219.71 141.73 219.79 141.74 220.23 141.75 220.4 141.76 220.48 141.76 220.57 141.76 220.74 141.77 220.83 141.77 220.91 141.77 221.09 141.77 221.17 141.78 221.26 141.78 221.34 141.78 221.52 141.78 221.6 141.78 221.77 141.78 221.86 141.79 222.2 141.79 222.29 141.79 222.8 141.79 222.89 141.79 223.23 141.79 223.32 141.78 223.49 141.78 223.58 141.78 223.67 141.78 223.84 141.78 223.92 141.77 224.01 141.77 224.18 141.77 224.35 141.76 224.53 141.76 224.61 141.76 224.7 141.75 224.87 141.75 225.21 141.74 225.31 141.74 225.4 141.73 225.59 141.72 225.96 141.71 226.05 141.7 226.14 141.7 226.33 141.69 226.71 141.66 226.8 141.66 226.89 141.66 227.08 141.64 227.45 141.62 228.2 141.56 228.29 141.55 228.38 141.55 228.94 141.5 229.69 141.42 229.88 141.41 230.06 141.39 230.44 141.35 231.18 141.26 231.36 141.24 231.53 141.22 231.88 141.17 232.57 141.07 232.66 141.06 232.75 141.05 233.27 140.97 233.97 140.86 234.06 140.85 234.14 140.83 234.31 140.81 234.66 140.75 235.36 140.62 236.75 140.36 236.85 140.34 236.94 140.32 237.13 140.28 237.51 140.2 238.26 140.04 239.77 139.68 239.96 139.64 240.15 139.59 240.53 139.5 241.28 139.3 242.79 138.89 242.88 138.86 242.97 138.83 243.53 138.67 244.27 138.44 245.75 137.97 248.72 136.94 248.89 136.87 249.06 136.81 249.41 136.68 250.1 136.41 251.48 135.86 254.25 134.67 254.62 134.5 255.75 133.99 257.25 133.26 260.24 131.73 265.84 128.52 271.33 124.95 277.28 120.59 282.83 116.07 288.86 110.67 294.48 105.17 299.99 99.35 305.97 92.54 311.55 85.74 317.6 77.86 323.54 69.63 329.08 61.5 335.08 52.19 340.69 43.05 346.18 33.65 352.15 22.96 357.71 12.54 357.9 12.17 358.1 11.8 358.49 11.05 359.26 9.55 360.82 6.53 361.01 6.16 361.21 5.77 361.59 5.01 362.37 3.48 362.47 3.29 362.56 3.1 362.76 2.71 363.15 1.94 363.24 1.75 363.34 1.55 363.54 1.17 363.63 0.97 363.73 0.78 363.83 0.58 363.92 0.39 363.92 180.91 81.13 180.91 81.13 0.39"/><polyline class="cls-2" points="81.13 0.39 81.47 1.08 81.82 1.78 82.52 3.15 83.9 5.89 86.68 11.27 92.69 22.58 98.31 32.68 103.82 42.14 109.8 51.92 115.38 60.59 121.42 69.49 127.35 77.73 132.89 84.97 138.89 92.32 144.49 98.73 149.99 104.58 155.94 110.44 161.51 115.46 167.53 120.4 173.45 124.76 178.97 128.37 184.96 131.81 185.04 131.85 185.13 131.9 185.31 131.99 185.66 132.17 186.35 132.54 187.75 133.24 190.54 134.56 190.64 134.6 190.73 134.64 190.92 134.72 191.3 134.89 192.06 135.22 193.57 135.86 193.66 135.9 193.76 135.94 193.95 136.01 194.32 136.16 195.09 136.46 196.6 137.03 196.78 137.1 196.97 137.17 197.34 137.3 198.08 137.56 199.57 138.06 199.66 138.09 199.75 138.12 199.94 138.18 200.31 138.3 201.05 138.53 202.54 138.96 202.71 139.01 203.23 139.16 203.93 139.34 205.31 139.69 205.4 139.72 205.49 139.74 206 139.86 206.7 140.02 208.09 140.32 208.18 140.34 208.28 140.35 208.46 140.39 208.84 140.46 209.59 140.6 209.68 140.62 209.78 140.64 209.96 140.67 210.34 140.74 211.09 140.86 211.28 140.9 211.47 140.93 211.84 140.98 212.59 141.09 214.1 141.29 214.19 141.3 214.27 141.31 214.45 141.33 214.8 141.37 215.5 141.44 215.59 141.45 215.68 141.46 215.85 141.47 216.2 141.5 216.9 141.56 216.99 141.57 217.08 141.58 217.25 141.59 217.6 141.62 217.69 141.62 217.78 141.63 217.96 141.64 218.31 141.66 218.39 141.67 218.48 141.68 218.66 141.68 219.01 141.7 219.09 141.71 219.18 141.71 219.36 141.72 219.71 141.73 219.79 141.74 220.23 141.75 220.4 141.76 220.48 141.76 220.57 141.76 220.74 141.77 220.83 141.77 220.91 141.77 221.09 141.77 221.17 141.78 221.26 141.78 221.34 141.78 221.52 141.78 221.6 141.78 221.77 141.78 221.86 141.79 222.2 141.79 222.29 141.79 222.8 141.79 222.89 141.79 223.23 141.79 223.32 141.78 223.49 141.78 223.58 141.78 223.67 141.78 223.84 141.78 223.92 141.77 224.01 141.77 224.18 141.77 224.35 141.76 224.53 141.76 224.61 141.76 224.7 141.75 224.87 141.75 225.21 141.74 225.31 141.74 225.4 141.73 225.59 141.72 225.96 141.71 226.05 141.7 226.14 141.7 226.33 141.69 226.71 141.66 226.8 141.66 226.89 141.66 227.08 141.64 227.45 141.62 228.2 141.56 228.29 141.55 228.38 141.55 228.94 141.5 229.69 141.42 229.88 141.41 230.06 141.39 230.44 141.35 231.18 141.26 231.36 141.24 231.53 141.22 231.88 141.17 232.57 141.07 232.66 141.06 232.75 141.05 233.27 140.97 233.97 140.86 234.06 140.85 234.14 140.83 234.31 140.81 234.66 140.75 235.36 140.62 236.75 140.36 236.85 140.34 236.94 140.32 237.13 140.28 237.51 140.2 238.26 140.04 239.77 139.68 239.96 139.64 240.15 139.59 240.53 139.5 241.28 139.3 242.79 138.89 242.88 138.86 242.97 138.83 243.53 138.67 244.27 138.44 245.75 137.97 248.72 136.94 248.89 136.87 249.06 136.81 249.41 136.68 250.1 136.41 251.48 135.86 254.25 134.67 254.62 134.5 255.75 133.99 257.25 133.26 260.24 131.73 265.84 128.52 271.33 124.95 277.28 120.59 282.83 116.07 288.86 110.67 294.48 105.17 299.99 99.35 305.97 92.54 311.55 85.74 317.6 77.86 323.54 69.63 329.08 61.5 335.08 52.19 340.69 43.05 346.18 33.65 352.15 22.96 357.71 12.54 357.9 12.17 358.1 11.8 358.49 11.05 359.26 9.55 360.82 6.53 361.01 6.16 361.21 5.77 361.59 5.01 362.37 3.48 362.47 3.29 362.56 3.1 362.76 2.71 363.15 1.94 363.24 1.75 363.34 1.55 363.54 1.17 363.63 0.97 363.73 0.78 363.83 0.58 363.92 0.39"/></g><g id="Text"><text class="cls-3" transform="translate(229.14 58.42)">ω</text><text class="cls-4" transform="translate(263.05 80.11)">ρ</text><text class="cls-5" transform="translate(343.25 89.94)">mω</text><text class="cls-5" transform="translate(362.34 85.95) scale(0.58)">2</text><text class="cls-5" transform="translate(366.23 89.94)">ρ</text><text class="cls-5" transform="translate(302.57 133.09)">mg</text><text class="cls-5" transform="translate(338.56 133.09)">mg</text><text class="cls-6" transform="translate(355.23 137.09) scale(0.58)">e<tspan class="cls-7" x="6.67" y="0">f</tspan><tspan x="9.8" y="0">f</tspan></text><text class="cls-8" transform="translate(277.09 47.75)">F<tspan class="cls-9" x="7.33" y="0">’</tspan></text><text class="cls-5" transform="translate(329.22 80.15)">θ</text><text class="cls-5" transform="translate(313.18 113.89)">θ</text></g><g id="Arrows"><path class="cls-10" d="M321.15,73.74a16.38,16.38,0,0,1,6.16,12.82"/><path class="cls-10" d="M321.15,99.37A16.34,16.34,0,0,1,310.9,103"/><line class="cls-11" x1="222.53" y1="141.79" x2="222.53" y2="58.59"/><polygon class="cls-12" points="222.53 51.53 226.59 61.48 222.53 59.12 218.46 61.48 222.53 51.53"/><line class="cls-13" x1="222.53" y1="86.56" x2="307.37" y2="86.56"/><polygon class="cls-14" points="310.9 86.56 305.92 88.59 307.1 86.56 305.92 84.52 310.9 86.56"/><line class="cls-15" x1="310.9" y1="86.56" x2="282.23" y2="50.72"/><line class="cls-16" x1="310.9" y1="86.56" x2="284.44" y2="53.48"/><polygon class="cls-17" points="282.23 50.72 286.93 53.34 284.6 53.68 283.75 55.88 282.23 50.72"/><line class="cls-18" x1="310.9" y1="86.56" x2="337.36" y2="119.63"/><polygon class="cls-19" points="339.57 122.39 334.87 119.78 337.2 119.43 338.05 117.24 339.57 122.39"/><line class="cls-18" x1="310.9" y1="86.56" x2="310.9" y2="118.86"/><polygon class="cls-19" points="310.9 122.39 308.87 117.42 310.9 118.6 312.93 117.42 310.9 122.39"/><line class="cls-18" x1="310.9" y1="86.56" x2="336.04" y2="86.56"/><polygon class="cls-19" points="339.57 86.56 334.59 88.59 335.77 86.56 334.59 84.52 339.57 86.56"/><polyline class="cls-15" points="263.06 146.36 263.08 146.32 263.11 146.29 263.17 146.22 263.28 146.08 263.5 145.8 263.94 145.25 264.83 144.14 266.75 141.74 268.54 139.5 270.3 137.3 272.21 134.92 273.99 132.69 275.92 130.28 277.81 127.92 279.58 125.71 281.49 123.31 283.28 121.08 285.03 118.88 286.94 116.51 288.71 114.29 290.63 111.88 292.53 109.52 294.29 107.32 296.2 104.93 297.98 102.7 299.91 100.29 301.81 97.92 303.58 95.7 305.5 93.31 307.29 91.07 309.05 88.87 310.95 86.49 312.73 84.27 314.66 81.86 316.55 79.49 318.31 77.29 320.23 74.9 322.01 72.66 323.76 70.47 325.66 68.1 327.44 65.88 329.36 63.48 331.15 61.24 332.91 59.04 334.82 56.65 336.6 54.43 338.53 52.01 340.43 49.64 342.19 47.43 344.11 45.04 345.9 42.8 347.66 40.61 349.56 38.23 351.33 36.01 351.4 35.93 351.46 35.85 351.58 35.7 351.83 35.39 352.33 34.77 352.45 34.62 352.58 34.46 352.82 34.15 352.95 34 353.07 33.84 353.1 33.8 353.19 33.69 353.23 33.65 353.32 33.53"/><polyline class="cls-20" points="263.06 146.36 263.08 146.32 263.11 146.29 263.17 146.22 263.28 146.08 263.5 145.8 263.94 145.25 264.31 144.8"/><polyline class="cls-21" points="266.81 141.66 268.54 139.5 270.3 137.3 272.21 134.92 273.99 132.69 275.92 130.28 277.81 127.92 279.58 125.71 281.49 123.31 283.28 121.08 285.03 118.88 286.94 116.51 288.71 114.29 290.63 111.88 292.53 109.52 294.29 107.32 296.19 104.93 297.98 102.7 299.91 100.29 301.81 97.92 303.58 95.7 305.5 93.31 307.29 91.07 309.05 88.87 310.95 86.49 312.73 84.27 314.66 81.86 316.55 79.49 318.31 77.29 320.23 74.9 322.01 72.66 323.76 70.47 325.66 68.1 327.44 65.88 329.36 63.48 331.15 61.24 332.91 59.04 334.82 56.65 336.6 54.43 338.53 52.01 340.43 49.64 342.19 47.43 344.11 45.04 345.9 42.8 347.66 40.61 349.56 38.23 350.81 36.66"/><polyline class="cls-20" points="352.07 35.09 352.33 34.77 352.45 34.62 352.58 34.46 352.82 34.15 352.95 34 353.07 33.84 353.1 33.8 353.19 33.69 353.23 33.65 353.32 33.53"/><polyline class="cls-22" points="339.57 86.56 339.57 122.39 310.9 122.39"/></g></svg>