<svg xmlns="http://www.w3.org/2000/svg" viewBox="0 0 446.46 213.63"><defs><style>.cls-1,.cls-2,.cls-3,.cls-4,.cls-5{fill:none;stroke-miterlimit:3.25;}.cls-1{stroke:#000;stroke-width:0.36px;}.cls-2{stroke:#e5483f;}.cls-2,.cls-4,.cls-5{stroke-linecap:round;stroke-width:5.04px;}.cls-3{stroke:#2e4e79;stroke-linecap:square;stroke-width:1.44px;}.cls-4{stroke:#e5943e;}.cls-5{stroke:#55a69f;}.cls-11,.cls-6{font-size:12px;fill:#231f20;}.cls-6{font-family:Helvetica, Helvetica;}.cls-7{letter-spacing:-0.1em;}.cls-8{letter-spacing:0.12em;}.cls-9{letter-spacing:-0.16em;}.cls-10{letter-spacing:0.1em;}.cls-11{font-family:Helvetica-Oblique, Helvetica;}</style></defs><title>Potentialenergylandscape</title><g id="Graphics"><g id="Potentialenergylandscape"><path class="cls-1" d="M347.49,198.84v-2.07m7.61,2.07v-2.07m7.61,2.07v-2.07M67.54,198.84H364.86"/><line class="cls-2" x1="187.65" y1="198.84" x2="187.65" y2="198.84"/><polyline class="cls-3" points="73.48 36.48 73.57 36.65 73.66 36.81 73.83 37.15 74.19 37.85 74.89 39.3 76.29 42.44 76.37 42.65 76.46 42.86 76.64 43.28 76.99 44.14 77.69 45.91 79.09 49.69 79.18 49.95 79.28 50.22 79.47 50.76 79.85 51.85 80.61 54.1 82.12 58.81 85.16 69 90.83 89.64 96.39 109.72 96.49 110.05 96.58 110.37 96.77 111.01 97.15 112.29 97.9 114.8 99.41 119.63 99.5 119.92 99.6 120.22 99.78 120.8 100.16 121.94 100.92 124.17 102.42 128.38 102.51 128.62 102.6 128.85 102.78 129.31 103.13 130.22 103.83 131.98 103.92 132.19 104.01 132.41 104.18 132.83 104.53 133.65 105.24 135.24 105.33 135.43 105.41 135.62 105.59 135.99 105.94 136.73 106.64 138.13 108.05 140.65 108.15 140.8 108.24 140.96 108.43 141.26 108.81 141.85 109.58 142.94 109.67 143.07 109.77 143.19 109.96 143.44 110.34 143.91 111.1 144.77 111.2 144.87 111.29 144.96 111.48 145.15 111.86 145.51 111.96 145.59 112.06 145.67 112.25 145.83 112.63 146.13 112.72 146.2 112.82 146.27 113.01 146.4 113.1 146.47 113.2 146.53 113.39 146.64 113.48 146.7 113.58 146.75 113.77 146.86 114.15 147.04 114.25 147.09 114.34 147.13 114.53 147.2 114.62 147.23 114.71 147.27 114.9 147.33 114.99 147.36 115.09 147.38 115.18 147.41 115.28 147.43 115.37 147.45 115.46 147.47 115.56 147.49 115.65 147.51 115.74 147.52 115.84 147.54 115.93 147.55 116.02 147.56 116.12 147.57 116.21 147.58 116.31 147.58 116.4 147.59 116.49 147.59 116.59 147.59 116.68 147.59 116.77 147.59 116.87 147.59 116.96 147.58 117.05 147.57 117.15 147.57 117.24 147.56 117.33 147.55 117.43 147.53 117.52 147.52 117.61 147.5 117.71 147.49 117.89 147.45 117.99 147.43 118.08 147.41 118.27 147.36 118.36 147.33 118.46 147.3 118.64 147.24 118.74 147.21 118.83 147.18 119.02 147.11 119.11 147.07 119.2 147.03 119.39 146.95 119.49 146.9 119.58 146.86 119.77 146.77 120.14 146.57 120.23 146.52 120.32 146.47 120.49 146.36 120.84 146.14 121.54 145.65 121.63 145.59 121.71 145.52 121.89 145.38 122.24 145.1 122.93 144.49 123.02 144.41 123.11 144.33 123.28 144.17 123.63 143.83 124.33 143.12 125.73 141.58 125.82 141.47 125.92 141.36 126.11 141.14 126.48 140.69 127.24 139.77 128.76 137.84 131.78 133.91 131.87 133.79 131.96 133.68 132.14 133.45 132.49 133 133.2 132.12 134.61 130.42 134.7 130.32 134.79 130.22 134.97 130.01 135.32 129.62 136.03 128.85 137.44 127.46 137.53 127.38 137.61 127.3 137.79 127.14 138.13 126.84 138.83 126.29 138.91 126.22 139 126.16 139.17 126.03 139.52 125.78 140.21 125.34 140.3 125.29 140.38 125.24 140.56 125.15 140.9 124.97 140.99 124.92 141.08 124.88 141.25 124.81 141.6 124.66 141.68 124.62 141.77 124.59 141.94 124.53 142.03 124.5 142.12 124.47 142.29 124.42 142.38 124.39 142.46 124.37 142.64 124.33 142.72 124.31 142.81 124.29 142.98 124.25 143.08 124.23 143.17 124.22 143.26 124.2 143.36 124.19 143.45 124.18 143.55 124.17 143.64 124.16 143.74 124.15 143.83 124.15 143.92 124.14 144.02 124.14 144.11 124.14 144.21 124.14 144.3 124.14 144.39 124.14 144.49 124.15 144.58 124.15 144.68 124.16 144.77 124.17 144.86 124.18 144.96 124.19 145.05 124.2 145.15 124.22 145.24 124.23 145.33 124.25 145.43 124.27 145.52 124.29 145.62 124.31 145.71 124.33 145.8 124.36 145.99 124.41 146.09 124.44 146.18 124.47 146.37 124.54 146.46 124.58 146.56 124.61 146.74 124.69 146.84 124.73 146.93 124.78 147.12 124.87 147.5 125.07 147.59 125.12 147.68 125.17 147.87 125.29 148.25 125.54 148.34 125.61 148.44 125.67 148.62 125.81 149 126.11 149.09 126.18 149.18 126.26 149.35 126.41 149.7 126.73 150.4 127.44 150.49 127.53 150.58 127.63 150.75 127.82 151.1 128.23 151.81 129.1 151.89 129.22 151.98 129.34 152.16 129.57 152.51 130.06 153.21 131.1 154.61 133.41 154.71 133.57 154.8 133.74 154.99 134.08 155.37 134.78 156.13 136.24 157.65 139.39 160.69 146.5 160.79 146.73 160.88 146.96 161.07 147.43 161.44 148.38 162.19 150.3 163.68 154.25 166.67 162.38 166.75 162.62 166.84 162.86 167.02 163.34 167.36 164.29 168.06 166.2 169.45 169.97 169.54 170.21 169.63 170.44 169.8 170.91 170.15 171.83 170.84 173.66 172.24 177.22 172.33 177.46 172.43 177.7 172.62 178.16 172.99 179.09 173.75 180.9 175.26 184.34 175.35 184.54 175.45 184.75 175.64 185.15 176.01 185.95 176.77 187.49 178.28 190.31 178.37 190.47 178.46 190.62 178.63 190.92 178.98 191.51 179.69 192.63 179.78 192.76 179.87 192.89 180.04 193.15 180.39 193.66 181.1 194.6 181.19 194.71 181.28 194.82 181.45 195.04 181.8 195.45 181.89 195.55 181.98 195.65 182.16 195.84 182.51 196.21 182.6 196.3 182.68 196.39 182.86 196.56 183.21 196.88 183.3 196.96 183.39 197.03 183.57 197.18 183.92 197.45 184.01 197.52 184.11 197.59 184.3 197.72 184.4 197.78 184.49 197.84 184.68 197.96 184.78 198.01 184.87 198.07 185.06 198.17 185.45 198.35 185.54 198.39 185.64 198.43 185.83 198.51 185.92 198.54 186.02 198.57 186.21 198.63 186.3 198.66 186.4 198.68 186.5 198.7 186.59 198.72 186.69 198.74 186.78 198.76 186.88 198.78 186.97 198.79 187.07 198.8 187.16 198.81 187.26 198.82 187.35 198.83 187.45 198.83 187.55 198.84 187.64 198.84 187.74 198.84 187.83 198.84 187.93 198.83 188.02 198.82 188.12 198.82 188.21 198.81 188.31 198.79 188.41 198.78 188.5 198.77 188.6 198.75 188.69 198.73 188.79 198.71 188.88 198.69 188.98 198.66 189.07 198.64 189.26 198.58 189.36 198.55 189.46 198.52 189.65 198.45 189.74 198.41 189.84 198.37 190.03 198.28 190.12 198.24 190.22 198.19 190.4 198.1 190.78 197.88 190.87 197.82 190.97 197.77 191.15 197.64 191.53 197.38 191.62 197.31 191.72 197.23 191.9 197.09 192.28 196.77 193.03 196.06 193.12 195.96 193.22 195.87 193.4 195.67 193.78 195.25 194.53 194.35 194.62 194.23 194.71 194.11 194.9 193.87 195.28 193.36 196.03 192.29 196.12 192.16 196.2 192.03 196.38 191.76 196.73 191.21 197.43 190.07 198.82 187.6 201.62 182.06 201.72 181.86 201.81 181.66 202 181.26 202.38 180.45 203.14 178.8 204.66 175.43 207.69 168.57 207.78 168.38 207.87 168.18 208.04 167.78 208.4 166.99 209.11 165.41 210.52 162.34 210.61 162.15 210.7 161.96 210.88 161.59 211.23 160.84 211.94 159.39 213.36 156.6 213.44 156.44 213.53 156.28 213.7 155.95 214.05 155.31 214.74 154.07 214.83 153.92 214.92 153.77 215.09 153.47 215.44 152.88 216.13 151.76 216.22 151.62 216.31 151.49 216.48 151.22 216.83 150.7 217.52 149.7 217.61 149.58 217.69 149.46 217.87 149.23 218.22 148.78 218.91 147.92 219 147.81 219.1 147.7 219.29 147.49 219.66 147.08 219.76 146.98 219.85 146.88 220.04 146.69 220.42 146.33 220.51 146.24 220.6 146.15 220.79 145.99 221.17 145.67 221.26 145.59 221.36 145.52 221.55 145.37 221.92 145.1 222.02 145.04 222.11 144.98 222.3 144.86 222.39 144.8 222.49 144.74 222.68 144.63 222.77 144.58 222.86 144.53 223.05 144.44 223.43 144.26 223.52 144.22 223.62 144.19 223.81 144.12 223.9 144.08 223.99 144.05 224.18 143.99 224.28 143.97 224.37 143.94 224.46 143.91 224.56 143.89 224.65 143.87 224.75 143.85 224.84 143.84 224.94 143.82 225.02 143.8 225.11 143.79 225.2 143.78 225.29 143.77 225.37 143.76 225.46 143.75 225.55 143.75 225.64 143.75 225.73 143.74 225.81 143.74 225.9 143.74 225.99 143.74 226.08 143.74 226.16 143.75 226.25 143.75 226.34 143.76 226.43 143.76 226.52 143.77 226.6 143.78 226.69 143.79 226.78 143.81 226.87 143.82 226.96 143.84 227.04 143.85 227.13 143.87 227.22 143.89 227.4 143.93 227.48 143.96 227.57 143.98 227.75 144.04 227.83 144.06 227.92 144.09 228.1 144.16 228.19 144.19 228.27 144.23 228.45 144.3 228.54 144.34 228.63 144.38 228.8 144.46 229.15 144.64 229.24 144.69 229.33 144.74 229.5 144.85 229.85 145.07 230.56 145.57 230.65 145.64 230.75 145.72 230.94 145.87 231.32 146.2 232.08 146.91 232.18 147 232.27 147.1 232.46 147.3 232.84 147.7 233.6 148.57 233.7 148.68 233.79 148.8 233.99 149.03 234.37 149.51 235.13 150.52 236.65 152.71 236.75 152.86 236.84 153 237.03 153.28 237.4 153.87 238.15 155.07 239.64 157.57 242.63 162.84 242.72 163 242.81 163.15 242.98 163.47 243.33 164.09 244.03 165.33 245.42 167.78 245.51 167.93 245.6 168.08 245.77 168.38 246.12 168.97 246.82 170.14 248.22 172.39 248.31 172.53 248.4 172.68 248.59 172.97 248.97 173.54 249.73 174.64 249.82 174.77 249.92 174.91 250.1 175.16 250.48 175.68 251.24 176.65 251.34 176.77 251.43 176.88 251.62 177.11 252 177.56 252.75 178.38 252.85 178.48 252.94 178.58 253.13 178.77 253.51 179.13 254.26 179.79 254.35 179.86 254.44 179.93 254.62 180.07 254.97 180.33 255.06 180.39 255.15 180.45 255.32 180.56 255.68 180.78 255.77 180.83 255.85 180.88 256.03 180.98 256.12 181.02 256.21 181.07 256.38 181.15 256.47 181.19 256.56 181.23 256.74 181.3 256.82 181.34 256.91 181.37 257.09 181.43 257.18 181.46 257.27 181.49 257.35 181.51 257.44 181.54 257.53 181.56 257.62 181.59 257.8 181.63 257.88 181.64 257.97 181.66 258.06 181.67 258.15 181.69 258.24 181.7 258.32 181.71 258.41 181.72 258.5 181.72 258.59 181.73 258.68 181.74 258.77 181.74 258.86 181.74 258.94 181.74 259.03 181.74 259.12 181.74 259.21 181.73 259.3 181.72 259.38 181.72 259.47 181.71 259.56 181.7 259.65 181.69 259.74 181.67 259.83 181.66 259.92 181.64 260 181.62 260.09 181.6 260.17 181.58 260.26 181.56 260.35 181.54 260.43 181.51 260.61 181.46 260.69 181.43 260.78 181.4 260.95 181.33 261.3 181.18 261.39 181.14 261.47 181.1 261.64 181.01 261.99 180.81 262.08 180.76 262.16 180.7 262.34 180.59 262.68 180.34 262.77 180.28 262.86 180.21 263.03 180.07 263.38 179.78 263.46 179.7 263.55 179.62 263.72 179.46 264.07 179.12 264.15 179.03 264.24 178.94 264.41 178.76 264.76 178.37 265.45 177.52 265.55 177.4 265.64 177.28 265.83 177.03 266.2 176.5 266.95 175.37 267.05 175.22 267.14 175.07 267.33 174.76 267.7 174.13 268.46 172.79 268.55 172.62 268.64 172.44 268.83 172.08 269.21 171.35 269.96 169.81 271.46 166.46 271.55 166.26 271.64 166.05 271.81 165.63 272.16 164.78 272.86 163.03 274.26 159.33 277.07 151.26 283.14 132.05 283.23 131.76 283.32 131.48 283.5 130.91 283.85 129.76 284.56 127.49 285.98 123.01 288.82 114.4 288.91 114.14 288.99 113.89 289.17 113.39 289.52 112.39 290.21 110.43 291.6 106.67 291.69 106.44 291.78 106.22 291.95 105.77 292.3 104.88 292.99 103.15 294.38 99.9 294.48 99.69 294.57 99.48 294.76 99.07 295.14 98.26 295.89 96.71 295.99 96.52 296.08 96.33 296.27 95.96 296.65 95.24 297.4 93.88 297.5 93.71 297.59 93.55 297.78 93.22 298.15 92.6 298.91 91.42 299 91.28 299.1 91.14 299.29 90.87 299.67 90.34 300.42 89.36 300.51 89.25 300.6 89.15 300.77 88.94 301.12 88.54 301.21 88.44 301.3 88.34 301.48 88.15 301.83 87.8 301.92 87.71 302 87.62 302.18 87.46 302.53 87.14 303.24 86.57 303.32 86.51 303.41 86.44 303.59 86.32 303.94 86.09 304.03 86.03 304.12 85.98 304.29 85.88 304.64 85.69 304.73 85.64 304.82 85.6 305 85.52 305.08 85.47 305.17 85.44 305.35 85.36 305.44 85.33 305.52 85.3 305.7 85.23 305.79 85.2 305.88 85.17 306.05 85.12 306.15 85.1 306.24 85.07 306.34 85.05 306.43 85.03 306.53 85 306.62 84.98 306.81 84.95 306.91 84.93 307.01 84.92 307.1 84.91 307.2 84.89 307.29 84.88 307.39 84.87 307.48 84.87 307.58 84.86 307.67 84.86 307.77 84.85 307.86 84.85 307.96 84.85 308.05 84.85 308.15 84.85 308.25 84.85 308.34 84.86 308.44 84.86 308.53 84.87 308.63 84.88 308.72 84.89 308.82 84.89 308.91 84.91 309.01 84.92 309.1 84.93 309.2 84.95 309.3 84.97 309.49 85 309.58 85.02 309.68 85.04 309.87 85.09 309.96 85.11 310.06 85.14 310.25 85.19 310.63 85.31 310.73 85.34 310.82 85.38 311.01 85.45 311.39 85.6 311.49 85.64 311.58 85.68 311.77 85.77 312.15 85.95 312.25 86 312.34 86.04 312.53 86.14 312.9 86.35 313.65 86.79 313.75 86.85 313.84 86.91 314.03 87.03 314.4 87.28 315.15 87.81 315.25 87.88 315.34 87.95 315.53 88.08 315.9 88.37 316.65 88.95 318.15 90.16 318.24 90.23 318.32 90.31 318.5 90.45 318.85 90.74 319.55 91.31 320.94 92.45 321.03 92.52 321.12 92.58 321.29 92.72 321.64 92.99 322.34 93.52 323.74 94.48 323.83 94.54 323.93 94.6 324.12 94.72 324.5 94.94 324.59 95 324.69 95.05 324.87 95.16 325.25 95.36 325.35 95.41 325.44 95.46 325.63 95.55 326.01 95.72 326.11 95.76 326.2 95.8 326.39 95.88 326.77 96.02 326.86 96.05 326.96 96.08 327.15 96.14 327.24 96.17 327.34 96.2 327.53 96.25 327.62 96.28 327.72 96.3 327.81 96.32 327.9 96.34 328 96.36 328.1 96.38 328.28 96.41 328.38 96.43 328.47 96.44 328.57 96.45 328.66 96.47 328.76 96.47 328.85 96.48 328.95 96.49 329.04 96.5 329.14 96.5 329.23 96.5 329.33 96.51 329.42 96.51 329.51 96.51 329.61 96.51 329.7 96.5 329.8 96.5 329.89 96.49 329.98 96.48 330.06 96.48 330.15 96.47 330.24 96.46 330.33 96.45 330.42 96.43 330.51 96.42 330.6 96.41 330.68 96.39 330.77 96.37 330.86 96.35 330.95 96.33 331.04 96.31 331.21 96.26 331.3 96.24 331.39 96.21 331.57 96.16 331.66 96.12 331.75 96.09 331.92 96.03 332.01 95.99 332.1 95.95 332.27 95.87 332.63 95.7 332.72 95.65 332.81 95.61 332.98 95.5 333.34 95.29 333.42 95.23 333.51 95.17 333.69 95.05 334.04 94.78 334.13 94.71 334.22 94.64 334.4 94.5 334.75 94.19 335.46 93.5 335.55 93.41 335.63 93.31 335.81 93.12 336.15 92.72 336.85 91.86 336.93 91.75 337.02 91.63 337.19 91.39 337.54 90.9 338.23 89.84 338.32 89.71 338.41 89.56 338.58 89.28 338.93 88.69 339.62 87.44 341.01 84.67 341.1 84.46 341.19 84.26 341.38 83.85 341.76 83 342.51 81.22 344.02 77.35 344.11 77.1 344.2 76.84 344.39 76.32 344.77 75.26 345.52 73.07 347.02 68.4 347.11 68.12 347.2 67.84 347.38 67.26 347.73 66.1 348.43 63.73 349.83 58.77 352.64 48.16 352.74 47.77 352.84 47.39 353.03 46.62 353.42 45.06 354.21 41.91 355.78 35.5 355.87 35.1 355.97 34.69 356.17 33.88 356.56 32.26 357.34 28.99 357.44 28.58 357.54 28.17 357.74 27.35 358.13 25.71 358.23 25.3 358.32 24.89 358.52 24.07 358.62 23.66 358.71 23.25 358.81 22.84 358.91 22.43"/><path class="cls-4" d="M116.62,147.59h0M258.9,181.74h0m70.53-85.23h0"/><path class="cls-5" d="M144.17,124.14h0m81.72,19.6h0M308,84.85h0"/><line class="cls-1" x1="73.48" y1="198.84" x2="73.48" y2="195.38"/><path class="cls-1" d="M81.1,198.84v-2.07m7.61,2.07v-2.07m7.61,2.07v-2.07m7.61,2.07v-2.07m7.61,2.07v-3.45"/><path class="cls-1" d="M119.15,198.84v-2.07m7.61,2.07v-2.07m7.61,2.07v-2.07m7.61,2.07v-2.07m7.61,2.07v-3.45"/><path class="cls-1" d="M157.21,198.84v-2.07m7.61,2.07v-2.07m7.61,2.07v-2.07m7.61,2.07v-2.07m7.61,2.07v-3.45m7.61,3.45v-2.07m7.61,2.07v-2.07m7.61,2.07v-2.07m7.61,2.07v-2.07m7.61,2.07v-3.45"/><path class="cls-1" d="M233.32,198.84v-2.07m7.61,2.07v-2.07m7.61,2.07v-2.07m7.61,2.07v-2.07m7.61,2.07v-3.45"/><path class="cls-1" d="M271.38,198.84v-2.07m7.61,2.07v-2.07m7.61,2.07v-2.07m7.61,2.07v-2.07m7.61,2.07v-3.45"/><path class="cls-1" d="M309.44,198.84v-2.07m7.61,2.07v-2.07m7.61,2.07v-2.07m7.61,2.07v-2.07m7.61,2.07v-3.45"/><path class="cls-1" d="M187.65,198.84h3.45m-3.45-9.13h2.07m-2.07-9.13h2.07m-2.07-9.13h2.07m-2.07-9.13h2.07m-2.07-9.13h3.45"/><path class="cls-1" d="M187.65,144.05h2.07m-2.07-9.13h2.07m-2.07-9.13h2.07m-2.07-9.13h2.07m-2.07-9.13h3.45"/><path class="cls-1" d="M187.65,98.39h2.07m-2.07-9.13h2.07m-2.07-9.13h2.07M187.65,71h2.07m-2.07-9.13h3.45"/><path class="cls-1" d="M187.65,52.74h2.07m-2.07-9.13h2.07m-2.07-9.13h2.07m-2.07-9.13h2.07m-2.07,177.17V18.76"/><text class="cls-6" transform="translate(68.4 211.14)"><tspan xml:space="preserve">-3        -2        -1                    </tspan><tspan class="cls-7" x="152.03" y="0"> </tspan><tspan x="154.17" y="0" xml:space="preserve">1        </tspan><tspan class="cls-8" x="187.51" y="0"> </tspan><tspan x="192.29" y="0" xml:space="preserve">2         </tspan><tspan class="cls-9" x="228.97" y="0"> </tspan><tspan x="230.38" y="0" xml:space="preserve">3       </tspan><tspan class="cls-10" x="260.39" y="0"> </tspan><tspan x="264.93" y="0" xml:space="preserve"> 4</tspan></text><text class="cls-11" transform="translate(368.75 201.25)">x</text><text class="cls-6" transform="translate(170.35 64.96)">15<tspan x="0" y="46.2">10</tspan><tspan x="0" y="92.4">5</tspan></text><text class="cls-11" transform="translate(177 13.67)">U(x)</text></g></g></svg>