<svg xmlns="http://www.w3.org/2000/svg" viewBox="0 0 446.46 216.35"><defs><style>.cls-1{fill:#bcbec0;}.cls-2,.cls-5,.cls-7,.cls-8{fill:none;stroke-miterlimit:10;}.cls-2,.cls-8{stroke:#808285;}.cls-3,.cls-4{font-size:12px;}.cls-3,.cls-4,.cls-6{fill:#231f20;}.cls-3{font-family:Helvetica, Helvetica;}.cls-4{font-family:Helvetica-Oblique, Helvetica;}.cls-5{stroke:#231f20;}.cls-7{stroke:#939598;}.cls-8{stroke-dasharray:4 4;}</style></defs><title>protractor</title><g id="Graphics"><polyline class="cls-1" points="21.17 195.68 157.21 195.68 21.17 59.64 21.17 195.68"/><polygon class="cls-2" points="21.17 195.68 157.21 195.68 21.17 59.64 21.17 195.68"/><path class="cls-2" d="M21.17,195.68l68-68m24.42,24a34,34,0,1,1-48.1-48.1"/><polyline class="cls-1" points="293.25 195.68 429.29 195.68 293.25 59.64 293.25 195.68"/><path class="cls-2" d="M293.25,195.68l68-68m24.42,24a34,34,0,0,1-48.1-48.1m-44.35,92.15h136l-136-136Z"/></g><g id="Text"><g id="protractor"><text class="cls-3" transform="translate(67.71 212.69)">10 cm</text><text class="cls-3" transform="translate(13.72 154.5) rotate(-90)">10 cm</text><text class="cls-4" transform="translate(183.69 212.69)">x</text><text class="cls-4" transform="translate(4.16 33.32)">y</text><text class="cls-3" transform="translate(267.8 164.79)">F</text><text class="cls-3" transform="translate(275.13 168.78) scale(0.58)">1</text><text class="cls-3" transform="translate(431.57 164.79)">F</text><text class="cls-3" transform="translate(438.9 168.78) scale(0.58)">2</text><text class="cls-3" transform="translate(311.29 56.95)">F</text><text class="cls-3" transform="translate(318.62 60.94) scale(0.58)">3</text><text class="cls-3" transform="translate(257.18 11.81)">(b)</text><text class="cls-3" transform="translate(4.16 11.81)">(a)</text></g></g><g id="Arrows"><line class="cls-5" x1="21.17" y1="212.69" x2="21.17" y2="29.16"/><polygon class="cls-6" points="21.17 25.63 23.2 30.61 21.17 29.43 19.14 30.61 21.17 25.63"/><line class="cls-5" x1="187.69" y1="195.68" x2="4.16" y2="195.68"/><polygon class="cls-6" points="191.22 195.68 186.25 193.65 187.43 195.68 186.25 197.72 191.22 195.68"/><path class="cls-7" d="M429.29,170.21a24,24,0,0,0-18.3,7"/><line class="cls-8" x1="290.55" y1="195.54" x2="257.18" y2="195.54"/><path class="cls-2" d="M275.35,177.65a24,24,0,0,0-8,17.89"/><line class="cls-8" x1="293.25" y1="56.95" x2="293.25" y2="23.57"/><path class="cls-2" d="M311.14,41.75a24,24,0,0,0-17.89-8"/><line class="cls-5" x1="429.29" y1="192.15" x2="429.29" y2="144.67"/><polygon class="cls-6" points="429.29 195.68 431.32 190.71 429.29 191.89 427.26 190.71 429.29 195.68"/><line class="cls-5" x1="295.75" y1="57.15" x2="329.32" y2="23.57"/><polygon class="cls-6" points="293.25 59.64 298.2 57.56 295.93 56.96 295.33 54.69 293.25 59.64"/><line class="cls-5" x1="290.75" y1="193.19" x2="257.18" y2="159.61"/><polygon class="cls-6" points="293.25 195.68 291.17 190.73 290.57 193 288.3 193.6 293.25 195.68"/></g></svg>