<svg xmlns="http://www.w3.org/2000/svg" xmlns:xlink="http://www.w3.org/1999/xlink" viewBox="0 0 446.46 176.67"><defs><style>.cls-1,.cls-3,.cls-4{fill:none;}.cls-2,.cls-54,.cls-55,.cls-59{fill:#231f20;}.cls-3,.cls-4{stroke:#231f20;stroke-miterlimit:10;}.cls-4{stroke-dasharray:2 2;}.cls-5{isolation:isolate;}.cls-6{clip-path:url(#clip-path);}.cls-7{fill:#6890c4;}.cls-8{fill:#618cc2;}.cls-9{fill:#5887bf;}.cls-10{fill:#3e7cb9;}.cls-11{fill:#3d79b5;}.cls-12{fill:#3c77b2;}.cls-13{fill:#3b75af;}.cls-14{fill:#3a74ac;}.cls-15{fill:#3972a9;}.cls-16{fill:#3870a7;}.cls-17{fill:#376ea4;}.cls-18{fill:#366ca1;}.cls-19{fill:#356a9e;}.cls-20{fill:#34689c;}.cls-21{fill:#369;}.cls-22{fill:#316496;}.cls-23{fill:#306293;}.cls-24{fill:#2f6090;}.cls-25{fill:#2e5e8d;}.cls-26{fill:#2c5c8a;}.cls-27{fill:#2b5987;}.cls-28{fill:#2a5784;}.cls-29{fill:#285581;}.cls-30{fill:#27537e;}.cls-31{fill:#25517b;}.cls-32{fill:#244f78;}.cls-33{fill:#224c75;}.cls-34{fill:#214a73;}.cls-35{clip-path:url(#clip-path-2);}.cls-36{fill:#6d93c6;}.cls-37{fill:#7296c8;}.cls-38{fill:#7799ca;}.cls-39{fill:#7b9bcb;}.cls-40{fill:#7e9ecd;}.cls-41{fill:#82a0ce;}.cls-42{fill:#85a2cf;}.cls-43{fill:#88a5d0;}.cls-44{fill:#8ba7d1;}.cls-45{fill:#8ea9d3;}.cls-46{fill:#91abd4;}.cls-47{fill:#94add5;}.cls-48{fill:#97afd6;}.cls-49{clip-path:url(#clip-path-3);}.cls-50{clip-path:url(#clip-path-4);}.cls-51{clip-path:url(#clip-path-5);}.cls-52{clip-path:url(#clip-path-6);}.cls-53{fill:#6f4f2b;}.cls-54,.cls-55,.cls-59{font-size:12px;}.cls-54{font-family:Helvetica-Oblique, Helvetica;}.cls-55,.cls-59{font-family:Helvetica, Helvetica;}.cls-56{letter-spacing:0em;}.cls-57{letter-spacing:-0.01em;}.cls-58{letter-spacing:-0.01em;}.cls-59,.cls-60{letter-spacing:0em;}</style><clipPath id="clip-path"><path class="cls-1" d="M278.24,151.78c.08,0,.14-3.6.14-8s-.06-8-.14-8a8.1,8.1,0,0,1,1.31.11,8,8,0,0,1,2.39.79c.32.18.75.45,1.06.65h0a8.09,8.09,0,0,1,2.4,2.8,8,8,0,0,1,.9,3.69,8.1,8.1,0,0,1-.11,1.31,8,8,0,0,1-1.45,3.45,8.1,8.1,0,0,1-1.74,1.74c-.31.21-.73.47-1.06.65a8,8,0,0,1-2.39.79A8.12,8.12,0,0,1,278.24,151.78Z"/></clipPath><clipPath id="clip-path-2"><path class="cls-1" d="M270.19,143.74a8.07,8.07,0,0,1,.11-1.3,8,8,0,0,1,.79-2.39,8.07,8.07,0,0,1,4.61-3.94c.37-.11.86-.23,1.24-.31h0a8.1,8.1,0,0,1,1.31-.11c.08,0,.14,3.61.14,8s-.06,8-.14,8a8.12,8.12,0,0,1-1.31-.11,8,8,0,0,1-1.24-.3c-.35-.13-.81-.33-1.16-.49a8,8,0,0,1-4.35-7.15Z"/></clipPath><clipPath id="clip-path-3"><path class="cls-1" d="M278.24,151.78a8.12,8.12,0,0,1-1.31-.11,8,8,0,0,1-1.24-.3h0c-.35-.13-.81-.33-1.16-.49a8.05,8.05,0,0,1-4.25-8.45,8,8,0,0,1,.79-2.39,8.07,8.07,0,0,1,4.61-3.94h0c.37-.11.86-.23,1.24-.31a8.13,8.13,0,0,1,2.61,0,8,8,0,0,1,2.39.79h0c.32.18.75.45,1.06.65a8.09,8.09,0,0,1,2.4,2.8,8,8,0,0,1,.9,3.69,8.1,8.1,0,0,1-.11,1.31,8,8,0,0,1-1.45,3.45,8.1,8.1,0,0,1-1.74,1.74h0c-.31.21-.73.47-1.06.65a8,8,0,0,1-2.39.79A8.12,8.12,0,0,1,278.24,151.78Z"/></clipPath><clipPath id="clip-path-4"><path class="cls-1" d="M77.65,151.78c.08,0,.14-3.6.14-8s-.06-8-.14-8a8.1,8.1,0,0,1,1.31.11,8,8,0,0,1,2.39.79c.32.18.75.45,1.06.65h0a8.09,8.09,0,0,1,2.4,2.8,8,8,0,0,1,.9,3.69,8.1,8.1,0,0,1-.11,1.31,8,8,0,0,1-1.45,3.45,8.1,8.1,0,0,1-1.74,1.74c-.31.21-.73.47-1.06.65a8,8,0,0,1-2.39.79A8.12,8.12,0,0,1,77.65,151.78Z"/></clipPath><clipPath id="clip-path-5"><path class="cls-1" d="M69.59,143.74a8.07,8.07,0,0,1,.11-1.3,8,8,0,0,1,.79-2.39,8.07,8.07,0,0,1,4.61-3.94c.37-.11.86-.23,1.24-.31h0a8.1,8.1,0,0,1,1.31-.11c.08,0,.14,3.61.14,8s-.06,8-.14,8a8.12,8.12,0,0,1-1.31-.11,8,8,0,0,1-1.24-.3c-.35-.13-.81-.33-1.16-.49a8,8,0,0,1-4.35-7.15Z"/></clipPath><clipPath id="clip-path-6"><path class="cls-1" d="M77.65,151.78a8.12,8.12,0,0,1-1.31-.11,8,8,0,0,1-1.24-.3h0c-.35-.13-.81-.33-1.16-.49a8.05,8.05,0,0,1-4.25-8.45,8,8,0,0,1,.79-2.39,8.07,8.07,0,0,1,4.61-3.94h0c.37-.11.86-.23,1.24-.31a8.13,8.13,0,0,1,2.61,0,8,8,0,0,1,2.39.79h0c.32.18.75.45,1.06.65a8.09,8.09,0,0,1,2.4,2.8,8,8,0,0,1,.9,3.69,8.1,8.1,0,0,1-.11,1.31,8,8,0,0,1-1.45,3.45,8.1,8.1,0,0,1-1.74,1.74h0c-.31.21-.73.47-1.06.65a8,8,0,0,1-2.39.79A8.12,8.12,0,0,1,77.65,151.78Z"/></clipPath></defs><title>puckstick</title><g id="Arrows-Background"><g id="puckstick"><polyline class="cls-2" points="119.59 75.59 135.41 72.38 135.25 71.6 119.43 74.8"/><path class="cls-2" d="M115.15,75.59h3.22v-.8h-3.22Zm-4.83,0h3.22v-.8h-3.22Zm-4.83,0h3.22v-.8h-3.22Zm-4.83,0h3.22v-.8h-3.22Z"/><line class="cls-3" x1="270.26" y1="79.12" x2="270.26" y2="93.79"/><polygon class="cls-2" points="270.26 75.59 268.23 80.57 270.26 79.39 272.29 80.57 270.26 75.59"/><polygon class="cls-2" points="270.26 97.32 268.23 92.34 270.26 93.52 272.29 92.34 270.26 97.32"/><line class="cls-3" x1="110.32" y1="79.12" x2="110.32" y2="140.21"/><polygon class="cls-2" points="110.32 75.59 108.29 80.57 110.32 79.39 112.35 80.57 110.32 75.59"/><polygon class="cls-2" points="110.32 143.74 108.29 138.76 110.32 139.94 112.35 138.76 110.32 143.74"/><line class="cls-4" x1="261.1" y1="75.13" x2="279.86" y2="75.13"/><line class="cls-4" x1="261.26" y1="97.72" x2="280.24" y2="97.72"/><line class="cls-3" x1="279.86" y1="75.13" x2="296.15" y2="71.6"/><line class="cls-3" x1="280.24" y1="97.72" x2="296.37" y2="103.08"/><line class="cls-4" x1="78.18" y1="143.73" x2="124.61" y2="143.73"/></g></g><g id="Graphics"><g class="cls-5"><g class="cls-5"><g class="cls-6"><g class="cls-5"><path class="cls-7" d="M278.24,151.78a8.12,8.12,0,0,0,1.31-.11,8,8,0,0,0,2.39-.79c.32-.18.75-.45,1.06-.65a8.08,8.08,0,0,0,2.4-2.8,8,8,0,0,0,.79-2.39,8.12,8.12,0,0,0,0-2.61,8,8,0,0,0-.79-2.39,8.1,8.1,0,0,0-2.4-2.8c-.31-.21-.73-.47-1.06-.65a8,8,0,0,0-2.39-.79,8.1,8.1,0,0,0-1.31-.11c.08,0,.14,3.61.14,8s-.06,8-.14,8"/><path class="cls-7" d="M278.38,143.74c0,.43,0,.85,0,1.26h0a1.55,1.55,0,0,1,0,1.1c0,3.29-.07,5.68-.13,5.68l.66,0,.65-.08a8,8,0,0,0,2.39-.79h0c.32-.18.75-.45,1.06-.65a8.08,8.08,0,0,0,2.4-2.8,8,8,0,0,0,.79-2.39,8.12,8.12,0,0,0,0-2.61,8,8,0,0,0-.79-2.39,8.1,8.1,0,0,0-2.4-2.8h0c-.31-.21-.73-.47-1.06-.65a8,8,0,0,0-2.39-.79,8.1,8.1,0,0,0-1.31-.11c.08,0,.14,3.61.14,8"/><path class="cls-8" d="M278.38,143.74q0,.47,0,.92h0a1.79,1.79,0,0,1,0,1.73c0,3.14-.07,5.39-.13,5.39l.66,0,.65-.08a8,8,0,0,0,2.39-.79h0c.32-.18.75-.45,1.06-.65a8.08,8.08,0,0,0,2.4-2.8,8,8,0,0,0,.79-2.39,8.12,8.12,0,0,0,0-2.61,8,8,0,0,0-.79-2.39,8.1,8.1,0,0,0-2.4-2.8h0c-.31-.21-.73-.47-1.06-.65a8,8,0,0,0-2.39-.79,8.1,8.1,0,0,0-1.31-.11c.08,0,.14,3.61.14,8"/><path class="cls-9" d="M278.38,143.74q0,.34,0,.67h0a2.08,2.08,0,0,1,0,2.27c0,3-.07,5.11-.13,5.11l.66,0,.65-.08a8,8,0,0,0,2.39-.79h0c.32-.18.75-.45,1.06-.65a8.08,8.08,0,0,0,2.4-2.8,8,8,0,0,0,.79-2.39,8.12,8.12,0,0,0,0-2.61,8,8,0,0,0-.79-2.39,8.1,8.1,0,0,0-2.4-2.8h0c-.31-.21-.73-.47-1.06-.65a8,8,0,0,0-2.39-.79,8.1,8.1,0,0,0-1.31-.11c.08,0,.14,3.61.14,8"/><path class="cls-10" d="M278.38,143.74q0,.24,0,.47h0a2.15,2.15,0,0,1,0,2.7c0,2.87-.07,4.88-.13,4.88l.66,0,.65-.08a8,8,0,0,0,2.39-.79h0c.32-.18.75-.45,1.06-.65a8.08,8.08,0,0,0,2.4-2.8,8,8,0,0,0,.79-2.39,8.12,8.12,0,0,0,0-2.61,8,8,0,0,0-.79-2.39,8.1,8.1,0,0,0-2.4-2.8h0c-.31-.21-.73-.47-1.06-.65a8,8,0,0,0-2.39-.79,8.1,8.1,0,0,0-1.31-.11c.08,0,.14,3.61.14,8"/><path class="cls-11" d="M278.38,143.74V144h0a2.32,2.32,0,0,1,0,3.12c0,2.75-.07,4.65-.13,4.65l.66,0,.65-.08a8,8,0,0,0,2.39-.79h0c.32-.18.75-.45,1.06-.65a8.08,8.08,0,0,0,2.4-2.8,8,8,0,0,0,.79-2.39,8.12,8.12,0,0,0,0-2.61,8,8,0,0,0-.79-2.39,8.1,8.1,0,0,0-2.4-2.8h0c-.31-.21-.73-.47-1.06-.65a8,8,0,0,0-2.39-.79,8.1,8.1,0,0,0-1.31-.11c.08,0,.14,3.61.14,8"/><path class="cls-12" d="M278.38,143.74v.08a2.51,2.51,0,0,1,0,3.53c0,2.63-.07,4.43-.13,4.43l.66,0,.65-.08a8,8,0,0,0,2.39-.79h0c.32-.18.75-.45,1.06-.65a8.08,8.08,0,0,0,2.4-2.8,8,8,0,0,0,.79-2.39,8.12,8.12,0,0,0,0-2.61,8,8,0,0,0-.79-2.39,8.1,8.1,0,0,0-2.4-2.8h0c-.31-.21-.73-.47-1.06-.65a8,8,0,0,0-2.39-.79,8.1,8.1,0,0,0-1.31-.11c.08,0,.14,3.61.14,8"/><path class="cls-13" d="M278.38,143.63a2.77,2.77,0,0,1,0,4c0,2.49-.07,4.18-.12,4.18l.66,0,.65-.08a8,8,0,0,0,2.39-.79h0c.32-.18.75-.45,1.06-.65a8.08,8.08,0,0,0,2.4-2.8,8,8,0,0,0,.79-2.39,8.12,8.12,0,0,0,0-2.61,8,8,0,0,0-.79-2.39,8.1,8.1,0,0,0-2.4-2.8h0c-.31-.21-.73-.47-1.06-.65a8,8,0,0,0-2.39-.79,8.1,8.1,0,0,0-1.31-.11c.08,0,.14,3.55.14,7.93"/><path class="cls-14" d="M278.38,143.44c.77.77,1.79,2.37,0,4.42,0,2.35-.07,3.92-.12,3.92l.66,0,.65-.08a8,8,0,0,0,2.39-.79h0c.32-.18.75-.45,1.06-.65a8.08,8.08,0,0,0,2.4-2.8,8,8,0,0,0,.79-2.39,8.12,8.12,0,0,0,0-2.61,8,8,0,0,0-.79-2.39,8.1,8.1,0,0,0-2.4-2.8h0c-.31-.21-.73-.47-1.06-.65a8,8,0,0,0-2.39-.79,8.1,8.1,0,0,0-1.31-.11c.08,0,.14,3.45.14,7.75"/><path class="cls-15" d="M278.38,143.25c.87.87,2,2.66,0,4.89,0,2.19-.07,3.64-.12,3.64l.66,0,.65-.08a8,8,0,0,0,2.39-.79h0c.32-.18.75-.45,1.06-.65a8.08,8.08,0,0,0,2.4-2.8,8,8,0,0,0,.79-2.39,8.12,8.12,0,0,0,0-2.61,8,8,0,0,0-.79-2.39,8.1,8.1,0,0,0-2.4-2.8h0c-.31-.21-.73-.47-1.06-.65a8,8,0,0,0-2.39-.79,8.1,8.1,0,0,0-1.31-.11c.07,0,.14,3.35.14,7.56"/><path class="cls-16" d="M278.38,143.07c2.58,2.57.62,4.71,0,5.41a32.21,32.21,0,0,1-.11,3.3l.66,0,.65-.08a8,8,0,0,0,2.39-.79h0c.32-.18.75-.45,1.06-.65a8.08,8.08,0,0,0,2.4-2.8,8,8,0,0,0,.79-2.39,8.12,8.12,0,0,0,0-2.61,8,8,0,0,0-.79-2.39,8.1,8.1,0,0,0-2.4-2.8h0c-.31-.21-.73-.47-1.06-.65a8,8,0,0,0-2.39-.79,8.1,8.1,0,0,0-1.31-.11c.07,0,.13,3.25.14,7.38"/><path class="cls-17" d="M278.38,142.87c.75.62,2.95,2.9,0,6a27.06,27.06,0,0,1-.11,2.94l.66,0,.65-.08a8,8,0,0,0,2.39-.79h0c.32-.18.75-.45,1.06-.65a8.08,8.08,0,0,0,2.4-2.8,8,8,0,0,0,.79-2.39,8.12,8.12,0,0,0,0-2.61,8,8,0,0,0-.79-2.39,8.1,8.1,0,0,0-2.4-2.8h0c-.31-.21-.73-.47-1.06-.65a8,8,0,0,0-2.39-.79,8.1,8.1,0,0,0-1.31-.11c.07,0,.13,3.15.14,7.18"/><path class="cls-18" d="M278.38,142.64c2.61,2.18,1.81,4.94,0,6.59a22,22,0,0,1-.1,2.55l.66,0,.65-.08a8,8,0,0,0,2.39-.79h0c.32-.18.75-.45,1.06-.65a8.08,8.08,0,0,0,2.4-2.8,8,8,0,0,0,.79-2.39,8.12,8.12,0,0,0,0-2.61,8,8,0,0,0-.79-2.39,8.1,8.1,0,0,0-2.4-2.8h0c-.31-.21-.73-.47-1.06-.65a8,8,0,0,0-2.39-.79,8.1,8.1,0,0,0-1.31-.11c.07,0,.13,3,.14,6.95"/><path class="cls-19" d="M278.38,142.42c3.07,2.55,1.89,5.47,0,7.18a17.44,17.44,0,0,1-.1,2.18l.66,0,.65-.08a8,8,0,0,0,2.39-.79h0c.32-.18.75-.45,1.06-.65a8.08,8.08,0,0,0,2.4-2.8,8,8,0,0,0,.79-2.39,8.12,8.12,0,0,0,0-2.61,8,8,0,0,0-.79-2.39,8.1,8.1,0,0,0-2.4-2.8h0c-.31-.21-.73-.47-1.06-.65a8,8,0,0,0-2.39-.79,8.1,8.1,0,0,0-1.31-.11c.07,0,.13,2.91.14,6.72"/><path class="cls-20" d="M278.38,142.19h0c4.17,3.47,1,7,0,7.74a13.72,13.72,0,0,1-.09,1.86l.66,0,.65-.08a8,8,0,0,0,2.39-.79h0c.32-.18.75-.45,1.06-.65a8.08,8.08,0,0,0,2.4-2.8,8,8,0,0,0,.79-2.39,8.12,8.12,0,0,0,0-2.61,8,8,0,0,0-.79-2.39,8.1,8.1,0,0,0-2.4-2.8h0c-.31-.21-.73-.47-1.06-.65a8,8,0,0,0-2.39-.79,8.1,8.1,0,0,0-1.31-.11c.07,0,.13,2.8.14,6.5"/><path class="cls-21" d="M278.38,141.89c3.9,3,2.18,7.08-.05,8.32a10.64,10.64,0,0,1-.08,1.57l.66,0,.65-.08a8,8,0,0,0,2.39-.79h0c.32-.18.75-.45,1.06-.65a8.08,8.08,0,0,0,2.4-2.8,8,8,0,0,0,.79-2.39,8.12,8.12,0,0,0,0-2.61,8,8,0,0,0-.79-2.39,8.1,8.1,0,0,0-2.4-2.8h0c-.31-.21-.73-.47-1.06-.65a8,8,0,0,0-2.39-.79,8.1,8.1,0,0,0-1.31-.11c.07,0,.12,2.65.14,6.2"/><path class="cls-22" d="M278.38,141.6h0c3.86,2.92,3.15,7.09-.06,8.87a8.17,8.17,0,0,1-.08,1.31l.66,0,.65-.08a8,8,0,0,0,2.39-.79h0c.32-.18.75-.45,1.06-.65a8.08,8.08,0,0,0,2.4-2.8,8,8,0,0,0,.79-2.39,8.12,8.12,0,0,0,0-2.61,8,8,0,0,0-.79-2.39,8.1,8.1,0,0,0-2.4-2.8h0c-.31-.21-.73-.47-1.06-.65a8,8,0,0,0-2.39-.79,8.1,8.1,0,0,0-1.31-.11c.06,0,.12,2.51.14,5.91"/><path class="cls-23" d="M278.38,141.28c4.17,2.95,3.49,7.89-.06,9.42a6.17,6.17,0,0,1-.07,1.09l.66,0,.65-.08a8,8,0,0,0,2.39-.79h0c.32-.18.75-.45,1.06-.65a8.08,8.08,0,0,0,2.4-2.8,8,8,0,0,0,.79-2.39,8.12,8.12,0,0,0,0-2.61,8,8,0,0,0-.79-2.39,8.1,8.1,0,0,0-2.4-2.8h0c-.31-.21-.73-.47-1.06-.65a8,8,0,0,0-2.39-.79,8.1,8.1,0,0,0-1.31-.11c.06,0,.12,2.35.13,5.59"/><path class="cls-24" d="M278.37,140.94c4.26,3,4.23,8.21-.07,10a4.54,4.54,0,0,1-.06.89l.66,0,.65-.08a8,8,0,0,0,2.39-.79h0c.32-.18.75-.45,1.06-.65a8.08,8.08,0,0,0,2.4-2.8,8,8,0,0,0,.79-2.39,8.12,8.12,0,0,0,0-2.61,8,8,0,0,0-.79-2.39,8.1,8.1,0,0,0-2.4-2.8h0c-.31-.21-.73-.47-1.06-.65a8,8,0,0,0-2.39-.79,8.1,8.1,0,0,0-1.31-.11c.06,0,.11,2.19.13,5.25"/><path class="cls-25" d="M278.37,140.58c5,3.2,4.19,9.07-.07,10.49a3.25,3.25,0,0,1-.06.71l.66,0,.65-.08a8,8,0,0,0,2.39-.79h0c.32-.18.75-.45,1.06-.65a8.08,8.08,0,0,0,2.4-2.8,8,8,0,0,0,.79-2.39,8.12,8.12,0,0,0,0-2.61,8,8,0,0,0-.79-2.39,8.1,8.1,0,0,0-2.4-2.8h0c-.31-.21-.73-.47-1.06-.65a8,8,0,0,0-2.39-.79,8.1,8.1,0,0,0-1.31-.11c.06,0,.11,2,.13,4.89"/><path class="cls-26" d="M278.37,140.22c5.8,3.71,4.24,9.93-.08,11a2.23,2.23,0,0,1-.05.55l.66,0,.65-.08a8,8,0,0,0,2.39-.79h0c.32-.18.75-.45,1.06-.65a8.08,8.08,0,0,0,2.4-2.8,8,8,0,0,0,.79-2.39,8.12,8.12,0,0,0,0-2.61,8,8,0,0,0-.79-2.39,8.1,8.1,0,0,0-2.4-2.8h0c-.31-.21-.73-.47-1.06-.65a8,8,0,0,0-2.39-.79,8.1,8.1,0,0,0-1.31-.11c.06,0,.1,1.85.13,4.53"/><path class="cls-27" d="M278.37,139.86c6.06,3.49,4.66,10.3.32,11.43l-.4.09a1.44,1.44,0,0,1,0,.41l.66,0,.65-.08a8,8,0,0,0,2.39-.79h0c.32-.18.75-.45,1.06-.65a8.08,8.08,0,0,0,2.4-2.8,8,8,0,0,0,.79-2.39,8.12,8.12,0,0,0,0-2.61,8,8,0,0,0-.79-2.39,8.1,8.1,0,0,0-2.4-2.8h0c-.31-.21-.73-.47-1.06-.65a8,8,0,0,0-2.39-.79,8.1,8.1,0,0,0-1.31-.11c.05,0,.1,1.68.12,4.17"/><path class="cls-28" d="M278.36,139.5c6.37,3.62,5.17,10.48.73,11.82a5.43,5.43,0,0,1-.81.18.86.86,0,0,1,0,.29l.66,0,.65-.08a8,8,0,0,0,2.39-.79h0c.32-.18.75-.45,1.06-.65a8.08,8.08,0,0,0,2.4-2.8,8,8,0,0,0,.79-2.39,8.12,8.12,0,0,0,0-2.61,8,8,0,0,0-.79-2.39,8.1,8.1,0,0,0-2.4-2.8h0c-.31-.21-.73-.47-1.06-.65a8,8,0,0,0-2.39-.79,8.1,8.1,0,0,0-1.31-.11c.05,0,.09,1.52.12,3.81"/><path class="cls-29" d="M278.36,139.13c6.66,3.41,5.51,10.81.94,12.26a5.73,5.73,0,0,1-1,.21c0,.12,0,.18,0,.18l.66,0,.65-.08a8,8,0,0,0,2.39-.79h0c.32-.18.75-.45,1.06-.65a8.08,8.08,0,0,0,2.4-2.8,8,8,0,0,0,.79-2.39,8.12,8.12,0,0,0,0-2.61,8,8,0,0,0-.79-2.39,8.1,8.1,0,0,0-2.4-2.8h0c-.31-.21-.73-.47-1.06-.65a8,8,0,0,0-2.39-.79,8.1,8.1,0,0,0-1.31-.11,34.16,34.16,0,0,1,.12,3.44"/><path class="cls-30" d="M278.35,138.76c6.41,2.93,6.41,10.76,1.41,12.6a5.41,5.41,0,0,1-1.5.33c0,.06,0,.1,0,.1l.66,0,.65-.08a8,8,0,0,0,2.39-.79h0c.32-.18.75-.45,1.06-.65a8.08,8.08,0,0,0,2.4-2.8,8,8,0,0,0,.79-2.39,8.12,8.12,0,0,0,0-2.61,8,8,0,0,0-.79-2.39,8.1,8.1,0,0,0-2.4-2.8h0c-.31-.21-.73-.47-1.06-.65a8,8,0,0,0-2.39-.79,8.1,8.1,0,0,0-1.31-.11,28.91,28.91,0,0,1,.11,3.07"/><path class="cls-31" d="M278.35,138.38c6.88,3,7,11,1.63,13a5.9,5.9,0,0,1-1.72.34h.65l.65-.08a8,8,0,0,0,2.39-.79h0c.32-.18.75-.45,1.06-.65a8.08,8.08,0,0,0,2.4-2.8,8,8,0,0,0,.79-2.39,8.12,8.12,0,0,0,0-2.61,8,8,0,0,0-.79-2.39,8.1,8.1,0,0,0-2.4-2.8h0c-.31-.21-.73-.47-1.06-.65a8,8,0,0,0-2.39-.79,8.1,8.1,0,0,0-1.31-.11,23.82,23.82,0,0,1,.1,2.69"/><path class="cls-32" d="M278.34,138c7.43,3,7.07,11.16,2.4,13.24a6.12,6.12,0,0,1-2.5.56l.66,0,.65-.08a8,8,0,0,0,2.39-.79h0c.32-.18.75-.45,1.06-.65a8.08,8.08,0,0,0,2.4-2.8,8,8,0,0,0,.79-2.39,8.12,8.12,0,0,0,0-2.61,8,8,0,0,0-.79-2.39,8.1,8.1,0,0,0-2.4-2.8h0c-.31-.21-.73-.47-1.06-.65a8,8,0,0,0-2.39-.79,8.1,8.1,0,0,0-1.31-.11,18.79,18.79,0,0,1,.1,2.29"/><path class="cls-33" d="M278.33,137.56c7.22,2.54,8,11,2.8,13.6a6,6,0,0,1-2.07.58l.49-.06a8,8,0,0,0,2.39-.79h0c.32-.18.75-.45,1.06-.65a8.08,8.08,0,0,0,2.4-2.8,8,8,0,0,0,.79-2.39,8.12,8.12,0,0,0,0-2.61,8,8,0,0,0-.79-2.39,8.1,8.1,0,0,0-2.4-2.8h0c-.31-.21-.73-.47-1.06-.65a8,8,0,0,0-2.39-.79,8.1,8.1,0,0,0-1.31-.11,13.88,13.88,0,0,1,.09,1.87"/><path class="cls-34" d="M278.32,137.08c6.83,1.93,9,10.72,3.48,13.84a6,6,0,0,1-1.17.5l.16,0a8,8,0,0,0,1.16-.49h0c.32-.18.75-.45,1.06-.65a8.08,8.08,0,0,0,2.4-2.8,8,8,0,0,0,.79-2.39,8.12,8.12,0,0,0,0-2.61,8,8,0,0,0-.79-2.39,8.1,8.1,0,0,0-2.4-2.8h0c-.31-.21-.73-.47-1.06-.65a8,8,0,0,0-2.39-.79,8.1,8.1,0,0,0-1.31-.11,8.91,8.91,0,0,1,.08,1.39"/></g></g></g><g class="cls-5"><g class="cls-35"><g class="cls-5"><path class="cls-7" d="M270.19,143.74a8.1,8.1,0,0,0,.11,1.31,8,8,0,0,0,1.45,3.45,8.09,8.09,0,0,0,2.8,2.4c.34.16.8.36,1.16.49a8,8,0,0,0,1.24.3,8.12,8.12,0,0,0,1.31.11c.08,0,.14-3.6.14-8s-.06-8-.14-8a8.1,8.1,0,0,0-1.31.11c-.38.08-.87.2-1.24.31a8,8,0,0,0-2.21,1.14,8.09,8.09,0,0,0-2.4,2.8,8,8,0,0,0-.9,3.69"/><path class="cls-7" d="M276.94,135.8c-.38.08-.87.2-1.24.31a8,8,0,0,0-2.21,1.14,8.09,8.09,0,0,0-2.4,2.8,8,8,0,0,0-.9,3.69,8.1,8.1,0,0,0,.11,1.31,8,8,0,0,0,1.45,3.45,8.09,8.09,0,0,0,2.8,2.4h0c.34.16.8.36,1.16.49a8,8,0,0,0,1.24.3,8.12,8.12,0,0,0,1.31.11c.06,0,.12-2.39.13-5.68h0c-1.7,2.83-3.84.72-4.14-.11a2.05,2.05,0,0,1,3-2.45,2.73,2.73,0,0,1,1.14,1.46c0-.41,0-.83,0-1.26,0-4.44-.06-8-.14-8a8.1,8.1,0,0,0-1.31.11"/><path class="cls-8" d="M276.94,135.8c-.38.08-.87.2-1.24.31a8,8,0,0,0-2.21,1.14,8.09,8.09,0,0,0-2.4,2.8,8,8,0,0,0-.9,3.69,8.1,8.1,0,0,0,.11,1.31,8,8,0,0,0,1.45,3.45,8.09,8.09,0,0,0,2.8,2.4h0c.34.16.8.36,1.16.49a8,8,0,0,0,1.24.3,8.12,8.12,0,0,0,1.31.11c.06,0,.11-2.25.13-5.39h0c-1.45,2.38-3.87.91-4.33-.39a2.21,2.21,0,0,1,3.19-2.58,4.25,4.25,0,0,1,1.14,1.24q0-.45,0-.92c0-4.44-.06-8-.14-8a8.1,8.1,0,0,0-1.31.11"/><path class="cls-9" d="M276.94,135.8c-.38.08-.87.2-1.24.31a8,8,0,0,0-2.21,1.14,8.09,8.09,0,0,0-2.4,2.8,8,8,0,0,0-.9,3.69,8.1,8.1,0,0,0,.11,1.31,8,8,0,0,0,1.45,3.45,8.09,8.09,0,0,0,2.8,2.4h0c.34.16.8.36,1.16.49a8,8,0,0,0,1.24.3,8.12,8.12,0,0,0,1.31.11c.06,0,.11-2.12.13-5.11h0c-3.18,3-4.64-.76-4.61-1.41a2.37,2.37,0,0,1,4-1.57,9.39,9.39,0,0,1,.62.71q0-.33,0-.67c0-4.44-.06-8-.14-8a8.1,8.1,0,0,0-1.31.11"/><path class="cls-10" d="M276.94,135.8c-.38.08-.87.2-1.24.31a8,8,0,0,0-2.21,1.14,8.09,8.09,0,0,0-2.4,2.8,8,8,0,0,0-.9,3.69,8.1,8.1,0,0,0,.11,1.31,8,8,0,0,0,1.45,3.45,8.09,8.09,0,0,0,2.8,2.4h0c.34.16.8.36,1.16.49a8,8,0,0,0,1.24.3,8.12,8.12,0,0,0,1.31.11c.06,0,.11-2,.13-4.88h0c-2.71,2.52-4.83-.14-4.77-1.64a2.52,2.52,0,0,1,4.38-1.53c.13.13.28.33.4.47q0-.23,0-.47c0-4.44-.06-8-.14-8a8.1,8.1,0,0,0-1.31.11"/><path class="cls-11" d="M276.94,135.8c-.38.08-.87.2-1.24.31a8,8,0,0,0-2.21,1.14,8.09,8.09,0,0,0-2.4,2.8,8,8,0,0,0-.9,3.69,8.1,8.1,0,0,0,.11,1.31,8,8,0,0,0,1.45,3.45,8.09,8.09,0,0,0,2.8,2.4h0c.34.16.8.36,1.16.49a8,8,0,0,0,1.24.3,8.12,8.12,0,0,0,1.31.11c.06,0,.11-1.9.13-4.65h0c-2.33,2.15-5,.33-4.93-1.86.08-2,2.6-3.52,4.71-1.53.08.07.16.19.23.28v-.28c0-4.44-.06-8-.14-8a8.1,8.1,0,0,0-1.31.11"/><path class="cls-12" d="M276.94,135.8c-.38.08-.87.2-1.24.31a8,8,0,0,0-2.21,1.14,8.09,8.09,0,0,0-2.4,2.8,8,8,0,0,0-.9,3.69,8.1,8.1,0,0,0,.11,1.31,8,8,0,0,0,1.45,3.45,8.09,8.09,0,0,0,2.8,2.4h0c.34.16.8.36,1.16.49a8,8,0,0,0,1.24.3,8.12,8.12,0,0,0,1.31.11c.05,0,.1-1.8.13-4.43h0c-3.75,2.76-5.24-1.08-5.13-2.08.33-2.86,3.52-3.37,5.14-1.45,0-4.52-.06-8.13-.14-8.13a8.1,8.1,0,0,0-1.31.11"/><path class="cls-13" d="M276.94,135.8c-.38.08-.87.2-1.24.31a8,8,0,0,0-2.21,1.14,8.09,8.09,0,0,0-2.4,2.8,8,8,0,0,0-.9,3.69,8.1,8.1,0,0,0,.11,1.31,8,8,0,0,0,1.45,3.45,8.09,8.09,0,0,0,2.8,2.4h0c.34.16.8.36,1.16.49a8,8,0,0,0,1.24.3,8.12,8.12,0,0,0,1.31.11c.05,0,.1-1.69.12-4.18h0c-3.55,2.61-5.57-.72-5.38-2.34.13-1.14,1.82-4.44,5.4-1.64,0-4.39-.06-7.93-.14-7.93a8.1,8.1,0,0,0-1.31.11"/><path class="cls-14" d="M276.94,135.8c-.38.08-.87.2-1.24.31a8,8,0,0,0-2.21,1.14,8.09,8.09,0,0,0-2.4,2.8,8,8,0,0,0-.9,3.69,8.1,8.1,0,0,0,.11,1.31,8,8,0,0,0,1.45,3.45,8.09,8.09,0,0,0,2.8,2.4h0c.34.16.8.36,1.16.49a8,8,0,0,0,1.24.3,8.12,8.12,0,0,0,1.31.11c.05,0,.1-1.57.12-3.92h0c-3.73,2.71-5.81-.85-5.63-2.59.14-1.34,2.17-4.53,5.65-1.83,0-4.3-.06-7.75-.14-7.75a8.1,8.1,0,0,0-1.31.11"/><path class="cls-15" d="M276.94,135.8c-.38.08-.87.2-1.24.31a8,8,0,0,0-2.21,1.14,8.09,8.09,0,0,0-2.4,2.8,8,8,0,0,0-.9,3.69,8.1,8.1,0,0,0,.11,1.31,8,8,0,0,0,1.45,3.45,8.09,8.09,0,0,0,2.8,2.4h0c.34.16.8.36,1.16.49a8,8,0,0,0,1.24.3,8.12,8.12,0,0,0,1.31.11s.09-1.45.12-3.64h0c-4,2.77-6.12-1-5.89-2.88.26-2.11,2.88-4.36,5.91-2,0-4.21-.07-7.56-.14-7.56a8.1,8.1,0,0,0-1.31.11"/><path class="cls-16" d="M276.94,135.8c-.38.08-.87.2-1.24.31a8,8,0,0,0-2.21,1.14,8.09,8.09,0,0,0-2.4,2.8,8,8,0,0,0-.9,3.69,8.1,8.1,0,0,0,.11,1.31,8,8,0,0,0,1.45,3.45,8.09,8.09,0,0,0,2.8,2.4h0c.34.16.8.36,1.16.49a8,8,0,0,0,1.24.3,8.12,8.12,0,0,0,1.31.11,32.22,32.22,0,0,0,.11-3.3h0c-4.07,2.78-6.38-1.32-6.17-3.21.25-2.19,3-4.63,6.19-2.2,0-4.13-.07-7.38-.14-7.38a8.1,8.1,0,0,0-1.31.11"/><path class="cls-17" d="M276.94,135.8c-.38.08-.87.2-1.24.31a8,8,0,0,0-2.21,1.14,8.09,8.09,0,0,0-2.4,2.8,8,8,0,0,0-.9,3.69,8.1,8.1,0,0,0,.11,1.31,8,8,0,0,0,1.45,3.45,8.09,8.09,0,0,0,2.8,2.4h0c.34.16.8.36,1.16.49a8,8,0,0,0,1.24.3,8.12,8.12,0,0,0,1.31.11,27.06,27.06,0,0,0,.11-2.94h0c-3.9,2.56-6.88-1.31-6.33-4.15,0-.05,1.48-4.85,6.36-1.83,0-4-.07-7.18-.14-7.18a8.1,8.1,0,0,0-1.31.11"/><path class="cls-18" d="M276.94,135.8c-.38.08-.87.2-1.24.31a8,8,0,0,0-2.21,1.14,8.09,8.09,0,0,0-2.4,2.8,8,8,0,0,0-.9,3.69,8.1,8.1,0,0,0,.11,1.31,8,8,0,0,0,1.45,3.45,8.09,8.09,0,0,0,2.8,2.4h0c.34.16.8.36,1.16.49a8,8,0,0,0,1.24.3,8.12,8.12,0,0,0,1.31.11,22,22,0,0,0,.1-2.55h0c-4.48,2.48-7.22-2.21-6.56-4.72,0-.05,1.73-4.85,6.6-1.87,0-3.92-.07-6.95-.14-6.95a8.1,8.1,0,0,0-1.31.11"/><path class="cls-19" d="M276.94,135.8c-.38.08-.87.2-1.24.31a8,8,0,0,0-2.21,1.14,8.09,8.09,0,0,0-2.4,2.8,8,8,0,0,0-.9,3.69,8.1,8.1,0,0,0,.11,1.31,8,8,0,0,0,1.45,3.45,8.09,8.09,0,0,0,2.8,2.4h0c.34.16.8.36,1.16.49a8,8,0,0,0,1.24.3,8.12,8.12,0,0,0,1.31.11,17.44,17.44,0,0,0,.1-2.18h0c-3.93,2.13-7.77-1.93-6.63-5.64.23-.74,2.41-4.14,6.67-1.54,0-3.81-.07-6.72-.14-6.72a8.1,8.1,0,0,0-1.31.11"/><path class="cls-20" d="M276.94,135.8c-.38.08-.87.2-1.24.31a8,8,0,0,0-2.21,1.14,8.09,8.09,0,0,0-2.4,2.8,8,8,0,0,0-.9,3.69,8.1,8.1,0,0,0,.11,1.31,8,8,0,0,0,1.45,3.45,8.09,8.09,0,0,0,2.8,2.4h0c.34.16.8.36,1.16.49a8,8,0,0,0,1.24.3,8.12,8.12,0,0,0,1.31.11,13.72,13.72,0,0,0,.09-1.86h0c-4.54,1.94-8-2.88-6.8-6.19,0,0,1.72-4.43,6.85-1.55,0-3.7-.07-6.5-.14-6.5a8.1,8.1,0,0,0-1.31.11"/><path class="cls-21" d="M276.94,135.8c-.38.08-.87.2-1.24.31a8,8,0,0,0-2.21,1.14,8.09,8.09,0,0,0-2.4,2.8,8,8,0,0,0-.9,3.69,8.1,8.1,0,0,0,.11,1.31,8,8,0,0,0,1.45,3.45,8.09,8.09,0,0,0,2.8,2.4h0c.34.16.8.36,1.16.49a8,8,0,0,0,1.24.3,8.12,8.12,0,0,0,1.31.11,10.64,10.64,0,0,0,.08-1.57h0a5.35,5.35,0,0,1-6.69-7.25c.33-.6,2.19-3.5,6.74-1.07,0-3.55-.07-6.2-.14-6.2a8.1,8.1,0,0,0-1.31.11"/><path class="cls-22" d="M276.94,135.8c-.38.08-.87.2-1.24.31a8,8,0,0,0-2.21,1.14,8.09,8.09,0,0,0-2.4,2.8,8,8,0,0,0-.9,3.69,8.1,8.1,0,0,0,.11,1.31,8,8,0,0,0,1.45,3.45,8.09,8.09,0,0,0,2.8,2.4h0c.34.16.8.36,1.16.49a8,8,0,0,0,1.24.3,8.12,8.12,0,0,0,1.31.11,8.17,8.17,0,0,0,.08-1.31h0c-5.06,1.63-8.61-4.14-6.92-7.51.2-.41,2.14-3.94,7-1.36,0-3.4-.07-5.91-.14-5.91a8.1,8.1,0,0,0-1.31.11"/><path class="cls-23" d="M276.94,135.8c-.38.08-.87.2-1.24.31a8,8,0,0,0-2.21,1.14,8.09,8.09,0,0,0-2.4,2.8,8,8,0,0,0-.9,3.69,8.1,8.1,0,0,0,.11,1.31,8,8,0,0,0,1.45,3.45,8.09,8.09,0,0,0,2.8,2.4h0c.34.16.8.36,1.16.49a8,8,0,0,0,1.24.3,8.12,8.12,0,0,0,1.31.11,6.17,6.17,0,0,0,.07-1.09h0c-5.28,1.36-9.11-4.43-6.83-8.31.61-1,2.5-3.22,6.89-1.1,0-3.24-.07-5.59-.13-5.59a8.1,8.1,0,0,0-1.31.11"/><path class="cls-24" d="M276.94,135.8c-.38.08-.87.2-1.24.31a8,8,0,0,0-2.21,1.14,8.09,8.09,0,0,0-2.4,2.8,8,8,0,0,0-.9,3.69,8.1,8.1,0,0,0,.11,1.31,8,8,0,0,0,1.45,3.45,8.09,8.09,0,0,0,2.8,2.4h0c.34.16.8.36,1.16.49a8,8,0,0,0,1.24.3,8.12,8.12,0,0,0,1.31.11,4.54,4.54,0,0,0,.06-.89h0c-5.69,1.36-9.12-5.38-7-8.69.86-1.32,2.92-3.24,7-1.27,0-3.06-.07-5.25-.13-5.25a8.1,8.1,0,0,0-1.31.11"/><path class="cls-25" d="M276.94,135.8c-.38.08-.87.2-1.24.31a8,8,0,0,0-2.21,1.14,8.09,8.09,0,0,0-2.4,2.8,8,8,0,0,0-.9,3.69,8.1,8.1,0,0,0,.11,1.31,8,8,0,0,0,1.45,3.45,8.09,8.09,0,0,0,2.8,2.4h0c.34.16.8.36,1.16.49a8,8,0,0,0,1.24.3,8.12,8.12,0,0,0,1.31.11,3.25,3.25,0,0,0,.06-.71h0c-5.61,1.08-9.51-5.41-6.91-9.29,1-1.5,3-2.92,7-1.2,0-2.87-.07-4.89-.13-4.89a8.1,8.1,0,0,0-1.31.11"/><path class="cls-26" d="M276.94,135.8c-.38.08-.87.2-1.24.31a8,8,0,0,0-2.21,1.14,8.09,8.09,0,0,0-2.4,2.8,8,8,0,0,0-.9,3.69,8.1,8.1,0,0,0,.11,1.31,8,8,0,0,0,1.45,3.45,8.09,8.09,0,0,0,2.8,2.4h0c.34.16.8.36,1.16.49a8,8,0,0,0,1.24.3,8.12,8.12,0,0,0,1.31.11,2.23,2.23,0,0,0,.05-.55h0c-5.82,1-9.63-5.74-6.92-9.75.67-1,2.69-3.1,7-1.26,0-2.68-.07-4.53-.13-4.53a8.1,8.1,0,0,0-1.31.11"/><path class="cls-27" d="M276.94,135.8c-.38.08-.87.2-1.24.31a8,8,0,0,0-2.21,1.14,8.09,8.09,0,0,0-2.4,2.8,8,8,0,0,0-.9,3.69,8.1,8.1,0,0,0,.11,1.31,8,8,0,0,0,1.45,3.45,8.09,8.09,0,0,0,2.8,2.4h0c.34.16.8.36,1.16.49a8,8,0,0,0,1.24.3,8.12,8.12,0,0,0,1.31.11,1.44,1.44,0,0,0,0-.41h0c-6.06.84-9.83-6.32-6.82-10.32,1.49-2,3.81-2.38,6.89-1.2,0-2.48-.07-4.17-.12-4.17a8.1,8.1,0,0,0-1.31.11"/><path class="cls-28" d="M276.94,135.8c-.38.08-.87.2-1.24.31a8,8,0,0,0-2.21,1.14,8.09,8.09,0,0,0-2.4,2.8,8,8,0,0,0-.9,3.69,8.1,8.1,0,0,0,.11,1.31,8,8,0,0,0,1.45,3.45,8.09,8.09,0,0,0,2.8,2.4h0c.34.16.8.36,1.16.49a8,8,0,0,0,1.24.3,8.12,8.12,0,0,0,1.31.11.86.86,0,0,0,0-.29h0c-6.19.73-10-6.77-6.82-10.72,1.59-2,3.92-2.41,6.91-1.28,0-2.28-.07-3.81-.12-3.81a8.1,8.1,0,0,0-1.31.11"/><path class="cls-29" d="M273.49,150.23a8.06,8.06,0,0,0,1.06.65h0c.34.16.8.36,1.16.49a8,8,0,0,0,1.24.3,8.12,8.12,0,0,0,1.31.11s0-.06,0-.18h0a7,7,0,0,1-5-1.54l.22.17"/><path class="cls-29" d="M276.94,135.8c-.38.08-.87.2-1.24.31a8,8,0,0,0-2.21,1.14,8.09,8.09,0,0,0-2.4,2.8,8,8,0,0,0-.9,3.69,8.1,8.1,0,0,0,.11,1.31,8,8,0,0,0,.76,2.33h0c-2.4-5.23,1-10.38,7.3-8.24a34.16,34.16,0,0,0-.12-3.44,8.1,8.1,0,0,0-1.31.11"/><path class="cls-30" d="M275.7,151.37a8,8,0,0,0,1.24.3,8.12,8.12,0,0,0,1.31.11s0,0,0-.1h0a6.91,6.91,0,0,1-3.26-.58l.59.23.11,0"/><path class="cls-30" d="M276.94,135.8c-.38.08-.87.2-1.24.31a8,8,0,0,0-2.21,1.14,8.09,8.09,0,0,0-2.4,2.8,8,8,0,0,0-.9,3.69,8.1,8.1,0,0,0,.11,1.31q0,.22.08.43h0c-.83-4.06,1.86-8.69,8-6.71a28.91,28.91,0,0,0-.11-3.07,8.1,8.1,0,0,0-1.31.11"/><path class="cls-31" d="M276.94,151.68a8.12,8.12,0,0,0,1.31.11s0,0,0,0h0a6.46,6.46,0,0,1-1.91-.19l.59.12"/><path class="cls-31" d="M276.94,135.8c-.38.08-.87.2-1.24.31a8,8,0,0,0-2.21,1.14,8.09,8.09,0,0,0-2.4,2.8,8,8,0,0,0-.9,3.69q0,.15,0,.3h0c-.05-3.38,2.44-7.37,8.15-5.66a23.82,23.82,0,0,0-.1-2.69,8.1,8.1,0,0,0-1.31.11"/><path class="cls-32" d="M278.24,151.78h0"/><path class="cls-32" d="M276.94,135.8c-.38.08-.87.2-1.24.31a8,8,0,0,0-2.21,1.14,8.09,8.09,0,0,0-2.4,2.8,8,8,0,0,0-.79,2.39q0,.14,0,.28h0c.51-3,2.93-6.11,8.09-4.73a18.79,18.79,0,0,0-.1-2.29,8.1,8.1,0,0,0-1.31.11"/><path class="cls-33" d="M276.94,135.8c-.38.08-.87.2-1.24.31a8,8,0,0,0-2.21,1.14,8.09,8.09,0,0,0-2.4,2.8,8,8,0,0,0-.49,1.15l-.07.21h0c1.18-3.33,4.09-4.77,7.8-3.85a13.88,13.88,0,0,0-.09-1.87,8.1,8.1,0,0,0-1.31.11"/><path class="cls-34" d="M276.94,135.8c-.38.08-.87.2-1.24.31a8,8,0,0,0-2.21,1.14,8.09,8.09,0,0,0-2.36,2.73h0c.88-1.48,3-3.84,7.2-2.89a8.91,8.91,0,0,0-.08-1.39,8.1,8.1,0,0,0-1.31.11"/><path class="cls-36" d="M274.39,146a2.14,2.14,0,0,0,1,1.12,1.91,1.91,0,0,0,1,.24,1.85,1.85,0,0,0,1-.22,2.44,2.44,0,0,0,1-1.14c.19-.55.12-.71-.23-1.48,0,0-.65-.72-.82-.84a2.06,2.06,0,0,0-1.09-.3,2.7,2.7,0,0,0-1,.31,2,2,0,0,0-.72,2.32"/><path class="cls-37" d="M274.53,146a2.41,2.41,0,0,0,.84,1,2,2,0,0,0,1,.29,1.9,1.9,0,0,0,1-.24,2.75,2.75,0,0,0,.83-1,2,2,0,0,0-.91-2.2s-1.05-.32-1.09-.32a2.44,2.44,0,0,0-.83.26,1.77,1.77,0,0,0-.79,2.26"/><path class="cls-38" d="M274.67,146a5.08,5.08,0,0,0,.68.78,2,2,0,0,0,1,.34,2,2,0,0,0,1-.25,3.38,3.38,0,0,0,.7-.87c.37-.95-.38-1.67-.78-2.06a2.09,2.09,0,0,0-1.09-.35,1.15,1.15,0,0,0-.47.14,1.6,1.6,0,0,0-1,2.26"/><path class="cls-39" d="M274.81,146a1.75,1.75,0,0,0,.51.6,5,5,0,0,0,1,.4,2.05,2.05,0,0,0,1-.27c.06,0,.57-.73.57-.73a1.55,1.55,0,0,0,.1-.73,1.74,1.74,0,0,0-.32-.75,1.57,1.57,0,0,0-.42-.44s-1-.43-1.2-.34c-.86.32-1,.44-1.22.78a1.68,1.68,0,0,0,0,1.48"/><path class="cls-40" d="M275,146a2.24,2.24,0,0,0,1.36.88,8.84,8.84,0,0,0,1-.3,1.36,1.36,0,0,0,.45-.58,1.53,1.53,0,0,0,.11-.73,1.89,1.89,0,0,0-.32-.75,1,1,0,0,0-.29-.3,2.6,2.6,0,0,0-1.1-.38,2.81,2.81,0,0,0-1,.5.49.49,0,0,0-.15.18,1.54,1.54,0,0,0,0,1.48"/><path class="cls-41" d="M275.1,146c.2.38,1.2.75,1.2.75s.94-.3,1-.34a.94.94,0,0,0,.32-.42,1.54,1.54,0,0,0,.12-.73,1.94,1.94,0,0,0-.33-.75.5.5,0,0,0-.16-.17,2.77,2.77,0,0,0-1.1-.39s-1,.52-1,.55a1.41,1.41,0,0,0,0,1.48"/><path class="cls-42" d="M275.23,146a12,12,0,0,0,1,.63,2.2,2.2,0,0,0,1-.36.56.56,0,0,0,.19-.25,1.46,1.46,0,0,0,.13-.73,2.07,2.07,0,0,0-.34-.75,8.9,8.9,0,0,0-1.13-.43,1.81,1.81,0,0,0-.81.43,1,1,0,0,0-.2.34c-.16.33-.2.41.09,1.13"/><path class="cls-43" d="M275.18,145.37a1.86,1.86,0,0,0,.29.62,1.54,1.54,0,0,0,.8.47c.32,0,.72-.25,1-.39,0,0,.05-.06.07-.09a1.44,1.44,0,0,0,.14-.73,1.16,1.16,0,0,0-.24-.53.86.86,0,0,0-.28-.22,2,2,0,0,0-.82-.3.94.94,0,0,0-.57.3s-.5.62-.41.86"/><path class="cls-44" d="M275.7,146a1,1,0,0,0,.56.33,1.1,1.1,0,0,0,.84-.33c.29-.39.35-.73.15-1a2.46,2.46,0,0,0-1.1-.67.56.56,0,0,0-.33.17c-.18.2-.47.49-.49.75a1.2,1.2,0,0,0,.36.73"/><path class="cls-45" d="M275.93,146a.59.59,0,0,0,.31.19.72.72,0,0,0,.47-.19c.2-.18.55-.46.51-.73s-.66-.54-.95-.75a.22.22,0,0,0-.12,0c-.14,0-.61.79-.62.8a1.19,1.19,0,0,0,.39.73"/><path class="cls-46" d="M276.17,146a.13.13,0,0,0,.07,0,.13.13,0,0,0,.1,0c.18-.21.58-.46.55-.73a.79.79,0,0,0-.72-.57c-.21,0-.4.36-.41.57a1.21,1.21,0,0,0,.42.73"/><path class="cls-47" d="M276.21,145.7c.1-.13.35-.27.33-.43a.41.41,0,0,0-.37-.29c-.11,0-.21.18-.21.29s.18.3.25.43"/><path class="cls-48" d="M276.19,145.29s0,0,0,0l0,0v0"/></g></g></g><g class="cls-5"><g class="cls-49"><g class="cls-5"><path class="cls-33" d="M278.24,151.78a8.12,8.12,0,0,1-1.31-.11,8,8,0,0,1-1.24-.3c-.35-.13-.81-.33-1.16-.49a8.05,8.05,0,0,1-4.25-8.45,8,8,0,0,1,.79-2.39,8.07,8.07,0,0,1,4.61-3.94c.37-.11.86-.23,1.24-.31a8.13,8.13,0,0,1,2.61,0,8,8,0,0,1,2.39.79c.32.18.75.45,1.06.66a8.09,8.09,0,0,1,2.4,2.8,8,8,0,0,1,.9,3.69,8.1,8.1,0,0,1-.11,1.31,8,8,0,0,1-1.45,3.45,8.1,8.1,0,0,1-1.74,1.74c-.31.21-.73.47-1.06.65a8,8,0,0,1-2.39.79,8.12,8.12,0,0,1-1.31.11"/><path class="cls-33" d="M285.89,146.28a8,8,0,0,1-1.14,2.21,8.1,8.1,0,0,1-1.74,1.74h0c-.31.21-.73.47-1.06.65a8,8,0,0,1-2.39.79,8.15,8.15,0,0,1-2.61,0,8,8,0,0,1-1.24-.3h0c-.35-.13-.81-.33-1.16-.49a8.05,8.05,0,0,1-4.25-8.45,8,8,0,0,1,.79-2.39,8.07,8.07,0,0,1,4.61-3.94h0c.37-.11.86-.23,1.24-.31l.49-.06h0c-6,.65-7.34,8.44-2.16,12.64,4,3.24,9.3,2.11,10.68-2.3l-.07.21"/><path class="cls-34" d="M284.74,148.49a8.1,8.1,0,0,1-1.74,1.74h0c-.31.21-.73.47-1.06.65a8,8,0,0,1-2.39.79,8.15,8.15,0,0,1-2.61,0,8,8,0,0,1-1.24-.3h0c-.35-.13-.81-.33-1.16-.49a8.05,8.05,0,0,1-4.25-8.45,8,8,0,0,1,.79-2.39,8.07,8.07,0,0,1,4.61-3.94h0l.16-.05-.22.07c-6.3,2.43-4.69,11.11,1.08,13.77,3.87,1.78,7.28.15,8.64-2.39a8,8,0,0,1-.62,1"/><path class="cls-32" d="M279.55,135.8a8,8,0,0,1,2.39.79h0c.32.18.75.45,1.06.65a8.09,8.09,0,0,1,2.4,2.8,8,8,0,0,1,.9,3.69,8.12,8.12,0,0,1-.06,1h0c-1.12,6.76-9.07,6.59-12.54,1.24-3.12-4.83-.31-10.6,5-10.29a8.06,8.06,0,0,1,.83.09"/><path class="cls-31" d="M280.79,136.1a8,8,0,0,1,1.16.49h0c.32.18.75.45,1.06.65a8.09,8.09,0,0,1,2.4,2.8,8,8,0,0,1,.89,3.39h0c.09,5.91-6.23,8.19-10.92,3.93s-2.81-11.38,2.92-11.65a6.82,6.82,0,0,1,1.84.19q.33.08.66.19"/><path class="cls-30" d="M281.94,136.59c.32.18.75.45,1.06.65a8.09,8.09,0,0,1,2.4,2.8,8,8,0,0,1,.49,1.15h0c.07.24.17.57.22.81l0,.2c1,6.49-5.37,8.91-10,5.36-4.84-3.72-3.67-11.09,1.86-11.77a6.94,6.94,0,0,1,3.45.56l.47.22"/><path class="cls-29" d="M283.94,138.05a8.08,8.08,0,0,1,1.46,2l0,.07h0c2.78,6.06-2.2,10.39-7.31,8.24-5.57-2.35-6.46-10-1.4-12.09a6.57,6.57,0,0,1,6.49,1.15,8.1,8.1,0,0,1,.72.64"/><path class="cls-28" d="M285.06,139.47c3,5-.67,10.5-6,8.86-5.59-1.72-7.28-9.19-2.65-11.75,3.1-1.72,7,.1,8.65,2.89"/><path class="cls-27" d="M285.39,140.11c2.33,4.93-1.3,9.51-6.27,7.9-5.47-1.77-7-9.15-2.29-11.45,3.29-1.62,7.15.57,8.56,3.55"/><path class="cls-26" d="M285.34,140.11c2.39,5.1-1.8,9.09-6.22,7.57-5.3-1.82-6.53-8.76-2-11.08,2.72-1.38,6.69.33,8.19,3.51"/><path class="cls-25" d="M285.27,140.11c2.16,4.66-1.45,8.92-6.14,7.24-5.15-1.85-6.12-8.89-1.49-10.77,2.68-1.09,6.25.56,7.62,3.53"/><path class="cls-24" d="M285.47,140.78c1.61,4.86-2.87,8.36-7.36,5.76-4.22-2.44-4.18-8.58.07-10,2.79-.91,6.27,1.09,7.29,4.19"/><path class="cls-23" d="M285.37,140.78c1.55,4.77-2.8,8-7.26,5.43-4.12-2.39-3.73-8.56.6-9.58,2.91-.68,5.85,1.64,6.66,4.14"/><path class="cls-22" d="M285.26,140.78c1.32,4-2.08,7.21-6.07,5.67-4.69-1.81-4.69-7.81-1-9.43,2.63-1.16,6.08.67,7.09,3.76"/><path class="cls-21" d="M285.12,140.78c1.37,4.38-3,7.37-7,4.84-3.35-2.09-2.91-7.47.69-8.59,2.42-.75,5.49,1.07,6.33,3.75"/><path class="cls-20" d="M285,140.78c1.23,4-2.33,6.44-5.76,5.15-3.89-1.47-4.23-6.93-.54-8.59,2.28-1,5.46.71,6.3,3.45"/><path class="cls-19" d="M285,141.48c.54,4-3.85,5.74-6.86,3.63s-2.11-7,1.41-7.77a4.92,4.92,0,0,1,5.46,4.15"/><path class="cls-18" d="M284.76,141.48c.44,3.56-3.54,5.6-6.66,3.41a4.13,4.13,0,0,1,1.49-7.31c2.46-.56,4.9,1.67,5.17,3.9"/><path class="cls-17" d="M284.54,141.48c.33,2.86-3,5.6-6.44,3.19a3.9,3.9,0,0,1,1.57-6.82,4.24,4.24,0,0,1,4.87,3.63"/><path class="cls-16" d="M284.29,141.48c.35,3.53-3.87,5-6.19,3-2.85-2.52-.43-6.34,2.35-6.42a4,4,0,0,1,3.84,3.44"/><path class="cls-15" d="M284,141.48a3.48,3.48,0,0,1-5.91,2.79c-2.49-2.21-.45-5.94,2.46-5.94a3.6,3.6,0,0,1,3.45,3.15"/><path class="cls-14" d="M283.73,141.48a3.26,3.26,0,0,1-5.63,2.6c-2.17-1.94-.45-5.61,2.56-5.45a3.31,3.31,0,0,1,3.07,2.86"/><path class="cls-13" d="M283.5,142.21a3.09,3.09,0,0,1-5.54,1.53c-1.93-2.46.48-5.07,2.79-4.82a3.1,3.1,0,0,1,2.75,3.29"/><path class="cls-12" d="M283.24,142.21a2.68,2.68,0,0,1-1.89,2.48,2.73,2.73,0,0,1-2.11-.14s-1.07-.78-1.14-.86c-2.12-2.81.93-4.86,2.72-4.53a2.94,2.94,0,0,1,2.42,3"/><path class="cls-11" d="M283,142.21c-.08,2-2.61,3.53-4.73,1.53a2.55,2.55,0,0,1,1.69-4.39,2.82,2.82,0,0,1,3,2.86"/><path class="cls-10" d="M282.88,142.21a2.53,2.53,0,0,1-4.4,1.53,2.42,2.42,0,0,1,1.55-4.21,2.71,2.71,0,0,1,2.86,2.68"/><path class="cls-9" d="M282.56,143a2.47,2.47,0,0,1-1.19,1.27,2.08,2.08,0,0,1-1,.21,2.25,2.25,0,0,1-1.09-.27A3.29,3.29,0,0,1,278,143a2.12,2.12,0,0,1,.11-2.18,2.47,2.47,0,0,1,2.85-1c.87.29,2.21,1.66,1.59,3.15"/><path class="cls-8" d="M282.38,143a2.22,2.22,0,0,1-1,1.12,2.09,2.09,0,0,1-1,.25,2.28,2.28,0,0,1-1.09-.28,3.83,3.83,0,0,1-1.08-1.09,2,2,0,0,1,.14-2.18A2.32,2.32,0,0,1,281,140c.36.13,2.12,1.21,1.36,3"/><path class="cls-7" d="M282.3,142.58a2,2,0,0,1-3.06,1.35,5.24,5.24,0,0,1-.95-1,1.91,1.91,0,0,1,.17-2.18c.19-.19.41-.52.67-.57a5.09,5.09,0,0,1,1-.23l1,.22a2.11,2.11,0,0,1,1.25,2.38"/><path class="cls-36" d="M282.09,143a6.38,6.38,0,0,1-.71.84,1.66,1.66,0,0,1-1,.31,5.1,5.1,0,0,1-1.18-.37,2.44,2.44,0,0,1-1-1.53,2.06,2.06,0,0,1,1-1.87,2.2,2.2,0,0,1,2.49.44,2.08,2.08,0,0,1,.45,2.18"/><path class="cls-37" d="M281.95,143a1.88,1.88,0,0,1-.57.68,6.78,6.78,0,0,1-1,.35c-.12,0-1.07-.3-1.09-.32a2.32,2.32,0,0,1-1-1.46,2,2,0,0,1,.88-1.74,2.06,2.06,0,0,1,1-.23,2.51,2.51,0,0,1,1.32.54,1.87,1.87,0,0,1,.5,2.18"/><path class="cls-38" d="M281.81,143a2,2,0,0,1-1.47.92,2.67,2.67,0,0,1-1.09-.35,2.1,2.1,0,0,1-.84-1.33,1.46,1.46,0,0,1,.08-.73,3.59,3.59,0,0,1,.68-.87,2.12,2.12,0,0,1,1-.25,4.35,4.35,0,0,1,1.11.42,1.74,1.74,0,0,1,.56,2.18"/><path class="cls-39" d="M281.66,143a1,1,0,0,1-.29.35s-1,.47-1,.46-1.09-.37-1.1-.37a1.9,1.9,0,0,1-.72-1.19,1.53,1.53,0,0,1,.09-.73s.52-.71.56-.73a2.2,2.2,0,0,1,1-.27,5.81,5.81,0,0,1,1,.4,1.67,1.67,0,0,1,.49,2.08"/><path class="cls-40" d="M281.52,143a.49.49,0,0,1-.15.18,2.81,2.81,0,0,1-1,.5,2.6,2.6,0,0,1-1.1-.38.68.68,0,0,1-.29-.3c-.1-.23-.34-.51-.31-.75a3,3,0,0,1,.1-.73,1.5,1.5,0,0,1,.44-.58,9.39,9.39,0,0,1,1-.3,1.06,1.06,0,0,1,.48.17,1.54,1.54,0,0,1,1.08,1.43,1.82,1.82,0,0,1-.21.75"/><path class="cls-41" d="M281.37,143s-1,.55-1,.55a2.78,2.78,0,0,1-1.1-.39.37.37,0,0,1-.16-.17c-.1-.22-.33-.51-.32-.75,0-.47,0-.87.43-1.15,0,0,.74-.27,1-.33,0,0,.09,0,.13,0,.83.39,1.29.61,1.28,1.43a1.8,1.8,0,0,1-.23.75"/><path class="cls-42" d="M281.34,142.63a.86.86,0,0,1-.2.33,1.83,1.83,0,0,1-.81.43,9.14,9.14,0,0,1-1.13-.43,2,2,0,0,1-.33-.75c0-.08,0-.75.31-1a1.73,1.73,0,0,1,1-.36,1.59,1.59,0,0,1,1,.61,1.06,1.06,0,0,1,.11,1.15"/><path class="cls-43" d="M281.32,142.27c-.1.24-.42,1-1,1a2.51,2.51,0,0,1-1.1-.52,1.29,1.29,0,0,1-.24-.53s.06-.71.2-.82a1.75,1.75,0,0,1,1-.38,1.42,1.42,0,0,1,.8.47s.38.63.31.79"/><path class="cls-44" d="M280.66,143a.65.65,0,0,1-.33.17,1,1,0,0,1-.47-.17,1.83,1.83,0,0,1-.63-.5c0-.07-.13-.17-.11-.25s.08-.59.27-.73a1.44,1.44,0,0,1,.84-.33,1,1,0,0,1,.56.33,1.24,1.24,0,0,1,.36.73,1.35,1.35,0,0,1-.49.75"/><path class="cls-45" d="M280.42,143a.18.18,0,0,1-.09,0,.22.22,0,0,1-.13,0c-.29-.22-.9-.39-.95-.75s.32-.55.52-.73a.72.72,0,0,1,.47-.18.52.52,0,0,1,.31.18c.15.2.41.48.39.73a1.37,1.37,0,0,1-.53.75"/><path class="cls-46" d="M280.32,142.78a.8.8,0,0,1-.72-.57c0-.27.37-.52.55-.73a.13.13,0,0,1,.1,0c.11,0,.49.76.49.77,0,.21-.2.55-.41.57"/><path class="cls-47" d="M280.31,142.5a.41.41,0,0,1-.37-.29c0-.16.23-.3.33-.43.08.13.26.28.25.43s-.11.28-.21.29"/><path class="cls-48" d="M280.3,142.23l0,0s0,0,0,0v0"/></g></g></g></g><g class="cls-5"><g class="cls-5"><g class="cls-50"><g class="cls-5"><path class="cls-7" d="M77.65,151.78a8.12,8.12,0,0,0,1.31-.11,8,8,0,0,0,2.39-.79c.32-.18.75-.45,1.06-.65a8.08,8.08,0,0,0,2.4-2.8,8,8,0,0,0,.79-2.39,8.12,8.12,0,0,0,0-2.61A8,8,0,0,0,84.8,140a8.1,8.1,0,0,0-2.4-2.8c-.31-.21-.73-.47-1.06-.65A8,8,0,0,0,79,135.8a8.1,8.1,0,0,0-1.31-.11c.08,0,.14,3.61.14,8s-.06,8-.14,8"/><path class="cls-7" d="M77.79,143.74c0,.43,0,.85,0,1.26h0a1.55,1.55,0,0,1,0,1.1c0,3.29-.07,5.68-.13,5.68l.66,0,.65-.08a8,8,0,0,0,2.39-.79h0c.32-.18.75-.45,1.06-.65a8.08,8.08,0,0,0,2.4-2.8,8,8,0,0,0,.79-2.39,8.12,8.12,0,0,0,0-2.61A8,8,0,0,0,84.8,140a8.1,8.1,0,0,0-2.4-2.8h0c-.31-.21-.73-.47-1.06-.65A8,8,0,0,0,79,135.8a8.1,8.1,0,0,0-1.31-.11c.08,0,.14,3.61.14,8"/><path class="cls-8" d="M77.79,143.74q0,.47,0,.92h0a1.79,1.79,0,0,1,0,1.73c0,3.14-.07,5.39-.13,5.39l.66,0,.65-.08a8,8,0,0,0,2.39-.79h0c.32-.18.75-.45,1.06-.65a8.08,8.08,0,0,0,2.4-2.8,8,8,0,0,0,.79-2.39,8.12,8.12,0,0,0,0-2.61A8,8,0,0,0,84.8,140a8.1,8.1,0,0,0-2.4-2.8h0c-.31-.21-.73-.47-1.06-.65A8,8,0,0,0,79,135.8a8.1,8.1,0,0,0-1.31-.11c.08,0,.14,3.61.14,8"/><path class="cls-9" d="M77.79,143.74q0,.34,0,.67h0a2.08,2.08,0,0,1,0,2.27c0,3-.07,5.11-.13,5.11l.66,0,.65-.08a8,8,0,0,0,2.39-.79h0c.32-.18.75-.45,1.06-.65a8.08,8.08,0,0,0,2.4-2.8,8,8,0,0,0,.79-2.39,8.12,8.12,0,0,0,0-2.61A8,8,0,0,0,84.8,140a8.1,8.1,0,0,0-2.4-2.8h0c-.31-.21-.73-.47-1.06-.65A8,8,0,0,0,79,135.8a8.1,8.1,0,0,0-1.31-.11c.08,0,.14,3.61.14,8"/><path class="cls-10" d="M77.79,143.74q0,.24,0,.47h0a2.15,2.15,0,0,1,0,2.7c0,2.87-.07,4.88-.13,4.88l.66,0,.65-.08a8,8,0,0,0,2.39-.79h0c.32-.18.75-.45,1.06-.65a8.08,8.08,0,0,0,2.4-2.8,8,8,0,0,0,.79-2.39,8.12,8.12,0,0,0,0-2.61A8,8,0,0,0,84.8,140a8.1,8.1,0,0,0-2.4-2.8h0c-.31-.21-.73-.47-1.06-.65A8,8,0,0,0,79,135.8a8.1,8.1,0,0,0-1.31-.11c.08,0,.14,3.61.14,8"/><path class="cls-11" d="M77.79,143.74V144h0a2.32,2.32,0,0,1,0,3.12c0,2.75-.07,4.65-.13,4.65l.66,0,.65-.08a8,8,0,0,0,2.39-.79h0c.32-.18.75-.45,1.06-.65a8.08,8.08,0,0,0,2.4-2.8,8,8,0,0,0,.79-2.39,8.12,8.12,0,0,0,0-2.61A8,8,0,0,0,84.8,140a8.1,8.1,0,0,0-2.4-2.8h0c-.31-.21-.73-.47-1.06-.65A8,8,0,0,0,79,135.8a8.1,8.1,0,0,0-1.31-.11c.08,0,.14,3.61.14,8"/><path class="cls-12" d="M77.79,143.74v.08a2.51,2.51,0,0,1,0,3.53c0,2.63-.07,4.43-.13,4.43l.66,0,.65-.08a8,8,0,0,0,2.39-.79h0c.32-.18.75-.45,1.06-.65a8.08,8.08,0,0,0,2.4-2.8,8,8,0,0,0,.79-2.39,8.12,8.12,0,0,0,0-2.61A8,8,0,0,0,84.8,140a8.1,8.1,0,0,0-2.4-2.8h0c-.31-.21-.73-.47-1.06-.65A8,8,0,0,0,79,135.8a8.1,8.1,0,0,0-1.31-.11c.08,0,.14,3.61.14,8"/><path class="cls-13" d="M77.79,143.63a2.77,2.77,0,0,1,0,4c0,2.49-.07,4.18-.12,4.18l.66,0,.65-.08a8,8,0,0,0,2.39-.79h0c.32-.18.75-.45,1.06-.65a8.08,8.08,0,0,0,2.4-2.8,8,8,0,0,0,.79-2.39,8.12,8.12,0,0,0,0-2.61A8,8,0,0,0,84.8,140a8.1,8.1,0,0,0-2.4-2.8h0c-.31-.21-.73-.47-1.06-.65A8,8,0,0,0,79,135.8a8.1,8.1,0,0,0-1.31-.11c.08,0,.14,3.55.14,7.93"/><path class="cls-14" d="M77.79,143.44c.77.77,1.79,2.37,0,4.42,0,2.35-.07,3.92-.12,3.92l.66,0,.65-.08a8,8,0,0,0,2.39-.79h0c.32-.18.75-.45,1.06-.65a8.08,8.08,0,0,0,2.4-2.8,8,8,0,0,0,.79-2.39,8.12,8.12,0,0,0,0-2.61A8,8,0,0,0,84.8,140a8.1,8.1,0,0,0-2.4-2.8h0c-.31-.21-.73-.47-1.06-.65A8,8,0,0,0,79,135.8a8.1,8.1,0,0,0-1.31-.11c.08,0,.14,3.45.14,7.75"/><path class="cls-15" d="M77.79,143.25c.87.87,2,2.66,0,4.89,0,2.19-.07,3.64-.12,3.64l.66,0,.65-.08a8,8,0,0,0,2.39-.79h0c.32-.18.75-.45,1.06-.65a8.08,8.08,0,0,0,2.4-2.8,8,8,0,0,0,.79-2.39,8.12,8.12,0,0,0,0-2.61A8,8,0,0,0,84.8,140a8.1,8.1,0,0,0-2.4-2.8h0c-.31-.21-.73-.47-1.06-.65A8,8,0,0,0,79,135.8a8.1,8.1,0,0,0-1.31-.11c.07,0,.14,3.35.14,7.56"/><path class="cls-16" d="M77.79,143.07c2.58,2.57.62,4.71,0,5.41a32.21,32.21,0,0,1-.11,3.3l.66,0,.65-.08a8,8,0,0,0,2.39-.79h0c.32-.18.75-.45,1.06-.65a8.08,8.08,0,0,0,2.4-2.8,8,8,0,0,0,.79-2.39,8.12,8.12,0,0,0,0-2.61A8,8,0,0,0,84.8,140a8.1,8.1,0,0,0-2.4-2.8h0c-.31-.21-.73-.47-1.06-.65A8,8,0,0,0,79,135.8a8.1,8.1,0,0,0-1.31-.11c.07,0,.13,3.25.14,7.38"/><path class="cls-17" d="M77.79,142.87c.75.62,2.95,2.9,0,6a27.06,27.06,0,0,1-.11,2.94l.66,0,.65-.08a8,8,0,0,0,2.39-.79h0c.32-.18.75-.45,1.06-.65a8.08,8.08,0,0,0,2.4-2.8,8,8,0,0,0,.79-2.39,8.12,8.12,0,0,0,0-2.61A8,8,0,0,0,84.8,140a8.1,8.1,0,0,0-2.4-2.8h0c-.31-.21-.73-.47-1.06-.65A8,8,0,0,0,79,135.8a8.1,8.1,0,0,0-1.31-.11c.07,0,.13,3.15.14,7.18"/><path class="cls-18" d="M77.78,142.64c2.61,2.18,1.81,4.94,0,6.59a22,22,0,0,1-.1,2.55l.66,0,.65-.08a8,8,0,0,0,2.39-.79h0c.32-.18.75-.45,1.06-.65a8.08,8.08,0,0,0,2.4-2.8,8,8,0,0,0,.79-2.39,8.12,8.12,0,0,0,0-2.61A8,8,0,0,0,84.8,140a8.1,8.1,0,0,0-2.4-2.8h0c-.31-.21-.73-.47-1.06-.65A8,8,0,0,0,79,135.8a8.1,8.1,0,0,0-1.31-.11c.07,0,.13,3,.14,6.95"/><path class="cls-19" d="M77.78,142.42c3.07,2.55,1.89,5.47,0,7.18a17.44,17.44,0,0,1-.1,2.18l.66,0,.65-.08a8,8,0,0,0,2.39-.79h0c.32-.18.75-.45,1.06-.65a8.08,8.08,0,0,0,2.4-2.8,8,8,0,0,0,.79-2.39,8.12,8.12,0,0,0,0-2.61A8,8,0,0,0,84.8,140a8.1,8.1,0,0,0-2.4-2.8h0c-.31-.21-.73-.47-1.06-.65A8,8,0,0,0,79,135.8a8.1,8.1,0,0,0-1.31-.11c.07,0,.13,2.91.14,6.72"/><path class="cls-20" d="M77.78,142.19c4.17,3.47,1,7,0,7.74a13.72,13.72,0,0,1-.09,1.86l.66,0,.65-.08a8,8,0,0,0,2.39-.79h0c.32-.18.75-.45,1.06-.65a8.08,8.08,0,0,0,2.4-2.8,8,8,0,0,0,.79-2.39,8.12,8.12,0,0,0,0-2.61A8,8,0,0,0,84.8,140a8.1,8.1,0,0,0-2.4-2.8h0c-.31-.21-.73-.47-1.06-.65A8,8,0,0,0,79,135.8a8.1,8.1,0,0,0-1.31-.11c.07,0,.13,2.8.14,6.5"/><path class="cls-21" d="M77.78,141.89c3.9,3,2.18,7.08-.05,8.32a10.64,10.64,0,0,1-.08,1.57l.66,0,.65-.08a8,8,0,0,0,2.39-.79h0c.32-.18.75-.45,1.06-.65a8.08,8.08,0,0,0,2.4-2.8,8,8,0,0,0,.79-2.39,8.12,8.12,0,0,0,0-2.61A8,8,0,0,0,84.8,140a8.1,8.1,0,0,0-2.4-2.8h0c-.31-.21-.73-.47-1.06-.65A8,8,0,0,0,79,135.8a8.1,8.1,0,0,0-1.31-.11c.07,0,.12,2.65.14,6.2"/><path class="cls-22" d="M77.78,141.6h0c3.86,2.92,3.15,7.09-.06,8.87a8.17,8.17,0,0,1-.08,1.31l.66,0,.65-.08a8,8,0,0,0,2.39-.79h0c.32-.18.75-.45,1.06-.65a8.08,8.08,0,0,0,2.4-2.8,8,8,0,0,0,.79-2.39,8.12,8.12,0,0,0,0-2.61A8,8,0,0,0,84.8,140a8.1,8.1,0,0,0-2.4-2.8h0c-.31-.21-.73-.47-1.06-.65A8,8,0,0,0,79,135.8a8.1,8.1,0,0,0-1.31-.11c.06,0,.12,2.51.14,5.91"/><path class="cls-23" d="M77.78,141.28c4.17,2.95,3.49,7.89-.06,9.42a6.17,6.17,0,0,1-.07,1.09l.66,0,.65-.08a8,8,0,0,0,2.39-.79h0c.32-.18.75-.45,1.06-.65a8.08,8.08,0,0,0,2.4-2.8,8,8,0,0,0,.79-2.39,8.12,8.12,0,0,0,0-2.61A8,8,0,0,0,84.8,140a8.1,8.1,0,0,0-2.4-2.8h0c-.31-.21-.73-.47-1.06-.65A8,8,0,0,0,79,135.8a8.1,8.1,0,0,0-1.31-.11c.06,0,.12,2.35.13,5.59"/><path class="cls-24" d="M77.78,140.94c4.26,3,4.23,8.21-.07,10a4.54,4.54,0,0,1-.06.89l.66,0,.65-.08a8,8,0,0,0,2.39-.79h0c.32-.18.75-.45,1.06-.65a8.08,8.08,0,0,0,2.4-2.8,8,8,0,0,0,.79-2.39,8.12,8.12,0,0,0,0-2.61A8,8,0,0,0,84.8,140a8.1,8.1,0,0,0-2.4-2.8h0c-.31-.21-.73-.47-1.06-.65A8,8,0,0,0,79,135.8a8.1,8.1,0,0,0-1.31-.11c.06,0,.11,2.19.13,5.25"/><path class="cls-25" d="M77.77,140.58c5,3.2,4.19,9.07-.07,10.49a3.25,3.25,0,0,1-.06.71l.66,0,.65-.08a8,8,0,0,0,2.39-.79h0c.32-.18.75-.45,1.06-.65a8.08,8.08,0,0,0,2.4-2.8,8,8,0,0,0,.79-2.39,8.12,8.12,0,0,0,0-2.61A8,8,0,0,0,84.8,140a8.1,8.1,0,0,0-2.4-2.8h0c-.31-.21-.73-.47-1.06-.65A8,8,0,0,0,79,135.8a8.1,8.1,0,0,0-1.31-.11c.06,0,.11,2,.13,4.89"/><path class="cls-26" d="M77.77,140.22c5.8,3.71,4.24,9.93-.08,11a2.23,2.23,0,0,1-.05.55l.66,0,.65-.08a8,8,0,0,0,2.39-.79h0c.32-.18.75-.45,1.06-.65a8.08,8.08,0,0,0,2.4-2.8,8,8,0,0,0,.79-2.39,8.12,8.12,0,0,0,0-2.61A8,8,0,0,0,84.8,140a8.1,8.1,0,0,0-2.4-2.8h0c-.31-.21-.73-.47-1.06-.65A8,8,0,0,0,79,135.8a8.1,8.1,0,0,0-1.31-.11c.06,0,.1,1.85.13,4.53"/><path class="cls-27" d="M77.77,139.86c6.06,3.49,4.66,10.3.32,11.43l-.4.09a1.44,1.44,0,0,1,0,.41l.66,0,.65-.08a8,8,0,0,0,2.39-.79h0c.32-.18.75-.45,1.06-.65a8.08,8.08,0,0,0,2.4-2.8,8,8,0,0,0,.79-2.39,8.12,8.12,0,0,0,0-2.61A8,8,0,0,0,84.8,140a8.1,8.1,0,0,0-2.4-2.8h0c-.31-.21-.73-.47-1.06-.65A8,8,0,0,0,79,135.8a8.1,8.1,0,0,0-1.31-.11c.05,0,.1,1.68.12,4.17"/><path class="cls-28" d="M77.76,139.5c6.37,3.62,5.17,10.48.73,11.82a5.43,5.43,0,0,1-.81.18.86.86,0,0,1,0,.29l.66,0,.65-.08a8,8,0,0,0,2.39-.79h0c.32-.18.75-.45,1.06-.65a8.08,8.08,0,0,0,2.4-2.8,8,8,0,0,0,.79-2.39,8.12,8.12,0,0,0,0-2.61A8,8,0,0,0,84.8,140a8.1,8.1,0,0,0-2.4-2.8h0c-.31-.21-.73-.47-1.06-.65A8,8,0,0,0,79,135.8a8.1,8.1,0,0,0-1.31-.11c.05,0,.09,1.52.12,3.81"/><path class="cls-29" d="M77.76,139.13h0c6.66,3.41,5.51,10.81.94,12.26a5.73,5.73,0,0,1-1,.21c0,.12,0,.18,0,.18l.66,0,.65-.08a8,8,0,0,0,2.39-.79h0c.32-.18.75-.45,1.06-.65a8.08,8.08,0,0,0,2.4-2.8,8,8,0,0,0,.79-2.39,8.12,8.12,0,0,0,0-2.61A8,8,0,0,0,84.8,140a8.1,8.1,0,0,0-2.4-2.8h0c-.31-.21-.73-.47-1.06-.65A8,8,0,0,0,79,135.8a8.1,8.1,0,0,0-1.31-.11,34.16,34.16,0,0,1,.12,3.44"/><path class="cls-30" d="M77.76,138.76h0c6.41,2.93,6.41,10.76,1.41,12.6a5.41,5.41,0,0,1-1.5.33c0,.06,0,.1,0,.1l.66,0,.65-.08a8,8,0,0,0,2.39-.79h0c.32-.18.75-.45,1.06-.65a8.08,8.08,0,0,0,2.4-2.8,8,8,0,0,0,.79-2.39,8.12,8.12,0,0,0,0-2.61A8,8,0,0,0,84.8,140a8.1,8.1,0,0,0-2.4-2.8h0c-.31-.21-.73-.47-1.06-.65A8,8,0,0,0,79,135.8a8.1,8.1,0,0,0-1.31-.11,28.91,28.91,0,0,1,.11,3.07"/><path class="cls-31" d="M77.75,138.38h0c6.88,3,7,11,1.63,13a5.9,5.9,0,0,1-1.72.34h.65l.65-.08a8,8,0,0,0,2.39-.79h0c.32-.18.75-.45,1.06-.65a8.08,8.08,0,0,0,2.4-2.8,8,8,0,0,0,.79-2.39,8.12,8.12,0,0,0,0-2.61A8,8,0,0,0,84.8,140a8.1,8.1,0,0,0-2.4-2.8h0c-.31-.21-.73-.47-1.06-.65A8,8,0,0,0,79,135.8a8.1,8.1,0,0,0-1.31-.11,23.82,23.82,0,0,1,.1,2.69"/><path class="cls-32" d="M77.74,138c7.43,3,7.07,11.16,2.4,13.24a6.12,6.12,0,0,1-2.5.56l.66,0,.65-.08a8,8,0,0,0,2.39-.79h0c.32-.18.75-.45,1.06-.65a8.08,8.08,0,0,0,2.4-2.8,8,8,0,0,0,.79-2.39,8.12,8.12,0,0,0,0-2.61A8,8,0,0,0,84.8,140a8.1,8.1,0,0,0-2.4-2.8h0c-.31-.21-.73-.47-1.06-.65A8,8,0,0,0,79,135.8a8.1,8.1,0,0,0-1.31-.11,18.79,18.79,0,0,1,.1,2.29"/><path class="cls-33" d="M77.74,137.56c7.22,2.54,8,11,2.8,13.6a6.11,6.11,0,0,1-2.07.58l.49-.06a8,8,0,0,0,2.39-.79h0c.32-.18.75-.45,1.06-.65a8.08,8.08,0,0,0,2.4-2.8,8,8,0,0,0,.79-2.39,8.12,8.12,0,0,0,0-2.61A8,8,0,0,0,84.8,140a8.1,8.1,0,0,0-2.4-2.8h0c-.31-.21-.73-.47-1.06-.65A8,8,0,0,0,79,135.8a8.1,8.1,0,0,0-1.31-.11,13.88,13.88,0,0,1,.09,1.87"/><path class="cls-34" d="M77.72,137.08h0c6.83,1.93,9,10.72,3.48,13.84a6,6,0,0,1-1.17.5l.16,0a8,8,0,0,0,1.16-.49h0c.32-.18.75-.45,1.06-.65a8.08,8.08,0,0,0,2.4-2.8,8,8,0,0,0,.79-2.39,8.12,8.12,0,0,0,0-2.61A8,8,0,0,0,84.8,140a8.1,8.1,0,0,0-2.4-2.8h0c-.31-.21-.73-.47-1.06-.65A8,8,0,0,0,79,135.8a8.1,8.1,0,0,0-1.31-.11,8.91,8.91,0,0,1,.08,1.39"/></g></g></g><g class="cls-5"><g class="cls-51"><g class="cls-5"><path class="cls-7" d="M69.59,143.74A8.1,8.1,0,0,0,69.7,145a8,8,0,0,0,1.45,3.45,8.09,8.09,0,0,0,2.8,2.4c.34.16.8.36,1.16.49a8,8,0,0,0,1.24.3,8.12,8.12,0,0,0,1.31.11c.08,0,.14-3.6.14-8s-.06-8-.14-8a8.1,8.1,0,0,0-1.31.11c-.38.08-.87.2-1.24.31a8,8,0,0,0-2.21,1.14,8.09,8.09,0,0,0-2.4,2.8,8,8,0,0,0-.9,3.69"/><path class="cls-7" d="M76.34,135.8c-.38.08-.87.2-1.24.31a8,8,0,0,0-2.21,1.14,8.09,8.09,0,0,0-2.4,2.8,8,8,0,0,0-.9,3.69A8.1,8.1,0,0,0,69.7,145a8,8,0,0,0,1.45,3.45,8.09,8.09,0,0,0,2.8,2.4h0c.34.16.8.36,1.16.49a8,8,0,0,0,1.24.3,8.12,8.12,0,0,0,1.31.11c.06,0,.12-2.39.13-5.68h0c-1.7,2.83-3.84.72-4.14-.11a2.05,2.05,0,0,1,3-2.45A2.73,2.73,0,0,1,77.78,145c0-.41,0-.83,0-1.26,0-4.44-.06-8-.14-8a8.1,8.1,0,0,0-1.31.11"/><path class="cls-8" d="M76.34,135.8c-.38.08-.87.2-1.24.31a8,8,0,0,0-2.21,1.14,8.09,8.09,0,0,0-2.4,2.8,8,8,0,0,0-.9,3.69A8.1,8.1,0,0,0,69.7,145a8,8,0,0,0,1.45,3.45,8.09,8.09,0,0,0,2.8,2.4h0c.34.16.8.36,1.16.49a8,8,0,0,0,1.24.3,8.12,8.12,0,0,0,1.31.11c.06,0,.11-2.25.13-5.39h0c-1.45,2.38-3.87.91-4.33-.39a2.21,2.21,0,0,1,3.19-2.58,4.25,4.25,0,0,1,1.14,1.24q0-.45,0-.92c0-4.44-.06-8-.14-8a8.1,8.1,0,0,0-1.31.11"/><path class="cls-9" d="M76.34,135.8c-.38.08-.87.2-1.24.31a8,8,0,0,0-2.21,1.14,8.09,8.09,0,0,0-2.4,2.8,8,8,0,0,0-.9,3.69A8.1,8.1,0,0,0,69.7,145a8,8,0,0,0,1.45,3.45,8.09,8.09,0,0,0,2.8,2.4h0c.34.16.8.36,1.16.49a8,8,0,0,0,1.24.3,8.12,8.12,0,0,0,1.31.11c.06,0,.11-2.12.13-5.11h0c-3.18,3-4.64-.76-4.61-1.41a2.37,2.37,0,0,1,4-1.57,9.39,9.39,0,0,1,.62.71q0-.33,0-.67c0-4.44-.06-8-.14-8a8.1,8.1,0,0,0-1.31.11"/><path class="cls-10" d="M76.34,135.8c-.38.08-.87.2-1.24.31a8,8,0,0,0-2.21,1.14,8.09,8.09,0,0,0-2.4,2.8,8,8,0,0,0-.9,3.69A8.1,8.1,0,0,0,69.7,145a8,8,0,0,0,1.45,3.45,8.09,8.09,0,0,0,2.8,2.4h0c.34.16.8.36,1.16.49a8,8,0,0,0,1.24.3,8.12,8.12,0,0,0,1.31.11c.06,0,.11-2,.13-4.88h0c-2.71,2.52-4.83-.14-4.77-1.64a2.52,2.52,0,0,1,4.38-1.53c.13.13.28.33.4.47q0-.23,0-.47c0-4.44-.06-8-.14-8a8.1,8.1,0,0,0-1.31.11"/><path class="cls-11" d="M76.34,135.8c-.38.08-.87.2-1.24.31a8,8,0,0,0-2.21,1.14,8.09,8.09,0,0,0-2.4,2.8,8,8,0,0,0-.9,3.69A8.1,8.1,0,0,0,69.7,145a8,8,0,0,0,1.45,3.45,8.09,8.09,0,0,0,2.8,2.4h0c.34.16.8.36,1.16.49a8,8,0,0,0,1.24.3,8.12,8.12,0,0,0,1.31.11c.06,0,.11-1.9.13-4.65h0c-2.33,2.15-5,.33-4.93-1.86.08-2,2.6-3.52,4.71-1.53.08.07.16.19.23.28v-.28c0-4.44-.06-8-.14-8a8.1,8.1,0,0,0-1.31.11"/><path class="cls-12" d="M76.34,135.8c-.38.08-.87.2-1.24.31a8,8,0,0,0-2.21,1.14,8.09,8.09,0,0,0-2.4,2.8,8,8,0,0,0-.9,3.69A8.1,8.1,0,0,0,69.7,145a8,8,0,0,0,1.45,3.45,8.09,8.09,0,0,0,2.8,2.4h0c.34.16.8.36,1.16.49a8,8,0,0,0,1.24.3,8.12,8.12,0,0,0,1.31.11c.05,0,.1-1.8.13-4.43h0c-3.75,2.76-5.24-1.08-5.13-2.08.33-2.86,3.52-3.37,5.14-1.45,0-4.52-.06-8.13-.14-8.13a8.1,8.1,0,0,0-1.31.11"/><path class="cls-13" d="M76.34,135.8c-.38.08-.87.2-1.24.31a8,8,0,0,0-2.21,1.14,8.09,8.09,0,0,0-2.4,2.8,8,8,0,0,0-.9,3.69A8.1,8.1,0,0,0,69.7,145a8,8,0,0,0,1.45,3.45,8.09,8.09,0,0,0,2.8,2.4h0c.34.16.8.36,1.16.49a8,8,0,0,0,1.24.3,8.12,8.12,0,0,0,1.31.11c.05,0,.1-1.69.12-4.18h0c-3.55,2.61-5.57-.72-5.38-2.34.13-1.14,1.82-4.44,5.4-1.64,0-4.39-.06-7.93-.14-7.93a8.1,8.1,0,0,0-1.31.11"/><path class="cls-14" d="M76.34,135.8c-.38.08-.87.2-1.24.31a8,8,0,0,0-2.21,1.14,8.09,8.09,0,0,0-2.4,2.8,8,8,0,0,0-.9,3.69A8.1,8.1,0,0,0,69.7,145a8,8,0,0,0,1.45,3.45,8.09,8.09,0,0,0,2.8,2.4h0c.34.16.8.36,1.16.49a8,8,0,0,0,1.24.3,8.12,8.12,0,0,0,1.31.11c.05,0,.1-1.57.12-3.92h0C74,150.57,72,147,72.13,145.27c.14-1.34,2.17-4.53,5.65-1.83,0-4.3-.06-7.75-.14-7.75a8.1,8.1,0,0,0-1.31.11"/><path class="cls-15" d="M76.34,135.8c-.38.08-.87.2-1.24.31a8,8,0,0,0-2.21,1.14,8.09,8.09,0,0,0-2.4,2.8,8,8,0,0,0-.9,3.69A8.1,8.1,0,0,0,69.7,145a8,8,0,0,0,1.45,3.45,8.09,8.09,0,0,0,2.8,2.4h0c.34.16.8.36,1.16.49a8,8,0,0,0,1.24.3,8.12,8.12,0,0,0,1.31.11s.09-1.45.12-3.64h0c-4,2.77-6.12-1-5.89-2.88.26-2.11,2.88-4.36,5.91-2,0-4.21-.07-7.56-.14-7.56a8.1,8.1,0,0,0-1.31.11"/><path class="cls-16" d="M76.34,135.8c-.38.08-.87.2-1.24.31a8,8,0,0,0-2.21,1.14,8.09,8.09,0,0,0-2.4,2.8,8,8,0,0,0-.9,3.69A8.1,8.1,0,0,0,69.7,145a8,8,0,0,0,1.45,3.45,8.09,8.09,0,0,0,2.8,2.4h0c.34.16.8.36,1.16.49a8,8,0,0,0,1.24.3,8.12,8.12,0,0,0,1.31.11,32.22,32.22,0,0,0,.11-3.3h0c-4.07,2.78-6.38-1.32-6.17-3.21.25-2.19,3-4.63,6.19-2.2,0-4.13-.07-7.38-.14-7.38a8.1,8.1,0,0,0-1.31.11"/><path class="cls-17" d="M76.34,135.8c-.38.08-.87.2-1.24.31a8,8,0,0,0-2.21,1.14,8.09,8.09,0,0,0-2.4,2.8,8,8,0,0,0-.9,3.69A8.1,8.1,0,0,0,69.7,145a8,8,0,0,0,1.45,3.45,8.09,8.09,0,0,0,2.8,2.4h0c.34.16.8.36,1.16.49a8,8,0,0,0,1.24.3,8.12,8.12,0,0,0,1.31.11,27.06,27.06,0,0,0,.11-2.94h0c-3.9,2.56-6.88-1.31-6.33-4.15,0-.05,1.48-4.85,6.36-1.83,0-4-.07-7.18-.14-7.18a8.1,8.1,0,0,0-1.31.11"/><path class="cls-18" d="M76.34,135.8c-.38.08-.87.2-1.24.31a8,8,0,0,0-2.21,1.14,8.09,8.09,0,0,0-2.4,2.8,8,8,0,0,0-.9,3.69A8.1,8.1,0,0,0,69.7,145a8,8,0,0,0,1.45,3.45,8.09,8.09,0,0,0,2.8,2.4h0c.34.16.8.36,1.16.49a8,8,0,0,0,1.24.3,8.12,8.12,0,0,0,1.31.11,22,22,0,0,0,.1-2.55h0c-4.48,2.48-7.22-2.21-6.56-4.72,0-.05,1.73-4.85,6.6-1.87,0-3.92-.07-6.95-.14-6.95a8.1,8.1,0,0,0-1.31.11"/><path class="cls-19" d="M76.34,135.8c-.38.08-.87.2-1.24.31a8,8,0,0,0-2.21,1.14,8.09,8.09,0,0,0-2.4,2.8,8,8,0,0,0-.9,3.69A8.1,8.1,0,0,0,69.7,145a8,8,0,0,0,1.45,3.45,8.09,8.09,0,0,0,2.8,2.4h0c.34.16.8.36,1.16.49a8,8,0,0,0,1.24.3,8.12,8.12,0,0,0,1.31.11,17.44,17.44,0,0,0,.1-2.18h0c-3.93,2.13-7.77-1.93-6.63-5.64.23-.74,2.41-4.14,6.67-1.54,0-3.81-.07-6.72-.14-6.72a8.1,8.1,0,0,0-1.31.11"/><path class="cls-20" d="M76.34,135.8c-.38.08-.87.2-1.24.31a8,8,0,0,0-2.21,1.14,8.09,8.09,0,0,0-2.4,2.8,8,8,0,0,0-.9,3.69A8.1,8.1,0,0,0,69.7,145a8,8,0,0,0,1.45,3.45,8.09,8.09,0,0,0,2.8,2.4h0c.34.16.8.36,1.16.49a8,8,0,0,0,1.24.3,8.12,8.12,0,0,0,1.31.11,13.72,13.72,0,0,0,.09-1.86h0c-4.54,1.94-8-2.88-6.8-6.19,0,0,1.72-4.43,6.85-1.55,0-3.7-.07-6.5-.14-6.5a8.1,8.1,0,0,0-1.31.11"/><path class="cls-21" d="M76.34,135.8c-.38.08-.87.2-1.24.31a8,8,0,0,0-2.21,1.14,8.09,8.09,0,0,0-2.4,2.8,8,8,0,0,0-.9,3.69A8.1,8.1,0,0,0,69.7,145a8,8,0,0,0,1.45,3.45,8.09,8.09,0,0,0,2.8,2.4h0c.34.16.8.36,1.16.49a8,8,0,0,0,1.24.3,8.12,8.12,0,0,0,1.31.11,10.64,10.64,0,0,0,.08-1.57h0A5.35,5.35,0,0,1,71,143c.33-.6,2.19-3.5,6.74-1.07,0-3.55-.07-6.2-.14-6.2a8.1,8.1,0,0,0-1.31.11"/><path class="cls-22" d="M76.34,135.8c-.38.08-.87.2-1.24.31a8,8,0,0,0-2.21,1.14,8.09,8.09,0,0,0-2.4,2.8,8,8,0,0,0-.9,3.69A8.1,8.1,0,0,0,69.7,145a8,8,0,0,0,1.45,3.45,8.09,8.09,0,0,0,2.8,2.4h0c.34.16.8.36,1.16.49a8,8,0,0,0,1.24.3,8.12,8.12,0,0,0,1.31.11,8.17,8.17,0,0,0,.08-1.31h0c-5.06,1.63-8.61-4.14-6.92-7.51.2-.41,2.14-3.94,7-1.36,0-3.4-.07-5.91-.14-5.91a8.1,8.1,0,0,0-1.31.11"/><path class="cls-23" d="M76.34,135.8c-.38.08-.87.2-1.24.31a8,8,0,0,0-2.21,1.14,8.09,8.09,0,0,0-2.4,2.8,8,8,0,0,0-.9,3.69A8.1,8.1,0,0,0,69.7,145a8,8,0,0,0,1.45,3.45,8.09,8.09,0,0,0,2.8,2.4h0c.34.16.8.36,1.16.49a8,8,0,0,0,1.24.3,8.12,8.12,0,0,0,1.31.11,6.17,6.17,0,0,0,.07-1.09h0c-5.28,1.36-9.11-4.43-6.83-8.31.61-1,2.5-3.22,6.89-1.1,0-3.24-.07-5.59-.13-5.59a8.1,8.1,0,0,0-1.31.11"/><path class="cls-24" d="M76.34,135.8c-.38.08-.87.2-1.24.31a8,8,0,0,0-2.21,1.14,8.09,8.09,0,0,0-2.4,2.8,8,8,0,0,0-.9,3.69A8.1,8.1,0,0,0,69.7,145a8,8,0,0,0,1.45,3.45,8.09,8.09,0,0,0,2.8,2.4h0c.34.16.8.36,1.16.49a8,8,0,0,0,1.24.3,8.12,8.12,0,0,0,1.31.11,4.54,4.54,0,0,0,.06-.89h0c-5.69,1.36-9.12-5.38-7-8.69.86-1.32,2.92-3.24,7-1.27,0-3.06-.07-5.25-.13-5.25a8.1,8.1,0,0,0-1.31.11"/><path class="cls-25" d="M76.34,135.8c-.38.08-.87.2-1.24.31a8,8,0,0,0-2.21,1.14,8.09,8.09,0,0,0-2.4,2.8,8,8,0,0,0-.9,3.69A8.1,8.1,0,0,0,69.7,145a8,8,0,0,0,1.45,3.45,8.09,8.09,0,0,0,2.8,2.4h0c.34.16.8.36,1.16.49a8,8,0,0,0,1.24.3,8.12,8.12,0,0,0,1.31.11,3.25,3.25,0,0,0,.06-.71h0c-5.61,1.08-9.51-5.41-6.91-9.29,1-1.5,3-2.92,7-1.2,0-2.87-.07-4.89-.13-4.89a8.1,8.1,0,0,0-1.31.11"/><path class="cls-26" d="M76.34,135.8c-.38.08-.87.2-1.24.31a8,8,0,0,0-2.21,1.14,8.09,8.09,0,0,0-2.4,2.8,8,8,0,0,0-.9,3.69A8.1,8.1,0,0,0,69.7,145a8,8,0,0,0,1.45,3.45,8.09,8.09,0,0,0,2.8,2.4h0c.34.16.8.36,1.16.49a8,8,0,0,0,1.24.3,8.12,8.12,0,0,0,1.31.11,2.23,2.23,0,0,0,.05-.55h0c-5.82,1-9.63-5.74-6.92-9.75.67-1,2.69-3.1,7-1.26,0-2.68-.07-4.53-.13-4.53a8.1,8.1,0,0,0-1.31.11"/><path class="cls-27" d="M76.34,135.8c-.38.08-.87.2-1.24.31a8,8,0,0,0-2.21,1.14,8.09,8.09,0,0,0-2.4,2.8,8,8,0,0,0-.9,3.69A8.1,8.1,0,0,0,69.7,145a8,8,0,0,0,1.45,3.45,8.09,8.09,0,0,0,2.8,2.4h0c.34.16.8.36,1.16.49a8,8,0,0,0,1.24.3,8.12,8.12,0,0,0,1.31.11,1.44,1.44,0,0,0,0-.41h0c-6.06.84-9.83-6.32-6.82-10.32,1.49-2,3.81-2.38,6.89-1.2,0-2.48-.07-4.17-.12-4.17a8.1,8.1,0,0,0-1.31.11"/><path class="cls-28" d="M76.34,135.8c-.38.08-.87.2-1.24.31a8,8,0,0,0-2.21,1.14,8.09,8.09,0,0,0-2.4,2.8,8,8,0,0,0-.9,3.69A8.1,8.1,0,0,0,69.7,145a8,8,0,0,0,1.45,3.45,8.09,8.09,0,0,0,2.8,2.4h0c.34.16.8.36,1.16.49a8,8,0,0,0,1.24.3,8.12,8.12,0,0,0,1.31.11.86.86,0,0,0,0-.29h0c-6.19.73-10-6.77-6.82-10.72,1.59-2,3.92-2.41,6.91-1.28,0-2.28-.07-3.81-.12-3.81a8.1,8.1,0,0,0-1.31.11"/><path class="cls-29" d="M72.89,150.23a8.06,8.06,0,0,0,1.06.65h0c.34.16.8.36,1.16.49a8,8,0,0,0,1.24.3,8.12,8.12,0,0,0,1.31.11s0-.06,0-.18h0a7,7,0,0,1-5-1.54l.22.17"/><path class="cls-29" d="M76.34,135.8c-.38.08-.87.2-1.24.31a8,8,0,0,0-2.21,1.14,8.09,8.09,0,0,0-2.4,2.8,8,8,0,0,0-.9,3.69A8.1,8.1,0,0,0,69.7,145a8,8,0,0,0,.76,2.33h0c-2.4-5.23,1-10.38,7.3-8.24a34.16,34.16,0,0,0-.12-3.44,8.1,8.1,0,0,0-1.31.11"/><path class="cls-30" d="M75.1,151.37a8,8,0,0,0,1.24.3,8.12,8.12,0,0,0,1.31.11s0,0,0-.1h0a6.91,6.91,0,0,1-3.26-.58q.34.15.7.27"/><path class="cls-30" d="M76.34,135.8c-.38.08-.87.2-1.24.31a8,8,0,0,0-2.21,1.14,8.09,8.09,0,0,0-2.4,2.8,8,8,0,0,0-.9,3.69A8.1,8.1,0,0,0,69.7,145q0,.22.08.43h0c-.83-4.06,1.86-8.69,8-6.71a28.91,28.91,0,0,0-.11-3.07,8.1,8.1,0,0,0-1.31.11"/><path class="cls-31" d="M76.34,151.68a8.12,8.12,0,0,0,1.31.11.1.1,0,0,0,0,0h0a6.46,6.46,0,0,1-1.91-.19l.59.12"/><path class="cls-31" d="M76.34,135.8c-.38.08-.87.2-1.24.31a8,8,0,0,0-2.21,1.14,8.09,8.09,0,0,0-2.4,2.8,8,8,0,0,0-.9,3.69q0,.15,0,.3h0c-.05-3.38,2.44-7.37,8.15-5.66a23.82,23.82,0,0,0-.1-2.69,8.1,8.1,0,0,0-1.31.11"/><path class="cls-32" d="M77.65,151.78h0"/><path class="cls-32" d="M76.34,135.8c-.38.08-.87.2-1.24.31a8,8,0,0,0-2.21,1.14,8.09,8.09,0,0,0-2.4,2.8,8,8,0,0,0-.79,2.39q0,.14,0,.28h0c.51-3,2.93-6.11,8.09-4.73a18.79,18.79,0,0,0-.1-2.29,8.1,8.1,0,0,0-1.31.11"/><path class="cls-33" d="M76.34,135.8c-.38.08-.87.2-1.24.31a8,8,0,0,0-2.21,1.14,8.09,8.09,0,0,0-2.4,2.8A8,8,0,0,0,70,141.2l-.07.21h0c1.18-3.33,4.09-4.77,7.8-3.85a13.88,13.88,0,0,0-.09-1.87,8.1,8.1,0,0,0-1.31.11"/><path class="cls-34" d="M76.34,135.8c-.38.08-.87.2-1.24.31a8,8,0,0,0-2.21,1.14A8.09,8.09,0,0,0,70.53,140h0c.88-1.48,3-3.84,7.2-2.89a8.91,8.91,0,0,0-.08-1.39,8.1,8.1,0,0,0-1.31.11"/><path class="cls-36" d="M73.79,146a2.14,2.14,0,0,0,1,1.12,1.91,1.91,0,0,0,1,.24,1.85,1.85,0,0,0,1-.22,2.44,2.44,0,0,0,1-1.14c.19-.55.12-.71-.23-1.48,0,0-.65-.72-.82-.84a2.06,2.06,0,0,0-1.09-.3,2.7,2.7,0,0,0-1,.31,2,2,0,0,0-.72,2.32"/><path class="cls-37" d="M73.93,146a2.41,2.41,0,0,0,.84,1,2,2,0,0,0,1,.29,1.9,1.9,0,0,0,1-.24,2.75,2.75,0,0,0,.83-1,2,2,0,0,0-.91-2.2s-1.05-.32-1.09-.32a2.44,2.44,0,0,0-.83.26,1.77,1.77,0,0,0-.79,2.26"/><path class="cls-38" d="M74.07,146a5.08,5.08,0,0,0,.68.78,2,2,0,0,0,1,.34,2,2,0,0,0,1-.25,3.38,3.38,0,0,0,.7-.87c.37-.95-.38-1.67-.78-2.06a2.09,2.09,0,0,0-1.09-.35,1.15,1.15,0,0,0-.47.14,1.6,1.6,0,0,0-1,2.26"/><path class="cls-39" d="M74.21,146a1.75,1.75,0,0,0,.51.6,5,5,0,0,0,1,.4,2.05,2.05,0,0,0,1-.27c.06,0,.57-.73.57-.73a1.55,1.55,0,0,0,.1-.73,1.74,1.74,0,0,0-.32-.75,1.57,1.57,0,0,0-.42-.44s-1-.43-1.2-.34c-.86.32-1,.44-1.22.78a1.68,1.68,0,0,0,0,1.48"/><path class="cls-40" d="M74.35,146a2.24,2.24,0,0,0,1.36.88,8.84,8.84,0,0,0,1-.3,1.36,1.36,0,0,0,.45-.58,1.53,1.53,0,0,0,.11-.73,1.89,1.89,0,0,0-.32-.75,1,1,0,0,0-.29-.3,2.6,2.6,0,0,0-1.1-.38,2.81,2.81,0,0,0-1,.5.49.49,0,0,0-.15.18,1.54,1.54,0,0,0,0,1.48"/><path class="cls-41" d="M74.5,146c.2.38,1.2.75,1.2.75s1-.3,1-.34A.94.94,0,0,0,77,146a1.54,1.54,0,0,0,.12-.73,1.94,1.94,0,0,0-.33-.75.5.5,0,0,0-.16-.17,2.77,2.77,0,0,0-1.1-.39s-1,.52-1,.55a1.41,1.41,0,0,0,0,1.48"/><path class="cls-42" d="M74.64,146a12,12,0,0,0,1,.63,2.2,2.2,0,0,0,1-.36.56.56,0,0,0,.19-.25,1.46,1.46,0,0,0,.13-.73,2.07,2.07,0,0,0-.34-.75,8.9,8.9,0,0,0-1.13-.43,1.81,1.81,0,0,0-.81.43,1,1,0,0,0-.2.34c-.16.33-.2.41.09,1.13"/><path class="cls-43" d="M74.58,145.37a1.86,1.86,0,0,0,.29.62,1.54,1.54,0,0,0,.8.47c.32,0,.72-.25,1-.39,0,0,.05-.06.07-.09a1.44,1.44,0,0,0,.14-.73,1.16,1.16,0,0,0-.24-.53.86.86,0,0,0-.28-.22,2,2,0,0,0-.82-.3.94.94,0,0,0-.57.3s-.5.62-.41.86"/><path class="cls-44" d="M75.1,146a1,1,0,0,0,.56.33,1.1,1.1,0,0,0,.84-.33c.29-.39.35-.73.15-1a2.46,2.46,0,0,0-1.1-.67.56.56,0,0,0-.33.17c-.18.2-.47.49-.49.75a1.2,1.2,0,0,0,.36.73"/><path class="cls-45" d="M75.33,146a.59.59,0,0,0,.31.19.72.72,0,0,0,.47-.19c.2-.18.55-.46.51-.73s-.66-.54-.95-.75a.22.22,0,0,0-.12,0c-.14,0-.61.79-.62.8a1.19,1.19,0,0,0,.39.73"/><path class="cls-46" d="M75.57,146a.13.13,0,0,0,.07,0,.13.13,0,0,0,.1,0c.18-.21.58-.46.55-.73a.79.79,0,0,0-.72-.57c-.21,0-.4.36-.41.57a1.21,1.21,0,0,0,.42.73"/><path class="cls-47" d="M75.61,145.7c.1-.13.35-.27.33-.43a.41.41,0,0,0-.37-.29c-.11,0-.21.18-.21.29s.18.3.25.43"/><path class="cls-48" d="M75.59,145.29s0,0,0,0l0,0v0"/></g></g></g><g class="cls-5"><g class="cls-52"><g class="cls-5"><path class="cls-33" d="M77.65,151.78a8.12,8.12,0,0,1-1.31-.11,8,8,0,0,1-1.24-.3c-.35-.13-.81-.33-1.16-.49a8.05,8.05,0,0,1-4.25-8.45,8,8,0,0,1,.79-2.39,8.07,8.07,0,0,1,4.61-3.94c.37-.11.86-.23,1.24-.31a8.13,8.13,0,0,1,2.61,0,8,8,0,0,1,2.39.79c.32.18.75.45,1.06.66a8.09,8.09,0,0,1,2.4,2.8,8,8,0,0,1,.9,3.69,8.1,8.1,0,0,1-.11,1.31,8,8,0,0,1-1.45,3.45,8.1,8.1,0,0,1-1.74,1.74c-.31.21-.73.47-1.06.65a8,8,0,0,1-2.39.79,8.12,8.12,0,0,1-1.31.11"/><path class="cls-33" d="M85.29,146.28a8,8,0,0,1-1.14,2.21,8.1,8.1,0,0,1-1.74,1.74h0c-.31.21-.73.47-1.06.65a8,8,0,0,1-2.39.79,8.15,8.15,0,0,1-2.61,0,8,8,0,0,1-1.24-.3h0c-.35-.13-.81-.33-1.16-.49a8.05,8.05,0,0,1-4.25-8.45,8,8,0,0,1,.79-2.39,8.07,8.07,0,0,1,4.61-3.94h0c.37-.11.86-.23,1.24-.31l.49-.06h0c-6,.65-7.34,8.44-2.16,12.64,4,3.24,9.3,2.11,10.68-2.3l-.07.21"/><path class="cls-34" d="M84.15,148.49a8.1,8.1,0,0,1-1.74,1.74h0c-.31.21-.73.47-1.06.65a8,8,0,0,1-2.39.79,8.15,8.15,0,0,1-2.61,0,8,8,0,0,1-1.24-.3h0c-.35-.13-.81-.33-1.16-.49a8.05,8.05,0,0,1-4.25-8.45,8,8,0,0,1,.79-2.39,8.07,8.07,0,0,1,4.61-3.94h0l.16-.05-.22.07c-6.3,2.43-4.69,11.11,1.08,13.77,3.87,1.78,7.28.15,8.64-2.39a8,8,0,0,1-.62,1"/><path class="cls-32" d="M79,135.8a8,8,0,0,1,2.39.79h0c.32.18.75.45,1.06.65a8.09,8.09,0,0,1,2.4,2.8,8,8,0,0,1,.9,3.69,8.12,8.12,0,0,1-.06,1h0c-1.12,6.76-9.07,6.59-12.54,1.24-3.12-4.83-.31-10.6,5-10.29a8.06,8.06,0,0,1,.83.09"/><path class="cls-31" d="M80.19,136.1a8,8,0,0,1,1.16.49h0c.32.18.75.45,1.06.65a8.09,8.09,0,0,1,2.4,2.8,8,8,0,0,1,.89,3.39h0c.09,5.91-6.23,8.19-10.92,3.93S72,136,77.69,135.72a6.82,6.82,0,0,1,1.84.19q.33.08.66.19"/><path class="cls-30" d="M81.35,136.59c.32.18.75.45,1.06.65a8.09,8.09,0,0,1,2.4,2.8,8,8,0,0,1,.71,2h0c1.26,6.12-4.79,9-9.33,6-5.18-3.46-4.74-10.93.71-12.11a6.74,6.74,0,0,1,4,.47l.47.22"/><path class="cls-29" d="M83.34,138.05a8.08,8.08,0,0,1,1.46,2l0,.07h0c2.78,6.06-2.2,10.39-7.31,8.24-5.57-2.35-6.46-10-1.4-12.09a6.57,6.57,0,0,1,6.49,1.15,8.11,8.11,0,0,1,.72.64"/><path class="cls-28" d="M84.47,139.47c3,5-.67,10.5-6,8.86-5.59-1.72-7.28-9.19-2.65-11.75,3.1-1.72,7,.1,8.65,2.89"/><path class="cls-27" d="M84.79,140.11c2.33,4.93-1.3,9.51-6.27,7.9-5.47-1.77-7-9.15-2.29-11.45,3.29-1.62,7.15.57,8.56,3.55"/><path class="cls-26" d="M84.74,140.11c2.39,5.1-1.8,9.09-6.22,7.57-5.3-1.82-6.53-8.76-2-11.08,2.72-1.38,6.69.33,8.19,3.51"/><path class="cls-25" d="M84.68,140.11c2.16,4.66-1.45,8.92-6.14,7.24-5.15-1.85-6.12-8.89-1.49-10.77,2.68-1.09,6.25.56,7.62,3.53"/><path class="cls-24" d="M84.87,140.78c1.61,4.86-2.87,8.36-7.36,5.76-4.22-2.44-4.18-8.58.07-10,2.79-.91,6.27,1.09,7.29,4.19"/><path class="cls-23" d="M84.77,140.78c1.55,4.77-2.8,8-7.26,5.43-4.12-2.39-3.73-8.56.6-9.58,2.91-.68,5.85,1.64,6.66,4.14"/><path class="cls-22" d="M84.66,140.78c1.32,4-2.08,7.21-6.07,5.67-4.69-1.81-4.69-7.81-1-9.43,2.63-1.16,6.08.67,7.09,3.76"/><path class="cls-21" d="M84.52,140.78c1.37,4.38-3,7.37-7,4.84-3.35-2.09-2.91-7.47.69-8.59,2.42-.75,5.49,1.07,6.33,3.75"/><path class="cls-20" d="M84.37,140.78c1.23,4-2.33,6.44-5.76,5.15-3.89-1.47-4.23-6.93-.54-8.59,2.28-1,5.46.71,6.3,3.45"/><path class="cls-19" d="M84.37,141.48c.54,4-3.85,5.74-6.86,3.63s-2.11-7,1.41-7.77a4.92,4.92,0,0,1,5.46,4.15"/><path class="cls-18" d="M84.17,141.48c.44,3.56-3.54,5.6-6.66,3.41A4.13,4.13,0,0,1,79,137.58c2.46-.56,4.9,1.67,5.17,3.9"/><path class="cls-17" d="M83.94,141.48c.33,2.86-3,5.6-6.44,3.19a3.9,3.9,0,0,1,1.57-6.82,4.24,4.24,0,0,1,4.87,3.63"/><path class="cls-16" d="M83.69,141.48c.35,3.53-3.87,5-6.19,3-2.85-2.52-.43-6.34,2.35-6.42a4,4,0,0,1,3.84,3.44"/><path class="cls-15" d="M83.42,141.48a3.48,3.48,0,0,1-5.91,2.79c-2.49-2.21-.45-5.94,2.46-5.94a3.6,3.6,0,0,1,3.45,3.15"/><path class="cls-14" d="M83.14,141.48a3.26,3.26,0,0,1-5.63,2.6c-2.17-1.94-.45-5.61,2.56-5.45a3.31,3.31,0,0,1,3.07,2.86"/><path class="cls-13" d="M82.91,142.21a3.09,3.09,0,0,1-5.54,1.53c-1.93-2.46.48-5.07,2.79-4.82a3.1,3.1,0,0,1,2.75,3.29"/><path class="cls-12" d="M82.65,142.21a2.68,2.68,0,0,1-1.89,2.48,2.73,2.73,0,0,1-2.11-.14s-1.07-.78-1.14-.86c-2.12-2.81.93-4.86,2.72-4.53a2.94,2.94,0,0,1,2.42,3"/><path class="cls-11" d="M82.45,142.21c-.08,2-2.61,3.53-4.73,1.53a2.55,2.55,0,0,1,1.69-4.39,2.82,2.82,0,0,1,3,2.86"/><path class="cls-10" d="M82.29,142.21a2.53,2.53,0,0,1-4.4,1.53,2.42,2.42,0,0,1,1.55-4.21,2.71,2.71,0,0,1,2.86,2.68"/><path class="cls-9" d="M82,143a2.47,2.47,0,0,1-1.19,1.27,2.08,2.08,0,0,1-1,.21,2.25,2.25,0,0,1-1.09-.27A3.29,3.29,0,0,1,77.43,143a2.12,2.12,0,0,1,.11-2.18,2.47,2.47,0,0,1,2.85-1c.87.29,2.21,1.66,1.59,3.15"/><path class="cls-8" d="M81.78,143a2.22,2.22,0,0,1-1,1.12,2.09,2.09,0,0,1-1,.25,2.28,2.28,0,0,1-1.09-.28A3.83,3.83,0,0,1,77.56,143a2,2,0,0,1,.14-2.18,2.32,2.32,0,0,1,2.72-.77c.36.13,2.12,1.21,1.36,3"/><path class="cls-7" d="M81.7,142.58a2,2,0,0,1-3.06,1.35,5.24,5.24,0,0,1-.95-1,1.91,1.91,0,0,1,.17-2.18c.19-.19.41-.52.67-.57a5.09,5.09,0,0,1,1-.23l1,.22a2.11,2.11,0,0,1,1.25,2.38"/><path class="cls-36" d="M81.49,143a6.38,6.38,0,0,1-.71.84,1.66,1.66,0,0,1-1,.31,5.1,5.1,0,0,1-1.18-.37,2.44,2.44,0,0,1-1-1.53,2.06,2.06,0,0,1,1-1.87,2.2,2.2,0,0,1,2.49.44,2.08,2.08,0,0,1,.45,2.18"/><path class="cls-37" d="M81.35,143a1.88,1.88,0,0,1-.57.68,6.78,6.78,0,0,1-1,.35c-.12,0-1.07-.3-1.09-.32a2.32,2.32,0,0,1-1-1.46,2,2,0,0,1,.88-1.74,2.06,2.06,0,0,1,1-.23,2.51,2.51,0,0,1,1.32.54,1.87,1.87,0,0,1,.5,2.18"/><path class="cls-38" d="M81.21,143a2,2,0,0,1-1.47.92,2.67,2.67,0,0,1-1.09-.35,2.1,2.1,0,0,1-.84-1.33,1.46,1.46,0,0,1,.08-.73,3.59,3.59,0,0,1,.68-.87,2.12,2.12,0,0,1,1-.25,4.27,4.27,0,0,1,1.11.42,1.74,1.74,0,0,1,.56,2.18"/><path class="cls-39" d="M81.07,143a1,1,0,0,1-.29.35s-1,.47-1,.46-1.09-.37-1.1-.37a1.9,1.9,0,0,1-.72-1.19,1.53,1.53,0,0,1,.09-.73s.52-.71.56-.73a2.2,2.2,0,0,1,1-.27,5.81,5.81,0,0,1,1,.4,1.67,1.67,0,0,1,.49,2.08"/><path class="cls-40" d="M80.92,143a.49.49,0,0,1-.15.18,2.81,2.81,0,0,1-1,.5,2.6,2.6,0,0,1-1.1-.38.68.68,0,0,1-.29-.3c-.1-.23-.34-.51-.31-.75a3,3,0,0,1,.1-.73,1.5,1.5,0,0,1,.44-.58,9.39,9.39,0,0,1,1-.3,1.06,1.06,0,0,1,.48.17,1.54,1.54,0,0,1,1.08,1.43,1.82,1.82,0,0,1-.21.75"/><path class="cls-41" d="M80.78,143s-1,.55-1,.55a2.78,2.78,0,0,1-1.1-.39.37.37,0,0,1-.16-.17c-.1-.22-.33-.51-.32-.75,0-.47,0-.87.43-1.15,0,0,.74-.27,1-.33,0,0,.09,0,.13,0,.83.39,1.29.61,1.28,1.43a1.8,1.8,0,0,1-.23.75"/><path class="cls-42" d="M80.75,142.63a.86.86,0,0,1-.2.33,1.83,1.83,0,0,1-.81.43,9.14,9.14,0,0,1-1.13-.43,2,2,0,0,1-.33-.75c0-.08,0-.75.31-1a1.73,1.73,0,0,1,1-.36,1.59,1.59,0,0,1,1,.61,1.06,1.06,0,0,1,.11,1.15"/><path class="cls-43" d="M80.72,142.27c-.1.24-.42,1-1,1a2.51,2.51,0,0,1-1.1-.52,1.29,1.29,0,0,1-.24-.53s.06-.71.2-.82a1.75,1.75,0,0,1,1-.38,1.42,1.42,0,0,1,.8.47s.38.63.31.79"/><path class="cls-44" d="M80.07,143a.65.65,0,0,1-.33.17,1,1,0,0,1-.47-.17,1.83,1.83,0,0,1-.63-.5c0-.07-.13-.17-.11-.25s.08-.59.27-.73a1.44,1.44,0,0,1,.84-.33,1,1,0,0,1,.56.33,1.24,1.24,0,0,1,.36.73,1.35,1.35,0,0,1-.49.75"/><path class="cls-45" d="M79.82,143a.18.18,0,0,1-.09,0,.22.22,0,0,1-.13,0c-.29-.22-.9-.39-.95-.75s.32-.55.52-.73a.72.72,0,0,1,.47-.18.52.52,0,0,1,.31.18c.15.2.41.48.39.73a1.37,1.37,0,0,1-.53.75"/><path class="cls-46" d="M79.73,142.78a.8.8,0,0,1-.72-.57c0-.27.37-.52.55-.73a.13.13,0,0,1,.1,0c.11,0,.49.76.49.77,0,.21-.2.55-.41.57"/><path class="cls-47" d="M79.72,142.5a.41.41,0,0,1-.37-.29c0-.16.23-.3.33-.43.08.13.26.28.25.43s-.11.28-.21.29"/><path class="cls-48" d="M79.7,142.23l0,0s0,0,0,0v0"/></g></g></g></g><path class="cls-53" d="M289.26,143.66a41.72,41.72,0,0,1-7.67,24.17A1.61,1.61,0,1,1,279,166a38.61,38.61,0,0,0,.16-44.32s0,0,0,0a1.61,1.61,0,0,1-.29-.92V6.09a1.61,1.61,0,0,1,3.22,0V120.2A41.61,41.61,0,0,1,289.26,143.66Z"/><path class="cls-53" d="M128.36,143.76a41.64,41.64,0,0,1-7.67,24.08,1.61,1.61,0,0,1-2.63-1.86,38.59,38.59,0,0,0,.17-44.32s0,0,0,0a1.61,1.61,0,0,1-.29-.92V6.09a1.6,1.6,0,0,1,3.21,0v114.1A41.75,41.75,0,0,1,128.36,143.76Z"/></g><g id="Text"><g id="puckstick-2" data-name="puckstick"><text class="cls-54" transform="translate(95.71 114.47)">D</text><text class="cls-54" transform="translate(83.78 156.26)">v</text><text class="cls-55" transform="translate(89.78 160.25) scale(0.58)">0</text><text class="cls-55" transform="translate(137.41 71.99)"><tspan class="cls-56">c</tspan><tspan x="5.94" y="0">en</tspan><tspan class="cls-57" x="19.29" y="0">t</tspan><tspan x="22.55" y="0">er of mass</tspan><tspan x="0" y="14.4">stick</tspan></text><text class="cls-54" transform="translate(256.62 89.53)">b</text><text class="cls-55" transform="translate(298.31 71.99)"><tspan class="cls-56">c</tspan><tspan x="5.94" y="0">en</tspan><tspan class="cls-58" x="19.29" y="0">t</tspan><tspan x="22.56" y="0">er of mass</tspan><tspan x="0" y="14.4">stick</tspan></text><text class="cls-55" transform="translate(298.31 105.78)"><tspan class="cls-56">c</tspan><tspan x="5.94" y="0">en</tspan><tspan class="cls-58" x="19.29" y="0">t</tspan><tspan x="22.56" y="0">er of mass</tspan><tspan x="0" y="14.4">stick + puck</tspan></text><text class="cls-59" transform="translate(65.07 13.52)">(a)</text><text class="cls-55" transform="translate(241.34 13.52)"><tspan class="cls-60">(b</tspan><tspan x="10.65" y="0">)</tspan></text></g></g><g id="Arrows"><g id="puckstick-3" data-name="puckstick"><line class="cls-3" x1="96.9" y1="143.74" x2="78.18" y2="143.73"/><polygon class="cls-2" points="100.43 143.74 95.46 141.71 96.64 143.74 95.46 145.77 100.43 143.74"/></g></g></svg>