<svg xmlns="http://www.w3.org/2000/svg" viewBox="0 0 446.46 140.67"><defs><style>.cls-1,.cls-2,.cls-3,.cls-4{fill:none;stroke:#231f20;stroke-miterlimit:10;}.cls-1{stroke-width:2px;}.cls-3{stroke-width:1.04px;}.cls-4{stroke-width:5px;}.cls-5{font-size:13px;font-family:Symbol, Symbol;}.cls-5,.cls-6,.cls-7{fill:#231f20;}.cls-6{font-size:12px;font-family:Helvetica, Helvetica;}</style></defs><title>rollingwheel</title><g id="Graphics"><circle class="cls-1" cx="144.29" cy="92.07" r="2.86"/><line class="cls-2" x1="147.15" y1="92.07" x2="187.17" y2="92.07"/><line class="cls-3" x1="141.43" y1="92.07" x2="101.41" y2="92.07"/><line class="cls-2" x1="144.29" y1="89.21" x2="144.29" y2="49.19"/><line class="cls-3" x1="144.29" y1="94.92" x2="144.29" y2="134.94"/><line class="cls-2" x1="146.76" y1="90.64" x2="181.42" y2="70.63"/><line class="cls-3" x1="141.81" y1="93.5" x2="107.15" y2="113.51"/><line class="cls-2" x1="145.72" y1="89.59" x2="165.73" y2="54.93"/><line class="cls-3" x1="142.86" y1="94.54" x2="122.85" y2="129.2"/><line class="cls-2" x1="142.86" y1="89.59" x2="122.85" y2="54.93"/><line class="cls-3" x1="145.72" y1="94.54" x2="165.73" y2="129.2"/><line class="cls-2" x1="141.81" y1="90.64" x2="107.15" y2="70.63"/><line class="cls-3" x1="146.76" y1="93.5" x2="181.42" y2="113.51"/><circle class="cls-1" cx="307.67" cy="73.57" r="2.86"/><line class="cls-2" x1="310.52" y1="73.57" x2="350.54" y2="73.57"/><line class="cls-3" x1="304.81" y1="73.57" x2="264.79" y2="73.57"/><line class="cls-2" x1="307.67" y1="70.71" x2="307.67" y2="30.69"/><line class="cls-3" x1="307.67" y1="76.43" x2="307.67" y2="116.45"/><line class="cls-2" x1="310.14" y1="72.14" x2="344.8" y2="52.13"/><line class="cls-3" x1="305.19" y1="75" x2="270.53" y2="95.01"/><line class="cls-2" x1="309.09" y1="71.1" x2="329.1" y2="36.44"/><line class="cls-3" x1="306.24" y1="76.05" x2="286.23" y2="110.71"/><line class="cls-2" x1="306.24" y1="71.1" x2="286.23" y2="36.44"/><line class="cls-3" x1="309.1" y1="76.05" x2="329.11" y2="110.71"/><line class="cls-2" x1="305.19" y1="72.14" x2="270.53" y2="52.13"/><line class="cls-3" x1="310.14" y1="75" x2="344.8" y2="95.01"/><circle class="cls-4" cx="144.29" cy="92.07" r="42.88"/><circle class="cls-4" cx="307.67" cy="73.57" r="42.88"/><line class="cls-1" x1="83.75" y1="136.45" x2="204.82" y2="136.45"/><polyline class="cls-1" points="379.59 136.45 265.82 136.45 379.59 95.04"/></g><g id="Text"><text class="cls-5" transform="translate(139.58 35.18)">ω</text><text class="cls-5" transform="translate(278.43 21.42)">ω</text><text class="cls-6" transform="translate(67.78 10.16)">(a)</text><text class="cls-6" transform="translate(244.53 10.16)">(b)</text><text class="cls-5" transform="translate(289.77 134.63)">a</text></g><g id="Arrows"><path class="cls-1" d="M174.63,50.72a50.42,50.42,0,0,0-66,4.64"/><polygon class="cls-7" points="179.96 55.36 174.97 45.84 174.15 50.47 169.73 52.06 179.96 55.36"/><path class="cls-1" d="M322,24A50.42,50.42,0,0,0,261.58,51"/><polygon class="cls-7" points="328.62 26.57 320.68 19.33 321.5 23.96 317.88 26.97 328.62 26.57"/><path class="cls-1" d="M280,131.3a15,15,0,0,1,.9,5.15"/></g></svg>