<svg xmlns="http://www.w3.org/2000/svg" viewBox="0 0 446.46 189.57"><defs><style>.cls-1{fill:#bcbec0;}.cls-11,.cls-2,.cls-3,.cls-9{fill:none;stroke-miterlimit:10;stroke-width:2px;}.cls-11,.cls-2{stroke:#231f20;}.cls-3{stroke:#2e4e79;}.cls-4,.cls-7,.cls-8{fill:#231f20;}.cls-5,.cls-7,.cls-8{font-size:12px;}.cls-10,.cls-5,.cls-6{fill:#e5943e;}.cls-5,.cls-8{font-family:Helvetica, Helvetica;}.cls-6{font-size:13px;font-family:Symbol, Symbol;}.cls-7{font-family:Helvetica-Oblique, Helvetica;}.cls-9{stroke:#e5943e;}.cls-11{stroke-dasharray:4 4;}</style></defs><title>rollingcylinder</title><g id="Graphics"><polyline class="cls-1" points="166.28 184.92 3.32 90.84 11.44 76.78 198.88 185"/><line class="cls-2" x1="11.44" y1="76.78" x2="198.88" y2="185"/><circle class="cls-3" cx="108.78" cy="70.5" r="54.11" transform="translate(-6.66 129.46) rotate(-60)"/><path class="cls-4" d="M84.07,118.71a2.71,2.71,0,1,1-1-3.7,2.71,2.71,0,0,1,1,3.7"/><polyline class="cls-1" points="409.77 184.92 246.82 90.84 254.93 76.78 442.37 185"/><line class="cls-2" x1="254.93" y1="76.78" x2="442.37" y2="185"/><circle class="cls-3" cx="352.28" cy="70.5" r="54.11" transform="translate(115.08 340.33) rotate(-60)"/><path class="cls-4" d="M327.57,118.71a2.71,2.71,0,1,1-1-3.7,2.71,2.71,0,0,1,1,3.7"/></g><g id="Text"><text class="cls-5" transform="translate(116.76 71.96)">v</text><text class="cls-6" transform="translate(137.07 10.2)">ω</text><text class="cls-7" transform="translate(128.36 179.58)">θ</text><text class="cls-8" transform="translate(3 10.77)">(a)</text><text class="cls-5" transform="translate(238.67 61.06)">a</text><text class="cls-6" transform="translate(380.56 10.2)">ω</text><text class="cls-7" transform="translate(371.85 179.58)">θ</text><text class="cls-8" transform="translate(246.5 10.77)">(b)</text></g><g id="Arrows"><path class="cls-9" d="M119.38,10.35a54,54,0,0,1,20.37,6.85,54.74,54.74,0,0,1,5.48,3.62"/><polygon class="cls-10" points="150.58 25.41 140.35 22.13 144.77 20.53 145.58 15.9 150.58 25.41"/><line class="cls-9" x1="108.78" y1="70.5" x2="130.79" y2="83.2"/><polygon class="cls-10" points="136.9 86.73 126.25 85.28 130.33 82.94 130.32 78.24 136.9 86.73"/><line class="cls-11" x1="90.66" y1="184.99" x2="198.88" y2="184.99"/><path class="cls-9" d="M362.87,10.35a54,54,0,0,1,20.37,6.85,54.74,54.74,0,0,1,5.48,3.62"/><polygon class="cls-10" points="394.08 25.41 383.84 22.13 388.27 20.53 389.07 15.9 394.08 25.41"/><line class="cls-11" x1="334.15" y1="184.99" x2="442.37" y2="184.99"/><line class="cls-9" x1="229.3" y1="62.61" x2="245.77" y2="74"/><polygon class="cls-10" points="223.5 58.6 229.37 67.6 229.74 62.91 233.99 60.91 223.5 58.6"/></g></svg>