<svg xmlns="http://www.w3.org/2000/svg" viewBox="0 0 446.46 146.25"><defs><style>.cls-1{fill:#c89341;stroke:#6f4f2b;}.cls-1,.cls-2{stroke-miterlimit:10;stroke-width:2px;}.cls-2{fill:none;stroke:#231f20;}.cls-3{font-size:13px;font-family:Symbol, Symbol;}.cls-3,.cls-4,.cls-5,.cls-7{fill:#231f20;}.cls-4,.cls-5{font-size:12px;font-family:Helvetica, Helvetica;}.cls-4,.cls-6{letter-spacing:0em;}</style></defs><title>rollingwagonwheel</title><g id="Graphics"><rect class="cls-1" x="93.73" y="91.28" width="88.04" height="5.87"/><rect class="cls-1" x="134.82" y="50.2" width="5.87" height="88.04"/><polyline class="cls-1" points="166.8 127.42 104.55 65.17 108.7 61.02 170.95 123.27 166.8 127.42"/><polyline class="cls-1" points="170.95 65.17 108.7 127.42 104.55 123.27 166.8 61.02 170.95 65.17"/><path class="cls-1" d="M146.56,94.22a8.8,8.8,0,1,1-8.8-8.8,8.8,8.8,0,0,1,8.8,8.8"/><path class="cls-1" d="M140.69,94.22a2.93,2.93,0,1,1-2.93-2.93,2.93,2.93,0,0,1,2.93,2.93"/><path class="cls-1" d="M137.75,44.33a49.89,49.89,0,1,0,49.89,49.89A49.89,49.89,0,0,0,137.75,44.33Zm0,93.91a44,44,0,1,1,44-44A44,44,0,0,1,137.75,138.24Z"/><polyline class="cls-1" points="338.26 60.84 255.53 90.95 253.52 85.44 336.25 55.33 338.26 60.84"/><polyline class="cls-1" points="308.19 115.51 278.08 32.78 283.59 30.77 313.7 113.5 308.19 115.51"/><polyline class="cls-1" points="334.54 94.4 254.75 57.2 257.23 51.88 337.02 89.08 334.54 94.4"/><polyline class="cls-1" points="317.15 34.48 279.94 114.27 274.63 111.79 311.83 32 317.15 34.48"/><path class="cls-1" d="M342.76,56.08A49.88,49.88,0,1,0,313,120,49.89,49.89,0,0,0,342.76,56.08Zm-31.82,58.43a44,44,0,1,1,26.31-56.42A44,44,0,0,1,310.94,114.51Z"/><circle class="cls-1" cx="295.89" cy="73.14" r="8.8" transform="translate(-7.17 105.6) rotate(-20)"/><circle class="cls-1" cx="295.89" cy="73.14" r="2.93" transform="translate(-7.17 105.63) rotate(-20)"/><line class="cls-2" x1="67.32" y1="144.11" x2="208.18" y2="144.11"/><path class="cls-2" d="M263.24,138.11a17.48,17.48,0,0,1,1.05,6m114.85,0H246.77L379.13,95.93"/></g><g id="Text"><g id="rollingwagonwheel"><text class="cls-3" transform="translate(132.28 26.29)">ω</text><text class="cls-3" transform="translate(263.68 11.39)">ω</text><text class="cls-4" transform="translate(67.33 10.25)">(a)</text><text class="cls-3" transform="translate(273.62 141.99)">α</text><text class="cls-5" transform="translate(235.32 10.25)"><tspan class="cls-6">(b</tspan><tspan x="10.65" y="0">)</tspan></text></g></g><g id="Arrows"><g id="rollingwagonwheel-2" data-name="rollingwagonwheel"><path class="cls-2" d="M94.88,50.2a61.46,61.46,0,0,1,77.81-6.53"/><polygon class="cls-7" points="178.26 48.01 167.87 45.24 172.21 43.42 172.78 38.76 178.26 48.01"/><path class="cls-2" d="M240.39,45.62A61.46,61.46,0,0,1,312,14.43"/><polygon class="cls-7" points="318.65 16.76 307.92 17.47 311.45 14.36 310.49 9.76 318.65 16.76"/></g></g></svg>