<svg xmlns="http://www.w3.org/2000/svg" viewBox="0 0 446.46 184"><defs><style>.cls-1{fill:#bcbec0;}.cls-12,.cls-14,.cls-16,.cls-18,.cls-2,.cls-21,.cls-3{fill:none;stroke-width:2px;}.cls-2,.cls-21{stroke:#231f20;}.cls-14,.cls-16,.cls-18,.cls-2,.cls-21,.cls-3{stroke-miterlimit:10;}.cls-3{stroke:#2e4e79;}.cls-10,.cls-11,.cls-4,.cls-5,.cls-8,.cls-9{font-size:12px;}.cls-15,.cls-4,.cls-5{fill:#6c4099;}.cls-10,.cls-4,.cls-8{font-family:Helvetica-Oblique, Helvetica;}.cls-11,.cls-5,.cls-9{font-family:Helvetica, Helvetica;}.cls-6,.cls-7{font-size:13px;font-family:Symbol, Symbol;}.cls-13,.cls-6{fill:#e5943e;}.cls-20,.cls-7{fill:#231f20;}.cls-19,.cls-8,.cls-9{fill:#55a69f;}.cls-10,.cls-11,.cls-17{fill:#e5483f;}.cls-12{stroke:#e5943e;stroke-linecap:square;stroke-miterlimit:3.25;}.cls-14{stroke:#6c4099;}.cls-16{stroke:#e5483f;}.cls-18{stroke:#55a69f;}.cls-21{stroke-dasharray:4;}</style></defs><title>rollingcylinder_freebodydiagram</title><g id="Graphics"><g id="rollingcylinder_freebodydiagram"><polyline class="cls-1" points="289.2 182.83 123.85 87.37 132.09 73.1 322.28 182.91"/><line class="cls-2" x1="132.09" y1="73.1" x2="322.28" y2="182.91"/><circle class="cls-3" cx="230.86" cy="66.73" r="54.9" transform="translate(57.64 233.3) rotate(-60)"/></g></g><g id="Text"><g id="rollingcylinder_freebodydiagram-2" data-name="rollingcylinder_freebodydiagram"><text class="cls-4" transform="translate(235.66 96.58)">F</text><text class="cls-5" transform="translate(242.99 100.58) scale(0.58)">z</text><text class="cls-6" transform="translate(259.56 7.55)">w</text><text class="cls-7" transform="translate(250.72 178.41)">θ</text><text class="cls-8" transform="translate(201.8 86.15)">F</text><text class="cls-9" transform="translate(209.13 90.15) scale(0.58)">N</text><text class="cls-10" transform="translate(180.02 116.9)">F</text><text class="cls-11" transform="translate(187.35 120.89) scale(0.58)">f</text></g></g><g id="Arrows"><g id="rollingcylinder_freebodydiagram-3" data-name="rollingcylinder_freebodydiagram"><path class="cls-12" d="M241.61,5.69a55.17,55.17,0,0,1,32.15,15.77"/><polygon class="cls-13" points="278.41 26.78 268.73 22.12 273.33 21.15 274.76 16.67 278.41 26.78"/><line class="cls-14" x1="230.86" y1="66.73" x2="230.86" y2="109.08"/><polygon class="cls-15" points="230.86 116.14 226.79 106.2 230.86 108.56 234.92 106.2 230.86 116.14"/><line class="cls-16" x1="190.67" y1="106.86" x2="203.57" y2="114.31"/><polygon class="cls-17" points="184.55 103.33 191.13 111.83 191.12 107.13 195.2 104.79 184.55 103.33"/><line class="cls-18" x1="203.57" y1="114.28" x2="221.44" y2="83.34"/><polygon class="cls-19" points="224.97 77.22 223.51 87.87 221.17 83.79 216.47 83.81 224.97 77.22"/><circle class="cls-20" cx="203.41" cy="114.28" r="2.75" transform="matrix(0.5, -0.87, 0.87, 0.5, 2.74, 233.3)"/><line class="cls-21" x1="212.47" y1="182.9" x2="322.28" y2="182.9"/></g></g></svg>