<svg xmlns="http://www.w3.org/2000/svg" viewBox="0 0 446.46 123.39"><defs><style>.cls-1,.cls-2,.cls-3,.cls-4{fill:none;stroke-miterlimit:10;}.cls-1{stroke:#808285;}.cls-2,.cls-3{stroke:#231f20;}.cls-3{stroke-dasharray:2.94 2.94;}.cls-4{stroke:#6f4f2b;stroke-linecap:round;stroke-width:2px;}.cls-5,.cls-6,.cls-8{font-size:12px;fill:#231f20;}.cls-5,.cls-6{font-family:Helvetica-Oblique, Helvetica;}.cls-5,.cls-7{letter-spacing:-0.04em;}.cls-8{font-family:Helvetica, Helvetica;}.cls-9{fill:#808285;}</style></defs><title>rotatingtriangle</title><g id="Graphics"><path class="cls-1" d="M325.73,82.22c-27.28,0-49.36,5.52-49.36,12.34s22.07,12.34,49.36,12.34,49.36-5.52,49.36-12.34"/><line class="cls-2" x1="325.73" y1="123.39" x2="325.73" y2="121.89"/><line class="cls-3" x1="325.73" y1="118.96" x2="325.73" y2="2.97"/><line class="cls-2" x1="325.73" y1="1.5" x2="325.73"/><line class="cls-4" x1="264.03" y1="115.13" x2="325.73" y2="8.27"/><line class="cls-4" x1="63.28" y1="98.55" x2="211.35" y2="98.55"/><line class="cls-4" x1="63.28" y1="98.55" x2="137.54"/><line class="cls-4" x1="211.8" y1="98.55" x2="137.54"/></g><g id="Text"><text class="cls-5" transform="translate(281.31 66.63)">L</text><text class="cls-6" transform="translate(131.08 114.13)">6<tspan class="cls-7" x="6.67" y="0">L</tspan></text><text class="cls-6" transform="translate(82.75 49.27)">5<tspan class="cls-7" x="6.67" y="0">L</tspan></text><text class="cls-6" transform="translate(179.41 49.27)">5<tspan class="cls-7" x="6.67" y="0">L</tspan></text><text class="cls-8" transform="translate(63.5 12.39)">(a)</text><text class="cls-8" transform="translate(251.47 12.39)">(b)</text><text class="cls-6" transform="translate(311.85 54.29)">θ</text></g><g id="Arrows"><path class="cls-2" d="M309.39,36.56a37.14,37.14,0,0,0,16.34,5.84"/><path class="cls-1" d="M375.09,94.56c0-6.52-20.2-11.86-45.83-12.31"/><polygon class="cls-9" points="325.73 82.22 330.75 80.32 329.52 82.32 330.65 84.38 325.73 82.22"/></g></svg>