<svg xmlns="http://www.w3.org/2000/svg" viewBox="0 0 446.46 230.83"><defs><style>.cls-1{fill:#fff;}.cls-1,.cls-2{stroke:#231f20;}.cls-1,.cls-2,.cls-3,.cls-4,.cls-5,.cls-6,.cls-9{stroke-miterlimit:10;}.cls-2,.cls-3,.cls-4,.cls-5,.cls-6,.cls-9{fill:none;}.cls-3,.cls-4,.cls-5,.cls-6,.cls-9{stroke:#3e7cb9;}.cls-3,.cls-5,.cls-6{stroke-width:3px;}.cls-3,.cls-4{stroke-dasharray:5;}.cls-6{stroke-dasharray:5.07 5.07;}.cls-7,.cls-8{font-size:12px;font-family:Helvetica, Helvetica;}.cls-10,.cls-7{fill:#3e7cb9;}.cls-8{fill:#231f20;}.cls-9{stroke-width:2px;}</style></defs><title>tennisracketprincipalaxes</title><g id="Graphics"><g id="tennisracketprincipalaxes"><path class="cls-1" d="M133.87,195.79V170.34h1.32V106.15c-16.71-1.69-29.84-19.45-29.84-41.11,0-22.78,14.54-41.24,32.47-41.24S170.28,42.26,170.28,65c0,21.66-13.13,39.42-29.84,41.11v64.19h1.32v25.45Z"/><ellipse class="cls-2" cx="137.81" cy="65.03" rx="27.2" ry="34.56"/><line class="cls-2" x1="134.3" y1="30.48" x2="134.3" y2="99.34"/><line class="cls-2" x1="141.33" y1="30.48" x2="141.33" y2="99.34"/><line class="cls-2" x1="129.04" y1="32.32" x2="129.04" y2="97.75"/><line class="cls-2" x1="146.59" y1="32.32" x2="146.59" y2="97.75"/><line class="cls-2" x1="123.77" y1="35.43" x2="123.77" y2="94.64"/><line class="cls-2" x1="151.86" y1="35.43" x2="151.86" y2="94.64"/><line class="cls-2" x1="118.51" y1="40.69" x2="118.51" y2="89.38"/><line class="cls-2" x1="157.12" y1="40.69" x2="157.12" y2="89.38"/><line class="cls-2" x1="113.24" y1="50.19" x2="113.24" y2="79.88"/><line class="cls-2" x1="162.39" y1="50.19" x2="162.39" y2="79.88"/><line class="cls-2" x1="110.61" y1="65.03" x2="165.02" y2="65.03"/><line class="cls-2" x1="110.93" y1="59.77" x2="164.7" y2="59.77"/><line class="cls-2" x1="110.93" y1="70.3" x2="164.7" y2="70.3"/><line class="cls-2" x1="111.9" y1="54.5" x2="163.73" y2="54.5"/><line class="cls-2" x1="111.9" y1="75.56" x2="163.73" y2="75.56"/><line class="cls-2" x1="113.24" y1="49.24" x2="162.39" y2="49.24"/><line class="cls-2" x1="113.24" y1="80.83" x2="162.39" y2="80.83"/><line class="cls-2" x1="116.25" y1="43.97" x2="159.38" y2="43.97"/><line class="cls-2" x1="116.25" y1="43.97" x2="159.38" y2="43.97"/><line class="cls-2" x1="116.25" y1="86.1" x2="159.38" y2="86.1"/><line class="cls-2" x1="120.2" y1="38.71" x2="155.43" y2="38.71"/><line class="cls-2" x1="120.2" y1="91.36" x2="155.43" y2="91.36"/><line class="cls-2" x1="126.78" y1="96.63" x2="148.53" y2="96.63"/><line class="cls-2" x1="126.78" y1="33.44" x2="148.85" y2="33.44"/><path class="cls-1" d="M309.37,195.79V170.34h1.32V106.15C294,104.45,280.85,86.69,280.85,65c0-22.78,14.54-41.24,32.47-41.24S345.79,42.26,345.79,65c0,21.66-13.13,39.42-29.84,41.11v64.19h1.32v25.45Z"/><ellipse class="cls-2" cx="313.32" cy="65.03" rx="27.2" ry="34.56"/><line class="cls-2" x1="309.81" y1="30.48" x2="309.81" y2="99.34"/><line class="cls-2" x1="316.83" y1="30.48" x2="316.83" y2="99.34"/><line class="cls-2" x1="304.54" y1="32.32" x2="304.54" y2="97.75"/><line class="cls-2" x1="322.09" y1="32.32" x2="322.09" y2="97.75"/><line class="cls-2" x1="299.28" y1="35.43" x2="299.28" y2="94.64"/><line class="cls-2" x1="327.36" y1="35.43" x2="327.36" y2="94.64"/><line class="cls-2" x1="294.01" y1="40.69" x2="294.01" y2="89.38"/><line class="cls-2" x1="332.63" y1="40.69" x2="332.63" y2="89.38"/><line class="cls-2" x1="288.75" y1="50.19" x2="288.75" y2="79.88"/><line class="cls-2" x1="337.89" y1="50.19" x2="337.89" y2="79.88"/><line class="cls-2" x1="286.12" y1="65.03" x2="340.52" y2="65.03"/><line class="cls-2" x1="286.43" y1="59.77" x2="340.21" y2="59.77"/><line class="cls-2" x1="286.43" y1="70.3" x2="340.21" y2="70.3"/><line class="cls-2" x1="287.41" y1="54.5" x2="339.23" y2="54.5"/><line class="cls-2" x1="287.41" y1="75.56" x2="339.23" y2="75.56"/><line class="cls-2" x1="288.75" y1="49.24" x2="337.89" y2="49.24"/><line class="cls-2" x1="288.75" y1="80.83" x2="337.89" y2="80.83"/><line class="cls-2" x1="291.75" y1="43.97" x2="334.88" y2="43.97"/><line class="cls-2" x1="291.75" y1="43.97" x2="334.88" y2="43.97"/><line class="cls-2" x1="291.75" y1="86.1" x2="334.88" y2="86.1"/><line class="cls-2" x1="295.7" y1="38.71" x2="330.94" y2="38.71"/><line class="cls-2" x1="295.7" y1="91.36" x2="330.94" y2="91.36"/><line class="cls-2" x1="302.29" y1="96.63" x2="324.04" y2="96.63"/><line class="cls-2" x1="302.29" y1="33.44" x2="324.35" y2="33.44"/><line class="cls-3" x1="137.81" y1="0.1" x2="137.81" y2="219.48"/><line class="cls-4" x1="79.02" y1="112.42" x2="196.61" y2="112.42"/><line class="cls-4" x1="86.9" y1="141.82" x2="188.73" y2="83.02"/><line class="cls-4" x1="313.32" y1="0.1" x2="313.32" y2="219.48"/><line class="cls-5" x1="247.51" y1="112.42" x2="250.01" y2="112.42"/><line class="cls-6" x1="255.07" y1="112.42" x2="374.1" y2="112.42"/><line class="cls-5" x1="376.63" y1="112.42" x2="379.13" y2="112.42"/><line class="cls-4" x1="262.4" y1="141.82" x2="364.24" y2="83.02"/></g></g><g id="Text"><g id="tennisracketprincipalaxes-2" data-name="tennisracketprincipalaxes"><text class="cls-7" transform="translate(121.81 228.51)">1-axis</text><text class="cls-7" transform="translate(68.95 153.92)">3-axis</text><text class="cls-7" transform="translate(68.95 108.39)">2-axis</text><text class="cls-7" transform="translate(244.07 153.92)">3-axis</text><text class="cls-7" transform="translate(297.16 228.51)">1-axis</text><text class="cls-7" transform="translate(347.79 126.08)">2-axis</text><text class="cls-8" transform="translate(242.83 9.91)">(b)</text><text class="cls-8" transform="translate(67.32 9.91)">(a)</text></g></g><g id="Arrows"><g id="tennisracketprincipalaxes-3" data-name="tennisracketprincipalaxes"><path class="cls-9" d="M142.61,205.7c-1.56.12-3.16.18-4.8.18-14.54,0-26.33-4.91-26.33-11s11.79-11,26.33-11,26.33,4.91,26.33,11c0,3.09-3.06,5.87-8,7.87"/><polygon class="cls-10" points="149.61 204.72 139.22 201.97 142.08 205.7 140.27 210.03 149.61 204.72"/><path class="cls-9" d="M247.25,107.62c-.12,1.56-.18,3.16-.18,4.8,0,14.54,4.91,26.33,11,26.33s11-11.79,11-26.33-4.91-26.33-11-26.33c-3.09,0-5.87,3.06-7.87,8"/><polygon class="cls-10" points="248.23 100.63 242.91 109.97 247.25 108.15 250.97 111.02 248.23 100.63"/></g></g></svg>