<svg xmlns="http://www.w3.org/2000/svg" viewBox="0 0 446.46 253.15"><defs><style>.cls-1,.cls-12,.cls-2,.cls-4,.cls-5,.cls-6{fill:none;stroke-linecap:round;stroke-linejoin:round;}.cls-1,.cls-8{stroke:#3e7cb9;}.cls-2{stroke:#bf3f42;stroke-width:1.5px;}.cls-3{fill:#2f1110;}.cls-4,.cls-6{stroke:#365a50;}.cls-4{stroke-width:1px;}.cls-5,.cls-7{stroke:#231f20;}.cls-6{stroke-width:1px;}.cls-7{fill:#e5483f;}.cls-7,.cls-8{stroke-miterlimit:10;}.cls-8{fill:#3e7cb9;}.cls-10,.cls-11,.cls-9{font-size:12px;fill:#231f20;font-family:Helvetica, Helvetica;}.cls-10{letter-spacing:0em;}.cls-11{letter-spacing:-0.01em;}.cls-12{stroke:#000;stroke-width:2px;}</style></defs><title>tubepulling</title><g id="Graphics"><path class="cls-1" d="M122.41,49.71a10,10,0,0,1-1-3.43,4.23,4.23,0,0,1,.8-3.07,6.12,6.12,0,0,0,.92-6.34l-1-2.51m4.42-.24.12.24.92,2.27a6.12,6.12,0,0,1-.92,6.34,4.23,4.23,0,0,0-.8,3.07,10,10,0,0,0,1,3.43"/><path class="cls-1" d="M132.38,49.71a10,10,0,0,1-1-3.43,4.23,4.23,0,0,1,.8-3.07,6.12,6.12,0,0,0,.92-6.34l-1-2.51m4.42-.24.12.24.92,2.27a6.12,6.12,0,0,1-.92,6.34,4.23,4.23,0,0,0-.8,3.07,10,10,0,0,0,1,3.43"/><path class="cls-1" d="M141.83,49.71a10,10,0,0,1-1-3.43,4.23,4.23,0,0,1,.8-3.07,6.12,6.12,0,0,0,.92-6.34l-1-2.51m4.42-.24.12.24.92,2.27a6.12,6.12,0,0,1-.92,6.34,4.23,4.23,0,0,0-.8,3.07,10,10,0,0,0,1,3.43"/><path class="cls-1" d="M152.07,49.71a10,10,0,0,1-1-3.43,4.23,4.23,0,0,1,.8-3.07,6.12,6.12,0,0,0,.92-6.34l-1-2.51m4.42-.24.12.24.92,2.27a6.12,6.12,0,0,1-.92,6.34,4.23,4.23,0,0,0-.8,3.07,10,10,0,0,0,1,3.43"/><path class="cls-1" d="M162,49.71a10,10,0,0,1-1-3.43,4.23,4.23,0,0,1,.8-3.07,6.12,6.12,0,0,0,.92-6.34l-1-2.51m4.42-.24.12.24.92,2.27A6.12,6.12,0,0,1,166.3,43a4.23,4.23,0,0,0-.8,3.07,10,10,0,0,0,1,3.43"/><path class="cls-1" d="M171.48,49.71a10,10,0,0,1-1-3.43,4.23,4.23,0,0,1,.8-3.07,6.12,6.12,0,0,0,.92-6.34l-1-2.51m4.42-.24.12.24.92,2.27a6.12,6.12,0,0,1-.92,6.34A4.23,4.23,0,0,0,175,46a10,10,0,0,0,1,3.43"/><path class="cls-1" d="M181,49.71a10,10,0,0,1-1-3.43,4.23,4.23,0,0,1,.8-3.07,6.12,6.12,0,0,0,.92-6.34l-1-2.51m4.42-.24.12.24.92,2.27a6.12,6.12,0,0,1-.92,6.34,4.23,4.23,0,0,0-.8,3.07,10,10,0,0,0,1,3.43"/><path class="cls-1" d="M190.94,49.71a10,10,0,0,1-1-3.43,4.23,4.23,0,0,1,.8-3.07,6.12,6.12,0,0,0,.92-6.34l-1-2.51m4.42-.24.12.24.92,2.27A6.12,6.12,0,0,1,195.2,43a4.23,4.23,0,0,0-.8,3.07,10,10,0,0,0,1,3.43"/><path class="cls-1" d="M200.38,49.71a10,10,0,0,1-1-3.43,4.23,4.23,0,0,1,.8-3.07,6.12,6.12,0,0,0,.92-6.34l-1-2.51m4.42-.24.12.24.92,2.27a6.12,6.12,0,0,1-.92,6.34,4.23,4.23,0,0,0-.8,3.07,10,10,0,0,0,1,3.43"/><path class="cls-1" d="M210.11,49.71a10,10,0,0,1-1-3.43,4.23,4.23,0,0,1,.8-3.07,6.12,6.12,0,0,0,.92-6.34l-1-2.51m4.42-.24.12.24.92,2.27a6.12,6.12,0,0,1-.92,6.34,4.23,4.23,0,0,0-.8,3.07,10,10,0,0,0,1,3.43"/><path class="cls-1" d="M220.08,49.71a10,10,0,0,1-1-3.43,4.23,4.23,0,0,1,.8-3.07,6.12,6.12,0,0,0,.92-6.34l-1-2.51m4.42-.24.12.24.92,2.27a6.12,6.12,0,0,1-.92,6.34,4.23,4.23,0,0,0-.8,3.07,10,10,0,0,0,1,3.43"/><path class="cls-1" d="M229.52,49.71a10,10,0,0,1-1-3.43,4.23,4.23,0,0,1,.8-3.07,6.12,6.12,0,0,0,.92-6.34l-1-2.51m4.42-.24.12.24.92,2.27a6.12,6.12,0,0,1-.92,6.34A4.23,4.23,0,0,0,233,46a10,10,0,0,0,1,3.43"/><path class="cls-1" d="M239.17,49.71a10,10,0,0,1-1-3.43,4.23,4.23,0,0,1,.8-3.07,6.12,6.12,0,0,0,.92-6.34l-1-2.51m4.42-.24.12.24.92,2.27a6.12,6.12,0,0,1-.92,6.34,4.23,4.23,0,0,0-.8,3.07,10,10,0,0,0,1,3.43"/><path class="cls-1" d="M249.14,49.71a10,10,0,0,1-1-3.43,4.23,4.23,0,0,1,.8-3.07,6.12,6.12,0,0,0,.92-6.34l-1-2.51m4.42-.24.12.24.92,2.27A6.12,6.12,0,0,1,253.4,43a4.23,4.23,0,0,0-.8,3.07,10,10,0,0,0,1,3.43"/><path class="cls-1" d="M258.58,49.71a10,10,0,0,1-1-3.43,4.23,4.23,0,0,1,.8-3.07,6.12,6.12,0,0,0,.92-6.34l-1-2.51m4.42-.24.12.24.92,2.27a6.12,6.12,0,0,1-.92,6.34,4.23,4.23,0,0,0-.8,3.07,10,10,0,0,0,1,3.43"/><path class="cls-1" d="M268.67,49.71a10,10,0,0,1-1-3.43,4.23,4.23,0,0,1,.8-3.07,6.12,6.12,0,0,0,.92-6.34l-1-2.51m4.42-.24.12.24.92,2.27a6.12,6.12,0,0,1-.92,6.34,4.23,4.23,0,0,0-.8,3.07,10,10,0,0,0,1,3.43"/><path class="cls-1" d="M278.63,49.71a10,10,0,0,1-1-3.43,4.23,4.23,0,0,1,.8-3.07,6.12,6.12,0,0,0,.92-6.34l-1-2.51m4.42-.24.12.24.92,2.27A6.12,6.12,0,0,1,282.9,43a4.23,4.23,0,0,0-.8,3.07,10,10,0,0,0,1,3.43"/><path class="cls-1" d="M288.08,49.71a10,10,0,0,1-1-3.43,4.23,4.23,0,0,1,.8-3.07,6.12,6.12,0,0,0,.92-6.34l-1-2.51m4.42-.24.12.24.92,2.27a6.12,6.12,0,0,1-.92,6.34,4.23,4.23,0,0,0-.8,3.07,10,10,0,0,0,1,3.43"/><path class="cls-1" d="M292.07,52.34a10,10,0,0,1,1,3.43,4.23,4.23,0,0,1-.8,3.07,6.12,6.12,0,0,0-.92,6.34l1,2.51m-4.42.24-.12-.24-.92-2.27a6.12,6.12,0,0,1,.92-6.34,4.23,4.23,0,0,0,.8-3.07,10,10,0,0,0-1-3.43"/><path class="cls-1" d="M282.1,52.34a10,10,0,0,1,1,3.43,4.23,4.23,0,0,1-.8,3.07,6.12,6.12,0,0,0-.92,6.34l1,2.51m-4.42.24-.12-.24-.92-2.27a6.12,6.12,0,0,1,.92-6.34,4.23,4.23,0,0,0,.8-3.07,10,10,0,0,0-1-3.43"/><path class="cls-1" d="M272.66,52.34a10,10,0,0,1,1,3.43,4.23,4.23,0,0,1-.8,3.07,6.12,6.12,0,0,0-.92,6.34l1,2.51m-4.42.24-.12-.24-.92-2.27a6.12,6.12,0,0,1,.92-6.34,4.23,4.23,0,0,0,.8-3.07,10,10,0,0,0-1-3.43"/><path class="cls-1" d="M262.41,52.34a10,10,0,0,1,1,3.43,4.23,4.23,0,0,1-.8,3.07,6.12,6.12,0,0,0-.92,6.34l1,2.51m-4.42.24-.12-.24-.92-2.27a6.12,6.12,0,0,1,.92-6.34,4.23,4.23,0,0,0,.8-3.07,10,10,0,0,0-1-3.43"/><path class="cls-1" d="M252.44,52.34a10,10,0,0,1,1,3.43,4.23,4.23,0,0,1-.8,3.07,6.12,6.12,0,0,0-.92,6.34l1,2.51m-4.42.24-.12-.24-.92-2.27a6.12,6.12,0,0,1,.92-6.34A4.23,4.23,0,0,0,249,56a10,10,0,0,0-1-3.43"/><path class="cls-1" d="M243,52.34a10,10,0,0,1,1,3.43,4.23,4.23,0,0,1-.8,3.07,6.12,6.12,0,0,0-.92,6.34l1,2.51m-4.42.24-.12-.24-.92-2.27a6.12,6.12,0,0,1,.92-6.34,4.23,4.23,0,0,0,.8-3.07,10,10,0,0,0-1-3.43"/><path class="cls-1" d="M233.51,52.34a10,10,0,0,1,1,3.43,4.23,4.23,0,0,1-.8,3.07,6.12,6.12,0,0,0-.92,6.34l1,2.51m-4.42.24-.12-.24-.92-2.27a6.12,6.12,0,0,1,.92-6.34A4.23,4.23,0,0,0,230,56a10,10,0,0,0-1-3.43"/><path class="cls-1" d="M223.54,52.34a10,10,0,0,1,1,3.43,4.23,4.23,0,0,1-.8,3.07,6.12,6.12,0,0,0-.92,6.34l1,2.51m-4.42.24-.12-.24-.92-2.27a6.12,6.12,0,0,1,.92-6.34,4.23,4.23,0,0,0,.8-3.07,10,10,0,0,0-1-3.43"/><path class="cls-1" d="M214.1,52.34a10,10,0,0,1,1,3.43,4.23,4.23,0,0,1-.8,3.07,6.12,6.12,0,0,0-.92,6.34l1,2.51m-4.42.24-.12-.24-.92-2.27a6.12,6.12,0,0,1,.92-6.34,4.23,4.23,0,0,0,.8-3.07,10,10,0,0,0-1-3.43"/><path class="cls-1" d="M204.37,52.34a10,10,0,0,1,1,3.43,4.23,4.23,0,0,1-.8,3.07,6.12,6.12,0,0,0-.92,6.34l1,2.51m-4.42.24-.12-.24-.92-2.27a6.12,6.12,0,0,1,.92-6.34,4.23,4.23,0,0,0,.8-3.07,10,10,0,0,0-1-3.43"/><path class="cls-1" d="M194.4,52.34a10,10,0,0,1,1,3.43,4.23,4.23,0,0,1-.8,3.07,6.12,6.12,0,0,0-.92,6.34l1,2.51m-4.42.24-.12-.24-.92-2.27a6.12,6.12,0,0,1,.92-6.34,4.23,4.23,0,0,0,.8-3.07,10,10,0,0,0-1-3.43"/><path class="cls-1" d="M185,52.34a10,10,0,0,1,1,3.43,4.23,4.23,0,0,1-.8,3.07,6.12,6.12,0,0,0-.92,6.34l1,2.51m-4.42.24-.12-.24-.92-2.27a6.12,6.12,0,0,1,.92-6.34,4.23,4.23,0,0,0,.8-3.07,10,10,0,0,0-1-3.43"/><path class="cls-1" d="M175.31,52.34a10,10,0,0,1,1,3.43,4.23,4.23,0,0,1-.8,3.07,6.12,6.12,0,0,0-.92,6.34l1,2.51m-4.42.24-.12-.24-.92-2.27a6.12,6.12,0,0,1,.92-6.34,4.23,4.23,0,0,0,.8-3.07,10,10,0,0,0-1-3.43"/><path class="cls-1" d="M165.34,52.34a10,10,0,0,1,1,3.43,4.23,4.23,0,0,1-.8,3.07,6.12,6.12,0,0,0-.92,6.34l1,2.51m-4.42.24-.12-.24-.92-2.27a6.12,6.12,0,0,1,.92-6.34,4.23,4.23,0,0,0,.8-3.07,10,10,0,0,0-1-3.43"/><path class="cls-1" d="M155.9,52.34a10,10,0,0,1,1,3.43,4.23,4.23,0,0,1-.8,3.07,6.12,6.12,0,0,0-.92,6.34l1,2.51m-4.42.24-.12-.24-.92-2.27a6.12,6.12,0,0,1,.92-6.34,4.23,4.23,0,0,0,.8-3.07,10,10,0,0,0-1-3.43"/><path class="cls-1" d="M145.81,52.34a10,10,0,0,1,1,3.43,4.23,4.23,0,0,1-.8,3.07,6.12,6.12,0,0,0-.92,6.34l1,2.51m-4.42.24-.12-.24-.92-2.27a6.12,6.12,0,0,1,.92-6.34,4.23,4.23,0,0,0,.8-3.07,10,10,0,0,0-1-3.43"/><path class="cls-1" d="M135.85,52.34a10,10,0,0,1,1,3.43,4.23,4.23,0,0,1-.8,3.07,6.12,6.12,0,0,0-.92,6.34l1,2.51m-4.42.24-.12-.24-.92-2.27a6.12,6.12,0,0,1,.92-6.34,4.23,4.23,0,0,0,.8-3.07,10,10,0,0,0-1-3.43"/><path class="cls-1" d="M126.4,52.34a10,10,0,0,1,1,3.43,4.23,4.23,0,0,1-.8,3.07,6.12,6.12,0,0,0-.92,6.34l1,2.51m-4.42.24-.12-.24-.92-2.27a6.12,6.12,0,0,1,.92-6.34,4.23,4.23,0,0,0,.8-3.07,10,10,0,0,0-1-3.43"/><path class="cls-1" d="M296.83,49.36a10,10,0,0,1-.65-3.5,4.23,4.23,0,0,1,1.06-3,6.12,6.12,0,0,0,1.47-6.23L297.89,34m4.43.15.1.25.72,2.34A6.12,6.12,0,0,1,301.66,43a4.23,4.23,0,0,0-1.06,3,10,10,0,0,0,.65,3.5"/><path class="cls-1" d="M304.81,49.46a10,10,0,0,1,0-3.56,4.23,4.23,0,0,1,1.56-2.76,6.12,6.12,0,0,0,2.53-5.88l-.35-2.69m4.34.91.05.26.3,2.43a6.12,6.12,0,0,1-2.53,5.88,4.23,4.23,0,0,0-1.56,2.76,10,10,0,0,0,0,3.56"/><path class="cls-1" d="M321.48,54.1a10,10,0,0,1,.89-3.45,4.23,4.23,0,0,1,2.23-2.26,6.12,6.12,0,0,0,4-5l.36-2.69m4,2,0,.27-.34,2.43a6.12,6.12,0,0,1-4,5,4.23,4.23,0,0,0-2.23,2.26,10,10,0,0,0-.89,3.45"/><path class="cls-1" d="M328,58a10,10,0,0,1,1.58-3.19A4.23,4.23,0,0,1,332.2,53a6.12,6.12,0,0,0,4.92-4.1l.91-2.56m3.45,2.78-.07.26-.84,2.3a6.12,6.12,0,0,1-4.92,4.1A4.23,4.23,0,0,0,333,57.55a10,10,0,0,0-1.58,3.19"/><path class="cls-1" d="M340.69,69.15A10,10,0,0,1,343,66.48a4.23,4.23,0,0,1,3-1,6.12,6.12,0,0,0,5.81-2.68l1.54-2.24M356,64.14l-.14.23-1.41,2a6.12,6.12,0,0,1-5.81,2.68,4.23,4.23,0,0,0-3,1,10,10,0,0,0-2.35,2.67"/><path class="cls-1" d="M313.68,51.5A10,10,0,0,1,314,48a4.23,4.23,0,0,1,1.8-2.61,6.12,6.12,0,0,0,3-5.64L318.66,37m4.24,1.29,0,.27L323,41a6.12,6.12,0,0,1-3,5.64,4.23,4.23,0,0,0-1.8,2.61,10,10,0,0,0-.27,3.55"/><path class="cls-1" d="M335.34,63.87a10,10,0,0,1,1.75-3.1,4.23,4.23,0,0,1,2.73-1.61,6.12,6.12,0,0,0,5.13-3.83l1-2.51m3.3,3-.08.25-1,2.25a6.12,6.12,0,0,1-5.13,3.83,4.23,4.23,0,0,0-2.73,1.61,10,10,0,0,0-1.75,3.1"/><path class="cls-1" d="M345.64,76.57A10,10,0,0,1,348.13,74a4.23,4.23,0,0,1,3.06-.84,6.12,6.12,0,0,0,5.95-2.38l1.66-2.15m2.42,3.71-.15.22-1.51,1.93a6.12,6.12,0,0,1-5.95,2.38,4.23,4.23,0,0,0-3.06.84,10,10,0,0,0-2.49,2.54"/><path class="cls-1" d="M349.12,82.72a10,10,0,0,1,3.06-1.81,4.23,4.23,0,0,1,3.17,0,6.12,6.12,0,0,0,6.36-.75l2.16-1.65m1.38,4.21-.2.18-2,1.47a6.12,6.12,0,0,1-6.36.75,4.23,4.23,0,0,0-3.17,0,10,10,0,0,0-3.06,1.81"/><path class="cls-1" d="M353.78,98.86a10,10,0,0,1,3.43-1,4.23,4.23,0,0,1,3.07.8,6.12,6.12,0,0,0,6.34.92l2.51-1m.24,4.42-.24.12-2.27.92a6.12,6.12,0,0,1-6.34-.92,4.23,4.23,0,0,0-3.07-.8,10,10,0,0,0-3.43,1"/><path class="cls-1" d="M352.19,90.84a10,10,0,0,1,3.21-1.54,4.23,4.23,0,0,1,3.16.25,6.12,6.12,0,0,0,6.4-.2l2.29-1.46m1,4.32-.21.16L366,93.67a6.12,6.12,0,0,1-6.4.2,4.23,4.23,0,0,0-3.16-.25,10,10,0,0,0-3.21,1.54"/><path class="cls-1" d="M302.9,53a10,10,0,0,1,.65,3.5,4.23,4.23,0,0,1-1.06,3A6.12,6.12,0,0,0,301,65.69l.81,2.59m-4.43-.15-.1-.25-.72-2.34a6.12,6.12,0,0,1,1.47-6.23,4.23,4.23,0,0,0,1.06-3,10,10,0,0,0-.65-3.5"/><path class="cls-1" d="M315.41,55.11a10,10,0,0,1,0,3.56,4.23,4.23,0,0,1-1.56,2.76,6.12,6.12,0,0,0-2.53,5.88L311.7,70m-4.34-.91-.05-.26L307,66.4a6.12,6.12,0,0,1,2.53-5.88,4.23,4.23,0,0,0,1.56-2.76,10,10,0,0,0,0-3.56"/><path class="cls-1" d="M331.38,63.63a10,10,0,0,1-1.58,3.19,4.23,4.23,0,0,1-2.65,1.75,6.12,6.12,0,0,0-4.92,4.1l-.91,2.56m-3.45-2.78.07-.26.84-2.3a6.12,6.12,0,0,1,4.92-4.1A4.23,4.23,0,0,0,326.35,64a10,10,0,0,0,1.58-3.19"/><path class="cls-1" d="M342,74.52a10,10,0,0,1-2.35,2.67,4.23,4.23,0,0,1-3,1,6.12,6.12,0,0,0-5.81,2.68l-1.54,2.24m-2.61-3.58.14-.23,1.41-2A6.12,6.12,0,0,1,334,74.61a4.23,4.23,0,0,0,3-1,10,10,0,0,0,2.35-2.67"/><path class="cls-1" d="M347.67,88.54a10,10,0,0,1-3.06,1.81,4.23,4.23,0,0,1-3.17,0,6.12,6.12,0,0,0-6.36.75l-2.16,1.65m-1.38-4.21.2-.18,2-1.47a6.12,6.12,0,0,1,6.36-.75,4.23,4.23,0,0,0,3.17,0,10,10,0,0,0,3.06-1.81"/><path class="cls-1" d="M349.63,102.69a10,10,0,0,1-3.43,1,4.23,4.23,0,0,1-3.07-.8,6.12,6.12,0,0,0-6.34-.92l-2.51,1M334,98.54l.24-.12,2.27-.92a6.12,6.12,0,0,1,6.34.92,4.23,4.23,0,0,0,3.07.8,10,10,0,0,0,3.43-1"/><path class="cls-1" d="M123.37,156.14a10,10,0,0,0-1,3.43,4.23,4.23,0,0,0,.8,3.07,6.12,6.12,0,0,1,.92,6.34l-1,2.51m4.42.24.12-.24.92-2.27a6.12,6.12,0,0,0-.92-6.34,4.23,4.23,0,0,1-.8-3.07,10,10,0,0,1,1-3.43"/><path class="cls-1" d="M133.33,156.14a10,10,0,0,0-1,3.43,4.23,4.23,0,0,0,.8,3.07,6.12,6.12,0,0,1,.92,6.34l-1,2.51m4.42.24.12-.24.92-2.27a6.12,6.12,0,0,0-.92-6.34,4.23,4.23,0,0,1-.8-3.07,10,10,0,0,1,1-3.43"/><path class="cls-1" d="M142.78,156.14a10,10,0,0,0-1,3.43,4.23,4.23,0,0,0,.8,3.07,6.12,6.12,0,0,1,.92,6.34l-1,2.51m4.42.24.12-.24.92-2.27a6.12,6.12,0,0,0-.92-6.34,4.23,4.23,0,0,1-.8-3.07,10,10,0,0,1,1-3.43"/><path class="cls-1" d="M153,156.14a10,10,0,0,0-1,3.43,4.23,4.23,0,0,0,.8,3.07,6.12,6.12,0,0,1,.92,6.34l-1,2.51m4.42.24.12-.24.92-2.27a6.12,6.12,0,0,0-.92-6.34,4.23,4.23,0,0,1-.8-3.07,10,10,0,0,1,1-3.43"/><path class="cls-1" d="M163,156.14a10,10,0,0,0-1,3.43,4.23,4.23,0,0,0,.8,3.07,6.12,6.12,0,0,1,.92,6.34l-1,2.51m4.42.24.12-.24.92-2.27a6.12,6.12,0,0,0-.92-6.34,4.23,4.23,0,0,1-.8-3.07,10,10,0,0,1,1-3.43"/><path class="cls-1" d="M172.44,156.14a10,10,0,0,0-1,3.43,4.23,4.23,0,0,0,.8,3.07,6.12,6.12,0,0,1,.92,6.34l-1,2.51m4.42.24.12-.24.92-2.27a6.12,6.12,0,0,0-.92-6.34,4.23,4.23,0,0,1-.8-3.07,10,10,0,0,1,1-3.43"/><path class="cls-1" d="M181.93,156.14a10,10,0,0,0-1,3.43,4.23,4.23,0,0,0,.8,3.07,6.12,6.12,0,0,1,.92,6.34l-1,2.51m4.42.24.12-.24.92-2.27a6.12,6.12,0,0,0-.92-6.34,4.23,4.23,0,0,1-.8-3.07,10,10,0,0,1,1-3.43"/><path class="cls-1" d="M191.89,156.14a10,10,0,0,0-1,3.43,4.23,4.23,0,0,0,.8,3.07,6.12,6.12,0,0,1,.92,6.34l-1,2.51m4.42.24.12-.24.92-2.27a6.12,6.12,0,0,0-.92-6.34,4.23,4.23,0,0,1-.8-3.07,10,10,0,0,1,1-3.43"/><path class="cls-1" d="M201.34,156.14a10,10,0,0,0-1,3.43,4.23,4.23,0,0,0,.8,3.07,6.12,6.12,0,0,1,.92,6.34l-1,2.51m4.42.24.12-.24.92-2.27a6.12,6.12,0,0,0-.92-6.34,4.23,4.23,0,0,1-.8-3.07,10,10,0,0,1,1-3.43"/><path class="cls-1" d="M211.07,156.14a10,10,0,0,0-1,3.43,4.23,4.23,0,0,0,.8,3.07,6.12,6.12,0,0,1,.92,6.34l-1,2.51m4.42.24.12-.24.92-2.27a6.12,6.12,0,0,0-.92-6.34,4.23,4.23,0,0,1-.8-3.07,10,10,0,0,1,1-3.43"/><path class="cls-1" d="M221,156.14a10,10,0,0,0-1,3.43,4.23,4.23,0,0,0,.8,3.07,6.12,6.12,0,0,1,.92,6.34l-1,2.51m4.42.24.12-.24.92-2.27a6.12,6.12,0,0,0-.92-6.34,4.23,4.23,0,0,1-.8-3.07,10,10,0,0,1,1-3.43"/><path class="cls-1" d="M230.48,156.14a10,10,0,0,0-1,3.43,4.23,4.23,0,0,0,.8,3.07,6.12,6.12,0,0,1,.92,6.34l-1,2.51m4.42.24.12-.24.92-2.27a6.12,6.12,0,0,0-.92-6.34,4.23,4.23,0,0,1-.8-3.07,10,10,0,0,1,1-3.43"/><path class="cls-1" d="M240.13,156.14a10,10,0,0,0-1,3.43,4.23,4.23,0,0,0,.8,3.07,6.12,6.12,0,0,1,.92,6.34l-1,2.51m4.42.24.12-.24.92-2.27a6.12,6.12,0,0,0-.92-6.34,4.23,4.23,0,0,1-.8-3.07,10,10,0,0,1,1-3.43"/><path class="cls-1" d="M250.09,156.14a10,10,0,0,0-1,3.43,4.23,4.23,0,0,0,.8,3.07,6.12,6.12,0,0,1,.92,6.34l-1,2.51m4.42.24.12-.24.92-2.27a6.12,6.12,0,0,0-.92-6.34,4.23,4.23,0,0,1-.8-3.07,10,10,0,0,1,1-3.43"/><path class="cls-1" d="M259.54,156.14a10,10,0,0,0-1,3.43,4.23,4.23,0,0,0,.8,3.07,6.12,6.12,0,0,1,.92,6.34l-1,2.51m4.42.24.12-.24.92-2.27a6.12,6.12,0,0,0-.92-6.34,4.23,4.23,0,0,1-.8-3.07,10,10,0,0,1,1-3.43"/><path class="cls-1" d="M269.63,156.14a10,10,0,0,0-1,3.43,4.23,4.23,0,0,0,.8,3.07,6.12,6.12,0,0,1,.92,6.34l-1,2.51m4.42.24.12-.24.92-2.27a6.12,6.12,0,0,0-.92-6.34,4.23,4.23,0,0,1-.8-3.07,10,10,0,0,1,1-3.43"/><path class="cls-1" d="M279.59,156.14a10,10,0,0,0-1,3.43,4.23,4.23,0,0,0,.8,3.07,6.12,6.12,0,0,1,.92,6.34l-1,2.51m4.42.24.12-.24.92-2.27a6.12,6.12,0,0,0-.92-6.34,4.23,4.23,0,0,1-.8-3.07,10,10,0,0,1,1-3.43"/><path class="cls-1" d="M289,156.14a10,10,0,0,0-1,3.43,4.23,4.23,0,0,0,.8,3.07,6.12,6.12,0,0,1,.92,6.34l-1,2.51m4.42.24.12-.24.92-2.27a6.12,6.12,0,0,0-.92-6.34,4.23,4.23,0,0,1-.8-3.07,10,10,0,0,1,1-3.43"/><path class="cls-1" d="M293,153.51a10,10,0,0,0,1-3.43,4.23,4.23,0,0,0-.8-3.07,6.12,6.12,0,0,1-.92-6.34l1-2.51m-4.42-.24-.12.24-.92,2.27a6.12,6.12,0,0,0,.92,6.34,4.23,4.23,0,0,1,.8,3.07,10,10,0,0,1-1,3.43"/><path class="cls-1" d="M283.06,153.51a10,10,0,0,0,1-3.43,4.23,4.23,0,0,0-.8-3.07,6.12,6.12,0,0,1-.92-6.34l1-2.51m-4.42-.24-.12.24-.92,2.27a6.12,6.12,0,0,0,.92,6.34,4.23,4.23,0,0,1,.8,3.07,10,10,0,0,1-1,3.43"/><path class="cls-1" d="M273.61,153.51a10,10,0,0,0,1-3.43,4.23,4.23,0,0,0-.8-3.07,6.12,6.12,0,0,1-.92-6.34l1-2.51m-4.42-.24-.12.24-.92,2.27a6.12,6.12,0,0,0,.92,6.34,4.23,4.23,0,0,1,.8,3.07,10,10,0,0,1-1,3.43"/><path class="cls-1" d="M263.37,153.51a10,10,0,0,0,1-3.43,4.23,4.23,0,0,0-.8-3.07,6.12,6.12,0,0,1-.92-6.34l1-2.51m-4.42-.24-.12.24-.92,2.27a6.12,6.12,0,0,0,.92,6.34,4.23,4.23,0,0,1,.8,3.07,10,10,0,0,1-1,3.43"/><path class="cls-1" d="M253.4,153.51a10,10,0,0,0,1-3.43,4.23,4.23,0,0,0-.8-3.07,6.12,6.12,0,0,1-.92-6.34l1-2.51m-4.42-.24-.12.24-.92,2.27a6.12,6.12,0,0,0,.92,6.34,4.23,4.23,0,0,1,.8,3.07,10,10,0,0,1-1,3.43"/><path class="cls-1" d="M244,153.51a10,10,0,0,0,1-3.43,4.23,4.23,0,0,0-.8-3.07,6.12,6.12,0,0,1-.92-6.34l1-2.51m-4.42-.24-.12.24-.92,2.27a6.12,6.12,0,0,0,.92,6.34,4.23,4.23,0,0,1,.8,3.07,10,10,0,0,1-1,3.43"/><path class="cls-1" d="M234.47,153.51a10,10,0,0,0,1-3.43,4.23,4.23,0,0,0-.8-3.07,6.12,6.12,0,0,1-.92-6.34l1-2.51m-4.42-.24-.12.24-.92,2.27a6.12,6.12,0,0,0,.92,6.34,4.23,4.23,0,0,1,.8,3.07,10,10,0,0,1-1,3.43"/><path class="cls-1" d="M224.5,153.51a10,10,0,0,0,1-3.43,4.23,4.23,0,0,0-.8-3.07,6.12,6.12,0,0,1-.92-6.34l1-2.51m-4.42-.24-.12.24-.92,2.27a6.12,6.12,0,0,0,.92,6.34,4.23,4.23,0,0,1,.8,3.07,10,10,0,0,1-1,3.43"/><path class="cls-1" d="M215.05,153.51a10,10,0,0,0,1-3.43,4.23,4.23,0,0,0-.8-3.07,6.12,6.12,0,0,1-.92-6.34l1-2.51m-4.42-.24-.12.24-.92,2.27a6.12,6.12,0,0,0,.92,6.34,4.23,4.23,0,0,1,.8,3.07,10,10,0,0,1-1,3.43"/><path class="cls-1" d="M205.33,153.51a10,10,0,0,0,1-3.43,4.23,4.23,0,0,0-.8-3.07,6.12,6.12,0,0,1-.92-6.34l1-2.51m-4.42-.24-.12.24-.92,2.27a6.12,6.12,0,0,0,.92,6.34,4.23,4.23,0,0,1,.8,3.07,10,10,0,0,1-1,3.43"/><path class="cls-1" d="M195.36,153.51a10,10,0,0,0,1-3.43,4.23,4.23,0,0,0-.8-3.07,6.12,6.12,0,0,1-.92-6.34l1-2.51m-4.42-.24-.12.24-.92,2.27a6.12,6.12,0,0,0,.92,6.34,4.23,4.23,0,0,1,.8,3.07,10,10,0,0,1-1,3.43"/><path class="cls-1" d="M185.91,153.51a10,10,0,0,0,1-3.43,4.23,4.23,0,0,0-.8-3.07,6.12,6.12,0,0,1-.92-6.34l1-2.51m-4.42-.24-.12.24-.92,2.27a6.12,6.12,0,0,0,.92,6.34,4.23,4.23,0,0,1,.8,3.07,10,10,0,0,1-1,3.43"/><path class="cls-1" d="M176.27,153.51a10,10,0,0,0,1-3.43,4.23,4.23,0,0,0-.8-3.07,6.12,6.12,0,0,1-.92-6.34l1-2.51m-4.42-.24-.12.24-.92,2.27a6.12,6.12,0,0,0,.92,6.34,4.23,4.23,0,0,1,.8,3.07,10,10,0,0,1-1,3.43"/><path class="cls-1" d="M166.3,153.51a10,10,0,0,0,1-3.43,4.23,4.23,0,0,0-.8-3.07,6.12,6.12,0,0,1-.92-6.34l1-2.51m-4.42-.24-.12.24-.92,2.27a6.12,6.12,0,0,0,.92,6.34,4.23,4.23,0,0,1,.8,3.07,10,10,0,0,1-1,3.43"/><path class="cls-1" d="M156.85,153.51a10,10,0,0,0,1-3.43A4.23,4.23,0,0,0,157,147a6.12,6.12,0,0,1-.92-6.34l1-2.51m-4.42-.24-.12.24-.92,2.27a6.12,6.12,0,0,0,.92,6.34,4.23,4.23,0,0,1,.8,3.07,10,10,0,0,1-1,3.43"/><path class="cls-1" d="M146.77,153.51a10,10,0,0,0,1-3.43,4.23,4.23,0,0,0-.8-3.07,6.12,6.12,0,0,1-.92-6.34l1-2.51m-4.42-.24-.12.24-.92,2.27a6.12,6.12,0,0,0,.92,6.34,4.23,4.23,0,0,1,.8,3.07,10,10,0,0,1-1,3.43"/><path class="cls-1" d="M136.8,153.51a10,10,0,0,0,1-3.43A4.23,4.23,0,0,0,137,147a6.12,6.12,0,0,1-.92-6.34l1-2.51m-4.42-.24-.12.24-.92,2.27a6.12,6.12,0,0,0,.92,6.34,4.23,4.23,0,0,1,.8,3.07,10,10,0,0,1-1,3.43"/><path class="cls-1" d="M127.36,153.51a10,10,0,0,0,1-3.43,4.23,4.23,0,0,0-.8-3.07,6.12,6.12,0,0,1-.92-6.34l1-2.51m-4.42-.24-.12.24-.92,2.27a6.12,6.12,0,0,0,.92,6.34,4.23,4.23,0,0,1,.8,3.07,10,10,0,0,1-1,3.43"/><path class="cls-1" d="M297.78,156.49a10,10,0,0,0-.65,3.5,4.23,4.23,0,0,0,1.06,3,6.12,6.12,0,0,1,1.47,6.23l-.81,2.59m4.43-.15.1-.25.72-2.34a6.12,6.12,0,0,0-1.47-6.23,4.23,4.23,0,0,1-1.06-3,10,10,0,0,1,.65-3.5"/><path class="cls-1" d="M305.76,156.4a10,10,0,0,0,0,3.56,4.23,4.23,0,0,0,1.56,2.76,6.12,6.12,0,0,1,2.53,5.88l-.35,2.69m4.34-.91.05-.26.3-2.43a6.12,6.12,0,0,0-2.53-5.88,4.23,4.23,0,0,1-1.56-2.76,10,10,0,0,1,0-3.56"/><path class="cls-1" d="M322.44,151.76a10,10,0,0,0,.89,3.45,4.23,4.23,0,0,0,2.23,2.26,6.12,6.12,0,0,1,4,5l.36,2.69m4-2,0-.27-.34-2.43a6.12,6.12,0,0,0-4-5,4.23,4.23,0,0,1-2.23-2.26,10,10,0,0,1-.89-3.45"/><path class="cls-1" d="M328.93,147.9a10,10,0,0,0,1.58,3.19,4.23,4.23,0,0,0,2.65,1.75,6.12,6.12,0,0,1,4.92,4.1l.91,2.56m3.45-2.78-.07-.26-.84-2.3a6.12,6.12,0,0,0-4.92-4.1A4.23,4.23,0,0,1,334,148.3a10,10,0,0,1-1.58-3.19"/><path class="cls-1" d="M341.65,136.7a10,10,0,0,0,2.35,2.67,4.23,4.23,0,0,0,3,1,6.12,6.12,0,0,1,5.81,2.68l1.54,2.24m2.61-3.58-.14-.23-1.41-2a6.12,6.12,0,0,0-5.81-2.68,4.23,4.23,0,0,1-3-1,10,10,0,0,1-2.35-2.67"/><path class="cls-1" d="M314.63,154.35a10,10,0,0,0,.27,3.55,4.23,4.23,0,0,0,1.8,2.61,6.12,6.12,0,0,1,3,5.64l-.12,2.71m4.24-1.29,0-.27.08-2.45a6.12,6.12,0,0,0-3-5.64,4.23,4.23,0,0,1-1.8-2.61,10,10,0,0,1-.27-3.55"/><path class="cls-1" d="M336.29,142a10,10,0,0,0,1.75,3.1,4.23,4.23,0,0,0,2.73,1.61,6.12,6.12,0,0,1,5.13,3.83l1,2.51m3.3-3-.08-.25-1-2.25a6.12,6.12,0,0,0-5.13-3.83,4.23,4.23,0,0,1-2.73-1.61,10,10,0,0,1-1.75-3.1"/><path class="cls-1" d="M346.6,129.28a10,10,0,0,0,2.49,2.54,4.23,4.23,0,0,0,3.06.84,6.12,6.12,0,0,1,5.95,2.38l1.66,2.15m2.42-3.71-.15-.22-1.51-1.93a6.12,6.12,0,0,0-5.95-2.38,4.23,4.23,0,0,1-3.06-.84,10,10,0,0,1-2.49-2.54"/><path class="cls-1" d="M350.48,122.34a10,10,0,0,0,3.06,1.81,4.23,4.23,0,0,0,3.17,0,6.12,6.12,0,0,1,6.36.75l2.16,1.65m1.38-4.21-.2-.18-2-1.47a6.12,6.12,0,0,0-6.36-.75,4.23,4.23,0,0,1-3.17,0,10,10,0,0,1-3.06-1.81"/><path class="cls-1" d="M352.75,113a10,10,0,0,0,3.21,1.54,4.23,4.23,0,0,0,3.16-.25,6.12,6.12,0,0,1,6.4.2l2.29,1.46m1-4.32-.21-.16-2.08-1.3a6.12,6.12,0,0,0-6.4-.2,4.23,4.23,0,0,1-3.16.25,10,10,0,0,1-3.21-1.54"/><path class="cls-1" d="M303.85,152.88a10,10,0,0,0,.65-3.5,4.23,4.23,0,0,0-1.06-3,6.12,6.12,0,0,1-1.47-6.23l.81-2.59m-4.43.15-.1.25-.72,2.34a6.12,6.12,0,0,0,1.47,6.23,4.23,4.23,0,0,1,1.06,3,10,10,0,0,1-.65,3.5"/><path class="cls-1" d="M316.36,150.75a10,10,0,0,0,0-3.56,4.23,4.23,0,0,0-1.56-2.76,6.12,6.12,0,0,1-2.53-5.88l.35-2.69m-4.34.91-.05.26-.3,2.43a6.12,6.12,0,0,0,2.53,5.88,4.23,4.23,0,0,1,1.56,2.76,10,10,0,0,1,0,3.56"/><path class="cls-1" d="M332.34,142.22a10,10,0,0,0-1.58-3.19,4.23,4.23,0,0,0-2.65-1.75,6.12,6.12,0,0,1-4.92-4.1l-.91-2.56m-3.45,2.78.07.26.84,2.3a6.12,6.12,0,0,0,4.92,4.1,4.23,4.23,0,0,1,2.65,1.75,10,10,0,0,1,1.58,3.19"/><path class="cls-1" d="M342.55,132.53a10,10,0,0,0-2.35-2.67,4.23,4.23,0,0,0-3-1,6.12,6.12,0,0,1-5.81-2.68l-1.54-2.24m-2.61,3.58.14.23,1.41,2a6.12,6.12,0,0,0,5.81,2.68,4.23,4.23,0,0,1,3,1,10,10,0,0,1,2.35,2.67"/><path class="cls-1" d="M348.62,120.11a10,10,0,0,0-3.06-1.81,4.23,4.23,0,0,0-3.17,0,6.12,6.12,0,0,1-6.36-.75l-2.16-1.65m-1.38,4.21.2.18,2,1.47a6.12,6.12,0,0,0,6.36.75,4.23,4.23,0,0,1,3.17,0,10,10,0,0,1,3.06,1.81"/><path class="cls-1" d="M350.63,111.54a10,10,0,0,1-3.43,1,4.23,4.23,0,0,1-3.07-.8,6.12,6.12,0,0,0-6.34-.92l-2.51,1m-.24-4.42.24-.12,2.27-.92a6.12,6.12,0,0,1,6.34.92,4.23,4.23,0,0,0,3.07.8,10,10,0,0,0,3.43-1"/><path class="cls-1" d="M7,156a10,10,0,0,0-1,3.43,4.23,4.23,0,0,0,.8,3.07,6.12,6.12,0,0,1,.92,6.34l-1,2.51m4.42.24.12-.24.92-2.27a6.12,6.12,0,0,0-.92-6.34,4.23,4.23,0,0,1-.8-3.07,10,10,0,0,1,1-3.43"/><path class="cls-1" d="M17.25,156a10,10,0,0,0-1,3.43,4.23,4.23,0,0,0,.8,3.07,6.12,6.12,0,0,1,.92,6.34l-1,2.51m4.42.24.12-.24.92-2.27a6.12,6.12,0,0,0-.92-6.34,4.23,4.23,0,0,1-.8-3.07,10,10,0,0,1,1-3.43"/><path class="cls-1" d="M27.22,156a10,10,0,0,0-1,3.43,4.23,4.23,0,0,0,.8,3.07,6.12,6.12,0,0,1,.92,6.34l-1,2.51m4.42.24.12-.24.92-2.27a6.12,6.12,0,0,0-.92-6.34,4.23,4.23,0,0,1-.8-3.07,10,10,0,0,1,1-3.43"/><path class="cls-1" d="M36.67,156a10,10,0,0,0-1,3.43,4.23,4.23,0,0,0,.8,3.07,6.12,6.12,0,0,1,.92,6.34l-1,2.51m4.42.24.12-.24.92-2.27a6.12,6.12,0,0,0-.92-6.34,4.23,4.23,0,0,1-.8-3.07,10,10,0,0,1,1-3.43"/><path class="cls-1" d="M46.15,156a10,10,0,0,0-1,3.43,4.23,4.23,0,0,0,.8,3.07,6.12,6.12,0,0,1,.92,6.34l-1,2.51m4.42.24.12-.24.92-2.27a6.12,6.12,0,0,0-.92-6.34,4.23,4.23,0,0,1-.8-3.07,10,10,0,0,1,1-3.43"/><path class="cls-1" d="M56.12,156a10,10,0,0,0-1,3.43,4.23,4.23,0,0,0,.8,3.07,6.12,6.12,0,0,1,.92,6.34l-1,2.51m4.42.24.12-.24.92-2.27a6.12,6.12,0,0,0-.92-6.34,4.23,4.23,0,0,1-.8-3.07,10,10,0,0,1,1-3.43"/><path class="cls-1" d="M65.57,156a10,10,0,0,0-1,3.43,4.23,4.23,0,0,0,.8,3.07,6.12,6.12,0,0,1,.92,6.34l-1,2.51m4.42.24.12-.24.92-2.27a6.12,6.12,0,0,0-.92-6.34,4.23,4.23,0,0,1-.8-3.07,10,10,0,0,1,1-3.43"/><path class="cls-1" d="M75.29,156a10,10,0,0,0-1,3.43,4.23,4.23,0,0,0,.8,3.07,6.12,6.12,0,0,1,.92,6.34l-1,2.51m4.42.24.12-.24.92-2.27a6.12,6.12,0,0,0-.92-6.34,4.23,4.23,0,0,1-.8-3.07,10,10,0,0,1,1-3.43"/><path class="cls-1" d="M85.26,156a10,10,0,0,0-1,3.43,4.23,4.23,0,0,0,.8,3.07,6.12,6.12,0,0,1,.92,6.34l-1,2.51m4.42.24.12-.24.92-2.27a6.12,6.12,0,0,0-.92-6.34,4.23,4.23,0,0,1-.8-3.07,10,10,0,0,1,1-3.43"/><path class="cls-1" d="M94.71,156a10,10,0,0,0-1,3.43,4.23,4.23,0,0,0,.8,3.07,6.12,6.12,0,0,1,.92,6.34l-1,2.51m4.42.24.12-.24.92-2.27a6.12,6.12,0,0,0-.92-6.34,4.23,4.23,0,0,1-.8-3.07,10,10,0,0,1,1-3.43"/><path class="cls-1" d="M104.35,156a10,10,0,0,0-1,3.43,4.23,4.23,0,0,0,.8,3.07,6.12,6.12,0,0,1,.92,6.34l-1,2.51m4.42.24.12-.24.92-2.27a6.12,6.12,0,0,0-.92-6.34,4.23,4.23,0,0,1-.8-3.07,10,10,0,0,1,1-3.43"/><path class="cls-1" d="M114.32,156a10,10,0,0,0-1,3.43,4.23,4.23,0,0,0,.8,3.07,6.12,6.12,0,0,1,.92,6.34l-1,2.51m4.42.24.12-.24.92-2.27a6.12,6.12,0,0,0-.92-6.34,4.23,4.23,0,0,1-.8-3.07,10,10,0,0,1,1-3.43"/><path class="cls-1" d="M117.63,153.35a10,10,0,0,0,1-3.43,4.23,4.23,0,0,0-.8-3.07,6.12,6.12,0,0,1-.92-6.34l1-2.51m-4.42-.24-.12.24-.92,2.27a6.12,6.12,0,0,0,.92,6.34,4.23,4.23,0,0,1,.8,3.07,10,10,0,0,1-1,3.43"/><path class="cls-1" d="M108.18,153.35a10,10,0,0,0,1-3.43,4.23,4.23,0,0,0-.8-3.07,6.12,6.12,0,0,1-.92-6.34l1-2.51m-4.42-.24-.12.24-.92,2.27a6.12,6.12,0,0,0,.92,6.34,4.23,4.23,0,0,1,.8,3.07,10,10,0,0,1-1,3.43"/><path class="cls-1" d="M98.69,153.35a10,10,0,0,0,1-3.43,4.23,4.23,0,0,0-.8-3.07,6.12,6.12,0,0,1-.92-6.34L99,138m-4.42-.24-.12.24-.92,2.27a6.12,6.12,0,0,0,.92,6.34,4.23,4.23,0,0,1,.8,3.07,10,10,0,0,1-1,3.43"/><path class="cls-1" d="M88.73,153.35a10,10,0,0,0,1-3.43,4.23,4.23,0,0,0-.8-3.07,6.12,6.12,0,0,1-.92-6.34L89,138m-4.42-.24-.12.24-.92,2.27a6.12,6.12,0,0,0,.92,6.34,4.23,4.23,0,0,1,.8,3.07,10,10,0,0,1-1,3.43"/><path class="cls-1" d="M79.28,153.35a10,10,0,0,0,1-3.43,4.23,4.23,0,0,0-.8-3.07,6.12,6.12,0,0,1-.92-6.34l1-2.51m-4.42-.24L75,138l-.92,2.27a6.12,6.12,0,0,0,.92,6.34,4.23,4.23,0,0,1,.8,3.07,10,10,0,0,1-1,3.43"/><path class="cls-1" d="M69.55,153.35a10,10,0,0,0,1-3.43,4.23,4.23,0,0,0-.8-3.07,6.12,6.12,0,0,1-.92-6.34l1-2.51m-4.42-.24-.12.24-.92,2.27a6.12,6.12,0,0,0,.92,6.34,4.23,4.23,0,0,1,.8,3.07,10,10,0,0,1-1,3.43"/><path class="cls-1" d="M59.59,153.35a10,10,0,0,0,1-3.43,4.23,4.23,0,0,0-.8-3.07,6.12,6.12,0,0,1-.92-6.34l1-2.51m-4.42-.24-.12.24-.92,2.27a6.12,6.12,0,0,0,.92,6.34,4.23,4.23,0,0,1,.8,3.07,10,10,0,0,1-1,3.43"/><path class="cls-1" d="M50.14,153.35a10,10,0,0,0,1-3.43,4.23,4.23,0,0,0-.8-3.07,6.12,6.12,0,0,1-.92-6.34l1-2.51M46,137.77l-.12.24L45,140.28a6.12,6.12,0,0,0,.92,6.34,4.23,4.23,0,0,1,.8,3.07,10,10,0,0,1-1,3.43"/><path class="cls-1" d="M40.49,153.35a10,10,0,0,0,1-3.43,4.23,4.23,0,0,0-.8-3.07,6.12,6.12,0,0,1-.92-6.34l1-2.51m-4.42-.24-.12.24-.92,2.27a6.12,6.12,0,0,0,.92,6.34,4.23,4.23,0,0,1,.8,3.07,10,10,0,0,1-1,3.43"/><path class="cls-1" d="M30.53,153.35a10,10,0,0,0,1-3.43,4.23,4.23,0,0,0-.8-3.07,6.12,6.12,0,0,1-.92-6.34l1-2.51m-4.42-.24-.12.24-.92,2.27a6.12,6.12,0,0,0,.92,6.34,4.23,4.23,0,0,1,.8,3.07,10,10,0,0,1-1,3.43"/><path class="cls-1" d="M21.08,153.35a10,10,0,0,0,1-3.43,4.23,4.23,0,0,0-.8-3.07,6.12,6.12,0,0,1-.92-6.34l1-2.51m-4.42-.24-.12.24-.92,2.27a6.12,6.12,0,0,0,.92,6.34,4.23,4.23,0,0,1,.8,3.07,10,10,0,0,1-1,3.43"/><path class="cls-1" d="M11,153.35a10,10,0,0,0,1-3.43,4.23,4.23,0,0,0-.8-3.07,6.12,6.12,0,0,1-.92-6.34l1-2.51m-4.42-.24-.12.24-.92,2.27a6.12,6.12,0,0,0,.92,6.34,4.23,4.23,0,0,1,.8,3.07,10,10,0,0,1-1,3.43"/><path class="cls-1" d="M5.53,49.71a10,10,0,0,1-1-3.43,4.23,4.23,0,0,1,.8-3.07,6.12,6.12,0,0,0,.92-6.34l-1-2.51m4.42-.24.12.24.92,2.27A6.12,6.12,0,0,1,9.8,43,4.23,4.23,0,0,0,9,46a10,10,0,0,0,1,3.43"/><path class="cls-1" d="M15.5,49.71a10,10,0,0,1-1-3.43,4.23,4.23,0,0,1,.8-3.07,6.12,6.12,0,0,0,.92-6.34l-1-2.51m4.42-.24.12.24.92,2.27A6.12,6.12,0,0,1,19.77,43,4.23,4.23,0,0,0,19,46a10,10,0,0,0,1,3.43"/><path class="cls-1" d="M24.95,49.71a10,10,0,0,1-1-3.43,4.23,4.23,0,0,1,.8-3.07,6.12,6.12,0,0,0,.92-6.34l-1-2.51m4.42-.24.12.24.92,2.27A6.12,6.12,0,0,1,29.21,43a4.23,4.23,0,0,0-.8,3.07,10,10,0,0,0,1,3.43"/><path class="cls-1" d="M35.19,49.71a10,10,0,0,1-1-3.43,4.23,4.23,0,0,1,.8-3.07,6.12,6.12,0,0,0,.92-6.34l-1-2.51m4.42-.24.12.24.92,2.27A6.12,6.12,0,0,1,39.46,43a4.23,4.23,0,0,0-.8,3.07,10,10,0,0,0,1,3.43"/><path class="cls-1" d="M45.16,49.71a10,10,0,0,1-1-3.43,4.23,4.23,0,0,1,.8-3.07,6.12,6.12,0,0,0,.92-6.34l-1-2.51m4.42-.24.12.24.92,2.27A6.12,6.12,0,0,1,49.42,43a4.23,4.23,0,0,0-.8,3.07,10,10,0,0,0,1,3.43"/><path class="cls-1" d="M54.61,49.71a10,10,0,0,1-1-3.43,4.23,4.23,0,0,1,.8-3.07,6.12,6.12,0,0,0,.92-6.34l-1-2.51m4.42-.24.12.24.92,2.27A6.12,6.12,0,0,1,58.87,43a4.23,4.23,0,0,0-.8,3.07,10,10,0,0,0,1,3.43"/><path class="cls-1" d="M64.09,49.71a10,10,0,0,1-1-3.43,4.23,4.23,0,0,1,.8-3.07,6.12,6.12,0,0,0,.92-6.34l-1-2.51m4.42-.24.12.24.92,2.27A6.12,6.12,0,0,1,68.36,43a4.23,4.23,0,0,0-.8,3.07,10,10,0,0,0,1,3.43"/><path class="cls-1" d="M74.06,49.71a10,10,0,0,1-1-3.43,4.23,4.23,0,0,1,.8-3.07,6.12,6.12,0,0,0,.92-6.34l-1-2.51m4.42-.24.12.24.92,2.27A6.12,6.12,0,0,1,78.32,43a4.23,4.23,0,0,0-.8,3.07,10,10,0,0,0,1,3.43"/><path class="cls-1" d="M83.51,49.71a10,10,0,0,1-1-3.43,4.23,4.23,0,0,1,.8-3.07,6.12,6.12,0,0,0,.92-6.34l-1-2.51m4.42-.24.12.24.92,2.27A6.12,6.12,0,0,1,87.77,43,4.23,4.23,0,0,0,87,46a10,10,0,0,0,1,3.43"/><path class="cls-1" d="M93.23,49.71a10,10,0,0,1-1-3.43,4.23,4.23,0,0,1,.8-3.07A6.12,6.12,0,0,0,94,36.87l-1-2.51m4.42-.24.12.24.92,2.27A6.12,6.12,0,0,1,97.5,43,4.23,4.23,0,0,0,96.7,46a10,10,0,0,0,1,3.43"/><path class="cls-1" d="M103.2,49.71a10,10,0,0,1-1-3.43,4.23,4.23,0,0,1,.8-3.07,6.12,6.12,0,0,0,.92-6.34l-1-2.51m4.42-.24.12.24.92,2.27a6.12,6.12,0,0,1-.92,6.34,4.23,4.23,0,0,0-.8,3.07,10,10,0,0,0,1,3.43"/><path class="cls-1" d="M112.65,49.71a10,10,0,0,1-1-3.43,4.23,4.23,0,0,1,.8-3.07,6.12,6.12,0,0,0,.92-6.34l-1-2.51m4.42-.24.12.24.92,2.27a6.12,6.12,0,0,1-.92,6.34,4.23,4.23,0,0,0-.8,3.07,10,10,0,0,0,1,3.43"/><path class="cls-1" d="M116.63,52.34a10,10,0,0,1,1,3.43,4.23,4.23,0,0,1-.8,3.07,6.12,6.12,0,0,0-.92,6.34l1,2.51m-4.42.24-.12-.24-.92-2.27a6.12,6.12,0,0,1,.92-6.34,4.23,4.23,0,0,0,.8-3.07,10,10,0,0,0-1-3.43"/><path class="cls-1" d="M106.67,52.34a10,10,0,0,1,1,3.43,4.23,4.23,0,0,1-.8,3.07,6.12,6.12,0,0,0-.92,6.34l1,2.51m-4.42.24-.12-.24-.92-2.27a6.12,6.12,0,0,1,.92-6.34,4.23,4.23,0,0,0,.8-3.07,10,10,0,0,0-1-3.43"/><path class="cls-1" d="M97.22,52.34a10,10,0,0,1,1,3.43,4.23,4.23,0,0,1-.8,3.07,6.12,6.12,0,0,0-.92,6.34l1,2.51m-4.42.24L93,67.69,92,65.42A6.12,6.12,0,0,1,93,59.08a4.23,4.23,0,0,0,.8-3.07,10,10,0,0,0-1-3.43"/><path class="cls-1" d="M87.49,52.34a10,10,0,0,1,1,3.43,4.23,4.23,0,0,1-.8,3.07,6.12,6.12,0,0,0-.92,6.34l1,2.51m-4.42.24-.12-.24-.92-2.27a6.12,6.12,0,0,1,.92-6.34A4.23,4.23,0,0,0,84,56a10,10,0,0,0-1-3.43"/><path class="cls-1" d="M77.53,52.34a10,10,0,0,1,1,3.43,4.23,4.23,0,0,1-.8,3.07,6.12,6.12,0,0,0-.92,6.34l1,2.51m-4.42.24-.12-.24-.92-2.27a6.12,6.12,0,0,1,.92-6.34,4.23,4.23,0,0,0,.8-3.07,10,10,0,0,0-1-3.43"/><path class="cls-1" d="M68.08,52.34a10,10,0,0,1,1,3.43,4.23,4.23,0,0,1-.8,3.07,6.12,6.12,0,0,0-.92,6.34l1,2.51m-4.42.24-.12-.24-.92-2.27a6.12,6.12,0,0,1,.92-6.34,4.23,4.23,0,0,0,.8-3.07,10,10,0,0,0-1-3.43"/><path class="cls-1" d="M58.43,52.34a10,10,0,0,1,1,3.43,4.23,4.23,0,0,1-.8,3.07,6.12,6.12,0,0,0-.92,6.34l1,2.51m-4.42.24-.12-.24-.92-2.27a6.12,6.12,0,0,1,.92-6.34A4.23,4.23,0,0,0,55,56a10,10,0,0,0-1-3.43"/><path class="cls-1" d="M48.47,52.34a10,10,0,0,1,1,3.43,4.23,4.23,0,0,1-.8,3.07,6.12,6.12,0,0,0-.92,6.34l1,2.51m-4.42.24-.12-.24-.92-2.27a6.12,6.12,0,0,1,.92-6.34A4.23,4.23,0,0,0,45,56a10,10,0,0,0-1-3.43"/><path class="cls-1" d="M39,52.34a10,10,0,0,1,1,3.43,4.23,4.23,0,0,1-.8,3.07,6.12,6.12,0,0,0-.92,6.34l1,2.51m-4.42.24-.12-.24-.92-2.27a6.12,6.12,0,0,1,.92-6.34,4.23,4.23,0,0,0,.8-3.07,10,10,0,0,0-1-3.43"/><path class="cls-1" d="M28.93,52.34a10,10,0,0,1,1,3.43,4.23,4.23,0,0,1-.8,3.07,6.12,6.12,0,0,0-.92,6.34l1,2.51m-4.42.24-.12-.24-.92-2.27a6.12,6.12,0,0,1,.92-6.34,4.23,4.23,0,0,0,.8-3.07,10,10,0,0,0-1-3.43"/><path class="cls-1" d="M19,52.34a10,10,0,0,1,1,3.43,4.23,4.23,0,0,1-.8,3.07,6.12,6.12,0,0,0-.92,6.34l1,2.51m-4.42.24-.12-.24-.92-2.27a6.12,6.12,0,0,1,.92-6.34A4.23,4.23,0,0,0,15.5,56a10,10,0,0,0-1-3.43"/><path class="cls-1" d="M9.52,52.34a10,10,0,0,1,1,3.43,4.23,4.23,0,0,1-.8,3.07,6.12,6.12,0,0,0-.92,6.34l1,2.51m-4.42.24-.12-.24-.92-2.27a6.12,6.12,0,0,1,.92-6.34A4.23,4.23,0,0,0,6.05,56a10,10,0,0,0-1-3.43"/><path class="cls-2" d="M357.6,204.9h-3.95m3.95,31.89c1.08,0,2-1.55,2.79-4.66a53.81,53.81,0,0,0,0-22.56q-1.14-4.6-2.75-4.66h0m0,0c-1.12,0-2.07,1.59-2.83,4.66a27,27,0,0,0-.64,3.31m-.48-8h0m0,15.95a53.54,53.54,0,0,0,.52,8m0-15.95a53.54,53.54,0,0,0-.52,8m.52,8a27,27,0,0,0,.64,3.31c.8,3.07,1.75,4.62,2.83,4.66M6.81,204.9H353.62M2.82,220.84H353.62m.52,8H3.34m350.79-15.95H3.34m3.47,23.92H357.6"/><path class="cls-3" d="M158.49,188.39a2,2,0,0,0,1.4,3.23h.2a2,2,0,0,0,2-2,1.92,1.92,0,0,0-.4-1.24l-.2-.2a1.92,1.92,0,0,0-1.4-.56,2.09,2.09,0,0,0-1.44.56.87.87,0,0,0-.16.2Z"/><path class="cls-4" d="M157.05,189.47a5.39,5.39,0,0,1-1.32-1,6.46,6.46,0,0,1-1-1.36l.2-.2a3.74,3.74,0,0,0,1.2-2.79,3.89,3.89,0,0,0-1.2-2.83l-.08-.08a5.3,5.3,0,0,1,.92-1.2,5.54,5.54,0,0,1,1.47-1.12m0,0,0,0A4.17,4.17,0,0,0,159,180m2.07,0a4.06,4.06,0,0,0,1.71-1m-4.35,9.45a4.23,4.23,0,0,0-1.24.84,1.06,1.06,0,0,0-.2.24m6-.08-.16-.16a4.06,4.06,0,0,0-1.2-.84m3.55-7.1a3.95,3.95,0,0,0,0,5.58l.08.08m0,0a6.54,6.54,0,0,1-1.12,1.47,8.66,8.66,0,0,1-1.16,1m-.2-10.44a6.45,6.45,0,0,1,1.36,1,6.55,6.55,0,0,1,1,1.32"/><polyline class="cls-5" points="155.9 199.4 159.88 191.62 162.63 199.24"/><path class="cls-3" d="M109.74,188.43a2,2,0,0,0,1.4,3.23h.2a2,2,0,0,0,2-2,1.92,1.92,0,0,0-.4-1.24l-.2-.2a1.92,1.92,0,0,0-1.4-.56,2.09,2.09,0,0,0-1.44.56.87.87,0,0,0-.16.2Z"/><path class="cls-4" d="M108.3,189.51a5.39,5.39,0,0,1-1.32-1,6.46,6.46,0,0,1-1-1.36l.2-.2a3.74,3.74,0,0,0,1.2-2.79,3.89,3.89,0,0,0-1.2-2.83l-.08-.08A5.31,5.31,0,0,1,107,180a5.54,5.54,0,0,1,1.47-1.12m0,0,0,0a4.17,4.17,0,0,0,1.79,1.08m2.07,0a4.06,4.06,0,0,0,1.71-1m-4.35,9.45a4.23,4.23,0,0,0-1.24.84,1.06,1.06,0,0,0-.2.24m6-.08-.16-.16a4.06,4.06,0,0,0-1.2-.84m3.55-7.1a3.95,3.95,0,0,0,0,5.58l.08.08m0,0a6.54,6.54,0,0,1-1.12,1.47,8.66,8.66,0,0,1-1.16,1m-.2-10.44a6.45,6.45,0,0,1,1.36,1,6.55,6.55,0,0,1,1,1.32"/><polyline class="cls-5" points="107.14 199.44 111.13 191.66 113.88 199.28"/><path class="cls-3" d="M22.6,188.43a2,2,0,0,0,1.4,3.23h.2a2,2,0,0,0,2-2,1.92,1.92,0,0,0-.4-1.24l-.2-.2a1.92,1.92,0,0,0-1.4-.56,2.09,2.09,0,0,0-1.44.56.87.87,0,0,0-.16.2Z"/><path class="cls-4" d="M21.16,189.51a5.39,5.39,0,0,1-1.32-1,6.46,6.46,0,0,1-1-1.36l.2-.2a3.74,3.74,0,0,0,1.2-2.79A3.89,3.89,0,0,0,19,181.3l-.08-.08a5.3,5.3,0,0,1,.92-1.2,5.54,5.54,0,0,1,1.47-1.12m0,0,0,0A4.17,4.17,0,0,0,23.15,180m2.07,0a4.06,4.06,0,0,0,1.71-1m-4.35,9.45a4.23,4.23,0,0,0-1.24.84,1.06,1.06,0,0,0-.2.24m6-.08-.16-.16a4.06,4.06,0,0,0-1.2-.84m3.55-7.1a3.95,3.95,0,0,0,0,5.58l.08.08m0,0a6.54,6.54,0,0,1-1.12,1.47,8.66,8.66,0,0,1-1.16,1M26.94,179a6.45,6.45,0,0,1,1.36,1,6.55,6.55,0,0,1,1,1.32"/><polyline class="cls-5" points="20 199.44 23.99 191.66 26.74 199.28"/><path class="cls-3" d="M91.72,28.62a1.92,1.92,0,0,1-1.4.56,1.91,1.91,0,0,1-2-2,1.92,1.92,0,0,1,.56-1.4,3.48,3.48,0,0,1,.4-.32,2.06,2.06,0,0,1,2.07,0,2.58,2.58,0,0,1,.36.32,1.81,1.81,0,0,1,.6,1.4,2,2,0,0,1-.6,1.44Z"/><path class="cls-3" d="M88.73,17.06a2,2,0,0,1,1.4-3.23h.2a2,2,0,0,1,2,2,1.92,1.92,0,0,1-.4,1.24l-.2.2a1.92,1.92,0,0,1-1.4.56,2.09,2.09,0,0,1-1.44-.56.87.87,0,0,1-.16-.2Z"/><path class="cls-4" d="M87.29,16A5.39,5.39,0,0,0,86,17a6.45,6.45,0,0,0-1,1.36l.2.2a3.74,3.74,0,0,1,1.2,2.79,3.89,3.89,0,0,1-1.2,2.83l-.08.08a5.3,5.3,0,0,0,.92,1.2,5.54,5.54,0,0,0,1.47,1.12m0,0,0,0a4.17,4.17,0,0,1,1.79-1.08m2.07,0a4.06,4.06,0,0,1,1.71,1m-4.35-9.45a4.23,4.23,0,0,1-1.24-.84,1.06,1.06,0,0,1-.2-.24m6,.08-.16.16a4.06,4.06,0,0,1-1.2.84m3.55,7.1a3.95,3.95,0,0,1,0-5.58l.08-.08m0,0A6.54,6.54,0,0,0,94.43,17a8.66,8.66,0,0,0-1.16-1m-.2,10.44a6.45,6.45,0,0,0,1.36-1,6.55,6.55,0,0,0,1-1.32"/><polyline class="cls-5" points="86.14 6.06 90.12 13.83 92.87 6.22"/><path class="cls-3" d="M228.21,28.42a1.92,1.92,0,0,1-1.4.56,1.91,1.91,0,0,1-2-2,1.92,1.92,0,0,1,.56-1.4,3.49,3.49,0,0,1,.4-.32,2.06,2.06,0,0,1,2.07,0,2.58,2.58,0,0,1,.36.32,1.81,1.81,0,0,1,.6,1.4,2,2,0,0,1-.6,1.44Z"/><path class="cls-3" d="M225.22,16.86a2,2,0,0,1,1.4-3.23h.2a2,2,0,0,1,2,2,1.92,1.92,0,0,1-.4,1.24l-.2.2a1.92,1.92,0,0,1-1.4.56,2.09,2.09,0,0,1-1.44-.56.87.87,0,0,1-.16-.2Z"/><path class="cls-4" d="M223.78,15.79a5.39,5.39,0,0,0-1.32,1,6.45,6.45,0,0,0-1,1.36l.2.2a3.74,3.74,0,0,1,1.2,2.79,3.89,3.89,0,0,1-1.2,2.83l-.08.08a5.3,5.3,0,0,0,.92,1.2,5.54,5.54,0,0,0,1.47,1.12m0,0,0,0a4.17,4.17,0,0,1,1.79-1.08m2.07,0a4.06,4.06,0,0,1,1.71,1m-4.35-9.45A4.23,4.23,0,0,1,224,16a1.06,1.06,0,0,1-.2-.24m6,.08-.16.16a4.06,4.06,0,0,1-1.2.84M232,24a3.95,3.95,0,0,1,0-5.58l.08-.08m0,0a6.54,6.54,0,0,0-1.12-1.47,8.66,8.66,0,0,0-1.16-1m-.2,10.44a6.45,6.45,0,0,0,1.36-1A6.55,6.55,0,0,0,232,24"/><polyline class="cls-5" points="222.63 5.86 226.61 13.63 229.36 6.02"/><path class="cls-3" d="M363.71,141.12a1.92,1.92,0,0,0-1.18.93,1.91,1.91,0,0,0,.73,2.72,1.92,1.92,0,0,0,1.49.21,3.49,3.49,0,0,0,.48-.19,2.06,2.06,0,0,0,1-1.8,2.58,2.58,0,0,0-.1-.47,1.81,1.81,0,0,0-.91-1.22,2,2,0,0,0-1.54-.2Z"/><path class="cls-3" d="M372.22,149.49a2,2,0,0,0,3.49.41l.1-.17a2,2,0,0,0-.73-2.72,1.92,1.92,0,0,0-1.27-.27l-.27.07a1.92,1.92,0,0,0-1.18.93,2.09,2.09,0,0,0-.23,1.52.87.87,0,0,0,.09.24Z"/><path class="cls-6" d="M372.44,151.27a5.39,5.39,0,0,1-1.56.62,6.45,6.45,0,0,1-1.69.22l-.07-.27a3.74,3.74,0,0,0-1.82-2.43,3.89,3.89,0,0,0-3-.38l-.11,0a5.3,5.3,0,0,1-.58-1.39,5.54,5.54,0,0,1-.23-1.84m0,0h.05a4.17,4.17,0,0,0,1.83-1m1-1.8a4.06,4.06,0,0,0,0-2m6,8.49a4.23,4.23,0,0,0,.11,1.49,1.06,1.06,0,0,0,.11.29m2.92-5.22-.22.06a4.06,4.06,0,0,0-1.32.62m-4.37-6.62a3.95,3.95,0,0,0,4.83,2.79l.11,0m0,0a6.54,6.54,0,0,1,.72,1.7,8.66,8.66,0,0,1,.25,1.48m-9.14-5a6.45,6.45,0,0,1,1.58-.66,6.55,6.55,0,0,1,1.66-.24"/><polyline class="cls-5" points="380.46 157.24 375.72 149.9 383.69 151.32"/><path class="cls-3" d="M306.1,188.43a2,2,0,0,0,1.4,3.23h.2a2,2,0,0,0,2-2,1.92,1.92,0,0,0-.4-1.24l-.2-.2a1.92,1.92,0,0,0-1.4-.56,2.09,2.09,0,0,0-1.44.56.87.87,0,0,0-.16.2Z"/><path class="cls-4" d="M304.67,189.51a5.39,5.39,0,0,1-1.32-1,6.46,6.46,0,0,1-1-1.36l.2-.2a3.74,3.74,0,0,0,1.2-2.79,3.89,3.89,0,0,0-1.2-2.83l-.08-.08a5.31,5.31,0,0,1,.92-1.2,5.54,5.54,0,0,1,1.47-1.12m0,0,0,0a4.17,4.17,0,0,0,1.79,1.08m2.07,0a4.06,4.06,0,0,0,1.71-1m-4.35,9.45a4.23,4.23,0,0,0-1.24.84,1.06,1.06,0,0,0-.2.24m6-.08-.16-.16a4.06,4.06,0,0,0-1.2-.84m3.55-7.1a3.95,3.95,0,0,0,0,5.58l.08.08m0,0a6.54,6.54,0,0,1-1.12,1.47,8.66,8.66,0,0,1-1.16,1m-.2-10.44a6.46,6.46,0,0,1,1.36,1,6.55,6.55,0,0,1,1,1.32"/><polyline class="cls-5" points="303.51 199.44 307.5 191.66 310.25 199.28"/><path class="cls-3" d="M284.57,188.83a2,2,0,0,0,1.4,3.23h.2a2,2,0,0,0,2-2,1.92,1.92,0,0,0-.4-1.24l-.2-.2a1.92,1.92,0,0,0-1.4-.56,2.09,2.09,0,0,0-1.44.56.87.87,0,0,0-.16.2Z"/><path class="cls-4" d="M283.14,189.91a5.39,5.39,0,0,1-1.32-1,6.45,6.45,0,0,1-1-1.36l.2-.2a3.74,3.74,0,0,0,1.2-2.79,3.89,3.89,0,0,0-1.2-2.83l-.08-.08a5.3,5.3,0,0,1,.92-1.2,5.54,5.54,0,0,1,1.47-1.12m0,0,0,0a4.17,4.17,0,0,0,1.79,1.08m2.07,0a4.06,4.06,0,0,0,1.71-1m-4.35,9.45a4.23,4.23,0,0,0-1.24.84,1.06,1.06,0,0,0-.2.24m6-.08-.16-.16a4.06,4.06,0,0,0-1.2-.84m3.55-7.1a3.95,3.95,0,0,0,0,5.58l.08.08m0,0a6.54,6.54,0,0,1-1.12,1.47,8.66,8.66,0,0,1-1.16,1m-.2-10.44a6.46,6.46,0,0,1,1.36,1,6.55,6.55,0,0,1,1,1.32"/><polyline class="cls-5" points="281.98 199.83 285.97 192.06 288.72 199.67"/><path class="cls-3" d="M265,188.83a2,2,0,0,0,1.4,3.23h.2a2,2,0,0,0,2-2,1.92,1.92,0,0,0-.4-1.24l-.2-.2a1.92,1.92,0,0,0-1.4-.56,2.09,2.09,0,0,0-1.44.56.87.87,0,0,0-.16.2Z"/><path class="cls-7" d="M159.25,200.63a1.34,1.34,0,0,0-.48,1,1.59,1.59,0,0,0,.64,1.24,5.9,5.9,0,0,0,.52.32,5.82,5.82,0,0,0,2.83.64,5.56,5.56,0,0,0,2.79-.64q1.2-.66,1.2-1.55t-1.2-1.55a5.55,5.55,0,0,0-2.79-.64h-.12a6.32,6.32,0,0,0-2.71.64,2.34,2.34,0,0,0-.68.52Z"/><path class="cls-7" d="M152.39,200.79a1.34,1.34,0,0,0-.48,1,1.59,1.59,0,0,0,.64,1.24,5.9,5.9,0,0,0,.52.32,5.82,5.82,0,0,0,2.83.64,5.56,5.56,0,0,0,2.79-.64q1.2-.66,1.2-1.55t-1.2-1.55a5.55,5.55,0,0,0-2.79-.64h-.12a6.32,6.32,0,0,0-2.71.64,2.34,2.34,0,0,0-.68.52Z"/><path class="cls-7" d="M110.49,200.67a1.34,1.34,0,0,0-.48,1,1.59,1.59,0,0,0,.64,1.24,5.9,5.9,0,0,0,.52.32,5.82,5.82,0,0,0,2.83.64,5.56,5.56,0,0,0,2.79-.64q1.2-.66,1.2-1.55t-1.2-1.55a5.56,5.56,0,0,0-2.79-.64h-.12a6.32,6.32,0,0,0-2.71.64,2.34,2.34,0,0,0-.68.52Z"/><path class="cls-7" d="M103.64,200.83a1.34,1.34,0,0,0-.48,1,1.59,1.59,0,0,0,.64,1.24,5.9,5.9,0,0,0,.52.32,5.82,5.82,0,0,0,2.83.64,5.56,5.56,0,0,0,2.79-.64q1.2-.66,1.2-1.55t-1.2-1.55a5.56,5.56,0,0,0-2.79-.64H107a6.32,6.32,0,0,0-2.71.64,2.34,2.34,0,0,0-.68.52Z"/><path class="cls-7" d="M23.35,200.67a1.34,1.34,0,0,0-.48,1,1.59,1.59,0,0,0,.64,1.24,5.9,5.9,0,0,0,.52.32,5.82,5.82,0,0,0,2.83.64,5.56,5.56,0,0,0,2.79-.64q1.2-.66,1.2-1.55t-1.2-1.55a5.56,5.56,0,0,0-2.79-.64h-.12a6.32,6.32,0,0,0-2.71.64,2.34,2.34,0,0,0-.68.52Z"/><path class="cls-7" d="M16.5,200.83a1.34,1.34,0,0,0-.48,1,1.59,1.59,0,0,0,.64,1.24,5.9,5.9,0,0,0,.52.32,5.82,5.82,0,0,0,2.83.64,5.56,5.56,0,0,0,2.79-.64q1.2-.66,1.2-1.55t-1.2-1.55a5.56,5.56,0,0,0-2.79-.64h-.12a6.32,6.32,0,0,0-2.71.64,2.34,2.34,0,0,0-.68.52Z"/><path class="cls-7" d="M89.49,4.82a1.34,1.34,0,0,1-.48-1,1.59,1.59,0,0,1,.64-1.24,5.9,5.9,0,0,1,.52-.32A5.82,5.82,0,0,1,93,1.6a5.56,5.56,0,0,1,2.79.64Q97,2.89,97,3.79t-1.2,1.55A5.56,5.56,0,0,1,93,6h-.12a6.32,6.32,0,0,1-2.71-.64,2.34,2.34,0,0,1-.68-.52Z"/><path class="cls-7" d="M82.63,4.67a1.34,1.34,0,0,1-.48-1,1.59,1.59,0,0,1,.64-1.24,5.9,5.9,0,0,1,.52-.32,5.82,5.82,0,0,1,2.83-.64,5.56,5.56,0,0,1,2.79.64q1.2.66,1.2,1.55t-1.2,1.55a5.56,5.56,0,0,1-2.79.64H86a6.32,6.32,0,0,1-2.71-.64,2.34,2.34,0,0,1-.68-.52Z"/><path class="cls-7" d="M226,4.63a1.34,1.34,0,0,1-.48-1,1.59,1.59,0,0,1,.64-1.24,5.91,5.91,0,0,1,.52-.32,5.82,5.82,0,0,1,2.83-.64,5.56,5.56,0,0,1,2.79.64q1.2.66,1.2,1.55t-1.2,1.55a5.56,5.56,0,0,1-2.79.64h-.12a6.32,6.32,0,0,1-2.71-.64,2.34,2.34,0,0,1-.68-.52Z"/><path class="cls-7" d="M219.12,4.47a1.34,1.34,0,0,1-.48-1,1.59,1.59,0,0,1,.64-1.24,5.91,5.91,0,0,1,.52-.32,5.82,5.82,0,0,1,2.83-.64,5.56,5.56,0,0,1,2.79.64q1.2.66,1.2,1.55T225.42,5a5.56,5.56,0,0,1-2.79.64h-.12A6.32,6.32,0,0,1,219.8,5a2.34,2.34,0,0,1-.68-.52Z"/><path class="cls-7" d="M383.2,155a1.34,1.34,0,0,0,.66.93,1.59,1.59,0,0,0,1.39.07,5.91,5.91,0,0,0,.54-.29,5.82,5.82,0,0,0,2-2.13,5.55,5.55,0,0,0,.84-2.74,1.61,1.61,0,0,0-2.69-1.55,5.56,5.56,0,0,0-1.95,2.1l-.06.1a6.32,6.32,0,0,0-.8,2.67,2.34,2.34,0,0,0,.11.85Z"/><path class="cls-7" d="M379.91,161a1.34,1.34,0,0,0,.66.93A1.59,1.59,0,0,0,382,162a5.91,5.91,0,0,0,.54-.29,5.82,5.82,0,0,0,2-2.13,5.55,5.55,0,0,0,.84-2.74,1.61,1.61,0,0,0-2.69-1.55,5.56,5.56,0,0,0-1.95,2.1l-.06.1a6.32,6.32,0,0,0-.8,2.67,2.34,2.34,0,0,0,.11.85Z"/><path class="cls-7" d="M265.8,201.07a1.34,1.34,0,0,0-.48,1,1.59,1.59,0,0,0,.64,1.24,5.89,5.89,0,0,0,.52.32,5.82,5.82,0,0,0,2.83.64,5.56,5.56,0,0,0,2.79-.64q1.2-.66,1.2-1.55t-1.2-1.55a5.56,5.56,0,0,0-2.79-.64h-.12a6.32,6.32,0,0,0-2.71.64,2.34,2.34,0,0,0-.68.52Z"/><path class="cls-7" d="M258.94,201.23a1.34,1.34,0,0,0-.48,1,1.59,1.59,0,0,0,.64,1.24,5.89,5.89,0,0,0,.52.32,5.82,5.82,0,0,0,2.83.64,5.56,5.56,0,0,0,2.79-.64q1.2-.66,1.2-1.55t-1.2-1.55a5.56,5.56,0,0,0-2.79-.64h-.12a6.32,6.32,0,0,0-2.71.64,2.34,2.34,0,0,0-.68.52Z"/><path class="cls-7" d="M246.21,201.07a1.34,1.34,0,0,0-.48,1,1.59,1.59,0,0,0,.64,1.24,5.89,5.89,0,0,0,.52.32,5.82,5.82,0,0,0,2.83.64,5.56,5.56,0,0,0,2.79-.64q1.2-.66,1.2-1.55t-1.2-1.55a5.56,5.56,0,0,0-2.79-.64h-.12a6.32,6.32,0,0,0-2.71.64,2.34,2.34,0,0,0-.68.52Z"/><path class="cls-7" d="M239.35,201.23a1.34,1.34,0,0,0-.48,1,1.59,1.59,0,0,0,.64,1.24,5.89,5.89,0,0,0,.52.32,5.82,5.82,0,0,0,2.83.64,5.56,5.56,0,0,0,2.79-.64q1.2-.66,1.2-1.55t-1.2-1.55a5.56,5.56,0,0,0-2.79-.64h-.12a6.32,6.32,0,0,0-2.71.64,2.34,2.34,0,0,0-.68.52Z"/><path class="cls-7" d="M285.49,201.07a1.34,1.34,0,0,0-.48,1,1.59,1.59,0,0,0,.64,1.24,5.89,5.89,0,0,0,.52.32,5.82,5.82,0,0,0,2.83.64,5.56,5.56,0,0,0,2.79-.64q1.2-.66,1.2-1.55t-1.2-1.55a5.56,5.56,0,0,0-2.79-.64h-.12a6.32,6.32,0,0,0-2.71.64,2.34,2.34,0,0,0-.68.52Z"/><path class="cls-7" d="M278.63,201.23a1.34,1.34,0,0,0-.48,1,1.59,1.59,0,0,0,.64,1.24,5.89,5.89,0,0,0,.52.32,5.82,5.82,0,0,0,2.83.64,5.56,5.56,0,0,0,2.79-.64q1.2-.66,1.2-1.55t-1.2-1.55a5.56,5.56,0,0,0-2.79-.64H282a6.32,6.32,0,0,0-2.71.64,2.34,2.34,0,0,0-.68.52Z"/><path class="cls-7" d="M306.8,200.59a1.34,1.34,0,0,0-.48,1,1.59,1.59,0,0,0,.64,1.24,5.89,5.89,0,0,0,.52.32,5.82,5.82,0,0,0,2.83.64,5.56,5.56,0,0,0,2.79-.64q1.2-.66,1.2-1.55t-1.2-1.55a5.56,5.56,0,0,0-2.79-.64h-.12a6.32,6.32,0,0,0-2.71.64,2.34,2.34,0,0,0-.68.52Z"/><path class="cls-7" d="M299.94,200.75a1.34,1.34,0,0,0-.48,1,1.59,1.59,0,0,0,.64,1.24,5.89,5.89,0,0,0,.52.32,5.82,5.82,0,0,0,2.83.64,5.56,5.56,0,0,0,2.79-.64q1.2-.66,1.2-1.55t-1.2-1.55a5.56,5.56,0,0,0-2.79-.64h-.12a6.32,6.32,0,0,0-2.71.64,2.34,2.34,0,0,0-.68.52Z"/><path class="cls-4" d="M263.61,189.91a5.39,5.39,0,0,1-1.32-1,6.45,6.45,0,0,1-1-1.36l.2-.2a3.74,3.74,0,0,0,1.2-2.79,3.89,3.89,0,0,0-1.2-2.83l-.08-.08a5.3,5.3,0,0,1,.92-1.2,5.54,5.54,0,0,1,1.47-1.12m0,0,0,0a4.17,4.17,0,0,0,1.79,1.08m2.07,0a4.06,4.06,0,0,0,1.71-1M265,188.83a4.23,4.23,0,0,0-1.24.84,1.06,1.06,0,0,0-.2.24m6-.08-.16-.16a4.06,4.06,0,0,0-1.2-.84m3.55-7.1a3.95,3.95,0,0,0,0,5.58l.08.08m0,0a6.54,6.54,0,0,1-1.12,1.47,8.66,8.66,0,0,1-1.16,1m-.2-10.44a6.46,6.46,0,0,1,1.36,1,6.55,6.55,0,0,1,1,1.32"/><polyline class="cls-5" points="262.45 199.83 266.44 192.06 269.19 199.67"/><path class="cls-8" d="M126.68,34.36a2,2,0,0,0,.52-.48,3.74,3.74,0,0,0,1.2-2.79,4,4,0,0,0-4-4,3.95,3.95,0,0,0-4,4,3.85,3.85,0,0,0,1.16,2.79,3,3,0,0,0,.56.48,4,4,0,0,0,4.54,0l-.12-.24.12.24Z"/><path class="cls-8" d="M136.64,34.36a2,2,0,0,0,.52-.48,3.74,3.74,0,0,0,1.2-2.79,4,4,0,0,0-4-4,3.95,3.95,0,0,0-4,4,3.85,3.85,0,0,0,1.16,2.79,3,3,0,0,0,.56.48,4,4,0,0,0,4.54,0l-.12-.24.12.24Z"/><path class="cls-8" d="M146.09,34.36a2,2,0,0,0,.52-.48,3.74,3.74,0,0,0,1.2-2.79,4,4,0,0,0-4-4,3.95,3.95,0,0,0-4,4A3.85,3.85,0,0,0,141,33.88a3,3,0,0,0,.56.48,4,4,0,0,0,4.54,0l-.12-.24.12.24Z"/><path class="cls-8" d="M156.34,34.36a2,2,0,0,0,.52-.48,3.74,3.74,0,0,0,1.2-2.79,4,4,0,0,0-4-4,3.95,3.95,0,0,0-4,4,3.85,3.85,0,0,0,1.16,2.79,3,3,0,0,0,.56.48,4,4,0,0,0,4.54,0l-.12-.24.12.24Z"/><path class="cls-8" d="M166.3,34.36a2,2,0,0,0,.52-.48,3.74,3.74,0,0,0,1.2-2.79,4,4,0,0,0-4-4,3.95,3.95,0,0,0-4,4,3.85,3.85,0,0,0,1.16,2.79,3,3,0,0,0,.56.48,4,4,0,0,0,4.54,0l-.12-.24.12.24Z"/><path class="cls-8" d="M175.75,34.36a2,2,0,0,0,.52-.48,3.74,3.74,0,0,0,1.2-2.79,4,4,0,0,0-4-4,3.95,3.95,0,0,0-4,4,3.85,3.85,0,0,0,1.16,2.79,3,3,0,0,0,.56.48,4,4,0,0,0,4.54,0l-.12-.24.12.24Z"/><path class="cls-8" d="M185.24,34.36a2,2,0,0,0,.52-.48,3.74,3.74,0,0,0,1.2-2.79,4,4,0,0,0-4-4,3.95,3.95,0,0,0-4,4,3.85,3.85,0,0,0,1.16,2.79,3,3,0,0,0,.56.48,4,4,0,0,0,4.54,0l-.12-.24.12.24Z"/><path class="cls-8" d="M195.2,34.36a2,2,0,0,0,.52-.48,3.74,3.74,0,0,0,1.2-2.79,4,4,0,0,0-4-4,3.95,3.95,0,0,0-4,4,3.85,3.85,0,0,0,1.16,2.79,3,3,0,0,0,.56.48,4,4,0,0,0,4.54,0l-.12-.24.12.24Z"/><path class="cls-8" d="M204.65,34.36a2,2,0,0,0,.52-.48,3.74,3.74,0,0,0,1.2-2.79,4,4,0,0,0-4-4,3.95,3.95,0,0,0-4,4,3.85,3.85,0,0,0,1.16,2.79,3,3,0,0,0,.56.48,4,4,0,0,0,4.54,0l-.12-.24.12.24Z"/><path class="cls-8" d="M214.38,34.36a2,2,0,0,0,.52-.48,3.74,3.74,0,0,0,1.2-2.79,4,4,0,0,0-4-4,3.95,3.95,0,0,0-4,4,3.85,3.85,0,0,0,1.16,2.79,3,3,0,0,0,.56.48,4,4,0,0,0,4.54,0l-.12-.24.12.24Z"/><path class="cls-8" d="M224.34,34.36a2,2,0,0,0,.52-.48,3.74,3.74,0,0,0,1.2-2.79,4,4,0,0,0-4-4,3.95,3.95,0,0,0-4,4,3.85,3.85,0,0,0,1.16,2.79,3,3,0,0,0,.56.48,4,4,0,0,0,4.54,0l-.12-.24.12.24Z"/><path class="cls-8" d="M233.79,34.36a2,2,0,0,0,.52-.48,3.74,3.74,0,0,0,1.2-2.79,4,4,0,0,0-4-4,3.95,3.95,0,0,0-4,4,3.85,3.85,0,0,0,1.16,2.79,3,3,0,0,0,.56.48,4,4,0,0,0,4.54,0l-.12-.24.12.24Z"/><path class="cls-8" d="M243.44,34.36a2,2,0,0,0,.52-.48,3.74,3.74,0,0,0,1.2-2.79,4,4,0,0,0-4-4,3.95,3.95,0,0,0-4,4,3.85,3.85,0,0,0,1.16,2.79,3,3,0,0,0,.56.48,4,4,0,0,0,4.54,0l-.12-.24.12.24Z"/><path class="cls-8" d="M253.4,34.36a2,2,0,0,0,.52-.48,3.74,3.74,0,0,0,1.2-2.79,4,4,0,0,0-4-4,3.95,3.95,0,0,0-4,4,3.85,3.85,0,0,0,1.16,2.79,3,3,0,0,0,.56.48,4,4,0,0,0,4.54,0l-.12-.24.12.24Z"/><path class="cls-8" d="M262.85,34.36a2,2,0,0,0,.52-.48,3.74,3.74,0,0,0,1.2-2.79,4,4,0,0,0-4-4,3.95,3.95,0,0,0-4,4,3.85,3.85,0,0,0,1.16,2.79,3,3,0,0,0,.56.48,4,4,0,0,0,4.54,0l-.12-.24.12.24Z"/><path class="cls-8" d="M272.93,34.36a2,2,0,0,0,.52-.48,3.74,3.74,0,0,0,1.2-2.79,4,4,0,0,0-4-4,3.95,3.95,0,0,0-4,4,3.85,3.85,0,0,0,1.16,2.79,3,3,0,0,0,.56.48,4,4,0,0,0,4.54,0l-.12-.24.12.24Z"/><path class="cls-8" d="M282.9,34.36a2,2,0,0,0,.52-.48,3.74,3.74,0,0,0,1.2-2.79,4,4,0,0,0-4-4,3.95,3.95,0,0,0-4,4,3.85,3.85,0,0,0,1.16,2.79,3,3,0,0,0,.56.48,4,4,0,0,0,4.54,0l-.12-.24.12.24Z"/><path class="cls-8" d="M292.35,34.36a2,2,0,0,0,.52-.48,3.74,3.74,0,0,0,1.2-2.79,4,4,0,0,0-4-4,3.95,3.95,0,0,0-4,4,3.85,3.85,0,0,0,1.16,2.79,3,3,0,0,0,.56.48,4,4,0,0,0,4.54,0l-.12-.24.12.24Z"/><path class="cls-8" d="M287.8,67.69a2,2,0,0,0-.52.48,3.74,3.74,0,0,0-1.2,2.79,4,4,0,0,0,4,4,3.95,3.95,0,0,0,4-4,3.85,3.85,0,0,0-1.16-2.79,3,3,0,0,0-.56-.48,4,4,0,0,0-4.54,0l.12.24-.12-.24Z"/><path class="cls-8" d="M277.84,67.69a2,2,0,0,0-.52.48,3.74,3.74,0,0,0-1.2,2.79,4,4,0,0,0,4,4,3.95,3.95,0,0,0,4-4,3.85,3.85,0,0,0-1.16-2.79,3,3,0,0,0-.56-.48,4,4,0,0,0-4.54,0l.12.24-.12-.24Z"/><path class="cls-8" d="M268.39,67.69a2,2,0,0,0-.52.48,3.74,3.74,0,0,0-1.2,2.79,4,4,0,0,0,4,4,3.95,3.95,0,0,0,4-4,3.85,3.85,0,0,0-1.16-2.79,3,3,0,0,0-.56-.48,4,4,0,0,0-4.54,0l.12.24-.12-.24Z"/><path class="cls-8" d="M258.15,67.69a2,2,0,0,0-.52.48,3.74,3.74,0,0,0-1.2,2.79,4,4,0,0,0,4,4,3.95,3.95,0,0,0,4-4,3.85,3.85,0,0,0-1.16-2.79,3,3,0,0,0-.56-.48,4,4,0,0,0-4.54,0l.12.24-.12-.24Z"/><path class="cls-8" d="M248.18,67.69a2,2,0,0,0-.52.48,3.74,3.74,0,0,0-1.2,2.79,4,4,0,0,0,4,4,3.95,3.95,0,0,0,4-4,3.85,3.85,0,0,0-1.16-2.79,3,3,0,0,0-.56-.48,4,4,0,0,0-4.54,0l.12.24-.12-.24Z"/><path class="cls-8" d="M238.73,67.69a2,2,0,0,0-.52.48A3.74,3.74,0,0,0,237,71a4,4,0,0,0,4,4,3.95,3.95,0,0,0,4-4,3.85,3.85,0,0,0-1.16-2.79,3,3,0,0,0-.56-.48,4,4,0,0,0-4.54,0l.12.24-.12-.24Z"/><path class="cls-8" d="M229.24,67.69a2,2,0,0,0-.52.48,3.74,3.74,0,0,0-1.2,2.79,4,4,0,0,0,4,4,3.95,3.95,0,0,0,4-4,3.85,3.85,0,0,0-1.16-2.79,3,3,0,0,0-.56-.48,4,4,0,0,0-4.54,0l.12.24-.12-.24Z"/><path class="cls-8" d="M219.28,67.69a2,2,0,0,0-.52.48,3.74,3.74,0,0,0-1.2,2.79,4,4,0,0,0,4,4,3.95,3.95,0,0,0,4-4,3.85,3.85,0,0,0-1.16-2.79,3,3,0,0,0-.56-.48,4,4,0,0,0-4.54,0l.12.24-.12-.24Z"/><path class="cls-8" d="M209.83,67.69a2,2,0,0,0-.52.48,3.74,3.74,0,0,0-1.2,2.79,4,4,0,0,0,4,4,3.95,3.95,0,0,0,4-4,3.85,3.85,0,0,0-1.16-2.79,3,3,0,0,0-.56-.48,4,4,0,0,0-4.54,0l.12.24-.12-.24Z"/><path class="cls-8" d="M200.11,67.69a2,2,0,0,0-.52.48,3.74,3.74,0,0,0-1.2,2.79,4,4,0,0,0,4,4,3.95,3.95,0,0,0,4-4,3.85,3.85,0,0,0-1.16-2.79,3,3,0,0,0-.56-.48,4,4,0,0,0-4.54,0l.12.24-.12-.24Z"/><path class="cls-8" d="M190.14,67.69a2,2,0,0,0-.52.48,3.74,3.74,0,0,0-1.2,2.79,4,4,0,0,0,4,4,3.95,3.95,0,0,0,4-4,3.85,3.85,0,0,0-1.16-2.79,3,3,0,0,0-.56-.48,4,4,0,0,0-4.54,0l.12.24-.12-.24Z"/><path class="cls-8" d="M180.69,67.69a2,2,0,0,0-.52.48A3.74,3.74,0,0,0,179,71a4,4,0,0,0,4,4,3.95,3.95,0,0,0,4-4,3.85,3.85,0,0,0-1.16-2.79,3,3,0,0,0-.56-.48,4,4,0,0,0-4.54,0l.12.24-.12-.24Z"/><path class="cls-8" d="M171,67.69a2,2,0,0,0-.52.48,3.74,3.74,0,0,0-1.2,2.79,4,4,0,0,0,4,4,3.95,3.95,0,0,0,4-4,3.85,3.85,0,0,0-1.16-2.79,3,3,0,0,0-.56-.48,4,4,0,0,0-4.54,0l.12.24-.12-.24Z"/><path class="cls-8" d="M161.08,67.69a2,2,0,0,0-.52.48,3.74,3.74,0,0,0-1.2,2.79,4,4,0,0,0,4,4,3.95,3.95,0,0,0,4-4,3.85,3.85,0,0,0-1.16-2.79,3,3,0,0,0-.56-.48,4,4,0,0,0-4.54,0l.12.24-.12-.24Z"/><path class="cls-8" d="M151.63,67.69a2,2,0,0,0-.52.48,3.74,3.74,0,0,0-1.2,2.79,4,4,0,0,0,4,4,3.95,3.95,0,0,0,4-4,3.85,3.85,0,0,0-1.16-2.79,3,3,0,0,0-.56-.48,4,4,0,0,0-4.54,0l.12.24-.12-.24Z"/><path class="cls-8" d="M141.55,67.69a2,2,0,0,0-.52.48,3.74,3.74,0,0,0-1.2,2.79,4,4,0,0,0,4,4,3.95,3.95,0,0,0,4-4,3.85,3.85,0,0,0-1.16-2.79,3,3,0,0,0-.56-.48,4,4,0,0,0-4.54,0l.12.24-.12-.24Z"/><path class="cls-8" d="M131.58,67.69a2,2,0,0,0-.52.48,3.74,3.74,0,0,0-1.2,2.79,4,4,0,0,0,4,4,3.95,3.95,0,0,0,4-4,3.85,3.85,0,0,0-1.16-2.79,3,3,0,0,0-.56-.48,4,4,0,0,0-4.54,0l.12.24-.12-.24Z"/><path class="cls-8" d="M122.13,67.69a2,2,0,0,0-.52.48,3.74,3.74,0,0,0-1.2,2.79,4,4,0,0,0,4,4,3.95,3.95,0,0,0,4-4,3.85,3.85,0,0,0-1.16-2.79,3,3,0,0,0-.56-.48,4,4,0,0,0-4.54,0l.12.24-.12-.24Z"/><path class="cls-8" d="M302.41,34.44A2,2,0,0,0,303,34a3.74,3.74,0,0,0,1.43-2.68A4,4,0,0,0,300.78,27a3.95,3.95,0,0,0-4.32,3.62,3.85,3.85,0,0,0,.91,2.88,3,3,0,0,0,.51.53,4,4,0,0,0,4.53.4l-.1-.25.1.25Z"/><path class="cls-8" d="M312.9,35.74a2,2,0,0,0,.62-.33A3.74,3.74,0,0,0,315.4,33a4,4,0,0,0-2.82-4.88A3.95,3.95,0,0,0,307.7,31a3.85,3.85,0,0,0,.39,3,3,3,0,0,0,.42.61,4,4,0,0,0,4.39,1.18l-.05-.26.05.26Z"/><path class="cls-8" d="M332.85,42.94a2,2,0,0,0,.69-.16A3.74,3.74,0,0,0,336,41a4,4,0,0,0-1.46-5.45A3.95,3.95,0,0,0,329.06,37a3.85,3.85,0,0,0-.39,3,3,3,0,0,0,.24.69,4,4,0,0,0,3.94,2.27l0-.27,0,.27Z"/><path class="cls-8" d="M341.41,49.4a2,2,0,0,0,.71,0,3.74,3.74,0,0,0,2.76-1.27,4,4,0,0,0-.3-5.63,3.95,3.95,0,0,0-5.63.3,3.85,3.85,0,0,0-1,2.85,3,3,0,0,0,.09.73,4,4,0,0,0,3.38,3l.07-.26-.07.26Z"/><path class="cls-8" d="M355.88,64.37a2,2,0,0,0,.68.17,3.74,3.74,0,0,0,3-.52,4,4,0,0,0,1.17-5.51,3.95,3.95,0,0,0-5.51-1.17,3.85,3.85,0,0,0-1.71,2.49,3,3,0,0,0-.1.73,4,4,0,0,0,2.47,3.81l.14-.23-.14.23Z"/><path class="cls-8" d="M322.93,38.54a2,2,0,0,0,.65-.27,3.74,3.74,0,0,0,2.08-2.21,4,4,0,0,0-2.38-5.11,3.95,3.95,0,0,0-5.11,2.38,3.85,3.85,0,0,0,.13,3,3,3,0,0,0,.36.64,4,4,0,0,0,4.27,1.55l0-.27,0,.27Z"/><path class="cls-8" d="M349.21,56a2,2,0,0,0,.7,0,3.74,3.74,0,0,0,2.82-1.13,4,4,0,0,0,0-5.64,3.95,3.95,0,0,0-5.64,0,3.85,3.85,0,0,0-1.16,2.79,3,3,0,0,0,.06.73A4,4,0,0,0,349.21,56l.08-.25-.08.25Z"/><path class="cls-8" d="M361.07,72.59a2,2,0,0,0,.67.21,3.74,3.74,0,0,0,3-.36A4,4,0,0,0,366.21,67a3.95,3.95,0,0,0-5.45-1.46,3.85,3.85,0,0,0-1.84,2.4,3,3,0,0,0-.14.72,4,4,0,0,0,2.27,3.94l.15-.22-.15.22Z"/><path class="cls-8" d="M365.05,82.87a2,2,0,0,0,.6.38,3.74,3.74,0,0,0,3,.43,4,4,0,0,0,2.82-4.88A3.95,3.95,0,0,0,366.59,76a3.85,3.85,0,0,0-2.4,1.84,3,3,0,0,0-.32.66,4,4,0,0,0,1.18,4.39l.2-.18-.2.18Z"/><path class="cls-8" d="M369.12,103.13a2,2,0,0,0,.48.52,3.74,3.74,0,0,0,2.79,1.2,4,4,0,0,0,4-4,3.95,3.95,0,0,0-4-4A3.85,3.85,0,0,0,369.6,98a3,3,0,0,0-.48.56,4,4,0,0,0,0,4.54l.24-.12-.24.12Z"/><path class="cls-8" d="M368,92.37a2,2,0,0,0,.56.43,3.74,3.74,0,0,0,3,.69,4,4,0,0,0,3.23-4.62,3.95,3.95,0,0,0-4.62-3.23,3.85,3.85,0,0,0-2.55,1.62,3,3,0,0,0-.37.63,4,4,0,0,0,.79,4.48l.21-.16-.21.16Z"/><path class="cls-8" d="M297.31,67.89a2,2,0,0,0-.56.43A3.74,3.74,0,0,0,295.32,71a4,4,0,0,0,3.62,4.32,3.95,3.95,0,0,0,4.32-3.62,3.85,3.85,0,0,0-.91-2.88,3,3,0,0,0-.51-.53,4,4,0,0,0-4.53-.4l.1.25-.1-.25Z"/><path class="cls-8" d="M307.31,68.83a2,2,0,0,0-.62.33,3.74,3.74,0,0,0-1.88,2.39,4,4,0,0,0,2.82,4.88,3.95,3.95,0,0,0,4.88-2.82,3.85,3.85,0,0,0-.39-3,3,3,0,0,0-.42-.61,4,4,0,0,0-4.39-1.18l.05.26-.05-.26Z"/><path class="cls-8" d="M317.94,72.18a2,2,0,0,0-.71,0,3.74,3.74,0,0,0-2.76,1.27,4,4,0,0,0,.3,5.63,3.95,3.95,0,0,0,5.63-.3,3.85,3.85,0,0,0,1-2.85,3,3,0,0,0-.09-.73,4,4,0,0,0-3.38-3l-.07.26.07-.26Z"/><path class="cls-8" d="M326.79,79.3a2,2,0,0,0-.68-.17,3.74,3.74,0,0,0-3,.52,4,4,0,0,0-1.17,5.51,3.95,3.95,0,0,0,5.51,1.17,3.85,3.85,0,0,0,1.71-2.49,3,3,0,0,0,.1-.73,4,4,0,0,0-2.47-3.81l-.14.23.14-.23Z"/><path class="cls-8" d="M331.74,88.39a2,2,0,0,0-.6-.38,3.74,3.74,0,0,0-3-.43,4,4,0,0,0-2.82,4.88,3.95,3.95,0,0,0,4.88,2.82,3.85,3.85,0,0,0,2.4-1.84,3,3,0,0,0,.32-.66,4,4,0,0,0-1.18-4.39l-.2.18.2-.18Z"/><path class="cls-8" d="M334.28,98.42a2,2,0,0,0-.48-.52,3.74,3.74,0,0,0-2.79-1.2,4,4,0,0,0-4,4,3.95,3.95,0,0,0,4,4,3.85,3.85,0,0,0,2.79-1.16,3,3,0,0,0,.48-.56,4,4,0,0,0,0-4.54l-.24.12.24-.12Z"/><path class="cls-8" d="M127.63,171.49a2,2,0,0,1,.52.48,3.74,3.74,0,0,1,1.2,2.79,4,4,0,0,1-4,4,3.95,3.95,0,0,1-4-4,3.85,3.85,0,0,1,1.16-2.79,3,3,0,0,1,.56-.48,4,4,0,0,1,4.54,0l-.12.24.12-.24Z"/><path class="cls-8" d="M137.6,171.49a2,2,0,0,1,.52.48,3.74,3.74,0,0,1,1.2,2.79,4,4,0,0,1-4,4,3.95,3.95,0,0,1-4-4A3.85,3.85,0,0,1,132.5,172a3,3,0,0,1,.56-.48,4,4,0,0,1,4.54,0l-.12.24.12-.24Z"/><path class="cls-8" d="M147,171.49a2,2,0,0,1,.52.48,3.74,3.74,0,0,1,1.2,2.79,4,4,0,0,1-4,4,3.95,3.95,0,0,1-4-4,3.85,3.85,0,0,1,1.16-2.79,3,3,0,0,1,.56-.48,4,4,0,0,1,4.54,0l-.12.24.12-.24Z"/><path class="cls-8" d="M157.29,171.49a2,2,0,0,1,.52.48,3.74,3.74,0,0,1,1.2,2.79,4,4,0,0,1-4,4,3.95,3.95,0,0,1-4-4,3.85,3.85,0,0,1,1.16-2.79,3,3,0,0,1,.56-.48,4,4,0,0,1,4.54,0l-.12.24.12-.24Z"/><path class="cls-8" d="M167.26,171.49a2,2,0,0,1,.52.48,3.74,3.74,0,0,1,1.2,2.79,4,4,0,0,1-4,4,3.95,3.95,0,0,1-4-4,3.85,3.85,0,0,1,1.16-2.79,3,3,0,0,1,.56-.48,4,4,0,0,1,4.54,0l-.12.24.12-.24Z"/><path class="cls-8" d="M176.71,171.49a2,2,0,0,1,.52.48,3.74,3.74,0,0,1,1.2,2.79,4,4,0,0,1-4,4,3.95,3.95,0,0,1-4-4A3.85,3.85,0,0,1,171.6,172a3,3,0,0,1,.56-.48,4,4,0,0,1,4.54,0l-.12.24.12-.24Z"/><path class="cls-8" d="M186.19,171.49a2,2,0,0,1,.52.48,3.74,3.74,0,0,1,1.2,2.79,4,4,0,0,1-4,4,3.95,3.95,0,0,1-4-4,3.85,3.85,0,0,1,1.16-2.79,3,3,0,0,1,.56-.48,4,4,0,0,1,4.54,0l-.12.24.12-.24Z"/><path class="cls-8" d="M196.16,171.49a2,2,0,0,1,.52.48,3.74,3.74,0,0,1,1.2,2.79,4,4,0,0,1-4,4,3.95,3.95,0,0,1-4-4,3.85,3.85,0,0,1,1.16-2.79,3,3,0,0,1,.56-.48,4,4,0,0,1,4.54,0l-.12.24.12-.24Z"/><path class="cls-8" d="M205.61,171.49a2,2,0,0,1,.52.48,3.74,3.74,0,0,1,1.2,2.79,4,4,0,0,1-4,4,3.95,3.95,0,0,1-4-4A3.85,3.85,0,0,1,200.5,172a3,3,0,0,1,.56-.48,4,4,0,0,1,4.54,0l-.12.24.12-.24Z"/><path class="cls-8" d="M215.33,171.49a2,2,0,0,1,.52.48,3.74,3.74,0,0,1,1.2,2.79,4,4,0,0,1-4,4,3.95,3.95,0,0,1-4-4,3.85,3.85,0,0,1,1.16-2.79,3,3,0,0,1,.56-.48,4,4,0,0,1,4.54,0l-.12.24.12-.24Z"/><path class="cls-8" d="M225.3,171.49a2,2,0,0,1,.52.48,3.74,3.74,0,0,1,1.2,2.79,4,4,0,0,1-4,4,3.95,3.95,0,0,1-4-4A3.85,3.85,0,0,1,220.2,172a3,3,0,0,1,.56-.48,4,4,0,0,1,4.54,0l-.12.24.12-.24Z"/><path class="cls-8" d="M234.75,171.49a2,2,0,0,1,.52.48,3.74,3.74,0,0,1,1.2,2.79,4,4,0,0,1-4,4,3.95,3.95,0,0,1-4-4,3.85,3.85,0,0,1,1.16-2.79,3,3,0,0,1,.56-.48,4,4,0,0,1,4.54,0l-.12.24.12-.24Z"/><path class="cls-8" d="M244.39,171.49a2,2,0,0,1,.52.48,3.74,3.74,0,0,1,1.2,2.79,4,4,0,0,1-4,4,3.95,3.95,0,0,1-4-4,3.85,3.85,0,0,1,1.16-2.79,3,3,0,0,1,.56-.48,4,4,0,0,1,4.54,0l-.12.24.12-.24Z"/><path class="cls-8" d="M254.36,171.49a2,2,0,0,1,.52.48,3.74,3.74,0,0,1,1.2,2.79,4,4,0,0,1-4,4,3.95,3.95,0,0,1-4-4,3.85,3.85,0,0,1,1.16-2.79,3,3,0,0,1,.56-.48,4,4,0,0,1,4.54,0l-.12.24.12-.24Z"/><path class="cls-8" d="M263.81,171.49a2,2,0,0,1,.52.48,3.74,3.74,0,0,1,1.2,2.79,4,4,0,0,1-4,4,3.95,3.95,0,0,1-4-4A3.85,3.85,0,0,1,258.7,172a3,3,0,0,1,.56-.48,4,4,0,0,1,4.54,0l-.12.24.12-.24Z"/><path class="cls-8" d="M273.89,171.49a2,2,0,0,1,.52.48,3.74,3.74,0,0,1,1.2,2.79,4,4,0,0,1-4,4,3.95,3.95,0,0,1-4-4,3.85,3.85,0,0,1,1.16-2.79,3,3,0,0,1,.56-.48,4,4,0,0,1,4.54,0l-.12.24.12-.24Z"/><path class="cls-8" d="M283.86,171.49a2,2,0,0,1,.52.48,3.74,3.74,0,0,1,1.2,2.79,4,4,0,0,1-4,4,3.95,3.95,0,0,1-4-4,3.85,3.85,0,0,1,1.16-2.79,3,3,0,0,1,.56-.48,4,4,0,0,1,4.54,0l-.12.24.12-.24Z"/><path class="cls-8" d="M293.3,171.49a2,2,0,0,1,.52.48,3.74,3.74,0,0,1,1.2,2.79,4,4,0,0,1-4,4,3.95,3.95,0,0,1-4-4A3.85,3.85,0,0,1,288.2,172a3,3,0,0,1,.56-.48,4,4,0,0,1,4.54,0l-.12.24.12-.24Z"/><path class="cls-8" d="M288.76,138.17a2,2,0,0,1-.52-.48,3.74,3.74,0,0,1-1.2-2.79,4,4,0,0,1,4-4,3.95,3.95,0,0,1,4,4,3.85,3.85,0,0,1-1.16,2.79,3,3,0,0,1-.56.48,4,4,0,0,1-4.54,0l.12-.24-.12.24Z"/><path class="cls-8" d="M278.79,138.17a2,2,0,0,1-.52-.48,3.74,3.74,0,0,1-1.2-2.79,4,4,0,0,1,4-4,3.95,3.95,0,0,1,4,4,3.85,3.85,0,0,1-1.16,2.79,3,3,0,0,1-.56.48,4,4,0,0,1-4.54,0l.12-.24-.12.24Z"/><path class="cls-8" d="M269.35,138.17a2,2,0,0,1-.52-.48,3.74,3.74,0,0,1-1.2-2.79,4,4,0,0,1,4-4,3.95,3.95,0,0,1,4,4,3.85,3.85,0,0,1-1.16,2.79,3,3,0,0,1-.56.48,4,4,0,0,1-4.54,0l.12-.24-.12.24Z"/><path class="cls-8" d="M259.1,138.17a2,2,0,0,1-.52-.48,3.74,3.74,0,0,1-1.2-2.79,4,4,0,0,1,4-4,3.95,3.95,0,0,1,4,4,3.85,3.85,0,0,1-1.16,2.79,3,3,0,0,1-.56.48,4,4,0,0,1-4.54,0l.12-.24-.12.24Z"/><path class="cls-8" d="M249.14,138.17a2,2,0,0,1-.52-.48,3.74,3.74,0,0,1-1.2-2.79,4,4,0,0,1,4-4,3.95,3.95,0,0,1,4,4,3.85,3.85,0,0,1-1.16,2.79,3,3,0,0,1-.56.48,4,4,0,0,1-4.54,0l.12-.24-.12.24Z"/><path class="cls-8" d="M239.69,138.17a2,2,0,0,1-.52-.48,3.74,3.74,0,0,1-1.2-2.79,4,4,0,0,1,4-4,3.95,3.95,0,0,1,4,4,3.85,3.85,0,0,1-1.16,2.79,3,3,0,0,1-.56.48,4,4,0,0,1-4.54,0l.12-.24-.12.24Z"/><path class="cls-8" d="M230.2,138.17a2,2,0,0,1-.52-.48,3.74,3.74,0,0,1-1.2-2.79,4,4,0,0,1,4-4,3.95,3.95,0,0,1,4,4,3.85,3.85,0,0,1-1.16,2.79,3,3,0,0,1-.56.48,4,4,0,0,1-4.54,0l.12-.24-.12.24Z"/><path class="cls-8" d="M220.24,138.17a2,2,0,0,1-.52-.48,3.74,3.74,0,0,1-1.2-2.79,4,4,0,0,1,4-4,3.95,3.95,0,0,1,4,4,3.85,3.85,0,0,1-1.16,2.79,3,3,0,0,1-.56.48,4,4,0,0,1-4.54,0l.12-.24-.12.24Z"/><path class="cls-8" d="M210.79,138.17a2,2,0,0,1-.52-.48,3.74,3.74,0,0,1-1.2-2.79,4,4,0,0,1,4-4,3.95,3.95,0,0,1,4,4,3.85,3.85,0,0,1-1.16,2.79,3,3,0,0,1-.56.48,4,4,0,0,1-4.54,0l.12-.24-.12.24Z"/><path class="cls-8" d="M201.06,138.17a2,2,0,0,1-.52-.48,3.74,3.74,0,0,1-1.2-2.79,4,4,0,0,1,4-4,3.95,3.95,0,0,1,4,4,3.85,3.85,0,0,1-1.16,2.79,3,3,0,0,1-.56.48,4,4,0,0,1-4.54,0l.12-.24-.12.24Z"/><path class="cls-8" d="M191.1,138.17a2,2,0,0,1-.52-.48,3.74,3.74,0,0,1-1.2-2.79,4,4,0,0,1,4-4,3.95,3.95,0,0,1,4,4,3.85,3.85,0,0,1-1.16,2.79,3,3,0,0,1-.56.48,4,4,0,0,1-4.54,0l.12-.24-.12.24Z"/><path class="cls-8" d="M181.65,138.17a2,2,0,0,1-.52-.48,3.74,3.74,0,0,1-1.2-2.79,4,4,0,0,1,4-4,3.95,3.95,0,0,1,4,4,3.85,3.85,0,0,1-1.16,2.79,3,3,0,0,1-.56.48,4,4,0,0,1-4.54,0l.12-.24-.12.24Z"/><path class="cls-8" d="M172,138.17a2,2,0,0,1-.52-.48,3.74,3.74,0,0,1-1.2-2.79,4,4,0,0,1,4-4,3.95,3.95,0,0,1,4,4,3.85,3.85,0,0,1-1.16,2.79,3,3,0,0,1-.56.48,4,4,0,0,1-4.54,0l.12-.24-.12.24Z"/><path class="cls-8" d="M162,138.17a2,2,0,0,1-.52-.48,3.74,3.74,0,0,1-1.2-2.79,4,4,0,0,1,4-4,3.95,3.95,0,0,1,4,4,3.85,3.85,0,0,1-1.16,2.79,3,3,0,0,1-.56.48,4,4,0,0,1-4.54,0l.12-.24-.12.24Z"/><path class="cls-8" d="M152.59,138.17a2,2,0,0,1-.52-.48,3.74,3.74,0,0,1-1.2-2.79,4,4,0,0,1,4-4,3.95,3.95,0,0,1,4,4,3.85,3.85,0,0,1-1.16,2.79,3,3,0,0,1-.56.48,4,4,0,0,1-4.54,0l.12-.24-.12.24Z"/><path class="cls-8" d="M142.5,138.17a2,2,0,0,1-.52-.48,3.74,3.74,0,0,1-1.2-2.79,4,4,0,0,1,4-4,3.95,3.95,0,0,1,4,4,3.85,3.85,0,0,1-1.16,2.79,3,3,0,0,1-.56.48,4,4,0,0,1-4.54,0l.12-.24-.12.24Z"/><path class="cls-8" d="M132.54,138.17a2,2,0,0,1-.52-.48,3.74,3.74,0,0,1-1.2-2.79,4,4,0,0,1,4-4,3.95,3.95,0,0,1,4,4,3.85,3.85,0,0,1-1.16,2.79,3,3,0,0,1-.56.48,4,4,0,0,1-4.54,0l.12-.24-.12.24Z"/><path class="cls-8" d="M123.09,138.17a2,2,0,0,1-.52-.48,3.74,3.74,0,0,1-1.2-2.79,4,4,0,0,1,4-4,3.95,3.95,0,0,1,4,4,3.85,3.85,0,0,1-1.16,2.79,3,3,0,0,1-.56.48,4,4,0,0,1-4.54,0l.12-.24-.12.24Z"/><path class="cls-8" d="M303.37,171.41a2,2,0,0,1,.56.43,3.74,3.74,0,0,1,1.43,2.68,4,4,0,0,1-3.62,4.32,3.95,3.95,0,0,1-4.32-3.62,3.85,3.85,0,0,1,.91-2.88,3,3,0,0,1,.51-.53,4,4,0,0,1,4.53-.4l-.1.25.1-.25Z"/><path class="cls-8" d="M313.86,170.12a2,2,0,0,1,.62.33,3.74,3.74,0,0,1,1.88,2.39,4,4,0,0,1-2.82,4.88,3.95,3.95,0,0,1-4.88-2.82,3.85,3.85,0,0,1,.39-3,3,3,0,0,1,.42-.61,4,4,0,0,1,4.39-1.18l-.05.26.05-.26Z"/><path class="cls-8" d="M333.8,162.92a2,2,0,0,1,.69.16,3.74,3.74,0,0,1,2.43,1.82,4,4,0,0,1-1.46,5.45,3.95,3.95,0,0,1-5.45-1.46,3.85,3.85,0,0,1-.39-3,3,3,0,0,1,.24-.69,4,4,0,0,1,3.94-2.27l0,.27,0-.27Z"/><path class="cls-8" d="M342.37,156.45a2,2,0,0,1,.71,0,3.74,3.74,0,0,1,2.76,1.27,4,4,0,0,1-.3,5.63,3.95,3.95,0,0,1-5.63-.3,3.85,3.85,0,0,1-1-2.85,3,3,0,0,1,.09-.73,4,4,0,0,1,3.38-3l.07.26-.07-.26Z"/><path class="cls-8" d="M356.84,141.48a2,2,0,0,1,.68-.17,3.74,3.74,0,0,1,3,.52,4,4,0,0,1,1.17,5.51,3.95,3.95,0,0,1-5.51,1.17,3.85,3.85,0,0,1-1.71-2.49,3,3,0,0,1-.1-.73,4,4,0,0,1,2.47-3.81l.14.23-.14-.23Z"/><path class="cls-8" d="M323.89,167.32a2,2,0,0,1,.65.27,3.74,3.74,0,0,1,2.08,2.21,4,4,0,0,1-2.38,5.11,3.95,3.95,0,0,1-5.11-2.38,3.85,3.85,0,0,1,.13-3,3,3,0,0,1,.36-.64,4,4,0,0,1,4.27-1.55l0,.27,0-.27Z"/><path class="cls-8" d="M350.16,149.82a2,2,0,0,1,.7,0,3.74,3.74,0,0,1,2.82,1.13,4,4,0,0,1,0,5.64,3.95,3.95,0,0,1-5.64,0,3.85,3.85,0,0,1-1.16-2.79,3,3,0,0,1,.06-.73,4,4,0,0,1,3.21-3.21l.08.25-.08-.25Z"/><path class="cls-8" d="M362,133.26a2,2,0,0,1,.67-.21,3.74,3.74,0,0,1,3,.36,4,4,0,0,1,1.46,5.45,3.95,3.95,0,0,1-5.45,1.46,3.85,3.85,0,0,1-1.84-2.4,3,3,0,0,1-.14-.72,4,4,0,0,1,2.27-3.94l.15.22-.15-.22Z"/><path class="cls-8" d="M366.41,122.19a2,2,0,0,1,.6-.38,3.74,3.74,0,0,1,3-.43,4,4,0,0,1,2.82,4.88,3.95,3.95,0,0,1-4.88,2.82,3.85,3.85,0,0,1-2.4-1.84,3,3,0,0,1-.32-.66,4,4,0,0,1,1.18-4.39l.2.18-.2-.18Z"/><path class="cls-8" d="M368.61,111.49a2,2,0,0,1,.56-.43,3.74,3.74,0,0,1,3-.69,4,4,0,0,1,3.23,4.62,3.95,3.95,0,0,1-4.62,3.23,3.85,3.85,0,0,1-2.55-1.62,3,3,0,0,1-.37-.63,4,4,0,0,1,.79-4.48l.21.16-.21-.16Z"/><path class="cls-8" d="M298.27,138a2,2,0,0,1-.56-.43,3.74,3.74,0,0,1-1.43-2.68,4,4,0,0,1,3.62-4.32,3.95,3.95,0,0,1,4.32,3.62,3.85,3.85,0,0,1-.91,2.88,3,3,0,0,1-.51.53,4,4,0,0,1-4.53.4l.1-.25-.1.25Z"/><path class="cls-8" d="M308.27,137a2,2,0,0,1-.62-.33,3.74,3.74,0,0,1-1.88-2.39,4,4,0,0,1,2.82-4.88,3.95,3.95,0,0,1,4.88,2.82,3.85,3.85,0,0,1-.39,3,3,3,0,0,1-.42.61,4,4,0,0,1-4.39,1.18l.05-.26-.05.26Z"/><path class="cls-8" d="M318.9,133.67a2,2,0,0,1-.71,0,3.74,3.74,0,0,1-2.76-1.27,4,4,0,0,1,.3-5.63,3.95,3.95,0,0,1,5.63.3,3.85,3.85,0,0,1,1,2.85,3,3,0,0,1-.09.73,4,4,0,0,1-3.38,3l-.07-.26.07.26Z"/><path class="cls-8" d="M327.35,127.75a2,2,0,0,1-.68.17,3.74,3.74,0,0,1-3-.52,4,4,0,0,1-1.17-5.51,3.95,3.95,0,0,1,5.51-1.17,3.85,3.85,0,0,1,1.71,2.49,3,3,0,0,1,.1.73,4,4,0,0,1-2.47,3.81l-.14-.23.14.23Z"/><path class="cls-8" d="M332.7,120.26a2,2,0,0,1-.6.38,3.74,3.74,0,0,1-3,.43,4,4,0,0,1-2.82-4.88,3.95,3.95,0,0,1,4.88-2.82,3.85,3.85,0,0,1,2.4,1.84,3,3,0,0,1,.32.66,4,4,0,0,1-1.18,4.39l-.2-.18.2.18Z"/><path class="cls-8" d="M335.28,107.27a2,2,0,0,0-.48-.52,3.74,3.74,0,0,0-2.79-1.2,4,4,0,0,0-4,4,3.95,3.95,0,0,0,4,4,3.85,3.85,0,0,0,2.79-1.16,3,3,0,0,0,.48-.56,4,4,0,0,0,0-4.54l-.24.12.24-.12Z"/><path class="cls-8" d="M11.27,171.33a2,2,0,0,1,.52.48A3.74,3.74,0,0,1,13,174.6a4,4,0,0,1-4,4,3.95,3.95,0,0,1-4-4,3.85,3.85,0,0,1,1.16-2.79,3,3,0,0,1,.56-.48,4,4,0,0,1,4.54,0l-.12.24.12-.24Z"/><path class="cls-8" d="M21.52,171.33a2,2,0,0,1,.52.48,3.74,3.74,0,0,1,1.2,2.79,4,4,0,0,1-4,4,3.95,3.95,0,0,1-4-4,3.85,3.85,0,0,1,1.16-2.79,3,3,0,0,1,.56-.48,4,4,0,0,1,4.54,0l-.12.24.12-.24Z"/><path class="cls-8" d="M31.49,171.33a2,2,0,0,1,.52.48,3.74,3.74,0,0,1,1.2,2.79,4,4,0,0,1-4,4,3.95,3.95,0,0,1-4-4,3.85,3.85,0,0,1,1.16-2.79,3,3,0,0,1,.56-.48,4,4,0,0,1,4.54,0l-.12.24.12-.24Z"/><path class="cls-8" d="M40.93,171.33a2,2,0,0,1,.52.48,3.74,3.74,0,0,1,1.2,2.79,4,4,0,0,1-4,4,3.95,3.95,0,0,1-4-4,3.85,3.85,0,0,1,1.16-2.79,3,3,0,0,1,.56-.48,4,4,0,0,1,4.54,0l-.12.24.12-.24Z"/><path class="cls-8" d="M50.42,171.33a2,2,0,0,1,.52.48,3.74,3.74,0,0,1,1.2,2.79,4,4,0,0,1-4,4,3.95,3.95,0,0,1-4-4,3.85,3.85,0,0,1,1.16-2.79,3,3,0,0,1,.56-.48,4,4,0,0,1,4.54,0l-.12.24.12-.24Z"/><path class="cls-8" d="M60.39,171.33a2,2,0,0,1,.52.48,3.74,3.74,0,0,1,1.2,2.79,4,4,0,0,1-4,4,3.95,3.95,0,0,1-4-4,3.85,3.85,0,0,1,1.16-2.79,3,3,0,0,1,.56-.48,4,4,0,0,1,4.54,0l-.12.24.12-.24Z"/><path class="cls-8" d="M69.83,171.33a2,2,0,0,1,.52.48,3.74,3.74,0,0,1,1.2,2.79,4,4,0,0,1-4,4,3.95,3.95,0,0,1-4-4,3.85,3.85,0,0,1,1.16-2.79,3,3,0,0,1,.56-.48,4,4,0,0,1,4.54,0l-.12.24.12-.24Z"/><path class="cls-8" d="M79.56,171.33a2,2,0,0,1,.52.48,3.74,3.74,0,0,1,1.2,2.79,4,4,0,0,1-4,4,3.95,3.95,0,0,1-4-4,3.85,3.85,0,0,1,1.16-2.79,3,3,0,0,1,.56-.48,4,4,0,0,1,4.54,0l-.12.24.12-.24Z"/><path class="cls-8" d="M89.53,171.33a2,2,0,0,1,.52.48,3.74,3.74,0,0,1,1.2,2.79,4,4,0,0,1-4,4,3.95,3.95,0,0,1-4-4,3.85,3.85,0,0,1,1.16-2.79,3,3,0,0,1,.56-.48,4,4,0,0,1,4.54,0l-.12.24.12-.24Z"/><path class="cls-8" d="M99,171.33a2,2,0,0,1,.52.48,3.74,3.74,0,0,1,1.2,2.79,4,4,0,0,1-4,4,3.95,3.95,0,0,1-4-4,3.85,3.85,0,0,1,1.16-2.79,3,3,0,0,1,.56-.48,4,4,0,0,1,4.54,0l-.12.24.12-.24Z"/><path class="cls-8" d="M108.62,171.33a2,2,0,0,1,.52.48,3.74,3.74,0,0,1,1.2,2.79,4,4,0,0,1-4,4,3.95,3.95,0,0,1-4-4,3.85,3.85,0,0,1,1.16-2.79,3,3,0,0,1,.56-.48,4,4,0,0,1,4.54,0l-.12.24.12-.24Z"/><path class="cls-8" d="M118.59,171.33a2,2,0,0,1,.52.48,3.74,3.74,0,0,1,1.2,2.79,4,4,0,0,1-4,4,3.95,3.95,0,0,1-4-4,3.85,3.85,0,0,1,1.16-2.79,3,3,0,0,1,.56-.48,4,4,0,0,1,4.54,0l-.12.24.12-.24Z"/><path class="cls-8" d="M113.36,138a2,2,0,0,1-.52-.48,3.74,3.74,0,0,1-1.2-2.79,4,4,0,0,1,4-4,3.95,3.95,0,0,1,4,4,3.85,3.85,0,0,1-1.16,2.79,3,3,0,0,1-.56.48,4,4,0,0,1-4.54,0l.12-.24-.12.24Z"/><path class="cls-8" d="M103.92,138a2,2,0,0,1-.52-.48,3.74,3.74,0,0,1-1.2-2.79,4,4,0,0,1,4-4,3.95,3.95,0,0,1,4,4,3.85,3.85,0,0,1-1.16,2.79,3,3,0,0,1-.56.48,4,4,0,0,1-4.54,0l.12-.24-.12.24Z"/><path class="cls-8" d="M94.43,138a2,2,0,0,1-.52-.48,3.74,3.74,0,0,1-1.2-2.79,4,4,0,0,1,4-4,3.95,3.95,0,0,1,4,4,3.85,3.85,0,0,1-1.16,2.79A3,3,0,0,1,99,138a4,4,0,0,1-4.54,0l.12-.24-.12.24Z"/><path class="cls-8" d="M84.46,138a2,2,0,0,1-.52-.48,3.74,3.74,0,0,1-1.2-2.79,4,4,0,0,1,4-4,3.95,3.95,0,0,1,4,4,3.85,3.85,0,0,1-1.16,2.79A3,3,0,0,1,89,138a4,4,0,0,1-4.54,0l.12-.24-.12.24Z"/><path class="cls-8" d="M75,138a2,2,0,0,1-.52-.48,3.74,3.74,0,0,1-1.2-2.79,4,4,0,0,1,4-4,3.95,3.95,0,0,1,4,4,3.85,3.85,0,0,1-1.16,2.79,3,3,0,0,1-.56.48A4,4,0,0,1,75,138l.12-.24L75,138Z"/><path class="cls-8" d="M65.29,138a2,2,0,0,1-.52-.48,3.74,3.74,0,0,1-1.2-2.79,4,4,0,0,1,4-4,3.95,3.95,0,0,1,4,4,3.85,3.85,0,0,1-1.16,2.79,3,3,0,0,1-.56.48,4,4,0,0,1-4.54,0l.12-.24-.12.24Z"/><path class="cls-8" d="M55.32,138a2,2,0,0,1-.52-.48,3.74,3.74,0,0,1-1.2-2.79,4,4,0,0,1,4-4,3.95,3.95,0,0,1,4,4,3.85,3.85,0,0,1-1.16,2.79,3,3,0,0,1-.56.48,4,4,0,0,1-4.54,0l.12-.24-.12.24Z"/><path class="cls-8" d="M45.88,138a2,2,0,0,1-.52-.48,3.74,3.74,0,0,1-1.2-2.79,4,4,0,0,1,4-4,3.95,3.95,0,0,1,4,4A3.85,3.85,0,0,1,51,137.53a3,3,0,0,1-.56.48,4,4,0,0,1-4.54,0l.12-.24-.12.24Z"/><path class="cls-8" d="M36.23,138a2,2,0,0,1-.52-.48,3.74,3.74,0,0,1-1.2-2.79,4,4,0,0,1,4-4,3.95,3.95,0,0,1,4,4,3.85,3.85,0,0,1-1.16,2.79,3,3,0,0,1-.56.48,4,4,0,0,1-4.54,0l.12-.24-.12.24Z"/><path class="cls-8" d="M26.26,138a2,2,0,0,1-.52-.48,3.74,3.74,0,0,1-1.2-2.79,4,4,0,0,1,4-4,3.95,3.95,0,0,1,4,4,3.85,3.85,0,0,1-1.16,2.79,3,3,0,0,1-.56.48,4,4,0,0,1-4.54,0l.12-.24-.12.24Z"/><path class="cls-8" d="M16.82,138a2,2,0,0,1-.52-.48,3.74,3.74,0,0,1-1.2-2.79,4,4,0,0,1,4-4,3.95,3.95,0,0,1,4,4,3.85,3.85,0,0,1-1.16,2.79,3,3,0,0,1-.56.48,4,4,0,0,1-4.54,0l.12-.24-.12.24Z"/><path class="cls-8" d="M6.73,138a2,2,0,0,1-.52-.48A3.74,3.74,0,0,1,5,134.74a4,4,0,0,1,4-4,3.95,3.95,0,0,1,4,4,3.85,3.85,0,0,1-1.16,2.79,3,3,0,0,1-.56.48,4,4,0,0,1-4.54,0l.12-.24-.12.24Z"/><path class="cls-8" d="M9.8,34.36a2,2,0,0,0,.52-.48,3.74,3.74,0,0,0,1.2-2.79,4,4,0,0,0-4-4,3.95,3.95,0,0,0-4,4A3.85,3.85,0,0,0,4.7,33.88a3,3,0,0,0,.56.48,4,4,0,0,0,4.54,0l-.12-.24.12.24Z"/><path class="cls-8" d="M19.77,34.36a2,2,0,0,0,.52-.48,3.74,3.74,0,0,0,1.2-2.79,4,4,0,0,0-4-4,3.95,3.95,0,0,0-4,4,3.85,3.85,0,0,0,1.16,2.79,3,3,0,0,0,.56.48,4,4,0,0,0,4.54,0l-.12-.24.12.24Z"/><path class="cls-8" d="M29.21,34.36a2,2,0,0,0,.52-.48,3.74,3.74,0,0,0,1.2-2.79,4,4,0,0,0-4-4,3.95,3.95,0,0,0-4,4,3.85,3.85,0,0,0,1.16,2.79,3,3,0,0,0,.56.48,4,4,0,0,0,4.54,0l-.12-.24.12.24Z"/><path class="cls-8" d="M39.46,34.36a2,2,0,0,0,.52-.48,3.74,3.74,0,0,0,1.2-2.79,4,4,0,0,0-4-4,3.95,3.95,0,0,0-4,4,3.85,3.85,0,0,0,1.16,2.79,3,3,0,0,0,.56.48,4,4,0,0,0,4.54,0l-.12-.24.12.24Z"/><path class="cls-8" d="M49.42,34.36a2,2,0,0,0,.52-.48,3.74,3.74,0,0,0,1.2-2.79,4,4,0,0,0-4-4,3.95,3.95,0,0,0-4,4,3.85,3.85,0,0,0,1.16,2.79,3,3,0,0,0,.56.48,4,4,0,0,0,4.54,0l-.12-.24.12.24Z"/><path class="cls-8" d="M58.87,34.36a2,2,0,0,0,.52-.48,3.74,3.74,0,0,0,1.2-2.79,4,4,0,0,0-4-4,3.95,3.95,0,0,0-4,4,3.85,3.85,0,0,0,1.16,2.79,3,3,0,0,0,.56.48,4,4,0,0,0,4.54,0l-.12-.24.12.24Z"/><path class="cls-8" d="M68.36,34.36a2,2,0,0,0,.52-.48,3.74,3.74,0,0,0,1.2-2.79,4,4,0,0,0-4-4,3.95,3.95,0,0,0-4,4,3.85,3.85,0,0,0,1.16,2.79,3,3,0,0,0,.56.48,4,4,0,0,0,4.54,0l-.12-.24.12.24Z"/><path class="cls-8" d="M78.32,34.36a2,2,0,0,0,.52-.48A3.74,3.74,0,0,0,80,31.09a4,4,0,0,0-4-4,3.95,3.95,0,0,0-4,4,3.85,3.85,0,0,0,1.16,2.79,3,3,0,0,0,.56.48,4,4,0,0,0,4.54,0l-.12-.24.12.24Z"/><path class="cls-8" d="M87.77,34.36a2,2,0,0,0,.52-.48,3.74,3.74,0,0,0,1.2-2.79,4,4,0,0,0-4-4,3.95,3.95,0,0,0-4,4,3.85,3.85,0,0,0,1.16,2.79,3,3,0,0,0,.56.48,4,4,0,0,0,4.54,0l-.12-.24.12.24Z"/><path class="cls-8" d="M97.5,34.36a2,2,0,0,0,.52-.48,3.74,3.74,0,0,0,1.2-2.79,4,4,0,0,0-4-4,3.95,3.95,0,0,0-4,4,3.85,3.85,0,0,0,1.16,2.79,3,3,0,0,0,.56.48,4,4,0,0,0,4.54,0l-.12-.24.12.24Z"/><path class="cls-8" d="M107.46,34.36a2,2,0,0,0,.52-.48,3.74,3.74,0,0,0,1.2-2.79,4,4,0,0,0-4-4,3.95,3.95,0,0,0-4,4,3.85,3.85,0,0,0,1.16,2.79,3,3,0,0,0,.56.48,4,4,0,0,0,4.54,0l-.12-.24.12.24Z"/><path class="cls-8" d="M116.91,34.36a2,2,0,0,0,.52-.48,3.74,3.74,0,0,0,1.2-2.79,4,4,0,0,0-4-4,3.95,3.95,0,0,0-4,4,3.85,3.85,0,0,0,1.16,2.79,3,3,0,0,0,.56.48,4,4,0,0,0,4.54,0l-.12-.24.12.24Z"/><path class="cls-8" d="M112.37,67.69a2,2,0,0,0-.52.48,3.74,3.74,0,0,0-1.2,2.79,4,4,0,0,0,4,4,3.95,3.95,0,0,0,4-4,3.85,3.85,0,0,0-1.16-2.79,3,3,0,0,0-.56-.48,4,4,0,0,0-4.54,0l.12.24-.12-.24Z"/><path class="cls-8" d="M102.4,67.69a2,2,0,0,0-.52.48,3.74,3.74,0,0,0-1.2,2.79,4,4,0,0,0,4,4,3.95,3.95,0,0,0,4-4,3.85,3.85,0,0,0-1.16-2.79,3,3,0,0,0-.56-.48,4,4,0,0,0-4.54,0l.12.24-.12-.24Z"/><path class="cls-8" d="M93,67.69a2,2,0,0,0-.52.48A3.74,3.74,0,0,0,91.24,71a4,4,0,0,0,4,4,3.95,3.95,0,0,0,4-4,3.85,3.85,0,0,0-1.16-2.79,3,3,0,0,0-.56-.48,4,4,0,0,0-4.54,0l.12.24L93,67.69Z"/><path class="cls-8" d="M83.23,67.69a2,2,0,0,0-.52.48A3.74,3.74,0,0,0,81.51,71a4,4,0,0,0,4,4,3.95,3.95,0,0,0,4-4,3.85,3.85,0,0,0-1.16-2.79,3,3,0,0,0-.56-.48,4,4,0,0,0-4.54,0l.12.24-.12-.24Z"/><path class="cls-8" d="M73.26,67.69a2,2,0,0,0-.52.48A3.74,3.74,0,0,0,71.55,71a4,4,0,0,0,4,4,3.95,3.95,0,0,0,4-4,3.85,3.85,0,0,0-1.16-2.79,3,3,0,0,0-.56-.48,4,4,0,0,0-4.54,0l.12.24-.12-.24Z"/><path class="cls-8" d="M63.81,67.69a2,2,0,0,0-.52.48A3.74,3.74,0,0,0,62.1,71a4,4,0,0,0,4,4,3.95,3.95,0,0,0,4-4,3.85,3.85,0,0,0-1.16-2.79,3,3,0,0,0-.56-.48,4,4,0,0,0-4.54,0l.12.24-.12-.24Z"/><path class="cls-8" d="M54.17,67.69a2,2,0,0,0-.52.48A3.74,3.74,0,0,0,52.45,71a4,4,0,0,0,4,4,3.95,3.95,0,0,0,4-4,3.85,3.85,0,0,0-1.16-2.79,3,3,0,0,0-.56-.48,4,4,0,0,0-4.54,0l.12.24-.12-.24Z"/><path class="cls-8" d="M44.2,67.69a2,2,0,0,0-.52.48A3.74,3.74,0,0,0,42.49,71a4,4,0,0,0,4,4,3.95,3.95,0,0,0,4-4,3.85,3.85,0,0,0-1.16-2.79,3,3,0,0,0-.56-.48,4,4,0,0,0-4.54,0l.12.24-.12-.24Z"/><path class="cls-8" d="M34.75,67.69a2,2,0,0,0-.52.48A3.74,3.74,0,0,0,33,71a4,4,0,0,0,4,4,3.95,3.95,0,0,0,4-4,3.85,3.85,0,0,0-1.16-2.79,3,3,0,0,0-.56-.48,4,4,0,0,0-4.54,0l.12.24-.12-.24Z"/><path class="cls-8" d="M24.67,67.69a2,2,0,0,0-.52.48A3.74,3.74,0,0,0,23,71a4,4,0,0,0,4,4,3.95,3.95,0,0,0,4-4,3.85,3.85,0,0,0-1.16-2.79,3,3,0,0,0-.56-.48,4,4,0,0,0-4.54,0l.12.24-.12-.24Z"/><path class="cls-8" d="M14.7,67.69a2,2,0,0,0-.52.48A3.74,3.74,0,0,0,13,71a4,4,0,0,0,4,4,3.95,3.95,0,0,0,4-4,3.85,3.85,0,0,0-1.16-2.79,3,3,0,0,0-.56-.48,4,4,0,0,0-4.54,0l.12.24-.12-.24Z"/><path class="cls-8" d="M5.26,67.69a2,2,0,0,0-.52.48A3.74,3.74,0,0,0,3.54,71a4,4,0,0,0,4,4,3.95,3.95,0,0,0,4-4,3.85,3.85,0,0,0-1.16-2.79,3,3,0,0,0-.56-.48,4,4,0,0,0-4.54,0l.12.24-.12-.24Z"/><path class="cls-3" d="M161.48,176.83a1.92,1.92,0,0,0-1.4-.56,1.91,1.91,0,0,0-2,2,1.92,1.92,0,0,0,.56,1.4,3.49,3.49,0,0,0,.4.32,2.06,2.06,0,0,0,2.07,0,2.58,2.58,0,0,0,.36-.32,1.81,1.81,0,0,0,.6-1.4,2,2,0,0,0-.6-1.44Z"/><path class="cls-3" d="M112.73,176.87a1.92,1.92,0,0,0-1.4-.56,1.91,1.91,0,0,0-2,2,1.92,1.92,0,0,0,.56,1.4,3.48,3.48,0,0,0,.4.32,2.06,2.06,0,0,0,2.07,0,2.58,2.58,0,0,0,.36-.32,1.81,1.81,0,0,0,.6-1.4,2,2,0,0,0-.6-1.44Z"/><path class="cls-3" d="M25.59,176.87a1.92,1.92,0,0,0-1.4-.56,1.91,1.91,0,0,0-2,2,1.92,1.92,0,0,0,.56,1.4,3.48,3.48,0,0,0,.4.32,2.06,2.06,0,0,0,2.07,0,2.58,2.58,0,0,0,.36-.32,1.81,1.81,0,0,0,.6-1.4,2,2,0,0,0-.6-1.44Z"/><path class="cls-3" d="M309.09,176.87a1.92,1.92,0,0,0-1.4-.56,1.91,1.91,0,0,0-2,2,1.92,1.92,0,0,0,.56,1.4,3.48,3.48,0,0,0,.4.32,2.06,2.06,0,0,0,2.07,0,2.58,2.58,0,0,0,.36-.32,1.81,1.81,0,0,0,.6-1.4,2,2,0,0,0-.6-1.44Z"/><path class="cls-3" d="M287.56,177.27a1.92,1.92,0,0,0-1.4-.56,1.91,1.91,0,0,0-2,2,1.92,1.92,0,0,0,.56,1.4,3.49,3.49,0,0,0,.4.32,2.06,2.06,0,0,0,2.07,0,2.58,2.58,0,0,0,.36-.32,1.81,1.81,0,0,0,.6-1.4,2,2,0,0,0-.6-1.44Z"/><path class="cls-3" d="M268,177.27a1.92,1.92,0,0,0-1.4-.56,1.91,1.91,0,0,0-2,2,1.92,1.92,0,0,0,.56,1.4,3.49,3.49,0,0,0,.4.32,2.06,2.06,0,0,0,2.07,0,2.58,2.58,0,0,0,.36-.32,1.81,1.81,0,0,0,.6-1.4,2,2,0,0,0-.6-1.44Z"/><path class="cls-3" d="M248.5,177.27a1.92,1.92,0,0,0-1.4-.56,1.91,1.91,0,0,0-2,2,1.92,1.92,0,0,0,.56,1.4,3.49,3.49,0,0,0,.4.32,2.06,2.06,0,0,0,2.07,0,2.58,2.58,0,0,0,.36-.32,1.81,1.81,0,0,0,.6-1.4,2,2,0,0,0-.6-1.44Z"/><path class="cls-3" d="M245.51,188.83a2,2,0,0,0,1.4,3.23h.2a2,2,0,0,0,2-2,1.92,1.92,0,0,0-.4-1.24l-.2-.2a1.92,1.92,0,0,0-1.4-.56,2.09,2.09,0,0,0-1.44.56.87.87,0,0,0-.16.2Z"/><path class="cls-4" d="M244.07,189.91a5.39,5.39,0,0,1-1.32-1,6.45,6.45,0,0,1-1-1.36l.2-.2a3.74,3.74,0,0,0,1.2-2.79,3.89,3.89,0,0,0-1.2-2.83l-.08-.08a5.3,5.3,0,0,1,.92-1.2,5.54,5.54,0,0,1,1.47-1.12m0,0,0,0a4.17,4.17,0,0,0,1.79,1.08m2.07,0a4.06,4.06,0,0,0,1.71-1m-4.35,9.45a4.23,4.23,0,0,0-1.24.84,1.06,1.06,0,0,0-.2.24m6-.08-.16-.16a4.06,4.06,0,0,0-1.2-.84m3.55-7.1a3.95,3.95,0,0,0,0,5.58l.08.08m0,0a6.54,6.54,0,0,1-1.12,1.47,8.66,8.66,0,0,1-1.16,1m-.2-10.44a6.46,6.46,0,0,1,1.36,1,6.55,6.55,0,0,1,1,1.32"/><polyline class="cls-5" points="242.92 199.83 246.9 192.06 249.66 199.67"/></g><g id="Text"><text class="cls-9" transform="translate(196.79 102.93)">F</text><text class="cls-9" transform="translate(204.12 106.93) scale(0.58)">tube</text><text class="cls-10" transform="translate(291.25 250.14)">microtubule</text><text class="cls-9" transform="translate(177.38 198.64)">arrival</text><text class="cls-11" transform="translate(391.61 130.63)">departure</text></g><g id="Arrows"><line class="cls-12" x1="190.18" y1="98.86" x2="150.32" y2="98.86"/><polygon points="143.26 98.86 153.21 94.8 150.84 98.86 153.21 102.93 143.26 98.86"/><line class="cls-12" x1="174.23" y1="186.56" x2="214.1" y2="186.56"/><polygon points="221.16 186.56 211.21 190.63 213.57 186.56 211.21 182.5 221.16 186.56"/><line class="cls-12" x1="381.52" y1="138.72" x2="389.49" y2="113.45"/><polygon points="391.62 106.72 392.5 117.43 389.33 113.95 384.75 114.98 391.62 106.72"/></g></svg>