<svg xmlns="http://www.w3.org/2000/svg" viewBox="0 0 446.46 179.18"><defs><style>.cls-1,.cls-11,.cls-2,.cls-3,.cls-5{fill:none;stroke-miterlimit:10;}.cls-1,.cls-2{stroke:#231f20;}.cls-2{stroke-dasharray:5.06 5.06;}.cls-3{stroke:#2e4e79;}.cls-11,.cls-3,.cls-5{stroke-width:2px;}.cls-4{fill:#2e4e79;}.cls-5{stroke:#bf3f42;}.cls-6{fill:#bf3f42;}.cls-7,.cls-9{font-size:12px;}.cls-10,.cls-13,.cls-7,.cls-9{fill:#231f20;}.cls-7{font-family:Helvetica, Helvetica;}.cls-8,.cls-9{font-family:Helvetica-Oblique, Helvetica;}.cls-10{font-size:13px;font-family:Symbol, Symbol;}.cls-11{stroke:#55a69f;}.cls-12{fill:#55a69f;}</style></defs><title>Twobikescolliding</title><g id="Graphics"><g id="Twobikescolliding"><line class="cls-1" x1="223.23" y1="141.38" x2="223.23" y2="138.88"/><line class="cls-2" x1="223.23" y1="133.82" x2="223.23" y2="4.68"/><line class="cls-1" x1="223.23" y1="2.15" x2="223.23" y2="-0.35"/><line class="cls-1" x1="152.36" y1="61.07" x2="154.86" y2="61.07"/><line class="cls-2" x1="159.93" y1="61.07" x2="289.06" y2="61.07"/><line class="cls-1" x1="291.59" y1="61.07" x2="294.09" y2="61.07"/><line class="cls-1" x1="161.86" y1="25.63" x2="164.02" y2="26.88"/><line class="cls-2" x1="168.41" y1="29.42" x2="280.24" y2="93.98"/><line class="cls-1" x1="282.44" y1="95.25" x2="284.6" y2="96.5"/><line class="cls-3" x1="223.23" y1="179.18" x2="223.23" y2="131.93"/><circle class="cls-4" cx="223.23" cy="155.56" r="4.72"/><line class="cls-3" x1="218.5" y1="141.38" x2="227.95" y2="141.38"/><rect class="cls-3" x="220.39" y="165" width="5.67" height="11.34"/><line class="cls-5" x1="154.1" y1="21.2" x2="195.01" y2="44.82"/><circle class="cls-6" cx="174.55" cy="33.01" r="4.72" transform="translate(58.69 167.67) rotate(-60)"/><line class="cls-5" x1="189.19" y1="36.01" x2="184.46" y2="44.19"/><rect class="cls-5" x="158.63" y="19.78" width="5.67" height="11.34" transform="translate(264.23 -101.65) rotate(120)"/><path class="cls-1" d="M217.09,57.52A7.08,7.08,0,0,1,223.23,54"/><path class="cls-1" d="M223.23,51.62A9.41,9.41,0,0,1,229.48,54"/></g></g><g id="Text"><g id="Twobikescolliding-2" data-name="Twobikescolliding"><text class="cls-7" transform="translate(229.01 94.18)">2<tspan class="cls-8" x="6.67" y="0">v</tspan></text><text class="cls-9" transform="translate(202.57 44)">v</text><text class="cls-9" transform="translate(259.37 28.84)">v</text><text class="cls-7" transform="translate(265.37 32.83) scale(0.58)">final</text><text class="cls-9" transform="translate(188.5 129.33)">x</text><text class="cls-9" transform="translate(155.61 95.32)">y</text><text class="cls-10" transform="translate(213.88 50.62)">f</text><text class="cls-10" transform="translate(225.59 49.5)">θ</text></g></g><g id="Arrows"><g id="Twobikescolliding-3" data-name="Twobikescolliding"><line class="cls-11" x1="174.63" y1="33.01" x2="201.25" y2="48.38"/><polygon class="cls-12" points="207.36 51.91 196.71 50.45 200.79 48.11 200.78 43.41 207.36 51.91"/><line class="cls-11" x1="223.23" y1="155.56" x2="223.23" y2="87.03"/><polygon class="cls-12" points="223.23 79.96 227.29 89.91 223.23 87.55 219.16 89.91 223.23 79.96"/><line class="cls-11" x1="223.23" y1="61.81" x2="255.13" y2="23.79"/><polygon class="cls-12" points="259.67 18.38 256.39 28.62 254.79 24.2 250.16 23.39 259.67 18.38"/><polyline class="cls-1" points="190.41 117.76 165.59 117.76 165.59 92.94"/><polygon class="cls-13" points="193.94 117.76 188.96 115.73 190.14 117.76 188.96 119.79 193.94 117.76"/><polygon class="cls-13" points="165.59 89.41 167.62 94.39 165.59 93.21 163.56 94.39 165.59 89.41"/></g></g></svg>