<?xml version="1.0" encoding="UTF-8"?>
<svg id="Layer_1" data-name="Layer 1" xmlns="http://www.w3.org/2000/svg" viewBox="0 0 432.28 162.99">
  <defs>
    <style>
      .cls-1 {
        stroke-dasharray: 0 0 5.06 5.06;
      }

      .cls-1, .cls-2, .cls-3, .cls-4, .cls-5, .cls-6, .cls-7 {
        fill: none;
        stroke-miterlimit: 10;
      }

      .cls-1, .cls-3, .cls-7 {
        stroke: #6d6e71;
      }

      .cls-2 {
        stroke: #55a69f;
        stroke-width: 1.73px;
      }

      .cls-8, .cls-9 {
        font-family: Helvetica-Oblique, Helvetica;
        font-style: oblique;
      }

      .cls-8, .cls-9, .cls-10, .cls-11 {
        font-size: 12px;
      }

      .cls-8, .cls-10, .cls-12 {
        fill: #fff;
      }

      .cls-9, .cls-11, .cls-13 {
        fill: #231f20;
      }

      .cls-3 {
        stroke-dasharray: 0 0 5.16 5.16;
      }

      .cls-4 {
        stroke-dasharray: 0 0 2 2;
      }

      .cls-4, .cls-5 {
        stroke: #231f20;
      }

      .cls-10, .cls-11 {
        font-family: Helvetica, Helvetica;
      }

      .cls-6 {
        stroke: #fff;
      }

      .cls-14 {
        fill: #55a69f;
      }

      .cls-14, .cls-15, .cls-13, .cls-16, .cls-12 {
        stroke-width: 0px;
      }

      .cls-15 {
        fill: #2e4e79;
      }

      .cls-16 {
        fill: #bf3f42;
      }
    </style>
  </defs>
  <g>
    <line class="cls-7" x1="311.81" y1="77.96" x2="314.31" y2="77.96"/>
    <line class="cls-3" x1="319.47" y1="77.96" x2="420.12" y2="77.96"/>
    <line class="cls-7" x1="422.7" y1="77.96" x2="425.2" y2="77.96"/>
  </g>
  <g>
    <line class="cls-7" x1="155.91" y1="77.96" x2="158.41" y2="77.96"/>
    <line class="cls-3" x1="163.57" y1="77.96" x2="264.21" y2="77.96"/>
    <line class="cls-7" x1="266.79" y1="77.96" x2="269.29" y2="77.96"/>
  </g>
  <g>
    <line class="cls-7" x1="318.39" y1="128.07" x2="320.16" y2="126.3"/>
    <line class="cls-1" x1="323.74" y1="122.72" x2="415.06" y2="31.4"/>
    <line class="cls-7" x1="416.85" y1="29.61" x2="418.61" y2="27.85"/>
  </g>
  <g>
    <line class="cls-7" x1="368.5" y1="158.27" x2="368.5" y2="155.77"/>
    <line class="cls-1" x1="368.5" y1="150.71" x2="368.5" y2="21.57"/>
    <line class="cls-7" x1="368.5" y1="19.04" x2="368.5" y2="16.54"/>
  </g>
  <circle class="cls-15" cx="346.92" cy="77.95" r="14.17"/>
  <g>
    <line class="cls-2" x1="346.92" y1="77.66" x2="296.34" y2="77.66"/>
    <polygon class="cls-14" points="290.22 77.66 298.84 74.14 296.79 77.66 298.84 81.18 290.22 77.66"/>
  </g>
  <circle class="cls-16" cx="392.2" cy="54.42" r="14.17"/>
  <g>
    <line class="cls-2" x1="427.96" y1="18.66" x2="392.2" y2="54.42"/>
    <polygon class="cls-14" points="432.28 14.33 423.7 17.94 427.64 18.98 428.68 22.91 432.28 14.33"/>
  </g>
  <text class="cls-9" transform="translate(304.87 67.93)"><tspan x="0" y="0">v</tspan></text>
  <text class="cls-11" transform="translate(310.87 71.93) scale(.58)"><tspan x="0" y="0">1,f</tspan></text>
  <text class="cls-9" transform="translate(417.91 40.04)"><tspan x="0" y="0">v</tspan></text>
  <text class="cls-11" transform="translate(423.91 44.04) scale(.58)"><tspan x="0" y="0">2,f</tspan></text>
  <g>
    <line class="cls-7" x1="162.49" y1="128.07" x2="164.26" y2="126.3"/>
    <line class="cls-1" x1="167.84" y1="122.72" x2="259.15" y2="31.4"/>
    <line class="cls-7" x1="260.94" y1="29.61" x2="262.71" y2="27.85"/>
  </g>
  <g>
    <line class="cls-7" x1="212.6" y1="158.27" x2="212.6" y2="155.77"/>
    <line class="cls-1" x1="212.6" y1="150.71" x2="212.6" y2="21.57"/>
    <line class="cls-7" x1="212.6" y1="19.04" x2="212.6" y2="16.54"/>
  </g>
  <circle class="cls-15" cx="212.6" cy="77.95" r="14.17"/>
  <circle class="cls-16" cx="232.64" cy="57.91" r="14.17"/>
  <g>
    <line class="cls-7" x1="6.58" y1="128.07" x2="8.35" y2="126.3"/>
    <line class="cls-1" x1="11.93" y1="122.72" x2="103.24" y2="31.4"/>
    <line class="cls-7" x1="105.04" y1="29.61" x2="106.8" y2="27.85"/>
  </g>
  <g>
    <line class="cls-7" x1="56.69" y1="158.27" x2="56.69" y2="155.77"/>
    <line class="cls-1" x1="56.69" y1="150.71" x2="56.69" y2="21.57"/>
    <line class="cls-7" x1="56.69" y1="19.04" x2="56.69" y2="16.54"/>
  </g>
  <circle class="cls-15" cx="56.69" cy="148.82" r="14.17"/>
  <g>
    <line class="cls-2" x1="56.69" y1="148.53" x2="56.69" y2="97.95"/>
    <polygon class="cls-14" points="56.69 91.83 60.21 100.45 56.69 98.41 53.17 100.45 56.69 91.83"/>
  </g>
  <circle class="cls-16" cx="120.47" cy="14.33" r="14.17"/>
  <g>
    <line class="cls-2" x1="120.47" y1="14.33" x2="84.71" y2="50.1"/>
    <polygon class="cls-14" points="80.39 54.42 83.99 45.84 85.03 49.77 88.97 50.82 80.39 54.42"/>
  </g>
  <g>
    <line class="cls-7" y1="77.96" x2="2.5" y2="77.96"/>
    <line class="cls-3" x1="7.66" y1="77.96" x2="108.31" y2="77.96"/>
    <line class="cls-7" x1="110.89" y1="77.96" x2="113.39" y2="77.96"/>
  </g>
  <text class="cls-9" transform="translate(62.28 121.27)"><tspan x="0" y="0">v</tspan></text>
  <text class="cls-11" transform="translate(68.28 125.27) scale(.58)"><tspan x="0" y="0">1,i</tspan></text>
  <text class="cls-9" transform="translate(88.66 59.9)"><tspan x="0" y="0">v</tspan></text>
  <text class="cls-11" transform="translate(94.66 63.89) scale(.58)"><tspan x="0" y="0">2,i</tspan></text>
  <g>
    <line class="cls-5" x1="250.97" y1="96.28" x2="250.26" y2="95.57"/>
    <line class="cls-4" x1="248.84" y1="94.15" x2="195.69" y2="41"/>
    <line class="cls-5" x1="194.98" y1="40.29" x2="194.28" y2="39.58"/>
  </g>
  <g>
    <line class="cls-6" x1="222.62" y1="67.93" x2="231.8" y2="58.75"/>
    <polygon class="cls-12" points="236.8 53.76 232.64 63.67 231.43 59.12 226.89 57.92 236.8 53.76"/>
  </g>
  <g>
    <line class="cls-5" x1="222.62" y1="67.93" x2="213.44" y2="58.75"/>
    <polygon class="cls-13" points="208.45 53.76 218.36 57.92 213.81 59.12 212.61 63.67 208.45 53.76"/>
  </g>
  <g>
    <text class="cls-11" transform="translate(205.1 43.74)"><tspan x="0" y="0">^</tspan></text>
    <text class="cls-9" transform="translate(205.77 49.41)"><tspan x="0" y="0">t</tspan></text>
  </g>
  <g>
    <text class="cls-8" transform="translate(236.58 65.57)"><tspan x="0" y="0">n</tspan></text>
    <text class="cls-10" transform="translate(237.14 59.9)"><tspan x="0" y="0">^</tspan></text>
  </g>
  <text class="cls-11" transform="translate(155.91 10.3)"><tspan x="0" y="0">(b)</tspan></text>
  <text class="cls-11" transform="translate(0 10.3)"><tspan x="0" y="0">(a)</tspan></text>
  <text class="cls-11" transform="translate(289.98 10.3)"><tspan x="0" y="0">(c)</tspan></text>
</svg>