<svg xmlns="http://www.w3.org/2000/svg" viewBox="0 0 446.46 144.78"><defs><style>.cls-1,.cls-2,.cls-8{fill:none;}.cls-1{stroke:#365a50;}.cls-1,.cls-2{stroke-linejoin:round;}.cls-1,.cls-2,.cls-4{stroke-width:2px;}.cls-2{stroke:#55a69f;}.cls-3{fill:#e5483f;}.cls-4{fill:#c89341;stroke:#6f4f2b;}.cls-4,.cls-8{stroke-miterlimit:10;}.cls-5,.cls-6{font-size:11.99px;}.cls-5,.cls-6,.cls-9{fill:#231f20;}.cls-5{font-family:Helvetica, Helvetica;}.cls-6,.cls-7{font-family:Helvetica-Oblique, Helvetica;}.cls-8{stroke:#231f20;}</style></defs><title>twospringsblock</title><g id="Graphics"><polyline class="cls-1" points="232.6 80.34 250.33 80.34 252.8 66.38 257.72 94.31 262.65 66.38 267.57 94.31 272.5 66.38 277.43 94.31 282.35 66.38 287.27 94.31 292.2 66.38 297.13 94.31 302.05 66.38 306.98 94.31 311.9 66.38 316.83 94.31 321.75 66.38 326.68 94.31 331.61 66.38 336.53 94.31 338.99 80.34 356.72 80.34"/><path class="cls-2" d="M214.88,80.34H197.15l-2.46,14-4.92-27.93-4.92,27.93-4.93-27.93L175,94.31l-4.93-27.93-4.92,27.93-4.93-27.93-4.92,27.93-2.46-14m-62.06,0h17.73l2.46-14,4.92,27.93,4.92-27.93,4.93,27.93,4.93-27.93,4.92,27.93,4.92-27.93,4.92,27.93,4.93-27.93,2.46,14"/><path class="cls-3" d="M232.6,80.34a8.86,8.86,0,1,1-8.86-8.86,8.86,8.86,0,0,1,8.86,8.86"/><rect class="cls-4" x="356.72" y="36.02" width="17.73" height="88.64"/><rect class="cls-4" x="73.03" y="36.02" width="17.73" height="88.64"/></g><g id="Text"><g id="twospringsblock"><text class="cls-5" transform="translate(231.42 135.97)">x</text><text class="cls-6" transform="translate(292.76 52.36)">k</text><text class="cls-5" transform="translate(298.76 56.35) scale(0.58)">2</text><text class="cls-6" transform="translate(149.9 52.36)">k</text><text class="cls-5" transform="translate(155.9 56.35) scale(0.58)">1</text><text class="cls-5" transform="translate(67.32 139.1)">x = -L</text><text class="cls-5" transform="translate(352.8 139.1)">x = L</text><text class="cls-5" transform="translate(217.07 9.94)">2<tspan class="cls-7" x="6.67" y="0">L</tspan></text></g></g><g id="Arrows"><line class="cls-8" x1="223.74" y1="106.94" x2="223.74" y2="142.39"/><line class="cls-8" x1="223.74" y1="124.66" x2="245.05" y2="124.66"/><polygon class="cls-9" points="248.58 124.66 243.6 126.7 244.78 124.66 243.6 122.63 248.58 124.66"/><line class="cls-8" x1="92.15" y1="17.02" x2="355.33" y2="17.02"/><rect class="cls-9" x="91.65" y="13.77" width="1" height="6.5"/><rect class="cls-9" x="354.83" y="13.77" width="1" height="6.5"/></g></svg>