<svg xmlns="http://www.w3.org/2000/svg" viewBox="0 0 446.46 167.52"><defs><style>.cls-1{fill:#c89341;stroke:#6f4f2b;stroke-width:2px;}.cls-1,.cls-3{stroke-miterlimit:10;}.cls-2{font-size:12px;font-family:Helvetica, Helvetica;}.cls-2,.cls-4{fill:#231f20;}.cls-3{fill:none;stroke:#231f20;}</style></defs><title>wagonwheelrotations</title><g id="Graphics"><path class="cls-1" d="M144,16.75a61.49,61.49,0,1,0,61.49,61.5A61.49,61.49,0,0,0,144,16.75Zm0,115.76a54.26,54.26,0,1,1,54.26-54.26A54.26,54.26,0,0,1,144,132.51Z"/><rect class="cls-1" x="89.75" y="74.63" width="108.52" height="7.23"/><rect class="cls-1" x="140.39" y="23.99" width="7.23" height="108.52"/><rect class="cls-1" x="140.39" y="23.99" width="7.23" height="108.52" transform="translate(-13.15 124.75) rotate(-45)"/><rect class="cls-1" x="89.75" y="74.63" width="108.52" height="7.23" transform="translate(-13.15 124.75) rotate(-45)"/><circle class="cls-1" cx="144.01" cy="78.25" r="10.85"/><circle class="cls-1" cx="144.01" cy="78.25" r="3.62"/><path class="cls-1" d="M317.64,24.16a61.49,61.49,0,1,0,61.49,61.49A61.49,61.49,0,0,0,317.64,24.16Zm0,115.75A54.26,54.26,0,1,1,371.9,85.65,54.26,54.26,0,0,1,317.64,139.91Z"/><rect class="cls-1" x="263.38" y="82.04" width="108.52" height="7.23"/><rect class="cls-1" x="314.02" y="31.39" width="7.23" height="108.52"/><rect class="cls-1" x="314.02" y="31.39" width="7.23" height="108.52" transform="translate(32.47 249.69) rotate(-45)"/><rect class="cls-1" x="263.38" y="82.04" width="108.52" height="7.23" transform="translate(32.47 249.69) rotate(-45)"/><circle class="cls-1" cx="317.64" cy="85.65" r="10.85"/><circle class="cls-1" cx="317.64" cy="85.65" r="3.62"/></g><g id="Text"><text class="cls-2" transform="translate(136.41 165.59)">2R</text><text class="cls-2" transform="translate(67.32 13.84)">(a)</text><text class="cls-2" transform="translate(240.95 13.84)">(b)</text></g><g id="Arrows"><line class="cls-3" x1="201.89" y1="108.99" x2="201.89" y2="148.78"/><line class="cls-3" x1="89.66" y1="150.59" x2="198.36" y2="150.59"/><polygon class="cls-4" points="86.13 150.59 91.11 152.63 89.93 150.59 91.11 148.56 86.13 150.59"/><polygon class="cls-4" points="201.89 150.59 196.91 152.63 198.09 150.59 196.91 148.56 201.89 150.59"/><line class="cls-3" x1="86.13" y1="108.99" x2="86.13" y2="148.78"/><line class="cls-3" x1="317.64" y1="6.07" x2="317.64" y2="158"/><path class="cls-3" d="M326.38,13.73c-1.8,2.33-5.44,3.92-9.65,3.92h1.81c-6,0-10.85-3.24-10.85-7.23"/><polygon class="cls-4" points="327.59 10.41 323.82 14.25 326.15 13.93 327.59 15.79 327.59 10.41"/></g></svg>