<svg xmlns="http://www.w3.org/2000/svg" viewBox="0 0 446.46 333.86"><defs><style>.cls-1,.cls-10,.cls-11,.cls-2,.cls-3,.cls-4,.cls-8{fill:none;}.cls-1,.cls-2,.cls-5{stroke:#6f4f2b;}.cls-1,.cls-10,.cls-11,.cls-2,.cls-3,.cls-4,.cls-5,.cls-8{stroke-miterlimit:10;}.cls-1,.cls-5{stroke-width:1.71px;}.cls-2,.cls-4,.cls-8{stroke-width:2px;}.cls-3,.cls-4{stroke:#55a69f;}.cls-3{stroke-width:3px;}.cls-5{fill:#c89341;}.cls-6,.cls-7{font-size:12px;fill:#231f20;}.cls-6{font-family:Helvetica-Oblique, Helvetica;}.cls-7{font-family:Helvetica, Helvetica;}.cls-8{stroke:#bf3f42;stroke-linecap:square;}.cls-9{fill:#bf3f42;}.cls-10,.cls-11{stroke:#231f20;}.cls-10{stroke-width:1.04px;}</style></defs><title>yoyo</title><g id="Graphics"><line class="cls-1" x1="271.83" y1="293.14" x2="271.83" y2="167.16"/><line class="cls-2" x1="224.59" y1="174.53" x2="224.59" y2="1.3"/><circle class="cls-3" cx="212.78" cy="171.1" r="59.06"/><circle class="cls-4" cx="212.78" cy="171.1" r="11.81"/><rect class="cls-5" x="252.15" y="293.14" width="39.37" height="39.37"/></g><g id="Text"><text class="cls-6" transform="translate(191.9 204.89)">R</text><text class="cls-6" transform="translate(191.9 174.53)">r</text><text class="cls-6" transform="translate(229.98 97.87)">T</text><text class="cls-7" transform="translate(237.31 101.87) scale(0.58)">1</text><text class="cls-6" transform="translate(276.17 218.74)">T</text><text class="cls-7" transform="translate(283.5 222.73) scale(0.58)">2</text><text class="cls-6" transform="translate(266.84 315.74)">m</text></g><g id="Arrows"><line class="cls-8" x1="224.59" y1="171.1" x2="224.59" y2="71.17"/><polygon class="cls-9" points="224.59 64.11 228.66 74.06 224.59 71.69 220.53 74.06 224.59 64.11"/><line class="cls-8" x1="271.83" y1="167.18" x2="271.83" y2="227.74"/><polygon class="cls-9" points="271.83 234.8 267.77 224.85 271.83 227.21 275.9 224.85 271.83 234.8"/><line class="cls-10" x1="212.78" y1="171.1" x2="171.02" y2="212.86"/><line class="cls-11" x1="212.78" y1="171.1" x2="200.97" y2="171.1"/></g></svg>