<?xml version="1.0" encoding="UTF-8"?>
<svg id="Layer_1" data-name="Layer 1" xmlns="http://www.w3.org/2000/svg" viewBox="0 0 354.5 392.69">
  <defs>
    <style>
      .cls-1 {
        letter-spacing: -.01em;
      }

      .cls-2 {
        letter-spacing: 0em;
      }

      .cls-3 {
        letter-spacing: 0em;
      }

      .cls-4 {
        stroke: #006838;
      }

      .cls-4, .cls-5, .cls-6 {
        stroke-width: 2px;
      }

      .cls-4, .cls-5, .cls-6, .cls-7 {
        stroke-linecap: square;
      }

      .cls-4, .cls-5, .cls-6, .cls-7, .cls-8, .cls-9 {
        fill: none;
        stroke-miterlimit: 3.25;
      }

      .cls-5 {
        stroke: #5e82b6;
      }

      .cls-6 {
        stroke: #e19c26;
      }

      .cls-10 {
        letter-spacing: 0em;
      }

      .cls-11 {
        fill: #231f20;
        font-family: ArialMT, Arial;
      }

      .cls-11, .cls-12 {
        font-size: 12px;
      }

      .cls-7, .cls-8 {
        stroke: #231f20;
      }

      .cls-13 {
        letter-spacing: 0em;
      }

      .cls-14 {
        letter-spacing: .03em;
      }

      .cls-12 {
        font-family: MyriadPro-Regular, 'Myriad Pro';
      }

      .cls-12, .cls-15 {
        fill: #be1e2d;
      }

      .cls-16 {
        letter-spacing: 0em;
      }

      .cls-9 {
        stroke: #be1e2d;
      }

      .cls-17 {
        letter-spacing: .01em;
      }

      .cls-18 {
        letter-spacing: .01em;
      }

      .cls-19 {
        letter-spacing: -.01em;
      }

      .cls-15 {
        stroke-width: 0px;
      }
    </style>
  </defs>
  <polyline class="cls-5" points="14 17.68 14.1 17.71 14.2 17.77 14.31 17.89 14.41 18.04 14.51 18.24 14.61 18.49 14.71 18.78 14.82 19.11 14.92 19.49 15.02 19.91 15.12 20.37 15.22 20.88 15.32 21.43 15.43 22.02 15.63 23.32 15.73 24.03 15.84 24.79 16.04 26.41 16.14 27.27 16.25 28.18 16.45 30.09 16.56 31.1 16.66 32.14 16.86 34.33 17.27 39.06 17.37 40.31 17.47 41.59 17.68 44.22 18.09 49.74 18.91 61.58 20.54 86.16 20.65 87.77 20.77 89.36 20.99 92.5 21.43 98.5 21.54 99.94 21.65 101.35 21.88 104.08 22.32 109.14 22.43 110.32 22.54 111.46 22.76 113.62 22.87 114.63 22.98 115.6 23.2 117.43 23.32 118.27 23.43 119.06 23.54 119.81 23.65 120.51 23.76 121.16 23.87 121.77 23.98 122.32 24.09 122.83 24.2 123.28 24.31 123.68 24.43 124.03 24.54 124.34 24.65 124.58 24.76 124.78 24.87 124.92 24.98 125.01 25.09 125.05 25.2 125.03 25.31 124.97 25.42 124.85 25.54 124.68 25.64 124.45 25.75 124.17 25.87 123.84 25.98 123.46 26.09 123.03 26.2 122.55 26.31 122.02 26.42 121.43 26.53 120.8 26.75 119.39 26.86 118.62 26.98 117.8 27.2 116.02 27.31 115.06 27.42 114.06 27.64 111.94 27.75 110.89 27.85 109.82 28.06 107.56 28.47 102.68 29.3 91.71 29.4 90.25 29.5 88.77 29.71 85.77 30.13 79.64 30.95 67.1 31.06 65.54 31.16 63.98 31.37 60.89 31.79 54.81 31.89 53.32 31.99 51.85 32.2 48.96 32.61 43.42 32.72 42.09 32.82 40.78 33.03 38.25 33.13 37.03 33.23 35.84 33.44 33.55 33.54 32.45 33.65 31.38 33.86 29.35 33.96 28.4 34.06 27.47 34.27 25.74 34.37 24.95 34.47 24.19 34.57 23.48 34.68 22.8 34.78 22.17 34.88 21.57 35.08 20.5 35.18 20.03 35.29 19.6 35.39 19.21 35.49 18.87 35.59 18.57 35.69 18.31 35.79 18.1 35.89 17.93 36 17.8 36.1 17.72 36.2 17.69 36.3 17.69 36.4 17.74 36.5 17.84 36.61 17.98 36.71 18.16 36.81 18.39 36.91 18.66 37.01 18.97 37.11 19.33 37.21 19.73 37.31 20.17 37.41 20.66 37.52 21.18 37.62 21.75 37.72 22.35 37.92 23.69 38.02 24.42 38.13 25.19 38.33 26.83 38.43 27.71 38.53 28.62 38.73 30.56 39.14 34.82 39.24 35.96 39.34 37.13 39.55 39.56 39.95 44.72 40.77 56.02 40.88 57.63 40.99 59.25 41.21 62.53 41.65 69.17 42.53 82.45 42.64 84.08 42.75 85.7 42.97 88.89 43.41 95.05 43.52 96.54 43.63 98 43.85 100.85 44.29 106.19 44.4 107.44 44.51 108.67 44.73 111 44.84 112.1 44.95 113.17 45.17 115.18 45.28 116.13 45.39 117.03 45.5 117.89 45.61 118.69 45.72 119.46 45.83 120.18 46.05 121.48 46.16 122.05 46.27 122.58 46.38 123.05 46.49 123.48 46.6 123.85 46.72 124.18 46.82 124.45 46.93 124.68 47.04 124.85 47.15 124.97 47.27 125.03 47.38 125.05 47.48 125.02 47.59 124.93 47.7 124.78 47.81 124.59 47.92 124.37 48.02 124.1 48.12 123.78 48.23 123.42 48.33 123.02 48.43 122.57 48.54 122.08 48.64 121.55 48.74 120.98 48.84 120.36 49.05 119 49.15 118.26 49.25 117.48 49.46 115.81 49.56 114.92 49.66 113.99 49.87 112.02 50.28 107.68 50.38 106.52 50.49 105.33 50.69 102.85 51.1 97.6 51.21 96.23 51.31 94.84 51.52 92 51.93 86.12 52.75 73.84 52.85 72.28 52.95 70.72 53.16 67.6 53.57 61.42 54.39 49.54 54.5 48.01 54.61 46.5 54.84 43.55 55.29 38.01 55.39 36.7 55.51 35.43 55.73 32.99 56.18 28.58 56.29 27.59 56.4 26.63 56.62 24.85 56.73 24.03 56.84 23.26 57.07 21.85 57.18 21.23 57.29 20.65 57.4 20.12 57.51 19.64 57.62 19.21 57.73 18.84 57.84 18.52 57.96 18.25 58.07 18.03 58.18 17.86 58.29 17.75 58.4 17.69 58.51 17.69 58.63 17.73 58.73 17.84 58.85 17.99 58.96 18.19 59.07 18.46 59.18 18.77 59.29 19.13 59.41 19.55 59.52 20.01 59.63 20.53 59.74 21.1 59.85 21.71 59.96 22.38 60.18 23.86 60.3 24.67 60.41 25.53 60.63 27.37 60.74 28.37 60.85 29.4 61.07 31.59 61.52 36.43 61.63 37.7 61.74 39.01 61.96 41.72 62.39 47.46 63.27 59.95 63.38 61.58 63.49 63.21 63.71 66.5 64.14 73.13 65.02 86.21 65.13 87.79 65.24 89.37 65.46 92.45 65.89 98.38 66 99.8 66.11 101.19 66.33 103.89 66.77 108.91 66.88 110.08 66.99 111.21 67.21 113.35 67.32 114.37 67.43 115.34 67.64 117.16 67.75 118 67.86 118.8 67.97 119.55 68.08 120.26 68.19 120.93 68.3 121.54 68.41 122.1 68.52 122.62 68.62 123.06 68.72 123.46 68.82 123.81 68.93 124.12 69.03 124.38 69.13 124.6 69.23 124.78 69.34 124.91 69.44 125 69.54 125.05 69.64 125.05 69.74 125 69.84 124.91 69.95 124.77 70.05 124.6 70.15 124.37 70.25 124.1 70.36 123.79 70.46 123.44 70.56 123.04 70.66 122.6 70.76 122.12 70.97 121.02 71.07 120.42 71.17 119.77 71.38 118.35 71.48 117.58 71.58 116.77 71.79 115.05 71.89 114.13 71.99 113.18 72.19 111.17 72.6 106.76 72.7 105.58 72.81 104.38 73.01 101.88 73.41 96.6 73.52 95.22 73.62 93.83 73.82 90.98 74.23 85.1 75.05 72.88 75.16 71.2 75.27 69.52 75.49 66.18 75.93 59.55 76.04 57.93 76.15 56.3 76.38 53.12 76.82 46.96 76.93 45.48 77.04 44.02 77.26 41.19 77.37 39.82 77.48 38.48 77.7 35.89 77.81 34.65 77.92 33.44 78.14 31.14 78.25 30.05 78.37 29 78.59 27.03 78.7 26.1 78.81 25.22 78.92 24.39 79.03 23.6 79.14 22.85 79.25 22.16 79.47 20.92 79.58 20.37 79.69 19.87 79.81 19.42 79.91 19.02 80.02 18.68 80.14 18.38 80.25 18.14 80.36 17.94 80.47 17.8 80.58 17.72 80.69 17.68 80.8 17.7 80.91 17.77 81.02 17.89 81.13 18.07 81.24 18.3 81.35 18.57 81.46 18.91 81.57 19.28 81.68 19.72 81.79 20.2 81.91 20.73 82.02 21.32 82.13 21.95 82.23 22.58 82.33 23.25 82.54 24.73 82.64 25.52 82.75 26.35 82.95 28.14 83.06 29.09 83.16 30.07 83.37 32.14 83.78 36.67 83.88 37.88 83.98 39.12 84.19 41.68 84.61 47.09 85.43 58.82 85.54 60.35 85.64 61.89 85.84 64.98 86.26 71.23 87.08 83.66 87.19 85.18 87.29 86.68 87.5 89.66 87.91 95.41 88.01 96.8 88.12 98.17 88.32 100.84 88.73 105.86 88.84 107.02 88.94 108.16 89.14 110.33 89.24 111.37 89.34 112.38 89.54 114.29 89.64 115.19 89.75 116.07 89.95 117.69 90.05 118.45 90.15 119.17 90.36 120.48 90.46 121.09 90.56 121.64 90.66 122.16 90.76 122.64 90.86 123.07 90.96 123.46 91.06 123.81 91.16 124.12 91.27 124.38 91.37 124.6 91.47 124.78 91.57 124.91 91.67 125 91.77 125.05 91.87 125.05 91.97 125 92.07 124.92 92.18 124.78 92.28 124.61 92.38 124.39 92.48 124.13 92.58 123.83 92.68 123.48 92.79 123.09 92.89 122.66 92.99 122.18 93.09 121.67 93.19 121.11 93.29 120.52 93.39 119.87 93.59 118.48 93.7 117.73 93.8 116.93 94 115.24 94.1 114.34 94.2 113.39 94.4 111.42 94.5 110.38 94.61 109.31 94.81 107.07 95.22 102.27 95.32 100.89 95.43 99.48 95.65 96.59 96.09 90.53 96.97 77.62 97.19 74.3 97.41 70.97 97.85 64.33 98.73 51.46 98.84 49.93 98.95 48.41 99.17 45.44 99.61 39.82 99.72 38.49 99.83 37.19 100.05 34.69 100.48 30.12 100.59 29.07 100.7 28.07 100.93 26.18 101.04 25.3 101.14 24.47 101.36 22.94 101.47 22.24 101.58 21.59 101.7 21 101.81 20.44 101.91 19.94 102.02 19.49 102.13 19.09 102.24 18.73 102.34 18.45 102.45 18.21 102.55 18.02 102.65 17.86 102.75 17.76 102.86 17.7 102.96 17.68 103.06 17.71 103.16 17.79 103.27 17.91 103.37 18.07 103.47 18.28 103.57 18.54 103.68 18.84 103.78 19.18 103.88 19.56 103.98 19.99 104.09 20.46 104.19 20.98 104.29 21.54 104.39 22.14 104.5 22.78 104.7 24.18 104.81 24.94 104.91 25.74 105.11 27.46 105.52 31.32 105.63 32.37 105.73 33.45 105.93 35.72 106.34 40.6 107.16 51.52 107.27 52.97 107.37 54.44 107.57 57.41 107.98 63.5 108.8 75.9 108.91 77.58 109.02 79.25 109.25 82.57 109.69 89.05 109.8 90.63 109.91 92.19 110.13 95.26 110.58 101.09 110.69 102.48 110.8 103.84 111.02 106.46 111.13 107.71 111.25 108.94 111.47 111.27 111.58 112.37 111.69 113.44 111.91 115.45 112.02 116.39 112.13 117.28 112.36 118.94 112.47 119.7 112.58 120.41 112.69 121.07 112.8 121.68 112.91 122.24 113.02 122.76 113.13 123.22 113.25 123.63 113.36 123.99 113.47 124.3 113.58 124.55 113.69 124.75 113.8 124.91 113.91 125 114.02 125.05 114.13 125.04 114.25 124.98 114.36 124.87 114.47 124.7 114.58 124.48 114.69 124.21 114.8 123.89 114.91 123.51 115.02 123.09 115.13 122.6 115.25 122.08 115.36 121.5 115.47 120.87 115.58 120.2 115.69 119.47 115.91 117.88 116.02 117.03 116.13 116.14 116.35 114.24 116.46 113.22 116.57 112.16 116.79 109.94 116.89 108.77 117 107.57 117.22 105.05 117.66 99.66 117.77 98.24 117.88 96.8 118.09 93.84 118.53 87.67 119.4 74.7 119.51 73.05 119.62 71.39 119.84 68.09 120.27 61.52 120.38 59.9 120.49 58.29 120.71 55.11 121.14 48.94 121.25 47.45 121.36 45.98 121.58 43.11 122.02 37.72 122.13 36.44 122.24 35.2 122.45 32.83 122.89 28.53 122.99 27.61 123.09 26.74 123.3 25.1 123.4 24.34 123.5 23.61 123.7 22.28 123.81 21.68 123.91 21.11 124.01 20.59 124.11 20.11 124.21 19.68 124.32 19.28 124.42 18.93 124.52 18.62 124.62 18.35 124.72 18.13 124.82 17.96 124.93 17.82 125.03 17.73 125.13 17.69 125.23 17.69 125.33 17.73 125.43 17.82 125.54 17.95 125.64 18.13 125.74 18.35 125.84 18.62 125.94 18.92 126.04 19.27 126.14 19.67 126.25 20.1 126.35 20.59 126.45 21.1 126.55 21.67 126.65 22.27 126.75 22.92 126.96 24.32 127.06 25.09 127.16 25.89 127.37 27.6 127.77 31.46 127.88 32.51 127.98 33.59 128.18 35.84 128.59 40.69 129.4 51.54 129.51 53.1 129.62 54.68 129.84 57.89 130.28 64.46 131.16 77.81 131.27 79.47 131.39 81.12 131.61 84.39 132.05 90.77 132.16 92.32 132.27 93.85 132.49 96.84 132.93 102.52 133.04 103.87 133.15 105.18 133.37 107.71 133.48 108.93 133.59 110.1 133.81 112.34 133.92 113.41 134.03 114.43 134.25 116.34 134.36 117.23 134.47 118.08 134.7 119.64 134.81 120.34 134.91 121.01 135.03 121.62 135.14 122.18 135.25 122.7 135.36 123.16 135.47 123.58 135.58 123.94 135.69 124.25 135.8 124.52 135.91 124.73 136.02 124.88 136.13 124.99 136.24 125.04 136.35 125.05 136.46 125 136.56 124.9 136.66 124.76 136.77 124.58 136.87 124.35 136.98 124.07 137.08 123.75 137.18 123.39 137.29 122.98 137.39 122.53 137.49 122.04 137.59 121.5 137.7 120.92 137.8 120.3 137.9 119.64 138.11 118.19 138.21 117.41 138.31 116.58 138.52 114.82 138.62 113.89 138.73 112.92 138.93 110.87 139.04 109.8 139.14 108.69 139.34 106.38 139.75 101.42 139.86 100.11 139.96 98.78 140.17 96.05 140.58 90.35 141.4 78.25 141.5 76.7 141.61 75.15 141.81 72.03 142.23 65.79 143.05 53.62 143.16 52.03 143.27 50.47 143.5 47.39 143.94 41.54 144.06 40.15 144.16 38.79 144.39 36.17 144.84 31.35 144.95 30.24 145.06 29.17 145.28 27.17 145.39 26.23 145.5 25.34 145.73 23.69 145.84 22.93 145.95 22.23 146.06 21.57 146.17 20.96 146.29 20.41 146.39 19.9 146.51 19.44 146.62 19.04 146.73 18.69 146.84 18.39 146.95 18.14 147.07 17.94 147.18 17.8 147.29 17.72 147.4 17.68 147.51 17.7 147.63 17.78 147.73 17.9 147.85 18.08 147.96 18.31 148.07 18.6 148.18 18.93 148.29 19.32 148.41 19.76 148.52 20.25 148.63 20.8 148.74 21.39 148.85 22.03 148.96 22.73 149.07 23.46 149.3 25.09 149.41 25.97 149.52 26.89 149.74 28.87 150.19 33.34 150.3 34.53 150.41 35.75 150.63 38.31 151.07 43.78 151.94 55.91 152.05 57.51 152.16 59.12 152.38 62.38 152.82 68.98 153.7 82.2 153.81 83.82 153.91 85.43 154.13 88.61 154.57 94.76 154.68 96.24 154.79 97.7 155.01 100.54 155.45 105.89 155.56 107.14 155.67 108.36 155.89 110.7 156 111.81 156.11 112.88 156.32 114.91 156.43 115.86 156.54 116.77 156.65 117.63 156.76 118.45 156.87 119.23 156.98 119.96 157.2 121.28 157.3 121.83 157.41 122.34 157.51 122.8 157.61 123.22 157.71 123.6 157.81 123.94 157.91 124.23 158.02 124.48 158.12 124.68 158.22 124.84 158.32 124.96 158.43 125.03 158.53 125.05 158.63 125.03 158.73 124.97 158.84 124.86 158.94 124.7 159.04 124.51 159.14 124.27 159.24 123.98 159.35 123.65 159.45 123.27 159.55 122.85 159.65 122.4 159.75 121.89 159.86 121.35 159.96 120.76 160.06 120.14 160.16 119.47 160.27 118.76 160.47 117.23 160.57 116.4 160.68 115.54 160.88 113.7 161.29 109.62 161.39 108.51 161.49 107.38 161.7 105.02 162.11 99.98 162.21 98.65 162.31 97.31 162.51 94.55 162.92 88.82 163.74 76.73 163.85 75.06 163.96 73.38 164.18 70.02 164.63 63.32 164.74 61.67 164.85 60.02 165.07 56.76 165.51 50.42 165.63 48.89 165.73 47.37 165.96 44.41 166.4 38.82 166.51 37.5 166.62 36.22 166.84 33.75 167.29 29.26 167.39 28.24 167.51 27.26 167.73 25.43 167.84 24.58 167.95 23.78 168.17 22.32 168.28 21.66 168.39 21.05 168.5 20.49 168.61 19.98 168.73 19.52 168.84 19.11 168.95 18.75 169.06 18.44 169.17 18.19 169.28 17.98 169.39 17.83 169.5 17.73 169.61 17.69 169.72 17.69 169.83 17.75 169.95 17.86 170.06 18.03 170.16 18.25 170.28 18.52 170.39 18.84 170.5 19.21 170.61 19.63 170.72 20.1 170.83 20.62 170.93 21.16 171.04 21.74 171.25 23.02 171.35 23.72 171.45 24.46 171.66 26.07 171.76 26.93 171.86 27.83 172.07 29.74 172.48 33.98 172.59 35.12 172.69 36.29 172.9 38.73 173.31 43.92 174.14 55.35 174.24 56.86 174.35 58.38 174.56 61.44 174.97 67.66 175.8 80.18 175.9 81.72 176 83.25 176.21 86.29 176.63 92.21 177.45 103.1 177.55 104.33 177.65 105.53 177.86 107.84 177.96 108.96 178.06 110.04 178.26 112.11 178.36 113.09 178.47 114.05 178.67 115.84 178.77 116.68 178.87 117.49 179.07 118.99 179.18 119.68 179.28 120.33 179.38 120.94 179.48 121.51 179.58 122.04 179.68 122.53 179.78 122.97 179.88 123.37 179.98 123.73 180.09 124.05 180.19 124.32 180.29 124.55 180.39 124.74 180.49 124.89 180.59 124.98 180.7 125.04 180.8 125.05 180.9 125.02 181 124.94 181.1 124.82 181.2 124.65 181.31 124.44 181.41 124.19 181.51 123.89 181.61 123.56 181.71 123.18 181.81 122.75 181.91 122.28 182.02 121.78 182.12 121.23 182.32 120 182.42 119.33 182.52 118.62 182.72 117.09 182.82 116.26 182.93 115.4 183.13 113.57 183.23 112.6 183.33 111.6 183.54 109.5 183.94 104.93 184.05 103.6 184.16 102.26 184.38 99.47 184.82 93.58 185.7 80.87 185.81 79.22 185.92 77.57 186.14 74.24 186.58 67.57 187.46 54.51 187.57 52.93 187.68 51.37 187.9 48.32 188.34 42.48 188.45 41.09 188.56 39.73 188.78 37.09 189.22 32.23 189.33 31.11 189.44 30.02 189.66 27.98 189.77 27.02 189.88 26.1 190.1 24.39 190.21 23.6 190.32 22.87 190.43 22.18 190.54 21.53 190.65 20.93 190.76 20.39 190.87 19.89 190.98 19.44 191.09 19.07 191.19 18.74 191.29 18.45 191.39 18.21 191.5 18.02 191.6 17.87 191.7 17.76 191.81 17.7 191.91 17.68 192.01 17.71 192.11 17.79 192.22 17.91 192.32 18.07 192.42 18.28 192.52 18.54 192.63 18.84 192.73 19.18 192.83 19.57 192.93 20 193.04 20.47 193.14 20.99 193.24 21.55 193.45 22.79 193.55 23.47 193.65 24.19 193.86 25.76 193.96 26.6 194.06 27.48 194.27 29.35 194.37 30.33 194.47 31.35 194.68 33.5 195.09 38.16 195.19 39.39 195.29 40.66 195.5 43.26 195.91 48.75 196.01 50.17 196.12 51.61 196.32 54.53 196.73 60.55 197.55 72.94 197.66 74.62 197.77 76.3 198 79.65 198.44 86.24 198.56 87.85 198.66 89.45 198.89 92.59 199.33 98.61 199.45 100.05 199.56 101.46 199.78 104.2 199.89 105.52 200 106.8 200.22 109.27 200.34 110.44 200.45 111.58 200.67 113.73 200.78 114.75 200.89 115.72 201.11 117.53 201.22 118.37 201.34 119.17 201.45 119.91 201.56 120.61 201.67 121.26 201.78 121.85 201.89 122.4 202 122.9 202.11 123.35 202.23 123.75 202.34 124.09 202.45 124.38 202.56 124.62 202.67 124.81 202.78 124.94 202.89 125.02 203 125.05 203.12 125.03 203.23 124.95 203.34 124.82 203.45 124.63 203.56 124.4 203.67 124.11 203.79 123.77 203.89 123.37 204.01 122.93 204.12 122.44 204.23 121.89 204.34 121.3 204.45 120.65 204.68 119.21 204.78 118.44 204.89 117.62 205.11 115.85 205.22 114.91 205.33 113.91 205.55 111.81 205.66 110.71 205.77 109.56 205.98 107.16 206.42 101.96 206.53 100.58 206.64 99.18 206.86 96.29 207.3 90.25 208.17 77.39 208.28 75.74 208.39 74.09 208.61 70.78 209.04 64.17 209.15 62.53 209.26 60.9 209.48 57.67 209.92 51.39 210.03 49.85 210.14 48.35 210.36 45.4 210.79 39.81 210.9 38.49 211.01 37.19 211.23 34.7 211.66 30.15 211.77 29.18 211.87 28.24 212.07 26.47 212.18 25.64 212.28 24.85 212.48 23.39 212.58 22.71 212.68 22.08 212.79 21.49 212.89 20.94 212.99 20.43 213.09 19.96 213.2 19.54 213.3 19.16 213.4 18.82 213.5 18.53 213.6 18.27 213.7 18.07 213.81 17.91 213.91 17.79 214.01 17.71 214.11 17.68 214.21 17.7 214.31 17.76 214.42 17.86 214.52 18.01 214.62 18.2 214.72 18.44 214.82 18.72 214.93 19.05 215.03 19.41 215.13 19.82 215.23 20.28 215.33 20.77 215.43 21.31 215.54 21.89 215.74 23.17 215.84 23.87 215.95 24.61 216.15 26.21 216.25 27.06 216.35 27.95 216.56 29.84 216.66 30.84 216.76 31.87 216.97 34.02 217.37 38.7 217.47 39.94 217.57 41.21 217.78 43.82 218.19 49.29 218.3 50.83 218.41 52.39 218.63 55.56 219.07 62.07 219.95 75.43 220.07 77.1 220.18 78.76 220.39 82.07 220.84 88.53 221.72 100.58 221.83 101.97 221.94 103.33 222.16 105.96 222.27 107.22 222.39 108.45 222.61 110.8 222.72 111.92 222.83 113 223.05 115.03 223.16 115.99 223.27 116.9 223.49 118.58 223.6 119.36 223.71 120.09 223.82 120.77 223.93 121.4 224.04 121.98 224.15 122.52 224.26 123 224.38 123.43 224.48 123.82 224.59 124.15 224.71 124.43 224.82 124.66 224.93 124.83 225.04 124.96 225.15 125.03 225.26 125.05 225.36 125.02 225.47 124.95 225.57 124.83 225.67 124.66 225.77 124.45 225.88 124.2 225.98 123.9 226.08 123.55 226.19 123.16 226.29 122.73 226.39 122.25 226.5 121.73 226.6 121.17 226.7 120.57 226.91 119.23 227.01 118.5 227.11 117.73 227.32 116.08 227.42 115.19 227.53 114.27 227.73 112.32 227.84 111.29 227.94 110.23 228.14 108.01 228.56 103.19 228.66 101.92 228.77 100.62 228.97 97.95 229.38 92.34 230.21 80.36 231.86 55.6 231.96 54.14 232.06 52.7 232.26 49.85 232.67 44.39 232.77 43.07 232.87 41.78 233.07 39.27 233.48 34.57 233.58 33.47 233.68 32.4 233.88 30.35 233.98 29.38 234.08 28.44 234.29 26.67 234.39 25.84 234.49 25.05 234.69 23.57 234.79 22.89 234.89 22.25 235.09 21.1 235.2 20.58 235.3 20.1 235.4 19.67 235.5 19.28 235.6 18.93 235.7 18.62 235.8 18.35 235.9 18.14 236 17.96 236.11 17.82 236.21 17.73 236.31 17.69 236.41 17.69 236.51 17.73 236.61 17.82 236.71 17.94 236.81 18.12 236.91 18.33 237.02 18.59 237.12 18.89 237.22 19.24 237.32 19.63 237.42 20.06 237.52 20.53 237.62 21.05 237.72 21.6 237.93 22.83 238.03 23.51 238.13 24.22 238.33 25.76 238.44 26.66 238.55 27.6 238.77 29.62 239.21 34.11 239.32 35.33 239.43 36.58 239.65 39.18 240.09 44.74 240.2 46.2 240.31 47.68 240.52 50.71 240.97 57 241.84 70.13 241.95 71.8 242.06 73.46 242.28 76.78 242.72 83.35 242.83 84.96 242.94 86.57 243.16 89.73 243.6 95.83 243.71 97.3 243.82 98.74 244.04 101.55 244.14 102.91 244.25 104.24 244.47 106.81 244.59 108.04 244.7 109.24 244.91 111.52 245.35 115.62 245.45 116.48 245.56 117.3 245.76 118.84 245.86 119.54 245.97 120.21 246.17 121.41 246.27 121.95 246.38 122.45 246.48 122.91 246.58 123.32 246.68 123.69 246.79 124.02 246.89 124.3 246.99 124.53 247.09 124.73 247.2 124.87 247.3 124.98 247.4 125.03 247.5 125.05 247.61 125.02 247.71 124.94 247.81 124.82 247.91 124.66 248.02 124.44 248.12 124.19 248.22 123.89 248.32 123.55 248.42 123.16 248.53 122.73 248.63 122.26 248.73 121.75 248.83 121.19 248.93 120.59 249.04 119.94 249.14 119.27 249.24 118.54 249.45 116.98 249.55 116.15 249.65 115.27 249.86 113.41 250.27 109.28 250.37 108.16 250.47 107.02 250.68 104.64 251.09 99.55 251.9 88.32 252.02 86.71 252.13 85.09 252.35 81.82 252.79 75.14 253.68 61.73 253.79 60.08 253.9 58.44 254.13 55.2 254.57 48.93 254.68 47.41 254.79 45.91 255.01 43 255.46 37.52 255.57 36.23 255.68 34.98 255.9 32.57 256.01 31.43 256.12 30.32 256.34 28.24 256.45 27.26 256.57 26.32 256.79 24.58 256.9 23.78 257.01 23.02 257.23 21.65 257.34 21.04 257.45 20.48 257.56 19.97 257.68 19.51 257.79 19.1 257.9 18.74 258.01 18.43 258.12 18.18 258.23 17.98 258.34 17.83 258.45 17.73 258.56 17.69 258.67 17.69 258.79 17.76 258.89 17.87 259.01 18.03 259.11 18.24 259.22 18.49 259.32 18.78 259.42 19.12 259.52 19.5 259.63 19.93 259.73 20.4 259.84 20.92 259.94 21.48 260.04 22.08 260.25 23.41 260.35 24.14 260.46 24.91 260.66 26.56 260.77 27.44 260.87 28.37 261.08 30.32 261.49 34.64 261.6 35.8 261.7 37 261.91 39.47 262.32 44.73 262.43 46.11 262.53 47.51 262.74 50.37 263.15 56.28 263.98 68.65 264.08 70.22 264.19 71.8 264.39 74.94 264.81 81.17 265.64 93.15 265.74 94.55 265.84 95.93 266.04 98.63 266.45 103.75 266.55 104.96 266.65 106.15 266.86 108.44 267.27 112.65 267.37 113.62 267.47 114.55 267.67 116.31 267.77 117.13 267.88 117.92 268.08 119.37 268.18 120.05 268.28 120.68 268.38 121.27 268.48 121.81 268.59 122.32 268.69 122.78 268.79 123.21 268.89 123.59 268.99 123.92 269.09 124.21 269.2 124.46 269.3 124.67 269.4 124.83 269.5 124.95 269.6 125.02 269.7 125.05 269.81 125.03 269.91 124.98 270.01 124.87 270.11 124.73 270.21 124.53 270.31 124.3 270.41 124.02 270.52 123.7 270.62 123.33 270.72 122.93 270.82 122.47 270.92 121.98 271.02 121.45 271.13 120.87 271.33 119.6 271.43 118.9 271.53 118.17 271.73 116.58 271.84 115.73 271.94 114.84 272.14 112.96 272.25 111.89 272.36 110.77 272.58 108.43 273.02 103.32 273.13 101.96 273.24 100.57 273.46 97.71 273.9 91.69 274.01 90.14 274.13 88.56 274.34 85.36 274.79 78.82 275.67 65.48 275.78 63.82 275.89 62.17 276.11 58.9 276.55 52.51 276.66 50.95 276.77 49.42 276.99 46.41 277.43 40.7 277.54 39.34 277.65 38.02 277.87 35.46 277.98 34.24 278.09 33.05 278.31 30.78 278.42 29.71 278.53 28.68 278.75 26.73 278.86 25.82 278.97 24.96 279.19 23.37 279.3 22.69 279.4 22.05 279.5 21.46 279.61 20.91 279.71 20.39 279.81 19.93 279.91 19.5 280.02 19.12 280.12 18.78 280.22 18.49 280.32 18.25 280.43 18.04 280.53 17.89 280.63 17.77 280.73 17.71 280.84 17.68 280.94 17.71 281.04 17.78 281.15 17.89 281.25 18.05 281.35 18.25 281.46 18.5 281.56 18.8 281.66 19.13 281.77 19.52 281.87 19.94 281.97 20.41 282.07 20.92 282.18 21.48 282.28 22.07 282.48 23.39 282.59 24.11 282.69 24.87 282.89 26.51 283 27.39 283.1 28.3 283.31 30.23 283.41 31.25 283.51 32.31 283.72 34.52 284.13 39.29 284.23 40.55 284.34 41.84 284.54 44.5 284.95 50.07 285.77 62 285.89 63.67 286 65.34 286.22 68.71 286.67 75.47 287.56 88.68 287.67 90.28 287.78 91.85 288 94.93 288.45 100.8 288.56 102.2 288.67 103.57 288.89 106.21 289.34 111.07 289.45 112.18 289.57 113.26 289.79 115.29 289.9 116.24 290.01 117.15 290.23 118.82 290.34 119.59 290.46 120.31 290.57 120.98 290.68 121.6 290.79 122.17 290.9 122.69 291.01 123.16 291.13 123.58 291.24 123.95 291.35 124.26 291.46 124.52 291.57 124.73 291.68 124.89 291.79 125 291.91 125.05 292.02 125.04 292.13 124.99 292.24 124.88 292.35 124.71 292.46 124.5 292.57 124.23 292.68 123.91 292.8 123.54 292.91 123.12 293.02 122.65 293.13 122.14 293.24 121.57 293.35 120.96 293.46 120.3 293.57 119.59 293.79 118.05 293.89 117.2 294 116.32 294.22 114.42 294.66 110.13 294.77 108.96 294.88 107.76 295.1 105.25 295.54 99.86 296.41 87.85 296.52 86.27 296.63 84.66 296.85 81.43 297.29 74.84 298.16 61.62 298.27 60 298.38 58.38 298.6 55.18 299.04 48.99 299.14 47.5 299.25 46.02 299.47 43.14 299.91 37.73 300.01 36.53 300.12 35.37 300.32 33.13 300.42 32.06 300.52 31.03 300.73 29.05 300.83 28.12 300.93 27.21 301.14 25.53 301.24 24.74 301.34 24 301.54 22.62 301.65 21.99 301.75 21.4 301.85 20.85 301.95 20.35 302.06 19.89 302.16 19.48 302.26 19.1 302.36 18.77 302.47 18.48 302.57 18.24 302.67 18.04 302.77 17.88 302.87 17.77 302.97 17.71 303.07 17.68 303.18 17.71 303.28 17.77 303.38 17.89 303.48 18.04 303.59 18.25 303.69 18.49 303.79 18.78 303.89 19.11 304 19.49 304.1 19.91 304.2 20.37 304.3 20.88 304.4 21.43 304.5 22.01 304.61 22.64 304.81 24.02 304.91 24.77 305.02 25.56 305.22 27.25 305.32 28.15 305.42 29.09 305.63 31.06 305.73 32.1 305.83 33.18 306.04 35.41 306.45 40.24 306.56 41.62 306.66 43.03 306.89 45.94 307.33 52.04 308.22 65.04 308.32 66.71 308.44 68.39 308.66 71.74 309.1 78.44 309.98 91.39 310.1 92.94 310.21 94.46 310.43 97.45 310.87 103.1 310.98 104.44 311.09 105.75 311.31 108.25 311.76 112.83 311.87 113.88 311.98 114.88 312.2 116.76 312.31 117.64 312.42 118.46 312.64 119.98 312.75 120.67 312.86 121.31 312.97 121.9 313.09 122.44 313.2 122.94 313.31 123.38 313.42 123.77 313.53 124.11 313.63 124.38 313.73 124.6 313.84 124.78 313.94 124.92 314.04 125 314.15 125.05 314.25 125.04 314.36 125 314.46 124.9 314.56 124.76 314.66 124.57 314.77 124.34 314.87 124.07 314.97 123.75 315.08 123.38 315.18 122.97 315.29 122.52 315.39 122.02 315.49 121.48 315.59 120.89 315.7 120.27 315.8 119.6 316.01 118.14 316.11 117.35 316.22 116.53 316.42 114.75 316.83 110.78 316.94 109.69 317.04 108.58 317.25 106.26 317.66 101.27 318.49 90.14 318.59 88.66 318.7 87.17 318.9 84.15 319.31 77.99 320.14 65.48 320.24 63.95 320.34 62.43 320.55 59.42 320.95 53.52 321.05 52.08 321.15 50.65 321.36 47.85 321.76 42.49 321.86 41.21 321.97 39.95 322.17 37.51 322.27 36.33 322.37 35.18 322.57 32.97 322.67 31.91 322.77 30.89 322.98 28.94 323.08 28.02 323.18 27.12 323.38 25.46 323.48 24.68 323.59 23.94 323.69 23.24 323.79 22.58 323.89 21.96 323.99 21.38 324.19 20.34 324.29 19.88 324.39 19.47 324.5 19.1 324.6 18.77 324.7 18.48 324.8 18.24 324.9 18.04 325 17.89 325.11 17.77 325.21 17.71 325.31 17.68 325.41 17.7 325.51 17.77 325.61 17.87 325.71 18.03 325.81 18.22 325.91 18.46 326.02 18.75 326.12 19.07 326.22 19.44 326.32 19.85 326.42 20.3 326.52 20.8 326.63 21.34 326.73 21.96 326.84 22.64 327.06 24.13 327.17 24.95 327.28 25.81 327.5 27.66 327.61 28.64 327.72 29.68 327.94 31.85 328.38 36.66 328.49 37.95 328.6 39.27 328.82 42 329.26 47.8 330.14 60.38 330.25 62.02 330.36 63.66 330.58 66.98 331.02 73.64 331.9 86.76 332.01 88.35 332.12 89.92 332.34 93.01 332.78 98.93 332.89 100.35 333 101.74 333.22 104.43 333.66 109.41 333.76 110.5 333.86 111.54 334.07 113.54 334.17 114.48 334.27 115.39 334.48 117.1 334.58 117.89 334.68 118.65 334.79 119.37 334.89 120.04 334.99 120.68 335.09 121.27 335.3 122.34 335.4 122.8 335.5 123.23 335.61 123.6 335.71 123.94 335.81 124.23 335.91 124.48 336.02 124.69 336.12 124.84 336.22 124.96 336.32 125.03 336.43 125.05 336.53 125.03 336.63 124.96 336.73 124.85 336.84 124.69 336.94 124.5 337.04 124.25 337.14 123.96 337.25 123.62 337.35 123.25 337.45 122.82 337.56 122.36 337.66 121.85 337.76 121.3 337.86 120.71 337.97 120.08 338.17 118.69 338.27 117.93 338.38 117.14 338.58 115.44 338.68 114.53 338.79 113.59 338.99 111.6 339.4 107.22 339.5 106.04 339.61 104.84 339.81 102.35 340.22 97.08 340.34 95.54 340.45 93.98 340.68 90.78 341.14 84.16 342.05 70.39 342.17 68.66 342.28 66.93 342.51 63.48 342.97 56.69 343.88 43.96 344 42.49 344.11 41.04 344.34 38.24 344.46 36.89 344.57 35.58 344.8 33.07 344.91 31.87 345.03 30.71 345.26 28.53 345.37 27.51 345.49 26.53 345.72 24.71 345.83 23.88 345.95 23.09 346.06 22.36 346.17 21.68 346.29 21.05 346.4 20.47 346.52 19.94 346.63 19.47 346.75 19.05 346.86 18.69 346.98 18.38 347.09 18.13 347.2 17.94 347.32 17.8 347.43 17.71 347.55 17.68"/>
  <polyline class="cls-6" points="14 17.68 14.1 17.71 14.2 17.81 14.31 17.97 14.41 18.2 14.51 18.49 14.61 18.84 14.71 19.26 14.82 19.74 14.92 20.28 15.02 20.88 15.12 21.54 15.22 22.27 15.32 23.05 15.43 23.89 15.63 25.74 15.73 26.75 15.84 27.81 16.04 30.09 16.45 35.23 16.56 36.64 16.66 38.07 16.86 41.07 17.27 47.5 17.37 49.18 17.47 50.89 17.68 54.37 18.09 61.58 18.91 76.41 19.01 78.27 19.11 80.11 19.32 83.76 19.73 90.86 19.83 92.59 19.93 94.28 20.13 97.59 20.54 103.82 20.65 105.41 20.77 106.94 20.99 109.86 21.1 111.24 21.21 112.57 21.43 115.03 21.54 116.18 21.65 117.26 21.76 118.27 21.88 119.22 21.98 120.1 22.1 120.91 22.21 121.66 22.32 122.33 22.43 122.93 22.54 123.45 22.65 123.9 22.76 124.28 22.87 124.59 22.98 124.81 23.09 124.96 23.2 125.04 23.32 125.04 23.43 124.97 23.54 124.82 23.65 124.59 23.76 124.29 23.87 123.91 23.98 123.46 24.09 122.93 24.2 122.34 24.31 121.67 24.43 120.93 24.54 120.12 24.65 119.24 24.76 118.29 24.98 116.2 25.09 115.05 25.2 113.85 25.42 111.27 25.87 105.43 25.98 103.85 26.09 102.22 26.31 98.83 26.75 91.61 27.64 75.96 27.75 74.09 27.85 72.2 28.06 68.43 28.47 60.96 28.57 59.12 28.68 57.29 28.88 53.69 29.3 46.77 29.4 45.1 29.5 43.48 29.71 40.33 29.82 38.81 29.92 37.33 30.13 34.5 30.23 33.16 30.33 31.85 30.54 29.4 30.64 28.25 30.75 27.16 30.95 25.13 31.06 24.2 31.16 23.33 31.27 22.52 31.37 21.77 31.47 21.07 31.58 20.45 31.68 19.88 31.79 19.38 31.89 18.94 31.99 18.57 32.09 18.26 32.2 18.02 32.3 17.84 32.41 17.73 32.51 17.68 32.61 17.71 32.72 17.79 32.82 17.94 32.92 18.17 33.03 18.45 33.13 18.8 33.23 19.21 33.34 19.69 33.44 20.24 33.54 20.84 33.65 21.51 33.75 22.24 33.86 23.03 33.96 23.88 34.06 24.79 34.27 26.78 34.37 27.83 34.47 28.94 34.68 31.3 35.08 36.59 35.18 38.02 35.29 39.48 35.49 42.53 35.89 49.02 36 50.71 36.1 52.43 36.3 55.93 36.71 63.13 37.52 77.87 37.62 79.7 37.72 81.52 37.92 85.12 38.33 92.11 38.43 93.8 38.53 95.47 38.73 98.71 39.14 104.8 39.24 106.22 39.34 107.6 39.55 110.25 39.65 111.5 39.75 112.7 39.95 114.96 40.06 116.01 40.16 117.01 40.26 117.96 40.36 118.85 40.46 119.68 40.56 120.46 40.66 121.18 40.77 121.84 40.88 122.48 40.99 123.06 41.1 123.57 41.21 124 41.32 124.35 41.43 124.64 41.54 124.85 41.65 124.99 41.76 125.05 41.87 125.03 41.98 124.94 42.09 124.78 42.2 124.54 42.31 124.23 42.42 123.85 42.53 123.39 42.64 122.85 42.75 122.25 42.86 121.58 42.97 120.84 43.08 120.02 43.19 119.14 43.41 117.18 43.52 116.1 43.63 114.96 43.85 112.51 43.96 111.19 44.07 109.82 44.29 106.92 44.4 105.39 44.51 103.82 44.73 100.53 45.17 93.5 46.05 78.13 46.16 76.14 46.27 74.14 46.49 70.13 46.93 62.16 47.81 47 47.92 45.35 48.02 43.73 48.23 40.59 48.33 39.07 48.43 37.6 48.64 34.77 48.74 33.43 48.84 32.13 49.05 29.67 49.15 28.52 49.25 27.42 49.46 25.38 49.56 24.44 49.66 23.56 49.77 22.74 49.87 21.98 49.97 21.27 50.07 20.63 50.18 20.05 50.28 19.53 50.38 19.08 50.49 18.69 50.59 18.36 50.69 18.09 50.79 17.89 50.9 17.76 51 17.69 51.1 17.69 51.21 17.75 51.31 17.88 51.41 18.07 51.52 18.33 51.62 18.65 51.72 19.03 51.82 19.48 51.93 19.99 52.03 20.57 52.13 21.2 52.23 21.9 52.34 22.66 52.44 23.47 52.54 24.34 52.75 26.26 52.85 27.3 52.95 28.4 53.16 30.75 53.57 36.02 53.67 37.44 53.78 38.91 53.98 41.97 54.39 48.5 54.5 50.35 54.61 52.23 54.84 56.07 55.29 63.99 56.18 80.14 56.29 82.14 56.4 84.12 56.62 88.02 57.07 95.5 57.18 97.3 57.29 99.05 57.51 102.44 57.96 108.68 58.07 110.11 58.18 111.49 58.4 114.06 58.51 115.26 58.63 116.4 58.85 118.48 58.96 119.41 59.07 120.28 59.18 121.09 59.29 121.81 59.41 122.47 59.52 123.05 59.63 123.57 59.74 124 59.85 124.36 59.96 124.65 60.07 124.86 60.18 124.99 60.3 125.05 60.41 125.03 60.52 124.93 60.63 124.76 60.74 124.51 60.85 124.19 60.97 123.79 61.07 123.31 61.19 122.77 61.3 122.14 61.41 121.45 61.52 120.68 61.63 119.86 61.74 118.98 61.96 117.01 62.07 115.93 62.18 114.78 62.39 112.33 62.5 111.01 62.61 109.64 62.83 106.75 63.27 100.39 63.38 98.7 63.49 96.97 63.71 93.41 64.14 85.93 65.02 70.19 65.13 68.2 65.24 66.21 65.46 62.27 65.89 54.55 66 52.68 66.11 50.82 66.33 47.2 66.77 40.39 66.88 38.78 66.99 37.22 67.21 34.25 67.32 32.84 67.43 31.48 67.64 28.93 67.75 27.73 67.86 26.6 67.97 25.54 68.08 24.53 68.19 23.59 68.3 22.72 68.41 21.91 68.52 21.17 68.62 20.54 68.72 19.97 68.82 19.47 68.93 19.02 69.03 18.64 69.13 18.32 69.23 18.07 69.34 17.88 69.44 17.75 69.54 17.69 69.64 17.69 69.74 17.76 69.84 17.89 69.95 18.08 70.05 18.34 70.15 18.66 70.25 19.04 70.36 19.49 70.46 20 70.56 20.57 70.66 21.2 70.76 21.89 70.97 23.45 71.07 24.32 71.17 25.24 71.38 27.25 71.48 28.33 71.58 29.46 71.79 31.88 71.89 33.16 71.99 34.49 72.19 37.28 72.6 43.32 73.41 56.89 73.52 58.69 73.62 60.5 73.82 64.16 74.23 71.57 75.05 86.22 75.16 88.14 75.27 90.05 75.49 93.77 75.93 100.8 76.04 102.47 76.15 104.09 76.38 107.18 76.48 108.66 76.6 110.08 76.82 112.76 76.93 114.01 77.04 115.2 77.15 116.34 77.26 117.4 77.37 118.41 77.48 119.34 77.59 120.21 77.7 121.01 77.81 121.75 77.92 122.41 78.04 122.99 78.14 123.51 78.25 123.95 78.37 124.32 78.48 124.61 78.59 124.83 78.7 124.98 78.81 125.05 78.92 125.04 79.03 124.96 79.14 124.8 79.25 124.57 79.36 124.26 79.47 123.87 79.58 123.42 79.69 122.89 79.81 122.29 79.91 121.61 80.02 120.87 80.14 120.06 80.36 118.23 80.47 117.21 80.58 116.13 80.8 113.78 80.91 112.52 81.02 111.2 81.24 108.39 81.35 106.91 81.46 105.37 81.68 102.16 82.13 95.25 82.23 93.55 82.33 91.82 82.54 88.3 82.95 81.02 83.78 66.05 83.88 64.18 83.98 62.32 84.19 58.64 84.61 51.49 84.71 49.76 84.81 48.05 85.02 44.72 85.43 38.48 85.54 37.01 85.64 35.59 85.84 32.88 85.95 31.59 86.05 30.35 86.26 28.03 86.36 26.95 86.47 25.92 86.57 24.95 86.67 24.03 86.77 23.18 86.88 22.37 86.98 21.64 87.08 20.96 87.19 20.34 87.29 19.79 87.39 19.3 87.5 18.87 87.6 18.52 87.7 18.22 87.81 17.98 87.91 17.82 88.01 17.72 88.12 17.68 88.22 17.71 88.32 17.81 88.43 17.97 88.53 18.2 88.63 18.5 88.73 18.85 88.84 19.27 88.94 19.74 89.04 20.27 89.14 20.87 89.24 21.52 89.34 22.24 89.54 23.84 89.64 24.72 89.75 25.66 89.95 27.7 90.05 28.8 90.15 29.95 90.36 32.39 90.46 33.68 90.56 35.01 90.76 37.8 91.16 43.85 91.97 57.39 92.07 59.17 92.18 60.97 92.38 64.61 92.79 71.96 93.59 86.5 93.7 88.25 93.8 90 94 93.4 94.4 99.9 94.5 101.44 94.61 102.95 94.81 105.85 95.22 111.16 95.32 112.47 95.43 113.73 95.65 116.07 95.76 117.14 95.87 118.16 96.09 119.98 96.2 120.8 96.31 121.54 96.42 122.22 96.53 122.82 96.64 123.36 96.75 123.82 96.86 124.21 96.97 124.53 97.08 124.77 97.19 124.94 97.3 125.03 97.41 125.05 97.52 125 97.63 124.86 97.74 124.66 97.85 124.38 97.96 124.03 98.07 123.61 98.18 123.11 98.29 122.54 98.4 121.91 98.51 121.19 98.62 120.42 98.73 119.57 98.84 118.66 98.95 117.68 99.17 115.53 99.28 114.36 99.39 113.14 99.61 110.51 99.72 109.12 99.83 107.67 100.05 104.62 100.48 98 100.59 96.25 100.7 94.46 100.93 90.79 101.36 83.15 102.24 67.25 102.34 65.4 102.45 63.55 102.65 59.88 103.06 52.72 103.16 50.99 103.27 49.27 103.47 45.93 103.88 39.62 103.98 38.14 104.09 36.69 104.29 33.93 104.39 32.62 104.5 31.35 104.7 28.96 104.81 27.84 104.91 26.78 105.01 25.77 105.11 24.81 105.22 23.91 105.32 23.07 105.52 21.55 105.63 20.89 105.73 20.28 105.83 19.74 105.93 19.26 106.04 18.84 106.14 18.49 106.24 18.2 106.34 17.98 106.45 17.81 106.55 17.71 106.65 17.68 106.75 17.71 106.86 17.81 106.96 17.98 107.06 18.2 107.16 18.49 107.27 18.85 107.37 19.27 107.47 19.75 107.57 20.29 107.68 20.89 107.78 21.56 107.98 23.07 108.09 23.91 108.19 24.82 108.39 26.78 108.49 27.85 108.6 28.97 108.8 31.35 108.91 32.73 109.02 34.16 109.25 37.18 109.69 43.78 109.8 45.53 109.91 47.33 110.13 51.01 110.58 58.69 110.69 60.67 110.8 62.66 111.02 66.67 111.47 74.75 112.36 90.5 112.47 92.37 112.58 94.22 112.8 97.81 112.91 99.55 113.02 101.25 113.25 104.52 113.36 106.09 113.47 107.6 113.69 110.48 113.8 111.84 113.91 113.14 114.13 115.56 114.25 116.68 114.36 117.73 114.47 118.71 114.58 119.63 114.69 120.48 114.8 121.27 114.91 121.98 115.02 122.61 115.13 123.18 115.25 123.67 115.36 124.09 115.47 124.43 115.58 124.7 115.69 124.89 115.8 125.01 115.91 125.05 116.02 125.02 116.13 124.91 116.24 124.73 116.35 124.47 116.46 124.15 116.57 123.75 116.68 123.28 116.79 122.74 116.89 122.12 117 121.44 117.11 120.69 117.22 119.88 117.33 119 117.44 118.05 117.66 115.96 117.77 114.82 117.88 113.63 118.09 111.07 118.53 105.31 118.64 103.75 118.75 102.14 118.97 98.81 119.4 91.71 119.51 89.86 119.62 87.98 119.84 84.17 120.27 76.34 121.14 60.54 121.25 58.61 121.36 56.69 121.58 52.91 122.02 45.69 122.13 43.96 122.24 42.27 122.45 39.02 122.89 33.06 122.99 31.78 123.09 30.56 123.3 28.25 123.4 27.17 123.5 26.15 123.7 24.26 123.81 23.4 123.91 22.6 124.01 21.85 124.11 21.17 124.21 20.54 124.32 19.98 124.42 19.47 124.52 19.03 124.62 18.65 124.72 18.33 124.82 18.07 124.93 17.88 125.03 17.76 125.13 17.69 125.23 17.69 125.33 17.75 125.43 17.88 125.54 18.07 125.64 18.33 125.74 18.64 125.84 19.02 125.94 19.46 126.04 19.97 126.14 20.53 126.25 21.16 126.35 21.85 126.45 22.59 126.55 23.39 126.65 24.25 126.75 25.16 126.96 27.16 127.06 28.23 127.16 29.36 127.37 31.77 127.77 37.13 127.88 38.57 127.98 40.06 128.18 43.14 128.59 49.69 129.4 63.88 129.51 65.87 129.62 67.88 129.84 71.89 130.28 79.89 130.39 81.86 130.5 83.82 130.72 87.69 131.16 95.13 131.27 96.91 131.39 98.66 131.61 102.04 131.72 103.67 131.83 105.25 132.05 108.27 132.16 109.7 132.27 111.08 132.49 113.67 132.6 114.87 132.71 116.02 132.93 118.12 133.04 119.07 133.15 119.96 133.26 120.78 133.37 121.53 133.48 122.21 133.59 122.82 133.7 123.35 133.81 123.82 133.92 124.21 134.03 124.53 134.14 124.77 134.25 124.94 134.36 125.03 134.47 125.05 134.59 124.99 134.7 124.86 134.81 124.65 134.91 124.37 135.03 124.02 135.14 123.59 135.25 123.08 135.36 122.51 135.47 121.86 135.58 121.14 135.69 120.35 135.8 119.5 135.91 118.58 136.02 117.59 136.13 116.53 136.24 115.42 136.46 113 136.56 111.8 136.66 110.54 136.87 107.88 137.29 102.05 137.39 100.49 137.49 98.9 137.7 95.62 138.11 88.71 138.21 86.93 138.31 85.13 138.52 81.48 138.93 74.04 139.75 59.15 139.86 57.34 139.96 55.53 140.17 52 140.58 45.21 140.68 43.6 140.79 42.01 140.99 38.94 141.4 33.3 141.5 32.01 141.61 30.76 141.81 28.41 141.92 27.31 142.02 26.27 142.23 24.34 142.33 23.47 142.43 22.65 142.54 21.89 142.64 21.19 142.74 20.56 142.84 19.98 142.95 19.48 143.05 19.03 143.16 18.61 143.27 18.27 143.38 18.01 143.5 17.82 143.61 17.71 143.72 17.68 143.83 17.73 143.94 17.85 144.06 18.05 144.16 18.32 144.28 18.67 144.39 19.09 144.5 19.59 144.61 20.17 144.72 20.82 144.84 21.53 144.95 22.33 145.06 23.19 145.17 24.12 145.28 25.12 145.39 26.18 145.5 27.31 145.73 29.75 145.84 31.07 145.95 32.43 146.17 35.34 146.62 41.75 146.73 43.46 146.84 45.22 147.07 48.84 147.51 56.44 148.41 72.49 148.52 74.52 148.63 76.54 148.85 80.57 149.3 88.43 149.41 90.35 149.52 92.23 149.74 95.91 150.19 102.83 150.3 104.42 150.41 105.97 150.63 108.92 150.74 110.32 150.85 111.66 151.07 114.18 151.18 115.36 151.29 116.47 151.39 117.52 151.5 118.51 151.61 119.43 151.72 120.28 151.83 121.07 151.94 121.79 152.05 122.44 152.16 123.02 152.27 123.53 152.38 123.96 152.49 124.32 152.6 124.62 152.71 124.83 152.82 124.98 152.93 125.04 153.04 125.04 153.15 124.96 153.26 124.81 153.37 124.58 153.48 124.28 153.59 123.91 153.7 123.46 153.81 122.94 153.91 122.36 154.02 121.7 154.13 120.97 154.24 120.18 154.35 119.31 154.57 117.39 154.68 116.33 154.79 115.21 155.01 112.79 155.12 111.49 155.23 110.14 155.45 107.28 155.56 105.77 155.67 104.21 155.89 100.97 156.32 94.02 157.2 78.78 157.3 76.93 157.41 75.08 157.61 71.36 158.02 63.94 158.12 62.1 158.22 60.28 158.43 56.67 158.84 49.68 158.94 47.99 159.04 46.33 159.24 43.1 159.35 41.54 159.45 40.01 159.65 37.07 159.75 35.66 159.86 34.29 160.06 31.69 160.16 30.46 160.27 29.28 160.47 27.08 160.57 26.05 160.68 25.08 160.78 24.17 160.88 23.31 160.98 22.51 161.08 21.77 161.18 21.09 161.29 20.46 161.39 19.91 161.49 19.41 161.59 18.97 161.7 18.6 161.8 18.29 161.9 18.04 162 17.86 162.11 17.74 162.21 17.69 162.31 17.7 162.41 17.77 162.51 17.91 162.62 18.12 162.72 18.38 162.82 18.71 162.92 19.11 163.02 19.57 163.13 20.09 163.23 20.67 163.33 21.31 163.43 22.01 163.54 22.77 163.74 24.47 163.85 25.48 163.96 26.56 164.18 28.91 164.29 30.17 164.41 31.49 164.63 34.3 164.74 35.79 164.85 37.32 165.07 40.53 165.51 47.46 165.63 49.28 165.73 51.14 165.96 54.93 166.4 62.76 167.29 78.84 167.39 80.82 167.51 82.8 167.73 86.71 168.17 94.24 168.28 96.04 168.39 97.82 168.61 101.25 169.06 107.59 169.17 109.05 169.28 110.46 169.5 113.11 169.61 114.35 169.72 115.53 169.95 117.69 170.06 118.68 170.16 119.6 170.28 120.45 170.39 121.23 170.5 121.94 170.61 122.59 170.72 123.15 170.83 123.65 170.93 124.04 171.04 124.37 171.14 124.64 171.25 124.84 171.35 124.97 171.45 125.04 171.56 125.04 171.66 124.98 171.76 124.85 171.86 124.66 171.97 124.39 172.07 124.07 172.18 123.68 172.28 123.22 172.38 122.7 172.48 122.12 172.59 121.47 172.69 120.77 172.8 120 172.9 119.17 173 118.29 173.11 117.34 173.31 115.29 173.42 114.18 173.52 113.02 173.73 110.54 174.14 105.02 174.24 103.53 174.35 102.01 174.56 98.84 174.97 92.12 175.8 77.6 175.9 75.73 176 73.85 176.21 70.09 176.63 62.59 177.45 48.27 177.55 46.62 177.65 44.99 177.86 41.84 177.96 40.32 178.06 38.83 178.26 35.97 178.36 34.61 178.47 33.28 178.67 30.77 178.77 29.59 178.87 28.46 179.07 26.34 179.18 25.36 179.28 24.44 179.38 23.57 179.48 22.76 179.58 22 179.68 21.31 179.78 20.67 179.88 20.09 179.98 19.58 180.09 19.12 180.19 18.73 180.29 18.4 180.39 18.13 180.49 17.92 180.59 17.78 180.7 17.7 180.8 17.69 180.9 17.73 181 17.84 181.1 18.02 181.2 18.26 181.31 18.56 181.41 18.92 181.51 19.34 181.61 19.83 181.71 20.38 181.81 20.98 181.91 21.65 182.02 22.38 182.12 23.16 182.32 24.9 182.42 25.85 182.52 26.85 182.72 29.02 182.82 30.18 182.93 31.39 183.13 33.95 183.23 35.29 183.33 36.68 183.54 39.58 183.94 45.81 184.05 47.59 184.16 49.4 184.38 53.11 184.82 60.82 185.7 76.77 185.81 78.75 185.92 80.73 186.14 84.64 186.58 92.23 186.69 94.06 186.8 95.86 187.02 99.35 187.46 105.85 187.57 107.36 187.68 108.82 187.9 111.58 188.01 112.88 188.12 114.12 188.34 116.42 188.45 117.48 188.56 118.47 188.67 119.4 188.78 120.26 188.89 121.05 189 121.78 189.11 122.43 189.22 123.02 189.33 123.52 189.44 123.96 189.55 124.33 189.66 124.62 189.77 124.84 189.88 124.98 189.99 125.05 190.1 125.04 190.21 124.96 190.32 124.8 190.43 124.57 190.54 124.27 190.65 123.89 190.76 123.44 190.87 122.91 190.98 122.32 191.09 121.7 191.19 121.02 191.29 120.28 191.39 119.48 191.5 118.62 191.6 117.71 191.81 115.71 191.91 114.63 192.01 113.5 192.22 111.08 192.63 105.68 192.73 104.22 192.83 102.72 193.04 99.62 193.45 93.01 194.27 78.67 194.37 76.81 194.47 74.95 194.68 71.21 195.09 63.77 195.19 61.92 195.29 60.09 195.5 56.46 195.91 49.45 196.01 47.76 196.12 46.09 196.32 42.86 196.42 41.29 196.53 39.77 196.73 36.82 196.83 35.41 196.94 34.05 197.14 31.45 197.25 30.23 197.35 29.05 197.55 26.85 197.66 25.76 197.77 24.72 197.89 23.75 198 22.85 198.11 22.02 198.22 21.26 198.33 20.57 198.44 19.95 198.56 19.4 198.66 18.93 198.78 18.53 198.89 18.21 199 17.97 199.11 17.8 199.22 17.7 199.33 17.69 199.45 17.75 199.56 17.88 199.67 18.09 199.78 18.38 199.89 18.74 200 19.18 200.11 19.69 200.22 20.28 200.34 20.94 200.45 21.67 200.56 22.47 200.67 23.34 200.78 24.28 200.89 25.28 201.11 27.49 201.22 28.69 201.34 29.95 201.56 32.64 202 38.67 202.11 40.3 202.23 41.97 202.45 45.44 202.89 52.8 203 54.72 203.12 56.65 203.34 60.59 203.79 68.62 204.68 84.68 204.78 86.59 204.89 88.49 205.11 92.21 205.55 99.28 205.66 100.96 205.77 102.6 205.98 105.75 206.42 111.46 206.53 112.75 206.64 113.99 206.75 115.17 206.86 116.29 206.97 117.35 207.08 118.34 207.3 120.14 207.41 120.93 207.52 121.66 207.63 122.32 207.73 122.91 207.84 123.43 207.95 123.88 208.06 124.26 208.17 124.56 208.28 124.79 208.39 124.95 208.5 125.03 208.61 125.05 208.72 124.98 208.82 124.85 208.93 124.64 209.04 124.35 209.15 124 209.26 123.57 209.37 123.07 209.48 122.5 209.59 121.86 209.7 121.15 209.81 120.37 209.92 119.53 210.03 118.61 210.14 117.64 210.36 115.5 210.47 114.34 210.57 113.11 210.79 110.5 210.9 109.11 211.01 107.67 211.23 104.65 211.66 98.06 211.77 96.44 211.87 94.78 212.07 91.39 212.48 84.34 213.3 69.63 213.4 67.78 213.5 65.93 213.7 62.26 214.11 55.06 214.21 53.3 214.31 51.57 214.52 48.17 214.93 41.72 215.03 40.19 215.13 38.7 215.33 35.84 215.43 34.47 215.54 33.14 215.74 30.63 215.84 29.45 215.95 28.32 216.15 26.21 216.25 25.23 216.35 24.31 216.56 22.64 216.66 21.89 216.76 21.2 216.86 20.57 216.97 20 217.07 19.49 217.17 19.05 217.27 18.66 217.37 18.34 217.47 18.08 217.57 17.89 217.68 17.76 217.78 17.69 217.88 17.69 217.98 17.75 218.09 17.88 218.19 18.07 218.3 18.35 218.41 18.7 218.52 19.12 218.63 19.62 218.74 20.19 218.85 20.84 218.96 21.55 219.07 22.34 219.18 23.19 219.29 24.11 219.51 26.15 219.62 27.27 219.73 28.44 219.95 30.98 220.07 32.33 220.18 33.74 220.39 36.71 220.84 43.22 220.95 44.96 221.06 46.73 221.28 50.36 221.72 57.98 221.83 59.93 221.94 61.91 222.16 65.89 222.61 73.92 222.72 75.93 222.83 77.93 223.05 81.9 223.49 89.64 223.6 91.52 223.71 93.37 223.93 96.97 224.04 98.72 224.15 100.43 224.38 103.73 224.48 105.31 224.59 106.85 224.82 109.76 224.93 111.14 225.04 112.46 225.26 114.93 225.36 116 225.47 117.02 225.57 117.98 225.67 118.88 225.77 119.73 225.88 120.51 225.98 121.24 226.08 121.9 226.19 122.5 226.29 123.04 226.39 123.52 226.5 123.93 226.6 124.28 226.7 124.57 226.81 124.78 226.91 124.94 227.01 125.03 227.11 125.05 227.22 125.01 227.32 124.9 227.42 124.72 227.53 124.48 227.63 124.18 227.73 123.81 227.84 123.38 227.94 122.88 228.04 122.32 228.14 121.7 228.25 121.02 228.35 120.27 228.56 118.6 228.66 117.68 228.77 116.71 228.97 114.59 229.07 113.44 229.18 112.25 229.38 109.72 229.49 108.39 229.59 107 229.8 104.11 230.21 97.86 230.31 96.21 230.41 94.53 230.62 91.09 231.04 83.93 231.86 69.03 231.96 67.19 232.06 65.36 232.26 61.72 232.67 54.59 232.77 52.85 232.87 51.14 233.07 47.78 233.48 41.41 233.58 39.9 233.68 38.43 233.88 35.6 233.98 34.25 234.08 32.94 234.29 30.46 234.39 29.3 234.49 28.18 234.69 26.09 234.79 25.13 234.89 24.22 235.09 22.57 235.2 21.84 235.3 21.16 235.4 20.53 235.5 19.97 235.6 19.47 235.7 19.03 235.8 18.65 235.9 18.34 236 18.08 236.11 17.89 236.21 17.76 236.31 17.69 236.41 17.69 236.51 17.75 236.61 17.87 236.71 18.06 236.81 18.31 236.91 18.62 237.02 18.99 237.12 19.43 237.22 19.92 237.32 20.48 237.42 21.09 237.52 21.77 237.62 22.5 237.72 23.29 237.93 25.04 238.03 26 238.13 27.01 238.33 29.19 238.44 30.45 238.55 31.77 238.77 34.57 239.21 40.78 239.32 42.44 239.43 44.14 239.65 47.66 240.09 55.06 240.2 56.97 240.31 58.91 240.52 62.82 240.97 70.78 241.84 86.54 241.95 88.45 242.06 90.33 242.28 94.01 242.72 100.98 242.83 102.62 242.94 104.22 243.16 107.29 243.27 108.75 243.38 110.16 243.6 112.8 243.71 114.05 243.82 115.23 243.93 116.35 244.04 117.41 244.14 118.4 244.25 119.33 244.36 120.19 244.47 120.99 244.59 121.72 244.7 122.38 244.81 122.96 244.91 123.48 245.02 123.92 245.13 124.29 245.24 124.59 245.35 124.82 245.45 124.96 245.56 125.03 245.66 125.05 245.76 125 245.86 124.88 245.97 124.7 246.07 124.45 246.17 124.14 246.27 123.77 246.38 123.34 246.48 122.84 246.58 122.28 246.68 121.66 246.79 120.98 246.99 119.43 247.09 118.57 247.2 117.66 247.4 115.66 247.5 114.58 247.61 113.45 247.81 111.03 247.91 109.76 248.02 108.43 248.22 105.65 248.63 99.6 248.73 98 248.83 96.37 249.04 93.01 249.45 86 250.27 71.28 250.37 69.42 250.47 67.56 250.68 63.85 251.09 56.57 251.19 54.79 251.29 53.03 251.5 49.57 251.9 42.99 252.02 41.3 252.13 39.64 252.35 36.48 252.46 34.97 252.57 33.51 252.79 30.75 252.9 29.46 253.02 28.23 253.13 27.06 253.23 25.95 253.35 24.91 253.46 23.93 253.68 22.17 253.79 21.4 253.9 20.69 254.01 20.06 254.13 19.51 254.23 19.02 254.34 18.61 254.46 18.27 254.57 18.01 254.68 17.83 254.79 17.72 254.9 17.68 255.01 17.73 255.12 17.84 255.23 18.04 255.34 18.31 255.46 18.65 255.57 19.07 255.68 19.57 255.79 20.13 255.9 20.77 256.01 21.48 256.12 22.26 256.34 24.03 256.45 25.02 256.57 26.07 256.79 28.36 256.9 29.6 257.01 30.9 257.23 33.67 257.34 35.13 257.45 36.65 257.68 39.83 258.12 46.7 259.01 61.94 259.11 63.8 259.22 65.68 259.42 69.44 259.84 76.97 259.94 78.85 260.04 80.71 260.25 84.4 260.66 91.57 260.77 93.3 260.87 95.01 261.08 98.33 261.18 99.95 261.29 101.53 261.49 104.57 261.6 106.03 261.7 107.45 261.91 110.15 262.01 111.43 262.11 112.66 262.32 114.97 262.43 116.04 262.53 117.06 262.63 118.02 262.74 118.93 262.84 119.77 262.95 120.56 263.05 121.28 263.15 121.94 263.25 122.55 263.36 123.09 263.46 123.56 263.57 123.97 263.67 124.31 263.77 124.59 263.88 124.8 263.98 124.95 264.08 125.03 264.19 125.05 264.29 125 264.39 124.88 264.5 124.69 264.6 124.45 264.71 124.13 264.81 123.75 264.91 123.31 265.02 122.8 265.12 122.23 265.22 121.59 265.33 120.89 265.43 120.14 265.64 118.44 265.74 117.52 265.84 116.55 266.04 114.45 266.14 113.32 266.25 112.14 266.45 109.64 266.55 108.32 266.65 106.96 266.86 104.11 267.27 97.96 267.37 96.34 267.47 94.68 267.67 91.3 268.08 84.27 268.89 69.6 268.99 67.75 269.09 65.91 269.3 62.25 269.7 55.07 269.81 53.31 269.91 51.58 270.11 48.19 270.52 41.76 270.62 40.24 270.72 38.75 270.92 35.89 271.02 34.52 271.13 33.2 271.33 30.69 271.43 29.51 271.53 28.38 271.73 26.27 271.84 25.29 271.94 24.37 272.14 22.69 272.25 21.88 272.36 21.14 272.47 20.47 272.58 19.86 272.69 19.34 272.8 18.88 272.91 18.49 273.02 18.18 273.13 17.95 273.24 17.78 273.35 17.7 273.46 17.69 273.57 17.75 273.68 17.89 273.79 18.1 273.9 18.39 274.01 18.75 274.13 19.18 274.23 19.69 274.34 20.27 274.45 20.92 274.57 21.64 274.68 22.43 274.79 23.29 274.89 24.22 275 25.21 275.23 27.39 275.34 28.57 275.45 29.81 275.67 32.46 275.78 33.87 275.89 35.33 276.11 38.4 276.55 45.08 277.43 60.03 277.54 62 277.65 63.98 277.87 67.97 278.31 75.98 279.19 91.53 279.3 93.25 279.4 94.95 279.61 98.25 279.71 99.85 279.81 101.43 280.02 104.45 280.12 105.91 280.22 107.32 280.43 110.01 280.53 111.28 280.63 112.51 280.84 114.82 280.94 115.89 281.04 116.91 281.15 117.87 281.25 118.78 281.35 119.63 281.46 120.42 281.56 121.15 281.66 121.82 281.77 122.43 281.87 122.98 281.97 123.46 282.07 123.88 282.18 124.24 282.28 124.53 282.38 124.76 282.48 124.92 282.59 125.02 282.69 125.05 282.79 125.02 282.89 124.92 283 124.76 283.1 124.53 283.2 124.24 283.31 123.88 283.41 123.46 283.51 122.98 283.62 122.43 283.72 121.82 283.82 121.15 283.93 120.42 284.13 118.78 284.23 117.87 284.34 116.91 284.54 114.82 284.64 113.69 284.75 112.52 284.95 110.02 285.06 108.69 285.16 107.32 285.36 104.46 285.77 98.26 285.89 96.48 286 94.68 286.22 90.96 286.67 83.21 287.56 67.08 287.67 65.06 287.78 63.05 288 59.07 288.45 51.34 288.56 49.47 288.67 47.64 288.89 44.07 289.34 37.42 289.45 35.87 289.57 34.37 289.79 31.54 289.9 30.21 290.01 28.94 290.23 26.58 290.34 25.49 290.46 24.47 290.57 23.52 290.68 22.63 290.79 21.82 290.9 21.07 291.01 20.4 291.13 19.8 291.24 19.27 291.35 18.82 291.46 18.44 291.57 18.14 291.68 17.91 291.79 17.77 291.91 17.69 292.02 17.69 292.13 17.78 292.24 17.93 292.35 18.17 292.46 18.48 292.57 18.86 292.68 19.32 292.8 19.85 292.91 20.46 293.02 21.13 293.13 21.87 293.24 22.67 293.35 23.54 293.46 24.48 293.57 25.48 293.79 27.68 293.89 28.86 294 30.1 294.22 32.77 294.66 38.71 294.77 40.31 294.88 41.96 295.1 45.37 295.54 52.6 296.41 68.13 296.52 70.12 296.63 72.11 296.85 76.09 297.29 83.94 297.39 85.87 297.5 87.78 297.72 91.52 298.16 98.66 298.27 100.35 298.38 102.01 298.6 105.19 298.71 106.71 298.82 108.19 299.04 110.98 299.14 112.3 299.25 113.56 299.47 115.91 299.58 116.99 299.69 118 299.91 119.85 300.01 120.62 300.12 121.33 300.22 121.98 300.32 122.57 300.42 123.09 300.52 123.56 300.63 123.96 300.73 124.3 300.83 124.58 300.93 124.79 301.04 124.94 301.14 125.03 301.24 125.05 301.34 125.01 301.44 124.9 301.54 124.73 301.65 124.49 301.75 124.19 301.85 123.83 301.95 123.41 302.06 122.92 302.16 122.37 302.26 121.76 302.36 121.09 302.47 120.35 302.57 119.57 302.77 117.82 302.87 116.86 302.97 115.84 303.18 113.66 303.28 112.49 303.38 111.27 303.59 108.69 304 103.01 304.1 101.49 304.2 99.93 304.4 96.72 304.81 89.95 304.91 88.19 305.02 86.42 305.22 82.82 305.63 75.47 306.45 60.69 306.56 58.72 306.66 56.77 306.89 52.94 307.33 45.6 307.44 43.85 307.55 42.15 307.77 38.85 308.22 32.83 308.32 31.45 308.44 30.14 308.66 27.67 308.77 26.53 308.88 25.46 309.1 23.5 309.21 22.62 309.32 21.81 309.43 21.07 309.54 20.41 309.65 19.81 309.77 19.28 309.88 18.83 309.98 18.45 310.1 18.15 310.21 17.92 310.32 17.77 310.43 17.69 310.54 17.69 310.65 17.77 310.76 17.92 310.87 18.14 310.98 18.44 311.09 18.82 311.2 19.26 311.31 19.78 311.43 20.38 311.54 21.05 311.64 21.78 311.76 22.59 311.87 23.46 311.98 24.41 312.2 26.49 312.31 27.63 312.42 28.83 312.64 31.4 312.75 32.77 312.86 34.2 313.09 37.21 313.53 43.79 313.63 45.42 313.73 47.08 313.94 50.49 314.36 57.6 315.18 72.5 315.29 74.37 315.39 76.25 315.59 79.98 316.01 87.3 316.11 89.09 316.22 90.85 316.42 94.3 316.83 100.86 316.94 102.41 317.04 103.93 317.25 106.84 317.35 108.23 317.45 109.57 317.66 112.12 317.77 113.32 317.87 114.46 318.07 116.6 318.18 117.59 318.28 118.51 318.49 120.19 318.59 120.94 318.7 121.64 318.8 122.27 318.9 122.83 319 123.34 319.11 123.78 319.21 124.15 319.31 124.46 319.42 124.71 319.52 124.89 319.63 125 319.73 125.05 319.83 125.03 319.93 124.95 320.04 124.8 320.14 124.59 320.24 124.31 320.34 123.97 320.45 123.57 320.55 123.12 320.65 122.59 320.75 122.01 320.85 121.37 320.95 120.67 321.05 119.91 321.15 119.1 321.36 117.3 321.46 116.32 321.56 115.28 321.76 113.06 321.86 111.87 321.97 110.64 322.17 108.03 322.57 102.32 322.67 100.8 322.77 99.23 322.98 96.02 323.38 89.26 323.48 87.51 323.59 85.74 323.79 82.16 324.19 74.85 325 60.19 325.11 58.39 325.21 56.61 325.41 53.1 325.81 46.36 325.91 44.74 326.02 43.16 326.22 40.09 326.63 34.41 326.73 32.98 326.84 31.61 327.06 29.03 327.17 27.84 327.28 26.69 327.5 24.6 327.61 23.65 327.72 22.77 327.83 21.95 327.94 21.21 328.05 20.53 328.16 19.92 328.27 19.39 328.38 18.92 328.49 18.53 328.6 18.21 328.71 17.97 328.82 17.8 328.93 17.71 329.04 17.69 329.15 17.74 329.26 17.87 329.37 18.07 329.48 18.35 329.59 18.7 329.7 19.12 329.81 19.62 329.92 20.19 330.03 20.82 330.14 21.53 330.25 22.31 330.36 23.16 330.47 24.07 330.58 25.05 330.69 26.09 330.8 27.2 331.02 29.59 331.13 30.88 331.24 32.22 331.46 35.07 331.9 41.34 332.01 43.02 332.12 44.74 332.34 48.28 332.78 55.74 333.66 71.51 333.76 73.38 333.86 75.24 334.07 78.95 334.48 86.25 334.58 88.03 334.68 89.8 334.89 93.25 335.3 99.84 335.4 101.41 335.5 102.93 335.71 105.87 335.81 107.28 335.91 108.65 336.12 111.24 336.22 112.47 336.32 113.64 336.53 115.84 336.63 116.86 336.73 117.82 336.94 119.58 337.04 120.37 337.14 121.1 337.25 121.78 337.35 122.39 337.45 122.94 337.56 123.43 337.66 123.85 337.76 124.21 337.86 124.51 337.97 124.74 338.07 124.91 338.17 125.01 338.27 125.05 338.38 125.02 338.48 124.93 338.58 124.78 338.68 124.56 338.79 124.27 338.89 123.93 338.99 123.51 339.09 123.03 339.2 122.5 339.3 121.9 339.4 121.24 339.5 120.52 339.61 119.74 339.81 118 339.91 117.05 340.02 116.04 340.22 113.86 340.34 112.56 340.45 111.19 340.68 108.28 341.14 101.81 341.25 100.07 341.37 98.29 341.59 94.6 342.05 86.84 342.17 84.84 342.28 82.81 342.51 78.71 342.97 70.39 343.88 54.04 344 52.08 344.11 50.15 344.34 46.39 344.46 44.57 344.57 42.78 344.8 39.34 344.91 37.69 345.03 36.1 345.26 33.07 345.37 31.63 345.49 30.26 345.72 27.71 345.83 26.53 345.95 25.42 346.06 24.37 346.17 23.4 346.29 22.5 346.4 21.68 346.52 20.93 346.63 20.25 346.75 19.65 346.86 19.13 346.98 18.69 347.09 18.33 347.2 18.05 347.32 17.84 347.43 17.72 347.55 17.68"/>
  <line class="cls-8" x1="14" y1="71.37" x2="14" y2="67.37"/>
  <line class="cls-8" x1="31.69" y1="71.37" x2="31.69" y2="68.97"/>
  <line class="cls-8" x1="49.39" y1="71.37" x2="49.39" y2="68.97"/>
  <line class="cls-8" x1="67.08" y1="71.37" x2="67.08" y2="68.97"/>
  <line class="cls-8" x1="84.78" y1="71.37" x2="84.78" y2="67.37"/>
  <text class="cls-11" transform="translate(78.28 85.37)"><tspan x="0" y="0">20</tspan></text>
  <line class="cls-8" x1="102.47" y1="71.37" x2="102.47" y2="68.97"/>
  <line class="cls-8" x1="120.17" y1="71.37" x2="120.17" y2="68.97"/>
  <line class="cls-8" x1="137.86" y1="71.37" x2="137.86" y2="68.97"/>
  <line class="cls-8" x1="155.56" y1="71.37" x2="155.56" y2="67.37"/>
  <text class="cls-11" transform="translate(149.06 85.37)"><tspan x="0" y="0">40</tspan></text>
  <line class="cls-8" x1="173.25" y1="71.37" x2="173.25" y2="68.97"/>
  <line class="cls-8" x1="190.95" y1="71.37" x2="190.95" y2="68.97"/>
  <line class="cls-8" x1="208.64" y1="71.37" x2="208.64" y2="68.97"/>
  <line class="cls-8" x1="226.34" y1="71.37" x2="226.34" y2="67.37"/>
  <text class="cls-11" transform="translate(219.84 85.37)"><tspan x="0" y="0">60</tspan></text>
  <line class="cls-8" x1="244.04" y1="71.37" x2="244.04" y2="68.97"/>
  <line class="cls-8" x1="261.73" y1="71.37" x2="261.73" y2="68.97"/>
  <line class="cls-8" x1="279.43" y1="71.37" x2="279.43" y2="68.97"/>
  <line class="cls-8" x1="297.12" y1="71.37" x2="297.12" y2="67.37"/>
  <text class="cls-11" transform="translate(290.62 85.37)"><tspan x="0" y="0">80</tspan></text>
  <line class="cls-8" x1="314.82" y1="71.37" x2="314.82" y2="68.97"/>
  <line class="cls-8" x1="332.52" y1="71.37" x2="332.52" y2="68.97"/>
  <line class="cls-8" x1="350.21" y1="71.37" x2="350.21" y2="68.97"/>
  <line class="cls-8" x1="7.05" y1="71.37" x2="354.5" y2="71.37"/>
  <line class="cls-8" x1="14" y1="135.79" x2="16.39" y2="135.79"/>
  <line class="cls-8" x1="14" y1="125.05" x2="18" y2="125.05"/>
  <text class="cls-11" transform="translate(0 129.05)"><tspan x="0" y="0">-1</tspan></text>
  <line class="cls-8" x1="14" y1="114.32" x2="16.39" y2="114.32"/>
  <line class="cls-8" x1="14" y1="103.58" x2="16.39" y2="103.58"/>
  <line class="cls-8" x1="14" y1="92.84" x2="16.39" y2="92.84"/>
  <line class="cls-8" x1="14" y1="82.1" x2="16.39" y2="82.1"/>
  <line class="cls-8" x1="14" y1="71.37" x2="18" y2="71.37"/>
  <line class="cls-8" x1="14" y1="60.63" x2="16.39" y2="60.63"/>
  <line class="cls-8" x1="14" y1="49.89" x2="16.39" y2="49.89"/>
  <line class="cls-8" x1="14" y1="39.16" x2="16.39" y2="39.16"/>
  <line class="cls-8" x1="14" y1="28.42" x2="16.39" y2="28.42"/>
  <line class="cls-8" x1="14" y1="17.68" x2="18" y2="17.68"/>
  <text class="cls-11" transform="translate(4 21.68)"><tspan x="0" y="0">1</tspan></text>
  <line class="cls-8" x1="14" y1="6.94" x2="16.39" y2="6.94"/>
  <line class="cls-7" x1="14" y1="142.23" x2="14" y2=".5"/>
  <polyline class="cls-4" points="14 187.57 14.1 187.62 14.2 187.77 14.31 188.02 14.41 188.38 14.51 188.83 14.61 189.38 14.71 190.02 14.82 190.77 14.92 191.61 15.02 192.56 15.12 193.59 15.22 194.72 15.32 195.94 15.43 197.25 15.63 200.15 15.73 201.73 15.84 203.4 16.04 206.98 16.14 208.9 16.25 210.88 16.45 215.09 16.56 217.3 16.66 219.58 16.86 224.34 17.27 234.59 17.37 237.28 17.47 240.02 17.68 245.65 18.09 257.34 18.91 281.83 19.01 284.94 19.11 288.04 19.32 294.23 19.73 306.45 20.54 329.58 20.65 332.51 20.77 335.39 20.99 340.95 21.1 343.62 21.21 346.23 21.43 351.21 21.54 353.58 21.65 355.87 21.88 360.18 21.98 362.2 22.1 364.12 22.32 367.68 22.43 369.31 22.54 370.84 22.65 372.27 22.76 373.59 22.87 374.8 22.98 375.9 23.09 376.9 23.2 377.78 23.32 378.56 23.43 379.22 23.54 379.77 23.65 380.2 23.76 380.52 23.87 380.73 23.98 380.83 24.09 380.81 24.2 380.68 24.31 380.43 24.43 380.07 24.54 379.61 24.65 379.03 24.76 378.34 24.87 377.54 24.98 376.63 25.09 375.61 25.2 374.5 25.31 373.27 25.42 371.95 25.54 370.52 25.64 369 25.87 365.67 25.98 363.86 26.09 361.97 26.31 357.93 26.75 348.88 26.86 346.44 26.98 343.93 27.2 338.73 27.64 327.67 27.75 324.98 27.85 322.26 28.06 316.73 28.47 305.38 29.3 282.28 29.4 279.41 29.5 276.56 29.71 270.91 30.13 259.92 30.23 257.25 30.33 254.63 30.54 249.5 30.95 239.81 31.06 237.51 31.16 235.28 31.37 231 31.47 228.96 31.58 226.98 31.79 223.23 31.89 221.46 31.99 219.77 32.2 216.61 32.3 215.14 32.41 213.75 32.61 211.23 32.72 210.09 32.82 209.03 32.92 208.06 33.03 207.17 33.13 206.37 33.23 205.66 33.34 205.03 33.44 204.49 33.54 204.04 33.65 203.67 33.75 203.4 33.86 203.21 33.96 203.11 34.06 203.09 34.16 203.16 34.27 203.33 34.37 203.57 34.47 203.89 34.57 204.3 34.68 204.79 34.78 205.35 34.88 206 34.98 206.72 35.08 207.52 35.18 208.4 35.29 209.36 35.39 210.38 35.49 211.48 35.59 212.66 35.69 213.9 35.89 216.58 36 218.02 36.1 219.52 36.3 222.71 36.71 229.75 36.81 231.65 36.91 233.58 37.11 237.59 37.52 246.06 37.62 248.26 37.72 250.49 37.92 255.03 38.33 264.34 39.14 283.32 39.24 285.68 39.34 288.03 39.55 292.68 39.95 301.75 40.06 303.95 40.16 306.13 40.36 310.38 40.77 318.45 40.88 320.52 40.99 322.54 41.21 326.4 41.32 328.25 41.43 330.04 41.65 333.41 41.76 335 41.87 336.52 42.09 339.36 42.2 340.66 42.31 341.9 42.53 344.15 42.64 345.15 42.75 346.08 42.86 346.94 42.97 347.71 43.08 348.41 43.19 349.02 43.3 349.56 43.41 350.02 43.52 350.4 43.63 350.69 43.74 350.91 43.85 351.05 43.96 351.11 44.07 351.09 44.18 350.99 44.29 350.82 44.4 350.57 44.51 350.24 44.62 349.84 44.73 349.37 44.84 348.82 44.95 348.2 45.06 347.52 45.17 346.76 45.28 345.93 45.39 345.04 45.61 343.07 45.72 342 45.83 340.86 46.05 338.41 46.16 337.11 46.27 335.76 46.49 332.91 46.93 326.68 47.04 325.04 47.15 323.35 47.38 319.9 47.81 312.69 47.92 310.96 48.02 309.23 48.23 305.72 48.64 298.66 49.46 284.77 49.56 283.08 49.66 281.42 49.87 278.16 50.28 271.93 50.38 270.45 50.49 268.99 50.69 266.18 51.1 260.98 51.21 259.78 51.31 258.62 51.52 256.42 51.62 255.38 51.72 254.39 51.93 252.54 52.03 251.69 52.13 250.88 52.23 250.12 52.34 249.4 52.44 248.74 52.54 248.12 52.64 247.55 52.75 247.02 52.85 246.55 52.95 246.13 53.06 245.75 53.16 245.42 53.26 245.14 53.36 244.9 53.47 244.72 53.57 244.58 53.67 244.49 53.78 244.45 53.88 244.45 53.98 244.5 54.08 244.59 54.19 244.73 54.29 244.91 54.39 245.14 54.5 245.43 54.61 245.77 54.73 246.16 54.84 246.59 54.95 247.07 55.06 247.59 55.29 248.77 55.39 249.42 55.51 250.11 55.73 251.59 55.84 252.38 55.95 253.21 56.18 254.95 56.29 255.86 56.4 256.8 56.62 258.75 57.07 262.88 57.96 271.66 58.07 272.78 58.18 273.89 58.4 276.1 58.85 280.43 58.96 281.48 59.07 282.52 59.29 284.54 59.74 288.36 59.85 289.25 59.96 290.13 60.18 291.81 60.3 292.6 60.41 293.37 60.63 294.82 60.74 295.5 60.85 296.15 61.07 297.36 61.19 297.91 61.3 298.44 61.52 299.39 61.63 299.81 61.74 300.19 61.85 300.55 61.96 300.87 62.07 301.16 62.18 301.42 62.29 301.65 62.39 301.85 62.5 302.02 62.61 302.15 62.72 302.26 62.83 302.34 62.94 302.39 63.05 302.41 63.16 302.4 63.27 302.36 63.38 302.3 63.49 302.21 63.6 302.1 63.71 301.96 63.82 301.8 63.93 301.61 64.04 301.41 64.14 301.18 64.25 300.93 64.36 300.67 64.58 300.08 64.69 299.77 64.8 299.43 65.02 298.73 65.13 298.36 65.24 297.98 65.46 297.2 65.89 295.55 66.33 293.86 66.77 292.21 66.88 291.81 66.99 291.41 67.21 290.65 67.32 290.29 67.43 289.93 67.64 289.26 67.75 288.94 67.86 288.64 67.97 288.35 68.08 288.08 68.19 287.82 68.3 287.58 68.41 287.36 68.52 287.16 68.62 286.98 68.72 286.82 68.82 286.68 68.93 286.56 69.03 286.45 69.13 286.36 69.23 286.29 69.34 286.24 69.44 286.2 69.54 286.19 69.64 286.19 69.74 286.21 69.84 286.24 69.95 286.3 70.05 286.37 70.15 286.46 70.25 286.57 70.36 286.69 70.46 286.83 70.56 286.99 70.66 287.16 70.76 287.36 70.97 287.78 71.07 288.02 71.17 288.27 71.38 288.81 71.48 289.1 71.58 289.4 71.79 290.04 71.89 290.38 71.99 290.72 72.19 291.43 72.6 292.93 72.7 293.32 72.81 293.71 73.01 294.5 73.41 296.06 73.52 296.45 73.62 296.83 73.82 297.58 73.93 297.94 74.03 298.3 74.23 298.98 74.33 299.31 74.43 299.62 74.64 300.21 74.74 300.48 74.84 300.75 75.05 301.22 75.16 301.44 75.27 301.65 75.38 301.83 75.49 301.99 75.6 302.12 75.71 302.23 75.82 302.32 75.93 302.37 76.04 302.4 76.15 302.4 76.27 302.38 76.38 302.32 76.48 302.23 76.6 302.11 76.71 301.97 76.82 301.79 76.93 301.57 77.04 301.33 77.15 301.06 77.26 300.75 77.37 300.41 77.48 300.04 77.7 299.2 77.81 298.73 77.92 298.23 78.14 297.13 78.25 296.54 78.37 295.91 78.59 294.56 78.7 293.85 78.81 293.1 79.03 291.53 79.47 288.07 79.58 287.15 79.69 286.21 79.91 284.26 80.36 280.16 80.47 279.1 80.58 278.02 80.8 275.86 81.24 271.45 82.13 262.73 82.23 261.75 82.33 260.79 82.54 258.9 82.64 257.98 82.75 257.09 82.95 255.35 83.06 254.52 83.16 253.71 83.37 252.17 83.47 251.44 83.57 250.74 83.78 249.43 83.88 248.83 83.98 248.26 84.09 247.73 84.19 247.23 84.29 246.77 84.4 246.35 84.5 245.97 84.61 245.63 84.71 245.33 84.81 245.07 84.91 244.86 85.02 244.68 85.12 244.56 85.22 244.48 85.33 244.44 85.43 244.45 85.54 244.51 85.64 244.62 85.74 244.77 85.84 244.97 85.95 245.22 86.05 245.52 86.15 245.86 86.26 246.26 86.36 246.7 86.47 247.2 86.57 247.74 86.67 248.33 86.77 248.97 86.88 249.66 87.08 251.17 87.19 252 87.29 252.88 87.5 254.77 87.7 256.84 87.91 259.08 88.01 260.27 88.12 261.49 88.32 264.06 88.73 269.63 88.84 271.08 88.94 272.56 89.14 275.59 89.54 281.96 90.36 295.5 90.46 297.23 90.56 298.97 90.76 302.45 91.16 309.37 91.97 322.61 92.07 324.17 92.18 325.7 92.38 328.68 92.48 330.13 92.58 331.53 92.79 334.24 92.89 335.53 92.99 336.79 93.19 339.16 93.29 340.28 93.39 341.36 93.59 343.35 93.7 344.27 93.8 345.15 93.9 345.96 94 346.72 94.1 347.42 94.2 348.06 94.3 348.65 94.4 349.17 94.5 349.63 94.61 350.04 94.71 350.38 94.81 350.65 94.91 350.86 95.01 351.01 95.11 351.09 95.22 351.11 95.32 351.05 95.43 350.91 95.54 350.7 95.65 350.41 95.76 350.03 95.87 349.58 95.98 349.05 96.09 348.43 96.2 347.75 96.31 346.98 96.42 346.13 96.53 345.21 96.64 344.21 96.75 343.13 96.97 340.75 97.08 339.45 97.19 338.08 97.41 335.13 97.52 333.54 97.63 331.9 97.85 328.41 97.96 326.57 98.07 324.68 98.29 320.72 98.73 312.18 98.84 309.93 98.95 307.63 99.17 302.94 99.61 293.16 100.48 272.76 100.59 270.19 100.7 267.63 100.93 262.52 101.36 252.52 101.47 250.09 101.58 247.68 101.81 242.97 102.24 234.06 102.34 232.1 102.45 230.18 102.65 226.49 102.75 224.73 102.86 223.02 103.06 219.79 103.16 218.26 103.27 216.79 103.47 214.07 103.57 212.81 103.68 211.61 103.88 209.45 103.98 208.48 104.09 207.59 104.19 206.77 104.29 206.04 104.39 205.38 104.5 204.81 104.6 204.31 104.7 203.9 104.81 203.57 104.91 203.33 105.01 203.17 105.11 203.09 105.22 203.11 105.32 203.2 105.42 203.38 105.52 203.65 105.63 204.01 105.73 204.45 105.83 204.98 105.93 205.59 106.04 206.29 106.14 207.07 106.24 207.93 106.34 208.88 106.45 209.92 106.55 211.03 106.75 213.5 106.86 214.86 106.96 216.29 107.16 219.39 107.27 221.05 107.37 222.78 107.57 226.46 107.98 234.6 108.09 236.79 108.19 239.04 108.39 243.7 108.8 253.6 108.91 256.41 109.02 259.25 109.25 265.07 109.69 277.09 110.58 301.84 110.69 304.93 110.8 308 111.02 314.09 111.47 325.93 111.58 328.81 111.69 331.63 111.91 337.13 112.36 347.45 112.47 349.86 112.58 352.21 112.8 356.68 112.91 358.8 113.02 360.83 113.25 364.63 113.36 366.4 113.47 368.08 113.58 369.66 113.69 371.15 113.8 372.53 113.91 373.81 114.02 374.99 114.13 376.07 114.25 377.04 114.36 377.9 114.47 378.65 114.58 379.3 114.69 379.83 114.8 380.25 114.91 380.56 115.02 380.75 115.13 380.83 115.25 380.8 115.36 380.65 115.47 380.39 115.58 380.02 115.69 379.53 115.8 378.93 115.91 378.22 116.02 377.4 116.13 376.48 116.24 375.46 116.35 374.33 116.46 373.1 116.57 371.77 116.79 368.79 116.89 367.16 117 365.43 117.22 361.68 117.33 359.67 117.44 357.57 117.66 353.13 117.77 350.78 117.88 348.36 118.09 343.29 118.53 332.33 119.4 307.93 119.51 304.71 119.62 301.47 119.84 294.93 120.27 281.71 121.14 255.65 121.25 252.5 121.36 249.39 121.58 243.29 122.02 231.69 122.13 228.94 122.24 226.25 122.45 221.08 122.89 211.65 122.99 209.65 123.09 207.72 123.3 204.09 123.4 202.4 123.5 200.79 123.7 197.84 123.81 196.49 123.91 195.24 124.01 194.07 124.11 193 124.21 192.03 124.32 191.15 124.42 190.36 124.52 189.67 124.62 189.07 124.72 188.58 124.82 188.18 124.93 187.88 125.03 187.68 125.13 187.59 125.23 187.59 125.33 187.68 125.43 187.88 125.54 188.18 125.64 188.57 125.74 189.07 125.84 189.66 125.94 190.35 126.04 191.13 126.14 192.02 126.25 192.99 126.35 194.06 126.45 195.22 126.55 196.48 126.65 197.82 126.75 199.25 126.96 202.38 127.06 204.07 127.16 205.84 127.37 209.62 127.77 218.08 127.88 220.37 127.98 222.73 128.18 227.63 128.59 238.09 129.4 261.1 129.51 264.36 129.62 267.66 129.84 274.29 130.28 287.66 130.39 291.01 130.5 294.34 130.72 300.97 131.16 313.93 131.27 317.09 131.39 320.21 131.61 326.32 132.05 337.89 132.16 340.63 132.27 343.3 132.49 348.43 132.93 357.73 133.04 359.85 133.15 361.87 133.37 365.64 133.48 367.38 133.59 369.02 133.81 372 133.92 373.33 134.03 374.56 134.14 375.68 134.25 376.69 134.36 377.59 134.47 378.39 134.59 379.07 134.7 379.65 134.81 380.11 134.91 380.45 135.03 380.69 135.14 380.82 135.25 380.82 135.36 380.73 135.47 380.51 135.58 380.19 135.69 379.75 135.8 379.21 135.91 378.55 136.02 377.79 136.13 376.92 136.24 375.95 136.35 374.86 136.46 373.68 136.56 372.48 136.66 371.2 136.87 368.38 136.98 366.85 137.08 365.23 137.29 361.77 137.39 359.93 137.49 358.01 137.7 353.97 138.11 345.12 138.21 342.76 138.31 340.35 138.52 335.38 138.93 324.92 139.75 302.57 139.86 299.7 139.96 296.82 140.17 291.06 140.58 279.6 140.68 276.76 140.79 273.94 140.99 268.37 141.4 257.55 141.5 254.93 141.61 252.36 141.81 247.33 142.23 237.87 142.33 235.65 142.43 233.48 142.64 229.32 143.05 221.82 143.16 219.98 143.27 218.23 143.38 216.56 143.5 214.99 143.61 213.51 143.72 212.13 143.94 209.64 144.06 208.54 144.16 207.54 144.28 206.65 144.39 205.84 144.5 205.15 144.61 204.55 144.72 204.06 144.84 203.66 144.95 203.37 145.06 203.18 145.17 203.09 145.28 203.11 145.39 203.22 145.5 203.44 145.62 203.75 145.73 204.17 145.84 204.68 145.95 205.29 146.06 206 146.17 206.8 146.29 207.7 146.39 208.68 146.51 209.76 146.62 210.92 146.73 212.17 146.84 213.51 147.07 216.43 147.18 218.01 147.29 219.66 147.51 223.19 147.63 225.06 147.73 226.99 147.96 231.04 148.41 239.82 148.52 242.13 148.63 244.49 148.85 249.32 149.3 259.35 150.19 280.15 150.3 282.71 150.41 285.26 150.63 290.31 151.07 300.18 151.18 302.57 151.29 304.94 151.5 309.56 151.94 318.3 152.05 320.36 152.16 322.38 152.38 326.23 152.49 328.08 152.6 329.86 152.82 333.23 152.93 334.82 153.04 336.34 153.26 339.18 153.37 340.49 153.48 341.73 153.7 343.98 153.81 345 153.91 345.93 154.02 346.8 154.13 347.58 154.24 348.29 154.35 348.91 154.46 349.46 154.57 349.93 154.68 350.32 154.79 350.64 154.9 350.87 155.01 351.02 155.12 351.1 155.23 351.1 155.34 351.02 155.45 350.87 155.56 350.64 155.67 350.33 155.78 349.95 155.89 349.5 156 348.98 156.11 348.38 156.22 347.72 156.32 346.98 156.43 346.18 156.54 345.31 156.76 343.39 156.87 342.34 156.98 341.22 157.2 338.83 157.3 337.64 157.41 336.4 157.61 333.81 158.02 328.15 158.12 326.65 158.22 325.11 158.43 321.97 158.84 315.4 158.94 313.7 159.04 312 159.24 308.54 159.65 301.55 160.47 287.62 160.57 285.93 160.68 284.24 160.88 280.93 161.29 274.56 161.39 273.04 161.49 271.54 161.7 268.63 162.11 263.21 162.21 261.94 162.31 260.72 162.51 258.38 162.62 257.28 162.72 256.22 162.92 254.22 163.02 253.28 163.13 252.4 163.23 251.55 163.33 250.75 163.43 250 163.54 249.3 163.74 248.04 163.85 247.43 163.96 246.88 164.07 246.39 164.18 245.95 164.29 245.57 164.41 245.24 164.52 244.97 164.63 244.76 164.74 244.6 164.85 244.5 164.96 244.45 165.07 244.45 165.18 244.51 165.29 244.62 165.4 244.78 165.51 244.99 165.63 245.25 165.73 245.56 165.84 245.92 165.96 246.33 166.07 246.78 166.18 247.27 166.4 248.4 166.51 249.01 166.62 249.67 166.84 251.11 166.95 251.87 167.06 252.67 167.29 254.37 167.39 255.26 167.51 256.18 167.73 258.08 168.17 262.14 169.06 270.84 169.17 271.95 169.28 273.06 169.5 275.27 169.95 279.59 170.06 280.65 170.16 281.7 170.39 283.73 170.83 287.6 170.93 288.45 171.04 289.29 171.25 290.89 171.35 291.66 171.45 292.4 171.66 293.82 171.76 294.49 171.86 295.14 172.07 296.35 172.18 296.92 172.28 297.46 172.48 298.46 172.59 298.91 172.69 299.34 172.8 299.74 172.9 300.11 173 300.45 173.11 300.77 173.21 301.06 173.31 301.31 173.42 301.54 173.52 301.75 173.63 301.92 173.73 302.07 173.83 302.19 173.93 302.28 174.04 302.35 174.14 302.39 174.24 302.41 174.35 302.4 174.45 302.36 174.56 302.31 174.66 302.22 174.76 302.12 174.86 302 174.97 301.85 175.07 301.68 175.18 301.49 175.28 301.29 175.38 301.06 175.48 300.82 175.59 300.56 175.8 300 176 299.38 176.21 298.72 176.63 297.26 177.45 294.12 177.65 293.34 177.86 292.57 178.26 291.1 178.36 290.75 178.47 290.41 178.67 289.75 178.77 289.44 178.87 289.13 179.07 288.57 179.18 288.3 179.28 288.05 179.38 287.82 179.48 287.59 179.58 287.39 179.68 287.19 179.78 287.02 179.88 286.86 179.98 286.72 180.09 286.59 180.19 286.48 180.29 286.38 180.39 286.31 180.49 286.25 180.59 286.21 180.7 286.19 180.8 286.18 180.9 286.2 181 286.23 181.1 286.28 181.2 286.34 181.31 286.43 181.41 286.53 181.51 286.65 181.61 286.79 181.71 286.94 181.81 287.11 181.91 287.29 182.02 287.49 182.12 287.7 182.32 288.18 182.42 288.43 182.52 288.71 182.72 289.29 183.13 290.58 183.23 290.93 183.33 291.28 183.54 292.01 183.94 293.54 184.16 294.38 184.38 295.23 184.82 296.9 184.93 297.31 185.04 297.7 185.26 298.47 185.37 298.84 185.48 299.2 185.7 299.87 185.81 300.18 185.92 300.48 186.03 300.76 186.14 301.02 186.25 301.26 186.36 301.48 186.47 301.68 186.58 301.86 186.69 302.01 186.8 302.14 186.91 302.25 187.02 302.32 187.13 302.38 187.24 302.4 187.35 302.4 187.46 302.37 187.57 302.31 187.68 302.22 187.79 302.1 187.9 301.95 188.01 301.77 188.12 301.56 188.23 301.31 188.34 301.04 188.45 300.73 188.56 300.39 188.67 300.02 188.78 299.61 188.89 299.18 189 298.71 189.22 297.68 189.33 297.11 189.44 296.52 189.66 295.24 189.77 294.56 189.88 293.84 190.1 292.33 190.21 291.54 190.32 290.72 190.54 289 190.98 285.29 191.09 284.38 191.19 283.45 191.39 281.55 191.81 277.62 192.63 269.45 192.73 268.43 192.83 267.41 193.04 265.38 193.45 261.44 193.55 260.49 193.65 259.55 193.86 257.72 194.27 254.3 194.37 253.5 194.47 252.73 194.68 251.26 194.78 250.57 194.88 249.92 195.09 248.7 195.19 248.14 195.29 247.62 195.4 247.13 195.5 246.68 195.6 246.27 195.7 245.9 195.81 245.57 195.91 245.28 196.01 245.03 196.11 244.82 196.22 244.66 196.32 244.54 196.42 244.47 196.53 244.44 196.63 244.46 196.73 244.52 196.83 244.63 196.94 244.79 197.04 245 197.14 245.25 197.25 245.55 197.35 245.9 197.45 246.3 197.55 246.74 197.66 247.28 197.77 247.88 197.89 248.53 198 249.23 198.11 250 198.22 250.82 198.44 252.62 198.56 253.6 198.66 254.64 198.89 256.86 199.33 261.9 199.45 263.28 199.56 264.7 199.78 267.67 200.22 274.07 201.11 288.29 201.22 290.16 201.34 292.04 201.56 295.84 202 303.48 202.11 305.39 202.23 307.29 202.45 311.06 202.89 318.41 203 320.2 203.12 321.95 203.34 325.38 203.45 327.04 203.56 328.66 203.79 331.79 203.89 333.29 204.01 334.73 204.23 337.49 204.34 338.79 204.45 340.04 204.68 342.36 204.78 343.41 204.89 344.4 205 345.32 205.11 346.18 205.22 346.98 205.33 347.72 205.44 348.38 205.55 348.97 205.66 349.5 205.77 349.95 205.88 350.33 205.98 350.63 206.09 350.86 206.2 351.02 206.31 351.1 206.42 351.1 206.53 351.03 206.64 350.88 206.75 350.65 206.86 350.34 206.97 349.95 207.08 349.48 207.19 348.94 207.3 348.32 207.41 347.62 207.52 346.84 207.63 345.98 207.73 345.05 207.84 344.04 207.95 342.96 208.17 340.57 208.28 339.27 208.39 337.9 208.61 334.94 208.72 333.36 208.82 331.72 209.04 328.24 209.15 326.41 209.26 324.52 209.48 320.57 209.92 312.06 210.03 309.82 210.14 307.54 210.36 302.87 210.79 293.15 211.66 272.85 211.77 270.47 211.87 268.08 212.07 263.34 212.48 254.04 212.58 251.76 212.68 249.5 212.89 245.08 213.3 236.64 213.4 234.63 213.5 232.66 213.7 228.87 213.81 227.04 213.91 225.27 214.11 221.9 214.21 220.3 214.31 218.76 214.52 215.87 214.62 214.53 214.72 213.25 214.93 210.9 215.03 209.84 215.13 208.84 215.23 207.93 215.33 207.09 215.43 206.32 215.54 205.64 215.64 205.03 215.74 204.5 215.84 204.06 215.95 203.7 216.05 203.42 216.15 203.23 216.25 203.12 216.35 203.09 216.45 203.15 216.56 203.29 216.66 203.52 216.76 203.83 216.86 204.23 216.97 204.71 217.07 205.28 217.17 205.93 217.27 206.66 217.37 207.48 217.47 208.38 217.57 209.37 217.68 210.43 217.78 211.58 217.88 212.81 217.98 214.11 218.19 216.96 218.3 218.63 218.41 220.38 218.63 224.14 219.07 232.62 219.18 234.92 219.29 237.29 219.51 242.23 219.95 252.82 220.07 255.6 220.18 258.42 220.39 264.18 220.84 276.11 221.72 300.71 221.83 303.79 221.94 306.85 222.16 312.92 222.61 324.75 222.72 327.62 222.83 330.45 223.05 335.96 223.49 346.33 223.6 348.77 223.71 351.14 223.93 355.65 224.04 357.79 224.15 359.86 224.38 363.73 224.48 365.53 224.59 367.25 224.71 368.87 224.82 370.39 224.93 371.82 225.04 373.15 225.15 374.38 225.26 375.5 225.36 376.46 225.47 377.32 225.57 378.1 225.67 378.77 225.77 379.36 225.88 379.84 225.98 380.23 226.08 380.53 226.19 380.72 226.29 380.82 226.39 380.82 226.5 380.72 226.6 380.53 226.7 380.23 226.81 379.84 226.91 379.35 227.01 378.76 227.11 378.07 227.22 377.29 227.32 376.42 227.42 375.45 227.53 374.38 227.73 371.97 227.84 370.62 227.94 369.19 228.14 366.06 228.25 364.37 228.35 362.59 228.56 358.8 228.66 356.79 228.77 354.69 228.97 350.29 229.38 340.68 229.49 338.12 229.59 335.5 229.8 330.11 230.21 318.77 230.31 315.84 230.41 312.87 230.62 306.85 231.04 294.53 231.86 269.56 231.96 266.54 232.06 263.52 232.26 257.57 232.67 246 232.77 243.2 232.87 240.43 233.07 235.04 233.48 224.88 233.58 222.48 233.68 220.14 233.88 215.66 233.98 213.53 234.08 211.47 234.29 207.57 234.39 205.73 234.49 203.97 234.69 200.71 234.79 199.2 234.89 197.78 235.09 195.2 235.2 194.05 235.3 192.98 235.4 192.02 235.5 191.14 235.6 190.36 235.7 189.67 235.8 189.08 235.9 188.59 236 188.19 236.11 187.89 236.21 187.69 236.31 187.59 236.41 187.58 236.51 187.68 236.61 187.87 236.71 188.16 236.81 188.54 236.91 189.03 237.02 189.61 237.12 190.29 237.22 191.06 237.32 191.93 237.42 192.89 237.52 193.94 237.62 195.09 237.72 196.32 237.93 199.06 238.03 200.56 238.13 202.14 238.33 205.56 238.44 207.55 238.55 209.63 238.77 214.05 239.21 223.87 239.32 226.52 239.43 229.23 239.65 234.84 240.09 246.75 240.2 249.85 240.31 252.98 240.52 259.36 240.97 272.44 241.84 298.99 241.95 302.27 242.06 305.52 242.28 311.95 242.72 324.38 242.83 327.38 242.94 330.32 243.16 336.04 243.6 346.71 243.71 349.2 243.82 351.61 244.04 356.19 244.14 358.36 244.25 360.43 244.47 364.31 244.59 366.11 244.7 367.82 244.81 369.42 244.91 370.93 245.02 372.33 245.13 373.63 245.24 374.83 245.35 375.92 245.45 376.84 245.56 377.67 245.66 378.4 245.76 379.04 245.86 379.58 245.97 380.02 246.07 380.37 246.17 380.62 246.27 380.78 246.38 380.84 246.48 380.8 246.58 380.66 246.68 380.43 246.79 380.1 246.89 379.68 246.99 379.16 247.09 378.55 247.2 377.84 247.3 377.05 247.4 376.16 247.5 375.18 247.61 374.11 247.81 371.71 247.91 370.39 248.02 368.98 248.22 365.91 248.32 364.26 248.42 362.53 248.63 358.86 248.73 356.91 248.83 354.9 249.04 350.68 249.45 341.52 250.27 320.93 250.37 318.19 250.47 315.43 250.68 309.84 251.09 298.48 251.9 275.69 252.02 272.66 252.13 269.66 252.35 263.73 252.79 252.35 252.9 249.63 253.02 246.95 253.23 241.76 253.68 232.15 253.79 229.93 253.9 227.77 254.13 223.71 254.23 221.79 254.34 219.97 254.57 216.57 254.68 215 254.79 213.53 254.9 212.15 255.01 210.86 255.12 209.67 255.23 208.58 255.34 207.58 255.46 206.68 255.57 205.88 255.68 205.18 255.79 204.59 255.9 204.09 256.01 203.69 256.12 203.39 256.23 203.19 256.34 203.1 256.45 203.1 256.57 203.21 256.68 203.41 256.79 203.72 256.9 204.12 257.01 204.62 257.12 205.21 257.23 205.9 257.34 206.68 257.45 207.56 257.56 208.53 257.68 209.59 257.79 210.73 257.9 211.97 258.12 214.68 258.23 216.15 258.34 217.71 258.56 221.05 259.01 228.55 259.11 230.45 259.22 232.39 259.42 236.43 259.84 245 260.66 263.58 260.77 265.98 260.87 268.4 261.08 273.25 261.49 282.95 262.32 301.77 262.43 304.02 262.53 306.24 262.74 310.57 263.15 318.78 263.25 320.73 263.36 322.62 263.57 326.27 263.98 332.91 264.08 334.42 264.19 335.88 264.39 338.61 264.5 339.88 264.6 341.09 264.81 343.3 264.91 344.31 265.02 345.25 265.12 346.12 265.22 346.92 265.33 347.65 265.43 348.32 265.54 348.91 265.64 349.43 265.74 349.87 265.84 350.25 265.94 350.56 266.04 350.8 266.14 350.97 266.25 351.07 266.35 351.11 266.45 351.08 266.55 350.98 266.65 350.82 266.75 350.6 266.86 350.31 266.96 349.96 267.06 349.54 267.16 349.06 267.27 348.52 267.37 347.92 267.47 347.26 267.57 346.54 267.67 345.77 267.77 344.93 267.88 344.05 268.08 342.12 268.18 341.08 268.28 339.99 268.48 337.68 268.89 332.52 268.99 331.13 269.09 329.71 269.3 326.76 269.7 320.52 270.52 307.06 270.62 305.32 270.72 303.58 270.92 300.09 271.33 293.13 272.14 279.69 272.25 277.95 272.36 276.25 272.58 272.92 273.02 266.68 273.13 265.22 273.24 263.79 273.46 261.07 273.57 259.79 273.68 258.54 273.9 256.2 274.01 255.1 274.13 254.05 274.23 253.06 274.34 252.11 274.45 251.22 274.57 250.38 274.79 248.88 274.89 248.2 275 247.58 275.12 247.02 275.23 246.52 275.34 246.06 275.45 245.67 275.56 245.33 275.67 245.04 275.78 244.82 275.89 244.64 276 244.52 276.11 244.46 276.22 244.44 276.33 244.48 276.44 244.57 276.55 244.72 276.66 244.91 276.77 245.16 276.88 245.45 276.99 245.79 277.1 246.18 277.21 246.61 277.32 247.09 277.43 247.61 277.54 248.16 277.65 248.77 277.87 250.09 277.98 250.8 278.09 251.55 278.31 253.15 278.42 254 278.53 254.87 278.75 256.7 279.19 260.62 279.3 261.58 279.4 262.56 279.61 264.53 280.02 268.59 280.84 276.79 280.94 277.79 281.04 278.79 281.25 280.76 281.66 284.55 281.77 285.46 281.87 286.35 282.07 288.08 282.48 291.31 282.59 292.06 282.69 292.79 282.89 294.17 283 294.83 283.1 295.46 283.31 296.64 283.41 297.19 283.51 297.71 283.62 298.21 283.72 298.68 283.82 299.12 283.93 299.53 284.13 300.27 284.23 300.6 284.34 300.9 284.44 301.17 284.54 301.42 284.64 301.63 284.75 301.82 284.85 301.98 284.95 302.12 285.06 302.23 285.16 302.31 285.26 302.37 285.36 302.4 285.47 302.41 285.57 302.39 285.67 302.34 285.77 302.28 285.89 302.18 286 302.06 286.11 301.91 286.22 301.74 286.33 301.54 286.45 301.32 286.56 301.09 286.67 300.82 286.78 300.55 286.89 300.25 287.11 299.61 287.22 299.26 287.34 298.9 287.56 298.15 287.67 297.76 287.78 297.36 288 296.53 288.45 294.83 289.34 291.47 289.45 291.07 289.57 290.69 289.79 289.95 289.9 289.6 290.01 289.26 290.23 288.63 290.34 288.34 290.46 288.06 290.57 287.8 290.68 287.56 290.79 287.33 290.9 287.13 291.01 286.94 291.13 286.77 291.24 286.63 291.35 286.5 291.46 286.4 291.57 286.31 291.68 286.25 291.79 286.21 291.91 286.19 292.02 286.19 292.13 286.21 292.24 286.25 292.35 286.32 292.46 286.41 292.57 286.52 292.68 286.64 292.8 286.79 292.91 286.96 293.02 287.15 293.13 287.35 293.24 287.57 293.35 287.81 293.46 288.06 293.57 288.34 293.79 288.93 293.89 289.24 294 289.57 294.22 290.27 294.66 291.79 294.77 292.19 294.88 292.6 295.1 293.43 295.64 295.54 295.75 295.95 295.97 296.78 296.41 298.35 296.52 298.72 296.63 299.08 296.85 299.75 296.96 300.07 297.07 300.38 297.29 300.93 297.39 301.17 297.5 301.4 297.61 301.61 297.72 301.79 297.83 301.95 297.94 302.09 298.05 302.21 298.16 302.3 298.27 302.36 298.38 302.4 298.49 302.41 298.6 302.39 298.71 302.34 298.82 302.26 298.93 302.16 299.04 302.02 299.14 301.86 299.25 301.66 299.36 301.43 299.47 301.17 299.58 300.88 299.69 300.56 299.8 300.2 299.91 299.81 300.01 299.43 300.12 299.01 300.32 298.09 300.42 297.59 300.52 297.07 300.73 295.94 300.83 295.33 300.93 294.7 301.14 293.37 301.54 290.42 301.65 289.63 301.75 288.81 301.95 287.13 302.36 283.54 303.18 275.74 303.28 274.73 303.38 273.72 303.59 271.68 304 267.6 304.1 266.59 304.2 265.59 304.4 263.6 304.81 259.77 304.91 258.84 305.02 257.94 305.22 256.18 305.32 255.34 305.42 254.52 305.63 252.94 305.73 252.19 305.83 251.47 306.04 250.11 306.14 249.48 306.24 248.88 306.45 247.79 306.56 247.25 306.66 246.76 306.78 246.31 306.89 245.91 307 245.55 307.11 245.24 307.22 244.98 307.33 244.77 307.44 244.61 307.55 244.5 307.66 244.45 307.77 244.45 307.88 244.5 307.99 244.6 308.11 244.76 308.22 244.98 308.32 245.25 308.44 245.58 308.55 245.96 308.66 246.4 308.77 246.9 308.88 247.45 308.99 248.05 309.1 248.72 309.21 249.43 309.32 250.21 309.54 251.92 309.65 252.86 309.77 253.84 309.98 255.98 310.1 257.12 310.21 258.31 310.43 260.84 310.87 266.45 310.98 267.95 311.09 269.49 311.31 272.69 311.76 279.47 311.87 281.23 311.98 283.02 312.2 286.66 312.64 294.13 313.53 309.29 313.63 311.04 313.73 312.77 313.94 316.19 314.36 322.8 314.46 324.39 314.56 325.95 314.77 328.98 315.18 334.62 315.29 335.93 315.39 337.19 315.59 339.59 315.7 340.71 315.8 341.79 316.01 343.78 316.11 344.7 316.22 345.56 316.32 346.36 316.42 347.1 316.52 347.79 316.63 348.41 316.73 348.97 316.83 349.47 316.94 349.9 317.04 350.27 317.14 350.57 317.25 350.81 317.35 350.98 317.45 351.08 317.56 351.11 317.66 351.07 317.77 350.97 317.87 350.79 317.97 350.55 318.07 350.23 318.18 349.85 318.28 349.39 318.38 348.86 318.49 348.27 318.59 347.6 318.7 346.87 318.8 346.06 318.9 345.19 319 344.25 319.11 343.24 319.31 341.03 319.42 339.82 319.52 338.55 319.73 335.82 320.14 329.65 320.24 328 320.34 326.3 320.55 322.74 320.95 315.07 321.76 297.96 321.86 295.69 321.97 293.4 322.17 288.77 322.57 279.35 323.38 260.45 323.48 258.13 323.59 255.83 323.79 251.29 324.19 242.52 324.29 240.41 324.39 238.34 324.6 234.31 325 226.8 325.11 225.04 325.21 223.34 325.41 220.12 325.51 218.6 325.61 217.14 325.81 214.41 325.91 213.14 326.02 211.95 326.12 210.82 326.22 209.77 326.32 208.78 326.42 207.88 326.52 207.04 326.63 206.29 326.73 205.56 326.84 204.92 326.95 204.37 327.06 203.92 327.17 203.57 327.28 203.31 327.39 203.15 327.5 203.09 327.61 203.13 327.72 203.26 327.83 203.49 327.94 203.82 328.05 204.25 328.16 204.79 328.27 205.41 328.38 206.14 328.49 206.97 328.6 207.89 328.71 208.91 328.82 210.02 328.93 211.23 329.04 212.53 329.26 215.4 329.37 216.97 329.48 218.63 329.7 222.21 329.81 224.12 329.92 226.11 330.14 230.32 330.25 232.54 330.36 234.83 330.58 239.61 331.02 249.91 331.9 272.74 332.01 275.75 332.12 278.77 332.34 284.86 332.78 297.15 333.66 321.26 333.76 323.97 333.86 326.64 334.07 331.88 334.48 341.85 334.58 344.22 334.68 346.54 334.89 350.99 335.3 359.15 335.4 361.01 335.5 362.81 335.71 366.16 335.81 367.73 335.91 369.21 336.12 371.93 336.22 373.16 336.32 374.3 336.43 375.35 336.53 376.32 336.63 377.19 336.73 377.97 336.84 378.66 336.94 379.26 337.04 379.76 337.14 380.17 337.25 380.48 337.35 380.69 337.45 380.81 337.56 380.83 337.66 380.75 337.76 380.58 337.86 380.31 337.97 379.94 338.07 379.48 338.17 378.91 338.27 378.26 338.38 377.5 338.48 376.66 338.58 375.72 338.68 374.68 338.79 373.56 338.89 372.34 338.99 371.03 339.09 369.63 339.2 368.14 339.4 364.91 339.5 363.18 339.61 361.36 339.81 357.48 340.22 348.83 340.34 346.22 340.45 343.53 340.68 337.92 341.14 325.9 342.05 299.5 342.17 296.07 342.28 292.61 342.51 285.68 342.97 271.81 343.88 245.1 344 241.95 344.11 238.84 344.34 232.82 344.46 229.9 344.57 227.06 344.8 221.59 344.91 218.98 345.03 216.45 345.26 211.66 345.37 209.41 345.49 207.25 345.72 203.24 345.83 201.39 345.95 199.65 346.06 198.02 346.17 196.49 346.29 195.09 346.4 193.8 346.52 192.63 346.63 191.57 346.75 190.64 346.86 189.83 346.98 189.14 347.09 188.58 347.2 188.14 347.32 187.82 347.43 187.64 347.55 187.57"/>
  <line class="cls-8" x1="14" y1="286.18" x2="14" y2="282.18"/>
  <line class="cls-8" x1="31.69" y1="286.18" x2="31.69" y2="283.79"/>
  <line class="cls-8" x1="49.39" y1="286.18" x2="49.39" y2="283.79"/>
  <line class="cls-8" x1="67.08" y1="286.18" x2="67.08" y2="283.79"/>
  <line class="cls-8" x1="84.78" y1="286.18" x2="84.78" y2="282.18"/>
  <text class="cls-11" transform="translate(78.28 300.18)"><tspan x="0" y="0">20</tspan></text>
  <line class="cls-8" x1="102.47" y1="286.18" x2="102.47" y2="283.79"/>
  <line class="cls-8" x1="120.17" y1="286.18" x2="120.17" y2="283.79"/>
  <line class="cls-8" x1="137.86" y1="286.18" x2="137.86" y2="283.79"/>
  <line class="cls-8" x1="155.56" y1="286.18" x2="155.56" y2="282.18"/>
  <text class="cls-11" transform="translate(149.06 300.18)"><tspan x="0" y="0">40</tspan></text>
  <line class="cls-8" x1="173.25" y1="286.18" x2="173.25" y2="283.79"/>
  <line class="cls-8" x1="190.95" y1="286.18" x2="190.95" y2="283.79"/>
  <line class="cls-8" x1="208.64" y1="286.18" x2="208.64" y2="283.79"/>
  <line class="cls-8" x1="226.34" y1="286.18" x2="226.34" y2="282.18"/>
  <text class="cls-11" transform="translate(219.84 300.18)"><tspan x="0" y="0">60</tspan></text>
  <line class="cls-8" x1="244.04" y1="286.18" x2="244.04" y2="283.79"/>
  <line class="cls-8" x1="261.73" y1="286.18" x2="261.73" y2="283.79"/>
  <line class="cls-8" x1="279.43" y1="286.18" x2="279.43" y2="283.79"/>
  <line class="cls-8" x1="297.12" y1="286.18" x2="297.12" y2="282.18"/>
  <text class="cls-11" transform="translate(290.62 300.18)"><tspan x="0" y="0">80</tspan></text>
  <line class="cls-8" x1="314.82" y1="286.18" x2="314.82" y2="283.79"/>
  <line class="cls-8" x1="332.52" y1="286.18" x2="332.52" y2="283.79"/>
  <line class="cls-8" x1="350.21" y1="286.18" x2="350.21" y2="283.79"/>
  <line class="cls-8" x1="7.05" y1="286.18" x2="354.5" y2="286.18"/>
  <line class="cls-8" x1="14" y1="384.8" x2="18" y2="384.8"/>
  <text class="cls-11" transform="translate(0 388.8)"><tspan x="0" y="0">-2</tspan></text>
  <line class="cls-8" x1="14" y1="374.93" x2="16.39" y2="374.93"/>
  <line class="cls-8" x1="14" y1="365.07" x2="16.39" y2="365.07"/>
  <line class="cls-8" x1="14" y1="355.21" x2="16.39" y2="355.21"/>
  <line class="cls-8" x1="14" y1="345.35" x2="16.39" y2="345.35"/>
  <line class="cls-8" x1="14" y1="335.49" x2="18" y2="335.49"/>
  <text class="cls-11" transform="translate(0 339.49)"><tspan x="0" y="0">-1</tspan></text>
  <line class="cls-8" x1="14" y1="325.63" x2="16.39" y2="325.63"/>
  <line class="cls-8" x1="14" y1="315.77" x2="16.39" y2="315.77"/>
  <line class="cls-8" x1="14" y1="305.91" x2="16.39" y2="305.91"/>
  <line class="cls-8" x1="14" y1="296.05" x2="16.39" y2="296.05"/>
  <line class="cls-8" x1="14" y1="286.18" x2="18" y2="286.18"/>
  <line class="cls-8" x1="14" y1="276.32" x2="16.39" y2="276.32"/>
  <line class="cls-8" x1="14" y1="266.46" x2="16.39" y2="266.46"/>
  <line class="cls-8" x1="14" y1="256.6" x2="16.39" y2="256.6"/>
  <line class="cls-8" x1="14" y1="246.74" x2="16.39" y2="246.74"/>
  <line class="cls-8" x1="14" y1="236.88" x2="18" y2="236.88"/>
  <text class="cls-11" transform="translate(4 240.88)"><tspan x="0" y="0">1</tspan></text>
  <line class="cls-8" x1="14" y1="227.02" x2="16.39" y2="227.02"/>
  <line class="cls-8" x1="14" y1="217.16" x2="16.39" y2="217.16"/>
  <line class="cls-8" x1="14" y1="207.3" x2="16.39" y2="207.3"/>
  <line class="cls-8" x1="14" y1="197.43" x2="16.39" y2="197.43"/>
  <line class="cls-8" x1="14" y1="187.57" x2="18" y2="187.57"/>
  <text class="cls-11" transform="translate(4 191.57)"><tspan x="0" y="0">2</tspan></text>
  <line class="cls-8" x1="14" y1="177.71" x2="16.39" y2="177.71"/>
  <line class="cls-8" x1="14" y1="391.57" x2="14" y2="176.84"/>
  <g>
    <line class="cls-9" x1="125.1" y1="172.82" x2="125.1" y2="128.86"/>
    <polygon class="cls-15" points="125.1 179.88 129.16 169.93 125.1 172.29 121.03 169.93 125.1 179.88"/>
  </g>
  <g>
    <line class="cls-9" x1="291.82" y1="172.82" x2="291.82" y2="128.86"/>
    <polygon class="cls-15" points="291.82 179.88 295.89 169.93 291.82 172.29 287.76 169.93 291.82 179.88"/>
  </g>
  <text class="cls-12" transform="translate(53.41 147.86)"><tspan class="cls-2" x="0" y="0">c</tspan><tspan x="5.3" y="0">onstru</tspan><tspan class="cls-17" x="37.81" y="0">c</tspan><tspan x="43.34" y="0">ti</tspan><tspan class="cls-16" x="50.12" y="0">v</tspan><tspan x="55.78" y="0">e</tspan><tspan x="0" y="14.4">i</tspan><tspan class="cls-13" x="2.81" y="14.4">n</tspan><tspan class="cls-2" x="9.42" y="14.4">t</tspan><tspan x="13.32" y="14.4">e</tspan><tspan class="cls-14" x="19.33" y="14.4">r</tspan><tspan class="cls-19" x="23.62" y="14.4">f</tspan><tspan x="26.96" y="14.4">e</tspan><tspan class="cls-1" x="32.98" y="14.4">r</tspan><tspan class="cls-10" x="36.78" y="14.4">en</tspan><tspan class="cls-3" x="49.45" y="14.4">c</tspan><tspan x="54.76" y="14.4">e</tspan></text>
  <text class="cls-12" transform="translate(224.51 147.86)"><tspan x="0" y="0">destru</tspan><tspan class="cls-18" x="32.04" y="0">c</tspan><tspan x="37.57" y="0">ti</tspan><tspan class="cls-1" x="44.35" y="0">v</tspan><tspan x="50" y="0">e</tspan><tspan x="0" y="14.4">i</tspan><tspan class="cls-13" x="2.81" y="14.4">n</tspan><tspan class="cls-2" x="9.42" y="14.4">t</tspan><tspan x="13.32" y="14.4">e</tspan><tspan class="cls-14" x="19.33" y="14.4">r</tspan><tspan class="cls-19" x="23.62" y="14.4">f</tspan><tspan x="26.96" y="14.4">e</tspan><tspan class="cls-1" x="32.98" y="14.4">r</tspan><tspan class="cls-10" x="36.78" y="14.4">en</tspan><tspan class="cls-3" x="49.45" y="14.4">c</tspan><tspan x="54.76" y="14.4">e</tspan></text>
</svg>