<?xml version="1.0" encoding="UTF-8"?>
<svg id="Layer_1" data-name="Layer 1" xmlns="http://www.w3.org/2000/svg" viewBox="0 0 442.69 147.54">
  <defs>
    <style>
      .cls-1 {
        stroke-dasharray: 0 3;
      }

      .cls-1, .cls-2, .cls-3, .cls-4, .cls-5, .cls-6, .cls-7, .cls-8 {
        fill: none;
      }

      .cls-1, .cls-5, .cls-6 {
        stroke: #231f20;
      }

      .cls-1, .cls-5, .cls-6, .cls-7 {
        stroke-miterlimit: 10;
      }

      .cls-9 {
        font-size: 8px;
      }

      .cls-9, .cls-10, .cls-11 {
        font-family: MyriadPro-Regular, 'Myriad Pro';
      }

      .cls-9, .cls-12, .cls-11, .cls-13, .cls-14 {
        fill: #231f20;
      }

      .cls-15, .cls-12 {
        font-family: MyriadPro-It, 'Myriad Pro';
        font-style: italic;
      }

      .cls-2 {
        stroke: #676767;
      }

      .cls-2, .cls-3, .cls-4, .cls-8 {
        stroke-miterlimit: 3.25;
      }

      .cls-2, .cls-5 {
        stroke-width: 2px;
      }

      .cls-3 {
        stroke: #e29d26;
      }

      .cls-3, .cls-4 {
        stroke-linecap: square;
        stroke-width: 1.6px;
      }

      .cls-4 {
        stroke: #5e82b6;
      }

      .cls-12, .cls-11, .cls-13, .cls-14 {
        font-size: 12px;
      }

      .cls-16, .cls-14 {
        font-family: Symbol, Symbol;
      }

      .cls-7 {
        stroke: #92711f;
      }

      .cls-8 {
        stroke: #010101;
        stroke-width: 1.5px;
      }

      .cls-17 {
        fill: #676767;
        font-family: ArialMT, Arial;
        font-size: 8.04px;
      }

      .cls-18 {
        fill: #bd912d;
      }

      .cls-18, .cls-19 {
        stroke-width: 0px;
      }

      .cls-19 {
        fill: #33669a;
      }
    </style>
  </defs>
  <rect class="cls-18" x="35.43" y="7.34" width="141.73" height="14.17"/>
  <line class="cls-7" x1="177.17" y1="21.52" x2="35.43" y2="21.52"/>
  <line class="cls-1" x1="63.78" y1="21.52" x2="63.78" y2="134.9"/>
  <line class="cls-5" x1="148.82" y1="21.52" x2="148.82" y2="134.9"/>
  <line class="cls-5" x1="63.78" y1="21.52" x2="7.09" y2="119.71"/>
  <line class="cls-6" x1="148.82" y1="106.56" x2="21.26" y2="95.16"/>
  <circle class="cls-19" cx="7.09" cy="119.71" r="7.09"/>
  <circle class="cls-19" cx="148.82" cy="134.9" r="7.09"/>
  <text class="cls-12" transform="translate(155.91 81.94)"><tspan x="0" y="0">L</tspan></text>
  <text class="cls-12" transform="translate(22.16 75.94)"><tspan x="0" y="0">L</tspan></text>
  <text class="cls-12" transform="translate(157.91 137.69)"><tspan x="0" y="0">m</tspan></text>
  <text class="cls-12" transform="translate(14.17 131.69)"><tspan x="0" y="0">m</tspan></text>
  <text class="cls-12" transform="translate(79.66 111.19)"><tspan x="0" y="0">k</tspan></text>
  <text class="cls-14" transform="translate(53.66 47.44)"><tspan x="0" y="0">q</tspan></text>
  <text class="cls-9" transform="translate(59.33 50.19)"><tspan x="0" y="0">1</tspan></text>
  <text class="cls-14" transform="translate(153.07 46.06)"><tspan x="0" y="0">q</tspan></text>
  <text class="cls-9" transform="translate(158.75 48.81)"><tspan x="0" y="0">2</tspan></text>
  <text class="cls-11" transform="translate(0 14.43)"><tspan x="0" y="0">a</tspan></text>
  <polyline class="cls-4" points="225.57 21.5 225.63 21.61 225.7 21.94 225.76 22.5 225.82 23.26 225.89 24.25 225.95 25.45 226.01 26.85 226.08 28.45 226.14 30.26 226.2 32.25 226.27 34.42 226.33 36.76 226.39 39.27 226.45 41.94 226.58 47.7 226.65 50.77 226.71 53.95 226.83 60.61 227.09 74.73 227.15 78.35 227.21 81.98 227.34 89.23 227.59 103.25 227.66 106.58 227.72 109.82 227.84 115.97 227.91 118.85 227.97 121.6 228.1 126.63 228.16 128.9 228.22 130.99 228.29 132.9 228.35 134.62 228.41 136.14 228.48 137.45 228.54 138.56 228.6 139.46 228.67 140.15 228.73 140.61 228.79 140.86 228.86 140.89 228.92 140.7 228.98 140.3 229.05 139.67 229.11 138.83 229.17 137.79 229.24 136.53 229.3 135.08 229.36 133.42 229.43 131.58 229.49 129.55 229.62 124.99 229.68 122.24 229.75 119.32 229.89 113.02 230.16 98.95 230.23 95.21 230.3 91.42 230.44 83.75 230.71 68.49 230.78 64.79 230.85 61.16 230.98 54.21 231.05 50.92 231.12 47.76 231.26 41.91 231.33 39.25 231.4 36.77 231.47 34.49 231.53 32.42 231.6 30.56 231.67 28.93 231.74 27.53 231.81 26.37 231.88 25.45 231.95 24.77 232.01 24.35 232.08 24.17 232.15 24.24 232.22 24.55 232.29 25.12 232.36 25.93 232.42 26.97 232.49 28.26 232.56 29.77 232.63 31.5 232.7 33.44 232.77 35.59 232.9 40.46 232.97 43.17 233.04 46.03 233.18 52.18 233.45 65.8 234 94.9 234.07 98.17 234.13 101.37 234.26 107.51 234.32 110.43 234.38 113.23 234.51 118.45 234.58 120.84 234.64 123.07 234.7 125.15 234.77 127.05 234.83 128.78 234.9 130.32 234.96 131.68 235.02 132.84 235.09 133.8 235.15 134.57 235.22 135.13 235.28 135.49 235.35 135.64 235.41 135.59 235.47 135.33 235.54 134.87 235.6 134.21 235.66 133.35 235.73 132.3 235.79 131.06 235.86 129.64 235.92 128.04 235.98 126.27 236.05 124.33 236.11 122.24 236.17 120 236.3 115.12 236.37 112.49 236.43 109.76 236.56 104 236.63 101.01 236.69 97.95 236.82 91.68 237.07 78.92 237.14 75.75 237.2 72.61 237.33 66.48 237.39 63.52 237.45 60.63 237.58 55.12 237.65 52.53 237.71 50.06 237.78 47.71 237.84 45.51 237.9 43.44 237.97 41.53 238.03 39.78 238.1 38.19 238.16 36.8 238.22 35.57 238.28 34.52 238.35 33.64 238.41 32.94 238.47 32.42 238.54 32.08 238.6 31.92 238.66 31.94 238.72 32.14 238.79 32.52 238.85 33.08 238.91 33.81 238.97 34.71 239.04 35.78 239.1 37.02 239.16 38.4 239.22 39.94 239.29 41.62 239.35 43.45 239.41 45.4 239.48 47.48 239.6 51.96 239.66 54.36 239.73 56.85 239.85 62.04 240.1 73.06 240.17 75.89 240.23 78.73 240.35 84.38 240.42 87.18 240.48 89.94 240.61 95.32 240.67 97.93 240.73 100.46 240.85 105.27 240.92 107.53 240.98 109.69 241.11 113.66 241.17 115.46 241.23 117.13 241.29 118.66 241.36 120.04 241.42 121.28 241.48 122.37 241.55 123.3 241.61 124.08 241.67 124.69 241.73 125.15 241.8 125.45 241.86 125.58 241.92 125.56 241.99 125.37 242.05 125.03 242.11 124.53 242.18 123.81 242.25 122.91 242.31 121.85 242.38 120.61 242.45 119.22 242.52 117.68 242.59 115.99 242.66 114.16 242.72 112.2 242.79 110.12 242.93 105.65 243.2 95.73 243.27 93.11 243.34 90.46 243.47 85.11 243.74 74.53 243.81 71.97 243.88 69.47 244.02 64.7 244.08 62.44 244.15 60.27 244.29 56.28 244.36 54.46 244.42 52.77 244.49 51.21 244.56 49.8 244.63 48.54 244.7 47.42 244.76 46.46 244.83 45.66 244.9 45.01 244.97 44.53 245.04 44.21 245.1 44.06 245.17 44.06 245.24 44.23 245.31 44.55 245.38 45.03 245.44 45.67 245.51 46.45 245.58 47.38 245.65 48.45 245.72 49.65 245.79 50.98 245.92 53.99 245.99 55.65 246.06 57.41 246.19 61.2 246.47 69.54 246.53 71.59 246.59 73.65 246.72 77.81 246.97 86.03 247.04 88.01 247.1 89.96 247.23 93.7 247.29 95.48 247.35 97.19 247.48 100.39 247.54 101.86 247.61 103.24 247.67 104.53 247.74 105.72 247.8 106.82 247.86 107.8 247.93 108.68 247.99 109.44 248.05 110.1 248.12 110.64 248.18 111.07 248.24 111.38 248.31 111.57 248.37 111.66 248.43 111.62 248.5 111.48 248.56 111.22 248.62 110.86 248.69 110.39 248.75 109.81 248.81 109.13 248.88 108.36 248.94 107.5 249 106.54 249.07 105.51 249.13 104.39 249.26 101.94 249.32 100.62 249.39 99.24 249.51 96.33 249.58 94.81 249.64 93.26 249.77 90.09 250.02 83.63 250.09 82.03 250.15 80.45 250.28 77.35 250.53 71.62 250.6 70.21 250.67 68.86 250.73 67.59 250.8 66.4 250.87 65.29 250.94 64.28 251.01 63.35 251.08 62.52 251.15 61.78 251.22 61.14 251.29 60.61 251.35 60.17 251.42 59.84 251.49 59.61 251.56 59.48 251.63 59.45 251.7 59.52 251.77 59.68 251.84 59.94 251.9 60.3 251.97 60.74 252.04 61.27 252.11 61.88 252.18 62.57 252.25 63.33 252.32 64.17 252.46 66.01 252.52 67.02 252.59 68.07 252.73 70.3 252.8 71.46 252.87 72.65 253.01 75.06 253.28 79.93 253.35 81.12 253.42 82.28 253.56 84.53 253.63 85.6 253.69 86.63 253.83 88.55 253.9 89.43 253.97 90.26 254.04 91.03 254.11 91.73 254.18 92.38 254.24 92.96 254.31 93.47 254.38 93.92 254.45 94.3 254.52 94.61 254.59 94.85 254.66 95.03 254.73 95.14 254.8 95.18 254.86 95.15 254.93 95.07 255 94.92 255.07 94.72 255.14 94.47 255.2 94.16 255.27 93.81 255.34 93.41 255.41 92.96 255.47 92.48 255.54 91.96 255.61 91.41 255.74 90.22 256.01 87.62 256.08 86.95 256.15 86.27 256.29 84.92 256.35 84.26 256.42 83.6 256.55 82.35 256.62 81.75 256.69 81.17 256.76 80.62 256.82 80.09 256.89 79.6 256.96 79.14 257.03 78.7 257.1 78.31 257.16 77.95 257.23 77.62 257.3 77.34 257.37 77.08 257.43 76.87 257.5 76.69 257.57 76.56 257.64 76.45 257.7 76.38 257.77 76.35 257.84 76.35 257.91 76.38 257.97 76.44 258.04 76.53 258.11 76.64 258.18 76.79 258.24 76.95 258.31 77.13 258.38 77.34 258.45 77.55 258.52 77.78 258.58 78.02 258.72 78.53 258.78 78.78 258.85 79.04 258.99 79.55 259.05 79.79 259.12 80.03 259.26 80.46 259.32 80.65 259.38 80.82 259.45 80.97 259.51 81.11 259.57 81.23 259.64 81.33 259.7 81.41 259.76 81.47 259.82 81.52 259.89 81.54 259.95 81.54 260.01 81.52 260.08 81.47 260.14 81.41 260.2 81.33 260.27 81.23 260.33 81.1 260.39 80.97 260.45 80.81 260.52 80.64 260.58 80.46 260.64 80.26 260.77 79.83 260.83 79.6 260.9 79.37 261.02 78.89 261.27 77.95 261.34 77.73 261.4 77.51 261.46 77.31 261.53 77.13 261.59 76.96 261.65 76.8 261.72 76.67 261.78 76.56 261.84 76.46 261.9 76.4 261.97 76.36 262.03 76.34 262.09 76.36 262.16 76.4 262.22 76.48 262.28 76.58 262.35 76.72 262.41 76.89 262.47 77.09 262.54 77.33 262.6 77.59 262.66 77.89 262.72 78.22 262.79 78.58 262.85 78.97 262.91 79.39 263.04 80.31 263.1 80.81 263.17 81.33 263.29 82.44 263.36 83.07 263.43 83.72 263.56 85.05 263.84 87.78 263.91 88.46 263.97 89.12 264.11 90.4 264.18 91 264.25 91.58 264.39 92.65 264.45 93.12 264.52 93.55 264.59 93.94 264.66 94.28 264.73 94.58 264.79 94.81 264.86 94.99 264.93 95.11 265 95.17 265.07 95.17 265.14 95.1 265.2 94.97 265.27 94.77 265.34 94.5 265.41 94.17 265.48 93.76 265.54 93.3 265.62 92.76 265.68 92.16 265.75 91.5 265.82 90.78 265.89 90 266.02 88.26 266.09 87.32 266.16 86.33 266.3 84.22 266.57 79.62 266.64 78.42 266.71 77.22 266.85 74.79 266.91 73.59 266.98 72.39 267.12 70.07 267.19 68.96 267.25 67.88 267.32 66.84 267.39 65.85 267.46 64.91 267.53 64.03 267.6 63.22 267.66 62.47 267.73 61.84 267.79 61.27 267.86 60.78 267.92 60.36 267.98 60.02 268.05 59.75 268.11 59.57 268.18 59.47 268.24 59.45 268.3 59.52 268.37 59.68 268.43 59.92 268.49 60.25 268.56 60.67 268.62 61.17 268.69 61.76 268.75 62.44 268.81 63.2 268.88 64.04 268.94 64.96 269 65.96 269.07 67.03 269.2 69.38 269.26 70.65 269.32 71.98 269.45 74.79 269.71 80.91 269.77 82.51 269.83 84.12 269.96 87.37 270.22 93.78 270.28 95.33 270.34 96.84 270.47 99.73 270.54 101.09 270.6 102.4 270.73 104.81 270.79 105.91 270.86 106.92 270.92 107.84 270.98 108.67 271.05 109.41 271.11 110.05 271.17 110.59 271.24 111.02 271.3 111.34 271.37 111.55 271.43 111.65 271.49 111.64 271.56 111.5 271.62 111.26 271.68 110.89 271.75 110.41 271.81 109.83 271.87 109.14 271.94 108.34 272 107.44 272.06 106.43 272.12 105.32 272.25 102.81 272.31 101.42 272.37 99.94 272.5 96.75 272.75 89.57 272.81 87.64 272.87 85.68 273 81.67 273.25 73.48 273.31 71.45 273.37 69.44 273.5 65.51 273.75 58.21 273.81 56.55 273.88 54.97 273.94 53.47 274 52.07 274.06 50.76 274.12 49.55 274.19 48.45 274.25 47.47 274.31 46.6 274.38 45.85 274.44 45.23 274.5 44.73 274.56 44.37 274.62 44.14 274.69 44.04 274.75 44.08 274.81 44.26 274.88 44.58 274.94 45.03 275 45.62 275.06 46.34 275.13 47.2 275.19 48.19 275.25 49.31 275.31 50.55 275.38 51.92 275.44 53.4 275.5 54.99 275.56 56.69 275.63 58.49 275.75 62.38 275.82 64.63 275.89 66.98 276.02 71.88 276.29 82.31 276.36 84.98 276.43 87.66 276.57 92.97 276.84 103.12 276.9 105.49 276.97 107.78 277.04 109.96 277.11 112.04 277.18 114.01 277.24 115.84 277.31 117.54 277.38 119.09 277.45 120.49 277.52 121.74 277.58 122.82 277.65 123.73 277.72 124.46 277.79 125.01 277.85 125.38 277.92 125.57 277.99 125.57 278.06 125.38 278.13 125 278.19 124.43 278.26 123.67 278.33 122.73 278.4 121.61 278.47 120.31 278.53 118.84 278.6 117.2 278.67 115.4 278.74 113.44 278.8 111.34 278.87 109.1 279.01 104.23 279.08 101.63 279.14 98.93 279.28 93.27 279.55 81.28 279.62 78.22 279.69 75.15 279.82 69.07 280.09 57.47 280.16 54.94 280.22 52.5 280.35 47.92 280.41 45.8 280.47 43.81 280.54 41.94 280.6 40.22 280.66 38.64 280.73 37.21 280.79 35.95 280.85 34.85 280.92 33.91 280.98 33.16 281.04 32.57 281.11 32.17 281.17 31.95 281.23 31.91 281.3 32.06 281.36 32.4 281.42 32.91 281.49 33.61 281.55 34.49 281.61 35.55 281.68 36.79 281.74 38.19 281.8 39.76 281.87 41.49 281.93 43.38 281.99 45.42 282.12 49.91 282.18 52.35 282.25 54.9 282.37 60.33 282.63 72.16 282.69 75.26 282.75 78.39 282.88 84.71 283.13 97.24 283.2 100.28 283.26 103.26 283.39 109 283.45 111.73 283.51 114.36 283.64 119.28 283.7 121.54 283.77 123.65 283.83 125.62 283.89 127.43 283.96 129.08 284.02 130.55 284.08 131.85 284.15 132.96 284.22 133.96 284.28 134.73 284.35 135.26 284.42 135.57 284.49 135.64 284.56 135.48 284.63 135.08 284.69 134.44 284.76 133.57 284.83 132.47 284.9 131.15 284.97 129.61 285.04 127.85 285.11 125.88 285.18 123.72 285.24 121.37 285.31 118.83 285.38 116.13 285.52 110.26 285.79 97.03 285.86 93.5 285.93 89.9 286.07 82.59 286.34 67.93 286.41 64.35 286.48 60.84 286.62 54.07 286.69 50.86 286.75 47.76 286.89 42.01 286.96 39.37 287.03 36.92 287.1 34.65 287.17 32.58 287.23 30.73 287.3 29.09 287.37 27.67 287.44 26.49 287.51 25.54 287.58 24.84 287.65 24.38 287.72 24.18 287.78 24.21 287.85 24.51 287.92 25.05 287.99 25.83 288.06 26.87 288.13 28.14 288.2 29.64 288.26 31.38 288.33 33.34 288.4 35.51 288.47 37.88 288.54 40.45 288.61 43.15 288.67 46.02 288.81 52.2 289.08 65.99 289.14 69.65 289.21 73.37 289.35 80.9 289.62 95.94 289.68 99.61 289.75 103.19 289.89 110.1 289.95 113.39 290.02 116.54 290.16 122.41 290.22 125.1 290.29 127.61 290.36 129.93 290.43 132.05 290.49 133.96 290.56 135.65 290.63 137.12 290.7 138.35 290.76 139.35 290.83 140.1 290.9 140.61 290.97 140.87 291.03 140.88 291.1 140.65 291.17 140.16 291.24 139.43 291.3 138.46 291.37 137.24 291.44 135.79 291.5 134.12 291.57 132.22 291.64 130.1 291.71 127.78 291.77 125.27 291.84 122.57 291.91 119.69 292.04 113.47 292.31 99.51 292.85 68.9 292.91 65.39 292.98 61.93 293.1 55.25 293.16 52.04 293.23 48.94 293.36 43.11 293.42 40.4 293.48 37.83 293.54 35.43 293.61 33.19 293.67 31.13 293.73 29.26 293.79 27.57 293.86 26.08 293.92 24.79 293.98 23.71 294.05 22.84 294.11 22.19 294.17 21.75 294.23 21.53 294.3 21.53 294.36 21.74 294.42 22.18 294.49 22.83 294.55 23.7 294.61 24.78 294.67 26.06 294.74 27.55 294.8 29.23 294.86 31.11 294.93 33.16 294.99 35.4 295.11 40.36 295.18 43.07 295.24 45.92 295.37 52 295.43 55.2 295.49 58.51 295.62 65.34 295.87 79.61 295.93 83.22 295.99 86.82 296.12 93.96 296.18 97.46 296.24 100.9 296.37 107.56 296.43 110.75 296.5 113.83 296.62 119.62 296.68 122.31 296.75 124.85 296.87 129.44 296.94 131.64 297.01 133.62 297.08 135.38 297.14 136.91 297.21 138.19 297.28 139.24 297.35 140.03 297.42 140.57 297.49 140.86 297.56 140.89 297.62 140.67 297.69 140.19 297.76 139.47 297.83 138.49 297.9 137.27 297.96 135.82 298.03 134.13 298.1 132.22 298.17 130.1 298.24 127.76 298.3 125.24 298.37 122.52 298.51 116.59 298.58 113.4 298.64 110.08 298.78 103.09 299.05 88.19 299.12 84.36 299.19 80.53 299.33 72.91 299.4 69.16 299.46 65.47 299.6 58.32 299.67 54.89 299.74 51.59 299.8 48.42 299.87 45.39 299.94 42.53 300.01 39.84 300.08 37.33 300.14 35.02 300.21 32.9 300.28 31.01 300.35 29.33 300.42 27.88 300.48 26.66 300.55 25.68 300.62 24.94 300.69 24.44 300.76 24.19 300.83 24.19 300.9 24.43 300.96 24.92 301.03 25.65 301.1 26.62 301.17 27.82 301.24 29.25 301.3 30.79 301.36 32.51 301.43 34.41 301.49 36.48 301.55 38.72 301.62 41.11 301.74 46.33 301.81 49.13 301.87 52.05 302 58.19 302.25 71.32 302.32 74.72 302.38 78.13 302.51 84.95 302.76 98.26 302.82 101.43 302.89 104.53 303.02 110.44 303.08 113.23 303.14 115.88 303.27 120.79 303.33 123.02 303.4 125.08 303.46 126.98 303.53 128.71 303.59 130.25 303.65 131.61 303.72 132.77 303.78 133.75 303.84 134.52 303.91 135.09 303.97 135.47 304.03 135.63 304.1 135.6 304.16 135.36 304.22 134.93 304.29 134.29 304.35 133.46 304.42 132.44 304.48 131.23 304.54 129.84 304.61 128.28 304.67 126.54 304.73 124.64 304.8 122.58 304.86 120.38 304.93 118.04 305.05 112.97 305.31 101.62 305.38 98.34 305.44 94.99 305.58 88.17 305.86 74.44 305.93 71.08 306 67.78 306.13 61.41 306.2 58.37 306.27 55.45 306.41 49.98 306.48 47.46 306.55 45.11 306.62 42.92 306.68 40.91 306.76 39.09 306.82 37.46 306.89 36.03 306.96 34.81 307.03 33.8 307.1 33 307.17 32.42 307.24 32.05 307.3 31.91 307.38 31.98 307.44 32.27 307.51 32.78 307.58 33.5 307.65 34.42 307.72 35.55 307.79 36.87 307.86 38.39 307.93 40.09 308 41.96 308.06 44 308.13 46.19 308.2 48.53 308.34 53.6 308.62 64.95 308.68 67.97 308.75 71.03 308.89 77.24 309.17 89.59 309.24 92.58 309.3 95.51 309.44 101.12 309.51 103.79 309.58 106.34 309.72 111.06 309.79 113.18 309.85 115.15 309.92 116.97 309.99 118.62 310.06 120.12 310.12 121.44 310.19 122.58 310.26 123.55 310.33 124.32 310.4 124.92 310.46 125.33 310.53 125.55 310.6 125.58 310.67 125.43 310.73 125.09 310.8 124.57 310.87 123.87 310.94 122.99 311 121.94 311.07 120.73 311.14 119.36 311.21 117.84 311.28 116.17 311.34 114.37 311.41 112.44 311.48 110.38 311.61 105.96 311.89 96.14 311.95 93.54 312.02 90.9 312.15 85.58 312.42 75.04 312.49 72.48 312.56 69.99 312.7 65.21 312.76 62.94 312.83 60.76 312.97 56.73 313.03 54.89 313.1 53.18 313.17 51.6 313.24 50.16 313.31 48.86 313.37 47.71 313.44 46.71 313.51 45.87 313.58 45.18 313.64 44.66 313.71 44.29 313.78 44.09 313.85 44.04 313.91 44.16 313.98 44.43 314.05 44.86 314.11 45.4 314.18 46.07 314.24 46.86 314.3 47.77 314.37 48.81 314.43 49.95 314.49 51.21 314.55 52.57 314.62 54.02 314.68 55.57 314.81 58.9 315.06 66.36 315.12 68.34 315.19 70.36 315.31 74.46 315.56 82.71 315.63 84.74 315.69 86.74 315.82 90.62 315.88 92.49 315.94 94.3 316.07 97.72 316.13 99.33 316.2 100.85 316.26 102.29 316.32 103.64 316.39 104.89 316.45 106.05 316.51 107.1 316.58 108.05 316.64 108.89 316.7 109.63 316.76 110.25 316.83 110.76 316.89 111.16 316.95 111.44 317.02 111.61 317.08 111.66 317.14 111.6 317.21 111.43 317.27 111.16 317.33 110.77 317.4 110.28 317.46 109.69 317.52 109 317.59 108.21 317.65 107.34 317.71 106.37 317.84 104.2 317.9 103.01 317.96 101.75 318.09 99.04 318.16 97.49 318.23 95.89 318.37 92.56 318.64 85.63 318.71 83.89 318.78 82.16 318.91 78.77 319.18 72.45 319.26 71.01 319.32 69.63 319.39 68.32 319.46 67.09 319.53 65.94 319.6 64.88 319.67 63.9 319.73 63.01 319.8 62.22 319.87 61.53 319.94 60.93 320.01 60.43 320.07 60.04 320.14 59.74 320.21 59.55 320.28 59.46 320.35 59.46 320.42 59.56 320.49 59.76 320.56 60.05 320.62 60.43 320.69 60.9 320.76 61.45 320.83 62.09 320.9 62.79 320.96 63.57 321.1 65.33 321.17 66.29 321.24 67.3 321.37 69.46 321.45 70.59 321.51 71.76 321.65 74.14 321.92 78.99 321.99 80.18 322.06 81.36 322.2 83.64 322.26 84.74 322.34 85.79 322.47 87.78 322.53 88.64 322.6 89.46 322.66 90.23 322.73 90.95 322.79 91.61 322.85 92.22 322.92 92.78 322.98 93.28 323.05 93.72 323.11 94.1 323.18 94.43 323.24 94.7 323.3 94.9 323.37 95.05 323.43 95.14 323.49 95.18 323.56 95.16 323.62 95.08 323.69 94.95 323.75 94.77 323.81 94.54 323.88 94.27 323.94 93.95 324.01 93.59 324.07 93.18 324.13 92.75 324.26 91.77 324.32 91.24 324.39 90.68 324.52 89.51 324.58 88.9 324.64 88.27 324.77 87 325.03 84.45 325.09 83.83 325.16 83.22 325.28 82.05 325.35 81.49 325.41 80.96 325.54 79.96 325.6 79.5 325.67 79.06 325.73 78.66 325.8 78.29 325.86 77.95 325.92 77.64 325.99 77.36 326.05 77.12 326.11 76.91 326.18 76.74 326.24 76.6 326.31 76.49 326.37 76.41 326.43 76.36 326.5 76.34 326.56 76.36 326.63 76.4 326.69 76.46 326.75 76.55 326.81 76.66 326.87 76.79 326.94 76.95 327 77.11 327.06 77.3 327.12 77.5 327.19 77.71 327.31 78.16 327.56 79.1 327.63 79.34 327.69 79.57 327.82 80.02 327.88 80.23 327.94 80.42 328 80.61 328.06 80.78 328.13 80.94 328.19 81.08 328.25 81.2 328.32 81.31 328.38 81.4 328.44 81.46 328.5 81.51 328.57 81.53 328.63 81.54 328.69 81.52 328.76 81.49 328.82 81.43 328.88 81.35 328.94 81.26 329 81.14 329.07 81.01 329.13 80.86 329.19 80.7 329.32 80.32 329.38 80.12 329.44 79.91 329.57 79.46 329.63 79.22 329.82 78.51 329.88 78.27 329.95 78.04 330.07 77.6 330.13 77.4 330.19 77.2 330.26 77.03 330.32 76.86 330.38 76.72 330.45 76.6 330.51 76.5 330.57 76.43 330.64 76.37 330.71 76.34 330.78 76.35 330.84 76.4 330.91 76.47 330.98 76.58 331.05 76.74 331.12 76.92 331.18 77.15 331.25 77.41 331.32 77.71 331.39 78.05 331.46 78.42 331.52 78.83 331.66 79.75 331.73 80.25 331.79 80.79 331.93 81.94 332.2 84.49 332.27 85.16 332.34 85.84 332.47 87.2 332.75 89.85 332.81 90.47 332.88 91.07 332.95 91.64 333.02 92.19 333.09 92.69 333.15 93.16 333.22 93.59 333.29 93.97 333.36 94.31 333.43 94.59 333.5 94.83 333.56 95 333.63 95.12 333.7 95.17 333.77 95.17 333.84 95.1 333.9 94.96 333.97 94.76 334.04 94.49 334.11 94.16 334.17 93.76 334.24 93.3 334.31 92.76 334.38 92.17 334.45 91.51 334.51 90.79 334.65 89.18 334.72 88.29 334.79 87.35 334.92 85.34 334.98 84.35 335.05 83.33 335.18 81.2 335.43 76.76 335.49 75.63 335.56 74.51 335.68 72.29 335.94 68.09 336 67.11 336.06 66.18 336.13 65.29 336.19 64.45 336.25 63.66 336.32 62.93 336.38 62.26 336.44 61.65 336.51 61.11 336.57 60.64 336.64 60.25 336.7 59.93 336.76 59.69 336.82 59.53 336.89 59.45 336.95 59.46 337.02 59.55 337.08 59.73 337.14 59.99 337.21 60.34 337.27 60.78 337.33 61.3 337.39 61.91 337.46 62.6 337.52 63.38 337.59 64.23 337.65 65.16 337.71 66.17 337.78 67.25 337.84 68.4 337.97 70.88 338.03 72.21 338.09 73.6 338.22 76.5 338.47 82.72 338.54 84.33 338.73 89.17 338.98 95.46 339.05 97.08 339.12 98.65 339.26 101.62 339.33 103 339.39 104.3 339.46 105.51 339.53 106.63 339.6 107.65 339.67 108.56 339.74 109.37 339.81 110.06 339.88 110.63 339.94 111.08 340.01 111.41 340.08 111.6 340.15 111.66 340.22 111.59 340.29 111.38 340.36 111.04 340.43 110.56 340.49 109.95 340.56 109.21 340.63 108.33 340.7 107.33 340.77 106.21 340.84 104.96 340.91 103.59 340.98 102.12 341.04 100.53 341.18 97.08 341.25 95.22 341.32 93.28 341.46 89.19 341.73 80.46 341.8 78.21 341.87 75.95 342.01 71.47 342.28 62.87 342.35 60.86 342.42 58.92 342.49 57.07 342.56 55.3 342.63 53.64 342.69 52.09 342.76 50.65 342.83 49.34 342.9 48.16 342.97 47.12 343.04 46.22 343.11 45.47 343.18 44.87 343.24 44.44 343.31 44.16 343.38 44.04 343.45 44.09 343.52 44.29 343.58 44.66 343.65 45.19 343.72 45.87 343.79 46.71 343.85 47.71 343.92 48.86 343.99 50.15 344.06 51.59 344.12 53.16 344.19 54.87 344.26 56.7 344.33 58.65 344.46 62.88 344.53 65.14 344.6 67.48 344.73 72.39 345 82.79 345.14 88.11 345.27 93.39 345.54 103.45 345.61 105.8 345.68 108.06 345.74 110.22 345.81 112.28 345.88 114.21 345.95 116.02 346.01 117.7 346.08 119.23 346.15 120.61 346.22 121.84 346.28 122.9 346.35 123.79 346.42 124.5 346.49 125.04 346.55 125.4 346.62 125.58 346.69 125.56 346.76 125.37 346.82 124.98 346.89 124.41 346.96 123.65 347.03 122.72 347.09 121.6 347.16 120.3 347.23 118.84 347.3 117.21 347.36 115.41 347.43 113.47 347.5 111.38 347.57 109.15 347.7 104.32 347.76 101.91 347.83 99.42 347.95 94.21 348.2 83.15 348.27 80.32 348.33 77.47 348.46 71.8 348.71 60.81 348.77 58.2 348.83 55.67 348.96 50.85 349.02 48.6 349.09 46.45 349.21 42.53 349.27 40.77 349.34 39.15 349.4 37.68 349.46 36.37 349.53 35.22 349.59 34.23 349.65 33.41 349.72 32.77 349.78 32.3 349.84 32.01 349.9 31.91 349.97 31.98 350.03 32.24 350.09 32.68 350.16 33.3 350.22 34.1 350.28 35.08 350.34 36.24 350.41 37.56 350.47 39.05 350.53 40.7 350.6 42.51 350.72 46.57 350.79 48.81 350.85 51.18 350.98 56.26 351.23 67.57 351.73 92.42 351.8 95.77 351.87 99.07 352 105.47 352.07 108.54 352.14 111.5 352.28 117.05 352.34 119.62 352.41 122.03 352.48 124.27 352.55 126.33 352.62 128.21 352.69 129.9 352.76 131.38 352.82 132.64 352.89 133.69 352.96 134.52 353.03 135.13 353.1 135.5 353.16 135.64 353.23 135.55 353.3 135.23 353.37 134.67 353.44 133.88 353.51 132.86 353.57 131.62 353.64 130.16 353.71 128.49 353.78 126.61 353.85 124.52 353.91 122.25 353.98 119.79 354.05 117.17 354.19 111.44 354.26 108.37 354.33 105.17 354.46 98.45 354.53 94.97 354.6 91.42 354.73 84.17 355.01 69.56 355.08 65.98 355.15 62.45 355.28 55.64 355.35 52.38 355.42 49.24 355.55 43.37 355.62 40.67 355.69 38.14 355.76 35.78 355.83 33.63 355.9 31.67 355.96 29.92 356.03 28.4 356.1 27.1 356.16 26.09 356.23 25.29 356.29 24.7 356.35 24.33 356.42 24.17 356.48 24.22 356.54 24.49 356.61 24.98 356.67 25.67 356.74 26.58 356.8 27.7 356.86 29.02 356.93 30.54 356.99 32.26 357.06 34.16 357.12 36.24 357.18 38.5 357.25 40.92 357.37 46.23 357.44 49.09 357.5 52.08 357.63 58.39 357.69 61.69 357.76 65.07 357.88 72.02 358.14 86.28 358.2 89.85 358.27 93.39 358.39 100.34 358.46 103.73 358.52 107.03 358.65 113.34 358.71 116.33 358.78 119.2 358.84 121.92 358.9 124.5 358.97 126.92 359.03 129.17 359.09 131.24 359.16 133.13 359.22 134.83 359.28 136.33 359.35 137.63 359.41 138.71 359.48 139.58 359.54 140.24 359.6 140.67 359.67 140.88 359.73 140.88 359.8 140.64 359.86 140.19 359.92 139.51 359.99 138.62 360.05 137.51 360.11 136.19 360.18 134.67 360.24 132.98 360.3 131.1 360.37 129.04 360.43 126.81 360.49 124.42 360.55 121.86 360.68 116.33 360.74 113.37 360.8 110.29 360.93 103.82 361.18 90.01 361.24 86.44 361.3 82.86 361.43 75.68 361.68 61.67 361.74 58.31 361.8 55.03 361.93 48.77 361.99 45.82 362.05 42.99 362.18 37.75 362.24 35.37 362.3 33.15 362.37 31.1 362.43 29.24 362.49 27.56 362.55 26.08 362.61 24.8 362.68 23.73 362.74 22.86 362.8 22.2 362.87 21.76 362.93 21.53 362.99 21.52 363.05 21.73 363.11 22.15 363.18 22.79 363.24 23.63 363.3 24.69 363.37 25.95 363.43 27.41 363.49 29.07 363.55 30.92 363.61 32.95 363.68 35.15 363.74 37.52 363.8 40.05 363.93 45.54 363.99 48.49 364.05 51.55 364.18 57.99 364.24 61.63 364.31 65.35 364.45 72.99 364.72 88.53 364.79 92.38 364.85 96.18 364.99 103.58 365.06 107.14 365.13 110.59 365.26 117.1 365.33 120.13 365.4 123 365.46 125.69 365.53 128.18 365.6 130.48 365.67 132.57 365.74 134.44 365.8 136.09 365.87 137.5 365.94 138.68 366.01 139.61 366.07 140.29 366.14 140.72 366.21 140.9 366.28 140.83 366.35 140.51 366.41 139.94 366.48 139.11 366.55 138.05 366.62 136.75 366.68 135.22 366.75 133.45 366.82 131.47 366.89 129.28 366.96 126.89 367.02 124.31 367.16 118.63 367.23 115.55 367.29 112.33 367.43 105.53 367.5 101.97 367.57 98.33 367.7 90.87 367.97 75.67 368.04 71.91 368.11 68.19 368.24 60.95 368.31 57.46 368.38 54.09 368.52 47.71 368.58 44.93 368.64 42.29 368.7 39.8 368.77 37.47 368.83 35.3 368.9 33.31 368.96 31.5 369.02 29.88 369.08 28.45 369.15 27.22 369.21 26.2 369.27 25.38 369.34 24.77 369.4 24.37 369.46 24.18 369.53 24.2 369.59 24.44 369.65 24.88 369.72 25.54 369.78 26.4 369.84 27.46 369.91 28.72 369.97 30.17 370.03 31.81 370.1 33.63 370.16 35.63 370.29 40.1 370.35 42.57 370.41 45.17 370.54 50.76 370.6 53.72 370.66 56.78 370.79 63.13 371.04 76.48 371.11 79.87 371.17 83.27 371.3 90 371.55 102.91 371.62 105.94 371.68 108.88 371.8 114.43 371.87 117.02 371.93 119.46 372.06 123.92 372.12 125.9 372.18 127.72 372.25 129.36 372.31 130.82 372.37 132.09 372.44 133.18 372.5 134.07 372.56 134.76 372.63 135.29 372.7 135.58 372.77 135.64 372.84 135.46 372.9 135.05 372.98 134.41 373.04 133.53 373.11 132.44 373.18 131.13 373.25 129.61 373.32 127.88 373.39 125.96 373.45 123.85 373.52 121.57 373.66 116.51 373.73 113.76 373.8 110.88 373.93 104.78 374.21 91.61 374.28 88.2 374.35 84.77 374.48 77.93 374.76 64.71 374.83 61.58 374.89 58.54 375.03 52.83 375.1 50.17 375.17 47.65 375.3 43.11 375.38 41.09 375.44 39.26 375.51 37.62 375.58 36.18 375.65 34.94 375.72 33.91 375.79 33.09 375.85 32.48 375.92 32.09 375.99 31.92 376.06 31.96 376.13 32.22 376.2 32.68 376.27 33.36 376.33 34.25 376.4 35.34 376.47 36.62 376.54 38.1 376.61 39.75 376.68 41.58 376.75 43.58 376.81 45.73 376.95 50.45 377.02 52.84 377.08 55.32 377.21 60.53 377.46 71.7 377.53 74.57 377.59 77.46 377.72 83.24 377.98 94.47 378.04 97.15 378.1 99.76 378.23 104.72 378.3 107.05 378.36 109.28 378.49 113.37 378.55 115.22 378.62 116.94 378.68 118.52 378.74 119.94 378.81 121.22 378.87 122.34 378.93 123.29 379 124.08 379.06 124.71 379.13 125.17 379.19 125.46 379.26 125.59 379.32 125.54 379.39 125.34 379.45 124.96 379.51 124.42 379.58 123.72 379.64 122.87 379.7 121.86 379.77 120.71 379.83 119.42 379.9 117.99 380.02 114.74 380.09 112.94 380.15 111.03 380.28 106.92 380.54 97.76 381.05 77.8 381.11 75.39 381.18 73.01 381.3 68.41 381.36 66.2 381.43 64.06 381.55 60.01 381.61 58.13 381.68 56.34 381.74 54.65 381.8 53.07 381.87 51.61 381.93 50.27 381.99 49.05 382.05 47.95 382.11 46.99 382.18 46.16 382.24 45.47 382.3 44.91 382.37 44.48 382.43 44.2 382.49 44.06 382.55 44.05 382.62 44.18 382.68 44.45 382.74 44.85 382.81 45.38 382.87 46.04 382.93 46.82 382.99 47.73 383.06 48.75 383.12 49.89 383.18 51.13 383.31 53.91 383.37 55.44 383.43 57.05 383.56 60.5 383.62 62.33 383.69 64.21 383.81 68.1 384.06 76.23 384.12 78.29 384.19 80.34 384.31 84.4 384.38 86.39 384.44 88.35 384.56 92.13 384.63 93.95 384.69 95.7 384.82 98.99 384.88 100.52 384.94 101.97 385.07 104.6 385.13 105.87 385.2 107.02 385.27 108.05 385.34 108.95 385.41 109.73 385.48 110.38 385.54 110.89 385.61 111.28 385.68 111.53 385.75 111.65 385.82 111.64 385.88 111.5 385.95 111.23 386.02 110.83 386.09 110.31 386.16 109.68 386.22 108.93 386.29 108.07 386.36 107.1 386.43 106.04 386.5 104.88 386.56 103.63 386.7 100.9 386.77 99.43 386.84 97.9 386.97 94.69 387.24 87.89 387.31 86.16 387.38 84.42 387.52 80.99 387.58 79.31 387.65 77.66 387.79 74.48 387.86 72.96 387.92 71.5 387.99 70.11 388.06 68.78 388.13 67.53 388.2 66.36 388.27 65.27 388.33 64.26 388.4 63.34 388.47 62.52 388.54 61.79 388.61 61.16 388.68 60.63 388.74 60.19 388.81 59.86 388.88 59.62 388.95 59.48 389.02 59.44 389.08 59.5 389.15 59.66 389.22 59.91 389.29 60.25 389.36 60.67 389.42 61.19 389.49 61.73 389.55 62.35 389.62 63.04 389.68 63.78 389.74 64.57 389.8 65.42 389.93 67.26 390 68.24 390.06 69.26 390.19 71.38 390.44 75.82 390.5 76.95 390.57 78.08 390.69 80.3 390.76 81.4 390.82 82.47 390.95 84.54 391.01 85.53 391.08 86.48 391.2 88.27 391.27 89.11 391.33 89.89 391.46 91.31 391.52 91.95 391.58 92.53 391.65 93.05 391.71 93.52 391.77 93.93 391.84 94.28 391.9 94.57 391.97 94.81 392.03 94.98 392.09 95.1 392.16 95.17 392.22 95.17 392.28 95.13 392.35 95.03 392.41 94.88 392.47 94.67 392.54 94.43 392.6 94.13 392.67 93.8 392.73 93.42 392.79 93 392.86 92.55 392.98 91.56 393.05 91.02 393.11 90.46 393.24 89.28 393.49 86.77 393.56 86.08 393.63 85.39 393.77 84.04 393.83 83.38 393.91 82.73 394.04 81.51 394.11 80.93 394.18 80.38 394.25 79.86 394.32 79.37 394.39 78.91 394.45 78.49 394.52 78.11 394.59 77.76 394.66 77.45 394.73 77.18 394.8 76.95 394.87 76.75 394.94 76.6 395 76.48 395.08 76.4 395.14 76.35 395.21 76.34 395.28 76.37 395.35 76.43 395.42 76.51 395.49 76.62 395.56 76.76 395.62 76.92 395.7 77.11 395.76 77.31 395.83 77.53 395.97 78.01 396.24 79.05 396.31 79.31 396.38 79.56 396.52 80.05 396.59 80.28 396.66 80.49 396.73 80.69 396.8 80.87 396.87 81.03 396.93 81.18 397 81.3 397.07 81.39 397.14 81.46 397.21 81.51 397.28 81.54 397.35 81.53 397.41 81.51 397.49 81.46 397.55 81.38 397.62 81.28 397.69 81.16 397.76 81.02 397.83 80.86 397.9 80.67 397.96 80.48 398.03 80.26 398.17 79.81 398.44 78.8 398.51 78.54 398.57 78.29 398.71 77.79 398.78 77.56 398.84 77.35 398.91 77.14 398.98 76.96 399.05 76.79 399.12 76.65 399.18 76.54 399.25 76.44 399.32 76.38 399.39 76.35 399.45 76.35 399.52 76.38 399.59 76.45 399.66 76.55 399.72 76.69 399.79 76.86 399.86 77.08 399.93 77.33 399.99 77.61 400.06 77.94 400.13 78.3 400.2 78.69 400.26 79.12 400.33 79.58 400.4 80.08 400.47 80.6 400.6 81.73 400.67 82.33 400.74 82.95 400.87 84.24 401.14 86.93 401.21 87.6 401.28 88.27 401.41 89.58 401.48 90.2 401.55 90.81 401.68 91.95 401.75 92.47 401.82 92.95 401.89 93.4 401.95 93.8 402.02 94.16 402.09 94.47 402.16 94.72 402.23 94.92 402.29 95.06 402.35 95.14 402.41 95.18 402.48 95.16 402.54 95.08 402.6 94.95 402.66 94.76 402.73 94.52 402.79 94.21 402.86 93.85 402.92 93.43 402.98 92.96 403.04 92.43 403.11 91.85 403.23 90.52 403.3 89.78 403.36 89 403.49 87.29 403.55 86.38 403.61 85.43 403.74 83.43 403.8 82.38 403.86 81.32 403.99 79.13 404.24 74.67 404.31 73.56 404.37 72.45 404.49 70.31 404.56 69.27 404.62 68.26 404.75 66.35 404.81 65.46 404.87 64.61 404.94 63.82 405 63.08 405.06 62.4 405.13 61.78 405.19 61.23 405.25 60.75 405.32 60.34 405.38 60 405.44 59.74 405.51 59.56 405.57 59.47 405.63 59.45 405.69 59.52 405.76 59.67 405.82 59.91 405.88 60.23 405.95 60.64 406.01 61.14 406.07 61.71 406.14 62.38 406.2 63.12 406.26 63.94 406.33 64.92 406.4 65.99 406.54 68.38 406.6 69.69 406.67 71.07 406.81 74.02 406.88 75.58 406.94 77.18 407.08 80.51 407.35 87.43 407.42 89.17 407.49 90.9 407.63 94.28 407.7 95.93 407.77 97.53 407.9 100.57 407.97 101.99 408.04 103.34 408.11 104.61 408.18 105.8 408.24 106.89 408.31 107.88 408.38 108.76 408.45 109.54 408.52 110.2 408.59 110.74 408.66 111.16 408.72 111.46 408.79 111.62 408.86 111.66 408.93 111.56 409 111.33 409.06 110.96 409.13 110.46 409.2 109.83 409.27 109.07 409.34 108.18 409.41 107.17 409.47 106.03 409.54 104.77 409.61 103.4 409.68 101.91 409.82 98.64 409.89 96.87 409.95 95 410.09 91.06 410.16 88.99 410.23 86.87 410.36 82.51 410.64 73.57 410.7 71.5 410.77 69.44 410.89 65.43 410.96 63.49 411.02 61.6 411.15 58.01 411.21 56.32 411.28 54.72 411.34 53.21 411.4 51.79 411.47 50.47 411.53 49.27 411.59 48.18 411.66 47.2 411.72 46.35 411.79 45.63 411.85 45.04 411.91 44.58 411.98 44.26 412.04 44.08 412.11 44.04 412.17 44.15 412.23 44.39 412.3 44.78 412.36 45.32 412.42 45.99 412.49 46.81 412.55 47.76 412.62 48.85 412.68 50.06 412.74 51.41 412.81 52.88 412.93 56.18 413 57.99 413.06 59.9 413.19 64.01 413.25 66.19 413.32 68.43 413.45 73.12 413.7 82.98 413.77 85.5 413.83 88.01 413.96 93.01 414.02 95.47 414.08 97.89 414.21 102.58 414.28 104.83 414.34 107.01 414.47 111.11 414.53 113.01 414.6 114.8 414.72 118.03 414.79 119.42 414.85 120.69 414.91 121.82 414.97 122.81 415.04 123.66 415.1 124.35 415.16 124.9 415.22 125.29 415.29 125.52 415.35 125.59 415.41 125.51 415.47 125.26 415.54 124.85 415.6 124.28 415.66 123.55 415.72 122.67 415.79 121.63 415.85 120.44 415.91 119.11 415.98 117.62 416.04 116 416.1 114.25 416.23 110.37 416.29 108.25 416.35 106.03 416.48 101.29 416.73 90.88 416.79 88.13 416.85 85.35 416.98 79.73 417.23 68.48 417.29 65.73 417.35 63.02 417.48 57.79 417.54 55.28 417.6 52.85 417.73 48.29 417.79 46.18 417.85 44.18 417.92 42.31 417.98 40.58 418.04 38.99 418.1 37.54 418.17 36.25 418.23 35.12 418.29 34.15 418.35 33.35 418.42 32.73 418.48 32.28 418.54 32 418.6 31.91 418.67 31.99 418.73 32.26 418.8 32.75 418.87 33.45 418.93 34.36 419 35.48 419.07 36.8 419.14 38.31 419.21 40.01 419.27 41.9 419.34 43.97 419.41 46.21 419.54 51.15 419.61 53.83 419.68 56.65 419.82 62.62 419.88 65.74 419.95 68.95 420.09 75.55 420.36 89.08 420.43 92.46 420.49 95.79 420.63 102.3 420.7 105.44 420.77 108.49 420.9 114.27 420.97 116.97 421.04 119.53 421.11 121.93 421.17 124.17 421.24 126.23 421.31 128.11 421.38 129.79 421.45 131.28 421.51 132.56 421.58 133.62 421.65 134.46 421.72 135.08 421.78 135.48 421.85 135.64 421.92 135.57 421.99 135.28 422.06 134.75 422.12 133.99 422.19 133.01 422.26 131.8 422.33 130.38 422.4 128.75 422.46 126.9 422.53 124.86 422.6 122.63 422.67 120.22 422.8 114.88 422.87 111.99 422.94 108.95 423.07 102.53 423.14 99.39 423.2 96.17 423.33 89.57 423.58 76.01 423.64 72.63 423.71 69.26 423.84 62.67 424.09 50.32 424.15 47.48 424.21 44.76 424.28 42.17 424.34 39.73 424.41 37.43 424.47 35.29 424.53 33.32 424.59 31.53 424.66 29.91 424.72 28.49 424.79 27.26 424.85 26.23 424.91 25.41 424.98 24.79 425.04 24.38 425.1 24.18 425.16 24.2 425.23 24.42 425.29 24.86 425.36 25.52 425.42 26.38 425.48 27.44 425.55 28.71 425.61 30.18 425.67 31.84 425.74 33.69 425.8 35.72 425.86 37.93 425.93 40.29 425.99 42.82 426.11 48.3 426.18 51.24 426.24 54.3 426.37 60.71 426.62 74.43 426.69 77.97 426.75 81.53 426.88 88.64 427.13 102.51 427.2 106.2 427.27 109.79 427.41 116.56 427.48 119.72 427.55 122.7 427.7 128.1 427.77 130.49 427.84 132.65 427.91 134.58 427.98 136.27 428.05 137.7 428.12 138.88 428.19 139.79 428.26 140.44 428.33 140.81 428.4 140.9 428.47 140.73 428.54 140.28 428.61 139.56 428.69 138.57 428.76 137.31 428.83 135.79 428.9 134.03 428.97 132.01 429.04 129.77 429.11 127.3 429.18 124.61 429.25 121.72 429.39 115.4 429.46 112 429.54 108.45 429.68 100.98 429.96 85.1 430.1 76.97 430.24 68.92 430.52 53.64 430.6 50.1 430.67 46.7 430.74 43.46 430.81 40.4 430.88 37.52 430.95 34.85 431.02 32.4 431.09 30.17 431.16 28.17 431.23 26.43 431.3 24.94 431.37 23.71 431.44 22.74 431.51 22.06 431.58 21.64 431.66 21.5"/>
  <polyline class="cls-3" points="225.57 81.54 225.63 81.53 225.7 81.5 225.76 81.44 225.82 81.37 225.89 81.28 225.95 81.17 226.01 81.04 226.08 80.89 226.14 80.73 226.2 80.55 226.33 80.15 226.39 79.94 226.45 79.71 226.58 79.25 226.65 79.01 226.71 78.77 226.83 78.29 226.9 78.06 226.96 77.83 227.09 77.4 227.15 77.21 227.21 77.03 227.28 76.87 227.34 76.73 227.4 76.6 227.47 76.5 227.53 76.42 227.59 76.37 227.66 76.35 227.72 76.35 227.78 76.38 227.84 76.44 227.91 76.54 227.97 76.66 228.04 76.82 228.1 77.01 228.16 77.23 228.22 77.48 228.29 77.77 228.35 78.08 228.41 78.44 228.48 78.81 228.6 79.66 228.67 80.13 228.73 80.62 228.86 81.67 229.11 84 229.17 84.62 229.24 85.25 229.36 86.51 229.62 89.01 229.68 89.67 229.75 90.3 229.82 90.91 229.89 91.49 229.96 92.05 230.03 92.57 230.1 93.05 230.16 93.49 230.23 93.89 230.3 94.24 230.37 94.54 230.44 94.78 230.51 94.97 230.57 95.1 230.64 95.17 230.71 95.17 230.78 95.11 230.85 94.99 230.92 94.8 230.98 94.53 231.05 94.21 231.12 93.81 231.19 93.35 231.26 92.82 231.33 92.23 231.4 91.57 231.47 90.85 231.53 90.07 231.6 89.23 231.67 88.34 231.81 86.41 231.88 85.38 231.95 84.3 232.08 82.05 232.36 77.29 232.42 76.07 232.49 74.85 232.63 72.45 232.9 67.92 232.97 66.87 233.04 65.88 233.11 64.94 233.18 64.06 233.25 63.24 233.31 62.49 233.38 61.81 233.45 61.21 233.52 60.69 233.59 60.26 233.66 59.92 233.73 59.66 233.8 59.51 233.86 59.44 233.93 59.48 234 59.62 234.07 59.84 234.13 60.15 234.19 60.54 234.26 61.03 234.32 61.6 234.38 62.25 234.45 62.99 234.51 63.82 234.58 64.72 234.64 65.7 234.77 67.88 234.83 69.08 234.9 70.33 235.02 73.03 235.09 74.45 235.15 75.93 235.28 78.98 235.54 85.4 235.6 87.03 235.66 88.66 235.79 91.88 236.05 98.03 236.11 99.46 236.17 100.84 236.24 102.17 236.3 103.42 236.37 104.61 236.43 105.72 236.5 106.75 236.56 107.69 236.63 108.54 236.69 109.3 236.75 109.96 236.82 110.51 236.88 110.96 236.94 111.3 237.01 111.53 237.07 111.64 237.14 111.64 237.2 111.53 237.26 111.3 237.33 110.95 237.39 110.48 237.45 109.9 237.52 109.21 237.58 108.4 237.65 107.48 237.71 106.45 237.78 105.31 237.84 104.08 237.9 102.74 237.97 101.31 238.1 98.19 238.16 96.54 238.22 94.83 238.35 91.21 238.6 83.4 238.66 81.37 238.72 79.32 238.85 75.21 239.1 67.13 239.16 65.18 239.22 63.28 239.35 59.63 239.41 57.91 239.48 56.26 239.6 53.2 239.66 51.81 239.73 50.51 239.79 49.32 239.85 48.24 239.91 47.28 239.98 46.43 240.04 45.71 240.1 45.11 240.17 44.64 240.23 44.3 240.29 44.1 240.35 44.04 240.42 44.11 240.48 44.32 240.54 44.67 240.61 45.15 240.67 45.78 240.73 46.54 240.79 47.43 240.85 48.46 240.92 49.61 240.98 50.88 241.04 52.28 241.11 53.8 241.17 55.43 241.23 57.16 241.36 60.93 241.42 62.94 241.48 65.05 241.61 69.46 241.67 71.76 241.73 74.11 241.86 78.92 242.11 88.78 242.18 91.45 242.25 94.09 242.38 99.25 242.45 101.74 242.52 104.16 242.66 108.76 242.72 110.9 242.79 112.94 242.86 114.85 242.93 116.63 243 118.26 243.06 119.76 243.13 121.09 243.2 122.26 243.27 123.26 243.34 124.09 243.4 124.74 243.47 125.21 243.54 125.5 243.61 125.59 243.68 125.5 243.74 125.22 243.81 124.74 243.88 124.08 243.95 123.23 244.02 122.2 244.08 120.99 244.15 119.6 244.22 118.03 244.29 116.31 244.36 114.42 244.42 112.38 244.56 107.88 244.63 105.44 244.7 102.88 244.83 97.46 244.9 94.62 244.97 91.71 245.1 85.73 245.38 73.47 245.44 70.42 245.51 67.4 245.65 61.52 245.72 58.68 245.79 55.92 245.92 50.72 245.99 48.29 246.06 46 246.13 43.85 246.19 41.84 246.26 40.01 246.33 38.34 246.4 36.85 246.47 35.54 246.53 34.5 246.59 33.62 246.65 32.92 246.72 32.41 246.78 32.07 246.85 31.92 246.91 31.95 246.97 32.17 247.04 32.57 247.1 33.16 247.16 33.93 247.23 34.88 247.29 36.01 247.35 37.32 247.42 38.79 247.48 40.43 247.54 42.23 247.61 44.19 247.74 48.53 247.8 50.9 247.86 53.4 247.99 58.73 248.05 61.53 248.12 64.43 248.24 70.43 248.5 82.96 248.56 86.13 248.62 89.3 248.75 95.57 248.81 98.65 248.88 101.67 249 107.51 249.07 110.3 249.13 113 249.26 118.05 249.32 120.39 249.39 122.58 249.45 124.64 249.51 126.53 249.58 128.27 249.64 129.83 249.7 131.22 249.77 132.43 249.83 133.45 249.89 134.29 249.96 134.92 250.02 135.36 250.09 135.6 250.15 135.64 250.21 135.47 250.28 135.11 250.34 134.54 250.4 133.77 250.46 132.8 250.53 131.65 250.6 130.18 250.67 128.49 250.73 126.59 250.8 124.49 250.87 122.19 250.94 119.71 251.08 114.24 251.15 111.27 251.22 108.16 251.35 101.59 251.63 87.4 251.7 83.73 251.77 80.04 251.9 72.66 251.97 69.01 252.04 65.4 252.18 58.4 252.25 55.03 252.32 51.76 252.46 45.62 252.52 42.77 252.59 40.08 252.66 37.57 252.73 35.24 252.8 33.12 252.87 31.2 252.94 29.5 253.01 28.02 253.07 26.77 253.14 25.76 253.21 24.99 253.28 24.47 253.35 24.2 253.42 24.18 253.49 24.41 253.56 24.9 253.63 25.63 253.69 26.6 253.76 27.82 253.83 29.28 253.9 30.97 253.97 32.88 254.04 35.01 254.11 37.35 254.18 39.89 254.24 42.61 254.38 48.57 254.45 51.77 254.52 55.12 254.66 62.16 254.93 77.19 255 80.98 255.07 84.78 255.2 92.33 255.27 96.06 255.34 99.72 255.47 106.83 255.54 110.24 255.61 113.53 255.74 119.7 255.81 122.56 255.88 125.25 255.95 127.75 256.01 130.06 256.08 132.18 256.15 134.08 256.22 135.76 256.29 137.21 256.35 138.43 256.42 139.41 256.49 140.15 256.55 140.64 256.62 140.88 256.69 140.87 256.76 140.61 256.82 140.11 256.89 139.35 256.96 138.35 257.03 137.11 257.1 135.63 257.16 133.92 257.23 132 257.3 129.85 257.37 127.5 257.43 124.96 257.5 122.23 257.64 116.26 257.7 113.05 257.77 109.7 257.91 102.66 258.18 87.6 258.24 83.73 258.31 79.85 258.45 72.11 258.52 68.29 258.58 64.53 258.72 57.23 258.78 53.72 258.85 50.33 258.99 43.95 259.05 41 259.12 38.21 259.26 33.19 259.32 31.13 259.38 29.24 259.45 27.56 259.51 26.07 259.57 24.77 259.64 23.7 259.7 22.83 259.76 22.18 259.82 21.74 259.89 21.52 259.95 21.53 260.01 21.75 260.08 22.2 260.14 22.86 260.2 23.74 260.27 24.83 260.33 26.13 260.39 27.63 260.45 29.33 260.52 31.22 260.58 33.29 260.64 35.54 260.77 40.54 260.83 43.27 260.9 46.14 261.02 52.26 261.27 65.67 261.34 69.19 261.4 72.76 261.53 79.98 261.78 94.37 261.84 97.87 261.9 101.32 262.03 107.97 262.09 111.16 262.16 114.23 262.28 120.01 262.35 122.68 262.41 125.21 262.47 127.57 262.54 129.76 262.6 131.78 262.66 133.6 262.72 135.24 262.79 136.68 262.85 137.91 262.91 138.94 262.97 139.75 263.04 140.35 263.1 140.73 263.17 140.9 263.23 140.85 263.29 140.58 263.36 140.04 263.43 139.26 263.5 138.22 263.56 136.94 263.63 135.42 263.7 133.67 263.77 131.7 263.84 129.52 263.91 127.13 263.97 124.54 264.11 118.84 264.18 115.75 264.25 112.51 264.39 105.66 264.45 102.08 264.52 98.41 264.66 90.89 264.93 75.57 265 71.77 265.07 68.03 265.2 60.74 265.27 57.23 265.34 53.84 265.48 47.43 265.54 44.45 265.62 41.63 265.68 38.99 265.75 36.54 265.82 34.29 265.89 32.24 265.96 30.41 266.02 28.8 266.09 27.43 266.16 26.29 266.23 25.39 266.3 24.74 266.37 24.32 266.43 24.16 266.5 24.25 266.57 24.58 266.64 25.16 266.71 25.98 266.78 27.04 266.85 28.33 266.91 29.85 266.98 31.59 267.05 33.54 267.12 35.69 267.19 38.04 267.25 40.56 267.39 46.12 267.46 49.13 267.53 52.27 267.66 58.88 267.73 62.11 267.79 65.39 267.92 72.11 268.18 85.78 268.24 89.18 268.3 92.53 268.43 99.08 268.69 111.2 268.75 113.96 268.81 116.59 268.88 119.08 268.94 121.43 269 123.62 269.07 125.64 269.13 127.5 269.2 129.17 269.26 130.67 269.32 131.97 269.39 133.08 269.45 134 269.52 134.72 269.58 135.23 269.64 135.54 269.71 135.65 269.77 135.55 269.83 135.25 269.9 134.75 269.96 134.05 270.03 133.15 270.09 132.06 270.15 130.79 270.22 129.33 270.28 127.7 270.34 125.91 270.41 123.95 270.47 121.83 270.54 119.57 270.6 117.17 270.73 112.01 270.79 109.27 270.86 106.43 270.98 100.51 271.24 88.01 271.3 84.83 271.37 81.64 271.49 75.3 271.75 63.13 271.81 60.32 271.87 57.59 272 52.43 272.06 50.02 272.12 47.72 272.25 43.54 272.31 41.66 272.37 39.94 272.44 38.37 272.5 36.96 272.56 35.72 272.62 34.64 272.69 33.75 272.75 33.02 272.81 32.48 272.87 32.12 272.94 31.93 273 31.93 273.06 32.1 273.12 32.45 273.19 32.98 273.25 33.69 273.31 34.56 273.37 35.6 273.44 36.8 273.5 38.16 273.56 39.67 273.62 41.32 273.75 45.04 273.81 47.09 273.88 49.25 274 53.89 274.25 64.18 274.31 66.91 274.38 69.67 274.5 75.28 274.75 86.54 274.81 89.31 274.88 92.03 275 97.31 275.06 99.85 275.13 102.32 275.25 106.98 275.31 109.16 275.38 111.22 275.44 113.18 275.5 115 275.56 116.7 275.63 118.26 275.69 119.68 275.75 120.95 275.82 122.17 275.89 123.2 275.95 124.06 276.02 124.72 276.09 125.2 276.16 125.49 276.23 125.59 276.29 125.51 276.36 125.23 276.43 124.77 276.5 124.13 276.57 123.31 276.63 122.32 276.7 121.17 276.77 119.84 276.84 118.37 276.9 116.75 276.97 114.98 277.11 111.07 277.18 108.93 277.24 106.7 277.38 101.96 277.45 99.47 277.52 96.93 277.65 91.71 277.92 81.04 277.99 78.4 278.06 75.78 278.19 70.69 278.26 68.23 278.33 65.85 278.47 61.34 278.53 59.24 278.6 57.24 278.67 55.37 278.74 53.62 278.8 52 278.87 50.51 278.94 49.17 279.01 47.98 279.08 46.95 279.14 46.06 279.21 45.33 279.28 44.77 279.35 44.36 279.42 44.12 279.48 44.04 279.55 44.12 279.62 44.36 279.69 44.75 279.75 45.3 279.82 46 279.89 46.85 279.96 47.83 280.03 48.96 280.09 50.21 280.16 51.49 280.22 52.87 280.35 55.92 280.41 57.57 280.47 59.3 280.6 62.96 280.66 64.87 280.73 66.83 280.85 70.86 281.11 79.13 281.17 81.2 281.23 83.25 281.36 87.27 281.42 89.22 281.49 91.13 281.61 94.79 281.68 96.53 281.74 98.19 281.8 99.78 281.87 101.28 281.93 102.7 281.99 104.02 282.06 105.25 282.12 106.38 282.18 107.4 282.25 108.32 282.31 109.13 282.37 109.83 282.44 110.42 282.5 110.9 282.56 111.26 282.63 111.5 282.69 111.63 282.75 111.65 282.82 111.56 282.88 111.35 282.94 111.03 283.01 110.61 283.07 110.09 283.13 109.46 283.2 108.73 283.26 107.91 283.32 107 283.39 106 283.45 104.93 283.51 103.77 283.64 101.26 283.7 99.91 283.77 98.51 283.89 95.56 284.15 89.3 284.22 87.55 284.28 85.8 284.42 82.32 284.49 80.6 284.56 78.92 284.69 75.65 284.76 74.08 284.83 72.56 284.97 69.73 285.04 68.41 285.11 67.17 285.24 64.94 285.31 63.95 285.38 63.06 285.45 62.26 285.52 61.56 285.59 60.96 285.66 60.45 285.72 60.05 285.79 59.75 285.86 59.55 285.93 59.46 286 59.46 286.07 59.56 286.14 59.75 286.21 60.04 286.27 60.42 286.34 60.89 286.41 61.44 286.48 62.08 286.55 62.79 286.62 63.57 286.69 64.41 286.75 65.33 286.89 67.31 286.96 68.37 287.03 69.47 287.17 71.77 287.44 76.6 287.51 77.81 287.58 79.03 287.72 81.4 287.78 82.56 287.85 83.69 287.99 85.84 288.06 86.86 288.13 87.83 288.2 88.75 288.26 89.62 288.33 90.43 288.4 91.19 288.47 91.88 288.54 92.51 288.61 93.06 288.67 93.55 288.74 93.98 288.81 94.35 288.87 94.64 288.94 94.87 289.01 95.04 289.08 95.14 289.14 95.18 289.21 95.15 289.28 95.07 289.35 94.93 289.41 94.73 289.48 94.48 289.55 94.17 289.62 93.82 289.68 93.42 289.75 92.98 289.89 91.98 289.95 91.43 290.02 90.85 290.16 89.63 290.22 88.98 290.29 88.33 290.43 86.99 290.7 84.31 290.76 83.65 290.83 83.02 290.97 81.8 291.03 81.22 291.1 80.67 291.24 79.64 291.3 79.18 291.37 78.75 291.44 78.35 291.5 77.98 291.57 77.66 291.64 77.37 291.71 77.11 291.77 76.89 291.84 76.71 291.91 76.57 291.98 76.46 292.04 76.39 292.11 76.35 292.18 76.35 292.25 76.37 292.31 76.43 292.38 76.52 292.45 76.63 292.52 76.77 292.58 76.92 292.65 77.11 292.72 77.3 292.85 77.74 292.91 77.97 292.98 78.2 293.1 78.67 293.16 78.91 293.23 79.15 293.36 79.62 293.42 79.84 293.48 80.06 293.54 80.27 293.61 80.47 293.67 80.65 293.73 80.82 293.79 80.97 293.86 81.11 293.92 81.23 293.98 81.33 294.05 81.41 294.11 81.47 294.17 81.52 294.23 81.54 294.3 81.54 294.36 81.52 294.42 81.47 294.49 81.41 294.55 81.33 294.61 81.23 294.67 81.11 294.74 80.97 294.8 80.82 294.86 80.65 294.93 80.47 294.99 80.27 295.11 79.85 295.37 78.91 295.43 78.67 295.49 78.44 295.62 77.97 295.68 77.75 295.74 77.53 295.87 77.15 295.93 76.97 295.99 76.82 296.06 76.68 296.12 76.57 296.18 76.47 296.24 76.4 296.31 76.36 296.37 76.34 296.43 76.35 296.5 76.4 296.56 76.47 296.62 76.57 296.68 76.7 296.75 76.86 296.81 77.06 296.87 77.29 296.94 77.57 297.01 77.89 297.08 78.25 297.14 78.65 297.21 79.08 297.28 79.54 297.42 80.56 297.49 81.11 297.56 81.69 297.69 82.92 297.96 85.56 298.1 86.93 298.24 88.29 298.3 88.95 298.37 89.6 298.51 90.84 298.58 91.43 298.64 91.98 298.71 92.51 298.78 92.99 298.85 93.44 298.92 93.84 298.98 94.19 299.05 94.5 299.12 94.75 299.19 94.94 299.26 95.08 299.33 95.16 299.4 95.18 299.46 95.13 299.53 95.02 299.6 94.84 299.67 94.59 299.74 94.28 299.8 93.9 299.87 93.46 299.94 92.94 300.01 92.37 300.08 91.73 300.14 91.03 300.21 90.26 300.28 89.45 300.42 87.65 300.48 86.68 300.55 85.66 300.69 83.51 300.76 82.38 300.83 81.23 300.96 78.86 301.24 74.04 301.3 72.92 301.36 71.82 301.49 69.68 301.55 68.65 301.62 67.66 301.74 65.78 301.81 64.91 301.87 64.09 301.93 63.32 302 62.62 302.06 61.97 302.13 61.4 302.19 60.89 302.25 60.45 302.32 60.09 302.38 59.81 302.44 59.6 302.51 59.48 302.57 59.44 302.64 59.49 302.7 59.63 302.76 59.85 302.82 60.15 302.89 60.55 302.95 61.03 303.02 61.6 303.08 62.25 303.14 62.99 303.21 63.8 303.27 64.7 303.33 65.67 303.4 66.72 303.53 69.02 303.59 70.27 303.65 71.58 303.78 74.36 303.84 75.82 303.91 77.32 304.03 80.42 304.29 86.84 304.35 88.46 304.42 90.08 304.54 93.25 304.61 94.81 304.67 96.33 304.8 99.24 304.86 100.62 304.93 101.95 304.99 103.21 305.05 104.4 305.12 105.52 305.18 106.56 305.24 107.51 305.31 108.38 305.38 109.21 305.44 109.93 305.51 110.52 305.58 111 305.65 111.35 305.72 111.57 305.79 111.66 305.86 111.61 305.93 111.43 306 111.11 306.06 110.66 306.13 110.07 306.2 109.35 306.27 108.5 306.34 107.52 306.41 106.41 306.48 105.18 306.55 103.83 306.68 100.8 306.76 99.13 306.82 97.36 306.96 93.58 307.03 91.57 307.1 89.5 307.24 85.2 307.51 76.25 307.58 73.99 307.65 71.75 307.79 67.34 307.86 65.19 307.93 63.11 308.06 59.13 308.13 57.26 308.2 55.48 308.27 53.8 308.34 52.23 308.41 50.78 308.48 49.46 308.55 48.26 308.62 47.21 308.68 46.29 308.75 45.53 308.82 44.92 308.89 44.46 308.96 44.17 309.03 44.05 309.1 44.08 309.17 44.29 309.24 44.66 309.3 45.19 309.37 45.9 309.44 46.76 309.51 47.79 309.58 48.98 309.65 50.31 309.72 51.8 309.79 53.4 309.85 55.13 309.99 58.96 310.06 61.04 310.12 63.23 310.26 67.87 310.33 70.31 310.4 72.81 310.53 77.97 310.8 88.6 310.87 91.25 310.94 93.88 311.07 99.02 311.14 101.51 311.21 103.92 311.34 108.51 311.41 110.66 311.48 112.69 311.54 114.61 311.61 116.4 311.68 118.05 311.75 119.55 311.82 120.9 311.89 122.09 311.95 123.12 312.02 123.97 312.09 124.65 312.15 125.14 312.22 125.46 312.29 125.59 312.36 125.53 312.42 125.29 312.49 124.85 312.56 124.24 312.63 123.43 312.7 122.44 312.76 121.27 312.83 119.93 312.9 118.42 312.97 116.74 313.03 114.9 313.1 112.91 313.24 108.5 313.31 106.11 313.37 103.59 313.51 98.26 313.58 95.45 313.64 92.58 313.78 86.65 314.05 74.47 314.11 71.63 314.18 68.81 314.3 63.3 314.37 60.62 314.43 58.01 314.55 53.02 314.62 50.66 314.68 48.41 314.74 46.27 314.81 44.25 314.87 42.36 314.93 40.61 315 39 315.06 37.54 315.12 36.24 315.19 35.1 315.25 34.13 315.31 33.33 315.38 32.7 315.44 32.26 315.5 31.99 315.56 31.91 315.63 32.01 315.69 32.29 315.75 32.75 315.82 33.4 315.88 34.23 315.94 35.24 316.01 36.42 316.07 37.77 316.13 39.29 316.2 40.98 316.26 42.81 316.32 44.8 316.39 46.93 316.45 49.2 316.58 54.11 316.64 56.73 316.7 59.46 316.83 65.17 317.08 77.35 317.14 80.49 317.21 83.65 317.33 89.95 317.59 102.22 317.65 105.14 317.71 107.99 317.84 113.42 317.9 115.97 317.96 118.4 318.09 122.87 318.16 125.06 318.23 127.06 318.29 128.87 318.37 130.48 318.43 131.88 318.5 133.07 318.57 134.04 318.64 134.79 318.71 135.3 318.78 135.59 318.84 135.64 318.91 135.45 318.98 135.03 319.05 134.38 319.12 133.5 319.18 132.38 319.26 131.05 319.32 129.49 319.39 127.72 319.46 125.75 319.53 123.58 319.6 121.22 319.73 115.98 319.8 113.12 319.87 110.11 320.01 103.71 320.28 89.79 320.35 86.15 320.42 82.49 320.56 75.14 320.62 71.49 320.69 67.87 320.83 60.8 320.9 57.38 320.96 54.06 321.1 47.76 321.17 44.81 321.24 42.02 321.37 36.94 321.45 34.68 321.51 32.62 321.58 30.76 321.65 29.12 321.72 27.7 321.79 26.52 321.85 25.57 321.92 24.86 321.99 24.4 322.06 24.18 322.13 24.21 322.2 24.49 322.26 25.02 322.34 25.79 322.4 26.81 322.47 28.06 322.53 29.45 322.6 31.03 322.66 32.81 322.73 34.77 322.79 36.91 322.85 39.23 322.98 44.34 323.05 47.12 323.11 50.03 323.24 56.22 323.49 69.69 323.56 73.21 323.62 76.77 323.75 83.95 324.01 98.14 324.07 101.58 324.13 104.94 324.26 111.4 324.32 114.48 324.39 117.43 324.52 122.93 324.58 125.45 324.64 127.81 324.71 130 324.77 132.01 324.83 133.83 324.9 135.45 324.96 136.88 325.03 138.09 325.09 139.09 325.16 139.88 325.22 140.44 325.28 140.79 325.35 140.91 325.41 140.81 325.48 140.48 325.54 139.93 325.6 139.15 325.67 138.16 325.73 136.96 325.8 135.54 325.86 133.93 325.92 132.11 325.99 130.1 326.05 127.9 326.11 125.53 326.18 122.99 326.31 117.44 326.37 114.46 326.43 111.35 326.56 104.8 326.63 101.45 326.69 98.03 326.81 91.01 327.06 76.65 327.12 73.07 327.19 69.52 327.31 62.55 327.56 49.53 327.63 46.53 327.69 43.66 327.75 40.93 327.82 38.34 327.88 35.91 327.94 33.64 328 31.55 328.06 29.64 328.13 27.92 328.19 26.39 328.25 25.06 328.32 23.94 328.38 23.02 328.44 22.32 328.5 21.83 328.57 21.56 328.63 21.51 328.69 21.67 328.76 22.05 328.82 22.65 328.88 23.46 328.94 24.48 329 25.71 329.07 27.14 329.13 28.77 329.19 30.59 329.26 32.59 329.32 34.77 329.38 37.12 329.44 39.63 329.57 45.1 329.63 48.03 329.7 51.09 329.82 57.52 330.07 71.31 330.13 74.88 330.19 78.47 330.32 85.67 330.57 99.77 330.64 103.44 330.71 107.01 330.84 113.82 330.91 117.02 330.98 120.06 331.12 125.64 331.18 128.15 331.25 130.45 331.32 132.55 331.39 134.43 331.46 136.08 331.52 137.5 331.59 138.68 331.66 139.61 331.73 140.29 331.79 140.72 331.86 140.9 331.93 140.83 332 140.5 332.07 139.92 332.13 139.1 332.2 138.02 332.27 136.71 332.34 135.17 332.41 133.39 332.47 131.4 332.54 129.2 332.61 126.79 332.75 121.42 332.81 118.48 332.88 115.39 333.02 108.79 333.29 94.37 333.36 90.61 333.43 86.8 333.56 79.17 333.84 64.21 333.9 60.63 333.97 57.14 334.11 50.51 334.17 47.4 334.24 44.43 334.38 39 334.45 36.56 334.51 34.32 334.58 32.28 334.65 30.46 334.72 28.85 334.79 27.48 334.85 26.33 334.92 25.43 334.98 24.8 335.05 24.38 335.11 24.18 335.18 24.19 335.24 24.42 335.3 24.85 335.37 25.5 335.43 26.35 335.49 27.41 335.56 28.67 335.62 30.12 335.68 31.75 335.75 33.58 335.81 35.57 335.94 40.05 336 42.52 336.06 45.13 336.19 50.73 336.44 63.14 336.95 90.08 337.02 93.41 337.08 96.68 337.21 103.02 337.27 106.06 337.33 109.01 337.46 114.56 337.52 117.15 337.59 119.59 337.65 121.89 337.71 124.04 337.78 126.02 337.84 127.83 337.9 129.46 337.97 130.92 338.03 132.18 338.09 133.25 338.16 134.13 338.22 134.81 338.28 135.29 338.35 135.57 338.41 135.64 338.47 135.52 338.54 135.2 338.6 134.67 338.66 133.95 338.73 133.04 338.79 131.94 338.86 130.66 338.92 129.19 338.98 127.55 339.05 125.59 339.12 123.45 339.26 118.64 339.33 115.99 339.39 113.21 339.53 107.27 339.6 104.14 339.67 100.92 339.81 94.28 340.08 80.59 340.15 77.18 340.22 73.79 340.36 67.17 340.43 63.96 340.49 60.85 340.63 54.94 340.7 52.17 340.77 49.53 340.84 47.05 340.91 44.73 340.98 42.58 341.04 40.6 341.11 38.82 341.18 37.22 341.25 35.83 341.32 34.64 341.39 33.67 341.46 32.9 341.52 32.35 341.6 32.02 341.66 31.91 341.73 32.01 341.8 32.33 341.87 32.86 341.94 33.6 342.01 34.55 342.07 35.7 342.14 37.05 342.21 38.58 342.28 40.29 342.35 42.18 342.42 44.23 342.56 48.78 342.63 51.26 342.69 53.86 342.83 59.37 342.9 62.26 342.97 65.22 343.11 71.29 343.38 83.68 343.45 86.7 343.52 89.68 343.65 95.47 343.72 98.27 343.79 100.98 343.92 106.1 343.99 108.49 344.06 110.75 344.12 112.89 344.19 114.87 344.26 116.71 344.33 118.38 344.39 119.9 344.46 121.24 344.53 122.41 344.6 123.4 344.66 124.21 344.73 124.84 344.8 125.27 344.87 125.53 344.93 125.59 345 125.47 345.07 125.17 345.14 124.68 345.2 124.01 345.27 123.17 345.34 122.16 345.41 120.98 345.47 119.64 345.54 118.15 345.61 116.52 345.68 114.75 345.81 110.82 345.88 108.69 345.95 106.46 346.08 101.73 346.15 99.25 346.22 96.72 346.35 91.52 346.62 80.91 346.69 78.27 346.76 75.67 346.89 70.61 346.96 68.17 347.03 65.8 347.16 61.33 347.23 59.23 347.3 57.25 347.36 55.38 347.43 53.64 347.5 52.03 347.57 50.55 347.63 49.21 347.7 48.02 347.76 47.05 347.83 46.21 347.89 45.5 347.95 44.94 348.02 44.5 348.08 44.21 348.14 44.06 348.2 44.05 348.27 44.18 348.33 44.44 348.39 44.83 348.46 45.36 348.52 46.02 348.58 46.8 348.65 47.71 348.71 48.73 348.77 49.87 348.83 51.11 348.96 53.9 349.02 55.43 349.09 57.05 349.21 60.51 349.27 62.34 349.34 64.22 349.46 68.13 349.72 76.29 349.78 78.35 349.84 80.41 349.97 84.48 350.03 86.48 350.09 88.44 350.22 92.23 350.28 94.04 350.34 95.79 350.47 99.09 350.53 100.62 350.6 102.07 350.72 104.69 350.79 105.86 350.85 106.93 350.91 107.89 350.98 108.76 351.04 109.5 351.1 110.15 351.16 110.67 351.23 111.09 351.29 111.39 351.35 111.58 351.42 111.66 351.48 111.62 351.54 111.48 351.6 111.22 351.67 110.86 351.73 110.39 351.8 109.77 351.87 109.03 351.94 108.18 352 107.23 352.07 106.17 352.14 105.02 352.28 102.46 352.34 101.07 352.41 99.6 352.55 96.49 352.82 89.78 352.89 88.05 352.96 86.31 353.1 82.85 353.16 81.13 353.23 79.44 353.37 76.16 353.44 74.59 353.51 73.06 353.64 70.2 353.71 68.86 353.78 67.6 353.91 65.32 353.98 64.31 354.05 63.38 354.12 62.55 354.19 61.82 354.26 61.18 354.33 60.64 354.39 60.2 354.46 59.86 354.53 59.63 354.6 59.49 354.67 59.44 354.73 59.5 354.8 59.66 354.87 59.91 354.94 60.24 355.01 60.67 355.08 61.18 355.15 61.78 355.21 62.45 355.28 63.19 355.35 64 355.42 64.88 355.55 66.8 355.62 67.84 355.69 68.91 355.83 71.17 356.1 75.94 356.16 77.08 356.23 78.2 356.35 80.43 356.42 81.53 356.48 82.6 356.61 84.67 356.67 85.66 356.74 86.61 356.86 88.39 356.93 89.22 356.99 90 357.12 91.41 357.18 92.04 357.25 92.61 357.31 93.13 357.37 93.59 357.44 93.99 357.5 94.33 357.57 94.61 357.63 94.84 357.69 95.01 357.76 95.12 357.82 95.17 357.88 95.17 357.95 95.11 358.01 95 358.08 94.84 358.14 94.63 358.2 94.37 358.27 94.07 358.33 93.72 358.39 93.33 358.46 92.91 358.52 92.45 358.65 91.44 358.71 90.89 358.78 90.33 358.9 89.13 359.16 86.61 359.22 85.98 359.28 85.34 359.41 84.09 359.48 83.47 359.54 82.87 359.67 81.72 359.73 81.18 359.8 80.66 359.86 80.16 359.92 79.69 359.99 79.25 360.05 78.83 360.11 78.45 360.18 78.09 360.24 77.78 360.3 77.5 360.37 77.24 360.43 77.02 360.49 76.83 360.55 76.67 360.61 76.55 360.68 76.45 360.74 76.39 360.8 76.35 360.87 76.34 360.93 76.36 360.99 76.41 361.05 76.48 361.11 76.58 361.18 76.7 361.24 76.83 361.3 76.99 361.37 77.16 361.43 77.35 361.49 77.55 361.55 77.77 361.68 78.22 361.74 78.45 361.93 79.16 361.99 79.4 362.05 79.63 362.18 80.07 362.24 80.27 362.3 80.47 362.37 80.65 362.43 80.82 362.49 80.97 362.55 81.11 362.61 81.23 362.68 81.33 362.74 81.41 362.8 81.47 362.87 81.51 362.93 81.54 362.99 81.54 363.05 81.52 363.11 81.48 363.18 81.42 363.24 81.34 363.3 81.24 363.37 81.12 363.43 80.99 363.49 80.84 363.55 80.67 363.68 80.29 363.74 80.09 363.8 79.87 363.93 79.42 364.18 78.47 364.24 78.22 364.31 77.97 364.38 77.73 364.45 77.5 364.52 77.29 364.58 77.09 364.65 76.91 364.72 76.75 364.79 76.62 364.85 76.51 364.92 76.42 364.99 76.37 365.06 76.34 365.13 76.35 365.2 76.4 365.26 76.47 365.33 76.59 365.4 76.74 365.46 76.93 365.53 77.15 365.6 77.41 365.67 77.71 365.74 78.05 365.8 78.42 365.87 78.83 365.94 79.27 366.07 80.25 366.14 80.79 366.21 81.35 366.35 82.54 366.41 83.17 366.48 83.82 366.62 85.15 366.89 87.85 366.96 88.52 367.02 89.18 367.16 90.44 367.23 91.04 367.29 91.61 367.43 92.66 367.5 93.13 367.57 93.57 367.63 93.95 367.7 94.29 367.77 94.58 367.84 94.81 367.91 94.99 367.97 95.11 368.04 95.17 368.11 95.17 368.18 95.11 368.24 94.98 368.31 94.78 368.38 94.52 368.45 94.2 368.52 93.8 368.58 93.38 368.64 92.9 368.7 92.36 368.77 91.77 368.83 91.12 368.9 90.42 369.02 88.88 369.08 88.04 369.15 87.16 369.27 85.28 369.53 81.14 369.59 80.05 369.65 78.94 369.78 76.71 370.03 72.25 370.1 71.17 370.16 70.1 370.29 68.07 370.35 67.09 370.41 66.17 370.54 64.44 370.6 63.66 370.66 62.93 370.73 62.26 370.79 61.65 370.86 61.11 370.92 60.65 370.98 60.25 371.04 59.93 371.11 59.69 371.17 59.53 371.24 59.45 371.3 59.46 371.36 59.55 371.42 59.72 371.49 59.98 371.55 60.33 371.62 60.76 371.68 61.28 371.74 61.88 371.8 62.57 371.87 63.34 371.93 64.18 371.99 65.11 372.06 66.11 372.12 67.18 372.18 68.32 372.31 70.79 372.37 72.11 372.44 73.49 372.56 76.38 372.63 78.01 372.7 79.68 372.84 83.11 373.11 90.08 373.18 91.8 373.25 93.5 373.39 96.79 373.45 98.37 373.52 99.89 373.66 102.74 373.73 104.05 373.8 105.28 373.87 106.41 373.93 107.45 374 108.39 374.07 109.21 374.14 109.93 374.21 110.52 374.28 111 374.35 111.35 374.41 111.57 374.48 111.66 374.55 111.62 374.62 111.44 374.69 111.13 374.76 110.68 374.83 110.11 374.89 109.4 374.96 108.56 375.03 107.59 375.1 106.49 375.17 105.28 375.24 103.95 375.3 102.5 375.38 100.95 375.44 99.3 375.58 95.72 375.85 87.66 375.92 85.5 375.99 83.31 376.13 78.85 376.4 69.91 376.47 67.73 376.54 65.59 376.68 61.47 376.75 59.51 376.81 57.64 376.95 54.16 377.02 52.67 377.08 51.29 377.14 50.01 377.21 48.85 377.27 47.79 377.34 46.86 377.4 46.06 377.46 45.39 377.53 44.84 377.59 44.44 377.66 44.17 377.72 44.05 377.78 44.07 377.85 44.23 377.91 44.53 377.98 44.98 378.04 45.58 378.1 46.31 378.17 47.19 378.23 48.2 378.3 49.35 378.36 50.62 378.42 52.03 378.49 53.56 378.55 55.2 378.62 56.96 378.74 60.78 378.81 62.84 378.87 64.98 379 69.48 379.06 71.83 379.13 74.23 379.26 79.15 379.51 89.21 379.58 91.72 379.64 94.2 379.77 99.06 380.02 108.07 380.09 110.12 380.15 112.08 380.22 113.93 380.28 115.67 380.35 117.29 380.41 118.78 380.47 120.14 380.54 121.36 380.6 122.43 380.66 123.35 380.73 124.12 380.79 124.73 380.86 125.18 380.92 125.47 380.98 125.59 381.05 125.54 381.11 125.33 381.18 124.96 381.24 124.43 381.3 123.74 381.36 122.89 381.43 121.88 381.49 120.72 381.55 119.41 381.61 117.96 381.68 116.36 381.74 114.63 381.8 112.77 381.87 110.79 381.93 108.69 382.05 104.16 382.11 101.76 382.18 99.27 382.3 94.06 382.55 83.03 382.62 80.2 382.68 77.37 382.81 71.71 383.06 60.76 383.12 58.16 383.18 55.63 383.31 50.83 383.37 48.59 383.43 46.45 383.56 42.54 383.62 40.78 383.69 39.17 383.75 37.7 383.81 36.39 383.87 35.24 383.94 34.25 384 33.43 384.06 32.78 384.12 32.31 384.19 32.02 384.25 31.91 384.31 31.98 384.38 32.23 384.44 32.66 384.5 33.27 384.56 34.06 384.63 35.03 384.69 36.17 384.75 37.48 384.82 38.95 384.88 40.59 384.94 42.38 385.07 46.41 385.13 48.83 385.2 51.39 385.34 56.93 385.61 69.31 385.68 72.6 385.75 75.94 385.88 82.71 386.16 96.22 386.22 99.51 386.29 102.73 386.43 108.92 386.5 111.86 386.56 114.68 386.7 119.9 386.77 122.29 386.84 124.5 386.9 126.54 386.97 128.4 387.04 130.05 387.11 131.51 387.18 132.75 387.24 133.78 387.31 134.59 387.38 135.17 387.45 135.52 387.52 135.65 387.58 135.54 387.65 135.19 387.72 134.62 387.79 133.82 387.86 132.79 387.92 131.54 387.99 130.06 388.06 128.38 388.13 126.49 388.2 124.4 388.33 119.67 388.4 117.04 388.47 114.25 388.61 108.24 388.88 94.87 389.42 65.95 389.49 62.67 389.55 59.45 389.68 53.25 389.74 50.29 389.8 47.44 389.93 42.13 390 39.67 390.06 37.37 390.12 35.24 390.19 33.26 390.25 31.47 390.31 29.86 390.38 28.44 390.44 27.22 390.5 26.19 390.57 25.37 390.63 24.76 390.69 24.36 390.76 24.18 390.82 24.2 390.88 24.45 390.95 24.9 391.01 25.57 391.08 26.45 391.14 27.53 391.2 28.82 391.27 30.31 391.33 31.99 391.39 33.86 391.46 35.91 391.52 38.14 391.58 40.53 391.71 45.77 391.77 48.6 391.84 51.56 391.97 57.82 392.03 61.09 392.09 64.45 392.22 71.35 392.47 85.57 392.54 89.13 392.6 92.67 392.73 99.62 392.79 103.01 392.86 106.32 392.98 112.66 393.05 115.67 393.11 118.56 393.17 121.31 393.24 123.91 393.3 126.36 393.36 128.65 393.43 130.76 393.49 132.69 393.56 134.56 393.63 136.21 393.7 137.62 393.77 138.78 393.83 139.7 393.91 140.36 393.97 140.76 394.04 140.91 394.11 140.79 394.18 140.42 394.25 139.78 394.32 138.89 394.39 137.75 394.45 136.36 394.52 134.73 394.59 132.86 394.66 130.77 394.73 128.46 394.8 125.94 394.87 123.23 394.94 120.33 395 117.26 395.14 110.66 395.21 107.15 395.28 103.53 395.42 96.02 395.7 80.34 395.76 76.39 395.83 72.45 395.97 64.72 396.04 60.95 396.11 57.27 396.24 50.24 396.31 46.92 396.38 43.76 396.45 40.76 396.52 37.93 396.59 35.3 396.66 32.87 396.73 30.65 396.8 28.65 396.87 26.89 396.93 25.37 397 24.09 397.07 23.06 397.14 22.29 397.21 21.78 397.28 21.53 397.35 21.54 397.41 21.81 397.49 22.35 397.55 23.15 397.62 24.2 397.69 25.51 397.76 27.06 397.83 28.84 397.9 30.87 397.96 33.06 398.03 35.46 398.17 40.84 398.24 43.79 398.3 46.9 398.44 53.54 398.51 57.04 398.57 60.65 398.71 68.1 398.98 83.55 399.05 87.42 399.12 91.27 399.25 98.83 399.32 102.5 399.39 106.08 399.52 112.91 399.59 116.13 399.66 119.2 399.72 122.12 399.79 124.85 399.86 127.41 399.93 129.77 399.99 131.92 400.06 133.86 400.13 135.57 400.2 137.06 400.26 138.31 400.33 139.32 400.4 140.08 400.47 140.6 400.53 140.87 400.6 140.88 400.67 140.65 400.74 140.17 400.8 139.44 400.87 138.46 400.94 137.25 401.01 135.8 401.08 134.13 401.14 132.23 401.21 130.12 401.28 127.81 401.41 122.63 401.48 119.77 401.55 116.76 401.68 110.31 401.75 106.9 401.82 103.4 401.95 96.13 402.23 81.04 402.29 77.5 402.35 73.98 402.48 67.05 402.54 63.67 402.6 60.36 402.73 53.99 402.79 50.96 402.86 48.05 402.92 45.26 402.98 42.61 403.04 40.11 403.11 37.76 403.17 35.58 403.23 33.57 403.3 31.74 403.36 30.1 403.42 28.65 403.49 27.39 403.55 26.34 403.61 25.49 403.68 24.85 403.74 24.42 403.8 24.19 403.86 24.18 403.93 24.38 403.99 24.79 404.06 25.41 404.12 26.23 404.18 27.25 404.24 28.48 404.31 29.89 404.37 31.49 404.43 33.27 404.49 35.23 404.56 37.35 404.62 39.63 404.75 44.63 404.81 47.33 404.87 50.15 405 56.11 405.25 68.97 405.32 72.31 405.38 75.68 405.51 82.46 405.76 95.77 405.82 98.97 405.88 102.11 406.01 108.12 406.07 110.97 406.14 113.71 406.26 118.81 406.33 121.33 406.4 123.68 406.47 125.84 406.54 127.8 406.6 129.56 406.67 131.1 406.74 132.43 406.81 133.53 406.88 134.41 406.94 135.05 407.01 135.46 407.08 135.64 407.15 135.58 407.22 135.29 407.29 134.77 407.35 134.02 407.42 133.04 407.49 131.85 407.56 130.44 407.63 128.82 407.7 127.01 407.77 125.01 407.9 120.46 407.97 117.95 408.04 115.28 408.18 109.55 408.45 96.87 408.52 93.53 408.59 90.14 408.72 83.31 409 69.83 409.06 66.58 409.13 63.41 409.27 57.35 409.34 54.49 409.41 51.75 409.54 46.71 409.61 44.42 409.68 42.3 409.75 40.37 409.82 38.61 409.89 37.05 409.95 35.69 410.02 34.53 410.09 33.58 410.16 32.84 410.23 32.31 410.3 32 410.36 31.91 410.43 32.02 410.5 32.36 410.57 32.9 410.64 33.65 410.7 34.54 410.77 35.6 410.83 36.82 410.89 38.21 410.96 39.76 411.02 41.46 411.15 45.29 411.21 47.39 411.28 49.62 411.4 54.4 411.66 64.96 411.72 67.76 411.79 70.59 411.91 76.33 412.17 87.81 412.23 90.61 412.3 93.36 412.42 98.69 412.49 101.24 412.55 103.71 412.68 108.34 412.74 110.5 412.81 112.53 412.87 114.44 412.93 116.21 413 117.84 413.06 119.33 413.13 120.67 413.19 121.85 413.25 122.88 413.32 123.74 413.38 124.45 413.45 124.98 413.51 125.35 413.57 125.55 413.64 125.59 413.7 125.45 413.77 125.16 413.83 124.7 413.89 124.08 413.96 123.3 414.02 122.37 414.08 121.29 414.15 120.07 414.21 118.71 414.28 117.21 414.34 115.6 414.47 112.01 414.53 110.05 414.6 108 414.72 103.64 414.79 101.4 414.85 99.1 414.97 94.36 415.22 84.55 415.29 82.09 415.35 79.64 415.47 74.82 415.72 65.71 415.79 63.59 415.85 61.55 415.98 57.73 416.04 55.97 416.1 54.31 416.23 51.33 416.29 50.01 416.35 48.82 416.41 47.76 416.48 46.82 416.54 46.02 416.6 45.35 416.66 44.82 416.73 44.42 416.79 44.17 416.85 44.05 416.91 44.07 416.98 44.22 417.04 44.51 417.1 44.93 417.16 45.48 417.23 46.15 417.29 46.96 417.35 47.88 417.42 48.91 417.48 50.06 417.54 51.31 417.6 52.67 417.73 55.65 417.79 57.27 417.85 58.96 417.98 62.55 418.23 70.32 418.73 86.56 418.8 88.68 418.87 90.74 419 94.68 419.07 96.54 419.14 98.32 419.27 101.61 419.34 103.1 419.41 104.49 419.48 105.76 419.54 106.92 419.61 107.96 419.68 108.87 419.75 109.66 419.82 110.32 419.88 110.84 419.95 111.24 420.02 111.51 420.09 111.64 420.16 111.64 420.22 111.52 420.29 111.27 420.36 110.89 420.43 110.39 420.49 109.77 420.56 109.03 420.63 108.19 420.7 107.24 420.77 106.19 420.9 103.82 420.97 102.51 421.04 101.12 421.17 98.15 421.45 91.62 421.51 89.91 421.58 88.19 421.72 84.73 421.99 77.97 422.06 76.35 422.12 74.78 422.26 71.79 422.33 70.39 422.4 69.05 422.53 66.6 422.6 65.49 422.67 64.47 422.74 63.54 422.8 62.7 422.87 61.95 422.94 61.29 423.01 60.74 423.07 60.28 423.14 59.94 423.2 59.7 423.26 59.53 423.33 59.45 423.39 59.46 423.46 59.55 423.52 59.72 423.58 59.97 423.64 60.3 423.71 60.71 423.77 61.19 423.84 61.74 423.9 62.35 423.96 63.03 424.09 64.56 424.15 65.41 424.21 66.31 424.34 68.22 424.59 72.43 425.1 81.33 425.16 82.41 425.23 83.45 425.36 85.46 425.42 86.41 425.48 87.33 425.61 89.04 425.67 89.83 425.74 90.57 425.8 91.25 425.86 91.89 425.93 92.47 425.99 93 426.05 93.47 426.11 93.89 426.18 94.24 426.24 94.54 426.31 94.78 426.37 94.97 426.43 95.09 426.5 95.16 426.56 95.18 426.62 95.14 426.69 95.04 426.75 94.9 426.81 94.71 426.88 94.46 426.94 94.18 427 93.85 427.07 93.48 427.13 93.07 427.2 92.57 427.27 92.03 427.41 90.85 427.48 90.22 427.55 89.56 427.7 88.19 427.77 87.49 427.84 86.78 427.98 85.37 428.26 82.64 428.33 82 428.4 81.39 428.47 80.8 428.54 80.24 428.61 79.72 428.69 79.23 428.76 78.77 428.83 78.35 428.9 77.97 428.97 77.63 429.04 77.33 429.11 77.07 429.18 76.85 429.25 76.67 429.32 76.53 429.39 76.43 429.46 76.37 429.54 76.34 429.61 76.36 429.68 76.4 429.75 76.48 429.82 76.59 429.89 76.73 429.96 76.89 430.03 77.08 430.1 77.28 430.24 77.74 430.31 78 430.38 78.25 430.52 78.79 430.6 79.06 430.67 79.32 430.81 79.84 430.88 80.09 430.95 80.32 431.02 80.54 431.09 80.74 431.16 80.92 431.23 81.08 431.3 81.21 431.37 81.33 431.44 81.42 431.51 81.49 431.58 81.53 431.66 81.54"/>
  <line class="cls-2" x1="225.57" y1="81.54" x2="225.57" y2="79"/>
  <line class="cls-2" x1="280.24" y1="81.54" x2="280.24" y2="79"/>
  <text class="cls-17" transform="translate(275.88 90.92)"><tspan x="0" y="0">50</tspan></text>
  <line class="cls-2" x1="334.9" y1="81.54" x2="334.9" y2="79"/>
  <text class="cls-17" transform="translate(328.2 90.92)"><tspan x="0" y="0">100</tspan></text>
  <line class="cls-2" x1="389.57" y1="81.54" x2="389.57" y2="79"/>
  <text class="cls-17" transform="translate(382.87 90.92)"><tspan x="0" y="0">150</tspan></text>
  <line class="cls-8" x1="221.28" y1="81.54" x2="435.95" y2="81.54"/>
  <line class="cls-2" x1="225.57" y1="141.58" x2="228.11" y2="141.58"/>
  <text class="cls-17" transform="translate(204.71 144.26)"><tspan x="0" y="0">-0.10</tspan></text>
  <line class="cls-2" x1="225.57" y1="111.56" x2="228.11" y2="111.56"/>
  <text class="cls-17" transform="translate(204.71 114.24)"><tspan x="0" y="0">-0.05</tspan></text>
  <line class="cls-2" x1="225.57" y1="81.54" x2="228.11" y2="81.54"/>
  <line class="cls-2" x1="225.57" y1="51.52" x2="228.11" y2="51.52"/>
  <text class="cls-17" transform="translate(207.38 54.2)"><tspan x="0" y="0">0.05</tspan></text>
  <line class="cls-2" x1="225.57" y1="21.5" x2="228.11" y2="21.5"/>
  <text class="cls-17" transform="translate(207.38 24.18)"><tspan x="0" y="0">0.10</tspan></text>
  <line class="cls-8" x1="225.57" y1="147.54" x2="225.57" y2="14.87"/>
  <text class="cls-13" transform="translate(217.31 10.56)"><tspan class="cls-16" x="0" y="0">q</tspan><tspan class="cls-10" x="6.25" y="0">(</tspan><tspan class="cls-15" x="9.66" y="0">t</tspan><tspan class="cls-10" x="13.42" y="0">)</tspan></text>
  <text class="cls-12" transform="translate(438.65 85.94)"><tspan x="0" y="0">t</tspan></text>
  <text class="cls-11" transform="translate(193.9 14.43)"><tspan x="0" y="0">b</tspan></text>
</svg>