<?xml version="1.0" encoding="UTF-8"?>
<svg id="Layer_1" data-name="Layer 1" xmlns="http://www.w3.org/2000/svg" viewBox="0 0 261.39 166.57">
  <defs>
    <style>
      .cls-1, .cls-2 {
        font-family: MyriadPro-It, 'Myriad Pro';
        font-style: italic;
      }

      .cls-3 {
        stroke: #8fb032;
      }

      .cls-3, .cls-4, .cls-5, .cls-6 {
        stroke-width: 2px;
      }

      .cls-3, .cls-4, .cls-5, .cls-6, .cls-7, .cls-8 {
        fill: none;
        stroke-miterlimit: 3.25;
      }

      .cls-4 {
        stroke: #eb6235;
      }

      .cls-5 {
        stroke: #e19c24;
      }

      .cls-6 {
        stroke: #5e81b5;
      }

      .cls-7 {
        stroke-width: 1.44px;
      }

      .cls-7, .cls-8 {
        stroke: #000;
      }

      .cls-2, .cls-9, .cls-10 {
        font-size: 12px;
      }

      .cls-9, .cls-11, .cls-12 {
        font-family: MyriadPro-Regular, 'Myriad Pro';
      }

      .cls-11 {
        letter-spacing: 0em;
      }

      .cls-8 {
        stroke-width: 1.5px;
      }

      .cls-12 {
        letter-spacing: 0em;
      }
    </style>
  </defs>
  <polyline class="cls-6" points="14.81 23.92 14.88 23.92 14.95 23.92 15.02 23.92 15.1 23.93 15.17 23.93 15.24 23.94 15.31 23.94 15.38 23.95 15.45 23.96 15.52 23.97 15.59 23.98 15.67 23.99 15.74 24 15.81 24.02 15.95 24.05 16.02 24.06 16.1 24.08 16.24 24.12 16.31 24.14 16.38 24.16 16.52 24.21 16.6 24.23 16.67 24.26 16.81 24.31 17.1 24.43 17.17 24.46 17.24 24.5 17.38 24.57 17.67 24.72 17.74 24.76 17.81 24.8 17.96 24.89 18.24 25.07 18.31 25.12 18.38 25.17 18.53 25.27 18.81 25.49 19.39 25.96 19.46 26.03 19.54 26.1 19.7 26.25 20.01 26.55 20.63 27.21 20.7 27.3 20.78 27.39 20.94 27.57 21.25 27.94 21.87 28.75 21.95 28.85 22.02 28.96 22.18 29.18 22.49 29.62 23.11 30.56 24.35 32.65 24.42 32.78 24.49 32.91 24.64 33.18 24.93 33.72 25.51 34.84 26.67 37.25 26.74 37.41 26.81 37.56 26.96 37.88 27.25 38.53 27.83 39.87 28.98 42.69 29.06 42.87 29.13 43.05 29.27 43.41 29.55 44.14 30.12 45.64 31.26 48.76 33.53 55.47 38.46 71.73 43.06 88.19 48.04 106.22 52.94 122.9 53.01 123.13 53.08 123.35 53.22 123.81 53.51 124.72 54.08 126.51 55.22 130 55.29 130.21 55.36 130.42 55.5 130.85 55.79 131.69 56.36 133.34 57.5 136.52 57.58 136.73 57.66 136.94 57.81 137.35 58.12 138.17 58.74 139.78 59.98 142.82 60.05 143 60.13 143.18 60.29 143.54 60.59 144.25 61.21 145.63 62.45 148.21 62.52 148.35 62.6 148.49 62.74 148.77 63.03 149.32 63.61 150.38 63.68 150.51 63.75 150.64 63.9 150.89 64.18 151.38 64.76 152.33 64.83 152.44 64.91 152.56 65.05 152.78 65.34 153.21 65.92 154.04 65.99 154.14 66.06 154.24 66.21 154.43 66.49 154.81 67.07 155.51 67.14 155.59 67.21 155.67 67.36 155.83 67.64 156.14 68.21 156.71 68.28 156.78 68.35 156.84 68.49 156.97 68.77 157.22 69.34 157.67 69.41 157.72 69.48 157.77 69.62 157.87 69.9 158.05 69.97 158.1 70.05 158.14 70.19 158.22 70.47 158.38 70.54 158.41 70.61 158.45 70.75 158.52 70.82 158.55 70.89 158.58 71.04 158.64 71.11 158.67 71.18 158.7 71.32 158.75 71.39 158.77 71.46 158.8 71.6 158.84 71.68 158.86 71.76 158.88 71.83 158.9 71.91 158.92 71.99 158.94 72.06 158.96 72.22 158.99 72.29 159 72.37 159.01 72.45 159.02 72.52 159.03 72.6 159.04 72.68 159.05 72.75 159.05 72.83 159.06 72.91 159.06 72.99 159.06 73.06 159.07 73.14 159.07 73.22 159.06 73.29 159.06 73.37 159.06 73.45 159.06 73.52 159.05 73.6 159.04 73.68 159.04 73.75 159.03 73.83 159.02 73.91 159 73.98 158.99 74.06 158.98 74.14 158.96 74.21 158.95 74.29 158.93 74.37 158.91 74.44 158.89 74.52 158.87 74.68 158.83 74.75 158.8 74.83 158.78 74.98 158.73 75.29 158.6 75.37 158.57 75.44 158.54 75.6 158.47 75.9 158.31 75.98 158.26 76.06 158.22 76.21 158.13 76.52 157.94 76.59 157.89 76.66 157.84 76.8 157.74 77.09 157.52 77.16 157.47 77.23 157.41 77.38 157.3 77.66 157.05 77.74 156.99 77.81 156.92 77.95 156.79 78.24 156.51 78.81 155.91 78.88 155.83 78.95 155.75 79.1 155.59 79.38 155.25 79.96 154.53 81.1 152.91 81.18 152.79 81.26 152.67 81.42 152.43 81.73 151.93 82.35 150.89 83.59 148.6 83.67 148.45 83.75 148.29 83.9 147.98 84.21 147.36 84.83 146.05 86.08 143.26 86.15 143.08 86.23 142.9 86.38 142.54 86.69 141.81 87.3 140.3 88.52 137.12 90.96 130.19 91.03 129.98 91.1 129.77 91.24 129.34 91.53 128.48 92.1 126.73 93.23 123.13 95.51 115.59 100.45 98.15 105.05 81.42 110.05 64.02 110.12 63.77 110.2 63.51 110.35 63.01 110.66 62 111.27 60.01 112.5 56.13 114.95 48.86 115.02 48.66 115.09 48.46 115.24 48.06 115.52 47.26 116.09 45.71 117.24 42.74 117.31 42.56 117.38 42.38 117.52 42.02 117.81 41.32 118.38 39.95 119.52 37.36 119.6 37.19 119.68 37.02 119.83 36.69 120.14 36.04 120.76 34.78 120.84 34.63 120.92 34.48 121.07 34.17 121.38 33.59 122 32.45 122.08 32.32 122.16 32.18 122.31 31.91 122.62 31.39 123.24 30.39 124.48 28.6 124.55 28.51 124.63 28.41 124.77 28.22 125.06 27.86 125.64 27.18 125.71 27.1 125.78 27.02 125.93 26.87 126.22 26.57 126.8 26.02 126.87 25.95 126.94 25.89 127.09 25.76 127.37 25.53 127.45 25.47 127.52 25.41 127.66 25.31 127.95 25.1 128.03 25.05 128.1 25.01 128.24 24.91 128.53 24.74 128.6 24.7 128.68 24.66 128.82 24.59 129.11 24.45 129.18 24.41 129.25 24.38 129.39 24.33 129.47 24.3 129.54 24.27 129.68 24.22 129.75 24.2 129.82 24.17 129.96 24.13 130.03 24.11 130.1 24.09 130.25 24.06 130.32 24.04 130.39 24.03 130.46 24.01 130.53 24 130.6 23.99 130.67 23.98 130.74 23.97 130.81 23.96 130.88 23.95 130.95 23.94 131.03 23.93 131.1 23.93 131.17 23.93 131.24 23.92 131.31 23.92 131.38 23.92 131.45 23.92 131.52 23.92 131.59 23.92 131.66 23.92 131.74 23.93 131.81 23.93 131.88 23.94 131.95 23.94 132.02 23.95 132.09 23.96 132.16 23.97 132.23 23.98 132.3 23.99 132.37 24 132.52 24.03 132.59 24.05 132.66 24.06 132.8 24.1 132.87 24.12 132.94 24.14 133.08 24.18 133.15 24.21 133.22 24.23 133.37 24.28 133.65 24.4 133.73 24.43 133.8 24.47 133.96 24.54 134.27 24.7 134.34 24.75 134.42 24.79 134.57 24.88 134.88 25.08 134.96 25.13 135.03 25.19 135.19 25.3 135.5 25.53 136.11 26.05 136.19 26.12 136.27 26.2 136.42 26.34 136.73 26.65 137.34 27.31 137.42 27.4 137.5 27.49 137.65 27.67 137.96 28.05 138.57 28.86 138.65 28.95 138.72 29.05 138.86 29.26 139.15 29.67 139.72 30.54 140.87 32.47 140.94 32.59 141.01 32.72 141.16 32.98 141.45 33.51 142.02 34.61 143.17 36.98 143.25 37.15 143.32 37.32 143.48 37.66 143.79 38.35 144.41 39.78 145.66 42.81 148.15 49.51 148.22 49.73 148.3 49.95 148.45 50.39 148.76 51.28 149.37 53.09 150.59 56.83 153.04 64.75 157.6 80.64 162.54 98.59 167.16 114.91 167.23 115.15 167.3 115.39 167.44 115.87 167.72 116.83 168.29 118.73 169.42 122.44 171.68 129.52 171.76 129.75 171.84 129.98 171.99 130.44 172.3 131.34 172.91 133.13 174.14 136.55 174.22 136.76 174.29 136.97 174.45 137.38 174.75 138.19 175.37 139.78 176.59 142.8 176.67 142.97 176.74 143.14 176.88 143.47 177.17 144.13 177.74 145.42 178.89 147.82 178.96 147.97 179.03 148.11 179.17 148.39 179.46 148.95 180.03 150.02 181.18 151.99 181.25 152.12 181.33 152.24 181.49 152.48 181.8 152.96 182.42 153.87 182.5 153.97 182.57 154.08 182.73 154.29 183.04 154.7 183.66 155.46 183.74 155.55 183.81 155.64 183.97 155.82 184.28 156.16 184.36 156.24 184.44 156.32 184.59 156.48 184.9 156.78 184.98 156.85 185.06 156.92 185.21 157.06 185.52 157.32 186.14 157.8 186.22 157.85 186.29 157.9 186.43 157.99 186.72 158.17 186.79 158.21 186.87 158.25 187.01 158.33 187.3 158.48 187.38 158.51 187.45 158.55 187.59 158.61 187.66 158.64 187.74 158.67 187.88 158.72 187.95 158.75 188.03 158.78 188.17 158.82 188.24 158.84 188.32 158.87 188.46 158.9 188.53 158.92 188.61 158.94 188.68 158.95 188.75 158.97 188.82 158.98 188.9 158.99 188.97 159.01 189.04 159.02 189.11 159.03 189.19 159.03 189.26 159.04 189.33 159.05 189.4 159.05 189.48 159.06 189.55 159.06 189.62 159.06 189.69 159.07 189.77 159.07 189.84 159.06 189.91 159.06 189.98 159.06 190.06 159.06 190.13 159.05 190.2 159.05 190.27 159.04 190.35 159.03 190.42 159.02 190.49 159.01 190.56 159 190.64 158.99 190.78 158.96 190.85 158.95 190.92 158.93 191.06 158.9 191.14 158.88 191.21 158.86 191.35 158.81 191.42 158.79 191.49 158.77 191.63 158.72 191.92 158.6 191.99 158.57 192.06 158.54 192.2 158.48 192.49 158.33 192.56 158.29 192.63 158.25 192.77 158.17 193.05 158 193.12 157.95 193.2 157.9 193.34 157.8 193.62 157.6 193.69 157.54 193.76 157.49 193.91 157.38 194.19 157.14 194.26 157.08 194.33 157.01 194.47 156.88 194.76 156.62 195.33 156.03 195.4 155.95 195.48 155.87 195.64 155.69 195.94 155.33 196.56 154.56 196.64 154.46 196.71 154.36 196.87 154.15 197.18 153.72 197.79 152.81 197.87 152.7 197.95 152.58 198.1 152.33 198.41 151.84 199.03 150.79 200.26 148.51 200.33 148.37 200.4 148.23 200.55 147.94 200.83 147.36 201.41 146.16 202.56 143.59 204.86 137.87 204.94 137.66 205.02 137.46 205.17 137.04 205.49 136.19 206.11 134.47 207.36 130.87 209.85 123.16 214.75 106.49 219.32 89.99 224.27 72.23 228.89 56.85 228.96 56.63 229.04 56.41 229.18 55.97 229.46 55.1 230.03 53.37 231.16 50.04 231.23 49.84 231.3 49.63 231.44 49.23 231.73 48.43 232.29 46.86 233.43 43.85 233.5 43.65 233.58 43.45 233.73 43.06 234.04 42.29 234.66 40.78 235.89 37.94 235.96 37.77 236.04 37.6 236.19 37.26 236.5 36.6 237.12 35.33 238.35 32.96 238.42 32.83 238.49 32.7 238.63 32.45 238.92 31.95 239.49 30.99 239.56 30.87 239.64 30.76 239.78 30.53 240.07 30.09 240.64 29.24 240.71 29.14 240.78 29.04 240.93 28.84 241.21 28.46 241.79 27.74 241.86 27.65 241.93 27.57 242.07 27.4 242.36 27.08 242.94 26.48 243.02 26.4 243.1 26.32 243.26 26.17 243.58 25.88 243.66 25.81 243.74 25.74 243.9 25.61 244.22 25.36 244.3 25.3 244.38 25.24 244.54 25.13 244.86 24.92 244.94 24.87 245.02 24.82 245.18 24.73 245.5 24.56 245.58 24.52 245.66 24.48 245.82 24.41 245.9 24.38 245.98 24.34 246.14 24.28 246.22 24.25 246.3 24.22 246.46 24.17 246.54 24.14 246.62 24.12 246.78 24.08 246.86 24.06 246.94 24.04 247.02 24.02 247.1 24.01 247.18 23.99 247.26 23.98 247.34 23.97 247.42 23.96 247.5 23.95 247.58 23.94 247.66 23.93 247.74 23.93 247.82 23.92 247.9 23.92 247.98 23.92 248.06 23.92"/>
  <polyline class="cls-5" points="14.81 23.92 14.88 23.98 14.95 24.05 15.1 24.19 15.38 24.47 15.95 25.07 16.02 25.15 16.1 25.23 16.24 25.39 16.52 25.73 17.1 26.44 17.17 26.53 17.24 26.62 17.38 26.81 17.67 27.2 18.24 28 19.39 29.76 19.46 29.89 19.54 30.01 19.7 30.27 20.01 30.79 20.63 31.87 21.87 34.17 24.35 39.28 24.42 39.44 24.49 39.6 24.64 39.91 24.93 40.56 25.51 41.87 26.67 44.57 28.98 50.25 33.53 62.09 38.46 75.24 43.06 87.01 43.13 87.2 43.21 87.39 43.37 87.77 43.68 88.53 44.3 90.03 45.55 92.96 48.04 98.49 48.12 98.66 48.19 98.82 48.35 99.14 48.65 99.78 49.27 101.04 50.49 103.46 50.57 103.61 50.64 103.75 50.79 104.05 51.1 104.62 51.71 105.75 52.94 107.91 53.01 108.03 53.08 108.15 53.22 108.39 53.51 108.87 54.08 109.8 55.22 111.56 55.29 111.66 55.36 111.77 55.5 111.98 55.79 112.39 56.36 113.19 57.5 114.69 57.58 114.79 57.66 114.89 57.81 115.08 58.12 115.45 58.74 116.17 58.82 116.26 58.89 116.35 59.05 116.52 59.36 116.85 59.98 117.5 60.05 117.57 60.13 117.65 60.29 117.8 60.59 118.1 61.21 118.66 62.45 119.67 62.52 119.73 62.6 119.78 62.74 119.89 63.03 120.09 63.61 120.47 63.68 120.52 63.75 120.56 63.9 120.65 64.18 120.82 64.76 121.14 64.83 121.18 64.91 121.21 65.05 121.29 65.34 121.42 65.41 121.46 65.48 121.49 65.63 121.55 65.92 121.67 65.99 121.7 66.06 121.73 66.21 121.79 66.49 121.89 66.57 121.92 66.64 121.94 66.78 121.99 67.07 122.08 67.14 122.1 67.21 122.12 67.36 122.15 67.64 122.23 67.71 122.24 67.78 122.26 67.92 122.29 68.21 122.34 68.28 122.36 68.35 122.37 68.49 122.39 68.56 122.4 68.63 122.41 68.77 122.43 68.84 122.44 68.91 122.45 68.98 122.46 69.05 122.47 69.13 122.47 69.2 122.48 69.34 122.49 69.41 122.5 69.48 122.5 69.55 122.51 69.62 122.51 69.69 122.51 69.76 122.52 69.83 122.52 69.9 122.52 69.97 122.52 70.05 122.52 70.12 122.52 70.19 122.52 70.26 122.52 70.33 122.52 70.4 122.52 70.47 122.52 70.54 122.52 70.61 122.52 70.68 122.51 70.75 122.51 70.82 122.51 70.89 122.5 70.97 122.5 71.04 122.49 71.11 122.49 71.18 122.48 71.25 122.47 71.32 122.47 71.39 122.46 71.46 122.45 71.6 122.44 71.68 122.43 71.76 122.42 71.91 122.39 71.99 122.38 72.06 122.37 72.22 122.34 72.29 122.33 72.37 122.31 72.52 122.28 72.83 122.22 72.91 122.2 72.99 122.18 73.14 122.14 73.45 122.06 73.52 122.04 73.6 122.02 73.75 121.97 74.06 121.87 74.14 121.85 74.21 121.82 74.37 121.77 74.68 121.66 75.29 121.41 75.37 121.38 75.44 121.35 75.6 121.28 75.9 121.14 76.52 120.83 76.59 120.8 76.66 120.76 76.8 120.68 77.09 120.53 77.66 120.2 78.81 119.48 78.88 119.43 78.95 119.38 79.1 119.28 79.38 119.08 79.96 118.67 81.1 117.78 81.18 117.72 81.26 117.66 81.42 117.53 81.73 117.27 82.35 116.74 83.59 115.63 86.08 113.19 90.96 107.83 95.51 102.47 100.45 96.67 105.05 91.59 105.13 91.51 105.21 91.42 105.37 91.26 105.68 90.94 106.3 90.3 107.55 89.07 110.05 86.75 110.12 86.69 110.2 86.62 110.35 86.48 110.66 86.22 111.27 85.7 112.5 84.71 112.58 84.65 112.65 84.59 112.81 84.47 113.11 84.23 113.72 83.78 114.95 82.91 115.02 82.86 115.09 82.81 115.24 82.71 115.52 82.52 116.09 82.16 117.24 81.46 117.31 81.42 117.38 81.38 117.52 81.3 117.81 81.14 118.38 80.83 119.52 80.25 119.6 80.21 119.68 80.18 119.83 80.1 120.14 79.96 120.76 79.69 120.84 79.66 120.92 79.63 121.07 79.56 121.38 79.44 122 79.21 122.08 79.18 122.16 79.15 122.31 79.09 122.62 78.99 123.24 78.79 123.32 78.76 123.4 78.74 123.55 78.69 123.86 78.61 124.48 78.44 124.55 78.42 124.63 78.4 124.77 78.37 125.06 78.3 125.13 78.28 125.2 78.27 125.35 78.24 125.64 78.18 125.71 78.16 125.78 78.15 125.93 78.12 126.22 78.07 126.8 77.97 126.87 77.96 126.94 77.95 127.09 77.93 127.37 77.89 127.45 77.88 127.52 77.87 127.66 77.86 127.95 77.83 128.03 77.82 128.1 77.81 128.24 77.8 128.32 77.79 128.39 77.79 128.53 77.77 128.6 77.77 128.68 77.76 128.82 77.75 128.89 77.75 128.97 77.75 129.11 77.74 129.18 77.73 129.25 77.73 129.32 77.73 129.39 77.72 129.47 77.72 129.54 77.72 129.61 77.72 129.68 77.71 129.75 77.71 129.82 77.71 129.89 77.71 129.96 77.71 130.03 77.71 130.1 77.7 130.17 77.7 130.25 77.7 130.32 77.7 130.39 77.7 130.46 77.7 130.53 77.7 130.6 77.7 130.67 77.7 130.74 77.7 130.81 77.71 130.88 77.71 130.95 77.71 131.03 77.71 131.1 77.71 131.17 77.71 131.24 77.72 131.38 77.72 131.45 77.72 131.52 77.73 131.66 77.73 131.74 77.74 131.81 77.74 131.95 77.75 132.02 77.75 132.09 77.76 132.23 77.77 132.52 77.79 132.59 77.8 132.66 77.8 132.8 77.81 133.08 77.84 133.15 77.85 133.22 77.86 133.37 77.87 133.65 77.91 133.73 77.92 133.8 77.93 133.96 77.95 134.27 77.99 134.34 78 134.42 78.01 134.57 78.03 134.88 78.08 134.96 78.1 135.03 78.11 135.19 78.14 135.5 78.19 136.11 78.32 136.19 78.33 136.27 78.35 136.42 78.38 136.73 78.45 137.34 78.6 138.57 78.92 138.65 78.94 138.72 78.96 138.86 79.01 139.15 79.09 139.72 79.27 140.87 79.65 143.17 80.5 143.25 80.54 143.32 80.57 143.48 80.63 143.79 80.76 144.41 81.02 145.66 81.56 148.15 82.72 153.04 85.19 157.6 87.6 162.54 90.13 167.16 92.3 167.23 92.33 167.3 92.36 167.44 92.42 167.72 92.55 168.29 92.79 169.42 93.26 169.49 93.29 169.56 93.32 169.7 93.37 169.99 93.48 170.55 93.71 171.68 94.13 171.76 94.16 171.84 94.19 171.99 94.25 172.3 94.36 172.91 94.57 174.14 94.98 174.22 95.01 174.29 95.03 174.45 95.08 174.75 95.18 175.37 95.36 176.59 95.72 176.67 95.74 176.74 95.76 176.88 95.79 177.17 95.87 177.74 96.02 178.89 96.3 178.96 96.31 179.03 96.33 179.17 96.36 179.46 96.42 180.03 96.55 181.18 96.77 181.25 96.78 181.33 96.8 181.49 96.83 181.8 96.88 182.42 96.98 182.5 96.99 182.57 97.01 182.73 97.03 183.04 97.08 183.66 97.16 183.74 97.17 183.81 97.18 183.97 97.2 184.28 97.24 184.9 97.31 184.98 97.32 185.06 97.33 185.21 97.35 185.52 97.38 186.14 97.43 186.22 97.44 186.29 97.44 186.43 97.46 186.72 97.48 186.79 97.48 186.87 97.49 187.01 97.5 187.3 97.52 187.38 97.52 187.45 97.53 187.59 97.53 187.88 97.55 187.95 97.55 188.03 97.56 188.17 97.56 188.46 97.58 188.53 97.58 188.61 97.58 188.75 97.59 188.82 97.59 188.9 97.59 189.04 97.6 189.11 97.6 189.19 97.6 189.33 97.6 189.4 97.61 189.48 97.61 189.62 97.61 189.69 97.61 189.77 97.61 189.84 97.61 189.91 97.61 189.98 97.62 190.06 97.62 190.13 97.62 190.2 97.62 190.27 97.62 190.35 97.62 190.42 97.62 190.49 97.62 190.56 97.62 190.64 97.62 190.71 97.62 190.78 97.62 190.85 97.62 190.92 97.62 190.99 97.62 191.06 97.62 191.14 97.62 191.21 97.62 191.28 97.62 191.35 97.61 191.42 97.61 191.49 97.61 191.56 97.61 191.63 97.61 191.7 97.61 191.77 97.61 191.92 97.6 191.99 97.6 192.06 97.6 192.2 97.6 192.27 97.6 192.34 97.59 192.49 97.59 192.56 97.59 192.63 97.58 192.77 97.58 193.05 97.57 193.12 97.57 193.2 97.56 193.34 97.56 193.62 97.54 193.69 97.54 193.76 97.53 193.91 97.53 194.19 97.51 194.26 97.51 194.33 97.5 194.47 97.49 194.76 97.47 195.33 97.43 195.4 97.43 195.48 97.42 195.64 97.41 195.94 97.38 196.56 97.33 196.64 97.32 196.71 97.31 196.87 97.3 197.18 97.26 197.79 97.2 197.87 97.19 197.95 97.18 198.1 97.16 198.41 97.12 199.03 97.05 200.26 96.88 200.33 96.87 200.4 96.86 200.55 96.84 200.83 96.79 201.41 96.71 202.56 96.52 204.86 96.1 204.94 96.09 205.02 96.07 205.17 96.04 205.49 95.98 206.11 95.86 207.36 95.61 209.85 95.07 214.75 93.94 219.32 92.88 224.27 91.77 228.89 90.84 228.96 90.83 229.04 90.82 229.18 90.79 229.46 90.74 230.03 90.64 231.16 90.44 231.23 90.43 231.3 90.42 231.44 90.39 231.73 90.35 232.29 90.26 233.43 90.08 233.5 90.07 233.58 90.06 233.73 90.03 234.04 89.99 234.66 89.9 235.89 89.73 235.96 89.72 236.04 89.71 236.19 89.69 236.5 89.65 237.12 89.58 238.35 89.44 238.42 89.43 238.49 89.42 238.63 89.41 238.92 89.38 239.49 89.32 239.56 89.31 239.64 89.3 239.78 89.29 240.07 89.26 240.64 89.21 240.71 89.21 240.78 89.2 240.93 89.19 241.21 89.16 241.79 89.12 242.94 89.03 243.02 89.03 243.1 89.02 243.26 89.01 243.58 88.99 244.22 88.95 244.3 88.95 244.38 88.94 244.54 88.94 244.86 88.92 245.5 88.89 245.58 88.88 245.66 88.88 245.82 88.87 246.14 88.86 246.22 88.86 246.3 88.85 246.46 88.85 246.78 88.84 246.86 88.83 246.94 88.83 247.1 88.83 247.42 88.82 247.5 88.82 247.58 88.81 247.74 88.81 247.82 88.81 247.9 88.8 247.98 88.8 248.06 88.8"/>
  <polyline class="cls-3" points="14.81 23.92 14.88 23.92 14.95 23.92 15.02 23.92 15.1 23.93 15.17 23.93 15.24 23.94 15.31 23.94 15.38 23.95 15.45 23.96 15.52 23.97 15.59 23.98 15.67 23.99 15.74 24 15.81 24.01 15.95 24.04 16.02 24.06 16.1 24.07 16.24 24.11 16.31 24.13 16.38 24.15 16.52 24.19 16.6 24.21 16.67 24.24 16.81 24.28 17.1 24.39 17.17 24.42 17.24 24.45 17.38 24.51 17.67 24.64 17.74 24.68 17.81 24.71 17.96 24.79 18.24 24.94 18.31 24.98 18.38 25.02 18.53 25.11 18.81 25.28 19.39 25.67 19.46 25.72 19.54 25.78 19.7 25.89 20.01 26.12 20.63 26.62 21.87 27.73 21.95 27.8 22.02 27.87 22.18 28.02 22.49 28.33 23.11 28.96 24.35 30.3 24.42 30.39 24.49 30.47 24.64 30.63 24.93 30.96 25.51 31.64 26.67 33.03 28.98 35.96 33.53 41.99 38.46 48.51 43.06 54.29 48.04 60.02 52.94 65.03 57.5 69.14 62.45 72.99 67.07 76.06 71.6 78.63 71.68 78.67 71.76 78.71 71.91 78.79 72.22 78.94 72.83 79.25 74.06 79.85 76.52 80.98 76.59 81.01 76.66 81.04 76.8 81.1 77.09 81.22 77.66 81.46 78.81 81.93 81.1 82.81 81.18 82.84 81.26 82.87 81.42 82.92 81.73 83.03 82.35 83.25 83.59 83.67 86.08 84.46 86.15 84.48 86.23 84.51 86.38 84.55 86.69 84.64 87.3 84.82 88.52 85.16 90.96 85.79 91.03 85.81 91.1 85.83 91.24 85.86 91.53 85.93 92.1 86.07 93.23 86.33 95.51 86.82 95.59 86.83 95.66 86.85 95.82 86.88 96.13 86.94 96.74 87.06 97.98 87.3 100.45 87.73 100.52 87.74 100.59 87.75 100.73 87.78 101.02 87.83 101.6 87.92 102.75 88.1 105.05 88.43 105.13 88.44 105.21 88.45 105.37 88.47 105.68 88.51 106.3 88.59 107.55 88.75 110.05 89.04 110.12 89.05 110.2 89.06 110.35 89.08 110.66 89.11 111.27 89.17 112.5 89.3 114.95 89.53 115.02 89.54 115.09 89.54 115.24 89.56 115.52 89.58 116.09 89.63 117.24 89.72 119.52 89.9 119.6 89.91 119.68 89.91 119.83 89.92 120.14 89.94 120.76 89.99 122 90.07 124.48 90.22 124.55 90.23 124.63 90.23 124.77 90.24 125.06 90.26 125.64 90.29 126.8 90.35 129.11 90.47 129.18 90.47 129.25 90.47 129.39 90.48 129.68 90.49 130.25 90.52 131.38 90.57 133.65 90.66 133.73 90.67 133.8 90.67 133.96 90.67 134.27 90.69 134.88 90.71 136.11 90.75 138.57 90.83 138.65 90.84 138.72 90.84 138.86 90.84 139.15 90.85 139.72 90.87 140.87 90.9 143.17 90.96 143.25 90.96 143.32 90.96 143.48 90.97 143.79 90.98 144.41 90.99 145.66 91.02 148.15 91.07 148.22 91.07 148.3 91.08 148.45 91.08 148.76 91.08 149.37 91.1 150.59 91.12 153.04 91.16 153.11 91.16 153.18 91.16 153.32 91.16 153.61 91.17 154.18 91.18 155.32 91.19 157.6 91.22 157.67 91.22 157.75 91.23 157.91 91.23 158.22 91.23 158.83 91.24 160.07 91.25 162.54 91.28 162.61 91.28 162.69 91.28 162.83 91.28 163.12 91.29 163.7 91.29 164.85 91.3 167.16 91.32 167.23 91.32 167.3 91.32 167.44 91.32 167.72 91.33 168.29 91.33 169.42 91.34 171.68 91.36 171.76 91.36 171.84 91.36 171.99 91.36 172.3 91.36 172.91 91.36 174.14 91.37 176.59 91.38 176.67 91.38 176.74 91.38 176.88 91.39 177.17 91.39 177.74 91.39 178.89 91.4 181.18 91.41 181.25 91.41 181.33 91.41 181.49 91.41 181.8 91.41 182.42 91.41 183.66 91.42 186.14 91.42 186.22 91.42 186.29 91.42 186.43 91.43 186.72 91.43 187.3 91.43 188.46 91.43 190.78 91.44 190.85 91.44 190.92 91.44 191.06 91.44 191.35 91.44 191.92 91.44 193.05 91.44 195.33 91.45 195.4 91.45 195.48 91.45 195.64 91.45 195.94 91.45 196.56 91.45 197.79 91.45 200.26 91.46 200.33 91.46 200.4 91.46 200.55 91.46 200.83 91.46 201.41 91.46 202.56 91.46 204.86 91.46 204.94 91.46 205.02 91.46 205.17 91.47 205.49 91.47 206.11 91.47 207.36 91.47 207.43 91.47 207.51 91.47 207.67 91.47 207.98 91.47 208.6 91.47 209.85 91.47 209.93 91.47 210 91.47 210.16 91.47 210.46 91.47 211.07 91.47 212.3 91.47 214.75 91.48 214.82 91.48 214.89 91.48 215.03 91.48 215.32 91.48 215.89 91.48 217.03 91.48 219.32 91.48 219.39 91.48 219.47 91.48 219.63 91.48 219.93 91.48 220.55 91.48 221.79 91.48 224.27 91.48 224.34 91.48 224.41 91.48 224.56 91.48 224.85 91.48 225.43 91.48 226.58 91.48 228.89 91.48 228.96 91.48 229.04 91.48 229.18 91.48 229.46 91.48 230.03 91.48 231.16 91.48 233.43 91.49 233.5 91.49 233.58 91.49 233.73 91.49 234.04 91.49 234.66 91.49 235.89 91.49 238.35 91.49 238.42 91.49 238.49 91.49 238.63 91.49 238.92 91.49 239.49 91.49 240.64 91.49 240.71 91.49 240.78 91.49 240.93 91.49 241.21 91.49 241.79 91.49 242.94 91.49 243.02 91.49 243.1 91.49 243.26 91.49 243.58 91.49 244.22 91.49 245.5 91.49 245.58 91.49 245.66 91.49 245.82 91.49 246.14 91.49 246.78 91.49 246.86 91.49 246.94 91.49 247.1 91.49 247.42 91.49 247.5 91.49 247.58 91.49 247.74 91.49 247.82 91.49 247.9 91.49 247.98 91.49 248.06 91.49"/>
  <polyline class="cls-4" points="14.81 23.92 14.88 23.92 14.95 23.92 15.02 23.92 15.1 23.93 15.17 23.93 15.24 23.94 15.31 23.94 15.38 23.95 15.45 23.96 15.52 23.97 15.59 23.98 15.67 23.99 15.74 24 15.81 24.01 15.95 24.04 16.02 24.05 16.1 24.07 16.24 24.1 16.31 24.12 16.38 24.14 16.52 24.17 16.6 24.19 16.67 24.22 16.81 24.26 17.1 24.36 17.17 24.38 17.24 24.41 17.38 24.46 17.67 24.58 18.24 24.83 18.31 24.87 18.38 24.9 18.53 24.97 18.81 25.12 19.39 25.43 19.46 25.47 19.54 25.52 19.7 25.61 20.01 25.79 20.63 26.18 21.87 27.01 24.35 28.83 28.98 32.47 33.53 36.05 38.46 39.79 43.06 43.09 48.04 46.44 52.94 49.51 57.5 52.19 62.45 54.9 67.07 57.26 71.6 59.42 76.52 61.62 81.1 63.53 86.08 65.47 90.96 67.24 95.51 68.78 100.45 70.35 105.05 71.71 110.05 73.08 114.95 74.34 119.52 75.44 124.48 76.54 129.11 77.51 133.65 78.4 138.57 79.3 143.17 80.08 148.15 80.87 153.04 81.59 157.6 82.22 162.54 82.86 167.16 83.42 171.68 83.93 176.59 84.45 181.18 84.9 186.14 85.35 190.78 85.75 195.33 86.12 200.26 86.49 204.86 86.81 209.85 87.13 214.75 87.43 219.32 87.69 224.27 87.95 228.89 88.18 233.43 88.39 238.35 88.6 242.94 88.79 243.02 88.79 243.1 88.79 243.26 88.8 243.58 88.81 244.22 88.84 245.5 88.89 245.58 88.89 245.66 88.89 245.82 88.9 246.14 88.91 246.78 88.93 246.86 88.94 246.94 88.94 247.1 88.95 247.42 88.96 247.5 88.96 247.58 88.96 247.74 88.97 247.82 88.97 247.9 88.98 247.98 88.98 248.06 88.98"/>
  <line class="cls-7" x1="73.12" y1="91.49" x2="73.12" y2="88.62"/>
  <line class="cls-7" x1="131.43" y1="91.49" x2="131.43" y2="88.62"/>
  <line class="cls-7" x1="189.75" y1="91.49" x2="189.75" y2="88.62"/>
  <line class="cls-7" x1="248.06" y1="91.49" x2="248.06" y2="88.62"/>
  <line class="cls-8" x1="9.95" y1="91.49" x2="252.92" y2="91.49"/>
  <line class="cls-7" x1="14.81" y1="159.07" x2="17.68" y2="159.07"/>
  <line class="cls-7" x1="14.81" y1="125.28" x2="17.68" y2="125.28"/>
  <line class="cls-7" x1="14.81" y1="57.7" x2="17.68" y2="57.7"/>
  <line class="cls-7" x1="14.81" y1="23.92" x2="17.68" y2="23.92"/>
  <text class="cls-9" transform="translate(2.95 162.6)"><tspan x="0" y="0">-1</tspan></text>
  <text class="cls-9" transform="translate(6.64 27.41)"><tspan x="0" y="0">1</tspan></text>
  <text class="cls-9" transform="translate(0 128.81)"><tspan x="0" y="0">-½</tspan></text>
  <text class="cls-9" transform="translate(3.68 61.21)"><tspan x="0" y="0">½</tspan></text>
  <line class="cls-8" x1="14.81" y1="166.57" x2="14.81" y2="16.41"/>
  <text class="cls-9" transform="translate(69.76 101.39)"><tspan x="0" y="0">π</tspan></text>
  <text class="cls-9" transform="translate(124.98 101.39)"><tspan x="0" y="0">2π</tspan></text>
  <text class="cls-9" transform="translate(183.34 101.39)"><tspan x="0" y="0">3π</tspan></text>
  <text class="cls-9" transform="translate(240.65 101.39)"><tspan x="0" y="0">4π</tspan></text>
  <text class="cls-2" transform="translate(257.35 94.93)"><tspan x="0" y="0">t</tspan></text>
  <text class="cls-10" transform="translate(6.8 10.04)"><tspan class="cls-1" x="0" y="0">x</tspan><tspan class="cls-12" x="5.29" y="0">(</tspan><tspan class="cls-1" x="8.7" y="0">t</tspan><tspan class="cls-11" x="12.46" y="0">)</tspan></text>
</svg>