<?xml version="1.0" encoding="UTF-8"?>
<svg id="Layer_1" data-name="Layer 1" xmlns="http://www.w3.org/2000/svg" viewBox="0 0 153.05 300.3">
  <defs>
    <style>
      .cls-1, .cls-2 {
        stroke-width: 2px;
      }

      .cls-1, .cls-2, .cls-3, .cls-4, .cls-5 {
        stroke-linecap: square;
      }

      .cls-1, .cls-2, .cls-3, .cls-4, .cls-5, .cls-6 {
        fill: none;
        stroke-miterlimit: 3.25;
      }

      .cls-1, .cls-5 {
        stroke: #3f3f98;
      }

      .cls-2, .cls-4 {
        stroke: #9a3d71;
      }

      .cls-3 {
        stroke: #39b54a;
        stroke-width: 4px;
      }

      .cls-7 {
        font-size: 12px;
      }

      .cls-7, .cls-8 {
        font-family: MyriadPro-Regular, 'Myriad Pro';
      }

      .cls-7, .cls-8, .cls-9 {
        fill: #231f20;
      }

      .cls-6 {
        stroke: #231f20;
      }

      .cls-8 {
        font-size: 10px;
      }

      .cls-10 {
        fill: #3f3f98;
      }

      .cls-10, .cls-9, .cls-11 {
        stroke-width: 0px;
      }

      .cls-11 {
        fill: #9a3d71;
      }
    </style>
  </defs>
  <line class="cls-6" x1="28.46" y1="188.08" x2="153.05" y2="188.08"/>
  <line class="cls-6" x1="28.46" y1="38.08" x2="153.05" y2="38.08"/>
  <line class="cls-6" x1="28.46" y1="69.87" x2="30.46" y2="69.87"/>
  <line class="cls-6" x1="28.46" y1="53.98" x2="30.46" y2="53.98"/>
  <line class="cls-6" x1="28.46" y1="38.08" x2="30.46" y2="38.08"/>
  <line class="cls-6" x1="28.46" y1="22.19" x2="30.46" y2="22.19"/>
  <line class="cls-6" x1="28.46" y1="6.3" x2="30.46" y2="6.3"/>
  <line class="cls-6" x1="28.46" y1="70.58" x2="28.46" y2="5.58"/>
  <polyline class="cls-3" points="28.46 188.08 28.5 188.08 28.54 188.08 28.61 188.08 28.76 188.08 29.06 188.08 29.66 188.08 30.86 188.08 33.46 188.08 35.88 188.08 38.26 188.08 40.84 188.08 43.24 188.08 45.85 188.08 48.41 188.08 50.8 188.08 53.39 188.08 55.81 188.08 55.85 188.08 55.88 188.08 55.96 188.08 56.11 188.08 56.4 188.08 56.99 188.08 57.03 188.08 57.07 188.08 57.14 188.08 57.29 188.08 57.59 188.08 58.18 188.08 58.22 188.08 58.26 188.08 58.34 188.08 58.5 188.08 58.54 188.08 58.58 188.08 58.66 188.08 58.82 188.08 58.86 188.08 58.9 188.08 58.94 188.08 58.98 188.12 59.02 188.29 59.06 188.45 59.14 188.78 59.18 188.94 59.22 189.11 59.31 189.44 59.47 190.09 59.51 190.25 59.55 190.42 59.63 190.74 59.79 191.39 60.11 192.66 60.75 195.1 60.79 195.24 60.83 195.38 60.9 195.65 61.05 196.18 61.35 197.21 61.39 197.34 61.43 197.46 61.5 197.71 61.65 198.19 61.95 199.11 61.99 199.22 62.03 199.33 62.1 199.54 62.25 199.96 62.55 200.74 62.59 200.83 62.63 200.92 62.7 201.1 62.85 201.44 63.15 202.06 63.19 202.14 63.23 202.22 63.31 202.37 63.48 202.65 63.52 202.71 63.56 202.78 63.64 202.9 63.8 203.13 63.84 203.18 63.88 203.23 63.96 203.33 64.01 203.37 64.05 203.42 64.13 203.5 64.17 203.54 64.21 203.58 64.29 203.65 64.33 203.68 64.37 203.71 64.45 203.77 64.49 203.8 64.53 203.82 64.57 203.84 64.61 203.86 64.66 203.88 64.7 203.9 64.74 203.91 64.78 203.93 64.82 203.94 64.86 203.95 64.9 203.96 64.94 203.97 64.98 203.97 65.02 203.97 65.06 203.97 65.1 203.97 65.14 203.97 65.18 203.97 65.22 203.96 65.27 203.96 65.31 203.95 65.35 203.94 65.39 203.92 65.43 203.91 65.47 203.89 65.51 203.88 65.55 203.86 65.59 203.84 65.63 203.81 65.67 203.79 65.75 203.73 65.79 203.71 65.83 203.67 65.91 203.61 65.95 203.57 65.99 203.54 66.07 203.46 66.11 203.41 66.15 203.37 66.23 203.28 66.39 203.07 66.43 203.02 66.47 202.96 66.55 202.84 66.71 202.59 66.75 202.52 66.79 202.45 66.87 202.31 67.03 202.01 67.07 201.93 67.11 201.85 67.19 201.68 67.35 201.33 67.67 200.57 67.71 200.47 67.75 200.36 67.83 200.15 67.99 199.72 68.31 198.79 68.34 198.68 68.38 198.56 68.46 198.33 68.6 197.86 68.9 196.87 69.5 194.75 69.53 194.61 69.57 194.47 69.65 194.19 69.79 193.62 70.09 192.47 70.13 192.32 70.17 192.17 70.24 191.88 70.39 191.28 70.69 190.08 70.73 189.92 70.77 189.76 70.85 189.43 70.89 189.26 70.93 189.1 71.01 188.77 71.05 188.6 71.09 188.44 71.13 188.27 71.17 188.11 71.21 188.08 71.25 188.08 71.29 188.08 71.33 188.08 71.37 188.08 71.41 188.08 71.45 188.08 71.5 188.08 71.54 188.08 71.58 188.08 71.62 188.08 71.66 188.08 71.7 188.08 71.74 188.08 71.78 188.08 71.82 188.08 71.86 188.08 71.9 188.08 71.94 188.08 71.98 188.08 72.02 188.08 72.06 188.08 72.1 188.08 72.14 188.08 72.18 188.08 72.22 188.08 72.26 188.08 72.3 188.08 72.34 188.08 72.38 188.08 72.42 188.08 72.46 188.08 72.5 188.08 72.54 188.08 72.58 188.08 72.63 188.08 72.67 188.08 72.71 188.08 72.75 188.08 72.79 188.08 72.83 188.08 72.87 188.08 72.91 188.08 72.95 188.08 72.99 188.08 73.03 188.08 73.07 188.08 73.11 188.08 73.15 188.08 73.19 188.08 73.23 188.08 73.27 188.08 73.31 188.08 73.35 188.08 73.38 188.08 73.42 188.08 73.46 188.08 73.5 188.08 73.53 188.08 73.57 188.08 73.61 188.08 73.65 188.08 73.69 188.08 73.72 188.08 73.76 188.08 73.8 188.08 73.84 188.08 73.87 188.08 73.91 188.08 73.95 188.08 73.99 188.08 74.02 188.08 74.06 188.08 74.1 188.08 74.14 188.08 74.18 188.08 74.21 188.08 74.25 188.08 74.29 188.08 74.33 188.08 74.36 188.08 74.4 188.08 74.44 188.08 74.48 188.08 74.78 188.08 75.08 188.08 75.12 188.08 75.15 188.08 75.19 188.08 75.23 188.08 75.27 188.08 75.31 188.08 75.34 188.08 75.38 188.08 75.42 188.08 75.46 188.08 75.49 188.08 75.53 188.08 75.57 188.08 75.61 188.08 75.64 188.08 75.68 188.08 75.72 188.08 75.76 188.08 75.8 188.08 75.85 188.08 75.89 188.08 75.93 188.08 75.97 188.08 76.01 188.08 76.17 188.08 76.34 188.08 76.38 188.08 76.42 188.08 76.46 188.08 76.5 188.08 76.66 188.08 76.7 188.08 76.74 188.08 76.78 188.08 76.82 188.08 76.99 188.08 77.03 188.08 77.07 188.08 77.11 188.08 77.15 188.08 77.19 188.08 77.23 188.08 77.31 188.08 77.36 188.08 77.4 188.08 77.48 188.08 77.52 188.08 77.56 188.08 77.6 188.08 77.64 188.08 77.68 188.08 77.72 188.08 77.76 188.08 77.8 188.08 77.97 188.08 78.01 188.08 78.05 188.08 78.09 188.08 78.13 188.08 78.17 188.08 78.21 188.08 78.25 188.08 78.29 188.08 80.86 188.08 80.9 188.08 80.93 188.08 80.97 188.08 81.01 188.08 81.05 188.08 81.08 188.08 81.12 188.08 81.16 188.08 81.2 188.08 81.23 188.08 81.27 188.08 81.31 188.08 81.35 188.08 81.38 188.08 81.42 188.08 81.46 188.08 81.49 188.08 81.53 188.08 81.57 188.08 81.61 188.08 81.64 188.08 81.68 188.08 81.72 188.08 81.76 188.08 81.79 188.08 81.83 188.08 81.87 188.08 81.91 188.08 81.94 188.08 81.98 188.08 82.02 188.08 82.06 188.08 82.09 188.08 82.13 188.08 82.17 188.08 82.21 188.08 82.24 188.08 82.28 188.08 82.32 188.08 82.35 188.08 82.39 188.08 82.43 188.08 82.47 188.08 82.5 188.08 82.54 188.08 82.58 188.08 82.62 188.08 82.65 188.08 82.69 188.08 82.73 188.08 82.77 188.08 82.8 188.08 82.84 188.08 82.88 188.08 82.92 188.08 82.95 188.08 82.99 188.08 83.03 188.08 83.07 188.08 83.1 188.08 83.14 188.08 83.18 188.08 83.21 188.08 83.25 188.08 83.29 188.08 83.33 188.08 83.37 188.08 83.41 188.08 83.45 188.08 83.5 188.08 83.54 188.08 83.58 188.08 83.62 188.08 83.66 188.08 83.74 188.08 83.78 188.08 83.82 188.08 83.86 188.08 83.9 188.08 83.94 188.08 83.98 188.08 84.02 188.08 84.06 188.08 84.1 188.08 84.14 188.08 84.23 188.08 84.27 188.08 84.31 188.08 84.35 188.08 84.39 188.08 84.43 188.08 84.47 188.08 84.51 188.08 84.55 188.08 84.59 188.08 84.63 188.08 84.71 188.08 84.75 188.08 84.79 188.08 84.83 188.08 84.87 188.08 84.91 188.08 84.95 188.08 85 188.08 85.04 188.08 85.08 188.08 85.12 188.08 85.2 188.08 85.24 188.08 85.28 188.08 85.32 188.08 85.36 188.08 85.4 188.08 85.44 188.08 85.48 188.08 85.52 188.08 85.56 188.08 85.6 188.08 85.68 188.08 85.72 188.08 85.77 188.08 85.81 188.08 85.85 188.08 85.88 188.08 85.92 188.08 85.96 188.08 86 188.08 86.04 188.08 86.07 188.08 86.15 188.08 86.19 188.08 86.22 188.08 86.3 188.08 86.45 188.08 86.75 188.08 87.06 188.08 87.1 188.08 87.13 188.08 87.21 188.08 87.36 188.08 87.4 188.08 87.44 188.08 87.51 188.08 87.55 188.08 87.59 188.08 87.63 188.08 87.66 188.08 87.7 188.08 87.74 188.08 87.78 188.08 87.81 188.08 87.85 188.08 87.89 188.08 87.97 188.08 88.12 188.08 88.27 188.08 88.31 188.08 88.34 188.08 88.38 188.08 88.42 188.08 88.45 188.08 88.49 188.08 88.53 188.08 88.57 188.08 88.6 188.08 88.64 188.08 88.68 188.08 88.71 188.08 88.75 188.08 88.79 188.08 88.83 188.08 88.86 188.08 88.9 188.08 88.94 188.08 88.97 188.08 89.01 188.08 89.05 188.08 89.09 188.08 89.12 188.08 89.16 188.08 89.2 188.08 89.23 188.08 89.27 188.08 89.31 188.08 89.34 188.08 89.38 188.08 89.46 188.08 89.49 188.08 89.53 188.08 89.6 188.08 89.64 188.08 89.68 188.08 89.72 188.08 89.75 188.08 89.79 188.08 89.83 188.08 89.86 188.08 89.9 188.08 89.94 188.08 89.97 188.08 90.01 188.08 90.05 188.08 90.09 188.08 90.12 188.08 90.16 188.08 90.2 188.08 90.24 188.08 90.27 188.08 90.31 188.08 90.35 188.08 90.38 188.08 90.42 188.08 90.46 188.08 90.49 188.08 90.53 188.08 90.57 188.08 90.61 188.08 90.64 188.08 90.68 188.08 90.72 188.08 90.76 188.08 90.8 188.08 90.84 188.08 90.88 188.08 90.92 188.08 90.97 188.08 91.01 188.08 91.05 188.08 91.09 188.08 91.13 188.08 91.17 188.08 91.21 188.08 91.25 188.08 91.29 188.08 91.33 188.08 91.37 188.08 91.41 188.08 91.45 188.08 91.49 188.08 91.53 188.08 91.57 188.08 91.61 188.08 91.65 188.08 91.69 188.08 91.73 188.08 91.77 188.08 91.81 188.08 91.85 188.08 91.89 188.08 91.93 188.08 91.97 188.08 92.01 188.08 92.05 188.08 92.09 188.08 92.13 188.08 92.17 188.08 92.21 188.08 92.25 188.08 92.29 188.08 92.33 188.08 92.37 188.08 92.41 188.08 92.45 188.08 92.49 188.08 92.54 188.08 92.58 188.08 92.62 188.08 92.66 188.08 92.7 188.08 92.74 188.08 92.78 188.08 92.82 188.08 92.86 188.08 92.9 188.08 92.94 188.08 92.98 188.08 93.02 188.08 93.06 188.08 93.1 188.08 93.14 188.08 93.18 188.08 93.22 188.08 93.26 188.08 93.3 188.08 93.33 188.08 93.37 188.08 93.41 188.08 93.44 188.08 93.48 188.08 93.52 188.08 93.56 188.08 93.59 188.08 93.63 188.08 93.67 188.08 93.82 188.08 93.86 188.08 93.9 188.08 93.93 188.08 93.97 188.08 94.01 188.08 94.05 188.08 94.08 188.08 94.12 188.08 94.16 188.08 94.2 188.08 94.23 188.08 94.27 188.08 94.31 188.08 94.35 188.08 94.38 188.08 94.42 188.08 94.46 188.08 94.5 188.08 94.53 188.08 94.57 188.08 94.61 188.08 94.65 188.08 94.68 188.08 94.72 188.08 94.76 188.08 94.8 188.08 94.84 188.08 94.87 188.08 94.91 188.08 94.95 188.08 94.98 188.08 95.02 188.08 95.62 188.08 95.66 188.08 95.7 188.08 95.79 188.08 95.83 188.08 95.87 188.08 95.91 188.08 95.95 188.08 95.99 188.08 96.03 188.08 96.07 188.08 96.11 188.08 96.15 188.08 96.19 188.08 96.27 188.08 96.32 188.08 96.36 188.08 96.4 188.08 96.44 188.08 96.48 188.08 96.52 188.08 96.56 188.08 96.6 188.08 96.64 188.08 96.68 188.08 96.76 188.08 96.8 188.08 96.84 188.08 96.88 188.08 96.93 188.08 96.97 188.08 97.01 188.08 97.05 188.08 97.09 188.08 97.17 188.08 97.25 188.08 97.29 188.08 97.33 188.08 97.37 188.08 97.41 188.08 97.46 188.08 97.5 188.08 97.54 188.08 97.58 188.08 97.62 188.08 97.66 188.08 97.74 188.08 97.78 188.08 97.82 188.08 97.86 188.08 97.9 188.08 97.94 188.08 97.98 188.08 98.03 188.08 98.07 188.08 98.11 188.08 98.15 188.08 98.23 188.08 98.55 188.08 98.87 188.08 98.91 188.08 98.95 188.08 98.99 188.08 99.03 188.08 99.07 188.08 99.11 188.08 99.15 188.08 99.19 188.08 99.27 188.08 99.35 188.08 99.39 188.08 99.43 188.08 99.47 188.08 99.51 188.08 99.55 188.08 99.59 188.08 99.63 188.08 99.67 188.08 99.71 188.08 99.75 188.08 99.83 188.08 99.87 188.08 99.91 188.08 99.95 188.08 99.99 188.08 100.03 188.08 100.07 188.08 100.11 188.08 100.15 188.08 100.19 188.08 100.23 188.08 100.27 188.08 100.31 188.08 100.35 188.08 100.39 188.08 100.43 188.08 100.47 188.08 100.51 188.08 100.55 188.08 100.59 188.08 100.63 188.08 100.67 188.08 100.71 188.08 100.75 188.08 100.79 188.08 100.82 188.08 100.86 188.08 100.9 188.08 100.94 188.08 100.97 188.08 101.01 188.08 101.05 188.08 101.09 188.08 101.12 188.08 101.16 188.08 101.23 188.08 101.27 188.08 101.31 188.08 101.35 188.08 101.38 188.08 101.42 188.08 101.46 188.08 101.5 188.08 101.53 188.08 101.61 188.08 101.68 188.08 101.72 188.08 101.76 188.08 101.79 188.08 101.83 188.08 101.87 188.08 101.91 188.08 101.94 188.08 101.98 188.08 102.02 188.08 102.05 188.08 102.13 188.08 102.17 188.08 102.2 188.08 102.24 188.08 102.28 188.08 102.32 188.08 102.35 188.08 102.39 188.08 102.43 188.08 102.5 188.08 102.58 188.08 102.61 188.08 102.65 188.08 102.69 188.08 102.72 188.08 102.76 188.08 102.8 188.08 102.84 188.08 102.87 188.08 102.91 188.08 102.95 188.08 103.02 188.08 103.06 188.08 103.1 188.08 103.13 188.08 103.17 188.08 103.21 188.08 103.25 188.08 103.29 188.08 103.33 188.08 103.37 188.08 103.42 188.08 103.46 188.08 103.5 188.08 103.54 188.08 103.58 188.08 103.62 188.08 103.66 188.08 103.82 188.08 103.86 188.08 103.9 188.08 103.94 188.08 103.98 188.08 104.02 188.08 104.06 188.08 104.1 188.08 104.14 188.08 104.18 188.08 104.22 188.08 104.26 188.08 104.3 188.08 104.34 188.08 104.39 188.08 104.43 188.08 104.47 188.08 104.51 188.08 104.55 188.08 104.59 188.08 104.63 188.08 104.79 188.08 104.83 188.08 104.87 188.08 104.91 188.08 104.95 188.08 104.99 188.08 105.03 188.08 105.07 188.08 105.11 188.08 105.15 188.08 105.19 188.08 105.23 188.08 105.27 188.08 105.32 188.08 105.36 188.08 105.4 188.08 105.44 188.08 105.48 188.08 105.52 188.08 105.56 188.08 105.6 188.08 105.76 188.08 106.36 188.08 106.97 188.08 107.01 188.08 107.04 188.08 107.08 188.08 107.12 188.08 107.16 188.08 107.19 188.08 107.23 188.08 107.27 188.08 107.31 188.08 107.34 188.08 107.38 188.08 107.42 188.08 107.46 188.08 107.5 188.08 107.53 188.08 107.57 188.08 107.61 188.08 107.65 188.08 107.68 188.08 107.72 188.08 107.76 188.08 107.8 188.05 107.84 187.89 107.87 187.74 107.91 187.59 107.95 187.43 108.02 187.12 108.17 186.51 108.21 186.36 108.25 186.21 108.32 185.91 108.47 185.31 108.77 184.13 109.36 181.84 109.4 181.7 109.43 181.56 109.51 181.28 109.66 180.74 109.95 179.69 110.54 177.74 110.58 177.62 110.62 177.49 110.7 177.25 110.86 176.78 111.18 175.9 111.22 175.79 111.27 175.69 111.35 175.49 111.51 175.1 111.83 174.38 111.87 174.3 111.91 174.22 111.99 174.06 112.15 173.77 112.19 173.7 112.23 173.63 112.31 173.49 112.47 173.25 112.51 173.19 112.55 173.13 112.63 173.02 112.67 172.97 112.71 172.92 112.79 172.83 112.83 172.78 112.87 172.74 112.95 172.66 112.99 172.62 113.03 172.58 113.11 172.51 113.15 172.48 113.19 172.45 113.22 172.43 113.26 172.4 113.3 172.38 113.34 172.36 113.41 172.31 113.45 172.3 113.49 172.28 113.52 172.26 113.56 172.25 113.6 172.24 113.64 172.23 113.67 172.22 113.71 172.21 113.75 172.2 113.79 172.2 113.82 172.2 113.86 172.19 113.9 172.19 113.94 172.2 113.97 172.2 114.01 172.2 114.05 172.21 114.09 172.21 114.12 172.22 114.16 172.23 114.2 172.24 114.24 172.26 114.27 172.27 114.31 172.29 114.35 172.3 114.39 172.32 114.42 172.34 114.46 172.36 114.5 172.39 114.54 172.41 114.61 172.47 114.65 172.49 114.68 172.52 114.76 172.59 114.91 172.74 114.95 172.78 114.98 172.82 115.06 172.91 115.21 173.1 115.25 173.15 115.28 173.21 115.36 173.32 115.51 173.55 115.55 173.62 115.59 173.69 115.67 173.83 115.83 174.14 115.87 174.22 115.92 174.3 116 174.47 116.16 174.83 116.2 174.92 116.24 175.01 116.32 175.2 116.48 175.6 116.81 176.47 116.85 176.58 116.89 176.7 116.97 176.93 117.13 177.41 117.46 178.43 118.11 180.67 118.15 180.81 118.18 180.95 118.26 181.23 118.41 181.79 118.71 182.95 118.75 183.09 118.79 183.24 118.87 183.54 119.02 184.14 119.32 185.35 119.36 185.5 119.4 185.65 119.47 185.96 119.62 186.58 119.66 186.73 119.7 186.89 119.78 187.2 119.81 187.35 119.85 187.51 119.93 187.82 119.97 187.97 120 188.08 120.04 188.08 120.08 188.08 120.12 188.08 120.16 188.08 120.23 188.08 120.27 188.08 120.31 188.08 120.38 188.08 120.53 188.08 120.57 188.08 120.61 188.08 120.68 188.08 120.83 188.08 121.13 188.08 121.72 188.08 122.91 188.08 125.49 188.08 127.9 188.08 130.51 188.08 133.07 188.08 135.46 188.08 138.06 188.08 140.47 188.08 142.85 188.08 145.42 188.08 147.82 188.08 147.86 188.08 147.91 188.08 147.99 188.08 148.16 188.08 148.49 188.08 149.16 188.08 149.2 188.08 149.25 188.08 149.33 188.08 149.5 188.08 149.83 188.08 149.88 188.08 149.92 188.08 150 188.08 150.17 188.08 150.21 188.08 150.25 188.08 150.34 188.08 150.38 188.08 150.42 188.08 150.46 188.08 150.5 188.08"/>
  <g>
    <line class="cls-6" x1="146.4" y1="125.9" x2="146.4" y2="168.84"/>
    <polygon class="cls-9" points="146.4 175.9 142.34 165.95 146.4 168.31 150.46 165.95 146.4 175.9"/>
  </g>
  <text class="cls-7" transform="translate(142.4 162.3) rotate(-90)"><tspan x="0" y="0">time</tspan></text>
  <text class="cls-7" transform="translate(0 10.04)"><tspan x="0" y="0">a</tspan></text>
  <text class="cls-7" transform="translate(0 85.04)"><tspan x="0" y="0">b</tspan></text>
  <text class="cls-7" transform="translate(0 160.04)"><tspan x="0" y="0">c</tspan></text>
  <text class="cls-7" transform="translate(0 235.04)"><tspan x="0" y="0">d</tspan></text>
  <g>
    <line class="cls-4" x1="132.2" y1="10.08" x2="113.08" y2="10.08"/>
    <polygon class="cls-11" points="107.79 10.08 115.25 7.04 113.48 10.08 115.25 13.13 107.79 10.08"/>
  </g>
  <g>
    <line class="cls-5" x1="34.57" y1="10.08" x2="53.68" y2="10.08"/>
    <polygon class="cls-10" points="58.97 10.08 51.51 13.13 53.28 10.08 51.51 7.04 58.97 10.08"/>
  </g>
  <g>
    <line class="cls-5" x1="107.79" y1="235.08" x2="126.9" y2="235.08"/>
    <polygon class="cls-10" points="132.2 235.08 124.74 238.13 126.51 235.08 124.74 232.04 132.2 235.08"/>
  </g>
  <g>
    <line class="cls-4" x1="58.97" y1="235.08" x2="39.86" y2="235.08"/>
    <polygon class="cls-11" points="34.57 235.08 42.03 232.04 40.26 235.08 42.03 238.13 34.57 235.08"/>
  </g>
  <text class="cls-8" transform="translate(19.87 25.13)"><tspan x="0" y="0">1</tspan></text>
  <text class="cls-8" transform="translate(19.87 9.24)"><tspan x="0" y="0">2</tspan></text>
  <text class="cls-8" transform="translate(19.87 41.02)"><tspan x="0" y="0">0</tspan></text>
  <text class="cls-8" transform="translate(16.8 56.91)"><tspan x="0" y="0">-1</tspan></text>
  <text class="cls-8" transform="translate(16.8 72.8)"><tspan x="0" y="0">-2</tspan></text>
  <line class="cls-6" x1="28.46" y1="113.08" x2="153.05" y2="113.08"/>
  <line class="cls-6" x1="28.46" y1="144.87" x2="30.46" y2="144.87"/>
  <line class="cls-6" x1="28.46" y1="128.98" x2="30.46" y2="128.98"/>
  <line class="cls-6" x1="28.46" y1="113.08" x2="30.46" y2="113.08"/>
  <line class="cls-6" x1="28.46" y1="97.19" x2="30.46" y2="97.19"/>
  <line class="cls-6" x1="28.46" y1="81.3" x2="30.46" y2="81.3"/>
  <line class="cls-6" x1="28.46" y1="145.58" x2="28.46" y2="80.58"/>
  <text class="cls-8" transform="translate(19.87 100.13)"><tspan x="0" y="0">1</tspan></text>
  <text class="cls-8" transform="translate(19.87 84.24)"><tspan x="0" y="0">2</tspan></text>
  <text class="cls-8" transform="translate(19.87 116.02)"><tspan x="0" y="0">0</tspan></text>
  <text class="cls-8" transform="translate(16.8 131.91)"><tspan x="0" y="0">-1</tspan></text>
  <text class="cls-8" transform="translate(16.8 147.8)"><tspan x="0" y="0">-2</tspan></text>
  <line class="cls-6" x1="28.46" y1="219.87" x2="30.46" y2="219.87"/>
  <line class="cls-6" x1="28.46" y1="203.98" x2="30.46" y2="203.98"/>
  <line class="cls-6" x1="28.46" y1="188.08" x2="30.46" y2="188.08"/>
  <line class="cls-6" x1="28.46" y1="172.19" x2="30.46" y2="172.19"/>
  <line class="cls-6" x1="28.46" y1="156.3" x2="30.46" y2="156.3"/>
  <line class="cls-6" x1="28.46" y1="220.58" x2="28.46" y2="155.58"/>
  <text class="cls-8" transform="translate(19.87 175.13)"><tspan x="0" y="0">1</tspan></text>
  <text class="cls-8" transform="translate(19.87 159.24)"><tspan x="0" y="0">2</tspan></text>
  <text class="cls-8" transform="translate(19.87 191.02)"><tspan x="0" y="0">0</tspan></text>
  <text class="cls-8" transform="translate(16.8 206.91)"><tspan x="0" y="0">-1</tspan></text>
  <text class="cls-8" transform="translate(16.8 222.8)"><tspan x="0" y="0">-2</tspan></text>
  <line class="cls-6" x1="28.46" y1="263.08" x2="153.05" y2="263.08"/>
  <line class="cls-6" x1="28.46" y1="294.87" x2="30.46" y2="294.87"/>
  <line class="cls-6" x1="28.46" y1="278.98" x2="30.46" y2="278.98"/>
  <line class="cls-6" x1="28.46" y1="263.08" x2="30.46" y2="263.08"/>
  <line class="cls-6" x1="28.46" y1="247.19" x2="30.46" y2="247.19"/>
  <line class="cls-6" x1="28.46" y1="231.3" x2="30.46" y2="231.3"/>
  <line class="cls-6" x1="28.46" y1="295.58" x2="28.46" y2="230.58"/>
  <text class="cls-8" transform="translate(19.87 250.13)"><tspan x="0" y="0">1</tspan></text>
  <text class="cls-8" transform="translate(19.87 234.24)"><tspan x="0" y="0">2</tspan></text>
  <text class="cls-8" transform="translate(19.87 266.02)"><tspan x="0" y="0">0</tspan></text>
  <text class="cls-8" transform="translate(16.8 281.91)"><tspan x="0" y="0">-1</tspan></text>
  <text class="cls-8" transform="translate(16.8 297.8)"><tspan x="0" y="0">-2</tspan></text>
  <polyline class="cls-3" points="28.46 113.09 28.5 113.09 28.54 113.09 28.61 113.09 28.76 113.09 29.06 113.09 29.66 113.09 30.86 113.09 33.46 113.09 35.88 113.09 38.26 113.09 40.84 113.09 43.24 113.09 45.85 113.09 48.41 113.09 48.45 113.09 48.49 113.09 48.56 113.09 48.71 113.09 49.01 113.09 49.61 113.09 49.64 113.09 49.68 113.09 49.76 113.09 49.91 113.09 50.2 113.09 50.8 113.09 50.84 113.09 50.88 113.09 50.96 113.09 51.13 113.09 51.45 113.09 51.49 113.09 51.53 113.09 51.61 113.09 51.77 113.09 52.1 113.09 52.14 113.09 52.18 113.09 52.26 113.09 52.42 113.09 52.46 113.09 52.5 113.09 52.58 113.09 52.74 113.09 52.78 113.09 52.83 113.09 52.87 113.09 52.91 112.95 52.95 112.79 52.99 112.63 53.07 112.32 53.11 112.16 53.15 112 53.23 111.68 53.39 111.05 53.43 110.9 53.47 110.76 53.54 110.47 53.69 109.88 54 108.73 54.6 106.52 54.64 106.39 54.68 106.25 54.75 105.99 54.9 105.47 55.21 104.47 55.81 102.62 55.85 102.51 55.88 102.41 55.96 102.2 56.11 101.8 56.4 101.05 56.44 100.97 56.48 100.88 56.55 100.71 56.7 100.37 56.99 99.77 57.03 99.7 57.07 99.63 57.14 99.49 57.29 99.24 57.33 99.18 57.37 99.12 57.44 99.01 57.59 98.79 57.62 98.74 57.66 98.69 57.74 98.6 57.77 98.55 57.81 98.51 57.88 98.43 57.92 98.39 57.96 98.35 58.03 98.28 58.07 98.24 58.11 98.21 58.18 98.15 58.22 98.12 58.26 98.09 58.3 98.06 58.34 98.03 58.38 98.01 58.42 97.99 58.5 97.94 58.54 97.93 58.58 97.91 58.62 97.89 58.66 97.88 58.7 97.87 58.74 97.86 58.78 97.85 58.82 97.84 58.86 97.84 58.9 97.83 58.94 97.83 58.98 97.83 59.02 97.83 59.06 97.84 59.1 97.84 59.14 97.85 59.18 97.85 59.22 97.86 59.26 97.87 59.31 97.89 59.35 97.9 59.39 97.92 59.43 97.93 59.47 97.95 59.51 97.97 59.55 98 59.59 98.02 59.63 98.05 59.67 98.07 59.71 98.1 59.79 98.16 59.83 98.2 59.87 98.23 59.95 98.31 60.11 98.48 60.15 98.52 60.19 98.57 60.27 98.67 60.43 98.89 60.47 98.95 60.51 99.01 60.59 99.13 60.75 99.4 60.79 99.47 60.83 99.53 60.9 99.67 61.05 99.96 61.35 100.6 61.39 100.69 61.43 100.77 61.5 100.95 61.65 101.31 61.95 102.1 61.99 102.2 62.03 102.3 62.1 102.51 62.25 102.95 62.55 103.86 63.15 105.83 63.19 105.97 63.23 106.12 63.31 106.4 63.48 106.98 63.8 108.17 64.45 110.65 65.75 115.73 65.79 115.88 65.83 116.04 65.91 116.34 66.07 116.95 66.39 118.15 67.03 120.44 67.07 120.58 67.11 120.71 67.19 120.98 67.35 121.51 67.67 122.53 68.31 124.36 68.34 124.46 68.38 124.55 68.46 124.74 68.6 125.11 68.64 125.2 68.68 125.29 68.75 125.46 68.9 125.8 68.94 125.88 68.98 125.96 69.05 126.11 69.2 126.4 69.5 126.94 69.53 127 69.57 127.06 69.65 127.17 69.79 127.38 69.83 127.43 69.87 127.48 69.94 127.58 70.09 127.75 70.13 127.79 70.17 127.83 70.24 127.9 70.28 127.93 70.32 127.97 70.39 128.03 70.43 128.06 70.46 128.08 70.5 128.11 70.54 128.13 70.58 128.16 70.61 128.18 70.69 128.22 70.73 128.24 70.77 128.26 70.81 128.27 70.85 128.29 70.89 128.3 70.93 128.31 70.97 128.32 71.01 128.33 71.05 128.33 71.09 128.34 71.13 128.34 71.17 128.34 71.21 128.34 71.25 128.34 71.29 128.33 71.33 128.33 71.37 128.32 71.41 128.31 71.45 128.3 71.5 128.29 71.54 128.28 71.58 128.26 71.62 128.24 71.66 128.23 71.7 128.2 71.74 128.18 71.78 128.16 71.82 128.13 71.86 128.11 71.9 128.08 71.98 128.02 72.02 127.98 72.06 127.95 72.14 127.87 72.18 127.83 72.22 127.79 72.3 127.71 72.34 127.66 72.38 127.61 72.46 127.51 72.63 127.29 72.67 127.24 72.71 127.18 72.79 127.05 72.95 126.78 73.27 126.18 73.31 126.1 73.35 126.02 73.42 125.87 73.57 125.53 73.87 124.81 73.91 124.72 73.95 124.62 74.02 124.42 74.18 124.02 74.48 123.16 74.51 123.05 74.55 122.94 74.63 122.71 74.78 122.25 75.08 121.27 75.68 119.19 75.72 119.04 75.76 118.89 75.85 118.59 76.01 117.99 76.34 116.76 76.38 116.6 76.42 116.45 76.5 116.13 76.66 115.5 76.99 114.23 77.03 114.07 77.07 113.91 77.11 113.75 77.15 113.59 77.19 113.43 77.23 113.27 77.27 113.11 77.31 112.81 77.36 112.49 77.4 112.17 77.48 111.53 77.64 110.25 77.68 109.93 77.72 109.61 77.8 108.98 77.97 107.71 78.29 105.21 78.33 104.9 78.37 104.6 78.45 104 78.62 102.8 78.94 100.47 78.98 100.19 79.02 99.9 79.1 99.34 79.26 98.22 79.58 96.08 79.62 95.82 79.66 95.56 79.74 95.05 79.9 94.05 80.22 92.15 80.26 91.92 80.3 91.69 80.38 91.25 80.54 90.39 80.86 88.79 80.9 88.61 80.93 88.43 81.01 88.09 81.16 87.44 81.2 87.28 81.23 87.12 81.31 86.82 81.46 86.24 81.49 86.1 81.53 85.97 81.61 85.7 81.76 85.21 81.79 85.09 81.83 84.97 81.91 84.75 82.06 84.34 82.09 84.24 82.13 84.15 82.21 83.96 82.24 83.88 82.28 83.79 82.35 83.64 82.39 83.56 82.43 83.49 82.5 83.35 82.54 83.29 82.58 83.23 82.65 83.11 82.69 83.06 82.73 83.01 82.77 82.96 82.8 82.91 82.84 82.87 82.88 82.83 82.95 82.76 82.99 82.73 83.03 82.7 83.07 82.68 83.1 82.65 83.14 82.64 83.18 82.62 83.21 82.6 83.25 82.59 83.29 82.58 83.33 82.58 83.37 82.58 83.41 82.58 83.45 82.58 83.5 82.59 83.54 82.6 83.58 82.61 83.62 82.63 83.66 82.65 83.7 82.68 83.74 82.7 83.78 82.74 83.82 82.77 83.86 82.81 83.9 82.85 83.94 82.89 83.98 82.94 84.06 83.04 84.1 83.1 84.14 83.16 84.23 83.29 84.27 83.36 84.31 83.44 84.39 83.59 84.55 83.94 84.59 84.04 84.63 84.14 84.71 84.35 84.87 84.8 84.91 84.92 84.95 85.04 85.04 85.3 85.2 85.85 85.24 86 85.28 86.14 85.36 86.45 85.52 87.09 85.85 88.51 85.88 88.69 85.92 88.87 86 89.24 86.15 90 86.45 91.62 87.06 95.25 87.1 95.49 87.13 95.73 87.21 96.22 87.36 97.23 87.66 99.3 88.27 103.7 88.31 103.98 88.34 104.25 88.42 104.81 88.57 105.94 88.86 108.23 89.46 112.87 89.49 113.16 89.53 113.45 89.6 114.03 89.75 115.2 90.05 117.52 90.64 122.06 90.68 122.36 90.72 122.66 90.8 123.26 90.97 124.44 91.29 126.75 91.33 127.03 91.37 127.31 91.45 127.87 91.61 128.96 91.93 131.06 91.97 131.32 92.01 131.57 92.09 132.07 92.25 133.04 92.58 134.88 92.62 135.1 92.66 135.32 92.74 135.75 92.9 136.58 93.22 138.11 93.26 138.28 93.3 138.44 93.37 138.76 93.52 139.38 93.56 139.53 93.59 139.68 93.67 139.96 93.82 140.5 93.86 140.63 93.9 140.75 93.97 141 94.12 141.45 94.16 141.56 94.2 141.66 94.27 141.87 94.42 142.24 94.46 142.32 94.5 142.4 94.57 142.56 94.61 142.64 94.65 142.71 94.72 142.84 94.76 142.91 94.8 142.97 94.87 143.08 94.91 143.13 94.95 143.18 95.02 143.27 95.06 143.32 95.1 143.36 95.13 143.39 95.17 143.42 95.21 143.45 95.25 143.48 95.29 143.5 95.32 143.53 95.36 143.54 95.4 143.56 95.44 143.57 95.47 143.58 95.51 143.59 95.55 143.59 95.59 143.6 95.62 143.59 95.66 143.59 95.7 143.58 95.75 143.57 95.79 143.55 95.83 143.54 95.87 143.52 95.91 143.49 95.95 143.46 95.99 143.43 96.03 143.4 96.07 143.36 96.11 143.32 96.15 143.27 96.19 143.22 96.27 143.12 96.32 143.06 96.36 143 96.44 142.86 96.48 142.79 96.52 142.72 96.6 142.56 96.64 142.48 96.68 142.39 96.76 142.2 96.93 141.8 96.97 141.69 97.01 141.57 97.09 141.34 97.25 140.83 97.29 140.7 97.33 140.56 97.41 140.27 97.58 139.67 97.62 139.51 97.66 139.35 97.74 139.02 97.9 138.32 98.23 136.8 98.27 136.6 98.31 136.4 98.39 135.99 98.55 135.14 98.87 133.33 99.51 129.32 99.55 129.05 99.59 128.79 99.67 128.24 99.83 127.14 100.15 124.87 100.79 120.1 100.82 119.81 100.86 119.52 100.94 118.95 101.09 117.8 101.12 117.51 101.16 117.22 101.23 116.64 101.38 115.47 101.42 115.18 101.46 114.89 101.53 114.3 101.57 114.01 101.61 113.72 101.64 113.42 101.68 113.13 101.72 112.96 101.76 112.82 101.83 112.52 101.98 111.94 102.02 111.79 102.05 111.65 102.13 111.36 102.28 110.78 102.58 109.63 103.17 107.39 103.21 107.25 103.25 107.1 103.33 106.81 103.5 106.24 103.82 105.13 103.86 104.99 103.9 104.86 103.98 104.59 104.14 104.07 104.47 103.08 104.51 102.96 104.55 102.84 104.63 102.61 104.79 102.16 105.11 101.31 105.15 101.21 105.19 101.11 105.27 100.92 105.44 100.54 105.76 99.87 105.8 99.79 105.84 99.72 105.91 99.58 106.06 99.31 106.1 99.25 106.14 99.19 106.21 99.07 106.36 98.85 106.4 98.79 106.44 98.74 106.51 98.64 106.55 98.6 106.59 98.55 106.67 98.46 106.7 98.42 106.74 98.38 106.82 98.31 106.85 98.27 106.89 98.24 106.97 98.17 107.01 98.14 107.04 98.11 107.12 98.06 107.16 98.03 107.19 98.01 107.27 97.97 107.31 97.95 107.34 97.93 107.38 97.91 107.42 97.9 107.46 97.89 107.5 97.87 107.53 97.86 107.57 97.86 107.61 97.85 107.65 97.84 107.68 97.84 107.72 97.83 107.76 97.83 107.8 97.83 107.84 97.83 107.87 97.83 107.91 97.84 107.95 97.84 107.99 97.85 108.02 97.86 108.06 97.87 108.1 97.88 108.14 97.89 108.17 97.91 108.21 97.92 108.25 97.94 108.29 97.96 108.32 97.97 108.36 98 108.4 98.02 108.47 98.07 108.51 98.09 108.55 98.12 108.62 98.18 108.66 98.21 108.69 98.24 108.77 98.31 108.8 98.35 108.84 98.39 108.92 98.47 109.06 98.64 109.1 98.69 109.14 98.74 109.21 98.84 109.36 99.06 109.4 99.12 109.43 99.18 109.51 99.3 109.66 99.56 109.95 100.13 109.99 100.21 110.03 100.29 110.1 100.45 110.25 100.78 110.54 101.51 110.58 101.61 110.62 101.71 110.7 101.93 110.86 102.37 111.18 103.3 111.83 105.36 111.87 105.49 111.91 105.63 111.99 105.91 112.15 106.47 112.47 107.63 113.11 110.05 113.15 110.19 113.19 110.34 113.26 110.63 113.41 111.21 113.71 112.38 114.31 114.73 114.35 114.88 114.39 115.02 114.46 115.31 114.61 115.89 114.91 117.04 115.51 119.26 115.55 119.4 115.59 119.55 115.67 119.84 115.83 120.4 116.16 121.49 116.2 121.63 116.24 121.76 116.32 122.02 116.48 122.53 116.81 123.5 116.85 123.61 116.89 123.73 116.97 123.95 117.13 124.39 117.46 125.21 117.5 125.3 117.54 125.4 117.62 125.58 117.78 125.94 118.11 126.58 118.15 126.65 118.18 126.71 118.26 126.85 118.41 127.09 118.45 127.15 118.49 127.21 118.56 127.32 118.71 127.52 118.75 127.57 118.79 127.61 118.87 127.7 118.9 127.74 118.94 127.79 119.02 127.86 119.06 127.9 119.09 127.93 119.17 128 119.21 128.03 119.25 128.06 119.32 128.11 119.36 128.14 119.4 128.16 119.43 128.18 119.47 128.2 119.51 128.22 119.55 128.24 119.59 128.26 119.62 128.27 119.66 128.29 119.7 128.3 119.74 128.31 119.78 128.32 119.81 128.32 119.85 128.33 119.89 128.34 119.93 128.34 119.97 128.34 120 128.34 120.04 128.34 120.08 128.34 120.12 128.33 120.16 128.33 120.19 128.32 120.23 128.31 120.27 128.3 120.31 128.29 120.34 128.28 120.38 128.26 120.42 128.25 120.46 128.23 120.53 128.19 120.57 128.17 120.61 128.15 120.68 128.1 120.72 128.07 120.76 128.05 120.83 127.99 120.87 127.95 120.91 127.92 120.98 127.85 121.13 127.69 121.17 127.65 121.2 127.61 121.28 127.51 121.43 127.31 121.46 127.26 121.5 127.21 121.58 127.09 121.72 126.85 121.76 126.79 121.8 126.72 121.87 126.59 122.02 126.31 122.32 125.69 122.36 125.61 122.39 125.52 122.47 125.35 122.62 124.99 122.91 124.23 122.95 124.12 122.99 124.01 123.07 123.79 123.24 123.33 123.56 122.35 124.2 120.22 124.24 120.08 124.28 119.94 124.36 119.66 124.53 119.08 124.85 117.9 125.49 115.44 125.53 115.29 125.57 115.15 125.64 114.85 125.8 114.26 125.83 114.12 125.87 113.97 125.95 113.67 125.98 113.53 126.02 113.38 126.06 113.23 126.1 113.09 126.13 113.09 126.17 113.09 126.25 113.09 126.4 113.09 126.7 113.09 126.74 113.09 126.77 113.09 126.85 113.09 127 113.09 127.3 113.09 127.9 113.09 127.94 113.09 127.98 113.09 128.07 113.09 128.23 113.09 128.55 113.09 129.21 113.09 130.51 113.09 133.07 113.09 135.46 113.09 138.06 113.09 140.47 113.09 142.85 113.09 145.42 113.09 147.82 113.09 147.86 113.09 147.91 113.09 147.99 113.09 148.16 113.09 148.49 113.09 149.16 113.09 149.2 113.09 149.25 113.09 149.33 113.09 149.5 113.09 149.83 113.09 149.88 113.09 149.92 113.09 150 113.09 150.17 113.09 150.21 113.09 150.25 113.09 150.34 113.09 150.38 113.09 150.42 113.09 150.46 113.09 150.5 113.09"/>
  <polyline class="cls-1" points="28.46 38.08 28.5 37.93 28.54 37.78 28.61 37.47 28.76 36.86 29.06 35.64 29.66 33.26 29.7 33.12 29.74 32.97 29.81 32.68 29.96 32.11 30.26 30.99 30.86 28.9 30.9 28.76 30.94 28.63 31.02 28.36 31.18 27.85 31.51 26.87 31.55 26.75 31.59 26.63 31.67 26.41 31.83 25.97 32.16 25.15 32.2 25.05 32.24 24.96 32.32 24.78 32.48 24.43 32.52 24.34 32.56 24.26 32.65 24.1 32.81 23.8 32.85 23.72 32.89 23.65 32.97 23.52 33.13 23.26 33.17 23.21 33.21 23.15 33.29 23.04 33.46 22.84 33.49 22.8 33.53 22.75 33.61 22.67 33.65 22.64 33.68 22.6 33.76 22.54 33.8 22.5 33.84 22.47 33.87 22.45 33.91 22.42 33.95 22.39 33.99 22.37 34.06 22.33 34.1 22.31 34.14 22.29 34.18 22.27 34.21 22.26 34.25 22.25 34.29 22.23 34.33 22.22 34.37 22.22 34.4 22.21 34.44 22.2 34.48 22.2 34.52 22.2 34.56 22.19 34.59 22.19 34.63 22.2 34.67 22.2 34.71 22.2 34.75 22.21 34.78 22.22 34.82 22.23 34.86 22.24 34.9 22.25 34.93 22.27 34.97 22.28 35.01 22.3 35.05 22.32 35.09 22.34 35.12 22.36 35.16 22.38 35.2 22.4 35.28 22.46 35.31 22.49 35.35 22.52 35.43 22.58 35.46 22.62 35.5 22.65 35.58 22.73 35.62 22.77 35.65 22.81 35.73 22.9 35.88 23.1 35.92 23.15 35.96 23.2 36.03 23.31 36.18 23.54 36.22 23.61 36.25 23.67 36.33 23.8 36.48 24.08 36.51 24.15 36.55 24.22 36.62 24.37 36.77 24.69 37.07 25.38 37.11 25.47 37.14 25.57 37.22 25.76 37.37 26.15 37.66 26.99 38.26 28.85 38.3 28.98 38.34 29.12 38.42 29.39 38.58 29.95 38.9 31.11 39.55 33.57 40.84 38.78 40.88 38.93 40.91 39.08 40.99 39.39 41.14 40 41.44 41.22 42.04 43.58 42.08 43.73 42.12 43.87 42.19 44.16 42.34 44.72 42.64 45.82 43.24 47.87 43.29 48 43.33 48.13 43.41 48.38 43.57 48.88 43.9 49.82 43.94 49.93 43.98 50.04 44.06 50.26 44.22 50.68 44.55 51.45 44.59 51.54 44.63 51.62 44.71 51.8 44.87 52.12 44.92 52.2 44.96 52.27 45.04 52.42 45.2 52.7 45.24 52.76 45.28 52.82 45.36 52.94 45.4 53 45.45 53.06 45.53 53.17 45.57 53.22 45.61 53.27 45.69 53.36 45.85 53.53 45.89 53.57 45.93 53.61 46.01 53.67 46.05 53.7 46.09 53.73 46.17 53.79 46.21 53.81 46.25 53.83 46.29 53.86 46.33 53.87 46.37 53.89 46.41 53.91 46.45 53.92 46.49 53.93 46.53 53.95 46.57 53.95 46.61 53.96 46.65 53.97 46.69 53.97 46.73 53.97 46.77 53.98 46.81 53.97 46.85 53.97 46.89 53.97 46.93 53.96 46.97 53.95 47.01 53.94 47.05 53.93 47.09 53.92 47.13 53.91 47.17 53.89 47.21 53.87 47.25 53.85 47.29 53.83 47.33 53.81 47.37 53.78 47.45 53.73 47.49 53.7 47.53 53.67 47.61 53.6 47.65 53.57 47.69 53.53 47.77 53.45 47.81 53.41 47.85 53.36 47.93 53.27 48.09 53.06 48.13 53.01 48.17 52.95 48.25 52.83 48.41 52.57 48.45 52.51 48.49 52.45 48.56 52.31 48.71 52.03 49.01 51.4 49.05 51.32 49.08 51.24 49.16 51.06 49.31 50.7 49.61 49.92 49.64 49.82 49.68 49.72 49.76 49.51 49.91 49.07 50.2 48.16 50.8 46.16 50.84 46.02 50.88 45.87 50.96 45.58 51.13 44.99 51.45 43.78 52.1 41.24 53.39 35.97 53.43 35.81 53.47 35.66 53.54 35.35 53.69 34.75 54 33.55 54.6 31.24 54.64 31.11 54.68 30.97 54.75 30.69 54.9 30.15 55.21 29.1 55.81 27.18 55.85 27.07 55.88 26.96 55.96 26.75 56.11 26.33 56.4 25.55 56.44 25.46 56.48 25.37 56.55 25.19 56.7 24.84 56.99 24.21 57.03 24.14 57.07 24.07 57.14 23.93 57.29 23.66 57.33 23.6 57.37 23.54 57.44 23.42 57.59 23.2 57.62 23.14 57.66 23.09 57.74 23 57.77 22.95 57.81 22.9 57.88 22.82 57.92 22.77 57.96 22.73 58.03 22.66 58.07 22.62 58.11 22.59 58.18 22.53 58.22 22.49 58.26 22.46 58.3 22.43 58.34 22.4 58.38 22.38 58.42 22.35 58.5 22.31 58.54 22.29 58.58 22.28 58.62 22.26 58.66 22.25 58.7 22.23 58.74 22.22 58.78 22.21 58.82 22.21 58.86 22.2 58.9 22.2 58.94 22.19 58.98 22.19 59.02 22.2 59.06 22.2 59.1 22.2 59.14 22.21 59.18 22.22 59.22 22.23 59.26 22.24 59.31 22.25 59.35 22.27 59.39 22.28 59.43 22.3 59.47 22.32 59.51 22.34 59.55 22.37 59.59 22.39 59.63 22.42 59.67 22.45 59.71 22.48 59.79 22.54 59.83 22.58 59.87 22.61 59.95 22.69 60.11 22.87 60.15 22.92 60.19 22.97 60.27 23.07 60.43 23.3 60.47 23.36 60.51 23.42 60.59 23.55 60.75 23.83 60.79 23.9 60.83 23.97 60.9 24.11 61.05 24.41 61.35 25.08 61.39 25.17 61.43 25.26 61.5 25.44 61.65 25.82 61.95 26.64 61.99 26.75 62.03 26.85 62.1 27.07 62.25 27.52 62.55 28.47 63.15 30.53 63.19 30.68 63.23 30.82 63.31 31.12 63.48 31.73 63.8 32.97 64.45 35.54 65.75 40.84 65.79 41 65.83 41.16 65.91 41.48 66.07 42.11 66.39 43.36 67.03 45.74 67.07 45.89 67.11 46.03 67.19 46.31 67.35 46.86 67.67 47.92 68.31 49.83 68.34 49.93 68.38 50.03 68.46 50.23 68.6 50.61 68.64 50.71 68.68 50.8 68.75 50.98 68.9 51.32 68.94 51.41 68.98 51.49 69.05 51.65 69.2 51.96 69.5 52.51 69.53 52.57 69.57 52.64 69.65 52.76 69.79 52.98 69.83 53.03 69.87 53.08 69.94 53.18 70.09 53.36 70.13 53.4 70.17 53.44 70.24 53.52 70.28 53.55 70.32 53.59 70.39 53.65 70.43 53.68 70.46 53.71 70.5 53.74 70.54 53.76 70.58 53.78 70.61 53.81 70.69 53.85 70.73 53.87 70.77 53.89 70.81 53.9 70.85 53.92 70.89 53.93 70.93 53.94 70.97 53.95 71.01 53.96 71.05 53.97 71.09 53.97 71.13 53.97 71.17 53.97 71.21 53.97 71.25 53.97 71.29 53.97 71.33 53.96 71.37 53.95 71.41 53.95 71.45 53.93 71.5 53.92 71.54 53.91 71.58 53.89 71.62 53.87 71.66 53.85 71.7 53.83 71.74 53.81 71.78 53.79 71.82 53.76 71.86 53.73 71.9 53.7 71.98 53.64 72.02 53.6 72.06 53.57 72.14 53.49 72.18 53.45 72.22 53.4 72.3 53.31 72.34 53.27 72.38 53.22 72.46 53.11 72.63 52.88 72.67 52.82 72.71 52.76 72.79 52.63 72.95 52.35 73.27 51.72 73.31 51.64 73.35 51.56 73.42 51.4 73.57 51.05 73.87 50.3 73.91 50.2 73.95 50.1 74.02 49.9 74.18 49.48 74.48 48.58 74.51 48.47 74.55 48.35 74.63 48.11 74.78 47.63 75.08 46.61 75.68 44.44 75.72 44.28 75.76 44.13 75.85 43.82 76.01 43.19 76.34 41.91 76.38 41.75 76.42 41.59 76.5 41.26 76.66 40.6 76.99 39.28 77.03 39.11 77.07 38.94 77.11 38.78 77.15 38.61 77.19 38.44 77.23 38.28 77.27 38.11 77.31 38.08 77.36 38.08 77.4 38.08 77.48 38.08 77.64 38.08 77.68 38.08 77.72 38.08 77.8 38.08 77.97 38.08 78.29 38.08 78.33 38.08 78.37 38.08 78.45 38.08 78.62 38.08 78.94 38.08 79.58 38.08 80.86 38.08 83.25 38.08 85.85 38.08 88.27 38.08 90.64 38.08 93.22 38.08 95.62 38.08 98.23 38.08 100.79 38.08 103.17 38.08 105.76 38.08 108.17 38.08 110.54 38.08 113.11 38.08 115.51 38.08 118.11 38.08 120.53 38.08 122.91 38.08 125.49 38.08 127.9 38.08 130.51 38.08 133.07 38.08 135.46 38.08 138.06 38.08 140.47 38.08 142.85 38.08 145.42 38.08 147.82 38.08 147.86 38.08 147.91 38.08 147.99 38.08 148.16 38.08 148.49 38.08 149.16 38.08 149.2 38.08 149.25 38.08 149.33 38.08 149.5 38.08 149.83 38.08 149.88 38.08 149.92 38.08 150 38.08 150.17 38.08 150.21 38.08 150.25 38.08 150.34 38.08 150.38 38.08 150.42 38.08 150.46 38.08 150.5 38.08"/>
  <polyline class="cls-2" points="28.46 38.08 28.5 38.08 28.54 38.08 28.61 38.08 28.76 38.08 29.06 38.08 29.66 38.08 30.86 38.08 33.46 38.08 35.88 38.08 38.26 38.08 40.84 38.08 43.24 38.08 45.85 38.08 48.41 38.08 50.8 38.08 53.39 38.08 55.81 38.08 58.18 38.08 60.75 38.08 63.15 38.08 65.75 38.08 68.31 38.08 70.69 38.08 73.27 38.08 75.68 38.08 78.29 38.08 80.86 38.08 83.25 38.08 85.85 38.08 88.27 38.08 90.64 38.08 93.22 38.08 95.62 38.08 98.23 38.08 98.27 38.08 98.31 38.08 98.39 38.08 98.55 38.08 98.87 38.08 99.51 38.08 99.55 38.08 99.59 38.08 99.67 38.08 99.83 38.08 100.15 38.08 100.79 38.08 100.82 38.08 100.86 38.08 100.94 38.08 101.09 38.08 101.38 38.08 101.42 38.08 101.46 38.08 101.53 38.08 101.68 38.08 101.72 37.96 101.76 37.8 101.83 37.5 101.98 36.89 102.02 36.74 102.05 36.59 102.13 36.28 102.28 35.68 102.58 34.48 103.17 32.16 103.21 32 103.25 31.85 103.33 31.55 103.5 30.95 103.82 29.79 103.86 29.65 103.9 29.51 103.98 29.24 104.14 28.7 104.47 27.66 104.51 27.54 104.55 27.41 104.63 27.17 104.79 26.7 105.11 25.82 105.15 25.71 105.19 25.61 105.27 25.41 105.44 25.02 105.76 24.31 105.8 24.24 105.84 24.16 105.91 24.02 106.06 23.74 106.1 23.67 106.14 23.61 106.21 23.48 106.36 23.25 106.4 23.2 106.44 23.14 106.51 23.04 106.55 22.99 106.59 22.95 106.67 22.85 106.7 22.81 106.74 22.77 106.82 22.69 106.85 22.65 106.89 22.62 106.97 22.55 107.01 22.52 107.04 22.49 107.12 22.43 107.16 22.4 107.19 22.38 107.27 22.34 107.31 22.32 107.34 22.3 107.38 22.28 107.42 22.27 107.46 22.25 107.5 22.24 107.53 22.23 107.57 22.22 107.61 22.21 107.65 22.2 107.68 22.2 107.72 22.2 107.76 22.19 107.8 22.19 107.84 22.2 107.87 22.2 107.91 22.2 107.95 22.21 107.99 22.21 108.02 22.22 108.06 22.23 108.1 22.24 108.14 22.26 108.17 22.27 108.21 22.29 108.25 22.31 108.29 22.32 108.32 22.34 108.36 22.37 108.4 22.39 108.47 22.44 108.51 22.47 108.55 22.49 108.62 22.56 108.66 22.59 108.69 22.62 108.77 22.69 108.8 22.73 108.84 22.77 108.92 22.86 109.06 23.04 109.1 23.09 109.14 23.14 109.21 23.25 109.36 23.47 109.4 23.53 109.43 23.6 109.51 23.72 109.66 23.99 109.95 24.59 109.99 24.67 110.03 24.75 110.1 24.92 110.25 25.27 110.54 26.02 110.58 26.13 110.62 26.24 110.7 26.46 110.86 26.92 111.18 27.89 111.83 30.03 111.87 30.18 111.91 30.32 111.99 30.61 112.15 31.19 112.47 32.4 113.11 34.92 113.15 35.07 113.19 35.22 113.26 35.52 113.41 36.13 113.71 37.35 114.31 39.8 114.35 39.95 114.39 40.1 114.46 40.4 114.61 41.01 114.91 42.2 115.51 44.51 115.55 44.66 115.59 44.82 115.67 45.12 115.83 45.7 116.16 46.84 116.2 46.98 116.24 47.12 116.32 47.39 116.48 47.92 116.81 48.93 116.85 49.05 116.89 49.17 116.97 49.4 117.13 49.86 117.46 50.71 117.5 50.81 117.54 50.91 117.62 51.1 117.78 51.47 118.11 52.14 118.15 52.21 118.18 52.28 118.26 52.42 118.41 52.68 118.45 52.74 118.49 52.8 118.56 52.91 118.71 53.12 118.75 53.17 118.79 53.22 118.87 53.31 118.9 53.35 118.94 53.4 119.02 53.48 119.06 53.51 119.09 53.55 119.17 53.62 119.21 53.65 119.25 53.68 119.32 53.74 119.36 53.76 119.4 53.79 119.43 53.81 119.47 53.83 119.51 53.85 119.55 53.87 119.59 53.89 119.62 53.9 119.66 53.92 119.7 53.93 119.74 53.94 119.78 53.95 119.81 53.96 119.85 53.96 119.89 53.97 119.93 53.97 119.97 53.97 120 53.97 120.04 53.97 120.08 53.97 120.12 53.97 120.16 53.96 120.19 53.95 120.23 53.95 120.27 53.94 120.31 53.92 120.34 53.91 120.38 53.9 120.42 53.88 120.46 53.86 120.53 53.82 120.57 53.8 120.61 53.78 120.68 53.73 120.72 53.7 120.76 53.67 120.83 53.61 120.87 53.57 120.91 53.54 120.98 53.46 121.13 53.3 121.17 53.26 121.2 53.21 121.28 53.11 121.43 52.91 121.46 52.85 121.5 52.79 121.58 52.68 121.72 52.42 121.76 52.36 121.8 52.29 121.87 52.15 122.02 51.86 122.32 51.21 122.36 51.13 122.39 51.04 122.47 50.86 122.62 50.49 122.91 49.69 122.95 49.58 122.99 49.47 123.07 49.23 123.24 48.75 123.56 47.74 124.2 45.52 124.24 45.37 124.28 45.23 124.36 44.93 124.53 44.33 124.85 43.1 125.49 40.54 125.53 40.38 125.57 40.23 125.64 39.93 125.8 39.31 126.1 38.08 126.7 35.63 126.74 35.48 126.77 35.33 126.85 35.02 127 34.42 127.3 33.24 127.9 30.96 127.94 30.81 127.98 30.66 128.07 30.37 128.23 29.79 128.55 28.68 128.59 28.55 128.64 28.42 128.72 28.15 128.88 27.64 129.21 26.67 129.25 26.56 129.29 26.44 129.37 26.22 129.53 25.79 129.57 25.68 129.61 25.58 129.7 25.37 129.86 24.99 129.9 24.89 129.94 24.8 130.02 24.62 130.19 24.28 130.23 24.2 130.27 24.12 130.35 23.96 130.51 23.67 130.55 23.6 130.59 23.53 130.67 23.4 130.83 23.17 130.87 23.11 130.91 23.06 130.99 22.95 131.15 22.77 131.19 22.72 131.23 22.68 131.31 22.6 131.35 22.57 131.39 22.53 131.47 22.47 131.51 22.44 131.55 22.41 131.59 22.39 131.63 22.36 131.67 22.34 131.71 22.32 131.75 22.3 131.79 22.28 131.83 22.26 131.87 22.25 131.91 22.24 131.95 22.23 131.99 22.22 132.03 22.21 132.07 22.2 132.11 22.2 132.15 22.2 132.19 22.19 132.23 22.19 132.27 22.2 132.31 22.2 132.35 22.21 132.39 22.21 132.43 22.22 132.47 22.23 132.51 22.25 132.55 22.26 132.59 22.28 132.63 22.29 132.67 22.31 132.75 22.36 132.79 22.38 132.83 22.41 132.91 22.46 132.95 22.49 132.99 22.53 133.07 22.6 133.11 22.63 133.15 22.67 133.22 22.75 133.26 22.79 133.3 22.83 133.37 22.92 133.41 22.96 133.45 23.01 133.52 23.11 133.67 23.33 133.71 23.38 133.75 23.44 133.82 23.56 133.97 23.82 134.27 24.4 134.31 24.48 134.34 24.56 134.42 24.72 134.57 25.06 134.87 25.8 134.9 25.9 134.94 26 135.02 26.2 135.17 26.61 135.46 27.49 135.51 27.61 135.55 27.74 135.63 27.99 135.79 28.51 136.11 29.6 136.76 31.95 138.06 37.09 138.09 37.24 138.13 37.4 138.21 37.71 138.36 38.33 138.66 39.56 139.27 42 139.3 42.15 139.34 42.3 139.42 42.59 139.57 43.18 139.87 44.34 140.47 46.53 140.51 46.66 140.55 46.78 140.62 47.04 140.77 47.53 141.07 48.48 141.11 48.59 141.14 48.7 141.22 48.93 141.36 49.36 141.66 50.18 141.7 50.28 141.74 50.38 141.81 50.57 141.96 50.93 141.99 51.02 142.03 51.11 142.11 51.28 142.25 51.61 142.29 51.69 142.33 51.77 142.4 51.92 142.55 52.21 142.59 52.28 142.62 52.34 142.7 52.47 142.85 52.72 142.89 52.78 142.93 52.85 143.01 52.96 143.05 53.02 143.09 53.08 143.17 53.18 143.21 53.23 143.25 53.28 143.33 53.37 143.49 53.54 143.53 53.58 143.57 53.61 143.65 53.68 143.69 53.71 143.73 53.74 143.81 53.79 143.85 53.82 143.89 53.84 143.93 53.86 143.97 53.88 144.01 53.9 144.05 53.91 144.09 53.93 144.13 53.94 144.17 53.95 144.21 53.96 144.26 53.96 144.3 53.97 144.34 53.97 144.38 53.97 144.42 53.97 144.46 53.97 144.5 53.97 144.54 53.97 144.58 53.96 144.62 53.95 144.66 53.94 144.7 53.93 144.74 53.92 144.78 53.9 144.82 53.88 144.86 53.87 144.9 53.85 144.94 53.82 144.98 53.8 145.02 53.77 145.1 53.72 145.14 53.69 145.18 53.66 145.26 53.59 145.3 53.55 145.34 53.51 145.42 53.43 145.46 53.39 145.5 53.35 145.57 53.26 145.72 53.07 145.76 53.01 145.8 52.96 145.87 52.85 146.02 52.61 146.06 52.55 146.1 52.49 146.17 52.35 146.32 52.07 146.62 51.45 146.66 51.37 146.7 51.28 146.77 51.11 146.92 50.75 147.22 49.97 147.26 49.86 147.3 49.76 147.37 49.55 147.52 49.12 147.82 48.2 147.86 48.07 147.91 47.93 147.99 47.66 148.16 47.11 148.49 45.95 149.16 43.46 149.2 43.3 149.25 43.14 149.33 42.81 149.5 42.15 149.83 40.81 149.88 40.64 149.92 40.47 150 40.13 150.17 39.45 150.21 39.28 150.25 39.11 150.34 38.77 150.38 38.6 150.42 38.43 150.46 38.26 150.5 38.08"/>
  <polyline class="cls-1" points="28.46 113.09 28.5 113.09 28.54 113.09 28.61 113.09 28.76 113.09 29.06 113.09 29.66 113.09 30.86 113.09 33.46 113.09 35.88 113.09 38.26 113.09 40.84 113.09 43.24 113.09 45.85 113.09 48.41 113.09 48.45 113.09 48.49 113.09 48.56 113.09 48.71 113.09 49.01 113.09 49.61 113.09 49.64 113.09 49.68 113.09 49.76 113.09 49.91 113.09 50.2 113.09 50.8 113.09 50.84 113.09 50.88 113.09 50.96 113.09 51.13 113.09 51.45 113.09 51.49 113.09 51.53 113.09 51.61 113.09 51.77 113.09 52.1 113.09 52.14 113.09 52.18 113.09 52.26 113.09 52.42 113.09 52.46 113.09 52.5 113.09 52.58 113.09 52.74 113.09 52.78 113.09 52.83 113.09 52.87 113.09 52.91 112.95 52.95 112.79 52.99 112.63 53.07 112.32 53.11 112.16 53.15 112 53.23 111.68 53.39 111.05 53.43 110.9 53.47 110.76 53.54 110.47 53.69 109.88 54 108.73 54.6 106.52 54.64 106.39 54.68 106.25 54.75 105.99 54.9 105.47 55.21 104.47 55.81 102.62 55.85 102.51 55.88 102.41 55.96 102.2 56.11 101.8 56.4 101.05 56.44 100.97 56.48 100.88 56.55 100.71 56.7 100.37 56.99 99.77 57.03 99.7 57.07 99.63 57.14 99.49 57.29 99.24 57.33 99.18 57.37 99.12 57.44 99.01 57.59 98.79 57.62 98.74 57.66 98.69 57.74 98.6 57.77 98.55 57.81 98.51 57.88 98.43 57.92 98.39 57.96 98.35 58.03 98.28 58.07 98.24 58.11 98.21 58.18 98.15 58.22 98.12 58.26 98.09 58.3 98.06 58.34 98.03 58.38 98.01 58.42 97.99 58.5 97.94 58.54 97.93 58.58 97.91 58.62 97.89 58.66 97.88 58.7 97.87 58.74 97.86 58.78 97.85 58.82 97.84 58.86 97.84 58.9 97.83 58.94 97.83 58.98 97.83 59.02 97.83 59.06 97.84 59.1 97.84 59.14 97.85 59.18 97.85 59.22 97.86 59.26 97.87 59.31 97.89 59.35 97.9 59.39 97.92 59.43 97.93 59.47 97.95 59.51 97.97 59.55 98 59.59 98.02 59.63 98.05 59.67 98.07 59.71 98.1 59.79 98.16 59.83 98.2 59.87 98.23 59.95 98.31 60.11 98.48 60.15 98.52 60.19 98.57 60.27 98.67 60.43 98.89 60.47 98.95 60.51 99.01 60.59 99.13 60.75 99.4 60.79 99.47 60.83 99.53 60.9 99.67 61.05 99.96 61.35 100.6 61.39 100.69 61.43 100.77 61.5 100.95 61.65 101.31 61.95 102.1 61.99 102.2 62.03 102.3 62.1 102.51 62.25 102.95 62.55 103.86 63.15 105.83 63.19 105.97 63.23 106.12 63.31 106.4 63.48 106.98 63.8 108.17 64.45 110.65 65.75 115.73 65.79 115.88 65.83 116.04 65.91 116.34 66.07 116.95 66.39 118.15 67.03 120.44 67.07 120.58 67.11 120.71 67.19 120.98 67.35 121.51 67.67 122.53 68.31 124.36 68.34 124.46 68.38 124.55 68.46 124.74 68.6 125.11 68.64 125.2 68.68 125.29 68.75 125.46 68.9 125.8 68.94 125.88 68.98 125.96 69.05 126.11 69.2 126.4 69.5 126.94 69.53 127 69.57 127.06 69.65 127.17 69.79 127.38 69.83 127.43 69.87 127.48 69.94 127.58 70.09 127.75 70.13 127.79 70.17 127.83 70.24 127.9 70.28 127.93 70.32 127.97 70.39 128.03 70.43 128.06 70.46 128.08 70.5 128.11 70.54 128.13 70.58 128.16 70.61 128.18 70.69 128.22 70.73 128.24 70.77 128.26 70.81 128.27 70.85 128.29 70.89 128.3 70.93 128.31 70.97 128.32 71.01 128.33 71.05 128.33 71.09 128.34 71.13 128.34 71.17 128.34 71.21 128.34 71.25 128.34 71.29 128.33 71.33 128.33 71.37 128.32 71.41 128.31 71.45 128.3 71.5 128.29 71.54 128.28 71.58 128.26 71.62 128.24 71.66 128.23 71.7 128.2 71.74 128.18 71.78 128.16 71.82 128.13 71.86 128.11 71.9 128.08 71.98 128.02 72.02 127.98 72.06 127.95 72.14 127.87 72.18 127.83 72.22 127.79 72.3 127.71 72.34 127.66 72.38 127.61 72.46 127.51 72.63 127.29 72.67 127.24 72.71 127.18 72.79 127.05 72.95 126.78 73.27 126.18 73.31 126.1 73.35 126.02 73.42 125.87 73.57 125.53 73.87 124.81 73.91 124.72 73.95 124.62 74.02 124.42 74.18 124.02 74.48 123.16 74.51 123.05 74.55 122.94 74.63 122.71 74.78 122.25 75.08 121.27 75.68 119.19 75.72 119.04 75.76 118.89 75.85 118.59 76.01 117.99 76.34 116.76 76.99 114.23 77.03 114.07 77.07 113.91 77.15 113.59 77.31 112.95 77.64 111.67 78.29 109.15 78.33 108.99 78.37 108.84 78.45 108.54 78.62 107.95 78.94 106.78 78.98 106.64 79.02 106.49 79.1 106.21 79.26 105.65 79.58 104.58 79.62 104.45 79.66 104.32 79.74 104.07 79.9 103.57 80.22 102.62 80.26 102.5 80.3 102.39 80.38 102.17 80.54 101.74 80.86 100.94 80.9 100.85 80.93 100.76 81.01 100.59 81.16 100.26 81.2 100.18 81.23 100.11 81.31 99.95 81.46 99.66 81.49 99.6 81.53 99.53 81.61 99.4 81.76 99.15 81.79 99.09 81.83 99.03 81.91 98.92 82.06 98.71 82.09 98.66 82.13 98.62 82.21 98.53 82.24 98.48 82.28 98.44 82.35 98.36 82.39 98.32 82.43 98.29 82.5 98.22 82.54 98.19 82.58 98.16 82.65 98.1 82.69 98.07 82.73 98.05 82.77 98.02 82.8 98 82.84 97.98 82.88 97.96 82.95 97.92 82.99 97.91 83.03 97.89 83.07 97.88 83.1 97.87 83.14 97.86 83.18 97.85 83.21 97.85 83.25 97.84 83.29 97.84 83.33 97.83 83.37 97.83 83.41 97.83 83.45 97.83 83.5 97.84 83.54 97.84 83.58 97.85 83.62 97.86 83.66 97.87 83.7 97.88 83.74 97.9 83.78 97.91 83.82 97.93 83.86 97.95 83.9 97.97 83.94 97.99 83.98 98.01 84.06 98.06 84.1 98.09 84.14 98.12 84.23 98.19 84.27 98.22 84.31 98.26 84.39 98.34 84.55 98.51 84.59 98.56 84.63 98.61 84.71 98.72 84.87 98.94 84.91 99 84.95 99.06 85.04 99.19 85.2 99.47 85.24 99.54 85.28 99.61 85.36 99.77 85.52 100.09 85.85 100.8 85.88 100.89 85.92 100.98 86 101.16 86.15 101.54 86.45 102.35 87.06 104.17 87.1 104.29 87.13 104.41 87.21 104.65 87.36 105.16 87.66 106.2 88.27 108.39 88.31 108.53 88.34 108.67 88.42 108.95 88.57 109.51 88.86 110.66 89.46 112.98 89.49 113.12 89.53 113.27 89.6 113.56 89.75 114.14 90.05 115.3 90.64 117.57 90.68 117.72 90.72 117.87 90.8 118.17 90.97 118.76 91.29 119.92 91.33 120.06 91.37 120.2 91.45 120.48 91.61 121.02 91.93 122.07 91.97 122.2 92.01 122.33 92.09 122.58 92.25 123.06 92.58 123.99 92.62 124.1 92.66 124.2 92.74 124.42 92.9 124.83 93.22 125.6 93.26 125.68 93.3 125.76 93.37 125.92 93.52 126.23 93.56 126.31 93.59 126.38 93.67 126.52 93.82 126.79 93.86 126.86 93.9 126.92 93.97 127.04 94.12 127.27 94.16 127.32 94.2 127.38 94.27 127.48 94.42 127.66 94.46 127.7 94.5 127.75 94.57 127.82 94.61 127.86 94.65 127.9 94.72 127.96 94.76 128 94.8 128.03 94.87 128.08 94.91 128.11 94.95 128.13 95.02 128.18 95.06 128.2 95.1 128.22 95.13 128.24 95.17 128.25 95.21 128.27 95.25 128.28 95.29 128.3 95.32 128.31 95.36 128.32 95.4 128.32 95.44 128.33 95.47 128.33 95.51 128.34 95.55 128.34 95.59 128.34 95.62 128.34 95.66 128.34 95.7 128.33 95.75 128.33 95.79 128.32 95.83 128.31 95.87 128.3 95.91 128.29 95.95 128.27 95.99 128.26 96.03 128.24 96.07 128.22 96.11 128.2 96.15 128.18 96.19 128.15 96.27 128.1 96.32 128.07 96.36 128.04 96.44 127.98 96.48 127.94 96.52 127.9 96.6 127.82 96.64 127.78 96.68 127.74 96.76 127.64 96.93 127.44 96.97 127.39 97.01 127.33 97.09 127.21 97.25 126.96 97.29 126.89 97.33 126.82 97.41 126.68 97.58 126.38 97.62 126.3 97.66 126.22 97.74 126.05 97.9 125.71 98.23 124.94 98.27 124.84 98.31 124.74 98.39 124.54 98.55 124.11 98.87 123.21 99.51 121.2 99.55 121.07 99.59 120.94 99.67 120.66 99.83 120.11 100.15 118.98 100.79 116.59 100.82 116.45 100.86 116.31 100.94 116.02 101.09 115.44 101.12 115.3 101.16 115.15 101.23 114.86 101.38 114.28 101.42 114.13 101.46 113.99 101.53 113.69 101.57 113.55 101.61 113.4 101.64 113.26 101.68 113.11 101.72 113.09 101.76 113.09 101.79 113.09 101.83 113.09 101.87 113.09 101.91 113.09 101.98 113.09 102.02 113.09 102.05 113.09 102.13 113.09 102.28 113.09 102.58 113.09 103.17 113.09 103.21 113.09 103.25 113.09 103.33 113.09 103.5 113.09 103.82 113.09 104.47 113.09 105.76 113.09 108.17 113.09 110.54 113.09 113.11 113.09 115.51 113.09 118.11 113.09 120.53 113.09 122.91 113.09 125.49 113.09 127.9 113.09 130.51 113.09 133.07 113.09 135.46 113.09 138.06 113.09 140.47 113.09 142.85 113.09 145.42 113.09 147.82 113.09 147.86 113.09 147.91 113.09 147.99 113.09 148.16 113.09 148.49 113.09 149.16 113.09 149.2 113.09 149.25 113.09 149.33 113.09 149.5 113.09 149.83 113.09 149.88 113.09 149.92 113.09 150 113.09 150.17 113.09 150.21 113.09 150.25 113.09 150.34 113.09 150.38 113.09 150.42 113.09 150.46 113.09 150.5 113.09"/>
  <polyline class="cls-2" points="28.46 113.09 28.5 113.09 28.54 113.09 28.61 113.09 28.76 113.09 29.06 113.09 29.66 113.09 30.86 113.09 33.46 113.09 35.88 113.09 38.26 113.09 40.84 113.09 43.24 113.09 45.85 113.09 48.41 113.09 50.8 113.09 53.39 113.09 55.81 113.09 58.18 113.09 60.75 113.09 63.15 113.09 65.75 113.09 68.31 113.09 70.69 113.09 73.27 113.09 73.31 113.09 73.35 113.09 73.42 113.09 73.57 113.09 73.87 113.09 74.48 113.09 74.51 113.09 74.55 113.09 74.63 113.09 74.78 113.09 75.08 113.09 75.68 113.09 75.72 113.09 75.76 113.09 75.85 113.09 76.01 113.09 76.34 113.09 76.38 113.09 76.42 113.09 76.5 113.09 76.66 113.09 76.99 113.09 77.03 113.09 77.07 113.09 77.15 113.09 77.19 113.09 77.23 113.09 77.27 113.09 77.31 112.95 77.36 112.79 77.4 112.63 77.48 112.31 77.64 111.67 77.68 111.51 77.72 111.35 77.8 111.03 77.97 110.4 78.29 109.15 78.33 108.99 78.37 108.84 78.45 108.54 78.62 107.95 78.94 106.78 78.98 106.64 79.02 106.49 79.1 106.21 79.26 105.65 79.58 104.58 79.62 104.45 79.66 104.32 79.74 104.07 79.9 103.57 80.22 102.62 80.26 102.5 80.3 102.39 80.38 102.17 80.54 101.74 80.86 100.94 80.9 100.85 80.93 100.76 81.01 100.59 81.16 100.26 81.2 100.18 81.23 100.11 81.31 99.95 81.46 99.66 81.49 99.6 81.53 99.53 81.61 99.4 81.76 99.15 81.79 99.09 81.83 99.03 81.91 98.92 82.06 98.71 82.09 98.66 82.13 98.62 82.21 98.53 82.24 98.48 82.28 98.44 82.35 98.36 82.39 98.32 82.43 98.29 82.5 98.22 82.54 98.19 82.58 98.16 82.65 98.1 82.69 98.07 82.73 98.05 82.77 98.02 82.8 98 82.84 97.98 82.88 97.96 82.95 97.92 82.99 97.91 83.03 97.89 83.07 97.88 83.1 97.87 83.14 97.86 83.18 97.85 83.21 97.85 83.25 97.84 83.29 97.84 83.33 97.83 83.37 97.83 83.41 97.83 83.45 97.83 83.5 97.84 83.54 97.84 83.58 97.85 83.62 97.86 83.66 97.87 83.7 97.88 83.74 97.9 83.78 97.91 83.82 97.93 83.86 97.95 83.9 97.97 83.94 97.99 83.98 98.01 84.06 98.06 84.1 98.09 84.14 98.12 84.23 98.19 84.27 98.22 84.31 98.26 84.39 98.34 84.55 98.51 84.59 98.56 84.63 98.61 84.71 98.72 84.87 98.94 84.91 99 84.95 99.06 85.04 99.19 85.2 99.47 85.24 99.54 85.28 99.61 85.36 99.77 85.52 100.09 85.85 100.8 85.88 100.89 85.92 100.98 86 101.16 86.15 101.54 86.45 102.35 87.06 104.17 87.1 104.29 87.13 104.41 87.21 104.65 87.36 105.16 87.66 106.2 88.27 108.39 88.31 108.53 88.34 108.67 88.42 108.95 88.57 109.51 88.86 110.66 89.46 112.98 89.49 113.12 89.53 113.27 89.6 113.56 89.75 114.14 90.05 115.3 90.64 117.57 90.68 117.72 90.72 117.87 90.8 118.17 90.97 118.76 91.29 119.92 91.33 120.06 91.37 120.2 91.45 120.48 91.61 121.02 91.93 122.07 91.97 122.2 92.01 122.33 92.09 122.58 92.25 123.06 92.58 123.99 92.62 124.1 92.66 124.2 92.74 124.42 92.9 124.83 93.22 125.6 93.26 125.68 93.3 125.76 93.37 125.92 93.52 126.23 93.56 126.31 93.59 126.38 93.67 126.52 93.82 126.79 93.86 126.86 93.9 126.92 93.97 127.04 94.12 127.27 94.16 127.32 94.2 127.38 94.27 127.48 94.42 127.66 94.46 127.7 94.5 127.75 94.57 127.82 94.61 127.86 94.65 127.9 94.72 127.96 94.76 128 94.8 128.03 94.87 128.08 94.91 128.11 94.95 128.13 95.02 128.18 95.06 128.2 95.1 128.22 95.13 128.24 95.17 128.25 95.21 128.27 95.25 128.28 95.29 128.3 95.32 128.31 95.36 128.32 95.4 128.32 95.44 128.33 95.47 128.33 95.51 128.34 95.55 128.34 95.59 128.34 95.62 128.34 95.66 128.34 95.7 128.33 95.75 128.33 95.79 128.32 95.83 128.31 95.87 128.3 95.91 128.29 95.95 128.27 95.99 128.26 96.03 128.24 96.07 128.22 96.11 128.2 96.15 128.18 96.19 128.15 96.27 128.1 96.32 128.07 96.36 128.04 96.44 127.98 96.48 127.94 96.52 127.9 96.6 127.82 96.64 127.78 96.68 127.74 96.76 127.64 96.93 127.44 96.97 127.39 97.01 127.33 97.09 127.21 97.25 126.96 97.29 126.89 97.33 126.82 97.41 126.68 97.58 126.38 97.62 126.3 97.66 126.22 97.74 126.05 97.9 125.71 98.23 124.94 98.27 124.84 98.31 124.74 98.39 124.54 98.55 124.11 98.87 123.21 99.51 121.2 99.55 121.07 99.59 120.94 99.67 120.66 99.83 120.11 100.15 118.98 100.79 116.59 100.82 116.45 100.86 116.31 100.94 116.02 101.09 115.44 101.38 114.28 101.98 111.94 102.02 111.79 102.05 111.65 102.13 111.36 102.28 110.78 102.58 109.63 103.17 107.39 103.21 107.25 103.25 107.1 103.33 106.81 103.5 106.24 103.82 105.13 103.86 104.99 103.9 104.86 103.98 104.59 104.14 104.07 104.47 103.08 104.51 102.96 104.55 102.84 104.63 102.61 104.79 102.16 105.11 101.31 105.15 101.21 105.19 101.11 105.27 100.92 105.44 100.54 105.76 99.87 105.8 99.79 105.84 99.72 105.91 99.58 106.06 99.31 106.1 99.25 106.14 99.19 106.21 99.07 106.36 98.85 106.4 98.79 106.44 98.74 106.51 98.64 106.55 98.6 106.59 98.55 106.67 98.46 106.7 98.42 106.74 98.38 106.82 98.31 106.85 98.27 106.89 98.24 106.97 98.17 107.01 98.14 107.04 98.11 107.12 98.06 107.16 98.03 107.19 98.01 107.27 97.97 107.31 97.95 107.34 97.93 107.38 97.91 107.42 97.9 107.46 97.89 107.5 97.87 107.53 97.86 107.57 97.86 107.61 97.85 107.65 97.84 107.68 97.84 107.72 97.83 107.76 97.83 107.8 97.83 107.84 97.83 107.87 97.83 107.91 97.84 107.95 97.84 107.99 97.85 108.02 97.86 108.06 97.87 108.1 97.88 108.14 97.89 108.17 97.91 108.21 97.92 108.25 97.94 108.29 97.96 108.32 97.97 108.36 98 108.4 98.02 108.47 98.07 108.51 98.09 108.55 98.12 108.62 98.18 108.66 98.21 108.69 98.24 108.77 98.31 108.8 98.35 108.84 98.39 108.92 98.47 109.06 98.64 109.1 98.69 109.14 98.74 109.21 98.84 109.36 99.06 109.4 99.12 109.43 99.18 109.51 99.3 109.66 99.56 109.95 100.13 109.99 100.21 110.03 100.29 110.1 100.45 110.25 100.78 110.54 101.51 110.58 101.61 110.62 101.71 110.7 101.93 110.86 102.37 111.18 103.3 111.83 105.36 111.87 105.49 111.91 105.63 111.99 105.91 112.15 106.47 112.47 107.63 113.11 110.05 113.15 110.19 113.19 110.34 113.26 110.63 113.41 111.21 113.71 112.38 114.31 114.73 114.35 114.88 114.39 115.02 114.46 115.31 114.61 115.89 114.91 117.04 115.51 119.26 115.55 119.4 115.59 119.55 115.67 119.84 115.83 120.4 116.16 121.49 116.2 121.63 116.24 121.76 116.32 122.02 116.48 122.53 116.81 123.5 116.85 123.61 116.89 123.73 116.97 123.95 117.13 124.39 117.46 125.21 117.5 125.3 117.54 125.4 117.62 125.58 117.78 125.94 118.11 126.58 118.15 126.65 118.18 126.71 118.26 126.85 118.41 127.09 118.45 127.15 118.49 127.21 118.56 127.32 118.71 127.52 118.75 127.57 118.79 127.61 118.87 127.7 118.9 127.74 118.94 127.79 119.02 127.86 119.06 127.9 119.09 127.93 119.17 128 119.21 128.03 119.25 128.06 119.32 128.11 119.36 128.14 119.4 128.16 119.43 128.18 119.47 128.2 119.51 128.22 119.55 128.24 119.59 128.26 119.62 128.27 119.66 128.29 119.7 128.3 119.74 128.31 119.78 128.32 119.81 128.32 119.85 128.33 119.89 128.34 119.93 128.34 119.97 128.34 120 128.34 120.04 128.34 120.08 128.34 120.12 128.33 120.16 128.33 120.19 128.32 120.23 128.31 120.27 128.3 120.31 128.29 120.34 128.28 120.38 128.26 120.42 128.25 120.46 128.23 120.53 128.19 120.57 128.17 120.61 128.15 120.68 128.1 120.72 128.07 120.76 128.05 120.83 127.99 120.87 127.95 120.91 127.92 120.98 127.85 121.13 127.69 121.17 127.65 121.2 127.61 121.28 127.51 121.43 127.31 121.46 127.26 121.5 127.21 121.58 127.09 121.72 126.85 121.76 126.79 121.8 126.72 121.87 126.59 122.02 126.31 122.32 125.69 122.36 125.61 122.39 125.52 122.47 125.35 122.62 124.99 122.91 124.23 122.95 124.12 122.99 124.01 123.07 123.79 123.24 123.33 123.56 122.35 124.2 120.22 124.24 120.08 124.28 119.94 124.36 119.66 124.53 119.08 124.85 117.9 125.49 115.44 125.53 115.29 125.57 115.15 125.64 114.85 125.8 114.26 125.83 114.12 125.87 113.97 125.95 113.67 125.98 113.53 126.02 113.38 126.06 113.23 126.1 113.09 126.13 113.09 126.17 113.09 126.25 113.09 126.4 113.09 126.7 113.09 126.74 113.09 126.77 113.09 126.85 113.09 127 113.09 127.3 113.09 127.9 113.09 127.94 113.09 127.98 113.09 128.07 113.09 128.23 113.09 128.55 113.09 129.21 113.09 130.51 113.09 133.07 113.09 135.46 113.09 138.06 113.09 140.47 113.09 142.85 113.09 145.42 113.09 147.82 113.09 147.86 113.09 147.91 113.09 147.99 113.09 148.16 113.09 148.49 113.09 149.16 113.09 149.2 113.09 149.25 113.09 149.33 113.09 149.5 113.09 149.83 113.09 149.88 113.09 149.92 113.09 150 113.09 150.17 113.09 150.21 113.09 150.25 113.09 150.34 113.09 150.38 113.09 150.42 113.09 150.46 113.09 150.5 113.09"/>
  <polyline class="cls-1" points="28.46 263.08 28.5 263.08 28.54 263.08 28.61 263.08 28.76 263.08 29.06 263.08 29.66 263.08 30.86 263.08 33.46 263.08 35.88 263.08 38.26 263.08 40.84 263.08 43.24 263.08 45.85 263.08 48.41 263.08 50.8 263.08 53.39 263.08 55.81 263.08 58.18 263.08 60.75 263.08 63.15 263.08 65.75 263.08 68.31 263.08 70.69 263.08 73.27 263.08 75.68 263.08 78.29 263.08 80.86 263.08 83.25 263.08 85.85 263.08 88.27 263.08 90.64 263.08 93.22 263.08 95.62 263.08 98.23 263.08 98.27 263.08 98.31 263.08 98.39 263.08 98.55 263.08 98.87 263.08 99.51 263.08 99.55 263.08 99.59 263.08 99.67 263.08 99.83 263.08 100.15 263.08 100.79 263.08 100.82 263.08 100.86 263.08 100.94 263.08 101.09 263.08 101.38 263.08 101.42 263.08 101.46 263.08 101.53 263.08 101.68 263.08 101.72 262.96 101.76 262.8 101.83 262.5 101.98 261.89 102.02 261.74 102.05 261.59 102.13 261.28 102.28 260.68 102.58 259.48 103.17 257.16 103.21 257 103.25 256.85 103.33 256.55 103.5 255.95 103.82 254.79 103.86 254.65 103.9 254.51 103.98 254.24 104.14 253.7 104.47 252.66 104.51 252.54 104.55 252.41 104.63 252.17 104.79 251.7 105.11 250.82 105.15 250.71 105.19 250.61 105.27 250.41 105.44 250.02 105.76 249.31 105.8 249.24 105.84 249.16 105.91 249.02 106.06 248.74 106.1 248.67 106.14 248.61 106.21 248.48 106.36 248.25 106.4 248.2 106.44 248.14 106.51 248.04 106.55 247.99 106.59 247.95 106.67 247.85 106.7 247.81 106.74 247.77 106.82 247.69 106.85 247.65 106.89 247.62 106.97 247.55 107.01 247.52 107.04 247.49 107.12 247.43 107.16 247.4 107.19 247.38 107.27 247.34 107.31 247.32 107.34 247.3 107.38 247.28 107.42 247.27 107.46 247.25 107.5 247.24 107.53 247.23 107.57 247.22 107.61 247.21 107.65 247.2 107.68 247.2 107.72 247.2 107.76 247.19 107.8 247.19 107.84 247.2 107.87 247.2 107.91 247.2 107.95 247.21 107.99 247.21 108.02 247.22 108.06 247.23 108.1 247.24 108.14 247.26 108.17 247.27 108.21 247.29 108.25 247.3 108.29 247.32 108.32 247.34 108.36 247.37 108.4 247.39 108.47 247.44 108.51 247.47 108.55 247.49 108.62 247.55 108.66 247.59 108.69 247.62 108.77 247.69 108.8 247.73 108.84 247.77 108.92 247.86 109.06 248.04 109.1 248.09 109.14 248.14 109.21 248.25 109.36 248.47 109.4 248.53 109.43 248.6 109.51 248.72 109.66 248.99 109.95 249.59 109.99 249.67 110.03 249.75 110.1 249.92 110.25 250.27 110.54 251.02 110.58 251.13 110.62 251.24 110.7 251.46 110.86 251.92 111.18 252.89 111.83 255.03 111.87 255.18 111.91 255.32 111.99 255.61 112.15 256.19 112.47 257.4 113.11 259.92 113.15 260.07 113.19 260.22 113.26 260.52 113.41 261.13 113.71 262.35 114.31 264.8 114.35 264.95 114.39 265.1 114.46 265.4 114.61 266.01 114.91 267.2 115.51 269.51 115.55 269.66 115.59 269.82 115.67 270.12 115.83 270.7 116.16 271.84 116.2 271.98 116.24 272.12 116.32 272.39 116.48 272.92 116.81 273.93 116.85 274.05 116.89 274.17 116.97 274.4 117.13 274.86 117.46 275.71 117.5 275.81 117.54 275.91 117.62 276.1 117.78 276.47 118.11 277.14 118.15 277.21 118.18 277.28 118.26 277.42 118.41 277.68 118.45 277.74 118.49 277.8 118.56 277.91 118.71 278.12 118.75 278.17 118.79 278.22 118.87 278.31 118.9 278.35 118.94 278.4 119.02 278.48 119.06 278.51 119.09 278.55 119.17 278.62 119.21 278.65 119.25 278.68 119.32 278.74 119.36 278.76 119.4 278.79 119.43 278.81 119.47 278.83 119.51 278.85 119.55 278.87 119.59 278.89 119.62 278.9 119.66 278.92 119.7 278.93 119.74 278.94 119.78 278.95 119.81 278.96 119.85 278.96 119.89 278.97 119.93 278.97 119.97 278.97 120 278.97 120.04 278.97 120.08 278.97 120.12 278.97 120.16 278.96 120.19 278.95 120.23 278.94 120.27 278.93 120.31 278.92 120.34 278.91 120.38 278.89 120.42 278.88 120.46 278.86 120.53 278.82 120.57 278.8 120.61 278.78 120.68 278.72 120.72 278.7 120.76 278.67 120.83 278.61 120.87 278.57 120.91 278.54 120.98 278.46 121.13 278.3 121.17 278.26 121.2 278.21 121.28 278.11 121.43 277.91 121.46 277.85 121.5 277.79 121.58 277.68 121.72 277.42 121.76 277.36 121.8 277.29 121.87 277.15 122.02 276.86 122.32 276.21 122.36 276.13 122.39 276.04 122.47 275.86 122.62 275.49 122.91 274.69 122.95 274.58 122.99 274.47 123.07 274.23 123.24 273.75 123.56 272.74 124.2 270.52 124.24 270.37 124.28 270.23 124.36 269.93 124.53 269.33 124.85 268.1 125.49 265.54 125.53 265.38 125.57 265.23 125.64 264.93 125.8 264.31 126.1 263.08 126.7 260.63 126.74 260.48 126.77 260.33 126.85 260.02 127 259.42 127.3 258.24 127.9 255.96 127.94 255.81 127.98 255.66 128.07 255.37 128.23 254.79 128.55 253.68 128.59 253.55 128.64 253.42 128.72 253.15 128.88 252.64 129.21 251.67 129.25 251.56 129.29 251.44 129.37 251.22 129.53 250.79 129.57 250.68 129.61 250.58 129.7 250.37 129.86 249.99 129.9 249.89 129.94 249.8 130.02 249.62 130.19 249.28 130.23 249.2 130.27 249.11 130.35 248.96 130.51 248.67 130.55 248.6 130.59 248.53 130.67 248.4 130.83 248.17 130.87 248.11 130.91 248.06 130.99 247.95 131.15 247.76 131.19 247.72 131.23 247.68 131.31 247.6 131.35 247.57 131.39 247.53 131.47 247.47 131.51 247.44 131.55 247.41 131.59 247.39 131.63 247.36 131.67 247.34 131.71 247.32 131.75 247.3 131.79 247.28 131.83 247.26 131.87 247.25 131.91 247.24 131.95 247.23 131.99 247.22 132.03 247.21 132.07 247.2 132.11 247.2 132.15 247.2 132.19 247.19 132.23 247.19 132.27 247.2 132.31 247.2 132.35 247.21 132.39 247.21 132.43 247.22 132.47 247.23 132.51 247.25 132.55 247.26 132.59 247.28 132.63 247.29 132.67 247.31 132.75 247.36 132.79 247.38 132.83 247.41 132.91 247.46 132.95 247.49 132.99 247.53 133.07 247.6 133.11 247.63 133.15 247.67 133.22 247.75 133.26 247.79 133.3 247.83 133.37 247.92 133.41 247.96 133.45 248.01 133.52 248.11 133.67 248.32 133.71 248.38 133.75 248.44 133.82 248.56 133.97 248.82 134.27 249.4 134.31 249.48 134.34 249.56 134.42 249.72 134.57 250.06 134.87 250.8 134.9 250.9 134.94 251 135.02 251.2 135.17 251.61 135.46 252.49 135.51 252.61 135.55 252.74 135.63 252.99 135.79 253.51 136.11 254.6 136.76 256.95 138.06 262.09 138.09 262.24 138.13 262.4 138.21 262.71 138.36 263.33 138.66 264.56 139.27 267 139.3 267.15 139.34 267.3 139.42 267.59 139.57 268.18 139.87 269.34 140.47 271.53 140.51 271.66 140.55 271.78 140.62 272.04 140.77 272.53 141.07 273.48 141.11 273.59 141.14 273.7 141.22 273.93 141.36 274.36 141.66 275.18 141.7 275.28 141.74 275.38 141.81 275.57 141.96 275.93 141.99 276.02 142.03 276.11 142.11 276.28 142.25 276.61 142.29 276.69 142.33 276.77 142.4 276.92 142.55 277.21 142.59 277.28 142.62 277.34 142.7 277.47 142.85 277.72 142.89 277.78 142.93 277.85 143.01 277.96 143.05 278.02 143.09 278.08 143.17 278.18 143.21 278.23 143.25 278.28 143.33 278.37 143.49 278.54 143.53 278.58 143.57 278.61 143.65 278.68 143.69 278.71 143.73 278.74 143.81 278.79 143.85 278.82 143.89 278.84 143.93 278.86 143.97 278.88 144.01 278.9 144.05 278.91 144.09 278.93 144.13 278.94 144.17 278.95 144.21 278.96 144.26 278.96 144.3 278.97 144.34 278.97 144.38 278.97 144.42 278.97 144.46 278.97 144.5 278.97 144.54 278.97 144.58 278.96 144.62 278.95 144.66 278.94 144.7 278.93 144.74 278.92 144.78 278.9 144.82 278.88 144.86 278.87 144.9 278.84 144.94 278.82 144.98 278.8 145.02 278.77 145.1 278.72 145.14 278.69 145.18 278.66 145.26 278.59 145.3 278.55 145.34 278.51 145.42 278.43 145.46 278.39 145.5 278.35 145.57 278.26 145.72 278.07 145.76 278.01 145.8 277.96 145.87 277.85 146.02 277.61 146.06 277.55 146.1 277.49 146.17 277.35 146.32 277.07 146.62 276.45 146.66 276.37 146.7 276.28 146.77 276.11 146.92 275.75 147.22 274.97 147.26 274.86 147.3 274.76 147.37 274.55 147.52 274.12 147.82 273.2 147.86 273.07 147.91 272.93 147.99 272.66 148.16 272.11 148.49 270.95 149.16 268.46 149.2 268.3 149.25 268.14 149.33 267.81 149.5 267.15 149.83 265.81 149.88 265.64 149.92 265.47 150 265.13 150.17 264.45 150.21 264.28 150.25 264.11 150.34 263.77 150.38 263.6 150.42 263.43 150.46 263.26 150.5 263.08"/>
  <polyline class="cls-2" points="28.46 263.08 28.5 262.93 28.54 262.78 28.61 262.47 28.76 261.86 29.06 260.64 29.66 258.26 29.7 258.12 29.74 257.97 29.81 257.68 29.96 257.11 30.26 255.99 30.86 253.89 30.9 253.76 30.94 253.63 31.02 253.36 31.18 252.84 31.51 251.87 31.55 251.75 31.59 251.63 31.67 251.41 31.83 250.97 32.16 250.15 32.2 250.05 32.24 249.96 32.32 249.78 32.48 249.43 32.52 249.34 32.56 249.26 32.65 249.1 32.81 248.8 32.85 248.72 32.89 248.65 32.97 248.52 33.13 248.26 33.17 248.21 33.21 248.15 33.29 248.04 33.46 247.84 33.49 247.8 33.53 247.75 33.61 247.67 33.65 247.64 33.68 247.6 33.76 247.53 33.8 247.5 33.84 247.47 33.87 247.45 33.91 247.42 33.95 247.39 33.99 247.37 34.06 247.33 34.1 247.31 34.14 247.29 34.18 247.27 34.21 247.26 34.25 247.25 34.29 247.23 34.33 247.22 34.37 247.22 34.4 247.21 34.44 247.2 34.48 247.2 34.52 247.2 34.56 247.19 34.59 247.19 34.63 247.2 34.67 247.2 34.71 247.2 34.75 247.21 34.78 247.22 34.82 247.23 34.86 247.24 34.9 247.25 34.93 247.26 34.97 247.28 35.01 247.3 35.05 247.32 35.09 247.34 35.12 247.36 35.16 247.38 35.2 247.4 35.28 247.46 35.31 247.49 35.35 247.52 35.43 247.58 35.46 247.62 35.5 247.65 35.58 247.73 35.62 247.77 35.65 247.81 35.73 247.9 35.88 248.1 35.92 248.15 35.96 248.2 36.03 248.31 36.18 248.54 36.22 248.61 36.25 248.67 36.33 248.8 36.48 249.08 36.51 249.15 36.55 249.22 36.62 249.37 36.77 249.69 37.07 250.38 37.11 250.47 37.14 250.57 37.22 250.76 37.37 251.15 37.66 251.99 38.26 253.85 38.3 253.98 38.34 254.12 38.42 254.39 38.58 254.95 38.9 256.11 39.55 258.57 40.84 263.78 40.88 263.93 40.91 264.08 40.99 264.39 41.14 265 41.44 266.22 42.04 268.58 42.08 268.73 42.12 268.87 42.19 269.16 42.34 269.72 42.64 270.82 43.24 272.87 43.29 273 43.33 273.13 43.41 273.38 43.57 273.88 43.9 274.82 43.94 274.93 43.98 275.04 44.06 275.26 44.22 275.68 44.55 276.45 44.59 276.54 44.63 276.62 44.71 276.8 44.87 277.12 44.92 277.2 44.96 277.27 45.04 277.42 45.2 277.69 45.24 277.76 45.28 277.82 45.36 277.94 45.4 278 45.45 278.06 45.53 278.17 45.57 278.22 45.61 278.27 45.69 278.36 45.85 278.53 45.89 278.57 45.93 278.61 46.01 278.67 46.05 278.7 46.09 278.73 46.17 278.79 46.21 278.81 46.25 278.83 46.29 278.85 46.33 278.87 46.37 278.89 46.41 278.91 46.45 278.92 46.49 278.93 46.53 278.94 46.57 278.95 46.61 278.96 46.65 278.97 46.69 278.97 46.73 278.97 46.77 278.97 46.81 278.97 46.85 278.97 46.89 278.97 46.93 278.96 46.97 278.95 47.01 278.94 47.05 278.93 47.09 278.92 47.13 278.91 47.17 278.89 47.21 278.87 47.25 278.85 47.29 278.83 47.33 278.81 47.37 278.78 47.45 278.73 47.49 278.7 47.53 278.67 47.61 278.6 47.65 278.57 47.69 278.53 47.77 278.45 47.81 278.41 47.85 278.36 47.93 278.27 48.09 278.06 48.13 278.01 48.17 277.95 48.25 277.83 48.41 277.57 48.45 277.51 48.49 277.45 48.56 277.31 48.71 277.03 49.01 276.4 49.05 276.32 49.08 276.24 49.16 276.06 49.31 275.7 49.61 274.92 49.64 274.82 49.68 274.72 49.76 274.51 49.91 274.07 50.2 273.16 50.8 271.16 50.84 271.02 50.88 270.87 50.96 270.58 51.13 269.99 51.45 268.78 52.1 266.24 53.39 260.97 53.43 260.81 53.47 260.66 53.54 260.35 53.69 259.75 54 258.55 54.6 256.24 54.64 256.11 54.68 255.97 54.75 255.69 54.9 255.15 55.21 254.1 55.81 252.18 55.85 252.07 55.88 251.96 55.96 251.75 56.11 251.33 56.4 250.55 56.44 250.46 56.48 250.37 56.55 250.19 56.7 249.84 56.99 249.21 57.03 249.14 57.07 249.07 57.14 248.93 57.29 248.66 57.33 248.6 57.37 248.54 57.44 248.42 57.59 248.2 57.62 248.14 57.66 248.09 57.74 248 57.77 247.95 57.81 247.9 57.88 247.82 57.92 247.77 57.96 247.73 58.03 247.66 58.07 247.62 58.11 247.59 58.18 247.52 58.22 247.49 58.26 247.46 58.3 247.43 58.34 247.4 58.38 247.38 58.42 247.35 58.5 247.31 58.54 247.29 58.58 247.27 58.62 247.26 58.66 247.25 58.7 247.23 58.74 247.22 58.78 247.21 58.82 247.21 58.86 247.2 58.9 247.2 58.94 247.19 58.98 247.19 59.02 247.2 59.06 247.2 59.1 247.2 59.14 247.21 59.18 247.22 59.22 247.23 59.26 247.24 59.31 247.25 59.35 247.27 59.39 247.28 59.43 247.3 59.47 247.32 59.51 247.34 59.55 247.37 59.59 247.39 59.63 247.42 59.67 247.45 59.71 247.48 59.79 247.54 59.83 247.58 59.87 247.61 59.95 247.69 60.11 247.87 60.15 247.92 60.19 247.97 60.27 248.07 60.43 248.3 60.47 248.36 60.51 248.42 60.59 248.55 60.75 248.83 60.79 248.9 60.83 248.97 60.9 249.11 61.05 249.41 61.35 250.08 61.39 250.17 61.43 250.26 61.5 250.44 61.65 250.82 61.95 251.64 61.99 251.75 62.03 251.85 62.1 252.07 62.25 252.52 62.55 253.47 63.15 255.53 63.19 255.68 63.23 255.82 63.31 256.12 63.48 256.73 63.8 257.97 64.45 260.54 65.75 265.84 65.79 266 65.83 266.16 65.91 266.48 66.07 267.11 66.39 268.36 67.03 270.74 67.07 270.89 67.11 271.03 67.19 271.31 67.35 271.86 67.67 272.92 68.31 274.83 68.34 274.93 68.38 275.03 68.46 275.23 68.6 275.61 68.64 275.71 68.68 275.8 68.75 275.98 68.9 276.32 68.94 276.41 68.98 276.49 69.05 276.65 69.2 276.96 69.5 277.51 69.53 277.57 69.57 277.64 69.65 277.76 69.79 277.98 69.83 278.03 69.87 278.08 69.94 278.18 70.09 278.36 70.13 278.4 70.17 278.44 70.24 278.52 70.28 278.55 70.32 278.59 70.39 278.65 70.43 278.68 70.46 278.71 70.5 278.73 70.54 278.76 70.58 278.78 70.61 278.81 70.69 278.85 70.73 278.87 70.77 278.89 70.81 278.9 70.85 278.92 70.89 278.93 70.93 278.94 70.97 278.95 71.01 278.96 71.05 278.97 71.09 278.97 71.13 278.97 71.17 278.97 71.21 278.97 71.25 278.97 71.29 278.97 71.33 278.96 71.37 278.95 71.41 278.95 71.45 278.93 71.5 278.92 71.54 278.91 71.58 278.89 71.62 278.87 71.66 278.85 71.7 278.83 71.74 278.81 71.78 278.79 71.82 278.76 71.86 278.73 71.9 278.7 71.98 278.64 72.02 278.6 72.06 278.57 72.14 278.49 72.18 278.45 72.22 278.4 72.3 278.31 72.34 278.27 72.38 278.22 72.46 278.11 72.63 277.88 72.67 277.82 72.71 277.76 72.79 277.63 72.95 277.35 73.27 276.72 73.31 276.64 73.35 276.56 73.42 276.4 73.57 276.05 73.87 275.3 73.91 275.2 73.95 275.1 74.02 274.9 74.18 274.47 74.48 273.58 74.51 273.47 74.55 273.35 74.63 273.11 74.78 272.63 75.08 271.61 75.68 269.44 75.72 269.28 75.76 269.13 75.85 268.82 76.01 268.19 76.34 266.91 76.38 266.75 76.42 266.59 76.5 266.26 76.66 265.6 76.99 264.28 77.03 264.11 77.07 263.94 77.11 263.78 77.15 263.61 77.19 263.44 77.23 263.27 77.27 263.11 77.31 263.08 77.36 263.08 77.4 263.08 77.48 263.08 77.64 263.08 77.68 263.08 77.72 263.08 77.8 263.08 77.97 263.08 78.29 263.08 78.33 263.08 78.37 263.08 78.45 263.08 78.62 263.08 78.94 263.08 79.58 263.08 80.86 263.08 83.25 263.08 85.85 263.08 88.27 263.08 90.64 263.08 93.22 263.08 95.62 263.08 98.23 263.08 100.79 263.08 103.17 263.08 105.76 263.08 108.17 263.08 110.54 263.08 113.11 263.08 115.51 263.08 118.11 263.08 120.53 263.08 122.91 263.08 125.49 263.08 127.9 263.08 130.51 263.08 133.07 263.08 135.46 263.08 138.06 263.08 140.47 263.08 142.85 263.08 145.42 263.08 147.82 263.08 147.86 263.08 147.91 263.08 147.99 263.08 148.16 263.08 148.49 263.08 149.16 263.08 149.2 263.08 149.25 263.08 149.33 263.08 149.5 263.08 149.83 263.08 149.88 263.08 149.92 263.08 150 263.08 150.17 263.08 150.21 263.08 150.25 263.08 150.34 263.08 150.38 263.08 150.42 263.08 150.46 263.08 150.5 263.08"/>
  <polyline class="cls-1" points="28.46 188.08 28.5 188.08 28.54 188.08 28.61 188.08 28.76 188.08 29.06 188.08 29.66 188.08 30.86 188.08 33.46 188.08 35.88 188.08 38.26 188.08 40.84 188.08 43.24 188.08 45.85 188.08 48.41 188.08 50.8 188.08 53.39 188.08 55.81 188.08 55.85 188.08 55.88 188.08 55.96 188.08 56.11 188.08 56.4 188.08 56.99 188.08 57.03 188.08 57.07 188.08 57.14 188.08 57.29 188.08 57.59 188.08 58.18 188.08 58.22 188.08 58.26 188.08 58.34 188.08 58.5 188.08 58.54 188.08 58.58 188.08 58.66 188.08 58.82 188.08 58.86 188.08 58.9 188.08 58.94 188.08 58.98 188.12 59.02 188.29 59.06 188.45 59.14 188.78 59.18 188.94 59.22 189.11 59.31 189.44 59.47 190.09 59.51 190.25 59.55 190.42 59.63 190.74 59.79 191.39 60.11 192.66 60.75 195.1 60.79 195.24 60.83 195.38 60.9 195.65 61.05 196.18 61.35 197.21 61.39 197.34 61.43 197.46 61.5 197.71 61.65 198.19 61.95 199.11 61.99 199.22 62.03 199.33 62.1 199.54 62.25 199.96 62.55 200.74 62.59 200.83 62.63 200.92 62.7 201.1 62.85 201.44 63.15 202.06 63.19 202.14 63.23 202.22 63.31 202.37 63.48 202.65 63.52 202.71 63.56 202.78 63.64 202.9 63.8 203.13 63.84 203.18 63.88 203.23 63.96 203.33 64.01 203.37 64.05 203.42 64.13 203.5 64.17 203.54 64.21 203.58 64.29 203.65 64.33 203.68 64.37 203.71 64.45 203.77 64.49 203.8 64.53 203.82 64.57 203.84 64.61 203.86 64.66 203.88 64.7 203.9 64.74 203.91 64.78 203.93 64.82 203.94 64.86 203.95 64.9 203.96 64.94 203.97 64.98 203.97 65.02 203.97 65.06 203.97 65.1 203.97 65.14 203.97 65.18 203.97 65.22 203.96 65.27 203.96 65.31 203.95 65.35 203.94 65.39 203.92 65.43 203.91 65.47 203.89 65.51 203.88 65.55 203.86 65.59 203.84 65.63 203.81 65.67 203.79 65.75 203.73 65.79 203.71 65.83 203.67 65.91 203.61 65.95 203.57 65.99 203.54 66.07 203.46 66.11 203.41 66.15 203.37 66.23 203.28 66.39 203.07 66.43 203.02 66.47 202.96 66.55 202.84 66.71 202.59 66.75 202.52 66.79 202.45 66.87 202.31 67.03 202.01 67.07 201.93 67.11 201.85 67.19 201.68 67.35 201.33 67.67 200.57 67.71 200.47 67.75 200.36 67.83 200.15 67.99 199.72 68.31 198.79 68.34 198.68 68.38 198.56 68.46 198.33 68.6 197.86 68.9 196.87 69.5 194.75 70.69 190.08 70.73 189.92 70.77 189.76 70.85 189.43 71.01 188.77 71.33 187.45 71.98 184.83 72.02 184.67 72.06 184.51 72.14 184.18 72.3 183.55 72.63 182.3 73.27 179.93 73.31 179.8 73.35 179.67 73.42 179.41 73.57 178.9 73.87 177.92 73.91 177.8 73.95 177.69 74.02 177.45 74.18 177 74.48 176.16 74.51 176.05 74.55 175.95 74.63 175.76 74.78 175.38 74.82 175.29 74.85 175.19 74.93 175.02 75.08 174.68 75.12 174.59 75.15 174.51 75.23 174.36 75.38 174.06 75.42 173.98 75.46 173.91 75.53 173.78 75.68 173.52 75.72 173.45 75.76 173.39 75.85 173.26 75.89 173.21 75.93 173.15 76.01 173.04 76.05 172.98 76.09 172.93 76.17 172.84 76.34 172.66 76.38 172.62 76.42 172.58 76.5 172.51 76.54 172.48 76.58 172.45 76.66 172.39 76.7 172.37 76.74 172.35 76.78 172.32 76.82 172.3 76.87 172.28 76.91 172.27 76.95 172.25 76.99 172.24 77.03 172.23 77.07 172.22 77.11 172.21 77.15 172.2 77.19 172.2 77.23 172.2 77.27 172.19 77.31 172.19 77.36 172.2 77.4 172.2 77.44 172.21 77.48 172.21 77.52 172.22 77.56 172.24 77.6 172.25 77.64 172.26 77.68 172.28 77.72 172.3 77.76 172.32 77.8 172.34 77.85 172.36 77.89 172.39 77.97 172.44 78.01 172.47 78.05 172.51 78.13 172.57 78.17 172.61 78.21 172.65 78.29 172.73 78.33 172.78 78.37 172.82 78.45 172.92 78.62 173.12 78.66 173.18 78.7 173.24 78.78 173.36 78.94 173.62 78.98 173.68 79.02 173.75 79.1 173.9 79.26 174.21 79.58 174.89 79.62 174.98 79.66 175.08 79.74 175.27 79.9 175.67 80.22 176.53 80.26 176.64 80.3 176.75 80.38 176.99 80.54 177.47 80.86 178.48 80.9 178.6 80.93 178.72 81.01 178.97 81.16 179.48 81.46 180.53 82.06 182.76 83.25 187.55 83.29 187.72 83.33 187.89 83.41 188.22 83.58 188.88 83.9 190.2 84.55 192.79 84.59 192.95 84.63 193.1 84.71 193.42 84.87 194.04 85.2 195.25 85.85 197.5 85.88 197.63 85.92 197.75 86 198 86.15 198.47 86.45 199.38 86.49 199.48 86.53 199.59 86.6 199.8 86.75 200.21 87.06 200.97 87.1 201.06 87.13 201.15 87.21 201.33 87.36 201.66 87.4 201.74 87.44 201.82 87.51 201.97 87.66 202.26 87.7 202.33 87.74 202.4 87.81 202.53 87.97 202.78 88 202.84 88.04 202.89 88.12 203 88.27 203.2 88.31 203.25 88.34 203.29 88.42 203.38 88.45 203.42 88.49 203.46 88.57 203.53 88.6 203.57 88.64 203.6 88.71 203.66 88.75 203.69 88.79 203.72 88.86 203.77 88.9 203.8 88.94 203.82 88.97 203.84 89.01 203.86 89.05 203.88 89.09 203.89 89.12 203.91 89.16 203.92 89.2 203.93 89.23 203.94 89.27 203.95 89.31 203.96 89.34 203.96 89.38 203.97 89.42 203.97 89.46 203.97 89.49 203.97 89.53 203.97 89.57 203.97 89.6 203.97 89.64 203.96 89.68 203.96 89.72 203.95 89.75 203.94 89.79 203.93 89.83 203.91 89.86 203.9 89.9 203.88 89.94 203.87 89.97 203.85 90.05 203.81 90.09 203.78 90.12 203.76 90.2 203.71 90.24 203.68 90.27 203.65 90.35 203.58 90.38 203.55 90.42 203.51 90.49 203.44 90.64 203.27 90.68 203.22 90.72 203.17 90.8 203.07 90.97 202.83 91.01 202.77 91.05 202.71 91.13 202.58 91.29 202.29 91.33 202.22 91.37 202.14 91.45 201.99 91.61 201.65 91.93 200.92 91.97 200.83 92.01 200.73 92.09 200.52 92.25 200.1 92.58 199.2 93.22 197.18 93.26 197.05 93.3 196.92 93.37 196.67 93.52 196.14 93.82 195.06 94.42 192.78 95.62 187.93 95.66 187.76 95.7 187.6 95.79 187.26 95.95 186.6 96.27 185.28 96.93 182.71 96.97 182.55 97.01 182.4 97.09 182.09 97.25 181.48 97.58 180.29 98.23 178.09 98.27 177.96 98.31 177.83 98.39 177.59 98.55 177.1 98.87 176.2 98.91 176.09 98.95 175.98 99.03 175.77 99.19 175.37 99.51 174.63 99.55 174.54 99.59 174.46 99.67 174.29 99.83 173.98 99.87 173.91 99.91 173.83 99.99 173.69 100.15 173.43 100.19 173.36 100.23 173.3 100.31 173.19 100.35 173.13 100.39 173.08 100.47 172.97 100.51 172.92 100.55 172.87 100.63 172.78 100.79 172.62 100.82 172.59 100.86 172.55 100.94 172.49 100.97 172.46 101.01 172.43 101.09 172.38 101.12 172.36 101.16 172.34 101.2 172.32 101.23 172.3 101.27 172.29 101.31 172.27 101.35 172.26 101.38 172.24 101.42 172.23 101.46 172.22 101.5 172.21 101.53 172.21 101.57 172.2 101.61 172.2 101.64 172.2 101.68 172.19 101.72 172.19 101.76 172.2 101.79 172.2 101.83 172.2 101.87 172.21 101.91 172.22 101.94 172.23 101.98 172.24 102.02 172.25 102.05 172.26 102.09 172.28 102.13 172.3 102.17 172.31 102.2 172.33 102.28 172.38 102.32 172.4 102.35 172.43 102.43 172.48 102.46 172.51 102.5 172.54 102.58 172.61 102.61 172.64 102.65 172.68 102.72 172.76 102.76 172.8 102.8 172.84 102.87 172.93 102.91 172.98 102.95 173.02 103.02 173.12 103.17 173.34 103.21 173.4 103.25 173.47 103.33 173.6 103.5 173.89 103.54 173.96 103.58 174.04 103.66 174.19 103.82 174.53 103.86 174.62 103.9 174.7 103.98 174.88 104.14 175.26 104.47 176.09 104.51 176.2 104.55 176.31 104.63 176.53 104.79 177 105.11 177.98 105.76 180.16 105.8 180.29 105.84 180.42 105.91 180.7 106.06 181.25 106.36 182.38 106.4 182.53 106.44 182.67 106.51 182.96 106.67 183.55 106.97 184.75 107.01 184.9 107.04 185.05 107.12 185.35 107.27 185.96 107.31 186.12 107.34 186.27 107.42 186.58 107.57 187.19 107.61 187.35 107.65 187.5 107.68 187.66 107.72 187.81 107.76 187.97 107.8 188.08 107.84 188.08 107.87 188.08 107.91 188.08 107.95 188.08 108.02 188.08 108.17 188.08 108.21 188.08 108.25 188.08 108.32 188.08 108.47 188.08 108.77 188.08 109.36 188.08 110.54 188.08 113.11 188.08 115.51 188.08 118.11 188.08 120.53 188.08 122.91 188.08 125.49 188.08 127.9 188.08 130.51 188.08 133.07 188.08 135.46 188.08 138.06 188.08 140.47 188.08 142.85 188.08 145.42 188.08 147.82 188.08 147.86 188.08 147.91 188.08 147.99 188.08 148.16 188.08 148.49 188.08 149.16 188.08 149.2 188.08 149.25 188.08 149.33 188.08 149.5 188.08 149.83 188.08 149.88 188.08 149.92 188.08 150 188.08 150.17 188.08 150.21 188.08 150.25 188.08 150.34 188.08 150.38 188.08 150.42 188.08 150.46 188.08 150.5 188.08"/>
  <polyline class="cls-2" points="28.46 188.08 28.5 188.08 28.54 188.08 28.61 188.08 28.76 188.08 29.06 188.08 29.66 188.08 30.86 188.08 33.46 188.08 35.88 188.08 38.26 188.08 40.84 188.08 43.24 188.08 45.85 188.08 48.41 188.08 50.8 188.08 53.39 188.08 55.81 188.08 58.18 188.08 60.75 188.08 63.15 188.08 65.75 188.08 68.31 188.08 68.34 188.08 68.38 188.08 68.46 188.08 68.6 188.08 68.9 188.08 69.5 188.08 69.53 188.08 69.57 188.08 69.65 188.08 69.79 188.08 70.09 188.08 70.69 188.08 70.73 188.08 70.77 188.08 70.85 188.08 71.01 188.08 71.05 188.08 71.09 188.08 71.17 188.08 71.21 188.23 71.25 188.39 71.33 188.72 71.37 188.89 71.41 189.05 71.5 189.38 71.66 190.04 71.98 191.34 72.02 191.5 72.06 191.66 72.14 191.98 72.3 192.62 72.63 193.87 73.27 196.24 73.31 196.37 73.35 196.5 73.42 196.76 73.57 197.27 73.87 198.25 73.91 198.37 73.95 198.48 74.02 198.71 74.18 199.16 74.48 200.01 74.51 200.12 74.55 200.22 74.63 200.41 74.78 200.79 74.82 200.88 74.85 200.97 74.93 201.15 75.08 201.49 75.12 201.57 75.15 201.66 75.23 201.81 75.38 202.11 75.42 202.18 75.46 202.26 75.53 202.39 75.68 202.65 75.72 202.72 75.76 202.78 75.85 202.9 75.89 202.96 75.93 203.02 76.01 203.13 76.05 203.18 76.09 203.24 76.17 203.33 76.34 203.51 76.38 203.55 76.42 203.58 76.5 203.65 76.54 203.69 76.58 203.72 76.66 203.77 76.7 203.8 76.74 203.82 76.78 203.85 76.82 203.87 76.87 203.88 76.91 203.9 76.95 203.92 76.99 203.93 77.03 203.94 77.07 203.95 77.11 203.96 77.15 203.97 77.19 203.97 77.23 203.97 77.27 203.97 77.31 203.97 77.36 203.97 77.4 203.97 77.44 203.96 77.48 203.95 77.52 203.94 77.56 203.93 77.6 203.92 77.64 203.91 77.68 203.89 77.72 203.87 77.76 203.85 77.8 203.83 77.85 203.81 77.89 203.78 77.97 203.73 78.01 203.7 78.05 203.66 78.13 203.6 78.17 203.56 78.21 203.52 78.29 203.44 78.33 203.39 78.37 203.35 78.45 203.25 78.62 203.05 78.66 202.99 78.7 202.93 78.78 202.81 78.94 202.55 78.98 202.48 79.02 202.41 79.1 202.27 79.26 201.96 79.58 201.28 79.62 201.18 79.66 201.09 79.74 200.9 79.9 200.5 80.22 199.64 80.26 199.53 80.3 199.41 80.38 199.18 80.54 198.7 80.86 197.69 80.9 197.57 80.93 197.45 81.01 197.2 81.16 196.69 81.46 195.64 82.06 193.4 83.25 188.61 83.29 188.45 83.33 188.28 83.41 187.95 83.58 187.29 83.9 185.97 84.55 183.38 84.59 183.22 84.63 183.06 84.71 182.75 84.87 182.13 85.2 180.92 85.85 178.67 85.88 178.54 85.92 178.42 86 178.17 86.15 177.7 86.45 176.79 86.49 176.68 86.53 176.58 86.6 176.37 86.75 175.96 87.06 175.19 87.1 175.1 87.13 175.01 87.21 174.84 87.36 174.51 87.4 174.43 87.44 174.35 87.51 174.2 87.66 173.91 87.7 173.84 87.74 173.77 87.81 173.64 87.97 173.39 88 173.33 88.04 173.28 88.12 173.17 88.27 172.97 88.31 172.92 88.34 172.87 88.42 172.79 88.45 172.75 88.49 172.71 88.57 172.64 88.6 172.6 88.64 172.57 88.71 172.51 88.75 172.48 88.79 172.45 88.86 172.4 88.9 172.37 88.94 172.35 88.97 172.33 89.01 172.31 89.05 172.29 89.09 172.28 89.12 172.26 89.16 172.25 89.2 172.24 89.23 172.23 89.27 172.22 89.31 172.21 89.34 172.2 89.38 172.2 89.42 172.2 89.46 172.19 89.49 172.19 89.53 172.2 89.57 172.2 89.6 172.2 89.64 172.21 89.68 172.21 89.72 172.22 89.75 172.23 89.79 172.24 89.83 172.26 89.86 172.27 89.9 172.29 89.94 172.3 89.97 172.32 90.05 172.36 90.09 172.39 90.12 172.41 90.2 172.46 90.24 172.49 90.27 172.52 90.35 172.58 90.38 172.62 90.42 172.65 90.49 172.73 90.64 172.9 90.68 172.95 90.72 173 90.8 173.1 90.97 173.34 91.01 173.4 91.05 173.46 91.13 173.59 91.29 173.88 91.33 173.95 91.37 174.03 91.45 174.18 91.61 174.51 91.93 175.25 91.97 175.34 92.01 175.44 92.09 175.64 92.25 176.06 92.58 176.97 93.22 178.99 93.26 179.12 93.3 179.25 93.37 179.5 93.52 180.03 93.82 181.11 94.42 183.39 95.62 188.24 95.66 188.41 95.7 188.57 95.79 188.9 95.95 189.57 96.27 190.89 96.93 193.46 96.97 193.62 97.01 193.77 97.09 194.08 97.25 194.69 97.58 195.88 98.23 198.08 98.27 198.21 98.31 198.33 98.39 198.58 98.55 199.06 98.87 199.97 98.91 200.08 98.95 200.19 99.03 200.39 99.19 200.8 99.51 201.54 99.55 201.62 99.59 201.71 99.67 201.88 99.83 202.19 99.87 202.26 99.91 202.34 99.99 202.48 100.15 202.74 100.19 202.8 100.23 202.87 100.31 202.98 100.35 203.04 100.39 203.09 100.47 203.2 100.51 203.25 100.55 203.3 100.63 203.39 100.79 203.55 100.82 203.58 100.86 203.62 100.94 203.68 100.97 203.71 101.01 203.73 101.09 203.78 101.12 203.81 101.16 203.83 101.2 203.85 101.23 203.87 101.27 203.88 101.31 203.9 101.35 203.91 101.38 203.93 101.42 203.94 101.46 203.95 101.5 203.96 101.53 203.96 101.57 203.97 101.61 203.97 101.64 203.97 101.68 203.97 101.72 203.97 101.76 203.97 101.79 203.97 101.83 203.96 101.87 203.96 101.91 203.95 101.94 203.94 101.98 203.93 102.02 203.92 102.05 203.9 102.09 203.89 102.13 203.87 102.17 203.85 102.2 203.84 102.28 203.79 102.32 203.77 102.35 203.74 102.43 203.69 102.46 203.66 102.5 203.63 102.58 203.56 102.61 203.53 102.65 203.49 102.72 203.41 102.76 203.37 102.8 203.33 102.87 203.24 102.91 203.19 102.95 203.14 103.02 203.04 103.17 202.83 103.21 202.76 103.25 202.7 103.33 202.57 103.5 202.28 103.54 202.21 103.58 202.13 103.66 201.97 103.82 201.64 103.86 201.55 103.9 201.47 103.98 201.28 104.14 200.9 104.47 200.08 104.51 199.97 104.55 199.86 104.63 199.64 104.79 199.17 105.11 198.19 105.76 196.01 105.8 195.88 105.84 195.74 105.91 195.47 106.06 194.92 106.36 193.79 106.97 191.42 108.17 186.51 108.21 186.36 108.25 186.21 108.32 185.91 108.47 185.31 108.77 184.13 109.36 181.84 109.4 181.7 109.43 181.56 109.51 181.28 109.66 180.74 109.95 179.69 110.54 177.74 110.58 177.62 110.62 177.49 110.7 177.25 110.86 176.78 111.18 175.9 111.22 175.79 111.27 175.69 111.35 175.49 111.51 175.1 111.83 174.38 111.87 174.3 111.91 174.22 111.99 174.06 112.15 173.77 112.19 173.7 112.23 173.63 112.31 173.49 112.47 173.25 112.51 173.19 112.55 173.13 112.63 173.02 112.67 172.97 112.71 172.92 112.79 172.83 112.83 172.78 112.87 172.74 112.95 172.66 112.99 172.62 113.03 172.58 113.11 172.51 113.15 172.48 113.19 172.45 113.22 172.43 113.26 172.4 113.3 172.38 113.34 172.36 113.41 172.31 113.45 172.3 113.49 172.28 113.52 172.26 113.56 172.25 113.6 172.24 113.64 172.23 113.67 172.22 113.71 172.21 113.75 172.2 113.79 172.2 113.82 172.2 113.86 172.19 113.9 172.19 113.94 172.2 113.97 172.2 114.01 172.2 114.05 172.21 114.09 172.21 114.12 172.22 114.16 172.23 114.2 172.24 114.24 172.26 114.27 172.27 114.31 172.29 114.35 172.3 114.39 172.32 114.42 172.34 114.46 172.36 114.5 172.39 114.54 172.41 114.61 172.47 114.65 172.49 114.68 172.52 114.76 172.59 114.91 172.74 114.95 172.78 114.98 172.82 115.06 172.91 115.21 173.1 115.25 173.15 115.28 173.21 115.36 173.32 115.51 173.55 115.55 173.62 115.59 173.69 115.67 173.83 115.83 174.14 115.87 174.22 115.92 174.3 116 174.47 116.16 174.83 116.2 174.92 116.24 175.01 116.32 175.2 116.48 175.6 116.81 176.47 116.85 176.58 116.89 176.7 116.97 176.93 117.13 177.41 117.46 178.43 118.11 180.67 118.15 180.81 118.18 180.95 118.26 181.23 118.41 181.79 118.71 182.95 118.75 183.09 118.79 183.24 118.87 183.54 119.02 184.14 119.32 185.35 119.36 185.5 119.4 185.65 119.47 185.96 119.62 186.58 119.66 186.73 119.7 186.89 119.78 187.2 119.81 187.35 119.85 187.51 119.93 187.82 119.97 187.97 120 188.08 120.04 188.08 120.08 188.08 120.12 188.08 120.16 188.08 120.23 188.08 120.27 188.08 120.31 188.08 120.38 188.08 120.53 188.08 120.57 188.08 120.61 188.08 120.68 188.08 120.83 188.08 121.13 188.08 121.72 188.08 122.91 188.08 125.49 188.08 127.9 188.08 130.51 188.08 133.07 188.08 135.46 188.08 138.06 188.08 140.47 188.08 142.85 188.08 145.42 188.08 147.82 188.08 147.86 188.08 147.91 188.08 147.99 188.08 148.16 188.08 148.49 188.08 149.16 188.08 149.2 188.08 149.25 188.08 149.33 188.08 149.5 188.08 149.83 188.08 149.88 188.08 149.92 188.08 150 188.08 150.17 188.08 150.21 188.08 150.25 188.08 150.34 188.08 150.38 188.08 150.42 188.08 150.46 188.08 150.5 188.08"/>
</svg>