<?xml version="1.0" encoding="UTF-8"?>
<svg id="Layer_1" data-name="Layer 1" xmlns="http://www.w3.org/2000/svg" viewBox="0 0 259.06 170">
  <defs>
    <style>
      .cls-1 {
        stroke-width: .14px;
      }

      .cls-1, .cls-2, .cls-3, .cls-4, .cls-5 {
        fill: none;
        stroke-miterlimit: 3.25;
      }

      .cls-1, .cls-5 {
        stroke: #000;
      }

      .cls-2 {
        stroke-dasharray: 0 0 5.97 5.97;
      }

      .cls-2, .cls-3, .cls-4 {
        stroke-linecap: square;
        stroke-width: 1.44px;
      }

      .cls-2, .cls-4 {
        stroke: #9a3d71;
      }

      .cls-3 {
        stroke: #3f3f98;
      }
    </style>
  </defs>
  <line class="cls-1" x1="5.18" y1="85" x2="5.18" y2="82.11"/>
  <path class="cls-1" d="m17.62,85v-1.73m12.43,1.73v-1.73m12.43,1.73v-1.73m12.44,1.73v-1.73m12.43,1.73v-2.89"/>
  <path class="cls-1" d="m79.79,85v-1.73m12.44,1.73v-1.73m12.44,1.73v-1.73m12.43,1.73v-1.73m12.44,1.73v-2.89m12.44,2.89v-1.73m12.43,1.73v-1.73m12.44,1.73v-1.73m12.43,1.73v-1.73m12.43,1.73v-2.89"/>
  <path class="cls-1" d="m204.14,85v-1.73m12.43,1.73v-1.73m12.44,1.73v-1.73m12.43,1.73v-1.73m12.44,1.73v-2.89"/>
  <line class="cls-5" y1="85" x2="259.06" y2="85"/>
  <line class="cls-1" x1="129.53" y1="165.08" x2="131.26" y2="165.08"/>
  <line class="cls-1" x1="129.53" y1="160.07" x2="132.42" y2="160.07"/>
  <path class="cls-1" d="m129.53,155.07h1.73m-1.73-5h1.73m-1.73-5h1.73m-1.73-5h1.73m-1.73-5h2.89"/>
  <path class="cls-1" d="m129.53,130.04h1.73m-1.73-5h1.73m-1.73-5h1.73m-1.73-5h1.73m-1.73-5h2.89"/>
  <path class="cls-1" d="m129.53,105.02h1.73m-1.73-5h1.73m-1.73-5h1.73m-1.73-5h1.73m-1.73-5h2.89m-2.89-5h1.73m-1.73-5.01h1.73m-1.73-5h1.73m-1.73-5h1.73m-1.73-5h2.89"/>
  <path class="cls-1" d="m129.53,54.97h1.73m-1.73-5h1.73m-1.73-5h1.73m-1.73-5h1.73m-1.73-5h2.89"/>
  <path class="cls-1" d="m129.53,29.95h1.73m-1.73-5h1.73m-1.73-5h1.73m-1.73-5h1.73m-1.73-5h2.89"/>
  <line class="cls-1" x1="129.53" y1="4.92" x2="131.26" y2="4.92"/>
  <line class="cls-5" x1="129.53" y1="170" x2="129.53"/>
  <polyline class="cls-3" points="5.18 85.12 5.26 85.12 5.33 85.12 5.41 85.12 5.49 85.12 5.56 85.11 5.64 85.11 5.72 85.1 5.79 85.1 5.87 85.09 5.94 85.09 6.1 85.08 6.4 85.05 6.48 85.05 6.55 85.04 6.63 85.04 6.71 85.03 6.78 85.03 6.86 85.02 6.93 85.02 7.01 85.01 7.09 85.01 7.16 85.01 7.24 85 7.32 85 7.39 85 7.47 85 7.55 85 7.62 85 7.7 85 7.77 85 7.85 85.01 7.93 85.01 8 85.02 8.08 85.02 8.16 85.03 8.23 85.03 8.31 85.04 8.39 85.04 8.54 85.06 8.84 85.09 8.92 85.1 9 85.11 9.15 85.12 9.22 85.13 9.3 85.14 9.38 85.14 9.45 85.15 9.53 85.16 9.6 85.16 9.68 85.16 9.76 85.17 9.83 85.17 9.91 85.17 9.99 85.17 10.06 85.17 10.14 85.17 10.23 85.16 10.31 85.16 10.39 85.15 10.48 85.14 10.56 85.13 10.64 85.12 10.72 85.11 10.81 85.09 10.89 85.08 10.97 85.06 11.06 85.04 11.14 85.02 11.22 85 11.39 84.95 11.47 84.92 11.55 84.9 11.72 84.84 12.05 84.73 12.13 84.71 12.21 84.68 12.38 84.63 12.46 84.6 12.54 84.58 12.63 84.56 12.71 84.54 12.79 84.52 12.87 84.5 12.96 84.49 13.04 84.47 13.12 84.46 13.21 84.46 13.29 84.45 13.37 84.45 13.45 84.45 13.54 84.46 13.62 84.46 13.7 84.47 13.78 84.49 13.87 84.5 13.95 84.52 14.03 84.55 14.11 84.57 14.2 84.6 14.28 84.63 14.36 84.67 14.45 84.71 14.53 84.75 14.69 84.84 14.78 84.89 14.86 84.93 15.02 85.04 15.35 85.26 15.43 85.31 15.51 85.37 15.66 85.47 15.74 85.52 15.82 85.57 15.97 85.66 16.05 85.71 16.13 85.75 16.2 85.79 16.28 85.82 16.36 85.86 16.44 85.89 16.51 85.92 16.59 85.94 16.67 85.96 16.75 85.98 16.82 85.99 16.9 86 16.98 86 17.05 86 17.13 86 17.21 85.99 17.29 85.97 17.36 85.95 17.44 85.93 17.52 85.9 17.59 85.87 17.67 85.84 17.75 85.8 17.83 85.75 17.9 85.7 17.98 85.65 18.13 85.54 18.21 85.47 18.29 85.41 18.44 85.27 18.52 85.2 18.6 85.12 18.75 84.97 19.06 84.65 19.14 84.57 19.22 84.5 19.37 84.34 19.45 84.27 19.52 84.2 19.68 84.07 19.76 84.01 19.83 83.95 19.91 83.89 19.99 83.84 20.07 83.8 20.14 83.76 20.22 83.72 20.3 83.69 20.37 83.67 20.45 83.65 20.52 83.64 20.6 83.63 20.68 83.62 20.75 83.63 20.83 83.64 20.9 83.65 20.98 83.67 21.05 83.7 21.13 83.73 21.21 83.76 21.28 83.81 21.36 83.85 21.43 83.91 21.51 83.96 21.58 84.03 21.66 84.09 21.81 84.24 21.89 84.31 21.96 84.39 22.11 84.56 22.19 84.65 22.26 84.74 22.42 84.93 22.72 85.3 22.79 85.39 22.87 85.48 23.02 85.65 23.1 85.74 23.17 85.82 23.32 85.97 23.4 86.04 23.48 86.1 23.55 86.17 23.63 86.22 23.7 86.27 23.78 86.32 23.85 86.36 23.93 86.39 24.01 86.42 24.08 86.44 24.16 86.46 24.23 86.47 24.31 86.48 24.38 86.47 24.46 86.47 24.54 86.45 24.61 86.43 24.69 86.41 24.76 86.38 24.84 86.34 24.91 86.3 24.99 86.25 25.07 86.2 25.14 86.14 25.22 86.07 25.31 86 25.47 85.85 25.8 85.5 25.88 85.4 25.96 85.31 26.13 85.12 26.45 84.75 26.54 84.67 26.62 84.58 26.7 84.5 26.78 84.42 26.87 84.35 26.95 84.28 27.03 84.22 27.11 84.16 27.19 84.11 27.28 84.06 27.36 84.02 27.44 83.98 27.52 83.95 27.6 83.93 27.69 83.91 27.77 83.9 27.85 83.89 27.93 83.89 28.02 83.9 28.1 83.91 28.18 83.92 28.26 83.95 28.34 83.97 28.43 84.01 28.51 84.04 28.59 84.08 28.67 84.13 28.75 84.17 28.84 84.22 28.92 84.28 29.08 84.39 29.16 84.45 29.25 84.5 29.41 84.62 29.49 84.68 29.58 84.74 29.74 84.85 29.82 84.9 29.9 84.95 29.99 85 30.07 85.04 30.15 85.08 30.23 85.12 30.31 85.15 30.4 85.18 30.47 85.21 30.55 85.23 30.63 85.24 30.7 85.26 30.78 85.26 30.86 85.27 30.93 85.27 31.01 85.27 31.09 85.26 31.16 85.26 31.24 85.24 31.32 85.23 31.39 85.21 31.47 85.19 31.55 85.17 31.62 85.15 31.7 85.12 31.78 85.1 31.93 85.04 32.01 85.01 32.08 84.98 32.24 84.93 32.31 84.9 32.39 84.88 32.47 84.86 32.54 84.84 32.62 84.82 32.7 84.81 32.77 84.79 32.85 84.79 32.93 84.78 33 84.78 33.08 84.78 33.16 84.79 33.23 84.8 33.31 84.82 33.38 84.84 33.46 84.87 33.54 84.9 33.61 84.93 33.69 84.97 33.77 85.01 33.84 85.06 33.92 85.11 34.07 85.23 34.15 85.3 34.23 85.36 34.38 85.5 34.69 85.81 34.76 85.89 34.84 85.96 34.99 86.12 35.07 86.19 35.15 86.26 35.3 86.39 35.38 86.46 35.47 86.52 35.55 86.57 35.63 86.61 35.72 86.65 35.8 86.68 35.88 86.7 35.97 86.72 36.05 86.72 36.13 86.71 36.21 86.69 36.3 86.66 36.38 86.62 36.46 86.57 36.55 86.51 36.63 86.43 36.71 86.34 36.8 86.25 36.88 86.14 36.96 86.02 37.04 85.89 37.13 85.74 37.29 85.43 37.38 85.27 37.46 85.09 37.63 84.72 37.96 83.92 38.04 83.71 38.12 83.51 38.29 83.1 38.37 82.91 38.46 82.72 38.62 82.35 38.71 82.18 38.79 82.02 38.87 81.87 38.95 81.74 39.04 81.61 39.12 81.51 39.2 81.41 39.29 81.33 39.37 81.27 39.45 81.23 39.54 81.21 39.62 81.2 39.7 81.22 39.79 81.26 39.87 81.31 39.95 81.39 40.03 81.48 40.12 81.6 40.2 81.74 40.28 81.9 40.37 82.07 40.45 82.27 40.53 82.49 40.62 82.72 40.7 82.96 40.78 83.22 40.94 83.79 41.27 85.04 41.35 85.38 41.43 85.72 41.59 86.4 41.92 87.75 42 88.07 42.08 88.38 42.25 88.97 42.33 89.25 42.41 89.51 42.49 89.75 42.57 89.97 42.65 90.17 42.74 90.35 42.82 90.51 42.9 90.64 42.98 90.75 43.06 90.83 43.14 90.89 43.22 90.91 43.31 90.91 43.39 90.88 43.47 90.82 43.55 90.73 43.63 90.61 43.71 90.47 43.8 90.3 43.88 90.09 43.96 89.86 44.04 89.61 44.12 89.33 44.2 89.02 44.28 88.7 44.37 88.35 44.53 87.59 44.61 87.18 44.69 86.76 44.85 85.89 45.18 84.04 45.26 83.57 45.34 83.11 45.51 82.19 45.59 81.75 45.67 81.32 45.83 80.49 45.91 80.13 45.99 79.79 46.06 79.47 46.14 79.16 46.21 78.88 46.29 78.63 46.37 78.39 46.44 78.19 46.52 78.01 46.59 77.85 46.67 77.73 46.75 77.63 46.82 77.57 46.9 77.54 46.97 77.53 47.05 77.56 47.13 77.62 47.2 77.71 47.28 77.83 47.35 77.98 47.43 78.16 47.51 78.37 47.58 78.6 47.66 78.87 47.74 79.16 47.81 79.48 47.96 80.18 48.04 80.57 48.12 80.97 48.27 81.83 48.34 82.29 48.42 82.75 48.57 83.71 48.87 85.7 48.95 86.19 49.03 86.68 49.18 87.65 49.26 88.11 49.33 88.57 49.48 89.43 49.56 89.84 49.64 90.22 49.71 90.59 49.79 90.93 49.86 91.24 49.94 91.53 50.02 91.8 50.09 92.03 50.17 92.24 50.24 92.41 50.32 92.56 50.4 92.67 50.47 92.75 50.55 92.8 50.63 92.81 50.7 92.8 50.78 92.74 50.87 92.65 50.95 92.52 51.03 92.36 51.11 92.16 51.2 91.93 51.28 91.66 51.36 91.36 51.44 91.03 51.53 90.68 51.69 89.89 51.77 89.47 51.85 89.02 52.02 88.08 52.1 87.59 52.18 87.09 52.35 86.08 52.68 84.06 52.76 83.57 52.85 83.1 53.01 82.19 53.09 81.76 53.18 81.35 53.34 80.61 53.42 80.27 53.51 79.97 53.59 79.69 53.67 79.44 53.75 79.22 53.83 79.04 53.92 78.88 54 78.76 54.08 78.67 54.16 78.62 54.25 78.6 54.33 78.61 54.41 78.65 54.49 78.72 54.58 78.83 54.66 78.96 54.74 79.12 54.82 79.31 54.91 79.52 54.99 79.76 55.07 80.01 55.15 80.29 55.32 80.9 55.4 81.23 55.48 81.57 55.65 82.27 55.98 83.72 56.06 84.05 56.13 84.38 56.29 85.02 56.36 85.33 56.44 85.62 56.6 86.17 56.67 86.43 56.75 86.67 56.83 86.89 56.9 87.09 56.98 87.28 57.06 87.45 57.13 87.6 57.21 87.73 57.29 87.83 57.36 87.93 57.44 88 57.52 88.05 57.6 88.08 57.67 88.09 57.75 88.09 57.83 88.06 57.9 88.02 57.98 87.97 58.06 87.9 58.13 87.81 58.21 87.72 58.29 87.61 58.37 87.49 58.44 87.36 58.52 87.22 58.6 87.08 58.75 86.78 58.83 86.63 58.9 86.48 59.06 86.18 59.14 86.03 59.21 85.89 59.29 85.76 59.37 85.63 59.44 85.51 59.52 85.41 59.6 85.31 59.67 85.22 59.75 85.15 59.83 85.09 59.91 85.05 59.98 85.01 60.06 85 60.14 85 60.21 85.01 60.29 85.04 60.37 85.08 60.44 85.14 60.52 85.21 60.6 85.29 60.68 85.39 60.75 85.5 60.83 85.62 60.91 85.76 60.98 85.9 61.06 86.04 61.21 86.36 61.51 87.01 61.59 87.18 61.66 87.34 61.74 87.49 61.81 87.64 61.89 87.78 61.96 87.91 62.04 88.02 62.11 88.13 62.19 88.22 62.26 88.29 62.34 88.35 62.41 88.39 62.49 88.4 62.57 88.4 62.64 88.38 62.72 88.33 62.79 88.26 62.87 88.16 62.94 88.04 63.02 87.9 63.1 87.73 63.17 87.53 63.25 87.31 63.32 87.06 63.4 86.79 63.47 86.5 63.62 85.84 63.7 85.48 63.77 85.1 63.93 84.29 64 83.86 64.08 83.42 64.23 82.49 64.53 80.58 64.6 80.1 64.68 79.63 64.83 78.7 64.91 78.26 64.98 77.83 65.13 77.03 65.21 76.66 65.28 76.32 65.36 76.01 65.43 75.72 65.51 75.47 65.59 75.26 65.66 75.08 65.74 74.94 65.82 74.84 65.9 74.79 65.98 74.79 66.06 74.84 66.15 74.94 66.23 75.11 66.31 75.33 66.39 75.6 66.47 75.93 66.56 76.32 66.64 76.77 66.72 77.27 66.8 77.82 66.88 78.43 67.05 79.79 67.13 80.54 67.21 81.33 67.37 83.03 67.7 86.78 67.78 87.76 67.87 88.76 68.03 90.75 68.36 94.64 68.44 95.55 68.52 96.43 68.6 97.28 68.68 98.08 68.77 98.83 68.85 99.53 68.93 100.17 69.01 100.76 69.09 101.27 69.18 101.71 69.26 102.08 69.34 102.37 69.42 102.59 69.5 102.72 69.59 102.76 69.67 102.72 69.75 102.59 69.83 102.37 69.91 102.07 70 101.67 70.08 101.18 70.16 100.61 70.24 99.95 70.32 99.21 70.4 98.38 70.49 97.48 70.65 95.45 70.73 94.33 70.81 93.15 70.98 90.61 71.05 89.36 71.13 88.08 71.28 85.42 71.59 79.91 71.66 78.53 71.74 77.15 71.89 74.45 71.97 73.14 72.05 71.87 72.2 69.44 72.28 68.3 72.35 67.22 72.43 66.2 72.51 65.25 72.58 64.37 72.66 63.56 72.74 62.84 72.81 62.2 72.89 61.65 72.96 61.19 73.04 60.83 73.12 60.56 73.19 60.4 73.27 60.34 73.35 60.37 73.42 60.52 73.5 60.76 73.58 61.11 73.65 61.56 73.73 62.12 73.8 62.78 73.88 63.53 73.96 64.39 74.03 65.33 74.11 66.37 74.19 67.49 74.34 69.99 74.42 71.34 74.49 72.77 74.64 75.81 74.72 77.41 74.8 79.05 74.95 82.45 75.26 89.46 75.33 91.22 75.41 92.96 75.56 96.38 75.64 98.04 75.72 99.66 75.87 102.73 75.95 104.29 76.03 105.77 76.12 107.16 76.2 108.45 76.28 109.63 76.36 110.71 76.45 111.66 76.53 112.48 76.61 113.18 76.7 113.75 76.78 114.17 76.86 114.46 76.94 114.61 77.03 114.61 77.11 114.47 77.19 114.18 77.28 113.75 77.36 113.18 77.44 112.47 77.52 111.62 77.61 110.64 77.69 109.52 77.77 108.29 77.85 106.93 77.94 105.46 78.02 103.89 78.19 100.46 78.27 98.61 78.35 96.7 78.52 92.68 78.6 90.61 78.68 88.5 78.85 84.21 79.18 75.71 79.26 73.66 79.35 71.66 79.51 67.85 79.6 66.06 79.68 64.36 79.84 61.26 79.93 59.88 80.01 58.61 80.09 57.48 80.17 56.47 80.26 55.61 80.34 54.88 80.42 54.3 80.51 53.87 80.59 53.6 80.67 53.47 80.75 53.5 80.84 53.68 80.92 54.01 81 54.49 81.09 55.12 81.17 55.9 81.25 56.79 81.33 57.82 81.41 58.98 81.49 60.26 81.58 61.65 81.66 63.15 81.82 66.44 81.9 68.21 81.98 70.07 82.14 73.96 82.47 82.25 82.55 84.36 82.63 86.48 82.8 90.65 82.88 92.7 82.96 94.7 83.12 98.54 83.2 100.36 83.28 102.11 83.36 103.76 83.45 105.32 83.53 106.78 83.61 108.13 83.69 109.37 83.77 110.49 83.85 111.48 83.93 112.35 84.01 113.08 84.1 113.68 84.18 114.14 84.26 114.46 84.34 114.64 84.42 114.68 84.5 114.58 84.58 114.34 84.66 113.97 84.75 113.46 84.83 112.83 84.91 112.06 84.99 111.18 85.07 110.17 85.15 109.06 85.23 107.84 85.4 105.11 85.48 103.62 85.56 102.05 85.72 98.72 85.8 96.97 85.88 95.18 86.05 91.51 86.37 84.07 86.45 82.37 86.52 80.69 86.68 77.44 86.75 75.88 86.83 74.37 86.98 71.54 87.06 70.22 87.13 68.98 87.21 67.82 87.28 66.74 87.36 65.75 87.43 64.85 87.51 64.04 87.59 63.33 87.66 62.72 87.74 62.2 87.81 61.79 87.89 61.47 87.97 61.26 88.04 61.15 88.12 61.14 88.19 61.22 88.27 61.41 88.34 61.69 88.42 62.06 88.5 62.53 88.57 63.08 88.65 63.71 88.72 64.42 88.8 65.21 88.87 66.07 88.95 67 89.1 69.02 89.18 70.11 89.25 71.25 89.41 73.63 89.48 74.87 89.56 76.12 89.71 78.67 90.01 83.77 90.09 85.01 90.16 86.22 90.32 88.56 90.39 89.67 90.47 90.73 90.62 92.72 90.7 93.63 90.77 94.49 90.85 95.28 90.92 96.01 91 96.68 91.07 97.28 91.15 97.81 91.23 98.27 91.31 98.69 91.39 99.02 91.47 99.28 91.56 99.45 91.64 99.54 91.72 99.55 91.8 99.49 91.88 99.35 91.97 99.14 92.05 98.86 92.13 98.52 92.21 98.11 92.3 97.65 92.38 97.14 92.46 96.58 92.54 95.98 92.62 95.34 92.71 94.67 92.87 93.26 93.2 90.29 93.28 89.55 93.36 88.82 93.53 87.41 93.61 86.74 93.69 86.1 93.86 84.91 93.94 84.37 94.02 83.87 94.1 83.42 94.19 83.01 94.27 82.64 94.35 82.33 94.43 82.06 94.52 81.84 94.6 81.67 94.68 81.55 94.76 81.47 94.84 81.44 94.93 81.45 95.01 81.51 95.09 81.6 95.17 81.74 95.26 81.9 95.34 82.1 95.42 82.32 95.5 82.57 95.59 82.84 95.67 83.12 95.83 83.71 95.91 84.02 96 84.32 96.08 84.62 96.16 84.91 96.24 85.18 96.33 85.44 96.41 85.68 96.49 85.89 96.57 86.06 96.64 86.2 96.72 86.32 96.8 86.4 96.87 86.44 96.95 86.46 97.03 86.43 97.1 86.37 97.18 86.26 97.26 86.12 97.33 85.94 97.41 85.72 97.49 85.45 97.56 85.15 97.64 84.82 97.72 84.44 97.79 84.03 97.87 83.59 98.03 82.61 98.1 82.08 98.18 81.54 98.33 80.38 98.41 79.78 98.49 79.18 98.64 77.96 98.95 75.61 99.02 75.07 99.1 74.56 99.18 74.07 99.25 73.62 99.33 73.21 99.41 72.84 99.48 72.52 99.56 72.26 99.64 72.04 99.71 71.89 99.79 71.8 99.87 71.77 99.94 71.81 100.02 71.91 100.1 72.09 100.17 72.34 100.25 72.66 100.33 73.06 100.41 73.53 100.48 74.07 100.56 74.69 100.64 75.38 100.71 76.14 100.79 76.98 100.87 77.87 100.94 78.84 101.1 80.94 101.17 82.08 101.25 83.27 101.4 85.77 101.49 87.19 101.57 88.64 101.74 91.61 102.07 97.62 102.15 99.08 102.23 100.51 102.4 103.24 102.48 104.52 102.57 105.72 102.65 106.86 102.73 107.9 102.82 108.85 102.9 109.71 102.98 110.45 103.07 111.08 103.15 111.59 103.23 111.98 103.32 112.23 103.4 112.35 103.48 112.33 103.57 112.16 103.65 111.86 103.73 111.41 103.82 110.81 103.9 110.07 103.98 109.18 104.06 108.15 104.15 106.98 104.23 105.67 104.31 104.23 104.4 102.66 104.48 100.98 104.56 99.17 104.73 95.25 104.81 93.15 104.9 90.97 105.06 86.41 105.39 76.79 105.48 74.35 105.56 71.93 105.73 67.16 105.81 64.85 105.89 62.6 106.06 58.34 106.14 56.36 106.23 54.49 106.31 52.74 106.39 51.12 106.48 49.66 106.56 48.34 106.64 47.19 106.73 46.22 106.81 45.43 106.89 44.83 106.97 44.41 107.05 44.18 107.14 44.14 107.22 44.3 107.3 44.66 107.38 45.22 107.46 45.97 107.54 46.92 107.62 48.07 107.71 49.41 107.79 50.93 107.87 52.64 107.95 54.53 108.03 56.58 108.12 58.8 108.2 61.16 108.36 66.32 108.44 69.08 108.52 71.95 108.69 77.97 108.77 81.08 108.85 84.25 109.01 90.69 109.34 103.55 109.42 106.66 109.5 109.71 109.67 115.52 109.75 118.26 109.83 120.87 109.99 125.64 110.08 127.77 110.16 129.72 110.24 131.48 110.32 133.04 110.4 134.37 110.48 135.49 110.57 136.38 110.65 137.03 110.73 137.44 110.81 137.61 110.89 137.53 110.97 137.19 111.06 136.61 111.14 135.78 111.22 134.7 111.3 133.37 111.38 131.81 111.46 130.01 111.55 127.98 111.63 125.73 111.71 123.27 111.79 120.61 111.95 114.73 112.03 111.76 112.1 108.66 112.26 102.1 112.56 87.99 112.64 84.33 112.72 80.66 112.87 73.3 113.17 59 113.25 55.6 113.33 52.29 113.48 46.05 113.55 43.13 113.63 40.37 113.78 35.36 113.86 33.14 113.93 31.11 114.01 29.3 114.09 27.7 114.16 26.33 114.24 25.19 114.32 24.29 114.39 23.64 114.47 23.23 114.54 23.08 114.62 23.17 114.7 23.53 114.77 24.13 114.85 24.99 114.92 26.1 115 27.46 115.08 29.06 115.15 30.89 115.23 32.96 115.31 35.25 115.38 37.76 115.46 40.47 115.61 46.46 115.69 49.72 115.76 53.14 115.91 60.41 116.22 76.21 116.3 80.34 116.37 84.5 116.52 92.86 116.83 109.27 116.91 113.53 116.99 117.68 117.16 125.52 117.24 129.18 117.33 132.65 117.49 138.92 117.57 141.69 117.66 144.19 117.74 146.43 117.82 148.37 117.9 150.02 117.99 151.36 118.07 152.39 118.15 153.1 118.23 153.48 118.32 153.54 118.4 153.26 118.48 152.66 118.56 151.73 118.65 150.48 118.73 148.91 118.81 147.02 118.89 144.84 118.98 142.36 119.06 139.59 119.14 136.56 119.23 133.27 119.31 129.73 119.47 122.01 119.56 117.86 119.64 113.54 119.8 104.46 120.13 85.24 120.22 80.34 120.3 75.45 120.46 65.8 120.79 47.64 120.88 43.47 120.96 39.49 121.04 35.72 121.12 32.18 121.21 28.88 121.29 25.85 121.37 23.09 121.46 20.62 121.54 18.46 121.62 16.61 121.7 15.09 121.79 13.9 121.87 13.04 121.95 12.54 122.03 12.37 122.12 12.56 122.19 13.04 122.27 13.83 122.35 14.91 122.42 16.29 122.5 17.96 122.58 19.92 122.66 22.14 122.73 24.63 122.81 27.38 122.89 30.37 123.04 37.04 123.12 40.69 123.2 44.52 123.35 52.7 123.43 57.01 123.5 61.44 123.66 70.59 123.97 89.53 124.04 94.27 124.12 98.99 124.28 108.24 124.58 125.48 124.66 129.42 124.74 133.18 124.82 136.74 124.89 140.08 124.97 143.21 125.05 146.09 125.12 148.72 125.2 151.08 125.28 153.17 125.35 154.98 125.43 156.5 125.51 157.72 125.59 158.64 125.66 159.25 125.74 159.55 125.82 159.54 125.89 159.22 125.97 158.59 126.05 157.66 126.13 156.42 126.2 154.88 126.28 153.05 126.36 150.94 126.43 148.55 126.51 145.89 126.59 142.98 126.74 136.44 126.82 132.84 126.9 129.04 127.05 120.9 127.13 116.68 127.2 112.34 127.35 103.33 127.66 84.56 127.73 79.83 127.81 75.11 127.96 65.81 128.26 48.26 128.34 44.2 128.41 40.3 128.49 36.57 128.56 33.04 128.64 29.72 128.72 26.62 128.79 23.76 128.87 21.13 128.94 18.77 129.02 16.67 129.09 14.84 129.17 13.29 129.25 12.03 129.32 11.06 129.4 10.39 129.47 10.01 129.55 9.94 129.62 10.17 129.7 10.69 129.77 11.51 129.85 12.63 129.93 14.04 130 15.73 130.08 17.7 130.15 19.93 130.23 22.43 130.3 25.18 130.38 28.16 130.45 31.38 130.53 34.81 130.68 42.25 130.76 46.23 130.83 50.37 130.98 59.05 131.29 77.49 131.36 82.22 131.44 86.96 131.59 96.4 131.89 114.55 131.97 119.19 132.06 123.67 132.14 127.97 132.22 132.06 132.3 135.93 132.38 139.55 132.47 142.92 132.55 146.01 132.63 148.82 132.71 151.32 132.79 153.51 132.88 155.37 132.96 156.9 133.04 158.09 133.12 158.94 133.2 159.44 133.29 159.58 133.37 159.38 133.45 158.82 133.53 157.92 133.61 156.67 133.7 155.09 133.78 153.18 133.86 150.94 133.94 148.4 134.02 145.56 134.11 142.44 134.19 139.05 134.27 135.41 134.35 131.54 134.52 123.16 134.6 118.69 134.68 114.08 134.84 104.47 135.17 84.39 135.25 79.34 135.34 74.32 135.5 64.46 135.58 59.68 135.66 55.02 135.83 46.16 135.91 42.01 135.99 38.06 136.07 34.35 136.16 30.87 136.24 27.66 136.32 24.72 136.4 22.07 136.48 19.72 136.57 17.68 136.65 15.96 136.73 14.58 136.81 13.52 136.89 12.81 136.98 12.43 137.06 12.4 137.14 12.71 137.22 13.31 137.29 14.2 137.37 15.38 137.45 16.85 137.52 18.59 137.6 20.6 137.68 22.87 137.75 25.39 137.83 28.16 137.91 31.15 138.06 37.77 138.14 41.36 138.21 45.13 138.37 53.12 138.44 57.3 138.52 61.59 138.67 70.42 138.98 88.51 139.05 93.02 139.13 97.49 139.28 106.21 139.59 122.35 139.67 126.01 139.74 129.5 139.82 132.8 139.9 135.89 139.97 138.76 140.05 141.4 140.13 143.8 140.2 145.96 140.28 147.86 140.36 149.49 140.43 150.86 140.51 151.95 140.59 152.76 140.66 153.29 140.74 153.53 140.81 153.5 140.89 153.18 140.97 152.59 141.05 151.71 141.12 150.57 141.2 149.16 141.27 147.49 141.35 145.57 141.43 143.41 141.5 141.02 141.58 138.4 141.73 132.55 141.81 129.34 141.89 125.96 142.04 118.75 142.12 114.62 142.21 110.37 142.37 101.57 142.7 83.43 142.79 78.91 142.87 74.43 143.04 65.73 143.12 61.53 143.2 57.47 143.37 49.83 143.45 46.28 143.53 42.93 143.62 39.81 143.7 36.92 143.78 34.28 143.87 31.9 143.95 29.78 144.03 27.94 144.11 26.39 144.2 25.14 144.28 24.17 144.36 23.51 144.45 23.15 144.53 23.09 144.61 23.33 144.69 23.86 144.78 24.69 144.86 25.81 144.94 27.2 145.03 28.87 145.11 30.8 145.19 32.98 145.27 35.39 145.36 38.03 145.44 40.89 145.52 43.94 145.69 50.55 146.02 65.37 146.1 69.29 146.19 73.26 146.35 81.28 146.44 85.28 146.52 89.25 146.69 97.02 146.77 100.79 146.85 104.45 147.02 111.39 147.1 114.64 147.18 117.72 147.35 123.32 147.43 125.77 147.51 128 147.59 130.03 147.68 131.82 147.76 133.38 147.84 134.7 147.92 135.78 148 136.61 148.08 137.19 148.16 137.52 148.25 137.61 148.33 137.45 148.41 137.04 148.49 136.4 148.57 135.52 148.65 134.41 148.73 133.08 148.81 131.53 148.9 129.79 148.98 127.85 149.06 125.72 149.14 123.43 149.3 118.39 149.39 115.66 149.47 112.82 149.63 106.84 149.96 94.16 150.04 90.92 150.12 87.7 150.28 81.33 150.36 78.22 150.44 75.17 150.61 69.33 150.69 66.57 150.77 63.92 150.85 61.4 150.93 59.03 151.02 56.8 151.1 54.74 151.18 52.84 151.26 51.11 151.34 49.57 151.42 48.21 151.5 47.05 151.59 46.08 151.67 45.3 151.75 44.72 151.83 44.34 151.91 44.15 151.99 44.16 152.07 44.37 152.15 44.76 152.24 45.34 152.32 46.09 152.4 47.02 152.48 48.12 152.56 49.37 152.64 50.68 152.71 52.11 152.87 55.31 152.94 57.06 153.02 58.9 153.17 62.82 153.25 64.88 153.32 66.99 153.47 71.33 153.78 80.21 153.85 82.42 153.93 84.6 154.08 88.86 154.16 90.91 154.23 92.91 154.39 96.69 154.46 98.47 154.54 100.16 154.61 101.75 154.69 103.25 154.77 104.64 154.84 105.93 154.92 107.11 154.99 108.17 155.07 109.11 155.14 109.94 155.22 110.64 155.3 111.23 155.37 111.69 155.45 112.03 155.52 112.25 155.6 112.35 155.68 112.33 155.75 112.2 155.83 111.96 155.9 111.6 155.98 111.14 156.06 110.58 156.13 109.93 156.21 109.18 156.29 108.35 156.36 107.43 156.51 105.39 156.59 104.27 156.66 103.1 156.82 100.6 156.89 99.3 156.97 97.97 157.12 95.25 157.42 89.76 157.51 88.3 157.59 86.87 157.75 84.12 157.84 82.81 157.92 81.56 158.08 79.24 158.17 78.18 158.25 77.2 158.33 76.29 158.41 75.46 158.5 74.72 158.58 74.05 158.66 73.47 158.74 72.98 158.82 72.57 158.91 72.25 158.99 72.01 159.07 71.85 159.15 71.78 159.24 71.78 159.32 71.85 159.4 72 159.48 72.22 159.57 72.5 159.65 72.84 159.73 73.23 159.81 73.68 159.9 74.17 160.06 75.26 160.14 75.85 160.23 76.47 160.39 77.75 160.47 78.4 160.56 79.05 160.72 80.34 160.8 80.97 160.88 81.58 160.97 82.17 161.05 82.73 161.13 83.26 161.21 83.76 161.3 84.22 161.38 84.64 161.46 85.02 161.54 85.36 161.63 85.65 161.71 85.9 161.79 86.1 161.87 86.26 161.96 86.37 162.04 86.44 162.12 86.46 162.2 86.44 162.29 86.37 162.37 86.27 162.45 86.14 162.53 85.97 162.61 85.77 162.7 85.54 162.77 85.31 162.85 85.06 163 84.53 163.08 84.25 163.16 83.96 163.31 83.39 163.39 83.12 163.47 82.86 163.54 82.6 163.62 82.37 163.7 82.16 163.77 81.96 163.85 81.8 163.93 81.66 164 81.55 164.08 81.48 164.16 81.45 164.23 81.45 164.31 81.48 164.39 81.56 164.47 81.68 164.54 81.85 164.62 82.05 164.7 82.3 164.77 82.59 164.85 82.92 164.93 83.29 165 83.7 165.08 84.15 165.16 84.63 165.23 85.15 165.31 85.71 165.47 86.9 165.77 89.54 165.85 90.23 165.93 90.93 166.08 92.32 166.39 94.99 166.47 95.6 166.54 96.19 166.62 96.74 166.7 97.25 166.77 97.72 166.85 98.15 166.93 98.52 167 98.84 167.08 99.11 167.16 99.32 167.23 99.46 167.31 99.54 167.39 99.56 167.47 99.5 167.54 99.38 167.62 99.18 167.69 98.92 167.77 98.59 167.85 98.19 167.92 97.72 168 97.18 168.07 96.57 168.15 95.9 168.22 95.16 168.3 94.36 168.37 93.5 168.52 91.62 168.6 90.6 168.67 89.53 168.82 87.28 168.9 86.09 168.98 84.88 169.13 82.4 169.43 77.31 169.5 76.05 169.58 74.8 169.73 72.37 169.81 71.21 169.88 70.08 170.03 67.96 170.11 66.98 170.18 66.06 170.26 65.21 170.33 64.43 170.41 63.72 170.48 63.09 170.56 62.54 170.63 62.08 170.71 61.7 170.79 61.42 170.86 61.23 170.94 61.14 171.01 61.15 171.09 61.25 171.16 61.46 171.24 61.76 171.31 62.16 171.39 62.67 171.46 63.27 171.54 63.97 171.61 64.76 171.69 65.65 171.77 66.63 171.84 67.69 171.92 68.83 171.99 70.06 172.14 72.72 172.22 74.15 172.29 75.64 172.44 78.77 172.52 80.54 172.61 82.35 172.77 86.05 173.1 93.53 173.18 95.36 173.26 97.16 173.43 100.61 173.51 102.25 173.59 103.82 173.75 106.72 173.83 108.03 173.92 109.24 174 110.34 174.08 111.33 174.16 112.2 174.24 112.95 174.32 113.57 174.41 114.05 174.49 114.4 174.57 114.61 174.65 114.68 174.73 114.61 174.82 114.4 174.9 114.04 174.98 113.55 175.06 112.92 175.14 112.15 175.23 111.24 175.31 110.21 175.39 109.06 175.47 107.78 175.55 106.39 175.72 103.29 175.8 101.6 175.88 99.82 176.04 96.05 176.37 87.87 176.45 85.75 176.53 83.62 176.7 79.38 176.78 77.29 176.86 75.22 177.02 71.24 177.11 69.33 177.19 67.5 177.27 65.74 177.35 64.08 177.43 62.51 177.52 61.05 177.6 59.69 177.68 58.46 177.76 57.42 177.83 56.5 177.91 55.69 177.98 55 178.06 54.44 178.14 54 178.21 53.69 178.29 53.51 178.37 53.46 178.44 53.54 178.52 53.75 178.6 54.09 178.67 54.55 178.75 55.14 178.82 55.86 178.9 56.69 178.98 57.64 179.05 58.7 179.13 59.86 179.21 61.13 179.28 62.5 179.36 63.96 179.51 67.12 179.59 68.81 179.66 70.57 179.82 74.24 180.12 82 180.2 83.98 180.27 85.96 180.43 89.88 180.5 91.81 180.58 93.71 180.73 97.36 180.81 99.11 180.89 100.79 180.96 102.4 181.04 103.94 181.11 105.39 181.19 106.75 181.27 108.02 181.34 109.18 181.42 110.25 181.5 111.2 181.57 112.04 181.65 112.77 181.72 113.38 181.8 113.87 181.88 114.24 181.95 114.49 182.03 114.61 182.11 114.61 182.18 114.49 182.26 114.25 182.34 113.89 182.41 113.42 182.49 112.82 182.56 112.12 182.65 111.24 182.73 110.23 182.81 109.11 182.89 107.88 182.98 106.54 183.06 105.12 183.23 102 183.31 100.33 183.39 98.6 183.56 94.99 183.89 87.43 183.97 85.52 184.05 83.63 184.22 79.92 184.3 78.12 184.38 76.37 184.55 73.04 184.63 71.49 184.72 70.01 184.8 68.62 184.88 67.32 184.96 66.12 185.05 65.03 185.13 64.04 185.21 63.16 185.29 62.4 185.38 61.75 185.46 61.23 185.54 60.82 185.63 60.54 185.71 60.38 185.79 60.34 185.87 60.42 185.96 60.62 186.04 60.93 186.12 61.36 186.21 61.9 186.29 62.54 186.37 63.29 186.45 64.13 186.54 65.07 186.62 66.09 186.7 67.19 186.87 69.6 186.95 70.9 187.03 72.25 187.2 75.07 187.86 86.93 187.94 88.26 188.01 89.55 188.17 92.03 188.25 93.19 188.32 94.31 188.48 96.37 188.56 97.3 188.63 98.17 188.71 98.97 188.79 99.7 188.86 100.35 188.94 100.93 189.02 101.42 189.1 101.85 189.17 102.19 189.25 102.45 189.33 102.63 189.4 102.74 189.48 102.76 189.56 102.71 189.64 102.58 189.71 102.38 189.79 102.11 189.87 101.77 189.94 101.37 190.02 100.9 190.1 100.37 190.18 99.78 190.33 98.45 190.41 97.72 190.49 96.95 190.64 95.29 190.95 91.69 191.03 90.75 191.1 89.81 191.26 87.93 191.57 84.29 191.64 83.43 191.72 82.6 191.88 81.02 191.95 80.29 192.03 79.6 192.19 78.33 192.26 77.76 192.34 77.25 192.42 76.77 192.5 76.35 192.57 75.98 192.65 75.66 192.73 75.39 192.8 75.17 192.88 75 192.96 74.88 193.03 74.81 193.11 74.78 193.18 74.8 193.26 74.86 193.33 74.97 193.41 75.11 193.49 75.3 193.56 75.52 193.64 75.78 193.71 76.07 193.79 76.39 193.87 76.74 194.02 77.51 194.09 77.93 194.17 78.36 194.32 79.27 194.62 81.18 194.7 81.67 194.77 82.15 194.93 83.08 195.23 84.82 195.3 85.22 195.38 85.59 195.46 85.95 195.53 86.28 195.61 86.59 195.68 86.88 195.76 87.14 195.83 87.38 195.91 87.6 195.99 87.78 196.06 87.95 196.14 88.08 196.21 88.2 196.29 88.28 196.36 88.35 196.44 88.39 196.52 88.4 196.59 88.4 196.67 88.37 196.74 88.33 196.82 88.27 196.89 88.19 196.97 88.09 197.05 87.98 197.12 87.86 197.2 87.73 197.35 87.43 197.65 86.78 197.73 86.6 197.82 86.42 197.98 86.08 198.06 85.92 198.14 85.77 198.23 85.62 198.31 85.5 198.39 85.38 198.47 85.28 198.56 85.19 198.64 85.12 198.72 85.06 198.8 85.02 198.88 85 198.97 84.99 199.05 85.01 199.13 85.04 199.21 85.08 199.3 85.14 199.38 85.22 199.46 85.31 199.54 85.41 199.62 85.53 199.71 85.66 199.79 85.79 199.95 86.09 200.28 86.74 200.36 86.9 200.44 87.05 200.53 87.21 200.61 87.35 200.69 87.49 200.77 87.62 200.86 87.73 200.94 87.83 201.02 87.92 201.1 87.99 201.18 88.04 201.27 88.08 201.35 88.09 201.43 88.08 201.51 88.06 201.6 88.01 201.68 87.94 201.76 87.85 201.84 87.73 201.92 87.59 202.01 87.43 202.09 87.25 202.17 87.05 202.25 86.83 202.34 86.58 202.42 86.32 202.58 85.75 202.66 85.44 202.75 85.11 202.91 84.44 202.99 84.11 203.06 83.78 203.22 83.1 203.29 82.76 203.37 82.43 203.52 81.77 203.6 81.45 203.68 81.14 203.83 80.55 203.91 80.27 203.98 80.02 204.06 79.78 204.14 79.55 204.21 79.35 204.29 79.17 204.37 79.01 204.44 78.88 204.52 78.77 204.6 78.69 204.67 78.63 204.75 78.6 204.83 78.6 204.9 78.63 204.98 78.68 205.06 78.76 205.13 78.87 205.21 79.01 205.29 79.18 205.36 79.38 205.44 79.6 205.52 79.85 205.59 80.12 205.67 80.42 205.75 80.74 205.82 81.08 205.98 81.83 206.05 82.23 206.13 82.65 206.28 83.52 206.59 85.37 206.67 85.85 206.75 86.32 206.9 87.26 206.98 87.72 207.05 88.17 207.21 89.04 207.28 89.46 207.36 89.85 207.43 90.23 207.51 90.59 207.59 90.93 207.67 91.24 207.74 91.53 207.82 91.79 207.9 92.05 207.98 92.26 208.07 92.45 208.15 92.6 208.23 92.71 208.32 92.78 208.4 92.81 208.48 92.81 208.57 92.76 208.65 92.68 208.73 92.56 208.81 92.4 208.9 92.21 208.98 91.98 209.06 91.71 209.15 91.41 209.23 91.08 209.31 90.72 209.48 89.92 209.56 89.48 209.65 89.02 209.81 88.04 209.9 87.53 209.98 87 210.14 85.93 210.48 83.76 210.56 83.23 210.64 82.71 210.81 81.71 210.89 81.24 210.98 80.78 211.14 79.94 211.23 79.56 211.31 79.21 211.39 78.89 211.47 78.6 211.56 78.34 211.64 78.12 211.72 77.93 211.81 77.78 211.89 77.66 211.97 77.58 212.06 77.54 212.14 77.53 212.22 77.56 212.31 77.63 212.39 77.73 212.47 77.87 212.56 78.04 212.64 78.25 212.72 78.48 212.8 78.75 212.89 79.05 212.97 79.37 213.14 80.09 213.22 80.47 213.3 80.87 213.46 81.72 213.79 83.55 213.87 84.02 213.95 84.48 214.12 85.41 214.44 87.16 214.52 87.57 214.6 87.96 214.69 88.33 214.77 88.68 214.85 89.01 214.93 89.32 215.01 89.6 215.1 89.85 215.18 90.08 215.26 90.29 215.34 90.46 215.42 90.61 215.5 90.73 215.58 90.82 215.67 90.88 215.75 90.91 215.83 90.91 215.91 90.89 215.99 90.83 216.07 90.75 216.15 90.65 216.24 90.52 216.32 90.36 216.4 90.18 216.48 89.98 216.56 89.76 216.73 89.26 216.81 88.98 216.89 88.69 217.05 88.08 217.13 87.76 217.22 87.42 217.38 86.75 217.71 85.38 217.79 85.05 217.87 84.72 218.03 84.09 218.11 83.79 218.19 83.5 218.36 82.97 218.43 82.74 218.51 82.52 218.59 82.32 218.66 82.14 218.74 81.97 218.81 81.82 218.89 81.68 218.97 81.56 219.04 81.46 219.12 81.37 219.19 81.31 219.27 81.26 219.35 81.22 219.42 81.21 219.5 81.21 219.58 81.22 219.65 81.25 219.73 81.3 219.8 81.36 219.88 81.44 219.96 81.53 220.03 81.63 220.11 81.75 220.18 81.87 220.26 82.01 220.34 82.15 220.49 82.47 220.79 83.17 220.87 83.36 220.94 83.54 221.1 83.92 221.4 84.65 221.48 84.83 221.55 85 221.71 85.32 221.78 85.47 221.86 85.62 222.01 85.88 222.09 86 222.16 86.12 222.24 86.22 222.31 86.31 222.39 86.39 222.47 86.47 222.54 86.53 222.62 86.59 222.7 86.63 222.77 86.67 222.85 86.69 222.92 86.71 223 86.72 223.08 86.72 223.15 86.71 223.23 86.69 223.31 86.66 223.39 86.63 223.48 86.59 223.56 86.54 223.64 86.48 223.72 86.42 223.89 86.28 223.97 86.2 224.05 86.12 224.22 85.96 224.55 85.63 224.63 85.55 224.71 85.47 224.88 85.32 224.96 85.25 225.04 85.18 225.13 85.12 225.21 85.06 225.29 85.01 225.37 84.97 225.46 84.92 225.54 84.89 225.62 84.86 225.7 84.83 225.79 84.81 225.87 84.79 225.95 84.78 226.03 84.78 226.12 84.78 226.2 84.78 226.28 84.79 226.36 84.81 226.45 84.82 226.53 84.84 226.61 84.86 226.69 84.89 226.86 84.94 227.19 85.06 227.27 85.09 227.35 85.12 227.44 85.15 227.52 85.17 227.6 85.2 227.68 85.22 227.77 85.23 227.85 85.25 227.93 85.26 228.02 85.27 228.1 85.27 228.18 85.27 228.26 85.27 228.35 85.26 228.43 85.24 228.51 85.23 228.59 85.21 228.66 85.18 228.74 85.15 228.82 85.12 228.89 85.09 228.97 85.05 229.13 84.97 229.2 84.92 229.28 84.87 229.43 84.77 229.74 84.55 229.82 84.5 229.9 84.44 230.05 84.34 230.13 84.28 230.21 84.23 230.36 84.14 230.44 84.1 230.51 84.06 230.59 84.02 230.67 83.99 230.74 83.96 230.82 83.94 230.9 83.92 230.98 83.91 231.05 83.9 231.13 83.89 231.21 83.89 231.28 83.9 231.36 83.91 231.44 83.92 231.52 83.95 231.59 83.97 231.67 84 231.75 84.04 231.82 84.08 231.9 84.13 231.98 84.18 232.05 84.24 232.21 84.37 232.29 84.44 232.36 84.51 232.52 84.66 232.82 85 232.9 85.09 232.98 85.18 233.13 85.35 233.44 85.7 233.52 85.77 233.59 85.85 233.67 85.92 233.74 85.99 233.82 86.06 233.89 86.12 233.97 86.18 234.05 86.24 234.12 86.28 234.2 86.33 234.27 86.37 234.35 86.4 234.42 86.43 234.5 86.45 234.57 86.46 234.65 86.47 234.73 86.48 234.8 86.47 234.88 86.47 234.95 86.45 235.03 86.43 235.1 86.4 235.18 86.37 235.25 86.33 235.33 86.29 235.4 86.24 235.48 86.18 235.56 86.12 235.63 86.06 235.71 85.99 235.86 85.85 235.93 85.77 236.01 85.68 236.16 85.51 236.46 85.15 236.54 85.05 236.61 84.96 236.76 84.78 237.07 84.42 237.14 84.34 237.22 84.26 237.29 84.19 237.37 84.12 237.44 84.05 237.52 83.99 237.6 83.93 237.67 83.87 237.75 83.82 237.82 83.78 237.9 83.74 237.97 83.71 238.05 83.68 238.12 83.66 238.2 83.64 238.27 83.63 238.36 83.62 238.44 83.63 238.52 83.63 238.6 83.65 238.68 83.67 238.77 83.7 238.85 83.73 238.93 83.77 239.01 83.81 239.09 83.86 239.18 83.92 239.26 83.97 239.34 84.04 239.42 84.1 239.59 84.25 239.67 84.33 239.75 84.4 239.91 84.57 240.24 84.9 240.32 84.99 240.4 85.07 240.57 85.23 240.65 85.3 240.73 85.38 240.9 85.52 240.98 85.58 241.06 85.64 241.14 85.7 241.22 85.75 241.31 85.8 241.39 85.84 241.47 85.87 241.55 85.91 241.63 85.94 241.72 85.96 241.8 85.98 241.88 85.99 241.96 86 242.04 86 242.13 86 242.21 85.99 242.29 85.98 242.37 85.96 242.45 85.94 242.54 85.92 242.62 85.89 242.7 85.86 242.78 85.82 242.86 85.78 242.94 85.74 243.03 85.69 243.19 85.6 243.52 85.38 243.6 85.33 243.67 85.28 243.82 85.18 243.9 85.12 243.98 85.07 244.13 84.98 244.21 84.93 244.28 84.88 244.44 84.8 244.51 84.76 244.59 84.72 244.74 84.65 244.82 84.62 244.89 84.59 244.97 84.56 245.05 84.54 245.12 84.52 245.2 84.5 245.28 84.49 245.35 84.47 245.43 84.46 245.51 84.46 245.58 84.45 245.66 84.45 245.74 84.45 245.81 84.45 245.89 84.46 245.97 84.47 246.04 84.48 246.12 84.49 246.19 84.5 246.27 84.52 246.35 84.54 246.42 84.56 246.58 84.6 246.65 84.62 246.73 84.64 246.88 84.69 247.19 84.79 247.27 84.82 247.34 84.85 247.5 84.9 247.57 84.92 247.65 84.94 247.8 84.99 247.88 85.01 247.95 85.03 248.03 85.05 248.11 85.06 248.18 85.08 248.26 85.09 248.34 85.11 248.41 85.12 248.5 85.13 248.58 85.14 248.67 85.15 248.75 85.16 248.84 85.16 248.92 85.17 249.01 85.17 249.1 85.17 249.18 85.17 249.27 85.17 249.35 85.17 249.44 85.16 249.52 85.16 249.61 85.15 249.69 85.14 249.78 85.14 249.86 85.13 249.95 85.12 250.12 85.1 250.21 85.09 250.29 85.08 250.46 85.06 250.55 85.06 250.63 85.05 250.72 85.04 250.8 85.03 250.89 85.03 250.97 85.02 251.06 85.01 251.14 85.01 251.23 85.01 251.31 85 251.4 85 251.48 85 251.57 85 251.66 85 251.74 85 251.83 85 251.91 85.01 252 85.01 252.08 85.01 252.17 85.02 252.25 85.02 252.34 85.03 252.51 85.04 252.6 85.05 252.68 85.06 252.85 85.07 252.94 85.08 253.02 85.08 253.19 85.1 253.28 85.1 253.36 85.11 253.45 85.11 253.53 85.11 253.62 85.12 253.7 85.12 253.79 85.12 253.88 85.12"/>
  <g>
    <polyline class="cls-4" points="5.18 85.13 5.26 85.13 5.33 85.12 5.49 85.12 5.79 85.1 6.4 85.07 6.48 85.07 6.55 85.06 6.71 85.05 7.01 85.03 7.62 84.99 7.7 84.99 7.77 84.98 7.93 84.97 8.18 84.95"/>
    <polyline class="cls-2" points="14.12 84.34 15.35 84.19 15.43 84.18 15.51 84.17 15.66 84.15 15.97 84.12 16.59 84.04 17.83 83.89 17.9 83.89 17.98 83.88 18.13 83.86 18.44 83.83 19.06 83.76 19.14 83.75 19.22 83.75 19.37 83.73 19.68 83.7 20.3 83.65 20.37 83.64 20.45 83.64 20.6 83.63 20.9 83.61 20.98 83.6 21.05 83.6 21.21 83.59 21.51 83.57 21.58 83.56 21.66 83.56 21.81 83.55 21.89 83.55 21.96 83.55 22.11 83.54 22.19 83.54 22.26 83.53 22.34 83.53 22.42 83.53 22.49 83.53 22.57 83.52 22.64 83.52 22.72 83.52 22.79 83.52 22.87 83.52 22.95 83.52 23.02 83.51 23.1 83.51 23.17 83.51 23.25 83.51 23.32 83.51 23.4 83.51 23.48 83.51 23.55 83.51 23.63 83.51 23.7 83.51 23.78 83.51 23.85 83.51 23.93 83.51 24.01 83.52 24.08 83.52 24.16 83.52 24.23 83.52 24.31 83.52 24.38 83.52 24.46 83.53 24.54 83.53 24.61 83.53 24.69 83.54 24.84 83.54 24.91 83.55 24.99 83.55 25.14 83.56 25.22 83.56 25.31 83.57 25.47 83.58 25.55 83.58 25.63 83.59 25.8 83.6 25.88 83.61 25.96 83.62 26.13 83.63 26.45 83.67 26.54 83.68 26.62 83.69 26.78 83.71 27.11 83.75 27.19 83.76 27.28 83.77 27.44 83.8 27.77 83.85 27.85 83.86 27.93 83.88 28.1 83.91 28.43 83.97 28.51 83.99 28.59 84 28.75 84.04 29.08 84.11 29.16 84.13 29.25 84.15 29.41 84.19 29.74 84.27 30.4 84.45 30.47 84.48 30.55 84.5 30.7 84.55 31.01 84.64 31.62 84.85 31.7 84.88 31.78 84.9 31.93 84.96 32.24 85.07 32.85 85.32 32.93 85.35 33 85.38 33.16 85.44 33.46 85.57 34.07 85.85 35.3 86.44 35.38 86.49 35.47 86.53 35.63 86.61 35.97 86.79 36.63 87.15 37.96 87.9 40.62 89.46 40.7 89.51 40.78 89.56 40.94 89.65 41.27 89.84 41.92 90.22 42 90.26 42.08 90.31 42.25 90.4 42.57 90.58 43.22 90.93 43.31 90.97 43.39 91.01 43.55 91.1 43.88 91.26 44.53 91.57 44.61 91.61 44.69 91.64 44.85 91.72 45.18 91.86 45.83 92.11 45.91 92.14 45.99 92.17 46.14 92.22 46.44 92.33 46.52 92.35 46.59 92.37 46.75 92.42 47.05 92.51 47.13 92.53 47.2 92.55 47.35 92.59 47.43 92.6 47.51 92.62 47.66 92.66 47.74 92.67 47.81 92.69 47.96 92.72 48.04 92.73 48.12 92.74 48.27 92.77 48.34 92.78 48.42 92.79 48.5 92.8 48.57 92.81 48.65 92.82 48.72 92.83 48.8 92.83 48.87 92.84 48.95 92.85 49.03 92.85 49.1 92.86 49.18 92.86 49.26 92.87 49.33 92.87 49.41 92.87 49.48 92.87 49.56 92.87 49.64 92.87 49.71 92.87 49.79 92.87 49.86 92.87 49.94 92.87 50.02 92.87 50.09 92.86 50.17 92.86 50.24 92.85 50.32 92.85 50.4 92.84 50.47 92.83 50.55 92.82 50.7 92.81 50.78 92.79 50.87 92.78 50.95 92.77 51.03 92.75 51.11 92.74 51.2 92.72 51.36 92.69 51.44 92.67 51.53 92.65 51.69 92.61 52.02 92.51 52.1 92.49 52.18 92.46 52.35 92.4 52.68 92.28 52.76 92.24 52.85 92.21 53.01 92.13 53.34 91.98 53.42 91.93 53.51 91.89 53.67 91.8 54 91.61 54.08 91.56 54.16 91.51 54.33 91.41 54.66 91.18 54.74 91.12 54.82 91.06 54.99 90.94 55.32 90.69 55.98 90.12 56.06 90.05 56.13 89.98 56.29 89.83 56.6 89.53 57.21 88.89 57.29 88.8 57.36 88.72 57.52 88.54 57.83 88.19 58.44 87.43 58.52 87.33 58.6 87.23 58.75 87.03 59.06 86.61 59.67 85.75 60.91 83.86 60.98 83.74 61.06 83.61 61.21 83.37 61.51 82.86 62.11 81.83 63.32 79.64 65.74 74.93 65.82 74.76 65.9 74.6 66.06 74.27 66.39 73.6 67.05 72.26 68.36 69.57 68.44 69.4 68.52 69.24 68.68 68.9 69.01 68.24 69.67 66.92 70.98 64.36 71.05 64.22 71.13 64.07 71.28 63.78 71.59 63.21 72.2 62.11 72.28 61.97 72.35 61.83 72.51 61.57 72.81 61.04 73.42 60.02 73.5 59.9 73.58 59.78 73.73 59.54 74.03 59.06 74.64 58.16 74.72 58.05 74.8 57.94 74.95 57.73 75.26 57.32 75.87 56.56 75.95 56.46 76.03 56.36 76.2 56.17 76.53 55.81 76.61 55.72 76.7 55.64 76.86 55.47 77.19 55.16 77.28 55.08 77.36 55.01 77.52 54.87 77.85 54.6 77.94 54.54 78.02 54.48 78.19 54.37 78.52 54.15 78.6 54.11 78.68 54.06 78.85 53.97 78.93 53.93 79.02 53.89 79.18 53.81 79.26 53.78 79.35 53.74 79.43 53.71 79.51 53.68 79.6 53.66 79.68 53.63 79.84 53.58 79.93 53.56 80.01 53.54 80.09 53.53 80.17 53.51 80.26 53.5 80.34 53.49 80.42 53.48 80.51 53.47 80.59 53.47 80.67 53.46 80.75 53.46 80.84 53.46 80.92 53.46 81 53.46 81.09 53.47 81.17 53.48 81.25 53.49 81.33 53.5 81.41 53.51 81.49 53.53 81.58 53.54 81.66 53.56 81.74 53.58 81.82 53.6 81.9 53.63 81.98 53.65 82.06 53.68 82.14 53.71 82.23 53.74 82.31 53.78 82.47 53.85 82.55 53.89 82.63 53.93 82.8 54.02 82.88 54.06 82.96 54.11 83.12 54.21 83.2 54.27 83.28 54.32 83.45 54.44 83.77 54.7 83.85 54.77 83.93 54.84 84.1 54.99 84.42 55.31 84.5 55.4 84.58 55.48 84.75 55.66 85.07 56.04 85.15 56.14 85.23 56.24 85.4 56.45 85.72 56.9 86.37 57.87 86.45 57.99 86.52 58.12 86.68 58.37 86.98 58.89 87.59 60 87.66 60.15 87.74 60.3 87.89 60.6 88.19 61.22 88.8 62.54 88.87 62.71 88.95 62.88 89.1 63.23 89.41 63.95 90.01 65.45 91.23 68.71 91.31 68.94 91.39 69.18 91.56 69.65 91.88 70.61 92.54 72.61 93.86 76.84 96.49 86.11 101.4 104.93 101.49 105.25 101.57 105.58 101.74 106.22 102.07 107.51 102.73 110.07 104.06 115.12 106.73 124.75 106.81 125.03 106.89 125.31 107.05 125.87 107.38 126.99 108.03 129.17 109.34 133.33 109.42 133.58 109.5 133.83 109.67 134.33 109.99 135.31 110.65 137.22 111.95 140.8 112.03 141 112.1 141.2 112.26 141.59 112.56 142.37 113.17 143.86 114.39 146.63 114.47 146.8 114.54 146.96 114.7 147.28 115 147.91 115.61 149.12 116.83 151.32 116.91 151.45 116.99 151.59 117.16 151.86 117.49 152.39 118.15 153.38 118.23 153.5 118.32 153.61 118.48 153.84 118.81 154.29 119.47 155.12 119.56 155.22 119.64 155.31 119.8 155.51 120.13 155.87 120.79 156.55 120.88 156.63 120.96 156.71 121.12 156.87 121.46 157.16 122.12 157.7 122.19 157.76 122.27 157.82 122.42 157.93 122.73 158.14 122.81 158.2 122.89 158.25 123.04 158.34 123.35 158.53 123.43 158.58 123.5 158.62 123.66 158.71 123.97 158.87 124.58 159.16 124.66 159.19 124.74 159.22 124.89 159.28 125.2 159.4 125.28 159.43 125.35 159.45 125.51 159.5 125.82 159.6 125.89 159.62 125.97 159.64 126.13 159.68 126.2 159.7 126.28 159.72 126.43 159.76 126.51 159.77 126.59 159.79 126.74 159.82 127.05 159.88 127.13 159.89 127.2 159.9 127.35 159.93 127.43 159.94 127.51 159.95 127.66 159.97 127.73 159.98 127.81 159.98 127.96 160 128.04 160.01 128.11 160.01 128.26 160.03 128.34 160.03 128.41 160.04 128.49 160.04 128.56 160.05 128.64 160.05 128.72 160.05 128.79 160.06 128.87 160.06 128.94 160.06 129.02 160.06 129.09 160.07 129.17 160.07 129.25 160.07 129.32 160.07 129.4 160.07 129.47 160.07 129.55 160.07 129.62 160.07 129.7 160.07 129.77 160.07 129.85 160.07 129.93 160.07 130 160.07 130.08 160.06 130.15 160.06 130.23 160.06 130.3 160.05 130.38 160.05 130.45 160.05 130.53 160.04 130.68 160.03 130.76 160.03 130.83 160.02 130.91 160.02 130.98 160.01 131.06 160 131.14 160 131.29 159.98 131.36 159.97 131.44 159.96 131.59 159.94 131.66 159.93 131.74 159.92 131.89 159.9 131.97 159.88 132.06 159.87 132.22 159.84 132.3 159.82 132.38 159.81 132.55 159.77 132.63 159.75 132.71 159.74 132.88 159.7 133.2 159.61 133.29 159.58 133.37 159.56 133.53 159.51 133.86 159.4 133.94 159.37 134.02 159.34 134.19 159.27 134.52 159.14 134.6 159.1 134.68 159.07 134.84 158.99 135.17 158.83 135.25 158.78 135.34 158.74 135.5 158.65 135.83 158.46 135.91 158.41 135.99 158.36 136.16 158.25 136.48 158.03 137.14 157.54 137.22 157.48 137.29 157.42 137.45 157.29 137.75 157.03 138.37 156.45 138.44 156.37 138.52 156.3 138.67 156.14 138.98 155.81 139.59 155.11 139.67 155.02 139.74 154.93 139.9 154.74 140.2 154.34 140.81 153.51 142.04 151.63 142.12 151.49 142.21 151.35 142.37 151.07 142.7 150.49 143.37 149.27 144.69 146.57 144.78 146.39 144.86 146.21 145.03 145.84 145.36 145.09 146.02 143.53 147.35 140.15 147.43 139.93 147.51 139.71 147.68 139.27 148 138.37 148.65 136.52 149.96 132.59 152.56 123.94 152.64 123.67 152.71 123.41 152.87 122.87 153.17 121.79 153.78 119.6 154.99 115.11 157.42 105.82 162.7 85.63 162.77 85.35 162.85 85.07 163 84.51 163.31 83.39 163.93 81.2 165.16 76.98 165.23 76.72 165.31 76.47 165.47 75.96 165.77 74.96 166.39 73 167.62 69.31 167.69 69.1 167.77 68.88 167.92 68.46 168.22 67.62 168.82 66.01 168.9 65.82 168.98 65.62 169.13 65.24 169.43 64.49 170.03 63.05 170.11 62.88 170.18 62.71 170.33 62.37 170.63 61.71 171.24 60.46 171.31 60.31 171.39 60.16 171.54 59.87 171.84 59.31 172.44 58.26 172.52 58.13 172.61 57.99 172.77 57.73 173.1 57.24 173.18 57.12 173.26 57 173.43 56.77 173.75 56.33 173.83 56.23 173.92 56.13 174.08 55.93 174.41 55.55 174.49 55.46 174.57 55.38 174.73 55.21 175.06 54.9 175.14 54.82 175.23 54.75 175.39 54.62 175.47 54.55 175.55 54.49 175.72 54.36 175.8 54.31 175.88 54.25 176.04 54.14 176.13 54.09 176.21 54.05 176.37 53.96 176.45 53.91 176.53 53.87 176.7 53.8 176.78 53.76 176.86 53.73 177.02 53.67 177.11 53.64 177.19 53.62 177.27 53.59 177.35 53.57 177.43 53.55 177.52 53.53 177.6 53.52 177.68 53.5 177.76 53.49 177.83 53.48 177.91 53.48 177.98 53.47 178.06 53.46 178.14 53.46 178.21 53.46 178.29 53.46 178.37 53.46 178.44 53.46 178.52 53.47 178.6 53.47 178.67 53.48 178.75 53.49 178.82 53.5 178.9 53.52 178.98 53.53 179.05 53.55 179.13 53.56 179.21 53.58 179.28 53.6 179.36 53.62 179.51 53.67 179.59 53.7 179.66 53.73 179.82 53.79 179.89 53.82 179.97 53.85 180.12 53.93 180.2 53.96 180.27 54 180.43 54.09 180.73 54.27 180.81 54.32 180.89 54.38 181.04 54.48 181.34 54.71 181.42 54.78 181.5 54.84 181.65 54.97 181.95 55.24 182.56 55.85 182.65 55.94 182.73 56.03 182.89 56.22 183.23 56.6 183.89 57.44 183.97 57.55 184.05 57.66 184.22 57.89 184.55 58.36 185.21 59.35 185.29 59.48 185.38 59.61 185.54 59.88 185.87 60.42 186.54 61.54 187.86 63.95 187.94 64.09 188.01 64.24 188.17 64.53 188.48 65.13 189.1 66.34 190.33 68.82 192.8 73.88 192.88 74.04 192.96 74.19 193.11 74.5 193.41 75.11 194.02 76.33 195.23 78.69 195.3 78.83 195.38 78.98 195.53 79.26 195.83 79.83 196.44 80.94 197.65 83.04 197.73 83.18 197.82 83.31 197.98 83.58 198.31 84.11 198.97 85.13 199.05 85.25 199.13 85.38 199.3 85.62 199.62 86.09 200.28 86.99 200.36 87.1 200.44 87.21 200.61 87.42 200.94 87.83 201.6 88.61 201.68 88.7 201.76 88.79 201.92 88.97 202.25 89.32 202.91 89.97 202.99 90.04 203.06 90.11 203.22 90.25 203.52 90.51 203.6 90.57 203.68 90.64 203.83 90.76 204.14 90.99 204.21 91.05 204.29 91.11 204.44 91.22 204.75 91.42 205.36 91.79 205.44 91.83 205.52 91.87 205.67 91.95 205.98 92.1 206.05 92.14 206.13 92.17 206.28 92.24 206.59 92.36 206.67 92.39 206.75 92.42 206.9 92.47 206.98 92.49 207.05 92.52 207.21 92.56 207.28 92.58 207.36 92.61 207.51 92.65 207.59 92.66 207.67 92.68 207.82 92.72 207.9 92.73 207.98 92.75 208.07 92.76 208.15 92.78 208.23 92.79 208.32 92.8 208.4 92.81 208.48 92.82 208.57 92.83 208.65 92.84 208.73 92.85 208.81 92.85 208.9 92.86 208.98 92.86 209.06 92.87 209.15 92.87 209.23 92.87 209.31 92.87 209.4 92.87 209.48 92.87 209.56 92.87 209.65 92.87 209.73 92.87 209.81 92.87 209.9 92.86 209.98 92.86 210.06 92.85 210.14 92.84 210.23 92.84 210.31 92.83 210.39 92.82 210.48 92.81 210.56 92.8 210.64 92.79 210.81 92.77 210.89 92.75 210.98 92.74 211.14 92.71 211.23 92.69 211.31 92.67 211.47 92.64 211.81 92.56 211.89 92.54 211.97 92.52 212.14 92.47 212.47 92.37 212.56 92.35 212.64 92.32 212.8 92.26 213.14 92.15 213.22 92.12 213.3 92.08 213.46 92.02 213.79 91.89 214.44 91.61 215.75 90.97 215.83 90.93 215.91 90.89 216.07 90.8 216.4 90.62 217.05 90.26 218.36 89.51 218.43 89.47 218.51 89.42 218.66 89.33 218.97 89.15 219.58 88.79 220.79 88.07 220.87 88.03 220.94 87.99 221.1 87.9 221.4 87.72 222.01 87.38 223.23 86.72 223.31 86.67 223.39 86.63 223.56 86.54 223.89 86.38 224.55 86.05 224.63 86.01 224.71 85.97 224.88 85.9 225.21 85.75 225.87 85.46 225.95 85.42 226.03 85.39 226.2 85.32 226.53 85.19 227.19 84.94 227.27 84.91 227.35 84.88 227.52 84.82 227.85 84.71 228.51 84.5 228.59 84.48 228.66 84.45 228.82 84.41 229.13 84.32 229.2 84.3 229.28 84.28 229.43 84.24 229.74 84.17 229.82 84.15 229.9 84.13 230.05 84.09 230.36 84.03 230.98 83.91 231.05 83.89 231.13 83.88 231.28 83.85 231.59 83.8 231.67 83.79 231.75 83.78 231.9 83.75 232.21 83.71 232.29 83.7 232.36 83.7 232.52 83.68 232.59 83.67 232.67 83.66 232.82 83.64 232.9 83.64 232.98 83.63 233.13 83.62 233.44 83.59 233.52 83.58 233.59 83.58 233.74 83.57 233.82 83.56 233.89 83.56 234.05 83.55 234.12 83.55 234.2 83.54 234.27 83.54 234.35 83.54 234.42 83.53 234.5 83.53 234.65 83.53 234.73 83.52 234.8 83.52 234.88 83.52 234.95 83.52 235.03 83.52 235.1 83.52 235.18 83.51 235.25 83.51 235.33 83.51 235.4 83.51 235.48 83.51 235.56 83.51 235.63 83.51 235.71 83.51 235.78 83.51 235.86 83.51 235.93 83.51 236.01 83.51 236.08 83.52 236.16 83.52 236.23 83.52 236.31 83.52 236.39 83.52 236.46 83.52 236.54 83.53 236.61 83.53 236.76 83.53 236.84 83.54 236.92 83.54 237.07 83.54 237.14 83.55 237.22 83.55 237.37 83.56 237.67 83.58 237.75 83.58 237.82 83.58 237.97 83.59 238.27 83.61 238.36 83.62 238.44 83.63 238.6 83.64 238.93 83.66 239.59 83.72 239.67 83.73 239.75 83.74 239.91 83.75 240.24 83.79 240.9 83.86 240.98 83.87 241.06 83.88 241.22 83.89 241.55 83.93 242.21 84.01 243.52 84.17 243.6 84.18 243.67 84.19 243.82 84.21 244.13 84.25 244.74 84.32 245.97 84.47 246.04 84.48 246.12 84.49 246.27 84.5 246.58 84.54 247.19 84.61 247.91 84.68"/>
    <polyline class="cls-4" points="250.88 84.95 251.14 84.97 251.23 84.98 251.31 84.98 251.48 85 251.83 85.02 251.91 85.03 252 85.03 252.17 85.04 252.51 85.06 252.6 85.07 252.68 85.07 252.85 85.08 253.19 85.1 253.28 85.1 253.36 85.11 253.53 85.11 253.62 85.12 253.7 85.12 253.79 85.12 253.88 85.13"/>
  </g>
  <g>
    <polyline class="cls-4" points="5.18 84.87 5.26 84.87 5.33 84.88 5.49 84.88 5.79 84.9 6.4 84.93 6.48 84.93 6.55 84.94 6.71 84.95 7.01 84.97 7.62 85.01 7.7 85.01 7.77 85.02 7.93 85.03 8.18 85.05"/>
    <polyline class="cls-2" points="14.12 85.66 15.35 85.81 15.43 85.82 15.51 85.83 15.66 85.85 15.97 85.88 16.59 85.96 17.83 86.11 17.9 86.11 17.98 86.12 18.13 86.14 18.44 86.17 19.06 86.24 19.14 86.25 19.22 86.25 19.37 86.27 19.68 86.3 20.3 86.35 20.37 86.36 20.45 86.36 20.6 86.37 20.9 86.39 20.98 86.4 21.05 86.4 21.21 86.41 21.51 86.43 21.58 86.44 21.66 86.44 21.81 86.45 21.89 86.45 21.96 86.45 22.11 86.46 22.19 86.46 22.26 86.47 22.34 86.47 22.42 86.47 22.49 86.47 22.57 86.48 22.64 86.48 22.72 86.48 22.79 86.48 22.87 86.48 22.95 86.48 23.02 86.49 23.1 86.49 23.17 86.49 23.25 86.49 23.32 86.49 23.4 86.49 23.48 86.49 23.55 86.49 23.63 86.49 23.7 86.49 23.78 86.49 23.85 86.49 23.93 86.49 24.01 86.48 24.08 86.48 24.16 86.48 24.23 86.48 24.31 86.48 24.38 86.48 24.46 86.47 24.54 86.47 24.61 86.47 24.69 86.46 24.84 86.46 24.91 86.45 24.99 86.45 25.14 86.44 25.22 86.44 25.31 86.43 25.47 86.42 25.55 86.42 25.63 86.41 25.8 86.4 25.88 86.39 25.96 86.38 26.13 86.37 26.45 86.33 26.54 86.32 26.62 86.31 26.78 86.29 27.11 86.25 27.19 86.24 27.28 86.23 27.44 86.2 27.77 86.15 27.85 86.14 27.93 86.12 28.1 86.09 28.43 86.03 28.51 86.01 28.59 86 28.75 85.96 29.08 85.89 29.16 85.87 29.25 85.85 29.41 85.81 29.74 85.73 30.4 85.55 30.47 85.52 30.55 85.5 30.7 85.45 31.01 85.36 31.62 85.15 31.7 85.12 31.78 85.1 31.93 85.04 32.24 84.93 32.85 84.68 32.93 84.65 33 84.62 33.16 84.56 33.46 84.42 34.07 84.15 35.3 83.56 35.38 83.51 35.47 83.47 35.63 83.39 35.97 83.21 36.63 82.85 37.96 82.1 40.62 80.54 40.7 80.49 40.78 80.44 40.94 80.35 41.27 80.16 41.92 79.78 42 79.74 42.08 79.69 42.25 79.6 42.57 79.42 43.22 79.07 43.31 79.03 43.39 78.99 43.55 78.9 43.88 78.74 44.53 78.43 44.61 78.39 44.69 78.36 44.85 78.28 45.18 78.14 45.83 77.89 45.91 77.86 45.99 77.83 46.14 77.78 46.44 77.67 46.52 77.65 46.59 77.63 46.75 77.58 47.05 77.49 47.13 77.47 47.2 77.45 47.35 77.41 47.43 77.4 47.51 77.38 47.66 77.34 47.74 77.33 47.81 77.31 47.96 77.28 48.04 77.27 48.12 77.26 48.27 77.23 48.34 77.22 48.42 77.21 48.5 77.2 48.57 77.19 48.65 77.18 48.72 77.17 48.8 77.17 48.87 77.16 48.95 77.15 49.03 77.15 49.1 77.14 49.18 77.14 49.26 77.13 49.33 77.13 49.41 77.13 49.48 77.13 49.56 77.12 49.64 77.12 49.71 77.12 49.79 77.13 49.86 77.13 49.94 77.13 50.02 77.13 50.09 77.14 50.17 77.14 50.24 77.15 50.32 77.15 50.4 77.16 50.47 77.17 50.55 77.18 50.7 77.19 50.78 77.21 50.87 77.22 50.95 77.23 51.03 77.25 51.11 77.26 51.2 77.28 51.36 77.31 51.44 77.33 51.53 77.35 51.69 77.39 52.02 77.49 52.1 77.51 52.18 77.54 52.35 77.6 52.68 77.72 52.76 77.76 52.85 77.79 53.01 77.87 53.34 78.02 53.42 78.07 53.51 78.11 53.67 78.2 54 78.39 54.08 78.44 54.16 78.49 54.33 78.59 54.66 78.82 54.74 78.88 54.82 78.94 54.99 79.06 55.32 79.32 55.98 79.88 56.06 79.95 56.13 80.02 56.29 80.17 56.6 80.47 57.21 81.11 57.29 81.2 57.36 81.28 57.52 81.46 57.83 81.81 58.44 82.57 58.52 82.67 58.6 82.77 58.75 82.97 59.06 83.39 59.67 84.25 60.91 86.14 60.98 86.26 61.06 86.39 61.21 86.63 61.51 87.14 62.11 88.17 63.32 90.36 65.74 95.07 65.82 95.24 65.9 95.4 66.06 95.73 66.39 96.4 67.05 97.74 68.36 100.43 68.44 100.6 68.52 100.76 68.68 101.1 69.01 101.76 69.67 103.08 70.98 105.64 71.05 105.78 71.13 105.93 71.28 106.22 71.59 106.79 72.2 107.89 72.28 108.03 72.35 108.17 72.51 108.43 72.81 108.96 73.42 109.98 73.5 110.1 73.58 110.22 73.73 110.46 74.03 110.94 74.64 111.84 74.72 111.95 74.8 112.06 74.95 112.27 75.26 112.68 75.87 113.44 75.95 113.54 76.03 113.64 76.2 113.83 76.53 114.19 76.61 114.28 76.7 114.36 76.86 114.53 77.19 114.84 77.28 114.92 77.36 114.99 77.52 115.13 77.85 115.4 77.94 115.46 78.02 115.52 78.19 115.63 78.52 115.85 78.6 115.89 78.68 115.94 78.85 116.03 78.93 116.07 79.02 116.11 79.18 116.19 79.26 116.22 79.35 116.26 79.43 116.29 79.51 116.32 79.6 116.34 79.68 116.37 79.84 116.42 79.93 116.44 80.01 116.46 80.09 116.47 80.17 116.49 80.26 116.5 80.34 116.51 80.42 116.52 80.51 116.53 80.59 116.53 80.67 116.54 80.75 116.54 80.84 116.54 80.92 116.54 81 116.54 81.09 116.53 81.17 116.52 81.25 116.51 81.33 116.5 81.41 116.49 81.49 116.47 81.58 116.46 81.66 116.44 81.74 116.42 81.82 116.4 81.9 116.37 81.98 116.35 82.06 116.32 82.14 116.29 82.23 116.26 82.31 116.23 82.47 116.15 82.55 116.11 82.63 116.07 82.8 115.99 82.88 115.94 82.96 115.89 83.12 115.79 83.2 115.73 83.28 115.68 83.45 115.56 83.77 115.3 83.85 115.23 83.93 115.16 84.1 115.01 84.42 114.69 84.5 114.6 84.58 114.52 84.75 114.34 85.07 113.96 85.15 113.86 85.23 113.76 85.4 113.55 85.72 113.1 86.37 112.13 86.45 112.01 86.52 111.88 86.68 111.63 86.98 111.11 87.59 110 87.66 109.85 87.74 109.7 87.89 109.4 88.19 108.78 88.8 107.46 88.87 107.29 88.95 107.12 89.1 106.77 89.41 106.05 90.01 104.55 91.23 101.29 91.31 101.06 91.39 100.82 91.56 100.35 91.88 99.39 92.54 97.39 93.86 93.16 96.49 83.89 101.4 65.07 101.49 64.75 101.57 64.42 101.74 63.78 102.07 62.49 102.73 59.93 104.06 54.88 106.73 45.25 106.81 44.97 106.89 44.69 107.05 44.12 107.38 43.01 108.03 40.83 109.34 36.67 109.42 36.42 109.5 36.17 109.67 35.67 109.99 34.69 110.65 32.78 111.95 29.2 112.03 29 112.1 28.8 112.26 28.41 112.56 27.63 113.17 26.14 114.39 23.37 114.47 23.2 114.54 23.04 114.7 22.72 115 22.09 115.61 20.88 116.83 18.68 116.91 18.55 116.99 18.41 117.16 18.14 117.49 17.61 118.15 16.62 118.23 16.5 118.32 16.39 118.48 16.16 118.81 15.71 119.47 14.88 119.56 14.78 119.64 14.69 119.8 14.49 120.13 14.13 120.79 13.45 120.88 13.37 120.96 13.29 121.12 13.13 121.46 12.84 122.12 12.3 122.19 12.24 122.27 12.18 122.42 12.07 122.73 11.86 122.81 11.8 122.89 11.75 123.04 11.66 123.35 11.47 123.43 11.42 123.5 11.38 123.66 11.29 123.97 11.13 124.58 10.84 124.66 10.81 124.74 10.78 124.89 10.72 125.2 10.6 125.28 10.57 125.35 10.55 125.51 10.5 125.82 10.4 125.89 10.38 125.97 10.36 126.13 10.32 126.2 10.3 126.28 10.28 126.43 10.24 126.51 10.23 126.59 10.21 126.74 10.18 127.05 10.12 127.13 10.11 127.2 10.1 127.35 10.07 127.43 10.06 127.51 10.05 127.66 10.03 127.73 10.03 127.81 10.02 127.96 10 128.04 9.99 128.11 9.99 128.26 9.97 128.34 9.97 128.41 9.96 128.49 9.96 128.56 9.95 128.64 9.95 128.72 9.95 128.79 9.94 128.87 9.94 128.94 9.94 129.02 9.94 129.09 9.93 129.17 9.93 129.25 9.93 129.32 9.93 129.4 9.93 129.47 9.93 129.55 9.93 129.62 9.93 129.7 9.93 129.77 9.93 129.85 9.93 129.93 9.93 130 9.94 130.08 9.94 130.15 9.94 130.23 9.94 130.3 9.95 130.38 9.95 130.45 9.95 130.53 9.96 130.68 9.97 130.76 9.97 130.83 9.98 130.91 9.98 130.98 9.99 131.06 10 131.14 10 131.29 10.02 131.36 10.03 131.44 10.04 131.59 10.06 131.66 10.07 131.74 10.08 131.89 10.1 131.97 10.12 132.06 10.13 132.22 10.16 132.3 10.18 132.38 10.19 132.55 10.23 132.63 10.25 132.71 10.26 132.88 10.3 133.2 10.39 133.29 10.42 133.37 10.44 133.53 10.49 133.86 10.6 133.94 10.63 134.02 10.66 134.19 10.73 134.52 10.86 134.6 10.9 134.68 10.93 134.84 11.01 135.17 11.17 135.25 11.22 135.34 11.26 135.5 11.35 135.83 11.54 135.91 11.59 135.99 11.64 136.16 11.75 136.48 11.97 137.14 12.46 137.22 12.52 137.29 12.58 137.45 12.71 137.75 12.97 138.37 13.55 138.44 13.63 138.52 13.7 138.67 13.86 138.98 14.19 139.59 14.89 139.67 14.98 139.74 15.07 139.9 15.26 140.2 15.66 140.81 16.49 142.04 18.37 142.12 18.51 142.21 18.65 142.37 18.93 142.7 19.51 143.37 20.73 144.69 23.43 144.78 23.61 144.86 23.79 145.03 24.16 145.36 24.91 146.02 26.47 147.35 29.85 147.43 30.07 147.51 30.29 147.68 30.73 148 31.63 148.65 33.48 149.96 37.41 152.56 46.06 152.64 46.33 152.71 46.59 152.87 47.13 153.17 48.21 153.78 50.4 154.99 54.89 157.42 64.18 162.7 84.37 162.77 84.65 162.85 84.93 163 85.49 163.31 86.61 163.93 88.8 165.16 93.02 165.23 93.28 165.31 93.53 165.47 94.04 165.77 95.04 166.39 97 167.62 100.69 167.69 100.9 167.77 101.12 167.92 101.54 168.22 102.38 168.82 103.99 168.9 104.18 168.98 104.38 169.13 104.76 169.43 105.51 170.03 106.95 170.11 107.12 170.18 107.29 170.33 107.63 170.63 108.29 171.24 109.54 171.31 109.69 171.39 109.83 171.54 110.13 171.84 110.69 172.44 111.74 172.52 111.87 172.61 112.01 172.77 112.27 173.1 112.76 173.18 112.88 173.26 113 173.43 113.23 173.75 113.67 173.83 113.77 173.92 113.87 174.08 114.07 174.41 114.45 174.49 114.54 174.57 114.62 174.73 114.79 175.06 115.1 175.14 115.18 175.23 115.25 175.39 115.38 175.47 115.45 175.55 115.51 175.72 115.64 175.8 115.69 175.88 115.75 176.04 115.86 176.13 115.91 176.21 115.95 176.37 116.04 176.45 116.09 176.53 116.13 176.7 116.2 176.78 116.24 176.86 116.27 177.02 116.33 177.11 116.36 177.19 116.38 177.27 116.41 177.35 116.43 177.43 116.45 177.52 116.47 177.6 116.48 177.68 116.5 177.76 116.51 177.83 116.52 177.91 116.52 177.98 116.53 178.06 116.54 178.14 116.54 178.21 116.54 178.29 116.54 178.37 116.54 178.44 116.54 178.52 116.53 178.6 116.53 178.67 116.52 178.75 116.51 178.82 116.5 178.9 116.48 178.98 116.47 179.05 116.45 179.13 116.44 179.21 116.42 179.28 116.4 179.36 116.38 179.51 116.33 179.59 116.3 179.66 116.27 179.82 116.21 179.89 116.18 179.97 116.15 180.12 116.07 180.2 116.04 180.27 116 180.43 115.91 180.73 115.73 180.81 115.68 180.89 115.62 181.04 115.52 181.34 115.29 181.42 115.22 181.5 115.16 181.65 115.03 181.95 114.76 182.56 114.15 182.65 114.06 182.73 113.97 182.89 113.79 183.23 113.4 183.89 112.56 183.97 112.45 184.05 112.34 184.22 112.11 184.55 111.64 185.21 110.65 185.29 110.52 185.38 110.39 185.54 110.12 185.87 109.58 186.54 108.46 187.86 106.05 187.94 105.91 188.01 105.76 188.17 105.47 188.48 104.87 189.1 103.66 190.33 101.18 192.8 96.12 192.88 95.96 192.96 95.81 193.11 95.5 193.41 94.89 194.02 93.67 195.23 91.31 195.3 91.17 195.38 91.02 195.53 90.74 195.83 90.17 196.44 89.06 197.65 86.96 197.73 86.82 197.82 86.69 197.98 86.42 198.31 85.89 198.97 84.87 199.05 84.75 199.13 84.62 199.3 84.38 199.62 83.91 200.28 83.01 200.36 82.9 200.44 82.79 200.61 82.58 200.94 82.17 201.6 81.39 201.68 81.3 201.76 81.21 201.92 81.03 202.25 80.68 202.91 80.03 202.99 79.96 203.06 79.89 203.22 79.75 203.52 79.49 203.6 79.43 203.68 79.36 203.83 79.24 204.14 79.01 204.21 78.95 204.29 78.89 204.44 78.79 204.75 78.58 205.36 78.21 205.44 78.17 205.52 78.13 205.67 78.05 205.98 77.9 206.05 77.86 206.13 77.83 206.28 77.76 206.59 77.64 206.67 77.61 206.75 77.58 206.9 77.53 206.98 77.51 207.05 77.48 207.21 77.44 207.28 77.41 207.36 77.39 207.51 77.35 207.59 77.34 207.67 77.32 207.82 77.28 207.9 77.27 207.98 77.25 208.07 77.24 208.15 77.22 208.23 77.21 208.32 77.2 208.4 77.19 208.48 77.18 208.57 77.17 208.65 77.16 208.73 77.15 208.81 77.15 208.9 77.14 208.98 77.14 209.06 77.13 209.15 77.13 209.23 77.13 209.31 77.13 209.4 77.12 209.48 77.12 209.56 77.13 209.65 77.13 209.73 77.13 209.81 77.13 209.9 77.14 209.98 77.14 210.06 77.15 210.14 77.16 210.23 77.16 210.31 77.17 210.39 77.18 210.48 77.19 210.56 77.2 210.64 77.21 210.81 77.24 210.89 77.25 210.98 77.26 211.14 77.29 211.23 77.31 211.31 77.33 211.47 77.36 211.81 77.44 211.89 77.46 211.97 77.48 212.14 77.53 212.47 77.63 212.56 77.66 212.64 77.68 212.8 77.74 213.14 77.85 213.22 77.88 213.3 77.92 213.46 77.98 213.79 78.11 214.44 78.39 215.75 79.03 215.83 79.07 215.91 79.11 216.07 79.2 216.4 79.38 217.05 79.74 218.36 80.49 218.43 80.53 218.51 80.58 218.66 80.67 218.97 80.85 219.58 81.21 220.79 81.93 220.87 81.97 220.94 82.01 221.1 82.1 221.4 82.28 222.01 82.62 223.23 83.28 223.31 83.33 223.39 83.37 223.56 83.46 223.89 83.62 224.55 83.95 224.63 83.99 224.71 84.03 224.88 84.1 225.21 84.25 225.87 84.54 225.95 84.58 226.03 84.61 226.2 84.68 226.53 84.81 227.19 85.06 227.27 85.09 227.35 85.12 227.52 85.18 227.85 85.29 228.51 85.5 228.59 85.52 228.66 85.55 228.82 85.59 229.13 85.68 229.2 85.7 229.28 85.72 229.43 85.76 229.74 85.83 229.82 85.85 229.9 85.87 230.05 85.91 230.36 85.97 230.98 86.09 231.05 86.11 231.13 86.12 231.28 86.15 231.59 86.2 231.67 86.21 231.75 86.22 231.9 86.24 232.21 86.29 232.29 86.3 232.36 86.3 232.52 86.32 232.59 86.33 232.67 86.34 232.82 86.36 232.9 86.36 232.98 86.37 233.13 86.39 233.44 86.41 233.52 86.42 233.59 86.42 233.74 86.43 233.82 86.44 233.89 86.44 234.05 86.45 234.12 86.45 234.2 86.46 234.27 86.46 234.35 86.46 234.42 86.47 234.5 86.47 234.65 86.47 234.73 86.48 234.8 86.48 234.88 86.48 234.95 86.48 235.03 86.48 235.1 86.49 235.18 86.49 235.25 86.49 235.33 86.49 235.4 86.49 235.48 86.49 235.56 86.49 235.63 86.49 235.71 86.49 235.78 86.49 235.86 86.49 235.93 86.49 236.01 86.49 236.08 86.48 236.16 86.48 236.23 86.48 236.31 86.48 236.39 86.48 236.46 86.48 236.54 86.47 236.61 86.47 236.76 86.47 236.84 86.46 236.92 86.46 237.07 86.46 237.14 86.45 237.22 86.45 237.37 86.44 237.67 86.43 237.75 86.42 237.82 86.42 237.97 86.41 238.27 86.39 238.36 86.38 238.44 86.37 238.6 86.36 238.93 86.33 239.59 86.28 239.67 86.27 239.75 86.26 239.91 86.25 240.24 86.21 240.9 86.14 240.98 86.13 241.06 86.12 241.22 86.11 241.55 86.07 242.21 85.99 243.52 85.83 243.6 85.82 243.67 85.81 243.82 85.79 244.13 85.76 244.74 85.68 245.97 85.53 246.04 85.52 246.12 85.51 246.27 85.5 246.58 85.46 247.19 85.39 247.91 85.32"/>
    <polyline class="cls-4" points="250.88 85.05 251.14 85.03 251.23 85.02 251.31 85.02 251.48 85 251.83 84.98 251.91 84.98 252 84.97 252.17 84.96 252.51 84.94 252.6 84.93 252.68 84.93 252.85 84.92 253.19 84.9 253.28 84.9 253.36 84.89 253.53 84.89 253.62 84.88 253.7 84.88 253.79 84.87 253.88 84.87"/>
  </g>
</svg>