<?xml version="1.0" encoding="UTF-8"?>
<svg id="Layer_1" data-name="Layer 1" xmlns="http://www.w3.org/2000/svg" viewBox="0 0 149.45 215.27">
  <defs>
    <style>
      .cls-1 {
        stroke-width: .14px;
      }

      .cls-1, .cls-2, .cls-3, .cls-4, .cls-5 {
        fill: none;
        stroke-miterlimit: 3.25;
      }

      .cls-1, .cls-4, .cls-5 {
        stroke: #000;
      }

      .cls-6, .cls-7 {
        font-family: MyriadPro-It, 'Myriad Pro';
        font-style: italic;
      }

      .cls-2 {
        stroke: #3f3f98;
      }

      .cls-2, .cls-3 {
        stroke-width: 2px;
      }

      .cls-2, .cls-3, .cls-4 {
        stroke-linecap: square;
      }

      .cls-3 {
        stroke: #c33;
      }

      .cls-8, .cls-9 {
        font-family: MyriadPro-Regular, 'Myriad Pro';
      }

      .cls-7, .cls-9, .cls-10 {
        fill: #231f20;
      }

      .cls-7, .cls-10 {
        font-size: 12px;
      }

      .cls-9 {
        font-size: 12px;
      }

      .cls-4 {
        stroke-width: 1.5px;
      }

      .cls-11 {
        stroke-width: 0px;
      }
    </style>
  </defs>
  <line class="cls-1" x1="16.3" y1="61.08" x2="16.3" y2="59.63"/>
  <line class="cls-5" x1="26.45" y1="61.08" x2="26.45" y2="59.63"/>
  <line class="cls-5" x1="36.59" y1="61.08" x2="36.59" y2="59.63"/>
  <line class="cls-5" x1="46.74" y1="61.08" x2="46.74" y2="59.63"/>
  <line class="cls-5" x1="56.88" y1="61.08" x2="56.88" y2="59.63"/>
  <line class="cls-5" x1="67.03" y1="61.08" x2="67.03" y2="59.63"/>
  <line class="cls-5" x1="77.18" y1="61.08" x2="77.18" y2="59.63"/>
  <line class="cls-5" x1="87.32" y1="61.08" x2="87.32" y2="59.63"/>
  <line class="cls-5" x1="97.47" y1="61.08" x2="97.47" y2="59.63"/>
  <line class="cls-5" x1="107.61" y1="61.08" x2="107.61" y2="59.63"/>
  <line class="cls-5" x1="117.76" y1="61.08" x2="117.76" y2="59.63"/>
  <line class="cls-5" x1="127.9" y1="61.08" x2="127.9" y2="59.63"/>
  <line class="cls-5" x1="138.05" y1="61.08" x2="138.05" y2="59.63"/>
  <line class="cls-5" x1="13.77" y1="61.08" x2="140.59" y2="61.08"/>
  <line class="cls-5" x1="16.3" y1="98.71" x2="17.76" y2="98.71"/>
  <line class="cls-5" x1="16.3" y1="79.9" x2="17.76" y2="79.9"/>
  <line class="cls-5" x1="16.3" y1="61.08" x2="17.76" y2="61.08"/>
  <line class="cls-5" x1="16.3" y1="42.27" x2="17.76" y2="42.27"/>
  <line class="cls-5" x1="16.3" y1="23.46" x2="17.76" y2="23.46"/>
  <line class="cls-5" x1="16.3" y1="100.27" x2="16.3" y2="21.89"/>
  <g>
    <line class="cls-4" x1="66.96" y1="14.19" x2="107.52" y2="14.19"/>
    <rect class="cls-11" x="66.21" y="9.31" width="1.5" height="9.75"/>
    <rect class="cls-11" x="106.77" y="9.31" width="1.5" height="9.75"/>
  </g>
  <polyline class="cls-2" points="16.3 61.08 16.34 60.87 16.38 60.65 16.45 60.21 16.6 59.35 16.9 57.61 17.5 54.16 18.69 47.48 18.73 47.26 18.77 47.04 18.85 46.6 19.02 45.74 19.34 44.04 19.99 40.76 20.03 40.57 20.07 40.37 20.15 39.98 20.31 39.2 20.63 37.7 21.28 34.86 21.32 34.71 21.36 34.55 21.43 34.24 21.58 33.63 21.89 32.46 21.93 32.31 21.96 32.17 22.04 31.89 22.19 31.35 22.49 30.3 22.53 30.17 22.57 30.05 22.64 29.8 22.79 29.32 23.1 28.41 23.13 28.3 23.17 28.2 23.25 27.99 23.4 27.58 23.7 26.81 23.74 26.72 23.78 26.64 23.85 26.47 24 26.14 24.04 26.06 24.07 25.98 24.15 25.83 24.29 25.53 24.33 25.46 24.37 25.39 24.44 25.26 24.59 25.01 24.63 24.95 24.67 24.89 24.74 24.77 24.89 24.56 24.92 24.5 24.96 24.45 25.04 24.36 25.07 24.31 25.11 24.27 25.18 24.18 25.22 24.14 25.26 24.1 25.33 24.02 25.48 23.88 25.52 23.85 25.55 23.82 25.63 23.76 25.67 23.74 25.7 23.71 25.78 23.67 25.81 23.64 25.85 23.62 25.89 23.6 25.93 23.59 25.96 23.57 26 23.55 26.04 23.54 26.07 23.53 26.11 23.51 26.15 23.5 26.19 23.49 26.23 23.48 26.27 23.48 26.31 23.47 26.35 23.47 26.39 23.46 26.44 23.46 26.48 23.46 26.52 23.46 26.56 23.47 26.6 23.47 26.64 23.48 26.68 23.49 26.72 23.49 26.76 23.51 26.8 23.52 26.84 23.53 26.88 23.55 26.92 23.56 26.96 23.58 27.04 23.62 27.08 23.64 27.12 23.66 27.2 23.72 27.24 23.74 27.28 23.77 27.36 23.84 27.4 23.87 27.44 23.91 27.52 23.98 27.56 24.02 27.6 24.06 27.68 24.15 27.72 24.19 27.76 24.24 27.84 24.34 28 24.55 28.04 24.6 28.08 24.66 28.16 24.78 28.32 25.04 28.65 25.62 28.68 25.69 28.72 25.77 28.8 25.92 28.95 26.24 29.25 26.94 29.28 27.03 29.32 27.12 29.4 27.31 29.55 27.71 29.85 28.55 29.88 28.66 29.92 28.77 30 29 30.15 29.47 30.45 30.45 31.05 32.6 31.09 32.76 31.13 32.92 31.21 33.23 31.37 33.88 31.7 35.22 32.35 38.1 33.65 44.52 33.69 44.73 33.73 44.94 33.81 45.36 33.97 46.21 34.29 47.94 34.93 51.48 36.2 58.81 38.59 72.51 38.63 72.73 38.67 72.96 38.75 73.4 38.91 74.29 39.23 76.03 39.88 79.4 39.92 79.61 39.96 79.81 40.04 80.22 40.2 81.02 40.52 82.59 41.17 85.57 41.21 85.73 41.25 85.9 41.32 86.23 41.47 86.87 41.77 88.12 41.81 88.28 41.85 88.43 41.92 88.73 42.07 89.31 42.38 90.44 42.41 90.58 42.45 90.72 42.53 90.99 42.68 91.51 42.98 92.51 43.58 94.3 43.62 94.4 43.66 94.5 43.73 94.7 43.88 95.07 44.17 95.78 44.21 95.86 44.25 95.94 44.32 96.1 44.47 96.41 44.76 96.96 44.8 97.03 44.84 97.09 44.91 97.21 45.06 97.44 45.1 97.5 45.13 97.55 45.21 97.65 45.36 97.85 45.39 97.89 45.43 97.94 45.5 98.02 45.54 98.06 45.58 98.1 45.65 98.17 45.69 98.21 45.73 98.24 45.8 98.31 45.84 98.34 45.87 98.37 45.95 98.42 45.99 98.45 46.03 98.48 46.07 98.5 46.11 98.53 46.15 98.55 46.19 98.57 46.27 98.61 46.31 98.62 46.35 98.64 46.39 98.65 46.43 98.66 46.47 98.67 46.51 98.68 46.55 98.69 46.59 98.7 46.63 98.7 46.67 98.7 46.71 98.71 46.75 98.71 46.79 98.7 46.83 98.7 46.87 98.7 46.91 98.69 46.95 98.69 46.99 98.68 47.03 98.67 47.07 98.66 47.11 98.64 47.15 98.63 47.19 98.61 47.23 98.6 47.27 98.58 47.31 98.56 47.35 98.54 47.39 98.52 47.43 98.49 47.47 98.47 47.55 98.41 47.59 98.38 47.63 98.35 47.71 98.28 47.87 98.13 47.91 98.09 47.95 98.05 48.03 97.96 48.19 97.76 48.23 97.71 48.27 97.65 48.35 97.54 48.51 97.3 48.55 97.24 48.59 97.18 48.66 97.05 48.81 96.78 49.11 96.2 49.15 96.12 49.19 96.04 49.26 95.88 49.41 95.53 49.71 94.8 49.75 94.7 49.78 94.6 49.86 94.4 50.01 93.99 50.31 93.11 50.91 91.14 50.95 91 50.99 90.86 51.07 90.57 51.23 89.97 51.55 88.72 52.2 86.02 52.24 85.85 52.28 85.67 52.37 85.31 52.53 84.58 52.85 83.07 53.5 79.9 53.54 79.7 53.58 79.5 53.66 79.09 53.82 78.27 54.14 76.6 54.78 73.15 56.05 65.94 58.42 52.2 58.47 51.97 58.51 51.74 58.59 51.29 58.75 50.39 59.07 48.6 59.71 45.13 59.75 44.92 59.79 44.71 59.87 44.28 60.04 43.45 60.36 41.82 61 38.69 61.04 38.52 61.08 38.34 61.15 38 61.3 37.31 61.6 35.98 62.2 33.48 62.24 33.34 62.28 33.19 62.35 32.9 62.51 32.32 62.81 31.23 63.41 29.23 63.45 29.1 63.49 28.98 63.57 28.73 63.73 28.26 64.06 27.37 64.1 27.27 64.14 27.17 64.22 26.96 64.38 26.58 64.71 25.86 64.75 25.78 64.79 25.7 64.87 25.54 65.04 25.24 65.08 25.17 65.12 25.1 65.2 24.96 65.36 24.71 65.4 24.65 65.44 24.59 65.52 24.48 65.57 24.43 65.61 24.37 65.69 24.27 65.73 24.22 65.77 24.18 65.85 24.09 66.01 23.93 66.05 23.89 66.09 23.86 66.17 23.79 66.21 23.76 66.25 23.73 66.33 23.68 66.37 23.66 66.41 23.63 66.45 23.61 66.49 23.59 66.53 23.57 66.57 23.56 66.61 23.54 66.65 23.53 66.69 23.51 66.73 23.5 66.77 23.49 66.81 23.48 66.85 23.48 66.89 23.47 66.93 23.47 66.97 23.46 67.01 23.46 67.05 23.46 67.09 23.46 67.13 23.47 67.17 23.47 67.21 23.48 67.25 23.49 67.29 23.49 67.33 23.5 67.37 23.52 67.41 23.53 67.45 23.54 67.49 23.56 67.53 23.58 67.61 23.62 67.65 23.64 67.69 23.66 67.77 23.71 67.81 23.74 67.85 23.77 67.93 23.83 67.97 23.86 68.01 23.9 68.09 23.97 68.13 24.01 68.17 24.05 68.25 24.13 68.29 24.18 68.33 24.22 68.41 24.32 68.57 24.53 68.61 24.58 68.65 24.63 68.72 24.74 68.87 24.98 68.91 25.04 68.94 25.1 69.02 25.23 69.17 25.51 69.21 25.58 69.24 25.65 69.32 25.8 69.47 26.11 69.77 26.79 69.8 26.88 69.84 26.97 69.91 27.15 70.06 27.54 70.36 28.36 70.96 30.21 71 30.35 71.04 30.48 71.12 30.76 71.28 31.33 71.61 32.52 72.25 35.11 72.29 35.28 72.33 35.45 72.41 35.8 72.58 36.5 72.9 37.96 73.55 41.04 73.58 41.23 73.62 41.42 73.7 41.79 73.85 42.55 74.15 44.1 74.76 47.31 75.96 54.06 78.33 67.79 78.37 68.02 78.41 68.25 78.49 68.71 78.65 69.62 78.97 71.43 79.62 74.97 79.66 75.19 79.7 75.41 79.78 75.84 79.94 76.69 80.26 78.38 80.9 81.61 80.94 81.79 80.98 81.97 81.05 82.33 81.2 83.05 81.5 84.44 82.1 87.08 82.14 87.23 82.18 87.39 82.25 87.7 82.4 88.31 82.7 89.49 83.3 91.65 83.34 91.79 83.38 91.92 83.46 92.19 83.63 92.71 83.95 93.7 83.99 93.82 84.03 93.93 84.11 94.16 84.28 94.6 84.6 95.42 84.64 95.51 84.68 95.61 84.76 95.79 84.92 96.15 84.97 96.23 85.01 96.32 85.09 96.48 85.25 96.79 85.29 96.86 85.33 96.94 85.41 97.08 85.57 97.34 85.62 97.4 85.66 97.46 85.74 97.58 85.9 97.8 85.94 97.85 85.98 97.9 86.06 97.99 86.1 98.03 86.14 98.08 86.22 98.16 86.26 98.2 86.3 98.24 86.38 98.31 86.42 98.34 86.46 98.37 86.54 98.43 86.58 98.46 86.62 98.48 86.66 98.51 86.7 98.53 86.74 98.55 86.78 98.57 86.86 98.61 86.9 98.63 86.94 98.64 86.98 98.65 87.02 98.66 87.06 98.67 87.1 98.68 87.14 98.69 87.18 98.7 87.22 98.7 87.26 98.7 87.3 98.71 87.34 98.71 87.38 98.7 87.41 98.7 87.45 98.7 87.49 98.69 87.53 98.69 87.57 98.68 87.61 98.67 87.65 98.66 87.69 98.64 87.73 98.63 87.77 98.61 87.81 98.6 87.85 98.58 87.89 98.56 87.93 98.54 87.97 98.51 88.01 98.49 88.05 98.46 88.13 98.41 88.17 98.38 88.21 98.35 88.29 98.28 88.45 98.13 88.49 98.09 88.53 98.05 88.6 97.97 88.75 97.79 88.79 97.74 88.82 97.69 88.9 97.59 89.05 97.37 89.08 97.31 89.12 97.25 89.19 97.13 89.34 96.88 89.64 96.3 89.68 96.23 89.72 96.15 89.79 95.99 89.94 95.66 90.24 94.94 90.27 94.84 90.31 94.75 90.39 94.55 90.53 94.15 90.83 93.28 90.87 93.16 90.91 93.04 90.99 92.79 91.15 92.27 91.48 91.18 92.12 88.78 92.16 88.62 92.2 88.46 92.28 88.14 92.44 87.47 92.77 86.1 93.41 83.18 93.45 83 93.49 82.82 93.56 82.46 93.71 81.73 94.02 80.24 94.62 77.15 95.82 70.56 98.18 56.91 98.23 56.68 98.27 56.45 98.34 55.99 98.51 55.06 98.83 53.23 99.47 49.62 99.51 49.4 99.55 49.18 99.63 48.74 99.79 47.86 100.11 46.13 100.75 42.78 100.79 42.6 100.82 42.41 100.9 42.03 101.05 41.28 101.35 39.82 101.94 37.05 101.98 36.88 102.02 36.71 102.09 36.38 102.24 35.73 102.54 34.47 103.14 32.13 103.18 31.98 103.22 31.83 103.3 31.54 103.46 30.96 103.79 29.87 103.83 29.74 103.87 29.61 103.95 29.35 104.11 28.86 104.44 27.92 104.48 27.81 104.52 27.7 104.6 27.49 104.76 27.07 104.8 26.97 104.84 26.87 104.92 26.68 105.08 26.31 105.12 26.22 105.16 26.13 105.25 25.96 105.41 25.63 105.73 25.05 105.77 24.98 105.81 24.92 105.88 24.8 106.03 24.58 106.07 24.53 106.11 24.48 106.19 24.38 106.34 24.19 106.37 24.15 106.41 24.11 106.49 24.03 106.53 23.99 106.56 23.96 106.64 23.89 106.68 23.86 106.71 23.83 106.79 23.77 106.83 23.74 106.87 23.71 106.94 23.66 106.98 23.64 107.02 23.62 107.06 23.6 107.09 23.58 107.13 23.57 107.17 23.55 107.21 23.54 107.24 23.52 107.28 23.51 107.32 23.5 107.36 23.49 107.4 23.48 107.43 23.48 107.47 23.47 107.51 23.47 107.55 23.46 107.59 23.46 107.62 23.46 107.66 23.46 107.7 23.47 107.74 23.47 107.77 23.47 107.81 23.48 107.85 23.49 107.89 23.5 107.92 23.51 107.96 23.52 108 23.53 108.04 23.54 108.08 23.56 108.15 23.59 108.19 23.61 108.23 23.63 108.3 23.68 108.34 23.7 108.38 23.72 108.45 23.78 108.49 23.81 108.52 23.84 108.6 23.9 108.75 24.04 108.78 24.08 108.82 24.12 108.89 24.2 109.04 24.38 109.08 24.43 109.12 24.48 109.19 24.58 109.34 24.8 109.38 24.86 109.41 24.91 109.49 25.04 109.63 25.29 109.67 25.36 109.71 25.43 109.78 25.57 109.93 25.86 109.97 25.94 110.01 26.02 110.08 26.18 110.23 26.51 110.53 27.22 110.57 27.33 110.61 27.43 110.69 27.64 110.85 28.08 111.17 29.02 111.21 29.15 111.25 29.27 111.33 29.52 111.49 30.04 111.81 31.14 111.85 31.28 111.89 31.43 111.97 31.72 112.13 32.31 112.46 33.56 113.1 36.24 113.14 36.41 113.17 36.57 113.25 36.91 113.4 37.58 113.7 38.97 114.3 41.9 115.5 48.21 118.11 63.11 118.15 63.34 118.19 63.57 118.27 64.04 118.42 64.96 118.74 66.81 119.38 70.46 120.66 77.44 120.7 77.63 120.74 77.82 120.81 78.21 120.96 78.98 121.26 80.49 121.85 83.38 121.89 83.55 121.93 83.72 122 84.07 122.15 84.75 122.45 86.07 123.05 88.56 123.09 88.72 123.13 88.88 123.21 89.19 123.37 89.81 123.69 90.99 123.73 91.13 123.77 91.27 123.85 91.55 124.02 92.09 124.34 93.12 124.38 93.24 124.42 93.37 124.5 93.6 124.66 94.07 124.98 94.93 125.03 95.03 125.07 95.13 125.15 95.33 125.31 95.71 125.63 96.4 125.67 96.48 125.71 96.55 125.78 96.7 125.93 96.97 125.97 97.03 126.01 97.1 126.08 97.22 126.23 97.46 126.27 97.51 126.31 97.57 126.39 97.67 126.54 97.87 126.57 97.91 126.61 97.96 126.69 98.04 126.84 98.2 126.88 98.23 126.91 98.27 126.99 98.33 127.03 98.36 127.06 98.39 127.14 98.44 127.18 98.47 127.22 98.49 127.25 98.52 127.29 98.54 127.33 98.56 127.37 98.58 127.44 98.61 127.48 98.63 127.52 98.64 127.56 98.65 127.59 98.66 127.63 98.67 127.67 98.68 127.71 98.69 127.74 98.69 127.78 98.7 127.82 98.7 127.86 98.7 127.9 98.71 127.93 98.71 127.97 98.7 128.01 98.7 128.05 98.7 128.08 98.69 128.12 98.69 128.16 98.68 128.19 98.67 128.23 98.66 128.27 98.65 128.3 98.63 128.34 98.62 128.38 98.61 128.42 98.59 128.45 98.57 128.49 98.55 128.53 98.53 128.56 98.51 128.64 98.46 128.67 98.44 128.71 98.41 128.78 98.36 128.82 98.33 128.86 98.3 128.93 98.23 128.97 98.19 129.01 98.16 129.08 98.08 129.23 97.92 129.27 97.87 129.3 97.83 129.38 97.73 129.52 97.53 129.56 97.47 129.6 97.42 129.67 97.3 129.82 97.06 129.86 97 129.89 96.93 129.97 96.8 130.12 96.52 130.41 95.9 130.45 95.82 130.49 95.72 130.57 95.54 130.73 95.15 131.05 94.32 131.09 94.21 131.13 94.1 131.21 93.87 131.37 93.4 131.7 92.41 131.74 92.28 131.78 92.15 131.86 91.88 132.02 91.33 132.34 90.18 132.98 87.67 133.02 87.52 133.05 87.36 133.13 87.05 133.28 86.41 133.58 85.1 134.18 82.31 135.37 76.22 135.42 76 135.46 75.77 135.54 75.32 135.71 74.42 136.04 72.58 136.71 68.82 136.75 68.58 136.8 68.34 136.88 67.86 137.05 66.9 137.38 64.97 137.42 64.73 137.46 64.49 137.55 64 137.71 63.03 137.76 62.79 137.8 62.54 137.88 62.06 137.92 61.81 137.97 61.57 138.01 61.33 138.05 61.08"/>
  <text class="cls-10" transform="translate(7.45 18.28)"><tspan class="cls-6" x="0" y="0">u</tspan><tspan class="cls-8" x="6.31" y="0">(</tspan><tspan class="cls-6" x="9.72" y="0">x</tspan><tspan class="cls-8" x="15.01" y="0">)</tspan></text>
  <text class="cls-7" transform="translate(143.77 64.35)"><tspan x="0" y="0">x</tspan></text>
  <g>
    <line class="cls-4" x1="107.61" y1="61" x2="107.61" y2="98.45"/>
    <rect class="cls-11" x="102.73" y="60.25" width="9.75" height="1.5"/>
    <rect class="cls-11" x="102.73" y="97.7" width="9.75" height="1.5"/>
  </g>
  <text class="cls-7" transform="translate(110.08 82.82)"><tspan x="0" y="0">A</tspan></text>
  <line class="cls-1" x1="16.3" y1="176.08" x2="16.3" y2="174.63"/>
  <line class="cls-5" x1="26.45" y1="176.08" x2="26.45" y2="174.63"/>
  <line class="cls-5" x1="36.59" y1="176.08" x2="36.59" y2="174.63"/>
  <line class="cls-5" x1="46.74" y1="176.08" x2="46.74" y2="174.63"/>
  <line class="cls-5" x1="56.88" y1="176.08" x2="56.88" y2="174.63"/>
  <line class="cls-5" x1="67.03" y1="176.08" x2="67.03" y2="174.63"/>
  <line class="cls-5" x1="77.18" y1="176.08" x2="77.18" y2="174.63"/>
  <line class="cls-5" x1="87.32" y1="176.08" x2="87.32" y2="174.63"/>
  <line class="cls-5" x1="97.47" y1="176.08" x2="97.47" y2="174.63"/>
  <line class="cls-5" x1="107.61" y1="176.08" x2="107.61" y2="174.63"/>
  <line class="cls-5" x1="117.76" y1="176.08" x2="117.76" y2="174.63"/>
  <line class="cls-5" x1="127.9" y1="176.08" x2="127.9" y2="174.63"/>
  <line class="cls-5" x1="138.05" y1="176.08" x2="138.05" y2="174.63"/>
  <line class="cls-5" x1="13.77" y1="176.08" x2="140.59" y2="176.08"/>
  <line class="cls-5" x1="16.3" y1="213.7" x2="17.76" y2="213.7"/>
  <line class="cls-5" x1="16.3" y1="194.89" x2="17.76" y2="194.89"/>
  <line class="cls-5" x1="16.3" y1="176.08" x2="17.76" y2="176.08"/>
  <line class="cls-5" x1="16.3" y1="157.27" x2="17.76" y2="157.27"/>
  <line class="cls-5" x1="16.3" y1="138.46" x2="17.76" y2="138.46"/>
  <line class="cls-5" x1="16.3" y1="215.27" x2="16.3" y2="136.89"/>
  <polyline class="cls-3" points="16.3 176.08 16.34 175.86 16.38 175.65 16.45 175.21 16.6 174.34 16.9 172.61 17.5 169.16 18.69 162.48 18.73 162.26 18.77 162.04 18.85 161.6 19.02 160.74 19.34 159.03 19.99 155.76 20.03 155.56 20.07 155.37 20.15 154.97 20.31 154.2 20.63 152.69 21.28 149.86 21.32 149.7 21.36 149.55 21.43 149.24 21.58 148.63 21.89 147.45 21.93 147.31 21.96 147.17 22.04 146.89 22.19 146.34 22.49 145.3 22.53 145.17 22.57 145.05 22.64 144.8 22.79 144.32 23.1 143.41 23.13 143.3 23.17 143.19 23.25 142.98 23.4 142.57 23.7 141.81 23.74 141.72 23.78 141.63 23.85 141.46 24 141.13 24.04 141.05 24.07 140.98 24.15 140.82 24.29 140.53 24.33 140.46 24.37 140.39 24.44 140.26 24.59 140 24.63 139.94 24.67 139.88 24.74 139.77 24.89 139.55 24.92 139.5 24.96 139.45 25.04 139.35 25.07 139.31 25.11 139.26 25.18 139.18 25.22 139.14 25.26 139.1 25.33 139.02 25.48 138.88 25.52 138.85 25.55 138.82 25.63 138.76 25.67 138.73 25.7 138.71 25.78 138.66 25.81 138.64 25.85 138.62 25.89 138.6 25.93 138.58 25.96 138.57 26 138.55 26.04 138.54 26.07 138.52 26.11 138.51 26.15 138.5 26.19 138.49 26.23 138.48 26.27 138.47 26.31 138.47 26.35 138.46 26.39 138.46 26.44 138.46 26.48 138.46 26.52 138.46 26.56 138.46 26.6 138.47 26.64 138.48 26.68 138.48 26.72 138.49 26.76 138.5 26.8 138.51 26.84 138.53 26.88 138.54 26.92 138.56 26.96 138.58 27.04 138.62 27.08 138.64 27.12 138.66 27.2 138.71 27.24 138.74 27.28 138.77 27.36 138.83 27.4 138.87 27.44 138.9 27.52 138.98 27.56 139.02 27.6 139.06 27.68 139.14 27.72 139.19 27.76 139.23 27.84 139.33 28 139.54 28.04 139.6 28.08 139.66 28.16 139.78 28.32 140.04 28.65 140.62 28.68 140.69 28.72 140.77 28.8 140.92 28.95 141.24 29.25 141.94 29.28 142.03 29.32 142.12 29.4 142.31 29.55 142.71 29.85 143.55 29.88 143.66 29.92 143.77 30 144 30.15 144.46 30.45 145.44 31.05 147.6 31.09 147.76 31.13 147.91 31.21 148.23 31.37 148.87 31.7 150.22 32.35 153.09 33.65 159.52 33.69 159.73 33.73 159.94 33.81 160.36 33.97 161.21 34.29 162.93 34.93 166.48 36.2 173.81 38.59 187.51 38.63 187.73 38.67 187.95 38.75 188.4 38.91 189.28 39.23 191.03 39.88 194.4 39.92 194.6 39.96 194.81 40.04 195.22 40.2 196.02 40.52 197.59 41.17 200.56 41.21 200.73 41.25 200.9 41.32 201.22 41.47 201.87 41.77 203.12 41.81 203.27 41.85 203.42 41.92 203.72 42.07 204.31 42.38 205.44 42.41 205.58 42.45 205.71 42.53 205.98 42.68 206.51 42.98 207.51 43.58 209.3 43.62 209.4 43.66 209.5 43.73 209.69 43.88 210.07 44.17 210.77 44.21 210.86 44.25 210.94 44.32 211.1 44.47 211.4 44.76 211.96 44.8 212.02 44.84 212.09 44.91 212.21 45.06 212.44 45.1 212.49 45.13 212.55 45.21 212.65 45.36 212.84 45.39 212.89 45.43 212.93 45.5 213.02 45.54 213.06 45.58 213.1 45.65 213.17 45.69 213.21 45.73 213.24 45.8 213.3 45.84 213.34 45.87 213.36 45.95 213.42 45.99 213.45 46.03 213.47 46.07 213.5 46.11 213.52 46.15 213.55 46.19 213.57 46.27 213.6 46.31 213.62 46.35 213.63 46.39 213.65 46.43 213.66 46.47 213.67 46.51 213.68 46.55 213.69 46.59 213.69 46.63 213.7 46.67 213.7 46.71 213.7 46.75 213.7 46.79 213.7 46.83 213.7 46.87 213.7 46.91 213.69 46.95 213.68 46.99 213.67 47.03 213.67 47.07 213.65 47.11 213.64 47.15 213.63 47.19 213.61 47.23 213.59 47.27 213.58 47.31 213.56 47.35 213.53 47.39 213.51 47.43 213.49 47.47 213.46 47.55 213.41 47.59 213.38 47.63 213.35 47.71 213.28 47.87 213.13 47.91 213.09 47.95 213.04 48.03 212.95 48.19 212.76 48.23 212.7 48.27 212.65 48.35 212.54 48.51 212.29 48.55 212.23 48.59 212.17 48.66 212.05 48.81 211.78 49.11 211.19 49.15 211.12 49.19 211.04 49.26 210.87 49.41 210.53 49.71 209.79 49.75 209.7 49.78 209.6 49.86 209.4 50.01 208.98 50.31 208.1 50.91 206.14 50.95 206 50.99 205.85 51.07 205.56 51.23 204.97 51.55 203.72 52.2 201.02 52.24 200.84 52.28 200.66 52.37 200.31 52.53 199.57 52.85 198.07 53.5 194.9 53.54 194.7 53.58 194.49 53.66 194.09 53.82 193.27 54.14 191.6 54.78 188.15 56.05 180.93 58.42 167.19 58.47 166.97 58.51 166.74 58.59 166.28 58.75 165.38 59.07 163.6 59.71 160.13 59.75 159.91 59.79 159.7 59.87 159.28 60.04 158.45 60.36 156.81 61 153.69 61.04 153.51 61.08 153.34 61.15 152.99 61.3 152.31 61.6 150.98 62.2 148.48 62.24 148.33 62.28 148.18 62.35 147.89 62.51 147.32 62.81 146.22 63.41 144.22 63.45 144.1 63.49 143.97 63.57 143.73 63.73 143.26 64.06 142.37 64.1 142.27 64.14 142.16 64.22 141.96 64.38 141.57 64.71 140.86 64.75 140.78 64.79 140.7 64.87 140.54 65.04 140.24 65.08 140.17 65.12 140.1 65.2 139.96 65.36 139.71 65.4 139.65 65.44 139.59 65.52 139.48 65.57 139.42 65.61 139.37 65.69 139.27 65.73 139.22 65.77 139.17 65.85 139.09 66.01 138.92 66.05 138.89 66.09 138.85 66.17 138.79 66.21 138.76 66.25 138.73 66.33 138.68 66.37 138.65 66.41 138.63 66.45 138.61 66.49 138.59 66.53 138.57 66.57 138.55 66.61 138.54 66.65 138.52 66.69 138.51 66.73 138.5 66.77 138.49 66.81 138.48 66.85 138.47 66.89 138.47 66.93 138.46 66.97 138.46 67.01 138.46 67.05 138.46 67.09 138.46 67.13 138.46 67.17 138.47 67.21 138.47 67.25 138.48 67.29 138.49 67.33 138.5 67.37 138.51 67.41 138.53 67.45 138.54 67.49 138.56 67.53 138.57 67.61 138.61 67.65 138.63 67.69 138.66 67.77 138.71 67.81 138.73 67.85 138.76 67.93 138.83 67.97 138.86 68.01 138.89 68.09 138.97 68.13 139.01 68.17 139.05 68.25 139.13 68.29 139.18 68.33 139.22 68.41 139.32 68.57 139.53 68.61 139.58 68.65 139.63 68.72 139.74 68.87 139.98 68.91 140.04 68.94 140.1 69.02 140.23 69.17 140.5 69.21 140.57 69.24 140.65 69.32 140.79 69.47 141.11 69.77 141.78 69.8 141.87 69.84 141.96 69.91 142.15 70.06 142.53 70.36 143.36 70.96 145.21 71 145.34 71.04 145.48 71.12 145.76 71.28 146.32 71.61 147.51 72.25 150.1 72.29 150.28 72.33 150.45 72.41 150.79 72.58 151.5 72.9 152.96 73.55 156.04 73.58 156.23 73.62 156.41 73.7 156.79 73.85 157.55 74.15 159.1 74.76 162.31 75.96 169.06 78.33 182.78 78.37 183.01 78.41 183.24 78.49 183.7 78.65 184.62 78.97 186.43 79.62 189.97 79.66 190.19 79.7 190.4 79.78 190.83 79.94 191.69 80.26 193.37 80.9 196.6 80.94 196.79 80.98 196.97 81.05 197.33 81.2 198.05 81.5 199.44 82.1 202.07 82.14 202.23 82.18 202.39 82.25 202.7 82.4 203.31 82.7 204.48 83.3 206.65 83.34 206.78 83.38 206.92 83.46 207.19 83.63 207.71 83.95 208.69 83.99 208.81 84.03 208.93 84.11 209.16 84.28 209.6 84.6 210.41 84.64 210.51 84.68 210.6 84.76 210.79 84.92 211.14 84.97 211.23 85.01 211.31 85.09 211.48 85.25 211.79 85.29 211.86 85.33 211.93 85.41 212.07 85.57 212.34 85.62 212.4 85.66 212.46 85.74 212.58 85.9 212.8 85.94 212.85 85.98 212.89 86.06 212.99 86.1 213.03 86.14 213.07 86.22 213.16 86.26 213.19 86.3 213.23 86.38 213.3 86.42 213.34 86.46 213.37 86.54 213.43 86.58 213.45 86.62 213.48 86.66 213.5 86.7 213.53 86.74 213.55 86.78 213.57 86.86 213.61 86.9 213.62 86.94 213.64 86.98 213.65 87.02 213.66 87.06 213.67 87.1 213.68 87.14 213.69 87.18 213.69 87.22 213.7 87.26 213.7 87.3 213.7 87.34 213.7 87.38 213.7 87.41 213.7 87.45 213.69 87.49 213.69 87.53 213.68 87.57 213.67 87.61 213.66 87.65 213.65 87.69 213.64 87.73 213.63 87.77 213.61 87.81 213.59 87.85 213.57 87.89 213.55 87.93 213.53 87.97 213.51 88.01 213.49 88.05 213.46 88.13 213.41 88.17 213.38 88.21 213.35 88.29 213.28 88.45 213.13 88.49 213.09 88.53 213.05 88.6 212.97 88.75 212.79 88.79 212.74 88.82 212.69 88.9 212.59 89.05 212.37 89.08 212.31 89.12 212.25 89.19 212.13 89.34 211.87 89.64 211.3 89.68 211.22 89.72 211.15 89.79 210.99 89.94 210.65 90.24 209.93 90.27 209.84 90.31 209.74 90.39 209.55 90.53 209.14 90.83 208.28 90.87 208.16 90.91 208.03 90.99 207.78 91.15 207.27 91.48 206.18 92.12 203.78 92.16 203.62 92.2 203.46 92.28 203.13 92.44 202.47 92.77 201.1 93.41 198.17 93.45 197.99 93.49 197.82 93.56 197.46 93.71 196.73 94.02 195.24 94.62 192.14 95.82 185.55 98.18 171.91 98.23 171.68 98.27 171.44 98.34 170.98 98.51 170.06 98.83 168.23 99.47 164.62 99.51 164.4 99.55 164.18 99.63 163.73 99.79 162.86 100.11 161.13 100.75 157.78 100.79 157.59 100.82 157.4 100.9 157.03 101.05 156.28 101.35 154.82 101.94 152.04 101.98 151.88 102.02 151.71 102.09 151.38 102.24 150.73 102.54 149.47 103.14 147.13 103.18 146.98 103.22 146.83 103.3 146.53 103.46 145.96 103.79 144.87 103.83 144.74 103.87 144.61 103.95 144.35 104.11 143.85 104.44 142.92 104.48 142.81 104.52 142.7 104.6 142.48 104.76 142.07 104.8 141.97 104.84 141.87 104.92 141.68 105.08 141.31 105.12 141.22 105.16 141.13 105.25 140.96 105.41 140.63 105.73 140.04 105.77 139.98 105.81 139.92 105.88 139.8 106.03 139.58 106.07 139.52 106.11 139.47 106.19 139.37 106.34 139.19 106.37 139.15 106.41 139.11 106.49 139.03 106.53 138.99 106.56 138.95 106.64 138.89 106.68 138.85 106.71 138.82 106.79 138.76 106.83 138.74 106.87 138.71 106.94 138.66 106.98 138.64 107.02 138.62 107.06 138.6 107.09 138.58 107.13 138.56 107.17 138.55 107.21 138.53 107.24 138.52 107.28 138.51 107.32 138.5 107.36 138.49 107.4 138.48 107.43 138.47 107.47 138.47 107.51 138.46 107.55 138.46 107.59 138.46 107.62 138.46 107.66 138.46 107.7 138.46 107.74 138.47 107.77 138.47 107.81 138.48 107.85 138.48 107.89 138.49 107.92 138.5 107.96 138.51 108 138.53 108.04 138.54 108.08 138.56 108.15 138.59 108.19 138.61 108.23 138.63 108.3 138.67 108.34 138.7 108.38 138.72 108.45 138.77 108.49 138.8 108.52 138.83 108.6 138.9 108.75 139.04 108.78 139.08 108.82 139.11 108.89 139.2 109.04 139.38 109.08 139.43 109.12 139.47 109.19 139.58 109.34 139.8 109.38 139.85 109.41 139.91 109.49 140.03 109.63 140.29 109.67 140.36 109.71 140.43 109.78 140.57 109.93 140.86 109.97 140.94 110.01 141.01 110.08 141.17 110.23 141.5 110.53 142.22 110.57 142.32 110.61 142.43 110.69 142.64 110.85 143.08 111.17 144.02 111.21 144.14 111.25 144.27 111.33 144.52 111.49 145.04 111.81 146.14 111.85 146.28 111.89 146.42 111.97 146.71 112.13 147.31 112.46 148.55 113.1 151.24 113.14 151.4 113.17 151.57 113.25 151.9 113.4 152.58 113.7 153.97 114.3 156.89 115.5 163.21 118.11 178.11 118.15 178.34 118.19 178.57 118.27 179.03 118.42 179.96 118.74 181.81 119.38 185.45 120.66 192.43 120.7 192.63 120.74 192.82 120.81 193.21 120.96 193.98 121.26 195.49 121.85 198.37 121.89 198.55 121.93 198.72 122 199.07 122.15 199.75 122.45 201.07 123.05 203.56 123.09 203.72 123.13 203.88 123.21 204.19 123.37 204.81 123.69 205.99 123.73 206.13 123.77 206.27 123.85 206.55 124.02 207.09 124.34 208.12 124.38 208.24 124.42 208.36 124.5 208.6 124.66 209.06 124.98 209.93 125.03 210.03 125.07 210.13 125.15 210.33 125.31 210.71 125.63 211.4 125.67 211.47 125.71 211.55 125.78 211.69 125.93 211.97 125.97 212.03 126.01 212.1 126.08 212.22 126.23 212.46 126.27 212.51 126.31 212.56 126.39 212.67 126.54 212.86 126.57 212.91 126.61 212.95 126.69 213.04 126.84 213.19 126.88 213.23 126.91 213.26 126.99 213.33 127.03 213.36 127.06 213.39 127.14 213.44 127.18 213.47 127.22 213.49 127.25 213.51 127.29 213.53 127.33 213.55 127.37 213.57 127.44 213.61 127.48 213.62 127.52 213.64 127.56 213.65 127.59 213.66 127.63 213.67 127.67 213.68 127.71 213.69 127.74 213.69 127.78 213.7 127.82 213.7 127.86 213.7 127.9 213.7 127.93 213.7 127.97 213.7 128.01 213.7 128.05 213.69 128.08 213.69 128.12 213.68 128.16 213.67 128.19 213.67 128.23 213.65 128.27 213.64 128.3 213.63 128.34 213.62 128.38 213.6 128.42 213.59 128.45 213.57 128.49 213.55 128.53 213.53 128.56 213.51 128.64 213.46 128.67 213.44 128.71 213.41 128.78 213.35 128.82 213.32 128.86 213.29 128.93 213.23 128.97 213.19 129.01 213.16 129.08 213.08 129.23 212.91 129.27 212.87 129.3 212.82 129.38 212.73 129.52 212.52 129.56 212.47 129.6 212.42 129.67 212.3 129.82 212.06 129.86 212 129.89 211.93 129.97 211.8 130.12 211.52 130.41 210.9 130.45 210.81 130.49 210.72 130.57 210.54 130.73 210.15 131.05 209.32 131.09 209.21 131.13 209.09 131.21 208.87 131.37 208.4 131.7 207.4 131.74 207.27 131.78 207.14 131.86 206.88 132.02 206.33 132.34 205.18 132.98 202.67 133.02 202.52 133.05 202.36 133.13 202.05 133.28 201.41 133.58 200.09 134.18 197.31 135.37 191.22 135.42 190.99 135.46 190.77 135.54 190.32 135.71 189.42 136.04 187.58 136.71 183.81 136.75 183.58 136.8 183.34 136.88 182.86 137.05 181.9 137.38 179.97 137.42 179.73 137.46 179.48 137.55 179 137.71 178.03 137.76 177.78 137.8 177.54 137.88 177.05 137.92 176.81 137.97 176.57 138.01 176.32 138.05 176.08"/>
  <text class="cls-9" transform="translate(0 10.04)"><tspan x="0" y="0">a</tspan></text>
  <text class="cls-9" transform="translate(0 125.04)"><tspan x="0" y="0">b</tspan></text>
  <g>
    <line class="cls-4" x1="66.96" y1="14.19" x2="107.52" y2="14.19"/>
    <rect class="cls-11" x="66.21" y="9.31" width="1.5" height="9.75"/>
    <rect class="cls-11" x="106.77" y="9.31" width="1.5" height="9.75"/>
  </g>
  <text class="cls-10" transform="translate(7.45 18.28)"><tspan class="cls-6" x="0" y="0">u</tspan><tspan class="cls-8" x="6.31" y="0">(</tspan><tspan class="cls-6" x="9.72" y="0">x</tspan><tspan class="cls-8" x="15.01" y="0">)</tspan></text>
  <text class="cls-7" transform="translate(143.77 64.35)"><tspan x="0" y="0">x</tspan></text>
  <g>
    <line class="cls-4" x1="107.61" y1="61" x2="107.61" y2="98.45"/>
    <rect class="cls-11" x="102.73" y="60.25" width="9.75" height="1.5"/>
    <rect class="cls-11" x="102.73" y="97.7" width="9.75" height="1.5"/>
  </g>
  <text class="cls-7" transform="translate(110.08 82.82)"><tspan x="0" y="0">A</tspan></text>
  <g>
    <line class="cls-4" x1="66.96" y1="129.32" x2="107.52" y2="129.32"/>
    <rect class="cls-11" x="66.21" y="124.44" width="1.5" height="9.75"/>
    <rect class="cls-11" x="106.77" y="124.44" width="1.5" height="9.75"/>
  </g>
  <text class="cls-10" transform="translate(7.45 133.41)"><tspan class="cls-6" x="0" y="0">u</tspan><tspan class="cls-8" x="6.31" y="0">(</tspan><tspan class="cls-6" x="9.72" y="0">t</tspan><tspan class="cls-8" x="13.48" y="0">)</tspan></text>
  <text class="cls-7" transform="translate(143.77 179.47)"><tspan x="0" y="0">t</tspan></text>
  <g>
    <line class="cls-4" x1="107.61" y1="176.13" x2="107.61" y2="213.58"/>
    <rect class="cls-11" x="102.73" y="175.38" width="9.75" height="1.5"/>
    <rect class="cls-11" x="102.73" y="212.83" width="9.75" height="1.5"/>
  </g>
  <text class="cls-7" transform="translate(110.08 197.95)"><tspan x="0" y="0">A</tspan></text>
  <text class="cls-7" transform="translate(84.08 126.82)"><tspan x="0" y="0">T</tspan></text>
  <text class="cls-7" transform="translate(84.08 10.3)"><tspan x="0" y="0">λ</tspan></text>
</svg>