<?xml version="1.0" encoding="UTF-8"?>
<svg id="Layer_1" data-name="Layer 1" xmlns="http://www.w3.org/2000/svg" viewBox="0 0 438.2 210.5">
  <defs>
    <style>
      .cls-1, .cls-2 {
        font-family: MyriadPro-It, 'Myriad Pro';
        font-style: italic;
      }

      .cls-3, .cls-4 {
        stroke: #8fb03e;
      }

      .cls-3, .cls-4, .cls-5, .cls-6, .cls-7, .cls-8 {
        stroke-linecap: square;
        stroke-width: 2px;
      }

      .cls-3, .cls-4, .cls-5, .cls-6, .cls-7, .cls-8, .cls-9 {
        fill: none;
        stroke-miterlimit: 3.25;
      }

      .cls-4, .cls-7, .cls-8 {
        stroke-dasharray: 0 0 4 4;
      }

      .cls-5, .cls-8 {
        stroke: #5e82b6;
      }

      .cls-6, .cls-7 {
        stroke: #e29d26;
      }

      .cls-2, .cls-10, .cls-11, .cls-12 {
        fill: #231f20;
      }

      .cls-2, .cls-10, .cls-12 {
        font-size: 10px;
      }

      .cls-13, .cls-11, .cls-12 {
        font-family: MyriadPro-Regular, 'Myriad Pro';
      }

      .cls-14 {
        letter-spacing: 0em;
      }

      .cls-15 {
        letter-spacing: 0em;
      }

      .cls-11 {
        font-size: 12px;
      }

      .cls-9 {
        stroke: #231f20;
      }
    </style>
  </defs>
  <line class="cls-9" x1="317.5" y1="42.96" x2="317.5" y2="40.96"/>
  <line class="cls-9" x1="345.13" y1="42.96" x2="345.13" y2="40.96"/>
  <line class="cls-9" x1="372.77" y1="42.96" x2="372.77" y2="40.96"/>
  <line class="cls-9" x1="400.4" y1="42.96" x2="400.4" y2="40.96"/>
  <line class="cls-9" x1="287.56" y1="42.96" x2="402.7" y2="42.96"/>
  <line class="cls-9" x1="289.87" y1="65.06" x2="291.87" y2="65.06"/>
  <line class="cls-9" x1="289.87" y1="54.01" x2="291.87" y2="54.01"/>
  <line class="cls-9" x1="289.87" y1="31.9" x2="291.87" y2="31.9"/>
  <line class="cls-9" x1="289.87" y1="20.85" x2="291.87" y2="20.85"/>
  <text class="cls-2" transform="translate(398.19 52.54)"><tspan x="0" y="0">L</tspan></text>
  <text class="cls-10" transform="translate(366.76 52.54)"><tspan class="cls-13" x="0" y="0">¾</tspan><tspan class="cls-1" x="7.59" y="0">L</tspan></text>
  <text class="cls-10" transform="translate(311.49 52.54)"><tspan class="cls-13" x="0" y="0">¼</tspan><tspan class="cls-1" x="7.59" y="0">L</tspan></text>
  <text class="cls-10" transform="translate(339.13 52.54)"><tspan class="cls-13" x="0" y="0">½</tspan><tspan class="cls-1" x="7.59" y="0">L</tspan></text>
  <text class="cls-12" transform="translate(283.07 23.78)"><tspan x="0" y="0">1</tspan></text>
  <text class="cls-12" transform="translate(280 68)"><tspan x="0" y="0">-1</tspan></text>
  <line class="cls-9" x1="289.87" y1="67.52" x2="289.87" y2="18.39"/>
  <text class="cls-10" transform="translate(417.53 45.89)"><tspan class="cls-1" x="0" y="0">n</tspan><tspan class="cls-13" x="5.34" y="0" xml:space="preserve"> = 1</tspan></text>
  <text class="cls-10" transform="translate(417.53 115.89)"><tspan class="cls-1" x="0" y="0">n</tspan><tspan class="cls-13" x="5.34" y="0" xml:space="preserve"> = 2</tspan></text>
  <text class="cls-10" transform="translate(417.53 185.89)"><tspan class="cls-1" x="0" y="0">n</tspan><tspan class="cls-13" x="5.34" y="0" xml:space="preserve"> = 3</tspan></text>
  <line class="cls-9" x1="317.5" y1="112.96" x2="317.5" y2="110.96"/>
  <line class="cls-9" x1="345.13" y1="112.96" x2="345.13" y2="110.96"/>
  <line class="cls-9" x1="372.77" y1="112.96" x2="372.77" y2="110.96"/>
  <line class="cls-9" x1="400.4" y1="112.96" x2="400.4" y2="110.96"/>
  <line class="cls-9" x1="287.56" y1="112.96" x2="402.7" y2="112.96"/>
  <line class="cls-9" x1="289.87" y1="135.06" x2="291.87" y2="135.06"/>
  <line class="cls-9" x1="289.87" y1="124.01" x2="291.87" y2="124.01"/>
  <line class="cls-9" x1="289.87" y1="101.9" x2="291.87" y2="101.9"/>
  <line class="cls-9" x1="289.87" y1="90.85" x2="291.87" y2="90.85"/>
  <text class="cls-2" transform="translate(398.19 122.54)"><tspan x="0" y="0">L</tspan></text>
  <text class="cls-10" transform="translate(366.76 122.54)"><tspan class="cls-13" x="0" y="0">¾</tspan><tspan class="cls-1" x="7.59" y="0">L</tspan></text>
  <text class="cls-10" transform="translate(311.49 122.54)"><tspan class="cls-13" x="0" y="0">¼</tspan><tspan class="cls-1" x="7.59" y="0">L</tspan></text>
  <text class="cls-10" transform="translate(339.13 122.54)"><tspan class="cls-13" x="0" y="0">½</tspan><tspan class="cls-1" x="7.59" y="0">L</tspan></text>
  <text class="cls-12" transform="translate(283.07 93.78)"><tspan x="0" y="0">1</tspan></text>
  <text class="cls-12" transform="translate(280 138)"><tspan x="0" y="0">-1</tspan></text>
  <line class="cls-9" x1="289.87" y1="137.52" x2="289.87" y2="88.39"/>
  <line class="cls-9" x1="317.5" y1="182.96" x2="317.5" y2="180.96"/>
  <line class="cls-9" x1="345.13" y1="182.96" x2="345.13" y2="180.96"/>
  <line class="cls-9" x1="372.77" y1="182.96" x2="372.77" y2="180.96"/>
  <line class="cls-9" x1="400.4" y1="182.96" x2="400.4" y2="180.96"/>
  <line class="cls-9" x1="287.56" y1="182.96" x2="402.7" y2="182.96"/>
  <line class="cls-9" x1="289.87" y1="205.06" x2="291.87" y2="205.06"/>
  <line class="cls-9" x1="289.87" y1="194.01" x2="291.87" y2="194.01"/>
  <line class="cls-9" x1="289.87" y1="171.9" x2="291.87" y2="171.9"/>
  <line class="cls-9" x1="289.87" y1="160.85" x2="291.87" y2="160.85"/>
  <text class="cls-2" transform="translate(398.19 192.54)"><tspan x="0" y="0">L</tspan></text>
  <text class="cls-10" transform="translate(366.76 192.54)"><tspan class="cls-13" x="0" y="0">¾</tspan><tspan class="cls-1" x="7.59" y="0">L</tspan></text>
  <text class="cls-10" transform="translate(311.49 192.54)"><tspan class="cls-13" x="0" y="0">¼</tspan><tspan class="cls-1" x="7.59" y="0">L</tspan></text>
  <text class="cls-10" transform="translate(339.13 192.54)"><tspan class="cls-13" x="0" y="0">½</tspan><tspan class="cls-1" x="7.59" y="0">L</tspan></text>
  <text class="cls-12" transform="translate(283.07 163.78)"><tspan x="0" y="0">1</tspan></text>
  <text class="cls-12" transform="translate(280 208)"><tspan x="0" y="0">-1</tspan></text>
  <line class="cls-9" x1="289.87" y1="207.52" x2="289.87" y2="158.39"/>
  <line class="cls-9" x1="177.5" y1="42.96" x2="177.5" y2="40.96"/>
  <line class="cls-9" x1="205.13" y1="42.96" x2="205.13" y2="40.96"/>
  <line class="cls-9" x1="232.77" y1="42.96" x2="232.77" y2="40.96"/>
  <line class="cls-9" x1="260.4" y1="42.96" x2="260.4" y2="40.96"/>
  <line class="cls-9" x1="147.56" y1="42.96" x2="262.7" y2="42.96"/>
  <line class="cls-9" x1="149.87" y1="65.06" x2="151.87" y2="65.06"/>
  <line class="cls-9" x1="149.87" y1="54.01" x2="151.87" y2="54.01"/>
  <line class="cls-9" x1="149.87" y1="31.9" x2="151.87" y2="31.9"/>
  <line class="cls-9" x1="149.87" y1="20.85" x2="151.87" y2="20.85"/>
  <text class="cls-2" transform="translate(258.19 52.54)"><tspan x="0" y="0">L</tspan></text>
  <text class="cls-10" transform="translate(226.76 52.54)"><tspan class="cls-13" x="0" y="0">¾</tspan><tspan class="cls-1" x="7.59" y="0">L</tspan></text>
  <text class="cls-10" transform="translate(171.49 52.54)"><tspan class="cls-13" x="0" y="0">¼</tspan><tspan class="cls-1" x="7.59" y="0">L</tspan></text>
  <text class="cls-10" transform="translate(199.13 52.54)"><tspan class="cls-13" x="0" y="0">½</tspan><tspan class="cls-1" x="7.59" y="0">L</tspan></text>
  <text class="cls-12" transform="translate(143.07 23.78)"><tspan x="0" y="0">1</tspan></text>
  <text class="cls-12" transform="translate(140 68)"><tspan x="0" y="0">-1</tspan></text>
  <line class="cls-9" x1="149.87" y1="67.52" x2="149.87" y2="18.39"/>
  <line class="cls-9" x1="177.5" y1="112.96" x2="177.5" y2="110.96"/>
  <line class="cls-9" x1="205.13" y1="112.96" x2="205.13" y2="110.96"/>
  <line class="cls-9" x1="232.77" y1="112.96" x2="232.77" y2="110.96"/>
  <line class="cls-9" x1="260.4" y1="112.96" x2="260.4" y2="110.96"/>
  <line class="cls-9" x1="147.56" y1="112.96" x2="262.7" y2="112.96"/>
  <line class="cls-9" x1="149.87" y1="135.06" x2="151.87" y2="135.06"/>
  <line class="cls-9" x1="149.87" y1="124.01" x2="151.87" y2="124.01"/>
  <line class="cls-9" x1="149.87" y1="101.9" x2="151.87" y2="101.9"/>
  <line class="cls-9" x1="149.87" y1="90.85" x2="151.87" y2="90.85"/>
  <text class="cls-2" transform="translate(258.19 122.54)"><tspan x="0" y="0">L</tspan></text>
  <text class="cls-10" transform="translate(226.76 122.54)"><tspan class="cls-13" x="0" y="0">¾</tspan><tspan class="cls-1" x="7.59" y="0">L</tspan></text>
  <text class="cls-10" transform="translate(171.49 122.54)"><tspan class="cls-13" x="0" y="0">¼</tspan><tspan class="cls-1" x="7.59" y="0">L</tspan></text>
  <text class="cls-10" transform="translate(199.13 122.54)"><tspan class="cls-13" x="0" y="0">½</tspan><tspan class="cls-1" x="7.59" y="0">L</tspan></text>
  <text class="cls-12" transform="translate(143.07 93.78)"><tspan x="0" y="0">1</tspan></text>
  <text class="cls-12" transform="translate(140 138)"><tspan x="0" y="0">-1</tspan></text>
  <line class="cls-9" x1="149.87" y1="137.52" x2="149.87" y2="88.39"/>
  <line class="cls-9" x1="177.5" y1="182.96" x2="177.5" y2="180.96"/>
  <line class="cls-9" x1="205.13" y1="182.96" x2="205.13" y2="180.96"/>
  <line class="cls-9" x1="232.77" y1="182.96" x2="232.77" y2="180.96"/>
  <line class="cls-9" x1="260.4" y1="182.96" x2="260.4" y2="180.96"/>
  <line class="cls-9" x1="147.56" y1="182.96" x2="262.7" y2="182.96"/>
  <line class="cls-9" x1="149.87" y1="205.06" x2="151.87" y2="205.06"/>
  <line class="cls-9" x1="149.87" y1="194.01" x2="151.87" y2="194.01"/>
  <line class="cls-9" x1="149.87" y1="171.9" x2="151.87" y2="171.9"/>
  <line class="cls-9" x1="149.87" y1="160.85" x2="151.87" y2="160.85"/>
  <text class="cls-2" transform="translate(258.19 192.54)"><tspan x="0" y="0">L</tspan></text>
  <text class="cls-10" transform="translate(226.76 192.54)"><tspan class="cls-13" x="0" y="0">¾</tspan><tspan class="cls-1" x="7.59" y="0">L</tspan></text>
  <text class="cls-10" transform="translate(171.49 192.54)"><tspan class="cls-13" x="0" y="0">¼</tspan><tspan class="cls-1" x="7.59" y="0">L</tspan></text>
  <text class="cls-10" transform="translate(199.13 192.54)"><tspan class="cls-13" x="0" y="0">½</tspan><tspan class="cls-1" x="7.59" y="0">L</tspan></text>
  <text class="cls-12" transform="translate(143.07 163.78)"><tspan x="0" y="0">1</tspan></text>
  <text class="cls-12" transform="translate(140 208)"><tspan x="0" y="0">-1</tspan></text>
  <line class="cls-9" x1="149.87" y1="207.52" x2="149.87" y2="158.39"/>
  <line class="cls-9" x1="37.5" y1="42.96" x2="37.5" y2="40.96"/>
  <line class="cls-9" x1="65.13" y1="42.96" x2="65.13" y2="40.96"/>
  <line class="cls-9" x1="92.77" y1="42.96" x2="92.77" y2="40.96"/>
  <line class="cls-9" x1="120.4" y1="42.96" x2="120.4" y2="40.96"/>
  <line class="cls-9" x1="7.56" y1="42.96" x2="122.7" y2="42.96"/>
  <line class="cls-9" x1="9.87" y1="65.06" x2="11.87" y2="65.06"/>
  <line class="cls-9" x1="9.87" y1="54.01" x2="11.87" y2="54.01"/>
  <line class="cls-9" x1="9.87" y1="31.9" x2="11.87" y2="31.9"/>
  <line class="cls-9" x1="9.87" y1="20.85" x2="11.87" y2="20.85"/>
  <text class="cls-2" transform="translate(118.19 52.54)"><tspan x="0" y="0">L</tspan></text>
  <text class="cls-10" transform="translate(86.76 52.54)"><tspan class="cls-13" x="0" y="0">¾</tspan><tspan class="cls-1" x="7.59" y="0">L</tspan></text>
  <text class="cls-10" transform="translate(31.49 52.54)"><tspan class="cls-13" x="0" y="0">¼</tspan><tspan class="cls-1" x="7.59" y="0">L</tspan></text>
  <text class="cls-10" transform="translate(59.13 52.54)"><tspan class="cls-13" x="0" y="0">½</tspan><tspan class="cls-1" x="7.59" y="0">L</tspan></text>
  <text class="cls-12" transform="translate(3.07 23.78)"><tspan x="0" y="0">1</tspan></text>
  <text class="cls-12" transform="translate(0 68)"><tspan x="0" y="0">-1</tspan></text>
  <line class="cls-9" x1="9.87" y1="67.52" x2="9.87" y2="18.39"/>
  <line class="cls-9" x1="37.5" y1="112.96" x2="37.5" y2="110.96"/>
  <line class="cls-9" x1="65.13" y1="112.96" x2="65.13" y2="110.96"/>
  <line class="cls-9" x1="92.77" y1="112.96" x2="92.77" y2="110.96"/>
  <line class="cls-9" x1="120.4" y1="112.96" x2="120.4" y2="110.96"/>
  <line class="cls-9" x1="7.56" y1="112.96" x2="122.7" y2="112.96"/>
  <line class="cls-9" x1="9.87" y1="135.06" x2="11.87" y2="135.06"/>
  <line class="cls-9" x1="9.87" y1="124.01" x2="11.87" y2="124.01"/>
  <line class="cls-9" x1="9.87" y1="101.9" x2="11.87" y2="101.9"/>
  <line class="cls-9" x1="9.87" y1="90.85" x2="11.87" y2="90.85"/>
  <text class="cls-2" transform="translate(118.19 122.54)"><tspan x="0" y="0">L</tspan></text>
  <text class="cls-10" transform="translate(86.76 122.54)"><tspan class="cls-13" x="0" y="0">¾</tspan><tspan class="cls-1" x="7.59" y="0">L</tspan></text>
  <text class="cls-10" transform="translate(31.49 122.54)"><tspan class="cls-13" x="0" y="0">¼</tspan><tspan class="cls-1" x="7.59" y="0">L</tspan></text>
  <text class="cls-10" transform="translate(59.13 122.54)"><tspan class="cls-13" x="0" y="0">½</tspan><tspan class="cls-1" x="7.59" y="0">L</tspan></text>
  <text class="cls-12" transform="translate(3.07 93.78)"><tspan x="0" y="0">1</tspan></text>
  <text class="cls-12" transform="translate(0 138)"><tspan x="0" y="0">-1</tspan></text>
  <line class="cls-9" x1="9.87" y1="137.52" x2="9.87" y2="88.39"/>
  <line class="cls-9" x1="37.5" y1="182.96" x2="37.5" y2="180.96"/>
  <line class="cls-9" x1="65.13" y1="182.96" x2="65.13" y2="180.96"/>
  <line class="cls-9" x1="92.77" y1="182.96" x2="92.77" y2="180.96"/>
  <line class="cls-9" x1="120.4" y1="182.96" x2="120.4" y2="180.96"/>
  <line class="cls-9" x1="7.56" y1="182.96" x2="122.7" y2="182.96"/>
  <line class="cls-9" x1="9.87" y1="205.06" x2="11.87" y2="205.06"/>
  <line class="cls-9" x1="9.87" y1="194.01" x2="11.87" y2="194.01"/>
  <line class="cls-9" x1="9.87" y1="171.9" x2="11.87" y2="171.9"/>
  <line class="cls-9" x1="9.87" y1="160.85" x2="11.87" y2="160.85"/>
  <text class="cls-2" transform="translate(118.19 192.54)"><tspan x="0" y="0">L</tspan></text>
  <text class="cls-10" transform="translate(86.76 192.54)"><tspan class="cls-13" x="0" y="0">¾</tspan><tspan class="cls-1" x="7.59" y="0">L</tspan></text>
  <text class="cls-10" transform="translate(31.49 192.54)"><tspan class="cls-13" x="0" y="0">¼</tspan><tspan class="cls-1" x="7.59" y="0">L</tspan></text>
  <text class="cls-10" transform="translate(59.13 192.54)"><tspan class="cls-13" x="0" y="0">½</tspan><tspan class="cls-1" x="7.59" y="0">L</tspan></text>
  <text class="cls-12" transform="translate(3.07 163.78)"><tspan x="0" y="0">1</tspan></text>
  <text class="cls-12" transform="translate(0 208)"><tspan x="0" y="0">-1</tspan></text>
  <line class="cls-9" x1="9.87" y1="207.52" x2="9.87" y2="158.39"/>
  <polyline class="cls-8" points="9.87 42.96 9.9 42.98 9.93 43 10 43.04 10.14 43.13 10.41 43.3 10.95 43.64 12.04 44.32 14.39 45.79 16.58 47.15 18.74 48.47 21.07 49.88 23.25 51.17 25.62 52.52 27.93 53.82 30.1 54.98 32.44 56.19 34.63 57.26 36.78 58.26 39.11 59.29 41.28 60.18 43.64 61.06 45.95 61.86 48.11 62.53 50.45 63.16 50.48 63.17 50.52 63.18 50.58 63.2 50.99 63.3 51.54 63.43 52.63 63.68 52.71 63.7 52.78 63.71 52.93 63.75 53.22 63.81 53.81 63.93 55 64.15 55.07 64.16 55.14 64.18 55.29 64.2 55.58 64.25 56.16 64.35 56.2 64.35 56.23 64.36 56.3 64.37 56.45 64.39 56.74 64.44 57.32 64.52 57.36 64.52 57.39 64.53 57.59 64.56 57.86 64.59 58.4 64.66 58.95 64.72 59.49 64.78 59.52 64.78 59.56 64.79 59.64 64.79 59.78 64.81 60.08 64.83 60.11 64.84 60.15 64.84 60.22 64.85 60.37 64.86 60.66 64.88 60.81 64.9 60.96 64.91 61.25 64.93 61.84 64.97 61.87 64.97 61.91 64.97 61.97 64.97 62.11 64.98 62.39 65 62.42 65 62.46 65 62.52 65 62.66 65.01 62.93 65.02 62.97 65.02 63.07 65.02 63.21 65.03 63.28 65.03 63.35 65.03 63.48 65.04 63.52 65.04 63.55 65.04 63.62 65.04 63.76 65.04 63.79 65.05 63.83 65.05 63.89 65.05 64.03 65.05 64.06 65.05 64.1 65.05 64.17 65.05 64.2 65.05 64.23 65.06 64.3 65.06 64.37 65.06 64.43 65.06 64.47 65.06 64.5 65.06 64.6 65.06 64.64 65.06 64.77 65.06 64.8 65.06 65.48 65.06 65.51 65.06 65.64 65.06 65.68 65.06 65.78 65.06 65.81 65.06 65.85 65.06 65.91 65.06 65.95 65.06 65.98 65.06 66.05 65.06 66.18 65.05 66.22 65.05 66.25 65.05 66.33 65.05 66.47 65.05 66.51 65.04 66.55 65.04 66.62 65.04 66.77 65.04 66.84 65.04 66.91 65.03 67.39 65.02 67.42 65.01 67.49 65.01 67.93 64.99 67.97 64.99 68 64.99 68.22 64.98 68.52 64.96 68.55 64.96 68.58 64.96 68.65 64.95 68.79 64.94 69.06 64.93 69.6 64.88 69.64 64.88 69.67 64.88 69.74 64.87 69.88 64.86 70.15 64.84 70.69 64.79 70.73 64.78 70.77 64.78 70.84 64.77 70.99 64.76 71.28 64.73 71.87 64.66 71.91 64.65 71.95 64.65 72.02 64.64 72.17 64.62 72.46 64.58 73.05 64.5 73.09 64.5 73.12 64.49 73.2 64.48 73.34 64.46 73.63 64.42 74.21 64.33 75.37 64.13 75.44 64.12 75.5 64.11 75.64 64.08 75.91 64.03 76.45 63.93 77.53 63.7 79.87 63.15 82.06 62.55 84.21 61.89 86.53 61.1 88.7 60.28 91.06 59.33 93.25 58.37 95.41 57.37 97.75 56.22 99.93 55.1 102.29 53.84 104.61 52.54 106.78 51.3 109.12 49.92 111.32 48.6 113.46 47.28 115.8 45.84 117.97 44.48 118.01 44.46 118.05 44.43 118.12 44.38 118.27 44.29 119.18 43.72 119.22 43.69 119.26 43.67 119.34 43.62 119.49 43.53 119.79 43.34 119.83 43.31 119.87 43.29 119.94 43.24 120.09 43.15 120.13 43.12 120.17 43.1 120.25 43.05 120.32 43 120.36 42.98 120.4 42.96"/>
  <polyline class="cls-5" points="9.87 42.96 9.9 42.94 9.93 42.91 10 42.87 10.14 42.79 10.41 42.62 10.95 42.28 12.04 41.59 14.39 40.12 16.58 38.76 18.74 37.44 21.07 36.03 23.25 34.75 25.62 33.39 27.93 32.1 30.1 30.93 32.44 29.72 34.63 28.65 36.78 27.65 39.11 26.63 41.28 25.74 43.64 24.85 45.95 24.05 48.11 23.39 50.45 22.75 50.52 22.73 50.58 22.71 50.99 22.61 51.54 22.48 52.63 22.23 52.67 22.22 52.71 22.21 52.93 22.17 53.22 22.1 53.81 21.98 55 21.76 55.07 21.75 55.14 21.73 55.29 21.71 55.58 21.66 56.16 21.56 56.23 21.55 56.3 21.54 56.45 21.52 56.74 21.48 57.32 21.39 57.36 21.39 57.39 21.38 57.86 21.32 58.4 21.25 58.54 21.24 58.68 21.22 58.95 21.19 59.49 21.13 59.52 21.13 59.56 21.13 59.64 21.12 59.78 21.1 60.08 21.08 60.11 21.07 60.15 21.07 60.22 21.06 60.37 21.05 60.66 21.03 60.74 21.02 60.81 21.02 61.25 20.98 61.84 20.95 61.87 20.94 61.91 20.94 61.97 20.94 62.11 20.93 62.39 20.92 62.42 20.92 62.46 20.91 62.52 20.91 62.66 20.9 62.93 20.89 62.97 20.89 63.07 20.89 63.21 20.88 63.28 20.88 63.35 20.88 63.48 20.87 63.52 20.87 63.55 20.87 63.62 20.87 63.76 20.87 63.79 20.87 63.83 20.87 63.89 20.86 64.03 20.86 64.06 20.86 64.1 20.86 64.17 20.86 64.2 20.86 64.23 20.86 64.3 20.86 64.33 20.86 64.37 20.85 64.43 20.85 64.47 20.85 64.57 20.85 64.6 20.85 64.7 20.85 64.74 20.85 64.97 20.85 65.01 20.85 65.24 20.85 65.28 20.85 65.51 20.85 65.54 20.85 65.68 20.85 65.71 20.85 65.78 20.85 65.81 20.85 65.85 20.85 65.91 20.86 65.98 20.86 66.05 20.86 66.18 20.86 66.22 20.86 66.25 20.86 66.33 20.86 66.47 20.87 66.51 20.87 66.62 20.87 66.77 20.87 66.8 20.88 66.84 20.88 67.42 20.9 67.49 20.9 67.93 20.92 67.97 20.92 68 20.92 68.22 20.94 68.52 20.95 68.55 20.95 68.58 20.96 68.65 20.96 68.79 20.97 69.06 20.99 69.6 21.03 69.64 21.03 69.67 21.03 69.74 21.04 69.88 21.05 70.15 21.07 70.69 21.13 70.73 21.13 70.77 21.13 70.84 21.14 70.99 21.16 71.28 21.19 71.87 21.25 71.91 21.26 71.95 21.26 72.02 21.27 72.17 21.29 72.46 21.33 73.05 21.41 73.09 21.41 73.12 21.42 73.2 21.43 73.34 21.45 73.63 21.49 74.21 21.58 75.37 21.78 75.4 21.79 75.44 21.79 75.5 21.8 75.64 21.83 75.91 21.88 76.45 21.98 77.53 22.21 79.87 22.76 82.06 23.36 84.21 24.02 86.53 24.81 88.7 25.63 91.06 26.59 93.25 27.54 95.41 28.54 97.75 29.69 99.93 30.81 102.29 32.07 104.61 33.37 106.78 34.61 109.12 35.99 111.32 37.31 113.46 38.63 115.8 40.07 117.97 41.43 118.01 41.46 118.12 41.53 118.27 41.62 118.58 41.81 119.18 42.19 119.22 42.22 119.26 42.24 119.34 42.29 119.49 42.38 119.79 42.57 119.83 42.6 119.87 42.62 119.94 42.67 120.09 42.76 120.13 42.79 120.17 42.81 120.25 42.86 120.32 42.91 120.36 42.93 120.4 42.96"/>
  <polyline class="cls-7" points="9.87 112.96 9.9 113 9.93 113.04 10 113.13 10.14 113.3 10.41 113.64 10.95 114.32 12.04 115.68 14.39 118.58 16.58 121.19 18.74 123.64 21.07 126.1 23.25 128.2 25.62 130.21 25.69 130.26 25.76 130.32 25.9 130.43 26.19 130.65 26.77 131.08 27.93 131.87 28 131.92 28.21 132.05 28.47 132.22 29.02 132.54 29.08 132.58 29.15 132.62 29.29 132.7 29.56 132.85 30.1 133.13 30.13 133.15 30.17 133.17 30.24 133.21 30.39 133.28 30.68 133.42 31.27 133.69 31.31 133.71 31.34 133.72 31.42 133.75 31.56 133.82 31.86 133.94 32.44 134.16 32.48 134.17 32.51 134.18 32.58 134.2 32.72 134.25 32.99 134.34 33.03 134.35 33.06 134.36 33.13 134.38 33.27 134.43 33.54 134.5 33.61 134.52 33.68 134.54 33.81 134.58 34.09 134.65 34.12 134.66 34.15 134.66 34.22 134.68 34.36 134.71 34.63 134.77 34.67 134.78 34.7 134.78 34.77 134.8 34.9 134.82 34.94 134.83 34.97 134.83 35.04 134.85 35.17 134.87 35.2 134.87 35.24 134.88 35.3 134.89 35.44 134.91 35.71 134.95 35.74 134.95 35.77 134.96 35.84 134.96 35.97 134.98 36.01 134.98 36.04 134.99 36.11 134.99 36.24 135.01 36.28 135.01 36.31 135.01 36.38 135.02 36.44 135.02 36.51 135.03 36.55 135.03 36.58 135.03 36.65 135.04 36.68 135.04 36.71 135.04 36.78 135.04 36.82 135.05 36.96 135.05 37 135.05 37.07 135.06 37.18 135.06 37.22 135.06 37.25 135.06 37.29 135.06 37.33 135.06 37.65 135.06 37.69 135.06 37.73 135.06 37.76 135.06 37.8 135.06 37.84 135.06 37.87 135.06 38.13 135.05 38.16 135.05 38.24 135.04 38.27 135.04 38.31 135.04 38.38 135.03 38.67 135.01 38.82 135 38.89 134.99 38.96 134.99 39.11 134.97 39.14 134.97 39.25 134.95 39.38 134.94 39.42 134.93 39.45 134.93 39.52 134.92 39.65 134.9 39.79 134.88 39.92 134.85 40.2 134.8 40.33 134.78 40.47 134.75 40.74 134.69 41.28 134.55 41.32 134.54 41.36 134.53 41.43 134.51 41.58 134.47 41.87 134.38 42.46 134.19 42.5 134.18 42.53 134.16 42.61 134.14 42.75 134.08 43.05 133.97 43.64 133.73 43.71 133.7 43.78 133.67 43.93 133.6 44.22 133.47 44.8 133.19 45.95 132.56 46.09 132.48 46.22 132.4 46.49 132.24 47.03 131.9 48.11 131.16 48.25 131.06 48.4 130.95 48.69 130.73 49.28 130.29 50.45 129.34 52.63 127.38 55 125 57.32 122.45 59.49 119.93 61.84 117.07 64.03 114.34 66.18 111.64 68.52 108.73 70.69 106.08 73.05 103.34 75.37 100.81 77.53 98.63 79.87 96.52 79.91 96.5 79.94 96.47 80.01 96.41 80.15 96.3 80.42 96.07 80.97 95.64 82.06 94.82 82.09 94.79 82.13 94.77 82.19 94.72 82.33 94.63 82.6 94.44 83.13 94.08 83.17 94.06 83.2 94.04 83.27 93.99 83.4 93.91 83.67 93.74 84.21 93.42 84.24 93.39 84.28 93.37 84.35 93.33 84.5 93.25 84.79 93.08 85.37 92.78 85.41 92.76 85.44 92.74 85.51 92.7 85.66 92.63 85.95 92.49 86.53 92.22 86.57 92.21 86.6 92.19 86.67 92.16 86.8 92.11 87.08 92 87.62 91.79 87.65 91.78 87.75 91.74 87.89 91.69 88.16 91.6 88.7 91.44 88.78 91.42 88.85 91.4 89 91.35 89.29 91.28 89.37 91.26 89.44 91.24 89.59 91.21 89.88 91.15 89.92 91.14 89.95 91.13 90.03 91.12 90.17 91.09 90.21 91.08 90.32 91.06 90.47 91.04 90.51 91.03 90.54 91.03 90.62 91.01 90.76 90.99 91.06 90.95 91.09 90.95 91.13 90.95 91.19 90.94 91.33 90.92 91.37 90.92 91.4 90.92 91.47 90.91 91.61 90.9 91.64 90.9 91.68 90.89 91.74 90.89 91.81 90.88 91.88 90.88 91.92 90.88 91.95 90.87 92.02 90.87 92.05 90.87 92.09 90.87 92.16 90.86 92.19 90.86 92.22 90.86 92.26 90.86 92.29 90.86 92.33 90.86 92.36 90.86 92.4 90.85 92.43 90.85 92.46 90.85 92.5 90.85 92.53 90.85 92.57 90.85 92.67 90.85 92.71 90.85 92.81 90.85 92.84 90.85 92.95 90.85 92.98 90.85 93.01 90.85 93.05 90.85 93.08 90.85 93.12 90.85 93.15 90.85 93.19 90.86 93.25 90.86 93.32 90.86 93.39 90.86 93.42 90.87 93.46 90.87 93.52 90.87 93.56 90.87 93.59 90.87 93.66 90.88 93.79 90.89 93.83 90.89 93.86 90.89 93.93 90.9 94.06 90.91 94.1 90.91 94.13 90.92 94.2 90.92 94.33 90.94 94.47 90.95 94.6 90.97 94.64 90.97 94.67 90.98 94.74 90.99 94.87 91.01 94.94 91.02 95 91.03 95.14 91.05 95.41 91.1 95.45 91.11 95.48 91.11 95.7 91.16 95.99 91.22 96.03 91.23 96.07 91.24 96.14 91.26 96.29 91.29 96.58 91.37 96.61 91.38 96.72 91.41 96.87 91.45 97.16 91.54 97.75 91.73 97.81 91.75 97.88 91.78 98.02 91.83 98.29 91.93 98.84 92.15 98.87 92.17 98.91 92.18 98.97 92.21 99.11 92.27 99.38 92.4 99.93 92.66 99.96 92.68 100 92.69 100.08 92.73 100.22 92.81 100.52 92.96 101.11 93.29 102.29 94.01 102.44 94.11 102.58 94.2 102.87 94.4 103.45 94.81 104.61 95.68 106.78 97.5 109.12 99.74 111.32 102.04 113.46 104.47 115.8 107.24 117.97 109.91 118.01 109.96 118.05 110.01 118.12 110.1 118.27 110.29 118.58 110.67 119.18 111.43 119.22 111.48 119.26 111.53 119.34 111.62 119.49 111.81 119.79 112.19 119.83 112.24 119.87 112.29 119.94 112.38 120.09 112.57 120.13 112.62 120.17 112.67 120.25 112.76 120.32 112.86 120.36 112.91 120.4 112.96"/>
  <polyline class="cls-6" points="9.87 112.96 9.93 112.87 10 112.79 10.14 112.62 10.41 112.28 10.95 111.59 12.04 110.24 14.39 107.34 16.58 104.72 18.74 102.28 21.07 99.81 23.25 97.71 25.62 95.71 25.65 95.68 25.69 95.65 25.76 95.59 25.9 95.48 26.19 95.26 26.77 94.83 27.93 94.04 28 93.99 28.21 93.87 28.47 93.7 29.02 93.37 29.05 93.35 29.08 93.33 29.15 93.29 29.29 93.22 29.56 93.07 30.1 92.78 30.13 92.76 30.17 92.74 30.24 92.7 30.39 92.63 30.68 92.49 31.27 92.22 31.31 92.21 31.34 92.19 31.42 92.16 31.56 92.1 31.86 91.98 32.44 91.76 32.48 91.74 32.51 91.73 32.58 91.71 32.72 91.66 32.99 91.57 33.03 91.56 33.06 91.55 33.13 91.53 33.27 91.49 33.54 91.41 33.57 91.4 33.61 91.39 33.68 91.37 33.81 91.33 34.09 91.26 34.12 91.26 34.15 91.25 34.22 91.23 34.36 91.2 34.63 91.14 34.67 91.14 34.7 91.13 34.77 91.12 34.9 91.09 34.94 91.08 34.97 91.08 35.04 91.07 35.17 91.04 35.2 91.04 35.24 91.03 35.3 91.02 35.44 91 35.71 90.96 35.77 90.96 35.84 90.95 35.97 90.93 36.01 90.93 36.04 90.93 36.11 90.92 36.24 90.91 36.28 90.9 36.31 90.9 36.38 90.9 36.44 90.89 36.51 90.88 36.55 90.88 36.58 90.88 36.65 90.88 36.68 90.87 36.71 90.87 36.78 90.87 36.82 90.87 36.89 90.86 36.93 90.86 37.07 90.86 37.11 90.86 37.18 90.85 37.22 90.85 37.25 90.85 37.29 90.85 37.33 90.85 37.4 90.85 37.44 90.85 37.54 90.85 37.58 90.85 37.69 90.85 37.73 90.85 37.76 90.85 37.8 90.85 37.84 90.85 38.16 90.87 38.24 90.87 38.27 90.87 38.31 90.87 38.38 90.88 38.53 90.89 38.56 90.89 38.6 90.89 38.67 90.9 38.82 90.91 38.86 90.92 38.89 90.92 38.96 90.93 39.11 90.94 39.14 90.95 39.18 90.95 39.25 90.96 39.38 90.98 39.45 90.99 39.52 91 39.65 91.01 39.69 91.02 39.72 91.03 39.79 91.04 39.92 91.06 40.2 91.11 40.23 91.12 40.33 91.14 40.47 91.16 40.74 91.22 41.28 91.36 41.32 91.37 41.36 91.38 41.43 91.4 41.58 91.44 41.87 91.53 42.46 91.72 42.5 91.74 42.61 91.78 42.75 91.83 43.05 91.94 43.64 92.18 43.71 92.21 43.78 92.25 43.93 92.31 44.22 92.44 44.8 92.72 45.95 93.35 46.09 93.43 46.22 93.51 46.49 93.68 47.03 94.02 48.11 94.75 48.15 94.78 48.25 94.85 48.4 94.96 48.69 95.18 49.28 95.62 50.45 96.57 52.63 98.54 55 100.91 57.32 103.46 59.49 105.98 61.84 108.84 64.03 111.57 66.18 114.28 68.52 117.18 70.69 119.83 73.05 122.58 75.37 125.11 77.53 127.28 79.87 129.39 79.91 129.42 80.01 129.5 80.15 129.62 80.42 129.84 80.97 130.28 82.06 131.1 82.13 131.14 82.19 131.19 82.33 131.29 82.6 131.47 83.13 131.83 83.17 131.85 83.2 131.87 83.27 131.92 83.4 132 83.67 132.17 84.21 132.5 84.24 132.52 84.5 132.66 84.79 132.83 85.37 133.14 85.41 133.16 85.44 133.18 85.51 133.21 85.66 133.28 85.95 133.43 86.53 133.69 86.57 133.7 86.6 133.72 86.67 133.75 86.8 133.81 87.08 133.92 87.62 134.12 87.65 134.13 87.69 134.15 87.75 134.17 87.89 134.22 88.16 134.31 88.7 134.48 88.78 134.5 88.85 134.52 89 134.56 89.29 134.63 89.33 134.64 89.37 134.65 89.44 134.67 89.59 134.7 89.88 134.77 89.92 134.77 89.95 134.78 90.03 134.79 90.17 134.82 90.21 134.83 90.32 134.85 90.47 134.87 90.51 134.88 90.54 134.89 90.62 134.9 90.76 134.92 91.06 134.96 91.09 134.96 91.13 134.97 91.19 134.97 91.33 134.99 91.37 134.99 91.4 135 91.47 135 91.61 135.01 91.64 135.02 91.68 135.02 91.74 135.03 91.81 135.03 91.88 135.03 91.92 135.04 91.95 135.04 92.02 135.04 92.05 135.04 92.09 135.05 92.16 135.05 92.19 135.05 92.22 135.05 92.26 135.05 92.29 135.05 92.36 135.06 92.4 135.06 92.43 135.06 92.46 135.06 92.5 135.06 92.53 135.06 92.57 135.06 92.6 135.06 92.91 135.06 92.95 135.06 93.01 135.06 93.05 135.06 93.08 135.06 93.12 135.06 93.15 135.06 93.19 135.06 93.25 135.05 93.32 135.05 93.39 135.05 93.42 135.05 93.46 135.04 93.52 135.04 93.56 135.04 93.59 135.04 93.66 135.03 93.79 135.02 93.83 135.02 93.86 135.02 93.93 135.01 94.06 135 94.1 135 94.13 135 94.2 134.99 94.33 134.97 94.47 134.96 94.6 134.94 94.64 134.94 94.67 134.93 94.74 134.92 94.87 134.9 94.94 134.89 95 134.88 95.14 134.86 95.41 134.81 95.45 134.81 95.48 134.8 95.56 134.78 95.7 134.75 95.99 134.69 96.03 134.68 96.07 134.67 96.14 134.66 96.29 134.62 96.58 134.54 96.61 134.53 96.65 134.53 96.72 134.5 96.87 134.46 97.16 134.38 97.75 134.18 97.81 134.16 97.88 134.13 98.02 134.08 98.29 133.98 98.84 133.76 98.87 133.74 98.91 133.73 98.97 133.7 99.11 133.64 99.38 133.52 99.93 133.25 99.96 133.24 100 133.22 100.08 133.18 100.22 133.1 100.52 132.95 101.11 132.62 102.29 131.9 102.36 131.85 102.44 131.8 102.58 131.71 102.87 131.51 103.45 131.11 104.61 130.24 106.78 128.41 109.12 126.17 111.32 123.87 113.46 121.45 115.8 118.68 117.97 116 118.01 115.95 118.05 115.9 118.12 115.81 118.27 115.62 118.58 115.24 119.18 114.48 119.26 114.38 119.34 114.29 119.49 114.1 119.79 113.72 119.83 113.67 119.87 113.62 120.09 113.34 120.13 113.29 120.17 113.24 120.25 113.15 120.28 113.1 120.32 113.05 120.36 113 120.4 112.96"/>
  <polyline class="cls-4" points="9.87 182.96 10.14 183.47 10.41 183.98 10.95 185 12.04 187.02 14.39 191.27 16.58 194.94 16.62 194.99 16.65 195.04 16.72 195.15 16.85 195.36 17.12 195.78 17.66 196.59 18.74 198.13 18.81 198.23 18.88 198.33 19.03 198.52 19.32 198.91 19.91 199.65 19.94 199.7 19.98 199.74 20.2 200.01 20.49 200.35 21.07 201.01 21.11 201.05 21.21 201.16 21.35 201.3 21.62 201.58 22.16 202.12 22.2 202.15 22.23 202.18 22.3 202.24 22.44 202.37 22.71 202.61 23.25 203.06 23.33 203.11 23.4 203.17 23.55 203.28 23.84 203.49 23.88 203.52 23.92 203.54 23.99 203.59 24.14 203.69 24.43 203.88 24.51 203.92 24.73 204.05 25.02 204.21 25.06 204.23 25.1 204.25 25.17 204.29 25.32 204.36 25.62 204.49 25.69 204.52 25.76 204.55 25.9 204.61 25.94 204.62 26.05 204.66 26.19 204.71 26.27 204.73 26.34 204.76 26.49 204.8 26.52 204.81 26.56 204.82 26.63 204.84 26.77 204.88 26.81 204.89 26.85 204.9 26.92 204.91 26.96 204.92 26.99 204.93 27.06 204.94 27.1 204.95 27.14 204.96 27.21 204.97 27.36 204.99 27.39 205 27.43 205 27.5 205.01 27.54 205.02 27.57 205.02 27.64 205.03 27.68 205.03 27.72 205.04 27.75 205.04 27.79 205.04 27.83 205.04 27.93 205.05 28.17 205.06 28.41 205.06 28.64 205.05 28.75 205.04 28.78 205.04 28.81 205.04 28.88 205.03 28.92 205.03 28.95 205.03 29.05 205.02 29.08 205.01 29.15 205 29.18 205 29.32 204.98 29.35 204.97 29.42 204.96 29.59 204.93 29.62 204.92 29.69 204.9 29.83 204.87 29.86 204.86 29.9 204.85 29.96 204.84 30.1 204.8 30.13 204.79 30.17 204.78 30.24 204.76 30.39 204.71 30.68 204.6 30.72 204.59 30.76 204.57 30.83 204.54 30.98 204.48 31.27 204.35 31.31 204.33 31.34 204.32 31.42 204.28 31.56 204.21 31.86 204.05 32.44 203.69 32.48 203.67 32.51 203.64 32.58 203.6 32.72 203.5 32.99 203.31 33.54 202.88 33.61 202.83 33.68 202.77 33.81 202.66 34.09 202.42 34.63 201.91 34.67 201.87 34.7 201.84 34.77 201.77 34.9 201.64 35.17 201.37 35.71 200.79 36.78 199.52 36.82 199.47 36.85 199.43 37.07 199.15 37.36 198.77 37.94 197.98 39.11 196.3 41.28 192.82 43.64 188.68 45.95 184.38 48.11 180.33 50.45 176.03 52.63 172.26 55 168.6 55.03 168.55 55.07 168.5 55.14 168.4 55.29 168.19 55.58 167.79 56.16 167.01 56.2 166.96 56.23 166.92 56.3 166.82 56.45 166.64 56.74 166.27 57.32 165.57 57.46 165.42 57.59 165.26 57.86 164.96 58.4 164.39 58.44 164.35 58.68 164.12 58.95 163.85 59.49 163.36 59.52 163.33 59.56 163.3 59.64 163.23 59.78 163.11 60.08 162.87 60.11 162.84 60.22 162.76 60.37 162.65 60.66 162.44 60.7 162.41 60.74 162.38 60.81 162.33 60.96 162.24 61.25 162.05 61.84 161.72 61.87 161.7 61.91 161.68 61.97 161.65 62.11 161.58 62.39 161.45 62.42 161.44 62.46 161.42 62.52 161.4 62.66 161.34 62.93 161.24 62.97 161.22 63 161.21 63.07 161.19 63.21 161.15 63.28 161.13 63.35 161.11 63.48 161.07 63.52 161.06 63.55 161.05 63.62 161.03 63.76 161 63.79 160.99 63.83 160.99 63.89 160.97 64.03 160.95 64.06 160.94 64.1 160.94 64.2 160.92 64.23 160.91 64.3 160.91 64.33 160.9 64.37 160.9 64.43 160.89 64.47 160.89 64.5 160.88 64.57 160.88 64.6 160.87 64.74 160.86 64.77 160.86 64.91 160.85 64.94 160.85 65.01 160.85 65.07 160.85 65.11 160.85 65.17 160.85 65.21 160.85 65.24 160.85 65.28 160.85 65.31 160.85 65.44 160.86 65.48 160.86 65.51 160.86 65.58 160.87 65.64 160.87 65.71 160.88 65.78 160.88 65.81 160.89 65.95 160.9 65.98 160.91 66.05 160.92 66.18 160.94 66.25 160.95 66.47 160.99 66.51 161 66.55 161.01 66.62 161.03 66.8 161.07 66.84 161.08 66.91 161.1 67.06 161.15 67.35 161.24 67.42 161.27 67.49 161.3 67.64 161.35 67.93 161.48 67.97 161.49 68 161.51 68.08 161.54 68.22 161.61 68.52 161.76 68.55 161.78 68.58 161.8 68.65 161.84 68.79 161.92 69.06 162.08 69.6 162.44 69.64 162.46 69.67 162.49 69.74 162.53 69.88 162.63 70.15 162.84 70.69 163.29 70.73 163.32 70.77 163.35 70.84 163.42 70.99 163.55 71.28 163.82 71.87 164.4 73.05 165.7 73.09 165.75 73.12 165.79 73.2 165.88 73.34 166.05 73.63 166.41 74.21 167.15 75.37 168.75 77.53 172.09 79.87 176.13 82.06 180.15 84.21 184.18 86.53 188.51 88.7 192.35 91.06 196.15 91.09 196.21 91.13 196.26 91.19 196.36 91.33 196.57 91.61 196.97 92.16 197.76 93.25 199.23 93.32 199.31 93.39 199.4 93.52 199.57 93.79 199.9 94.33 200.53 94.37 200.57 94.4 200.61 94.47 200.68 94.6 200.83 94.87 201.13 95.41 201.69 95.48 201.76 95.56 201.83 95.7 201.97 95.99 202.25 96.58 202.76 96.72 202.88 96.87 203 97.16 203.23 97.75 203.64 97.78 203.66 97.88 203.73 98.02 203.82 98.29 203.98 98.33 204 98.43 204.06 98.56 204.13 98.84 204.28 98.87 204.29 98.91 204.31 98.97 204.34 99.11 204.41 99.38 204.52 99.42 204.54 99.45 204.55 99.52 204.58 99.65 204.63 99.93 204.73 99.96 204.74 100 204.75 100.08 204.77 100.22 204.82 100.3 204.84 100.37 204.86 100.52 204.89 100.59 204.91 100.67 204.93 100.7 204.93 100.74 204.94 100.81 204.95 100.89 204.97 100.96 204.98 101.11 205 101.15 205.01 101.18 205.01 101.26 205.02 101.29 205.03 101.33 205.03 101.4 205.04 101.44 205.04 101.52 205.04 101.55 205.05 101.59 205.05 101.63 205.05 101.66 205.05 101.7 205.06 101.74 205.06 101.81 205.06 101.85 205.06 101.89 205.06 102.07 205.06 102.11 205.06 102.14 205.06 102.22 205.06 102.25 205.06 102.29 205.05 102.33 205.05 102.44 205.04 102.47 205.04 102.51 205.04 102.58 205.03 102.65 205.03 102.73 205.02 102.76 205.01 102.8 205.01 102.91 204.99 102.94 204.99 103.02 204.98 103.09 204.96 103.16 204.95 103.2 204.94 103.23 204.94 103.31 204.92 103.45 204.89 103.49 204.88 103.52 204.87 103.6 204.85 103.74 204.81 103.81 204.79 103.89 204.77 104.03 204.72 104.07 204.71 104.11 204.7 104.18 204.67 104.32 204.62 104.61 204.51 104.68 204.48 104.75 204.45 104.88 204.39 105.15 204.26 105.22 204.22 105.29 204.19 105.42 204.11 105.69 203.96 105.73 203.94 105.76 203.92 105.83 203.88 105.96 203.8 106.24 203.62 106.78 203.23 106.85 203.18 106.92 203.12 107.07 203.01 107.36 202.77 107.95 202.25 107.99 202.22 108.02 202.19 108.1 202.12 108.24 201.98 108.54 201.69 109.12 201.08 109.16 201.04 109.19 201.01 109.26 200.93 109.4 200.78 109.67 200.47 110.22 199.82 111.32 198.41 111.35 198.37 111.45 198.23 111.58 198.05 111.85 197.68 112.39 196.9 113.46 195.28 115.8 191.41 117.97 187.5 118.12 187.22 118.27 186.94 118.58 186.37 119.18 185.24 119.22 185.17 119.26 185.1 119.34 184.96 119.49 184.67 119.79 184.1 119.83 184.03 119.87 183.96 119.94 183.81 120.09 183.53 120.13 183.46 120.17 183.38 120.25 183.24 120.36 183.03 120.4 182.96"/>
  <polyline class="cls-3" points="9.87 182.96 10 182.7 10.14 182.44 10.41 181.93 10.95 180.91 12.04 178.89 14.39 174.64 16.58 170.97 16.65 170.87 16.72 170.76 16.85 170.55 17.12 170.13 17.66 169.32 18.74 167.78 18.77 167.73 18.81 167.68 18.88 167.59 19.03 167.39 19.32 167 19.91 166.26 19.94 166.22 19.98 166.17 20.2 165.91 20.49 165.56 21.07 164.9 21.21 164.76 21.35 164.61 21.62 164.33 22.16 163.8 22.2 163.76 22.3 163.67 22.44 163.55 22.71 163.31 23.25 162.86 23.33 162.8 23.4 162.74 23.55 162.63 23.84 162.42 23.88 162.39 23.92 162.37 23.99 162.32 24.14 162.22 24.43 162.03 24.51 161.99 24.58 161.94 24.73 161.86 25.02 161.7 25.06 161.68 25.1 161.66 25.17 161.63 25.32 161.55 25.62 161.42 25.69 161.39 25.76 161.36 25.9 161.31 25.94 161.29 26.05 161.25 26.19 161.2 26.27 161.18 26.34 161.15 26.49 161.11 26.52 161.1 26.56 161.09 26.63 161.07 26.77 161.03 26.85 161.02 26.96 160.99 26.99 160.98 27.06 160.97 27.1 160.96 27.14 160.96 27.21 160.94 27.36 160.92 27.39 160.91 27.43 160.91 27.5 160.9 27.54 160.9 27.57 160.89 27.64 160.88 27.68 160.88 27.72 160.88 27.75 160.87 27.79 160.87 27.83 160.87 27.93 160.86 27.97 160.86 28 160.86 28.07 160.85 28.1 160.85 28.17 160.85 28.24 160.85 28.27 160.85 28.31 160.85 28.34 160.85 28.41 160.85 28.47 160.85 28.51 160.85 28.54 160.85 28.58 160.86 28.64 160.86 28.68 160.86 28.75 160.87 28.81 160.87 28.88 160.88 28.92 160.88 28.95 160.88 29.08 160.9 29.15 160.91 29.35 160.94 29.62 160.99 29.83 161.04 29.86 161.05 29.9 161.06 29.96 161.07 30.1 161.11 30.13 161.12 30.17 161.13 30.24 161.16 30.39 161.2 30.68 161.31 30.76 161.34 30.83 161.37 30.98 161.43 31.27 161.56 31.31 161.58 31.34 161.6 31.42 161.63 31.56 161.71 31.86 161.87 32.44 162.22 32.51 162.27 32.58 162.31 32.72 162.41 32.99 162.6 33.54 163.03 33.57 163.06 33.61 163.08 33.68 163.14 33.81 163.26 34.09 163.5 34.63 164.01 34.67 164.04 34.7 164.07 34.77 164.14 34.9 164.27 35.17 164.55 35.71 165.13 36.78 166.4 36.82 166.44 36.93 166.58 37.07 166.76 37.36 167.14 37.94 167.93 39.11 169.61 41.28 173.09 43.64 177.23 45.95 181.53 48.11 185.59 50.45 189.88 52.63 193.65 55 197.31 55.03 197.36 55.07 197.41 55.14 197.52 55.29 197.72 55.58 198.12 56.16 198.9 56.2 198.95 56.23 199 56.3 199.09 56.45 199.28 56.74 199.64 57.32 200.34 57.46 200.49 57.59 200.65 57.86 200.95 58.4 201.52 58.44 201.56 58.47 201.59 58.68 201.8 58.95 202.06 59.49 202.55 59.52 202.58 59.56 202.62 59.64 202.68 59.78 202.8 60.08 203.04 60.11 203.07 60.15 203.1 60.22 203.15 60.37 203.26 60.66 203.48 60.7 203.5 60.74 203.53 60.81 203.58 60.96 203.68 61.25 203.86 61.84 204.2 61.87 204.21 61.91 204.23 61.97 204.27 62.11 204.33 62.39 204.46 62.42 204.47 62.46 204.49 62.52 204.52 62.66 204.57 62.93 204.68 62.97 204.69 63.07 204.72 63.21 204.77 63.28 204.79 63.35 204.81 63.48 204.84 63.52 204.85 63.55 204.86 63.62 204.88 63.76 204.91 63.79 204.92 63.83 204.93 63.89 204.94 64.03 204.97 64.06 204.97 64.1 204.98 64.2 204.99 64.23 205 64.3 205.01 64.37 205.01 64.43 205.02 64.5 205.03 64.57 205.04 64.6 205.04 64.74 205.05 64.77 205.05 64.8 205.05 64.91 205.06 64.94 205.06 64.97 205.06 65.01 205.06 65.04 205.06 65.24 205.06 65.28 205.06 65.31 205.06 65.34 205.06 65.41 205.06 65.44 205.05 65.48 205.05 65.51 205.05 65.58 205.05 65.64 205.04 65.71 205.04 65.78 205.03 65.81 205.03 65.91 205.01 65.95 205.01 65.98 205 66.05 205 66.18 204.97 66.22 204.97 66.25 204.96 66.33 204.95 66.47 204.92 66.55 204.9 66.62 204.88 66.8 204.84 66.91 204.81 67.06 204.76 67.35 204.67 67.42 204.64 67.49 204.62 67.64 204.56 67.93 204.44 68 204.4 68.08 204.37 68.22 204.3 68.52 204.15 68.55 204.13 68.58 204.11 68.65 204.07 68.79 204 69.06 203.83 69.6 203.47 69.64 203.45 69.67 203.43 69.74 203.38 69.88 203.28 70.15 203.07 70.69 202.62 70.73 202.59 70.77 202.56 70.84 202.5 70.99 202.36 71.28 202.09 71.87 201.51 73.05 200.21 73.09 200.17 73.12 200.12 73.2 200.04 73.34 199.86 73.63 199.51 74.21 198.76 75.37 197.16 77.53 193.82 79.87 189.78 82.06 185.76 84.21 181.73 86.53 177.4 88.7 173.56 91.06 169.76 91.09 169.71 91.13 169.65 91.19 169.55 91.33 169.35 91.61 168.94 92.16 168.16 93.25 166.69 93.32 166.6 93.39 166.51 93.52 166.35 93.79 166.01 94.33 165.38 94.37 165.34 94.4 165.3 94.47 165.23 94.6 165.08 94.87 164.78 95.41 164.23 95.56 164.08 95.7 163.94 95.99 163.66 96.58 163.15 96.61 163.12 96.65 163.09 96.72 163.03 96.87 162.91 97.16 162.69 97.75 162.27 97.88 162.18 98.02 162.1 98.29 161.93 98.33 161.91 98.43 161.85 98.56 161.78 98.84 161.64 98.87 161.62 98.91 161.6 98.97 161.57 99.11 161.51 99.38 161.39 99.45 161.36 99.52 161.33 99.65 161.28 99.93 161.19 99.96 161.17 100 161.16 100.08 161.14 100.22 161.1 100.3 161.08 100.37 161.06 100.52 161.02 100.56 161.01 100.59 161 100.67 160.99 100.7 160.98 100.74 160.97 100.81 160.96 100.85 160.95 100.89 160.94 100.96 160.93 101.11 160.91 101.15 160.91 101.18 160.9 101.26 160.89 101.29 160.89 101.33 160.88 101.4 160.88 101.44 160.87 101.48 160.87 101.52 160.87 101.55 160.86 101.59 160.86 101.63 160.86 101.66 160.86 101.7 160.86 101.74 160.85 101.81 160.85 101.85 160.85 101.92 160.85 101.96 160.85 102 160.85 102.03 160.85 102.11 160.85 102.14 160.85 102.22 160.85 102.25 160.86 102.29 160.86 102.33 160.86 102.4 160.87 102.44 160.87 102.47 160.87 102.51 160.87 102.58 160.88 102.65 160.89 102.73 160.9 102.76 160.9 102.8 160.9 102.91 160.92 102.94 160.93 103.02 160.94 103.09 160.95 103.16 160.96 103.2 160.97 103.23 160.98 103.31 160.99 103.45 161.03 103.49 161.03 103.6 161.06 103.74 161.1 103.81 161.12 103.89 161.14 104.11 161.21 104.18 161.24 104.32 161.29 104.61 161.41 104.75 161.46 104.88 161.53 105.15 161.66 105.22 161.69 105.29 161.73 105.42 161.8 105.69 161.95 105.73 161.97 105.76 161.99 105.83 162.03 105.96 162.12 106.24 162.29 106.78 162.68 106.81 162.71 106.85 162.73 106.92 162.79 107.07 162.9 107.36 163.14 107.95 163.66 107.99 163.69 108.02 163.73 108.1 163.79 108.24 163.93 108.54 164.22 109.12 164.83 109.16 164.87 109.19 164.91 109.26 164.98 109.4 165.13 109.67 165.44 110.22 166.09 111.32 167.5 111.35 167.54 111.45 167.68 111.58 167.86 111.85 168.24 112.39 169.01 113.46 170.63 115.8 174.5 117.97 178.41 118.05 178.55 118.12 178.69 118.27 178.97 118.58 179.54 119.18 180.67 119.22 180.74 119.26 180.81 119.34 180.96 119.49 181.24 119.79 181.81 119.83 181.88 119.87 181.96 120.09 182.38 120.13 182.46 120.36 182.88 120.4 182.96"/>
  <polyline class="cls-8" points="149.87 42.96 149.93 42.98 150 43 150.14 43.04 150.41 43.13 150.95 43.3 152.04 43.64 154.39 44.38 156.58 45.06 158.74 45.74 161.07 46.46 163.25 47.14 165.62 47.86 167.93 48.57 170.1 49.22 172.44 49.93 174.63 50.58 176.78 51.21 179.11 51.88 181.28 52.5 183.64 53.16 185.95 53.8 188.11 54.39 190.45 55.01 192.63 55.58 195 56.18 197.32 56.76 199.49 57.28 201.84 57.84 204.03 58.34 206.18 58.82 208.52 59.32 210.69 59.77 213.05 60.24 215.37 60.69 217.53 61.08 219.87 61.5 222.06 61.86 224.21 62.2 226.53 62.55 228.7 62.86 231.06 63.17 233.25 63.44 235.41 63.68 237.75 63.93 239.93 64.13 242.29 64.33 244.61 64.51 246.78 64.65 246.85 64.65 246.92 64.66 247.07 64.67 247.36 64.68 247.95 64.72 249.12 64.78 249.16 64.78 249.19 64.78 249.26 64.79 249.4 64.79 249.67 64.81 250.22 64.83 250.25 64.83 250.29 64.83 250.36 64.84 250.49 64.84 250.77 64.86 251.32 64.88 251.35 64.88 251.45 64.88 251.85 64.9 252.39 64.92 252.42 64.92 252.52 64.92 252.66 64.93 252.93 64.94 253.46 64.95 253.54 64.96 253.61 64.96 253.75 64.96 254.63 64.99 254.67 64.99 254.7 64.99 254.77 64.99 254.92 65 255.8 65.01 255.83 65.02 255.86 65.02 256.07 65.02 256.34 65.03 256.37 65.03 256.41 65.03 256.47 65.03 256.61 65.03 256.88 65.03 256.92 65.04 256.95 65.04 257.02 65.04 257.15 65.04 257.43 65.04 257.46 65.04 257.49 65.04 257.56 65.04 257.7 65.05 257.97 65.05 258.01 65.05 258.05 65.05 258.12 65.05 258.27 65.05 258.35 65.05 258.43 65.05 258.58 65.05 258.65 65.05 258.73 65.06 258.88 65.06 258.92 65.06 259.03 65.06 259.18 65.06 259.34 65.06 259.37 65.06 259.64 65.06 259.68 65.06 260.4 65.06"/>
  <polyline class="cls-5" points="149.87 42.96 149.93 42.94 150 42.91 150.14 42.87 150.41 42.79 150.95 42.61 152.04 42.28 154.39 41.54 156.58 40.85 158.74 40.18 161.07 39.45 163.25 38.78 165.62 38.05 167.93 37.34 170.1 36.69 172.44 35.98 174.63 35.33 176.78 34.71 179.11 34.03 181.28 33.41 183.64 32.75 185.95 32.11 188.11 31.53 190.45 30.9 192.63 30.33 195 29.73 197.32 29.15 199.49 28.63 201.84 28.07 204.03 27.57 206.18 27.09 208.52 26.59 210.69 26.14 213.05 25.67 215.37 25.22 217.53 24.83 219.87 24.42 222.06 24.05 224.21 23.71 226.53 23.36 228.7 23.05 231.06 22.74 233.25 22.47 235.41 22.23 237.75 21.98 239.93 21.78 242.29 21.58 244.61 21.4 246.78 21.26 246.81 21.26 246.85 21.26 246.92 21.25 247.07 21.25 247.36 21.23 247.95 21.19 249.12 21.13 249.16 21.13 249.19 21.13 249.26 21.13 249.4 21.12 249.67 21.11 250.22 21.08 250.25 21.08 250.29 21.08 250.36 21.07 250.49 21.07 250.77 21.06 251.32 21.03 251.35 21.03 251.38 21.03 251.45 21.03 251.85 21.01 252.39 20.99 252.42 20.99 252.46 20.99 252.52 20.99 252.66 20.98 252.93 20.97 253.46 20.96 253.61 20.95 253.75 20.95 254.05 20.94 254.63 20.92 254.67 20.92 254.7 20.92 254.77 20.92 255.21 20.91 255.8 20.9 255.83 20.9 255.86 20.9 256.07 20.89 256.34 20.89 256.37 20.89 256.41 20.89 256.47 20.88 256.61 20.88 256.88 20.88 256.92 20.88 256.95 20.88 257.02 20.88 257.15 20.87 257.43 20.87 257.46 20.87 257.49 20.87 257.56 20.87 257.7 20.87 257.97 20.86 258.05 20.86 258.12 20.86 258.27 20.86 258.35 20.86 258.43 20.86 258.58 20.86 258.65 20.86 258.73 20.86 258.88 20.85 259.03 20.85 259.18 20.85 259.26 20.85 259.34 20.85 259.56 20.85 259.64 20.85 260.13 20.85 260.17 20.85 260.4 20.85"/>
  <polyline class="cls-7" points="149.87 112.96 149.9 112.99 149.93 113.02 150.14 113.21 150.41 113.47 150.95 113.98 152.04 115 154.39 117.19 156.58 119.2 158.74 121.12 161.07 123.12 163.25 124.9 165.62 126.71 167.93 128.35 170.1 129.75 172.44 131.1 174.63 132.2 174.67 132.21 174.7 132.23 174.77 132.26 174.9 132.32 175.17 132.44 175.71 132.67 176.78 133.11 176.82 133.12 176.85 133.14 176.93 133.17 177.07 133.22 177.36 133.33 177.94 133.54 177.98 133.55 178.02 133.56 178.09 133.59 178.24 133.63 178.53 133.73 179.11 133.91 179.14 133.92 179.18 133.93 179.25 133.95 179.38 133.99 179.65 134.07 180.2 134.22 180.23 134.22 180.26 134.23 180.33 134.25 180.47 134.28 180.74 134.35 181.28 134.47 181.36 134.49 181.43 134.5 181.58 134.53 181.87 134.59 181.91 134.6 181.95 134.61 182.02 134.62 182.17 134.65 182.46 134.7 182.5 134.71 182.53 134.71 182.61 134.72 182.75 134.75 183.05 134.79 183.12 134.8 183.2 134.81 183.34 134.83 183.64 134.87 183.68 134.88 183.71 134.88 183.78 134.89 183.93 134.91 184 134.91 184.07 134.92 184.22 134.94 184.25 134.94 184.29 134.94 184.36 134.95 184.51 134.96 184.8 134.99 184.87 134.99 184.94 135 185.08 135.01 185.12 135.01 185.16 135.01 185.23 135.02 185.37 135.03 185.41 135.03 185.45 135.03 185.52 135.03 185.55 135.04 185.59 135.04 185.66 135.04 185.7 135.04 185.74 135.04 185.81 135.05 185.88 135.05 185.95 135.05 185.99 135.05 186.02 135.05 186.09 135.05 186.15 135.06 186.22 135.06 186.25 135.06 186.29 135.06 186.36 135.06 186.39 135.06 186.46 135.06 186.49 135.06 186.93 135.06 186.96 135.06 187.03 135.06 187.06 135.06 187.13 135.06 187.17 135.06 187.2 135.06 187.23 135.06 187.3 135.05 187.33 135.05 187.37 135.05 187.43 135.05 187.47 135.05 187.6 135.05 187.64 135.04 187.87 135.04 187.91 135.03 187.97 135.03 188.11 135.02 188.15 135.02 188.18 135.02 188.25 135.01 188.4 135 188.44 135 188.69 134.98 188.73 134.98 188.77 134.98 188.84 134.97 188.99 134.96 189.28 134.93 189.35 134.92 189.43 134.91 189.57 134.9 189.86 134.86 189.9 134.86 189.94 134.85 190.01 134.84 190.16 134.82 190.45 134.78 190.58 134.76 190.72 134.74 190.99 134.69 191.54 134.6 191.61 134.58 191.68 134.57 191.81 134.54 192.09 134.48 192.63 134.36 192.67 134.35 192.71 134.34 192.93 134.29 193.22 134.22 193.81 134.06 193.85 134.04 193.89 134.03 193.96 134.01 194.11 133.97 194.41 133.88 195 133.7 195.03 133.68 195.07 133.67 195.14 133.65 195.29 133.6 195.58 133.5 196.16 133.29 197.32 132.84 197.39 132.81 197.46 132.78 197.59 132.73 197.86 132.61 198.4 132.37 199.49 131.86 201.84 130.62 204.03 129.3 206.18 127.87 208.52 126.18 210.69 124.48 213.05 122.53 215.37 120.51 217.53 118.57 219.87 116.41 222.06 114.36 224.21 112.34 226.53 110.16 228.7 108.14 231.06 106 233.25 104.07 235.41 102.25 237.75 100.38 239.93 98.75 242.29 97.11 244.61 95.67 246.78 94.47 246.81 94.45 246.85 94.44 246.92 94.4 247.07 94.32 247.36 94.18 247.95 93.89 249.12 93.35 249.16 93.34 249.19 93.32 249.26 93.29 249.4 93.24 249.67 93.12 250.22 92.9 251.32 92.49 251.35 92.47 251.45 92.44 251.58 92.39 251.85 92.3 252.39 92.13 252.42 92.11 252.52 92.08 252.66 92.04 252.93 91.96 253.46 91.81 253.5 91.8 253.54 91.79 253.61 91.77 254.05 91.66 254.63 91.51 254.67 91.51 254.7 91.5 254.77 91.48 254.92 91.45 255.21 91.39 255.8 91.27 255.83 91.27 255.86 91.26 255.93 91.25 256.07 91.23 256.34 91.18 256.41 91.17 256.47 91.16 256.61 91.14 256.88 91.1 256.95 91.09 257.02 91.08 257.15 91.06 257.43 91.03 257.46 91.02 257.49 91.02 257.56 91.01 257.7 91 257.97 90.97 258.01 90.96 258.05 90.96 258.12 90.95 258.27 90.94 258.31 90.94 258.35 90.93 258.43 90.93 258.58 90.92 258.61 90.91 258.65 90.91 258.73 90.91 258.88 90.9 258.96 90.89 259.03 90.89 259.18 90.88 259.22 90.88 259.26 90.88 259.34 90.87 259.37 90.87 259.41 90.87 259.52 90.86 259.56 90.86 259.68 90.86 259.71 90.86 259.83 90.86 259.87 90.86 259.9 90.85 259.94 90.85 259.98 90.85 260.02 90.85 260.06 90.85 260.09 90.85 260.13 90.85 260.28 90.85 260.32 90.85 260.4 90.85"/>
  <polyline class="cls-6" points="149.87 112.96 149.9 112.92 149.93 112.89 150.14 112.7 150.41 112.44 150.95 111.93 152.04 110.91 154.39 108.72 156.58 106.71 158.74 104.79 161.07 102.79 163.25 101.01 165.62 99.2 167.93 97.56 170.1 96.17 172.44 94.81 174.63 93.72 174.67 93.7 174.7 93.69 174.77 93.65 174.9 93.59 175.17 93.47 175.71 93.24 176.78 92.8 176.82 92.79 176.85 92.77 176.93 92.75 177.07 92.69 177.36 92.58 177.94 92.38 177.98 92.36 178.02 92.35 178.24 92.28 178.53 92.18 179.11 92 179.14 91.99 179.18 91.98 179.25 91.96 179.38 91.92 179.65 91.84 180.2 91.7 180.23 91.69 180.26 91.68 180.33 91.66 180.47 91.63 180.74 91.56 181.28 91.44 181.36 91.42 181.43 91.41 181.58 91.38 181.87 91.32 181.91 91.31 181.95 91.3 182.02 91.29 182.17 91.26 182.46 91.21 182.5 91.2 182.53 91.2 182.61 91.19 182.75 91.16 183.05 91.12 183.12 91.11 183.2 91.1 183.34 91.08 183.64 91.04 183.68 91.03 183.71 91.03 183.78 91.02 183.93 91.01 184 91 184.07 90.99 184.22 90.97 184.25 90.97 184.29 90.97 184.36 90.96 184.51 90.95 184.8 90.92 184.87 90.92 184.94 90.91 185.08 90.9 185.12 90.9 185.16 90.9 185.23 90.89 185.37 90.89 185.41 90.88 185.45 90.88 185.52 90.88 185.59 90.88 185.66 90.87 185.74 90.87 185.81 90.87 185.88 90.86 185.95 90.86 185.99 90.86 186.02 90.86 186.09 90.86 186.12 90.86 186.15 90.86 186.22 90.85 186.25 90.85 186.29 90.85 186.32 90.85 186.36 90.85 186.42 90.85 186.46 90.85 186.59 90.85 186.63 90.85 186.79 90.85 186.83 90.85 186.96 90.85 187 90.85 187.06 90.85 187.1 90.85 187.13 90.85 187.17 90.85 187.2 90.85 187.23 90.86 187.3 90.86 187.33 90.86 187.37 90.86 187.43 90.86 187.6 90.87 187.64 90.87 187.91 90.88 187.97 90.88 188.11 90.89 188.15 90.89 188.18 90.89 188.25 90.9 188.4 90.91 188.44 90.91 188.55 90.92 188.69 90.93 188.73 90.93 188.77 90.94 188.84 90.94 188.99 90.95 189.28 90.98 189.35 90.99 189.43 91 189.57 91.01 189.86 91.05 189.9 91.05 189.94 91.06 190.01 91.07 190.16 91.09 190.45 91.13 190.48 91.13 190.58 91.15 190.72 91.17 190.99 91.22 191.54 91.32 191.61 91.33 191.68 91.34 191.81 91.37 192.09 91.43 192.63 91.55 192.67 91.56 192.71 91.57 192.78 91.59 192.93 91.62 193.22 91.7 193.81 91.86 193.85 91.87 193.89 91.88 193.96 91.9 194.11 91.94 194.41 92.03 195 92.22 195.07 92.24 195.14 92.26 195.29 92.31 195.58 92.41 196.16 92.62 197.32 93.07 197.39 93.1 197.46 93.13 197.59 93.19 197.86 93.3 198.4 93.54 199.49 94.05 201.84 95.29 204.03 96.61 206.18 98.04 208.52 99.73 210.69 101.43 213.05 103.39 215.37 105.4 217.53 107.34 219.87 109.5 222.06 111.55 224.21 113.57 226.53 115.76 228.7 117.77 231.06 119.91 233.25 121.84 235.41 123.66 237.75 125.53 239.93 127.16 242.29 128.8 244.61 130.24 246.78 131.44 246.81 131.46 246.85 131.48 246.92 131.51 247.07 131.59 247.36 131.74 247.95 132.02 249.12 132.56 249.16 132.57 249.19 132.59 249.26 132.62 249.4 132.68 249.67 132.79 250.22 133.01 251.32 133.43 251.35 133.44 251.45 133.47 251.58 133.52 251.85 133.61 252.39 133.79 252.42 133.8 252.52 133.83 252.66 133.87 252.93 133.95 253.46 134.1 253.5 134.11 253.54 134.12 253.75 134.18 254.05 134.26 254.63 134.4 254.67 134.41 254.7 134.41 254.77 134.43 254.92 134.46 255.21 134.52 255.8 134.64 255.83 134.64 255.86 134.65 255.93 134.66 256.07 134.69 256.34 134.73 256.41 134.74 256.47 134.75 256.61 134.78 256.88 134.81 256.92 134.82 256.95 134.82 257.02 134.83 257.15 134.85 257.43 134.88 257.46 134.89 257.49 134.89 257.7 134.92 257.97 134.94 258.01 134.95 258.12 134.96 258.27 134.97 258.31 134.97 258.35 134.98 258.43 134.98 258.58 135 258.65 135 258.73 135.01 258.92 135.02 258.96 135.02 259.03 135.03 259.18 135.03 259.26 135.04 259.34 135.04 259.41 135.04 259.49 135.05 259.52 135.05 259.56 135.05 259.64 135.05 259.68 135.05 259.79 135.05 259.83 135.05 259.87 135.06 259.9 135.06 259.94 135.06 259.98 135.06 260.02 135.06 260.06 135.06 260.13 135.06 260.17 135.06 260.4 135.06"/>
  <polyline class="cls-4" points="149.87 182.96 149.93 183.06 150 183.17 150.14 183.38 150.41 183.81 150.95 184.66 152.04 186.35 154.39 189.94 156.58 193.11 158.74 195.99 161.07 198.76 161.11 198.79 161.14 198.83 161.21 198.91 161.35 199.05 161.62 199.34 162.16 199.91 162.2 199.94 162.3 200.04 162.44 200.18 162.71 200.44 163.25 200.95 163.33 201.02 163.4 201.09 163.55 201.22 163.84 201.48 164.43 201.97 164.47 202 164.51 202.02 164.58 202.08 164.73 202.2 165.02 202.42 165.62 202.84 165.69 202.89 165.76 202.94 165.9 203.04 166.19 203.23 166.77 203.57 166.85 203.61 166.92 203.65 167.06 203.73 167.36 203.88 167.93 204.16 167.97 204.17 168 204.19 168.07 204.22 168.21 204.27 168.47 204.38 168.54 204.41 168.75 204.48 169.02 204.58 169.05 204.59 169.08 204.6 169.15 204.62 169.29 204.66 169.56 204.74 169.62 204.76 169.69 204.77 169.83 204.8 170.1 204.87 170.13 204.87 170.17 204.88 170.24 204.89 170.39 204.92 170.46 204.94 170.54 204.95 170.68 204.97 170.83 204.99 170.87 204.99 170.9 205 170.98 205.01 171.05 205.01 171.12 205.02 171.16 205.03 171.2 205.03 171.34 205.04 171.38 205.04 171.45 205.05 171.49 205.05 171.53 205.05 171.6 205.05 171.64 205.06 171.67 205.06 171.71 205.06 171.78 205.06 171.82 205.06 171.86 205.06 172.11 205.06 172.19 205.06 172.22 205.06 172.33 205.05 172.37 205.05 172.41 205.05 172.44 205.05 172.48 205.05 172.51 205.05 172.58 205.04 172.61 205.04 172.65 205.04 172.72 205.03 172.75 205.03 172.79 205.03 172.85 205.02 172.99 205 173.03 205 173.06 205 173.13 204.99 173.27 204.97 173.33 204.96 173.4 204.95 173.54 204.92 173.57 204.92 173.61 204.91 173.68 204.9 173.81 204.87 173.85 204.87 173.88 204.86 173.95 204.84 174.09 204.81 174.12 204.8 174.15 204.8 174.22 204.78 174.36 204.75 174.63 204.67 174.67 204.66 174.7 204.65 174.77 204.63 174.9 204.58 175.17 204.49 175.2 204.48 175.24 204.47 175.3 204.45 175.44 204.39 175.71 204.29 175.74 204.28 175.77 204.26 175.84 204.23 175.97 204.17 176.24 204.05 176.78 203.78 176.82 203.77 176.93 203.71 177.07 203.63 177.36 203.46 177.94 203.1 177.98 203.08 178.02 203.05 178.24 202.91 178.53 202.71 179.11 202.28 179.14 202.25 179.25 202.18 179.38 202.07 179.65 201.85 180.2 201.39 181.28 200.4 181.32 200.36 181.36 200.33 181.43 200.26 181.58 200.11 181.87 199.82 182.46 199.2 183.64 197.89 185.95 195.02 188.11 192.05 190.45 188.6 192.63 185.23 195 181.51 197.32 177.91 199.49 174.67 201.84 171.38 204.03 168.59 204.06 168.55 204.1 168.51 204.17 168.43 204.3 168.28 204.57 167.96 205.11 167.35 206.18 166.2 206.22 166.17 206.25 166.13 206.33 166.05 206.47 165.91 206.77 165.62 207.35 165.07 207.39 165.03 207.42 165 207.49 164.93 207.64 164.8 207.93 164.54 208.52 164.05 208.55 164.03 208.58 164 208.65 163.94 208.79 163.83 209.06 163.62 209.6 163.22 209.64 163.2 209.67 163.17 209.88 163.03 210.15 162.85 210.69 162.51 210.73 162.49 210.77 162.47 210.84 162.42 210.99 162.34 211.28 162.18 211.36 162.14 211.43 162.1 211.58 162.02 211.87 161.88 211.95 161.85 212.02 161.81 212.17 161.74 212.46 161.62 212.5 161.6 212.54 161.59 212.61 161.56 212.76 161.5 213.05 161.39 213.09 161.38 213.12 161.37 213.2 161.35 213.34 161.3 213.63 161.21 213.67 161.2 213.7 161.19 213.78 161.17 213.92 161.14 214.21 161.07 214.28 161.05 214.36 161.04 214.5 161.01 214.54 161 214.57 161 214.65 160.98 214.79 160.96 214.83 160.95 214.86 160.95 214.93 160.94 214.97 160.93 215.01 160.93 215.08 160.92 215.12 160.91 215.22 160.9 215.37 160.89 215.4 160.88 215.44 160.88 215.57 160.87 215.64 160.87 215.67 160.86 215.71 160.86 215.77 160.86 215.81 160.86 215.88 160.85 215.91 160.85 215.98 160.85 216.01 160.85 216.05 160.85 216.11 160.85 216.15 160.85 216.21 160.85 216.25 160.85 216.31 160.85 216.35 160.85 216.38 160.85 216.42 160.85 216.45 160.85 216.59 160.86 216.62 160.86 216.65 160.86 216.72 160.87 216.75 160.87 216.99 160.89 217.02 160.89 217.06 160.89 217.12 160.9 217.33 160.92 217.4 160.93 217.53 160.95 217.57 160.96 217.6 160.96 217.68 160.97 217.82 161 217.86 161.01 217.9 161.01 217.97 161.03 218.12 161.06 218.19 161.07 218.26 161.09 218.41 161.13 218.7 161.2 218.74 161.21 218.78 161.22 218.99 161.29 219.29 161.38 219.33 161.4 219.43 161.44 219.58 161.49 219.87 161.6 219.91 161.62 220.01 161.66 220.15 161.72 220.42 161.84 220.97 162.11 221 162.13 221.1 162.19 221.24 162.26 221.51 162.42 222.06 162.75 222.09 162.77 222.13 162.79 222.19 162.83 222.33 162.92 222.6 163.1 223.13 163.49 223.17 163.51 223.2 163.54 223.27 163.59 223.4 163.69 223.67 163.9 224.21 164.34 224.24 164.37 224.35 164.47 224.5 164.59 224.79 164.85 225.37 165.39 226.53 166.56 226.57 166.6 226.6 166.63 226.67 166.7 226.8 166.85 227.08 167.14 227.62 167.75 228.7 169.03 231.06 172.09 233.25 175.21 235.41 178.46 237.75 182.1 239.93 185.52 242.29 189.16 244.61 192.55 246.78 195.49 249.12 198.34 249.19 198.42 249.26 198.5 249.4 198.65 249.67 198.95 250.22 199.53 251.32 200.62 251.35 200.65 251.45 200.74 251.58 200.87 251.85 201.11 252.39 201.58 252.42 201.61 252.46 201.64 252.52 201.69 252.66 201.8 252.93 202.02 253.46 202.43 253.54 202.49 253.61 202.54 253.75 202.64 254.05 202.85 254.63 203.23 254.67 203.25 254.92 203.41 255.21 203.58 255.8 203.89 255.83 203.91 255.86 203.92 255.93 203.96 256.07 204.02 256.34 204.15 256.37 204.16 256.41 204.18 256.47 204.21 256.61 204.27 256.88 204.38 256.92 204.39 256.95 204.4 257.02 204.43 257.15 204.48 257.46 204.58 257.49 204.59 257.56 204.61 257.7 204.66 257.97 204.73 258.05 204.75 258.12 204.77 258.27 204.81 258.35 204.83 258.43 204.85 258.65 204.89 258.73 204.91 258.88 204.93 258.92 204.94 258.96 204.95 259.03 204.96 259.26 204.99 259.34 205 259.37 205 259.41 205.01 259.52 205.02 259.56 205.02 259.64 205.03 259.71 205.04 259.79 205.04 259.83 205.04 259.87 205.05 259.94 205.05 260.09 205.06 260.13 205.06 260.21 205.06 260.25 205.06 260.28 205.06 260.4 205.06"/>
  <polyline class="cls-3" points="149.87 182.96 150 182.74 150.14 182.53 150.41 182.1 150.95 181.25 152.04 179.56 154.39 175.97 156.58 172.8 158.74 169.93 161.07 167.16 161.14 167.08 161.21 167.01 161.35 166.86 161.62 166.57 162.16 166.01 162.2 165.97 162.3 165.87 162.44 165.73 162.71 165.47 163.25 164.96 163.29 164.93 163.33 164.89 163.4 164.83 163.55 164.69 163.84 164.44 164.43 163.95 164.51 163.89 164.58 163.83 164.73 163.71 165.02 163.49 165.62 163.07 165.65 163.04 165.69 163.02 165.76 162.97 165.9 162.87 166.19 162.69 166.77 162.34 166.81 162.32 166.85 162.3 166.92 162.26 167.06 162.18 167.36 162.03 167.93 161.75 167.97 161.74 168 161.72 168.07 161.69 168.21 161.64 168.47 161.53 168.54 161.5 168.75 161.43 169.02 161.34 169.05 161.32 169.08 161.31 169.15 161.29 169.29 161.25 169.56 161.17 169.62 161.16 169.83 161.11 170.1 161.05 170.13 161.04 170.17 161.03 170.24 161.02 170.39 160.99 170.46 160.98 170.54 160.97 170.68 160.94 170.83 160.92 170.87 160.92 170.9 160.91 171.05 160.9 171.12 160.89 171.16 160.89 171.2 160.88 171.27 160.88 171.31 160.87 171.34 160.87 171.38 160.87 171.42 160.87 171.49 160.86 171.56 160.86 171.6 160.86 171.64 160.86 171.71 160.85 171.75 160.85 171.82 160.85 171.89 160.85 171.93 160.85 172 160.85 172.04 160.85 172.11 160.85 172.15 160.85 172.19 160.85 172.33 160.86 172.37 160.86 172.41 160.86 172.44 160.86 172.48 160.86 172.51 160.87 172.58 160.87 172.61 160.87 172.65 160.88 172.75 160.88 172.79 160.89 172.85 160.89 172.99 160.91 173.03 160.91 173.06 160.92 173.13 160.92 173.27 160.94 173.33 160.95 173.4 160.96 173.54 160.99 173.61 161 173.68 161.01 173.81 161.04 173.85 161.05 173.88 161.05 173.95 161.07 174.09 161.1 174.12 161.11 174.15 161.11 174.22 161.13 174.36 161.17 174.63 161.24 174.67 161.25 174.7 161.26 174.77 161.28 174.9 161.33 175.17 161.42 175.2 161.43 175.24 161.44 175.3 161.47 175.44 161.52 175.71 161.62 175.77 161.65 175.84 161.68 175.97 161.74 176.24 161.86 176.78 162.13 176.82 162.15 176.93 162.2 177.07 162.28 177.36 162.45 177.94 162.81 177.98 162.83 178.02 162.86 178.09 162.91 178.24 163 178.53 163.2 179.11 163.63 179.14 163.66 179.25 163.74 179.38 163.84 179.65 164.06 180.2 164.52 181.28 165.51 181.32 165.55 181.36 165.58 181.43 165.66 181.58 165.8 181.87 166.1 182.46 166.71 183.64 168.02 185.95 170.89 188.11 173.86 190.45 177.32 192.63 180.69 195 184.4 197.32 188 199.49 191.25 201.84 194.54 204.03 197.32 204.06 197.36 204.1 197.4 204.17 197.48 204.3 197.64 204.57 197.95 205.11 198.56 206.18 199.71 206.25 199.78 206.33 199.86 206.47 200 206.77 200.29 207.35 200.85 207.42 200.91 207.49 200.98 207.64 201.11 207.93 201.37 208.52 201.86 208.55 201.89 208.58 201.91 208.65 201.97 208.79 202.08 209.06 202.29 209.6 202.69 209.64 202.71 209.67 202.74 209.88 202.88 210.15 203.06 210.69 203.4 210.73 203.42 210.77 203.44 210.84 203.49 210.99 203.57 211.28 203.73 211.36 203.77 211.43 203.81 211.58 203.89 211.87 204.03 211.95 204.07 212.02 204.1 212.17 204.17 212.46 204.29 212.5 204.31 212.54 204.32 212.61 204.35 212.76 204.41 213.05 204.52 213.09 204.53 213.12 204.54 213.2 204.57 213.34 204.61 213.63 204.7 213.67 204.71 213.7 204.72 213.78 204.74 213.92 204.78 214.21 204.85 214.28 204.86 214.36 204.88 214.5 204.9 214.54 204.91 214.57 204.92 214.65 204.93 214.79 204.95 214.86 204.96 214.93 204.97 215.01 204.98 215.08 204.99 215.12 205 215.15 205 215.22 205.01 215.37 205.03 215.44 205.03 215.5 205.04 215.54 205.04 215.57 205.04 215.64 205.05 215.67 205.05 215.71 205.05 215.98 205.06 216.01 205.06 216.05 205.06 216.31 205.06 216.35 205.06 216.38 205.06 216.45 205.06 216.48 205.06 216.59 205.05 216.62 205.05 216.65 205.05 216.72 205.05 216.75 205.04 216.99 205.03 217.02 205.02 217.06 205.02 217.12 205.01 217.29 204.99 217.33 204.99 217.4 204.98 217.53 204.96 217.57 204.96 217.6 204.95 217.68 204.94 217.82 204.91 217.86 204.91 217.9 204.9 217.97 204.88 218.12 204.85 218.19 204.84 218.26 204.82 218.41 204.79 218.7 204.71 218.74 204.7 218.78 204.69 218.99 204.62 219.29 204.53 219.33 204.51 219.43 204.48 219.58 204.42 219.87 204.31 219.91 204.29 220.01 204.25 220.15 204.19 220.42 204.07 220.97 203.8 221 203.78 221.1 203.73 221.24 203.65 221.51 203.5 222.06 203.16 222.09 203.14 222.13 203.12 222.19 203.08 222.33 202.99 222.6 202.81 223.13 202.42 223.17 202.4 223.2 202.37 223.27 202.32 223.4 202.22 223.67 202.01 224.21 201.57 224.24 201.54 224.28 201.51 224.35 201.44 224.5 201.32 224.79 201.06 225.37 200.52 226.53 199.35 226.57 199.32 226.6 199.28 226.67 199.21 226.8 199.06 227.08 198.77 227.62 198.16 228.7 196.88 231.06 193.83 233.25 190.7 235.41 187.45 237.75 183.81 239.93 180.39 242.29 176.76 244.61 173.36 246.78 170.42 249.12 167.57 249.16 167.53 249.19 167.49 249.26 167.42 249.4 167.26 249.67 166.97 250.22 166.38 251.32 165.3 251.35 165.26 251.45 165.17 251.58 165.04 251.85 164.8 252.39 164.33 252.42 164.3 252.46 164.28 252.52 164.22 252.66 164.11 252.93 163.89 253.46 163.48 253.54 163.42 253.61 163.37 253.75 163.27 254.05 163.06 254.63 162.68 254.67 162.66 254.7 162.64 254.77 162.59 254.92 162.5 255.21 162.33 255.8 162.02 255.93 161.95 256.07 161.89 256.34 161.76 256.37 161.75 256.41 161.73 256.47 161.7 256.61 161.64 256.88 161.54 256.95 161.51 257.02 161.48 257.15 161.43 257.43 161.34 257.46 161.33 257.49 161.32 257.7 161.26 257.97 161.18 258.01 161.17 258.05 161.16 258.12 161.14 258.27 161.1 258.31 161.09 258.35 161.08 258.43 161.07 258.58 161.03 258.61 161.03 258.65 161.02 258.73 161.01 258.88 160.98 258.96 160.97 259.03 160.95 259.26 160.92 259.34 160.91 259.37 160.91 259.52 160.89 259.56 160.89 259.64 160.88 259.68 160.88 259.71 160.88 259.83 160.87 259.87 160.86 259.9 160.86 259.94 160.86 260.02 160.86 260.06 160.86 260.09 160.85 260.13 160.85 260.17 160.85 260.25 160.85 260.32 160.85 260.36 160.85 260.4 160.85"/>
  <polyline class="cls-8" points="289.87 65.06 290.21 65.06 290.24 65.06 290.34 65.06 290.41 65.06 290.48 65.06 290.55 65.06 290.61 65.06 290.68 65.06 290.71 65.05 290.75 65.05 290.95 65.05 290.99 65.05 291.02 65.05 291.22 65.05 291.29 65.04 291.36 65.04 291.49 65.04 291.53 65.04 291.56 65.04 291.63 65.03 291.77 65.03 292.04 65.02 292.07 65.02 292.11 65.02 292.18 65.01 292.33 65.01 292.62 64.99 292.66 64.99 292.7 64.99 292.77 64.99 292.92 64.98 293.21 64.96 293.25 64.96 293.29 64.96 293.36 64.95 293.51 64.94 293.8 64.92 294.39 64.88 294.46 64.87 294.53 64.87 294.66 64.86 294.94 64.83 295.49 64.78 295.52 64.78 295.56 64.77 295.62 64.77 295.76 64.75 296.04 64.72 296.58 64.66 296.65 64.65 296.72 64.64 296.85 64.63 297.12 64.59 297.66 64.52 297.69 64.52 297.73 64.51 297.8 64.5 297.93 64.48 298.2 64.44 298.74 64.36 298.77 64.36 298.81 64.35 299.03 64.32 299.32 64.27 299.91 64.17 301.07 63.95 301.21 63.92 301.35 63.9 301.62 63.84 302.16 63.73 303.25 63.48 305.62 62.88 307.93 62.21 310.1 61.51 312.44 60.66 314.63 59.81 316.78 58.9 319.11 57.86 321.28 56.82 323.64 55.64 325.95 54.42 328.11 53.24 330.45 51.92 332.63 50.65 335 49.24 337.32 47.82 339.49 46.49 341.84 45.02 344.03 43.65 346.18 42.3 348.52 40.83 350.69 39.48 353.05 38.02 355.37 36.61 357.53 35.33 359.87 33.96 362.06 32.72 364.21 31.55 366.53 30.32 368.7 29.23 371.06 28.1 373.25 27.11 375.41 26.19 377.75 25.28 379.93 24.49 382.29 23.71 384.61 23.04 386.78 22.49 386.85 22.47 386.92 22.45 387.07 22.42 387.36 22.35 387.95 22.22 389.12 21.97 389.19 21.96 389.26 21.95 389.4 21.92 389.67 21.87 390.22 21.77 390.25 21.76 390.29 21.76 390.36 21.74 390.49 21.72 390.77 21.67 391.32 21.58 391.35 21.58 391.38 21.57 391.45 21.56 391.58 21.54 391.85 21.5 392.39 21.42 392.42 21.42 392.46 21.41 392.52 21.4 392.66 21.38 392.93 21.35 393.46 21.28 393.5 21.27 393.54 21.27 393.61 21.26 394.05 21.21 394.63 21.15 394.67 21.14 394.7 21.14 394.77 21.13 395.21 21.09 395.8 21.04 396.07 21.02 396.34 21 396.37 20.99 396.41 20.99 396.47 20.99 396.61 20.98 396.88 20.96 396.92 20.96 396.95 20.96 397.02 20.95 397.15 20.94 397.43 20.93 397.46 20.93 397.49 20.92 397.56 20.92 397.7 20.91 397.97 20.9 398.01 20.9 398.05 20.9 398.12 20.9 398.27 20.89 398.35 20.89 398.43 20.88 398.65 20.88 398.73 20.87 398.88 20.87 398.92 20.87 398.96 20.87 399.03 20.87 399.18 20.86 399.22 20.86 399.26 20.86 399.34 20.86 399.37 20.86 399.41 20.86 399.49 20.86 399.52 20.86 399.56 20.86 399.64 20.85 399.71 20.85 399.79 20.85 399.83 20.85 399.87 20.85 399.98 20.85 400.02 20.85 400.25 20.85 400.28 20.85 400.4 20.85"/>
  <polyline class="cls-5" points="289.87 20.85 289.97 20.85 290 20.85 290.24 20.85 290.27 20.85 290.41 20.85 290.44 20.85 290.48 20.85 290.55 20.85 290.61 20.85 290.68 20.86 290.71 20.86 290.75 20.86 290.82 20.86 290.95 20.86 290.99 20.86 291.02 20.86 291.09 20.86 291.22 20.87 291.26 20.87 291.29 20.87 291.36 20.87 291.49 20.87 291.53 20.87 291.63 20.88 291.77 20.88 292.04 20.89 292.07 20.89 292.11 20.89 292.18 20.9 292.33 20.9 292.62 20.92 292.7 20.92 292.77 20.92 292.92 20.93 293.21 20.95 293.25 20.95 293.29 20.95 293.36 20.96 293.51 20.97 293.8 20.99 294.39 21.03 294.42 21.04 294.46 21.04 294.53 21.04 294.66 21.05 294.94 21.08 295.49 21.13 295.52 21.13 295.56 21.14 295.62 21.14 295.76 21.16 296.04 21.19 296.58 21.25 296.72 21.27 296.85 21.28 297.12 21.32 297.66 21.39 297.69 21.39 297.73 21.4 297.8 21.41 297.93 21.43 298.2 21.47 298.74 21.55 298.77 21.55 298.81 21.56 299.03 21.6 299.32 21.64 299.91 21.74 301.07 21.96 301.11 21.97 301.21 21.99 301.35 22.02 301.62 22.07 302.16 22.19 303.25 22.43 305.62 23.03 307.93 23.7 310.1 24.41 312.44 25.25 314.63 26.1 316.78 27.01 319.11 28.06 321.28 29.09 323.64 30.28 325.95 31.49 328.11 32.67 330.45 34 332.63 35.27 335 36.68 337.32 38.09 339.49 39.42 341.84 40.89 344.03 42.26 346.18 43.62 348.52 45.08 350.69 46.44 353.05 47.89 355.37 49.3 357.53 50.59 359.87 51.95 362.06 53.19 364.21 54.36 366.53 55.59 368.7 56.68 371.06 57.81 373.25 58.8 375.41 59.72 377.75 60.64 379.93 61.42 382.29 62.2 384.61 62.87 386.78 63.43 386.81 63.44 386.85 63.44 386.92 63.46 387.07 63.5 387.36 63.56 387.95 63.69 389.12 63.94 389.16 63.94 389.19 63.95 389.26 63.96 389.4 63.99 389.67 64.04 390.22 64.14 390.25 64.15 390.29 64.16 390.36 64.17 390.49 64.19 390.77 64.24 391.32 64.33 391.35 64.33 391.45 64.35 391.85 64.41 392.39 64.49 392.42 64.5 392.46 64.5 392.52 64.51 392.93 64.57 393.46 64.63 393.5 64.64 393.54 64.64 393.61 64.65 393.75 64.67 394.05 64.7 394.63 64.77 394.67 64.77 394.7 64.77 394.77 64.78 394.92 64.79 395.21 64.82 395.8 64.87 395.83 64.88 395.86 64.88 396.07 64.89 396.34 64.92 396.37 64.92 396.41 64.92 396.47 64.92 396.61 64.93 396.88 64.95 396.92 64.95 396.95 64.96 397.02 64.96 397.15 64.97 397.43 64.98 397.46 64.98 397.49 64.99 397.56 64.99 397.7 65 397.97 65.01 398.05 65.01 398.12 65.02 398.27 65.02 398.31 65.02 398.35 65.03 398.43 65.03 398.65 65.04 398.73 65.04 398.88 65.04 398.92 65.04 398.96 65.04 399.03 65.05 399.18 65.05 399.26 65.05 399.34 65.05 399.37 65.05 399.41 65.05 399.49 65.05 399.52 65.05 399.56 65.06 399.64 65.06 399.68 65.06 399.71 65.06 399.79 65.06 399.87 65.06 399.9 65.06 400.02 65.06 400.06 65.06 400.4 65.06"/>
  <polyline class="cls-7" points="289.87 135.06 290.04 135.06 290.07 135.06 290.1 135.06 290.14 135.06 290.17 135.06 290.21 135.06 290.24 135.06 290.34 135.05 290.41 135.05 290.55 135.05 290.58 135.04 290.61 135.04 290.68 135.04 290.71 135.04 290.75 135.03 290.82 135.03 291.09 135.01 291.22 135 291.26 134.99 291.29 134.99 291.36 134.98 291.49 134.97 291.56 134.96 291.63 134.95 291.77 134.93 292.04 134.89 292.07 134.89 292.11 134.88 292.18 134.87 292.33 134.85 292.62 134.79 292.66 134.78 292.7 134.78 292.77 134.76 292.92 134.73 293.21 134.66 293.25 134.66 293.36 134.63 293.51 134.59 293.8 134.51 294.39 134.34 294.42 134.32 294.46 134.31 294.53 134.29 294.66 134.25 294.94 134.15 295.49 133.94 295.52 133.93 295.56 133.92 295.62 133.89 295.76 133.83 296.04 133.72 296.58 133.47 296.72 133.41 296.85 133.34 297.12 133.21 297.66 132.93 298.74 132.31 298.88 132.22 299.03 132.13 299.32 131.95 299.91 131.56 301.07 130.73 303.25 128.97 305.62 126.78 307.93 124.39 310.1 121.98 312.44 119.22 314.63 116.54 316.78 113.86 319.11 110.94 321.28 108.24 323.64 105.4 325.95 102.74 328.11 100.42 330.45 98.11 332.63 96.2 332.71 96.14 332.93 95.96 333.22 95.72 333.81 95.27 335 94.42 335.07 94.37 335.14 94.32 335.29 94.22 335.58 94.03 336.16 93.66 336.23 93.62 336.3 93.57 336.45 93.49 336.74 93.32 337.32 92.99 337.46 92.92 337.59 92.85 337.86 92.71 338.4 92.45 338.68 92.32 338.95 92.2 339.49 91.98 339.52 91.96 339.56 91.95 339.64 91.92 339.78 91.86 340.08 91.76 340.11 91.74 340.22 91.7 340.37 91.66 340.66 91.56 340.7 91.55 340.74 91.54 340.81 91.51 340.96 91.47 341.25 91.39 341.84 91.24 341.91 91.22 341.97 91.2 342.11 91.17 342.39 91.12 342.42 91.11 342.46 91.11 342.52 91.09 342.66 91.07 342.93 91.02 342.97 91.02 343.07 91 343.21 90.98 343.24 90.98 343.28 90.97 343.35 90.96 343.48 90.95 343.52 90.94 343.55 90.94 343.62 90.93 343.76 90.92 343.79 90.91 343.83 90.91 343.89 90.9 344.03 90.89 344.06 90.89 344.2 90.88 344.23 90.88 344.3 90.87 344.33 90.87 344.37 90.87 344.43 90.87 344.47 90.86 344.57 90.86 344.6 90.86 344.7 90.86 344.74 90.86 344.77 90.85 344.8 90.85 344.84 90.85 344.87 90.85 344.91 90.85 344.94 90.85 345.04 90.85 345.07 90.85 345.17 90.85 345.21 90.85 345.31 90.85 345.34 90.85 345.41 90.85 345.44 90.85 345.48 90.85 345.51 90.85 345.58 90.86 345.64 90.86 345.78 90.86 345.81 90.87 345.85 90.87 345.91 90.87 345.95 90.87 345.98 90.88 346.05 90.88 346.18 90.89 346.25 90.89 346.47 90.91 346.51 90.92 346.62 90.93 346.77 90.95 346.84 90.95 346.91 90.96 347.06 90.98 347.35 91.03 347.39 91.03 347.42 91.04 347.49 91.05 347.64 91.07 347.93 91.13 347.97 91.14 348 91.14 348.22 91.19 348.52 91.26 348.55 91.27 348.58 91.27 348.65 91.29 348.79 91.33 349.06 91.4 349.6 91.56 349.64 91.57 349.67 91.58 349.88 91.65 350.15 91.74 350.69 91.95 350.73 91.96 350.77 91.97 350.84 92 350.99 92.06 351.28 92.19 351.87 92.45 351.95 92.49 352.02 92.52 352.17 92.59 352.46 92.74 353.05 93.05 353.09 93.07 353.12 93.09 353.2 93.13 353.34 93.21 353.63 93.38 354.21 93.73 355.37 94.49 355.5 94.58 355.64 94.68 355.91 94.87 356.45 95.27 357.53 96.12 359.87 98.17 362.06 100.32 364.21 102.62 366.53 105.29 368.7 107.9 371.06 110.81 373.25 113.57 375.41 116.27 377.75 119.13 379.93 121.71 382.29 124.35 384.61 126.74 386.78 128.76 389.12 130.68 389.16 130.7 389.19 130.73 389.26 130.78 389.4 130.88 389.67 131.08 390.22 131.46 391.32 132.18 391.35 132.2 391.38 132.22 391.45 132.26 391.58 132.35 391.85 132.51 392.39 132.81 392.42 132.83 392.52 132.88 392.66 132.96 392.93 133.1 393.46 133.37 393.5 133.38 393.54 133.4 393.75 133.5 394.05 133.64 394.63 133.88 394.67 133.9 394.7 133.91 394.77 133.94 394.92 134 395.21 134.11 395.8 134.31 395.86 134.33 395.93 134.35 396.07 134.39 396.34 134.48 396.37 134.49 396.41 134.5 396.47 134.51 396.61 134.55 396.88 134.62 396.95 134.64 397.02 134.66 397.15 134.69 397.43 134.75 397.46 134.75 397.49 134.76 397.56 134.78 397.7 134.8 397.97 134.85 398.05 134.86 398.12 134.88 398.27 134.9 398.35 134.91 398.43 134.92 398.58 134.94 398.61 134.95 398.65 134.95 398.73 134.96 398.88 134.98 398.96 134.99 399.03 135 399.18 135.01 399.22 135.01 399.26 135.02 399.34 135.02 399.37 135.03 399.52 135.04 399.56 135.04 399.64 135.04 399.68 135.04 399.71 135.05 399.79 135.05 399.83 135.05 399.87 135.05 399.98 135.06 400.02 135.06 400.09 135.06 400.13 135.06 400.17 135.06 400.21 135.06 400.25 135.06 400.4 135.06"/>
  <polyline class="cls-6" points="289.87 90.85 289.9 90.85 289.93 90.85 290.04 90.85 290.07 90.85 290.14 90.85 290.21 90.85 290.24 90.85 290.34 90.86 290.41 90.86 290.44 90.86 290.48 90.86 290.58 90.87 290.61 90.87 290.68 90.87 290.71 90.88 290.75 90.88 290.82 90.88 291.09 90.9 291.22 90.92 291.26 90.92 291.29 90.92 291.36 90.93 291.56 90.95 291.63 90.96 291.77 90.98 292.04 91.02 292.07 91.02 292.11 91.03 292.18 91.04 292.33 91.07 292.62 91.12 292.66 91.13 292.7 91.14 292.77 91.15 292.92 91.18 293.21 91.25 293.25 91.26 293.36 91.28 293.51 91.32 293.8 91.4 294.39 91.58 294.42 91.59 294.46 91.6 294.53 91.62 294.66 91.67 294.94 91.76 295.49 91.97 295.52 91.98 295.56 92 295.62 92.02 295.76 92.08 296.04 92.2 296.58 92.44 296.62 92.46 296.65 92.47 296.72 92.51 296.85 92.57 297.12 92.7 297.66 92.98 298.74 93.6 298.88 93.69 299.03 93.78 299.32 93.97 299.91 94.35 301.07 95.19 303.25 96.95 305.62 99.13 307.93 101.52 310.1 103.93 312.44 106.69 314.63 109.37 316.78 112.05 319.11 114.98 321.28 117.67 323.64 120.52 325.95 123.17 328.11 125.49 330.45 127.8 332.63 129.71 332.71 129.77 332.93 129.95 333.22 130.19 333.81 130.64 335 131.49 335.07 131.54 335.14 131.59 335.29 131.69 335.58 131.88 336.16 132.25 336.2 132.27 336.23 132.29 336.3 132.34 336.45 132.42 336.74 132.59 337.32 132.92 337.46 132.99 337.59 133.06 337.86 133.2 338.4 133.47 338.68 133.59 338.95 133.71 339.49 133.93 339.52 133.95 339.56 133.96 339.64 133.99 339.78 134.05 340.08 134.16 340.11 134.17 340.15 134.18 340.22 134.21 340.37 134.26 340.66 134.35 340.81 134.4 340.96 134.44 341.25 134.53 341.84 134.68 341.91 134.69 341.97 134.71 342.11 134.74 342.39 134.79 342.42 134.8 342.46 134.81 342.52 134.82 342.66 134.84 342.93 134.89 342.97 134.89 343.07 134.91 343.21 134.93 343.24 134.94 343.28 134.94 343.35 134.95 343.48 134.97 343.52 134.97 343.55 134.97 343.62 134.98 343.76 135 343.79 135 343.83 135 343.89 135.01 344.03 135.02 344.06 135.02 344.2 135.03 344.23 135.03 344.3 135.04 344.33 135.04 344.37 135.04 344.43 135.04 344.47 135.05 344.5 135.05 344.57 135.05 344.6 135.05 344.67 135.05 344.7 135.05 344.74 135.06 344.77 135.06 344.8 135.06 344.87 135.06 344.94 135.06 344.97 135.06 345.31 135.06 345.34 135.06 345.38 135.06 345.41 135.06 345.44 135.06 345.48 135.06 345.51 135.06 345.54 135.06 345.58 135.05 345.64 135.05 345.78 135.05 345.81 135.05 345.85 135.04 345.91 135.04 345.95 135.04 345.98 135.04 346.05 135.03 346.18 135.02 346.25 135.02 346.47 135 346.51 134.99 346.55 134.99 346.62 134.98 346.77 134.97 346.84 134.96 346.91 134.95 347.06 134.93 347.35 134.89 347.39 134.88 347.42 134.88 347.49 134.86 347.64 134.84 347.93 134.78 348 134.77 348.08 134.75 348.22 134.72 348.52 134.65 348.55 134.65 348.58 134.64 348.65 134.62 348.79 134.59 349.06 134.51 349.6 134.35 349.64 134.34 349.67 134.33 349.88 134.26 350.15 134.17 350.69 133.97 350.73 133.95 350.77 133.94 350.84 133.91 350.99 133.85 351.28 133.72 351.87 133.46 351.91 133.44 351.95 133.42 352.02 133.39 352.17 133.32 352.46 133.17 353.05 132.86 353.09 132.84 353.12 132.82 353.2 132.78 353.34 132.7 353.63 132.53 354.21 132.18 355.37 131.42 355.5 131.33 355.64 131.23 355.91 131.04 356.45 130.64 357.53 129.8 359.87 127.74 362.06 125.59 364.21 123.29 366.53 120.63 368.7 118.01 371.06 115.1 373.25 112.34 375.41 109.64 377.75 106.78 379.93 104.2 382.29 101.56 384.61 99.17 386.78 97.15 389.12 95.24 389.19 95.18 389.26 95.13 389.4 95.03 389.67 94.83 390.22 94.45 391.32 93.73 391.35 93.71 391.38 93.69 391.45 93.65 391.58 93.57 391.85 93.41 392.39 93.1 392.42 93.08 392.52 93.03 392.66 92.95 392.93 92.81 393.46 92.54 393.5 92.53 393.54 92.51 393.61 92.48 393.75 92.41 394.05 92.28 394.63 92.03 394.67 92.01 394.7 92 394.77 91.97 394.92 91.91 395.21 91.8 395.8 91.6 395.83 91.59 395.86 91.58 395.93 91.56 396.07 91.52 396.34 91.44 396.37 91.43 396.41 91.42 396.47 91.4 396.61 91.36 396.88 91.29 396.92 91.28 396.95 91.27 397.02 91.26 397.15 91.22 397.43 91.16 397.46 91.16 397.49 91.15 397.56 91.14 397.7 91.11 397.97 91.06 398.12 91.03 398.27 91.01 398.31 91.01 398.35 91 398.43 90.99 398.58 90.97 398.61 90.96 398.65 90.96 398.73 90.95 398.88 90.93 398.92 90.93 398.96 90.92 399.03 90.92 399.18 90.9 399.22 90.9 399.26 90.9 399.34 90.89 399.52 90.88 399.56 90.87 399.64 90.87 399.68 90.87 399.71 90.87 399.79 90.86 399.83 90.86 399.87 90.86 400.02 90.85 400.06 90.85 400.09 90.85 400.13 90.85 400.17 90.85 400.21 90.85 400.32 90.85 400.36 90.85 400.4 90.85"/>
  <polyline class="cls-4" points="289.87 205.06 289.97 205.06 290 205.06 290.04 205.06 290.17 205.05 290.21 205.05 290.24 205.05 290.34 205.04 290.41 205.04 290.44 205.04 290.48 205.03 290.55 205.03 290.68 205.01 290.75 205 290.82 204.99 290.95 204.97 291.02 204.95 291.09 204.94 291.22 204.91 291.29 204.9 291.36 204.88 291.49 204.85 291.63 204.81 291.77 204.77 292.04 204.69 292.07 204.67 292.11 204.66 292.18 204.63 292.33 204.58 292.62 204.45 292.66 204.44 292.7 204.42 292.77 204.39 292.92 204.32 293.21 204.17 293.25 204.15 293.29 204.13 293.36 204.09 293.51 204.01 293.8 203.83 294.39 203.44 294.46 203.39 294.53 203.34 294.66 203.24 294.94 203.03 295.49 202.57 295.52 202.54 295.56 202.51 295.62 202.45 295.76 202.33 296.04 202.07 296.58 201.53 296.62 201.5 296.65 201.46 296.72 201.39 296.85 201.25 297.12 200.96 297.66 200.36 298.74 199.03 298.77 198.99 298.81 198.94 298.88 198.84 299.03 198.65 299.32 198.26 299.91 197.45 301.07 195.71 303.25 192.16 305.62 187.95 307.93 183.62 310.1 179.56 312.44 175.29 314.63 171.57 316.78 168.31 316.82 168.26 316.85 168.21 316.93 168.11 317.07 167.91 317.36 167.51 317.94 166.74 318.02 166.65 318.09 166.56 318.24 166.37 318.53 166.02 319.11 165.33 319.14 165.29 319.18 165.26 319.25 165.18 319.38 165.03 319.65 164.73 320.2 164.17 320.26 164.11 320.33 164.04 320.47 163.91 320.74 163.65 321.28 163.17 321.32 163.14 321.36 163.11 321.43 163.05 321.58 162.93 321.87 162.7 321.91 162.68 321.95 162.65 322.02 162.6 322.17 162.49 322.46 162.29 322.5 162.26 322.53 162.24 322.61 162.19 322.75 162.1 323.05 161.92 323.09 161.9 323.12 161.88 323.2 161.83 323.34 161.75 323.64 161.6 323.71 161.57 323.78 161.53 323.93 161.47 324 161.44 324.07 161.41 324.22 161.35 324.29 161.32 324.36 161.29 324.51 161.24 324.8 161.14 324.87 161.12 324.94 161.1 325.08 161.06 325.16 161.04 325.23 161.03 325.37 160.99 325.45 160.98 325.52 160.96 325.59 160.95 325.66 160.94 325.7 160.93 325.74 160.93 325.81 160.92 325.88 160.91 325.95 160.9 326.09 160.88 326.12 160.88 326.15 160.87 326.22 160.87 326.29 160.86 326.32 160.86 326.36 160.86 326.39 160.86 326.42 160.86 326.46 160.85 326.49 160.85 326.52 160.85 326.59 160.85 326.66 160.85 326.69 160.85 326.73 160.85 326.76 160.85 326.83 160.85 326.9 160.85 326.93 160.85 327 160.86 327.03 160.86 327.06 160.86 327.1 160.86 327.13 160.86 327.23 160.87 327.3 160.88 327.33 160.88 327.37 160.88 327.5 160.9 327.57 160.91 327.6 160.91 327.64 160.92 327.7 160.93 327.84 160.95 327.91 160.97 327.97 160.98 328.11 161.01 328.15 161.01 328.18 161.02 328.25 161.04 328.4 161.08 328.44 161.09 328.55 161.12 328.69 161.17 328.77 161.19 328.84 161.21 328.99 161.26 329.28 161.38 329.31 161.39 329.35 161.41 329.43 161.44 329.57 161.5 329.86 161.64 329.9 161.66 329.94 161.68 330.01 161.72 330.16 161.8 330.45 161.96 330.52 162 330.58 162.04 330.72 162.13 330.99 162.31 331.54 162.7 331.61 162.75 331.68 162.8 331.81 162.91 332.09 163.13 332.63 163.61 332.71 163.68 332.78 163.75 332.93 163.88 333.22 164.17 333.81 164.78 335 166.14 335.03 166.19 335.07 166.23 335.14 166.32 335.29 166.5 335.58 166.88 336.16 167.64 337.32 169.3 339.49 172.72 341.84 176.83 344.03 180.88 346.18 184.93 348.52 189.25 350.69 193.05 353.05 196.78 353.09 196.83 353.12 196.88 353.2 196.99 353.34 197.2 353.63 197.61 354.21 198.41 354.25 198.46 354.28 198.51 354.36 198.6 354.5 198.8 354.79 199.17 355.37 199.89 355.4 199.94 355.5 200.06 355.64 200.22 355.91 200.53 356.45 201.13 356.48 201.17 356.52 201.2 356.59 201.27 356.72 201.41 356.99 201.69 357.53 202.21 357.6 202.28 357.68 202.34 357.82 202.48 358.12 202.73 358.15 202.76 358.19 202.79 358.26 202.85 358.41 202.97 358.7 203.2 358.74 203.22 358.85 203.31 358.99 203.41 359.29 203.62 359.87 203.98 359.91 204 359.94 204.02 360.01 204.06 360.15 204.14 360.42 204.28 360.46 204.29 360.49 204.31 360.56 204.34 360.69 204.41 360.97 204.53 361 204.54 361.04 204.55 361.1 204.58 361.24 204.63 361.28 204.65 361.31 204.66 361.38 204.68 361.55 204.74 361.65 204.77 361.79 204.81 361.82 204.82 361.92 204.85 362.06 204.88 362.13 204.9 362.19 204.91 362.33 204.94 362.4 204.95 362.46 204.97 362.6 204.99 362.67 205 362.73 205.01 362.77 205.01 362.8 205.02 362.9 205.03 362.93 205.03 363 205.04 363.03 205.04 363.07 205.04 363.13 205.05 363.17 205.05 363.2 205.05 363.27 205.05 363.3 205.06 363.4 205.06 363.43 205.06 363.67 205.06 363.7 205.06 363.74 205.06 363.77 205.06 363.8 205.06 363.84 205.05 363.9 205.05 363.94 205.05 363.97 205.05 364.04 205.04 364.07 205.04 364.11 205.04 364.14 205.03 364.21 205.03 364.28 205.02 364.35 205.01 364.39 205.01 364.5 204.99 364.53 204.98 364.57 204.98 364.79 204.94 364.93 204.91 365.08 204.88 365.22 204.84 365.44 204.78 365.51 204.75 365.66 204.71 365.95 204.6 365.99 204.59 366.1 204.54 366.24 204.48 366.53 204.35 366.57 204.34 366.6 204.32 366.67 204.29 366.8 204.22 367.08 204.07 367.14 204.03 367.21 204 367.35 203.92 367.62 203.75 367.75 203.66 367.89 203.57 368.16 203.38 368.7 202.97 368.78 202.91 368.85 202.85 369 202.72 369.29 202.47 369.88 201.92 369.92 201.89 369.95 201.85 370.03 201.78 370.17 201.63 370.47 201.33 371.06 200.69 371.09 200.65 371.13 200.61 371.19 200.53 371.33 200.38 371.61 200.05 372.16 199.38 373.25 197.92 375.41 194.7 377.75 190.76 379.93 186.8 382.29 182.36 384.61 178.03 386.78 174.16 389.12 170.3 389.16 170.25 389.19 170.19 389.26 170.09 389.4 169.88 389.67 169.47 390.22 168.66 391.32 167.15 391.35 167.11 391.38 167.07 391.45 166.98 391.58 166.8 391.85 166.46 392.39 165.81 392.42 165.77 392.46 165.73 392.52 165.65 392.66 165.49 392.93 165.19 393.46 164.6 393.61 164.45 393.75 164.3 394.05 164.01 394.63 163.47 394.67 163.44 394.7 163.41 394.77 163.34 394.92 163.22 395.21 162.98 395.8 162.53 395.83 162.51 395.86 162.48 395.93 162.43 396.07 162.34 396.34 162.16 396.37 162.14 396.41 162.12 396.47 162.07 396.61 161.99 396.88 161.83 396.95 161.8 397.02 161.76 397.15 161.69 397.43 161.55 397.46 161.54 397.49 161.52 397.56 161.49 397.7 161.43 397.97 161.32 398.12 161.26 398.27 161.21 398.31 161.2 398.35 161.19 398.43 161.16 398.58 161.12 398.61 161.1 398.65 161.09 398.73 161.07 398.88 161.03 398.96 161.02 399.03 161 399.18 160.97 399.22 160.96 399.26 160.95 399.34 160.94 399.41 160.93 399.49 160.92 399.52 160.91 399.56 160.91 399.64 160.9 399.68 160.89 399.83 160.88 399.87 160.87 399.9 160.87 400.02 160.86 400.06 160.86 400.09 160.86 400.13 160.86 400.28 160.85 400.32 160.85 400.36 160.85 400.4 160.85"/>
  <polyline class="cls-3" points="289.87 160.85 289.9 160.85 289.93 160.85 289.97 160.85 290 160.85 290.04 160.85 290.21 160.86 290.27 160.86 290.31 160.86 290.34 160.87 290.41 160.87 290.48 160.88 290.68 160.9 290.71 160.91 290.75 160.91 290.82 160.92 290.95 160.94 290.99 160.95 291.02 160.96 291.09 160.97 291.22 161 291.26 161 291.29 161.01 291.36 161.03 291.49 161.06 291.53 161.07 291.56 161.08 291.77 161.14 292.04 161.23 292.07 161.24 292.11 161.25 292.18 161.28 292.33 161.34 292.62 161.46 292.66 161.47 292.7 161.49 292.77 161.52 292.92 161.59 293.21 161.74 293.25 161.76 293.29 161.78 293.36 161.82 293.51 161.91 293.8 162.08 294.39 162.47 294.42 162.5 294.46 162.52 294.53 162.57 294.66 162.67 294.94 162.88 295.49 163.34 295.52 163.37 295.56 163.4 295.62 163.46 295.76 163.58 296.04 163.84 296.58 164.38 296.62 164.41 296.65 164.45 296.72 164.52 296.85 164.66 297.12 164.95 297.66 165.55 298.74 166.88 298.77 166.92 298.81 166.97 298.88 167.07 299.03 167.26 299.32 167.65 299.91 168.47 301.07 170.2 303.25 173.75 305.62 177.96 307.93 182.29 310.1 186.35 312.44 190.63 314.63 194.34 316.78 197.6 316.82 197.65 317.07 198.01 317.36 198.4 317.94 199.17 317.98 199.22 318.02 199.26 318.09 199.35 318.24 199.54 318.53 199.89 319.11 200.58 319.14 200.62 319.18 200.66 319.25 200.73 319.38 200.88 319.65 201.18 320.2 201.74 320.26 201.81 320.33 201.87 320.47 202 320.74 202.26 321.28 202.74 321.32 202.77 321.36 202.8 321.43 202.86 321.58 202.98 321.87 203.21 321.91 203.23 321.95 203.26 322.02 203.32 322.17 203.42 322.46 203.63 322.5 203.65 322.53 203.68 322.61 203.72 322.75 203.82 323.05 203.99 323.09 204.01 323.12 204.04 323.2 204.08 323.34 204.16 323.64 204.31 323.68 204.33 323.71 204.34 323.78 204.38 323.93 204.44 324 204.47 324.07 204.51 324.22 204.56 324.29 204.59 324.36 204.62 324.51 204.67 324.8 204.77 324.87 204.79 324.94 204.81 325.08 204.85 325.16 204.87 325.23 204.89 325.37 204.92 325.45 204.93 325.52 204.95 325.59 204.96 325.66 204.97 325.7 204.98 325.74 204.99 325.81 205 325.88 205.01 325.95 205.02 326.02 205.02 326.09 205.03 326.12 205.03 326.15 205.04 326.22 205.04 326.25 205.05 326.29 205.05 326.36 205.05 326.46 205.06 326.49 205.06 326.59 205.06 326.83 205.06 327.03 205.05 327.06 205.05 327.13 205.05 327.17 205.05 327.23 205.04 327.3 205.03 327.33 205.03 327.37 205.03 327.5 205.01 327.57 205 327.6 205 327.64 204.99 327.7 204.98 327.84 204.96 327.91 204.95 327.97 204.93 328.11 204.91 328.15 204.9 328.18 204.89 328.25 204.87 328.4 204.83 328.44 204.82 328.55 204.79 328.69 204.75 328.77 204.72 328.84 204.7 328.99 204.65 329.28 204.53 329.31 204.52 329.35 204.5 329.43 204.47 329.57 204.41 329.86 204.27 329.9 204.25 329.94 204.23 330.01 204.19 330.16 204.11 330.45 203.95 330.48 203.93 330.58 203.87 330.72 203.78 330.99 203.6 331.54 203.21 331.61 203.16 331.68 203.11 331.81 203 332.09 202.78 332.63 202.3 332.71 202.24 332.78 202.17 332.93 202.03 333.22 201.74 333.81 201.13 335 199.77 335.03 199.72 335.07 199.68 335.14 199.59 335.29 199.41 335.58 199.04 336.16 198.27 337.32 196.61 339.49 193.19 341.84 189.08 344.03 185.03 346.18 180.98 348.52 176.67 350.69 172.86 353.05 169.14 353.09 169.08 353.12 169.03 353.2 168.92 353.34 168.71 353.63 168.3 354.21 167.5 354.25 167.45 354.36 167.31 354.5 167.12 354.79 166.74 355.37 166.02 355.4 165.98 355.5 165.86 355.64 165.7 355.91 165.38 356.45 164.78 356.48 164.75 356.52 164.71 356.59 164.64 356.72 164.5 356.99 164.22 357.53 163.7 357.6 163.63 357.68 163.57 357.82 163.44 358.12 163.18 358.15 163.15 358.19 163.12 358.26 163.06 358.41 162.94 358.7 162.72 358.74 162.69 358.78 162.66 358.99 162.5 359.29 162.3 359.87 161.93 359.91 161.91 360.01 161.85 360.15 161.78 360.42 161.63 360.46 161.62 360.49 161.6 360.56 161.57 360.69 161.5 360.97 161.39 361 161.37 361.04 161.36 361.1 161.33 361.24 161.28 361.28 161.27 361.31 161.25 361.38 161.23 361.51 161.18 361.55 161.17 361.58 161.16 361.65 161.14 361.79 161.1 361.82 161.09 361.92 161.06 362.06 161.03 362.13 161.01 362.19 161 362.33 160.97 362.4 160.96 362.46 160.95 362.6 160.92 362.67 160.91 362.73 160.9 362.77 160.9 362.8 160.9 362.9 160.88 362.93 160.88 362.97 160.88 363 160.87 363.03 160.87 363.07 160.87 363.13 160.86 363.17 160.86 363.2 160.86 363.23 160.86 363.27 160.86 363.3 160.85 363.33 160.85 363.37 160.85 363.4 160.85 363.43 160.85 363.5 160.85 363.54 160.85 363.57 160.85 363.6 160.85 363.67 160.85 363.7 160.85 363.74 160.85 363.77 160.85 363.8 160.85 363.84 160.86 363.87 160.86 363.9 160.86 363.94 160.86 364.04 160.87 364.07 160.87 364.14 160.88 364.21 160.88 364.28 160.89 364.35 160.9 364.39 160.91 364.5 160.92 364.53 160.93 364.57 160.93 364.64 160.94 364.79 160.97 364.93 161 365.08 161.04 365.22 161.07 365.37 161.11 365.41 161.13 365.44 161.14 365.51 161.16 365.66 161.2 365.95 161.31 365.99 161.32 366.02 161.34 366.24 161.43 366.53 161.56 366.57 161.57 366.6 161.59 366.67 161.63 366.8 161.69 367.08 161.84 367.11 161.86 367.14 161.88 367.21 161.92 367.35 162 367.62 162.16 367.65 162.19 367.75 162.25 367.89 162.34 368.16 162.53 368.7 162.95 368.78 163.01 368.85 163.07 369 163.19 369.29 163.44 369.88 163.99 369.92 164.03 369.95 164.06 370.17 164.28 370.47 164.58 371.06 165.22 371.09 165.26 371.13 165.3 371.19 165.38 371.33 165.54 371.61 165.86 372.16 166.53 373.25 167.99 375.41 171.22 377.75 175.16 379.93 179.11 382.29 183.55 384.61 187.88 386.78 191.76 389.12 195.61 389.16 195.66 389.19 195.72 389.26 195.82 389.4 196.03 389.67 196.44 390.22 197.25 391.32 198.76 391.35 198.8 391.38 198.85 391.45 198.93 391.58 199.11 391.85 199.45 392.39 200.11 392.42 200.15 392.46 200.19 392.52 200.26 392.66 200.42 392.93 200.73 393.46 201.31 393.61 201.46 393.75 201.61 394.05 201.9 394.63 202.44 394.67 202.47 394.7 202.51 394.77 202.57 394.92 202.69 395.21 202.94 395.8 203.38 395.83 203.41 395.86 203.43 395.93 203.48 396.07 203.57 396.34 203.75 396.37 203.77 396.41 203.79 396.47 203.84 396.61 203.92 396.88 204.08 396.92 204.1 397.02 204.15 397.15 204.22 397.43 204.36 397.46 204.37 397.49 204.39 397.56 204.42 397.7 204.48 397.97 204.59 398.12 204.65 398.27 204.7 398.31 204.71 398.35 204.73 398.43 204.75 398.58 204.8 398.61 204.81 398.65 204.82 398.73 204.84 398.88 204.88 398.96 204.89 399.03 204.91 399.18 204.94 399.22 204.95 399.26 204.96 399.34 204.97 399.37 204.98 399.41 204.98 399.49 205 399.52 205 399.56 205.01 399.64 205.02 399.68 205.02 399.71 205.03 399.79 205.03 399.83 205.04 399.87 205.04 399.9 205.04 399.94 205.05 400.02 205.05 400.06 205.05 400.09 205.05 400.13 205.06 400.28 205.06 400.4 205.06"/>
  <text class="cls-11" transform="translate(3.07 10.04)"><tspan x="0" y="0">a</tspan></text>
  <text class="cls-11" transform="translate(143.07 10.04)"><tspan x="0" y="0">b</tspan></text>
  <text class="cls-11" transform="translate(283.07 10.04)"><tspan x="0" y="0">c</tspan></text>
  <text class="cls-11" transform="translate(19 10.04)"><tspan class="cls-14" x="0" y="0">t</tspan><tspan class="cls-15" x="4.08" y="0">w</tspan><tspan x="12.79" y="0">o clamped ends</tspan></text>
  <text class="cls-11" transform="translate(170.19 10.04)"><tspan x="0" y="0">one open end</tspan></text>
  <text class="cls-11" transform="translate(307.76 10.04)"><tspan class="cls-14" x="0" y="0">t</tspan><tspan class="cls-15" x="4.08" y="0">w</tspan><tspan x="12.79" y="0">o open ends</tspan></text>
</svg>