<?xml version="1.0" encoding="UTF-8"?>
<svg id="Layer_1" data-name="Layer 1" xmlns="http://www.w3.org/2000/svg" viewBox="0 0 420.99 351.09">
  <defs>
    <style>
      .cls-1, .cls-2 {
        font-family: MyriadPro-Regular, 'Myriad Pro';
        font-size: 24px;
      }

      .cls-1, .cls-3 {
        fill: #c33;
      }

      .cls-2, .cls-4 {
        fill: #231f20;
      }

      .cls-5, .cls-6 {
        fill: #fff;
      }

      .cls-5, .cls-6, .cls-7, .cls-8 {
        stroke-miterlimit: 10;
      }

      .cls-5, .cls-6, .cls-7, .cls-8, .cls-9, .cls-10 {
        stroke-width: 2px;
      }

      .cls-5, .cls-7, .cls-9 {
        stroke: #231f20;
      }

      .cls-6, .cls-8, .cls-10 {
        stroke: #c33;
      }

      .cls-7, .cls-8, .cls-9, .cls-10 {
        fill: none;
      }

      .cls-11 {
        letter-spacing: 0em;
      }

      .cls-12 {
        letter-spacing: 0em;
      }

      .cls-13 {
        letter-spacing: 0em;
      }

      .cls-9, .cls-10 {
        stroke-linejoin: round;
      }

      .cls-4, .cls-3 {
        stroke-width: 0px;
      }
    </style>
  </defs>
  <rect class="cls-5" x="297.2" y="270.09" width="20" height="20"/>
  <rect class="cls-5" x="235.78" y="10.09" width="20" height="20"/>
  <rect class="cls-5" x="297.2" y="10.09" width="20" height="20"/>
  <polyline class="cls-9" points="297.2 20.09 294.61 29.75 289.43 10.43 284.26 29.75 279.08 10.43 273.9 29.75 268.73 10.43 263.55 29.75 258.37 10.43 255.78 20.09"/>
  <rect class="cls-5" x="358.61" y="10.09" width="20" height="20"/>
  <polyline class="cls-9" points="358.61 20.09 356.02 29.75 350.85 10.43 345.67 29.75 340.49 10.43 335.32 29.75 330.14 10.43 324.96 29.75 319.79 10.43 317.2 20.09"/>
  <rect class="cls-6" x="164.02" y="10.09" width="20" height="20"/>
  <polyline class="cls-10" points="235.78 20.09 232.55 29.75 226.08 10.43 219.61 29.75 213.14 10.43 206.67 29.75 200.19 10.43 193.72 29.75 187.25 10.43 184.02 20.09"/>
  <rect class="cls-5" x="110.89" y="10.09" width="20" height="20"/>
  <polyline class="cls-10" points="164.02 20.09 161.95 29.75 157.81 10.43 153.67 29.75 149.52 10.43 145.38 29.75 141.24 10.43 137.1 29.75 132.96 10.43 130.89 20.09"/>
  <polyline class="cls-9" points="420.02 20.09 417.44 29.75 412.26 10.43 407.08 29.75 401.91 10.43 396.73 29.75 391.55 10.43 386.37 29.75 381.2 10.43 378.61 20.09"/>
  <polyline class="cls-9" points="110.89 20.09 108.3 29.75 103.12 10.43 97.95 29.75 92.77 10.43 87.59 29.75 82.42 10.43 77.24 29.75 72.06 10.43 69.47 20.09"/>
  <rect class="cls-5" x="297.2" y="60.09" width="20" height="20"/>
  <rect class="cls-5" x="358.61" y="60.09" width="20" height="20"/>
  <polyline class="cls-9" points="358.61 70.09 356.02 79.75 350.85 60.43 345.67 79.75 340.49 60.43 335.32 79.75 330.14 60.43 324.96 79.75 319.79 60.43 317.2 70.09"/>
  <rect class="cls-5" x="110.89" y="60.09" width="20" height="20"/>
  <polyline class="cls-9" points="420.02 70.09 417.44 79.75 412.26 60.43 407.08 79.75 401.91 60.43 396.73 79.75 391.55 60.43 386.37 79.75 381.2 60.43 378.61 70.09"/>
  <polyline class="cls-9" points="110.89 70.09 108.3 79.75 103.12 60.43 97.95 79.75 92.77 60.43 87.59 79.75 82.42 60.43 77.24 79.75 72.06 60.43 69.47 70.09"/>
  <rect class="cls-6" x="225.43" y="60.09" width="20" height="20"/>
  <polyline class="cls-10" points="297.2 70.09 293.96 79.75 287.49 60.43 281.02 79.75 274.55 60.43 268.08 79.75 261.61 60.43 255.14 79.75 248.67 60.43 245.43 70.09"/>
  <polyline class="cls-10" points="225.43 70.09 223.36 79.75 219.22 60.43 215.08 79.75 210.94 60.43 206.8 79.75 202.65 60.43 198.51 79.75 194.37 60.43 192.3 70.09"/>
  <rect class="cls-5" x="172.3" y="60.09" width="20" height="20"/>
  <polyline class="cls-9" points="172.3 70.09 169.71 79.75 164.54 60.43 159.36 79.75 154.18 60.43 149.01 79.75 143.83 60.43 138.65 79.75 133.48 60.43 130.89 70.09"/>
  <rect class="cls-5" x="233.71" y="110.09" width="20" height="20"/>
  <rect class="cls-5" x="358.61" y="110.09" width="20" height="20"/>
  <polyline class="cls-9" points="233.71 120.09 231.13 129.75 225.95 110.43 220.77 129.75 215.6 110.43 210.42 129.75 205.24 110.43 200.07 129.75 194.89 110.43 192.3 120.09"/>
  <rect class="cls-5" x="110.89" y="110.09" width="20" height="20"/>
  <polyline class="cls-9" points="420.02 120.09 417.44 129.75 412.26 110.43 407.08 129.75 401.91 110.43 396.73 129.75 391.55 110.43 386.37 129.75 381.2 110.43 378.61 120.09"/>
  <polyline class="cls-9" points="110.89 120.09 108.3 129.75 103.12 110.43 97.95 129.75 92.77 110.43 87.59 129.75 82.42 110.43 77.24 129.75 72.06 110.43 69.47 120.09"/>
  <rect class="cls-6" x="286.84" y="110.09" width="20" height="20"/>
  <polyline class="cls-10" points="358.61 120.09 355.38 129.75 348.9 110.43 342.43 129.75 335.96 110.43 329.49 129.75 323.02 110.43 316.55 129.75 310.08 110.43 306.84 120.09"/>
  <polyline class="cls-10" points="286.84 120.09 284.77 129.75 280.63 110.43 276.49 129.75 272.35 110.43 268.21 129.75 264.07 110.43 259.93 129.75 255.78 110.43 253.71 120.09"/>
  <rect class="cls-5" x="172.3" y="110.09" width="20" height="20"/>
  <polyline class="cls-9" points="172.3 120.09 169.71 129.75 164.54 110.43 159.36 129.75 154.18 110.43 149.01 129.75 143.83 110.43 138.65 129.75 133.48 110.43 130.89 120.09"/>
  <g>
    <line class="cls-7" x1="35.78" y1="20.09" x2="35.78" y2="105.97"/>
    <polygon class="cls-4" points="35.78 120.09 27.65 100.19 35.78 104.91 43.91 100.19 35.78 120.09"/>
  </g>
  <text class="cls-2" transform="translate(30.87 92.89) rotate(-90)"><tspan x="0" y="0">time</tspan></text>
  <rect class="cls-5" x="235.78" y="210.09" width="20" height="20"/>
  <rect class="cls-5" x="297.2" y="210.09" width="20" height="20"/>
  <polyline class="cls-9" points="297.2 220.09 294.61 229.75 289.43 210.43 284.26 229.75 279.08 210.43 273.9 229.75 268.73 210.43 263.55 229.75 258.37 210.43 255.78 220.09"/>
  <rect class="cls-5" x="358.61" y="210.09" width="20" height="20"/>
  <polyline class="cls-9" points="358.61 220.09 356.02 229.75 350.85 210.43 345.67 229.75 340.49 210.43 335.32 229.75 330.14 210.43 324.96 229.75 319.79 210.43 317.2 220.09"/>
  <rect class="cls-5" x="112.96" y="210.09" width="20" height="20"/>
  <polyline class="cls-9" points="420.02 220.09 417.44 229.75 412.26 210.43 407.08 229.75 401.91 210.43 396.73 229.75 391.55 210.43 386.37 229.75 381.2 210.43 378.61 220.09"/>
  <polyline class="cls-9" points="112.96 220.09 110.37 229.75 105.19 210.43 100.02 229.75 94.84 210.43 89.66 229.75 84.49 210.43 79.31 229.75 74.13 210.43 71.54 220.09"/>
  <g>
    <line class="cls-7" x1="35.78" y1="220.09" x2="35.78" y2="305.97"/>
    <polygon class="cls-4" points="35.78 320.09 27.65 300.19 35.78 304.91 43.91 300.19 35.78 320.09"/>
  </g>
  <text class="cls-2" transform="translate(30.87 292.89) rotate(-90)"><tspan x="0" y="0">time</tspan></text>
  <rect class="cls-6" x="174.37" y="195.01" width="20" height="20"/>
  <polyline class="cls-10" points="174.37 205.01 171.78 215.62 166.61 198.18 161.43 219.38 156.25 201.95 151.08 223.15 145.9 205.72 140.72 226.92 135.55 209.49 132.96 220.09"/>
  <polyline class="cls-10" points="235.78 220.09 233.2 228.8 228.02 207.6 222.84 225.04 217.67 203.83 212.49 221.27 207.31 200.07 202.14 217.5 196.96 196.3 194.37 205.01"/>
  <rect class="cls-5" x="358.61" y="270.09" width="20" height="20"/>
  <rect class="cls-5" x="112.96" y="270.09" width="20" height="20"/>
  <polyline class="cls-9" points="420.02 280.09 417.44 289.75 412.26 270.43 407.08 289.75 401.91 270.43 396.73 289.75 391.55 270.43 386.37 289.75 381.2 270.43 378.61 280.09"/>
  <polyline class="cls-9" points="112.96 280.09 110.37 289.75 105.19 270.43 100.02 289.75 94.84 270.43 89.66 289.75 84.49 270.43 79.31 289.75 74.13 270.43 71.54 280.09"/>
  <rect class="cls-5" x="174.37" y="270.09" width="20" height="20"/>
  <polyline class="cls-9" points="174.37 280.09 171.78 289.75 166.61 270.43 161.43 289.75 156.25 270.43 151.08 289.75 145.9 270.43 140.72 289.75 135.55 270.43 132.96 280.09"/>
  <rect class="cls-6" x="235.78" y="255.02" width="20" height="20"/>
  <polyline class="cls-10" points="235.78 265.02 233.2 275.62 228.02 258.18 222.84 279.39 217.67 261.95 212.49 283.15 207.31 265.72 202.14 286.92 196.96 269.49 194.37 280.09"/>
  <polyline class="cls-10" points="297.2 280.09 294.61 288.81 289.43 267.6 284.26 285.04 279.08 263.83 273.9 281.27 268.73 260.07 263.55 277.5 258.37 256.3 255.78 265.02"/>
  <rect class="cls-5" x="235.78" y="330.09" width="20" height="20"/>
  <rect class="cls-5" x="358.61" y="330.09" width="20" height="20"/>
  <rect class="cls-5" x="112.96" y="330.09" width="20" height="20"/>
  <polyline class="cls-9" points="420.02 340.09 417.44 349.75 412.26 330.43 407.08 349.75 401.91 330.43 396.73 349.75 391.55 330.43 386.37 349.75 381.2 330.43 378.61 340.09"/>
  <polyline class="cls-9" points="112.96 340.09 110.37 349.75 105.19 330.43 100.02 349.75 94.84 330.43 89.66 349.75 84.49 330.43 79.31 349.75 74.13 330.43 71.54 340.09"/>
  <rect class="cls-5" x="174.37" y="330.09" width="20" height="20"/>
  <polyline class="cls-9" points="174.37 340.09 171.78 349.75 166.61 330.43 161.43 349.75 156.25 330.43 151.08 349.75 145.9 330.43 140.72 349.75 135.55 330.43 132.96 340.09"/>
  <polyline class="cls-9" points="235.78 340.09 233.2 349.75 228.02 330.43 222.84 349.75 217.67 330.43 212.49 349.75 207.31 330.43 202.14 349.75 196.96 330.43 194.37 340.09"/>
  <rect class="cls-6" x="297.2" y="315.02" width="20" height="20"/>
  <polyline class="cls-10" points="297.2 325.02 294.61 335.62 289.43 318.18 284.26 339.39 279.08 321.95 273.9 343.15 268.73 325.72 263.55 346.92 258.37 329.49 255.78 340.09"/>
  <polyline class="cls-10" points="358.61 340.09 356.02 348.81 350.85 327.6 345.67 345.04 340.49 323.83 335.32 341.27 330.14 320.07 324.96 337.5 319.79 316.3 317.2 325.02"/>
  <polyline class="cls-9" points="358.61 280.09 356.02 289.75 350.85 270.43 345.67 289.75 340.49 270.43 335.32 289.75 330.14 270.43 324.96 289.75 319.79 270.43 317.2 280.09"/>
  <g>
    <line class="cls-10" x1="294.26" y1="120.09" x2="300.14" y2="120.09"/>
    <polygon class="cls-3" points="287.2 120.09 297.15 124.15 294.79 120.09 297.15 116.02 287.2 120.09"/>
    <polygon class="cls-3" points="307.2 120.09 297.25 124.15 299.61 120.09 297.25 116.02 307.2 120.09"/>
  </g>
  <g>
    <line class="cls-10" x1="232.84" y1="70.09" x2="238.72" y2="70.09"/>
    <polygon class="cls-3" points="225.78 70.09 235.73 74.15 233.37 70.09 235.73 66.02 225.78 70.09"/>
    <polygon class="cls-3" points="245.78 70.09 235.83 74.15 238.2 70.09 235.83 66.02 245.78 70.09"/>
  </g>
  <g>
    <line class="cls-10" x1="171.43" y1="20.09" x2="177.31" y2="20.09"/>
    <polygon class="cls-3" points="164.37 20.09 174.32 24.15 171.96 20.09 174.32 16.02 164.37 20.09"/>
    <polygon class="cls-3" points="184.37 20.09 174.42 24.15 176.78 20.09 174.42 16.02 184.37 20.09"/>
  </g>
  <g>
    <line class="cls-10" x1="184.37" y1="207.45" x2="184.37" y2="201.58"/>
    <polygon class="cls-3" points="184.37 214.51 188.44 204.57 184.37 206.93 180.31 204.57 184.37 214.51"/>
    <polygon class="cls-3" points="184.37 194.51 188.44 204.46 184.37 202.1 180.31 204.46 184.37 194.51"/>
  </g>
  <g>
    <line class="cls-10" x1="245.78" y1="267.96" x2="245.78" y2="262.08"/>
    <polygon class="cls-3" points="245.78 275.02 249.85 265.07 245.78 267.43 241.72 265.07 245.78 275.02"/>
    <polygon class="cls-3" points="245.78 255.02 249.85 264.96 245.78 262.6 241.72 264.96 245.78 255.02"/>
  </g>
  <g>
    <line class="cls-10" x1="306.84" y1="327.96" x2="306.84" y2="322.08"/>
    <polygon class="cls-3" points="306.84 335.02 310.91 325.07 306.84 327.43 302.78 325.07 306.84 335.02"/>
    <polygon class="cls-3" points="306.84 315.02 310.91 324.96 306.84 322.6 302.78 324.96 306.84 315.02"/>
  </g>
  <g>
    <line class="cls-8" x1="210.28" y1="180.09" x2="271.16" y2="180.09"/>
    <polygon class="cls-3" points="285.28 180.09 265.39 188.22 270.11 180.09 265.39 171.96 285.28 180.09"/>
  </g>
  <text class="cls-1" transform="translate(213.01 174.09)"><tspan class="cls-11" x="0" y="0">w</tspan><tspan class="cls-12" x="17.57" y="0">a</tspan><tspan class="cls-13" x="28.94" y="0">v</tspan><tspan x="40.25" y="0">e</tspan></text>
  <text class="cls-2" transform="translate(0 20.09)"><tspan x="0" y="0">a</tspan></text>
  <text class="cls-2" transform="translate(0 205.01)"><tspan x="0" y="0">b</tspan></text>
</svg>